<svg xmlns="http://www.w3.org/2000/svg" width="48" height="48"><path fill="#90A4AE" fill-rule="evenodd" stroke="#90A4AE" d="M9.317 38.76A1.713 1.713 0 0 1 8 37.096c0-.578.403-1.106.403-1.106 1.283-1.476 1.994-2.976 1.994-5.086 0-.743-.102-1.46-.282-2.149a15.489 15.489 0 0 1 1.847-14.16A15.396 15.396 0 0 1 24.592 8c5.954 0 11.374 3.44 13.923 8.835a15.487 15.487 0 0 1-1.997 16.4l.018.013c-.091.1-.187.196-.28.295a15.5 15.5 0 0 1-2.496 2.33C29.779 39.073 24.935 40 19.436 40c-3.548 0-6.145-.159-10.12-1.239v-.001zm2.973-6.865c-.176 1.871-.864 3.477-2.17 5.07 3.496.925 5.82 1.09 9.316 1.09 5.883 0 9.927-1.139 13.11-3.7l.03-.022.028-.021a13.65 13.65 0 0 0 2.185-2.038l.024-.029.025-.027.045-.048.136-.166a13.553 13.553 0 0 0 3.043-8.552c0-7.448-6.042-13.507-13.47-13.507-7.427 0-13.47 6.059-13.47 13.507 0 .35.016.698.041 1.043l.076.526.112.57c.035.192.086.382.139.573.053.181.097.4.155.553l.198.596c.064.2.144.36.213.539.13.346.317.69.47 1.022.185.32.341.639.532.918.18.284.353.548.534.781l.251.337.244.289c.15.184.285.342.406.462l.368.388.037.04a.974.974 0 0 1-.517 1.617.968.968 0 0 1-.928-.32l-.397-.47a7.956 7.956 0 0 1-.433-.557l-.258-.348-.075-.116zm7.847-7.865a2.01 2.01 0 0 1-2.008 2.013 2.01 2.01 0 0 1-2.009-2.013c0-1.112.9-2.014 2.009-2.014a2.01 2.01 0 0 1 2.008 2.014zm4.454 2.013a2.01 2.01 0 0 1-2.008-2.013c0-1.112.9-2.014 2.008-2.014A2.01 2.01 0 0 1 26.6 24.03a2.01 2.01 0 0 1-2.008 2.013zm6.463 0a2.01 2.01 0 0 1-2.008-2.013c0-1.112.899-2.014 2.008-2.014a2.01 2.01 0 0 1 2.008 2.014 2.01 2.01 0 0 1-2.008 2.013z"/></svg>