<svg xmlns="http://www.w3.org/2000/svg" width="48" height="48"><path fill="#90A4AE" fill-rule="evenodd" d="M17.998 12.877h-.005c-3.908.005-7.087 3.163-7.084 7.043.01 8.673 10.96 13.95 13.153 14.919l.107-.085a.756.756 0 0 1 .1-.047c3.012-1.384 12.834-6.548 12.822-14.824-.006-3.872-3.188-7.02-7.093-7.02h-.01a7.05 7.05 0 0 0-4.254 1.415 1.55 1.55 0 0 1-.168.108 3.277 3.277 0 0 1-3.477-.22 7.087 7.087 0 0 0-4.091-1.289zM24.03 37.68c-.373 0-.737-.066-1.083-.195C19.384 35.91 8.014 30.094 8 19.923c-.006-5.459 4.475-9.903 9.99-9.91h.006a10.017 10.017 0 0 1 5.829 1.855.281.281 0 0 0 .265.045A9.962 9.962 0 0 1 29.986 10h.012c5.508 0 9.994 4.429 10.002 9.88.015 9.964-11.093 15.854-14.498 17.422l-.114.051-.192.086a2.793 2.793 0 0 1-1.166.24z"/></svg>