<svg xmlns="http://www.w3.org/2000/svg" width="48" height="48"><path fill="#90A4AE" d="M39.896 23.997c.427 2.143-.285 7.147-5.458 8.509-.265.069-.445.337-.479.617a7.861 7.861 0 0 1-3.398 5.62c-3.475 2.329-8.129 1.323-10.449-2.195-.184-.294-.458-.407-.837-.295a7.319 7.319 0 0 1-6.399-.834c-3.494-2.303-4.51-7.09-2.273-10.69a.773.773 0 0 0-.132-.97c-2.561-2.3-3.189-5.834-1.613-8.935 1.822-3.575 6.124-4.876 9.738-2.946.284.152.65.179.86-.07C21.3 9.61 23.532 8.012 27.107 8c5.597-.013 9.609 4.87 9.438 10.53a.644.644 0 0 0 .324.621c.486.304 2.413 1.766 3.025 4.846h.001zm-8.637 7.51c.003-.634.354-1.008.996-1.035 2.724-.162 4.873-2.575 4.716-5.381-.047-.81-.397-1.855-.8-2.553-.194-.338-.614-.497-.943-.296a.826.826 0 0 0-.27.325c-.65 1.298-1.7 2.496-2.831 3.377a1.033 1.033 0 0 1-1.414-.16c-.373-.441-.334-1.129.105-1.493 3.319-2.76 3.742-7.365 1.128-10.52-2.545-3.07-6.602-3.419-9.774-1.047-.402.301-1.17.954-1.653 1.931-.248.496-1.01.676-1.447.347-.01-.007-.076-.075-.086-.083-2.23-1.826-5.32-1.38-6.859.784-1.612 2.266-1.226 5.397 1.098 7.092.761.554 1.624.76 2.552.82.5.04.884.458.883.959a.956.956 0 0 1-.935.977 6.907 6.907 0 0 1-1.953-.263c-.33-.088-.623.083-.78.365-1.411 2.562-.54 5.816 1.948 7.268a5.042 5.042 0 0 0 3.581.59.706.706 0 0 0 .55-.776 7.668 7.668 0 0 1 1.373-5.304 1.025 1.025 0 0 1 1.435-.3c.477.327.61.973.297 1.46-1.487 2.357-.84 5.51 1.449 7.042 2.29 1.533 5.35.864 6.836-1.492a5.16 5.16 0 0 0 .798-2.633z"/></svg>