<svg width="48" height="48" fill="none" xmlns="http://www.w3.org/2000/svg"><rect width="48" height="48" rx="10" fill="#ECEFF1"/><mask id="a" style="mask-type:alpha" maskUnits="userSpaceOnUse" x="0" y="0" width="48" height="48"><rect width="48" height="48" rx="10" fill="#fff"/></mask><g mask="url(#a)"><path fill-rule="evenodd" clip-rule="evenodd" d="M23.888 13.986a.25.25 0 00-.274 0l-10.396 6.805a.235.235 0 00-.104.124.264.264 0 00.001.157c.018.058.05.103.085.13.03.025.077.048.155.048h20.792a.234.234 0 00.155-.047.264.264 0 00.085-.131.263.263 0 000-.157.234.234 0 00-.103-.124l-10.396-6.805zm-1.095-1.255a1.75 1.75 0 011.916 0l10.397 6.805c1.455.952.78 3.214-.959 3.214h-1.646v6.635A3.752 3.752 0 0135.251 33a1.75 1.75 0 01-1.75 1.75h-19.5a1.75 1.75 0 01-1.75-1.75 3.752 3.752 0 012.75-3.615V22.75h-1.646c-1.74 0-2.414-2.262-.959-3.214l10.397-6.805zM16.5 29.251h2.5v-6.5h-2.5v6.5zm4 0h2.5v-6.5h-2.5v6.5zm4 0h2.5v-6.5h-2.5v6.5zm4 0h2.5v-6.5h-2.5v6.5zM13.751 33a2.25 2.25 0 012.25-2.25h15.5a2.25 2.25 0 012.25 2.25.25.25 0 01-.25.25h-19.5a.25.25 0 01-.25-.25z" fill="#90A4AE"/></g></svg>