<svg xmlns="http://www.w3.org/2000/svg" width="218" height="149" viewBox="0 0 218 149"><g fill="none" fill-rule="evenodd"><g stroke-width="3"><path stroke="#CFD8DC" stroke-linecap="round" stroke-linejoin="round" d="M133.778 67.9s23.432 6.824 38.684 53.14c.679 2.06-1.537 3.5-3.692 3.374-2.838-.165-5.6.666-7.384 2.7-3.776 4.301-7.217 4.217-13.259 3.205-3.052-.512-6.385 3.104-8.426 4.774-.98.803-2.445.581-3.114-.496-1.789-2.876-4.236-6.445-4.236-17.606"/><path stroke="#90A4AE" d="M112.62 75.317c18.078 0 32.734-14.733 32.734-32.906 0-18.172-14.656-32.905-32.735-32.905S79.885 24.24 79.885 42.411c0 18.173 14.655 32.906 32.734 32.906"/><path stroke="#90A4AE" stroke-linecap="round" stroke-linejoin="round" d="M132.05 71.378c3.968 7.166 8.433 17.33 8.274 27.895v.005c-.189 12.413-11.117 21.803-21.817 21.64l-9.181-.14c-10.698-.163-21.802-9.596-21.615-22.007v-.004c.143-9.488 4.876-18.92 8.342-25.688"/><path stroke="#90A4AE" stroke-linecap="round" stroke-linejoin="round" d="M131 70.03s11.84 10.286 14.61 17.945c5.37 14.846-13.426 22.269-19.468-1.349m-.832 34.117l.16 26.614M86.813 63.245S71.89 45.519 73.794 9.506m22.52 108.147c-2.914 5.992-.621 13.227 5.203 16.422l2.61 1.433"/><path stroke="#90A4AE" stroke-linejoin="round" d="M106.587 32.605c.029 4.21 3.43 7.615 7.625 7.615 4.196 0 7.597-3.405 7.626-7.615h-15.25z"/><path stroke="#90A4AE" stroke-linecap="round" stroke-linejoin="round" d="M122.219 26.057a4.864 4.864 0 015.616 0m-28.952 0a4.864 4.864 0 015.617 0"/></g><path fill="#DBAC00" d="M190.99 90.042l-.828-.948a3.867 3.867 0 01-.887-3.249l.232-1.239a.715.715 0 00-.347-.752.707.707 0 00-.82.084l-.942.832a3.815 3.815 0 01-3.233.891l-1.233-.232a.71.71 0 00-.748.348.718.718 0 00.084.825l.827.947a3.87 3.87 0 01.887 3.25l-.231 1.239a.71.71 0 101.167.668l.941-.832a3.815 3.815 0 013.234-.89l1.232.23c.298.057.6-.083.748-.347a.718.718 0 00-.083-.825M57.569 7.915l-1.556-.793a5.35 5.35 0 01-2.818-3.732l-.34-1.718a.987.987 0 00-1.85-.255l-.787 1.563a5.326 5.326 0 01-3.713 2.833l-1.71.343a.994.994 0 00-.253 1.858l1.556.792a5.352 5.352 0 012.818 3.731l.34 1.72a.993.993 0 00.834.79.988.988 0 001.016-.535l.787-1.564a5.326 5.326 0 013.712-2.833l1.711-.342a.993.993 0 00.253-1.858"/><path fill="#CFD8DC" d="M67.582 78.992l-1.53-.778a5.26 5.26 0 01-2.77-3.67l-.335-1.69a.971.971 0 00-1.819-.251l-.773 1.54a5.24 5.24 0 01-3.65 2.785l-1.682.335a.978.978 0 00-.249 1.829l1.53.777a5.263 5.263 0 012.771 3.67l.334 1.69a.971.971 0 001.818.25l.775-1.537a5.235 5.235 0 013.65-2.785l1.681-.336a.978.978 0 00.249-1.829"/><path fill="#FFC900" d="M57.065 118.642l-.788-.904a3.68 3.68 0 01-.846-3.096l.221-1.18a.684.684 0 00-.33-.717.674.674 0 00-.782.08l-.897.793a3.64 3.64 0 01-3.082.849l-1.175-.222a.677.677 0 00-.713.332.683.683 0 00.08.787l.788.901a3.69 3.69 0 01.846 3.099l-.221 1.18a.684.684 0 00.33.717.676.676 0 00.782-.08l.898-.793a3.634 3.634 0 013.082-.85l1.175.222c.283.053.57-.08.713-.332a.683.683 0 00-.08-.786"/><path fill="#CFD8DC" d="M167.282 57.49l-.789-.904a3.677 3.677 0 01-.845-3.096l.22-1.18a.68.68 0 00-.33-.717.672.672 0 00-.782.08l-.897.793a3.64 3.64 0 01-3.081.849l-1.175-.222a.678.678 0 00-.633 1.119l.788.901a3.684 3.684 0 01.845 3.099l-.22 1.18a.684.684 0 00.33.717c.25.143.564.11.78-.08l.9-.793a3.635 3.635 0 013.08-.85l1.175.222a.676.676 0 00.713-.332.683.683 0 00-.08-.786"/><path fill="#FFC900" d="M6.266 44.494l-.666-.229a2.151 2.151 0 01-1.33-1.331l-.23-.666a.399.399 0 00-.753 0l-.23.666a2.15 2.15 0 01-1.331 1.331l-.665.229a.4.4 0 000 .754l.665.229a2.148 2.148 0 011.331 1.331l.23.665a.398.398 0 00.753 0l.23-.665a2.149 2.149 0 011.33-1.331l.666-.229a.4.4 0 000-.754"/><path fill="#CFD8DC" d="M25.02 71.738l-.811-.281a2.622 2.622 0 01-1.624-1.623l-.28-.811a.485.485 0 00-.92 0l-.28.81a2.622 2.622 0 01-1.623 1.624l-.812.28a.487.487 0 000 .92l.812.28c.762.263 1.36.862 1.624 1.624l.28.812a.486.486 0 00.919 0l.28-.812a2.622 2.622 0 011.624-1.623l.812-.281a.486.486 0 000-.92"/><path fill="#FFC900" d="M217.474 44.494l-.666-.229a2.151 2.151 0 01-1.33-1.331l-.23-.666a.399.399 0 00-.753 0l-.23.666a2.15 2.15 0 01-1.331 1.331l-.665.229a.4.4 0 000 .754l.665.229a2.148 2.148 0 011.331 1.331l.23.665a.398.398 0 00.753 0l.23-.665a2.149 2.149 0 011.33-1.331l.666-.229a.4.4 0 000-.754"/><path fill="#DBAC00" d="M182.679 24.043l-.812-.281a2.622 2.622 0 01-1.624-1.623l-.28-.811a.485.485 0 00-.919 0l-.28.811a2.622 2.622 0 01-1.624 1.623l-.812.281a.487.487 0 000 .919l.812.281c.762.262 1.36.861 1.624 1.623l.28.812a.486.486 0 00.919 0l.28-.812a2.622 2.622 0 011.624-1.623l.812-.281a.486.486 0 000-.919"/></g></svg>