<svg xmlns="http://www.w3.org/2000/svg" xmlns:xlink="http://www.w3.org/1999/xlink" width="203" height="204" viewBox="0 0 203 204"><defs><filter id="c" width="129.1%" height="129.1%" x="-14.5%" y="-14.5%" filterUnits="objectBoundingBox"><feMorphology in="SourceAlpha" radius="16" result="shadowSpreadInner1"/><feGaussianBlur in="shadowSpreadInner1" result="shadowBlurInner1" stdDeviation="11.5"/><feOffset in="shadowBlurInner1" result="shadowOffsetInner1"/><feComposite in="shadowOffsetInner1" in2="SourceAlpha" k2="-1" k3="1" operator="arithmetic" result="shadowInnerInner1"/><feColorMatrix in="shadowInnerInner1" values="0 0 0 0 1 0 0 0 0 1 0 0 0 0 1 0 0 0 0.2 0"/></filter><filter id="e" width="123.1%" height="123.1%" x="-11.6%" y="-11.6%" filterUnits="objectBoundingBox"><feMorphology in="SourceAlpha" radius="16" result="shadowSpreadInner1"/><feGaussianBlur in="shadowSpreadInner1" result="shadowBlurInner1" stdDeviation="11.5"/><feOffset in="shadowBlurInner1" result="shadowOffsetInner1"/><feComposite in="shadowOffsetInner1" in2="SourceAlpha" k2="-1" k3="1" operator="arithmetic" result="shadowInnerInner1"/><feColorMatrix in="shadowInnerInner1" values="0 0 0 0 1 0 0 0 0 1 0 0 0 0 1 0 0 0 0.2 0"/></filter><filter id="g" width="119.3%" height="119.3%" x="-9.6%" y="-9.6%" filterUnits="objectBoundingBox"><feMorphology in="SourceAlpha" radius="16" result="shadowSpreadInner1"/><feGaussianBlur in="shadowSpreadInner1" result="shadowBlurInner1" stdDeviation="11.5"/><feOffset in="shadowBlurInner1" result="shadowOffsetInner1"/><feComposite in="shadowOffsetInner1" in2="SourceAlpha" k2="-1" k3="1" operator="arithmetic" result="shadowInnerInner1"/><feColorMatrix in="shadowInnerInner1" values="0 0 0 0 1 0 0 0 0 1 0 0 0 0 1 0 0 0 0.2 0"/></filter><filter id="h" width="116.6%" height="138.6%" x="-8.3%" y="-19.3%" filterUnits="objectBoundingBox"><feOffset in="SourceAlpha" result="shadowOffsetOuter1"/><feGaussianBlur in="shadowOffsetOuter1" result="shadowBlurOuter1" stdDeviation="2"/><feColorMatrix in="shadowBlurOuter1" result="shadowMatrixOuter1" values="0 0 0 0 1 0 0 0 0 1 0 0 0 0 1 0 0 0 0.5 0"/><feMerge><feMergeNode in="shadowMatrixOuter1"/><feMergeNode in="SourceGraphic"/></feMerge></filter><circle id="b" cx="101.491" cy="101.539" r="67.086"/><circle id="d" cx="101.491" cy="101.539" r="84.295"/><circle id="f" cx="101.491" cy="101.539" r="101.255"/><linearGradient id="a" x1="86.388%" x2="24.282%" y1="-45.952%" y2="108.529%"><stop offset="0%" stop-color="#8FD6FF"/><stop offset="100%" stop-color="#56ACFF"/></linearGradient></defs><g fill="none" fill-rule="evenodd" transform="translate(-.596 .452)"><g opacity=".3" transform="translate(.527 .228)"><use fill="url(#a)" xlink:href="#b"/><use fill="#000" filter="url(#c)" xlink:href="#b"/></g><g opacity=".3" transform="translate(.527 .228)"><use fill="url(#a)" xlink:href="#d"/><use fill="#000" filter="url(#e)" xlink:href="#d"/></g><g opacity=".103" transform="translate(.527 .228)"><use fill="url(#a)" xlink:href="#f"/><use fill="#000" filter="url(#g)" xlink:href="#f"/></g><circle cx="102.035" cy="101.787" r="46.231" fill="url(#a)"/><g fill="#FFF" fill-rule="nonzero" filter="url(#h)" transform="translate(65.227 86.191)"><path d="M.334 1.615A1.9 1.9 0 013.122.393l18.982 10.781-.167.295.167-.295c5.076 2.885 6.853 9.335 3.97 14.41-2.883 5.075-9.334 6.852-14.409 3.97a10.549 10.549 0 01-5.24-7.695l-1.042-.592c-2.605-1.478-3.64-4.672-2.467-7.397a5.83 5.83 0 01-1.158-6.182C.186 6.24-.251 4.121.334 1.615zM12.77 27.612a8.335 8.335 0 0011.363-3.131l.294.167-.294-.167A8.334 8.334 0 0021 13.118L2.422 2.552c-.329 1.86.16 3.21 1.54 3.993l14.724 8.362a1.118 1.118 0 01-1.103 1.944L3.675 8.95a3.613 3.613 0 001.702 4.072l9.277 5.27a1.117 1.117 0 11-1.103 1.942l-8.767-4.98a3.611 3.611 0 001.703 4.071l4.792 2.722a1.117 1.117 0 11-1.105 1.943l-1.041-.592a8.281 8.281 0 003.636 4.214z"/><path d="M22.6 1.615A1.9 1.9 0 0125.388.393L44.37 11.174l-.168.295.168-.295c5.076 2.885 6.853 9.335 3.969 14.41-2.882 5.075-9.334 6.852-14.408 3.97a10.549 10.549 0 01-5.24-7.695l-1.042-.592c-2.605-1.478-3.641-4.672-2.467-7.397a5.83 5.83 0 01-1.159-6.182C22.452 6.24 22.015 4.121 22.6 1.615zm12.434 25.997a8.335 8.335 0 0011.363-3.131l.295.167-.295-.167a8.334 8.334 0 00-3.13-11.363L24.686 2.552c-.328 1.86.161 3.21 1.541 3.993l14.724 8.362a1.118 1.118 0 01-1.103 1.944L25.94 8.95a3.613 3.613 0 001.703 4.072l9.277 5.27a1.117 1.117 0 11-1.103 1.942l-8.767-4.98a3.611 3.611 0 001.702 4.071l4.792 2.722a1.117 1.117 0 11-1.104 1.943l-1.042-.592a8.281 8.281 0 003.636 4.214z"/><path d="M44.76 1.615A1.9 1.9 0 0147.55.393l18.98 10.781-.167.295.167-.295c5.076 2.885 6.854 9.335 3.97 14.41-2.883 5.075-9.334 6.852-14.408 3.97a10.549 10.549 0 01-5.241-7.695l-1.041-.592c-2.605-1.478-3.641-4.672-2.468-7.397a5.83 5.83 0 01-1.158-6.182c-1.572-1.448-2.009-3.567-1.423-6.073zm12.435 25.997a8.335 8.335 0 0011.363-3.131l.295.167-.295-.167a8.334 8.334 0 00-3.131-11.363L46.848 2.552c-.328 1.86.16 3.21 1.54 3.993l14.725 8.362a1.118 1.118 0 01-1.103 1.944L48.1 8.95a3.613 3.613 0 001.703 4.072l9.277 5.27a1.117 1.117 0 01-1.103 1.942l-8.767-4.98a3.611 3.611 0 001.703 4.071l4.792 2.722A1.117 1.117 0 1154.6 23.99l-1.042-.592a8.281 8.281 0 003.636 4.214z"/></g><path fill="#FFF" d="M77.996 113.803a8.335 8.335 0 0011.363-3.131l.294.167-.294-.167a8.334 8.334 0 00-3.132-11.363L67.65 88.743c-.329 1.86.16 3.21 1.54 3.993l14.724 8.363a1.118 1.118 0 01-1.103 1.943l-13.909-7.9a3.613 3.613 0 001.703 4.07l9.277 5.27a1.117 1.117 0 11-1.103 1.942l-8.767-4.979a3.611 3.611 0 001.703 4.072l4.791 2.722a1.117 1.117 0 11-1.104 1.942l-1.041-.592a8.281 8.281 0 003.636 4.214zm22.298 0a8.335 8.335 0 0011.363-3.131l.294.167-.294-.167a8.334 8.334 0 00-3.132-11.363L89.947 88.743c-.329 1.86.16 3.21 1.54 3.993l14.724 8.363a1.118 1.118 0 01-1.103 1.943l-13.909-7.9a3.613 3.613 0 001.703 4.07l9.277 5.27a1.117 1.117 0 11-1.103 1.942l-8.767-4.979a3.611 3.611 0 001.703 4.072l4.792 2.722a1.117 1.117 0 11-1.105 1.942l-1.041-.592a8.281 8.281 0 003.636 4.214zm22.256 0a8.335 8.335 0 0011.362-3.131l.295.167-.295-.167a8.334 8.334 0 00-3.13-11.363l-18.58-10.566c-.328 1.86.161 3.21 1.541 3.993l14.724 8.363a1.118 1.118 0 01-1.103 1.943l-13.909-7.9a3.613 3.613 0 001.703 4.07l9.277 5.27a1.117 1.117 0 11-1.103 1.942l-8.767-4.979a3.611 3.611 0 001.702 4.072l4.792 2.722a1.117 1.117 0 11-1.104 1.942l-1.042-.592a8.281 8.281 0 003.636 4.214z" opacity=".383"/></g></svg>