<svg xmlns="http://www.w3.org/2000/svg" xmlns:xlink="http://www.w3.org/1999/xlink" width="121" height="122" viewBox="0 0 121 122"><defs><filter id="c" width="132.3%" height="132.3%" x="-16.2%" y="-16.2%" filterUnits="objectBoundingBox"><feMorphology in="SourceAlpha" radius="16" result="shadowSpreadInner1"/><feGaussianBlur in="shadowSpreadInner1" result="shadowBlurInner1" stdDeviation="11.5"/><feOffset in="shadowBlurInner1" result="shadowOffsetInner1"/><feComposite in="shadowOffsetInner1" in2="SourceAlpha" k2="-1" k3="1" operator="arithmetic" result="shadowInnerInner1"/><feColorMatrix in="shadowInnerInner1" values="0 0 0 0 1 0 0 0 0 1 0 0 0 0 1 0 0 0 0.2 0"/></filter><filter id="d" width="154.2%" height="151.1%" x="-26.9%" y="-24.1%" filterUnits="objectBoundingBox"><feOffset in="SourceAlpha" result="shadowOffsetOuter1"/><feGaussianBlur in="shadowOffsetOuter1" result="shadowBlurOuter1" stdDeviation="2.5"/><feColorMatrix in="shadowBlurOuter1" result="shadowMatrixOuter1" values="0 0 0 0 1 0 0 0 0 1 0 0 0 0 1 0 0 0 0.5 0"/><feMerge><feMergeNode in="shadowMatrixOuter1"/><feMergeNode in="SourceGraphic"/></feMerge></filter><linearGradient id="a" x1="50%" x2="25.565%" y1="0%" y2="87.793%"><stop offset="0%" stop-color="#2BE2D6"/><stop offset="0%" stop-color="#2BE2D6"/><stop offset="0%" stop-color="#2AE1D5"/><stop offset="1.299%" stop-color="#2AE0D4"/><stop offset="100%" stop-color="#13C1AC"/></linearGradient><circle id="b" cx="60.625" cy="60.362" r="60.306"/></defs><g fill="none" fill-rule="evenodd" transform="translate(-.271)"><g opacity=".273" transform="translate(.12 .66)"><use fill="url(#a)" xlink:href="#b"/><use fill="#000" filter="url(#c)" xlink:href="#b"/></g><circle cx="60.745" cy="61.022" r="40.226" fill="url(#a)"/><g fill="#FFF" filter="url(#d)" transform="translate(45.086 45.472)"><path fill-rule="nonzero" d="M.475 1.695A1.9 1.9 0 013.263.474l18.981 10.78-.167.295.167-.294c5.076 2.884 6.854 9.335 3.97 14.41-2.883 5.075-9.334 6.852-14.408 3.969a10.549 10.549 0 01-5.241-7.694l-1.041-.592c-2.605-1.479-3.641-4.673-2.468-7.398a5.83 5.83 0 01-1.158-6.182C.326 6.321-.11 4.201.475 1.695zm12.434 25.997a8.335 8.335 0 0011.363-3.131l.295.167-.295-.167a8.334 8.334 0 00-3.131-11.363L2.562 2.632c-.328 1.86.16 3.21 1.541 3.993l14.724 8.363a1.118 1.118 0 01-1.103 1.943l-13.909-7.9a3.613 3.613 0 001.703 4.071l9.276 5.27a1.117 1.117 0 01-1.103 1.942l-8.767-4.98a3.611 3.611 0 001.703 4.072l4.792 2.722a1.117 1.117 0 11-1.104 1.943l-1.042-.593a8.281 8.281 0 003.636 4.214z"/><path d="M12.91 27.692a8.335 8.335 0 0011.362-3.131l.295.167-.295-.167a8.334 8.334 0 00-3.131-11.363L2.562 2.632c-.328 1.86.16 3.21 1.541 3.993l14.724 8.363a1.118 1.118 0 01-1.103 1.943l-13.909-7.9a3.613 3.613 0 001.703 4.071l9.276 5.27a1.117 1.117 0 01-1.103 1.942l-8.767-4.98a3.611 3.611 0 001.703 4.072l4.792 2.722a1.117 1.117 0 11-1.104 1.943l-1.042-.593a8.281 8.281 0 003.636 4.214z" opacity=".3"/></g></g></svg>