<svg xmlns="http://www.w3.org/2000/svg" xmlns:xlink="http://www.w3.org/1999/xlink" width="141" height="195" viewBox="0 0 141 195"><defs><filter id="a" width="154.2%" height="127.9%" x="-27.1%" y="-14.4%" filterUnits="objectBoundingBox"><feOffset in="SourceAlpha" result="shadowOffsetOuter1"/><feGaussianBlur in="shadowOffsetOuter1" result="shadowBlurOuter1" stdDeviation="5"/><feColorMatrix in="shadowBlurOuter1" result="shadowMatrixOuter1" values="0 0 0 0 1 0 0 0 0 1 0 0 0 0 1 0 0 0 0.6 0"/><feMerge><feMergeNode in="shadowMatrixOuter1"/><feMergeNode in="SourceGraphic"/></feMerge></filter><rect id="b" width="58.488" height="57.739" y=".715" rx="10"/><path id="c" d="M35.862 109.613a.803.803 0 01-.619-.781c0-.272.19-.518.19-.518.603-.692.937-1.395.937-2.385a3.93 3.93 0 00-.133-1.006 7.242 7.242 0 1112.41 2.1l.007.006c-.042.047-.088.092-.131.139a7.27 7.27 0 01-1.174 1.091c-1.87 1.5-4.147 1.934-6.731 1.934-1.667 0-2.888-.074-4.756-.58zm1.397-3.218c-.082.877-.406 1.63-1.02 2.376 1.644.434 2.736.511 4.379.511 2.765 0 4.665-.534 6.162-1.734l.013-.01.014-.01a6.383 6.383 0 001.026-.956l.011-.013.012-.012.021-.023.064-.078a6.34 6.34 0 001.43-4.007 6.338 6.338 0 00-6.33-6.332 6.338 6.338 0 00-6.311 6.82l.035.247.053.266c.016.09.04.18.065.269.025.085.046.187.073.26l.094.278c.03.095.067.169.1.253.06.163.148.324.22.48.087.149.16.299.25.43.085.132.166.257.251.365l.118.158.115.136c.07.086.133.16.19.216l.173.182.018.019a.456.456 0 11-.68.608l-.186-.22a3.73 3.73 0 01-.203-.262c-.039-.05-.079-.105-.122-.163l-.035-.054zm3.688-3.686a.944.944 0 11-1.887 0 .944.944 0 011.887 0zm2.094.943a.944.944 0 110-1.887.944.944 0 010 1.887zm3.037 0a.944.944 0 110-1.887.944.944 0 010 1.887z"/></defs><g fill="none" fill-rule="evenodd" transform="translate(11 11.533)"><g stroke="#979797" stroke-width="2" opacity=".3" transform="translate(69.736 22.624)"><rect width="58.488" height="57.739" rx="10"/><path stroke-linecap="round" stroke-linejoin="round" d="M6.374 65.987h25.539M6.418 73.485h48.321"/></g><g stroke="#979797" stroke-width="2" opacity=".3" transform="translate(69.736 108.107)"><rect width="58.488" height="57.739" rx="10"/><path stroke-linecap="round" stroke-linejoin="round" d="M1.125 65.987h25.539M1.169 73.485h55.738"/></g><rect width="58.488" height="57.739" y="123.426" stroke="#979797" stroke-width="2" opacity=".3" rx="10"/><g filter="url(#a)"><g stroke-width="2"><use stroke="#979797" xlink:href="#b"/><use stroke="#FFF" xlink:href="#b"/></g><path stroke="#FFF" stroke-linecap="round" stroke-linejoin="round" stroke-width="2" d="M3.54 69.51h22.752M3.58 77.2h49.655M3.58 84.281h49.655"/><use fill="#AEAEAE" xlink:href="#c"/><use fill="#FFF" stroke="#FFF" stroke-width=".5" xlink:href="#c"/><path stroke="#FFF" stroke-linecap="round" stroke-linejoin="round" stroke-width="2" d="M15.541 96.846a.907.907 0 01-1-.07 4.446 4.446 0 00-2.583-.822 4.466 4.466 0 00-4.46 4.47c.006 5 5.929 7.94 7.319 8.56a.834.834 0 00.294.054.685.685 0 00.303-.063l.12-.054c1.659-.772 7.165-3.691 7.158-8.517a4.464 4.464 0 00-7.15-3.558z"/></g></g></svg>