<svg width="200" height="237" viewBox="0 0 200 237" xmlns="http://www.w3.org/2000/svg"><g id="Page-1" fill="none" fill-rule="evenodd"><g id="featured-listing" transform="translate(-460 -258)"><g id="icon" transform="translate(460 258)"><circle id="Oval" fill="#FFF" fill-rule="nonzero" cx="100" cy="112" r="100"/><path d="M19.476 61.37l-1.546-.783a5.294 5.294 0 01-2.8-3.687l-.336-1.698a.98.98 0 00-1.837-.25l-.781 1.543a5.288 5.288 0 01-3.687 2.8l-1.7.337a.98.98 0 00-.251 1.836l1.546.782a5.293 5.293 0 012.799 3.687l.337 1.7a.982.982 0 001.837.251l.78-1.546a5.291 5.291 0 013.688-2.798l1.699-.339a.979.979 0 00.252-1.836" id="Fill-9" fill="#CFD8DC"/><path d="M143.666 167.419l-1.52-.768a5.203 5.203 0 01-2.751-3.626l-.333-1.669a.965.965 0 00-1.805-.248l-.769 1.519a5.194 5.194 0 01-3.625 2.752l-1.67.332a.964.964 0 00-.247 1.806l1.519.769a5.198 5.198 0 012.752 3.625l.332 1.67a.965.965 0 001.805.247l.769-1.519a5.202 5.202 0 013.626-2.752l1.669-.332a.965.965 0 00.248-1.806" id="Fill-12" fill="#CFD8DC"/><path d="M132.647 90.629c-1.2-.33-2.36-.84-3.433-1.49 3.305 13.916 6.282 27.843 7.898 38.75l-2.86.243a1.5 1.5 0 00.255 2.99l4.444-.379a1.498 1.498 0 001.357-1.702c-1.487-10.656-4.385-24.468-7.661-38.412" id="Fill-14" fill="#CFD8DC"/><path d="M125.248 73.013c.263-.458.573-.884.962-1.327.116-.133.242-.27.373-.397.144-.187.294-.368.445-.55l.045-.055c.072-.086.14-.175.213-.26.102-.113.215-.198.322-.297-5.711-22.38-11.051-40.901-11.153-41.25a1.5 1.5 0 00-1.728-1.055L54.867 39.54a1.5 1.5 0 00-1.15 1.898l2.041 6.893a1.5 1.5 0 002.877-.851l-1.574-5.313 56.891-11.137a1554.23 1554.23 0 0111.296 41.982" id="Fill-16" fill="#CFD8DC"/><path d="M66.048 87.432s-2.765-8.805-15.401-3.66c-12.637 5.143-30.86 9.22-41.577 2.842 0 0 3.823 15.484 23.295 9.378" id="Stroke-18" stroke="#13C1AC" stroke-width="3" stroke-linecap="round" stroke-linejoin="round"/><path d="M18.977 97.983s5.132 10.906 18.62 5.425" id="Stroke-20" stroke="#13C1AC" stroke-width="3" stroke-linecap="round" stroke-linejoin="round"/><path d="M29.237 105.8s3.438 7.713 16.044 2.443" id="Stroke-22" stroke="#13C1AC" stroke-width="3" stroke-linecap="round" stroke-linejoin="round"/><path d="M41.419 110.496s3.047 6.072 10.645 1.596c7.597-4.476 8.569-7.107 8.569-7.107" id="Stroke-24" stroke="#13C1AC" stroke-width="3" stroke-linecap="round" stroke-linejoin="round"/><path d="M53.907 92.879s11.408-4.753 13.271 3.21" id="Stroke-26" stroke="#13C1AC" stroke-width="3" stroke-linecap="round" stroke-linejoin="round"/><g id="Group-31" transform="translate(51 100.794)"><path d="M.155 1.25L3.03.5" id="Fill-28" fill="#FFF"/><path d="M.155 1.25L3.03.5" id="Stroke-30" stroke="#13C1AC" stroke-width="3" stroke-linecap="round" stroke-linejoin="round"/></g><path d="M125.176 81.136c-1.076-14.638 11.298-17.017 11.298-17.017 21.97-3.226 39.707-14.517 46.87-28.166 0 0 13.826 21.083-29.034 33.683" id="Stroke-32" stroke="#13C1AC" stroke-width="3" stroke-linecap="round" stroke-linejoin="round"/><path d="M183.608 54.218s11.022 13.997-23.437 22.254" id="Stroke-34" stroke="#13C1AC" stroke-width="3" stroke-linecap="round" stroke-linejoin="round"/><path d="M181.386 68.462s1.748 11.017-16.402 15.083" id="Stroke-36" stroke="#13C1AC" stroke-width="3" stroke-linecap="round" stroke-linejoin="round"/><path d="M174.512 80.62s.838 11.022-16.623 8.787" id="Stroke-38" stroke="#13C1AC" stroke-width="3" stroke-linecap="round" stroke-linejoin="round"/><path d="M165.027 90c-3.096 2.28-7.366 4.345-12.912 4.724-1.9.13-3.952.061-6.157-.265-5.21-.769-11.28-2.977-18.263-7.403" id="Stroke-40" stroke="#13C1AC" stroke-width="3" stroke-linecap="round" stroke-linejoin="round"/><g id="Group-45" transform="translate(137 80.794)"><path d="M.155.625s3.875 1 5.875.5" id="Fill-42" fill="#FFF"/><path d="M.155.625s3.875 1 5.875.5" id="Stroke-44" stroke="#13C1AC" stroke-width="3" stroke-linecap="round" stroke-linejoin="round"/></g><g id="Group-49" transform="translate(142 72.794)"><path d="M.03 1.375s3.25 0 4.375-.375" id="Fill-46" fill="#FFF"/><path d="M.03 1.375s3.25 0 4.375-.375" id="Stroke-48" stroke="#13C1AC" stroke-width="3" stroke-linecap="round" stroke-linejoin="round"/></g><path d="M89.57 167.294l.171 35" id="Stroke-50" stroke="#ECEFF1" stroke-width="3" stroke-linecap="round" stroke-linejoin="round"/><path d="M120.57 174.294l.171 23" id="Stroke-52" stroke="#ECEFF1" stroke-width="3" stroke-linecap="round" stroke-linejoin="round"/><path d="M105.655 158.294v77" id="Stroke-54" stroke="#ECEFF1" stroke-width="3" stroke-linecap="round" stroke-linejoin="round"/><path d="M61.08 134.247l-.783-.893a3.62 3.62 0 01-.839-3.06l.22-1.165a.674.674 0 00-1.106-.63l-.89.784a3.626 3.626 0 01-3.06.839l-1.168-.22a.672.672 0 10-.629 1.104l.783.893a3.623 3.623 0 01.84 3.06l-.22 1.167a.674.674 0 001.105.629l.892-.783a3.624 3.624 0 013.06-.84l1.166.219a.671.671 0 00.63-1.104" id="Fill-56" fill="#C1F5E6"/><path d="M119.788 5.915l-.783-.892a3.622 3.622 0 01-.84-3.06l.22-1.166a.672.672 0 00-1.106-.63l-.89.784a3.625 3.625 0 01-3.06.839l-1.168-.218a.672.672 0 00-.629 1.103l.784.893a3.625 3.625 0 01.84 3.06l-.22 1.166a.674.674 0 001.105.629l.892-.783a3.623 3.623 0 013.06-.84l1.166.219a.673.673 0 00.63-1.104" id="Fill-58" fill="#C1F5E6"/><path d="M165.222 138.002l-.821-.936a3.8 3.8 0 01-.881-3.21l.229-1.224a.705.705 0 00-1.16-.66l-.933.822a3.804 3.804 0 01-3.211.88l-1.225-.228a.704.704 0 00-.66 1.157l.822.936a3.803 3.803 0 01.88 3.212l-.228 1.224a.705.705 0 001.158.66l.935-.822a3.808 3.808 0 013.21-.881l1.226.23a.707.707 0 00.743-.345.707.707 0 00-.084-.815" id="Fill-60" fill="#CFD8DC"/><path d="M120.655 205.294v15" id="Stroke-62" stroke="#ECEFF1" stroke-width="3" stroke-linecap="round"/><path d="M89.655 209.294v4" id="Stroke-64" stroke="#ECEFF1" stroke-width="3" stroke-linecap="round"/><path d="M87.903 87.394a7.572 7.572 0 0014.752-3.427l-14.752 3.427z" id="Stroke-66" stroke="#607D8B" stroke-width="3" stroke-linejoin="round"/><path d="M105.456 76.675a4.852 4.852 0 015.434-1.262" id="Stroke-68" stroke="#607D8B" stroke-width="3" stroke-linecap="round" stroke-linejoin="round"/><path d="M76.064 83.504a4.85 4.85 0 015.434-1.263" id="Stroke-70" stroke="#607D8B" stroke-width="3" stroke-linecap="round" stroke-linejoin="round"/><path d="M51.822 49.536c-2-.691 16.666 25.572 27.333 96.758l56-8.985s-11-78.015-29.5-104.015L51.822 49.536z" id="Stroke-72" stroke="#607D8B" stroke-width="3" stroke-linecap="round" stroke-linejoin="round"/><path d="M60.794 53.81c-1.617-.612 13.739 22.258 22.36 85.15l45-7.604s-12.332-70.062-26-89.729L60.795 53.81z" id="Stroke-74" stroke="#CFD8DC" stroke-width="3" stroke-linecap="round" stroke-linejoin="round"/><path d="M92.488 135.627a7.667 7.667 0 00-7.666-7.667c-1.703 0-1.729-.604-3 .335-1.893 1.395 1.333 6.135 1.333 8.666 0 4.233-2.9 1 1.333 1 1.852 0-.658 1.425.667.333 1.705-1.407 7.333-.284 7.333-2.667" id="Fill-76" fill="#CFD8DC"/><path d="M118.639 131.77a7.666 7.666 0 013.788-10.158c1.549-.707 1.32-1.27 2.867-.944 2.3.485 1.336 6.135 2.388 8.438 1.76 3.852 3.055-.296-.797 1.463-1.684.769 1.192 1.024-.468.58-2.135-.57-6.788 2.789-7.778.622" id="Fill-78" fill="#CFD8DC"/><path d="M70.806 52.557a7.667 7.667 0 01-2.762 10.485c-1.47.857-1.187 1.393-2.76 1.223-2.336-.253-1.937-5.972-3.212-8.16-2.133-3.657-3.01.598.648-1.534 1.599-.933-1.287-.901.407-.624 2.182.356 6.479-3.45 7.679-1.39" id="Fill-80" fill="#CFD8DC"/><path d="M93.303 46.796a7.668 7.668 0 009.108 5.883c1.664-.358 1.817.228 2.863-.957 1.555-1.763-2.594-5.718-3.126-8.193-.891-4.139 2.625-1.587-1.514-.697-1.81.39.344-1.532-.723-.185-1.371 1.733-7.11 1.82-6.608 4.15" id="Fill-82" fill="#CFD8DC"/></g></g></g></svg>