<svg width="309" height="107" fill="none" xmlns="http://www.w3.org/2000/svg"><path opacity=".56" d="M298.944 12.238a2.104 2.104 0 01-1.539-.657l-7.921-8.52c-.728-.78-.62-1.959.23-2.616.85-.67 2.132-.57 2.847.21l7.921 8.52c.729.781.621 1.96-.229 2.617a2.102 2.102 0 01-1.309.446z" fill="#13C1AC"/><path d="M69.395 79.121a2.103 2.103 0 01-1.033 1.316l-10.28 5.446c-.943.502-2.053.093-2.468-.899-.426-.994.001-2.207.941-2.695l10.28-5.447c.943-.501 2.053-.092 2.467.9a2.1 2.1 0 01.093 1.379z" fill="#FAD7D7"/><path opacity=".3" d="M55.107 25.463a2.3 2.3 0 01-2.751-.669 2.4 2.4 0 01.323-3.339c2.968-2.478 5.115-5.78 6.204-9.547a2.305 2.305 0 012.886-1.595c1.233.374 1.93 1.695 1.569 2.955-1.348 4.68-4.02 8.782-7.714 11.867a2.145 2.145 0 01-.517.328z" fill="#56CCF2"/><path opacity=".3" d="M167.401 96.476c-.566-.731-.616-1.742-.059-2.45.667-.854 1.943-.954 2.862-.23 2.738 2.16 5.979 3.494 9.372 3.854 1.134.118 2.016 1.114 1.981 2.224-.034 1.11-.983 1.906-2.116 1.788-4.215-.443-8.243-2.105-11.65-4.793a2.11 2.11 0 01-.39-.393z" fill="#F2C94C"/><path d="M4.666 34.745c.253-.04.513-.041.763-.013 4.338.55 8.12 2.584 10.97 5.887a2.694 2.694 0 01-.28 3.803 2.695 2.695 0 01-3.803-.281c-1.963-2.283-4.578-3.683-7.564-4.067a2.7 2.7 0 01-2.34-3.015 2.708 2.708 0 012.254-2.314z" fill="#13C1AC" fill-opacity=".4"/><path d="M280.559 74.88c-1.381.395-2.865-.412-3.343-1.84-.487-1.453.269-3.015 1.673-3.473 3.423-1.107 6.165-3.38 7.934-6.578.732-1.309 2.366-1.746 3.675-.962 1.31.785 1.769 2.478 1.041 3.8-2.426 4.384-6.188 7.513-10.89 9.028l-.09.026z" fill="#B355ED" fill-opacity=".4" opacity=".8"/><g opacity=".29"><path opacity=".59" d="M229.229 88.525a1.59 1.59 0 01.477-2.118c1.811-1.24 3.474-.765 4.698-.424 1.094.306 1.496.377 2.017.018.528-.363.603-.758.714-1.886.116-1.26.285-2.985 2.09-4.22 1.804-1.236 3.473-.766 4.691-.421 1.093.306 1.495.377 2.016.018a1.6 1.6 0 012.221.417c.511.719.31 1.723-.417 2.22-1.804 1.236-3.473.766-4.691.421-1.093-.306-1.495-.377-2.016-.018-.528.363-.604.758-.714 1.886-.117 1.26-.286 2.985-2.09 4.22-1.804 1.236-3.474.766-4.691.421-1.094-.306-1.496-.377-2.024-.014a1.6 1.6 0 01-2.221-.417l-.06-.103z" fill="#13C1AC"/></g><g opacity=".29"><path opacity=".59" d="M130.229 59.525a1.59 1.59 0 01.477-2.118c1.811-1.24 3.474-.765 4.698-.424 1.094.306 1.496.377 2.017.018.528-.363.603-.758.714-1.886.116-1.26.285-2.985 2.09-4.22 1.804-1.236 3.473-.766 4.691-.422 1.093.307 1.495.378 2.016.019a1.6 1.6 0 012.221.417c.511.719.31 1.723-.417 2.22-1.804 1.236-3.473.766-4.691.421-1.093-.306-1.495-.377-2.016-.018-.528.363-.604.758-.714 1.886-.117 1.26-.286 2.985-2.09 4.22-1.804 1.236-3.474.766-4.691.421-1.094-.306-1.496-.377-2.024-.014a1.6 1.6 0 01-2.221-.417l-.06-.103z" fill="#13C1AC"/></g><g opacity=".99"><path opacity=".59" d="M45.63 67.235c-.68.574-1.71.522-2.355-.145-1.691-1.731-1.525-3.6-1.412-4.974.103-1.228.097-1.672-.392-2.17-.495-.505-.932-.517-2.157-.44-1.368.093-3.242.21-4.928-1.514s-1.526-3.599-1.407-4.967c.103-1.228.097-1.672-.392-2.17-.68-.694-.683-1.797-.01-2.458.663-.674 1.775-.632 2.454.063 1.686 1.724 1.526 3.6 1.407 4.967-.103 1.228-.097 1.672.392 2.17.495.504.932.517 2.157.44 1.367-.093 3.242-.21 4.928 1.513 1.686 1.725 1.526 3.6 1.407 4.968-.103 1.227-.097 1.671.398 2.176.679.695.683 1.798.009 2.458l-.098.083z" fill="#E7C9F9"/></g><path opacity=".29" d="M178.818 6.172a1.74 1.74 0 012.272-.698c2.164 1.047 2.618 2.885 2.96 4.235.304 1.206.455 1.626 1.08 1.927.633.304 1.049.16 2.181-.348 1.262-.575 2.994-1.353 5.15-.31s2.618 2.885 2.953 4.23c.304 1.207.455 1.627 1.08 1.927.868.421 1.233 1.47.812 2.338-.405.878-1.469 1.233-2.338.813-2.156-1.043-2.618-2.886-2.953-4.23-.304-1.207-.455-1.628-1.08-1.928-.632-.304-1.048-.16-2.18.348-1.262.575-2.994 1.353-5.151.31-2.156-1.043-2.617-2.886-2.952-4.23-.304-1.207-.455-1.627-1.088-1.932a1.752 1.752 0 01-.812-2.338l.066-.114z" fill="#EB5757"/><path fill-rule="evenodd" clip-rule="evenodd" d="M79.533 100.341l-1.16-.4a3.732 3.732 0 01-2.314-2.313l-.4-1.16a.698.698 0 00-.655-.468.698.698 0 00-.656.467l-.4 1.16a3.725 3.725 0 01-2.32 2.314l-1.16.4a.697.697 0 00-.468.655c0 .294.188.558.467.656l1.16.399a3.757 3.757 0 012.322 2.321l.4 1.161a.697.697 0 00.655.467.698.698 0 00.655-.467l.4-1.161a3.762 3.762 0 012.313-2.321l1.16-.399a.698.698 0 00.468-.656.677.677 0 00-.467-.655z" fill="#CCF0FB" opacity=".8"/><path opacity=".78" fill-rule="evenodd" clip-rule="evenodd" d="M287.152 20.252l-.864-.297a2.82 2.82 0 01-1.74-1.74l-.297-.864a.511.511 0 00-.5-.351.535.535 0 00-.499.35l-.297.864a2.819 2.819 0 01-1.741 1.741l-.863.297a.506.506 0 00-.351.486c0 .216.135.418.351.5l.863.296a2.787 2.787 0 011.741 1.74l.297.864c.068.216.27.351.499.351a.537.537 0 00.5-.35l.297-.864a2.788 2.788 0 011.74-1.741l.864-.297a.51.51 0 00.351-.5.506.506 0 00-.351-.485z" fill="#F2C94C"/><path opacity=".69" fill-rule="evenodd" clip-rule="evenodd" d="M308.577 82.915l-1.043-.36a3.367 3.367 0 01-2.086-2.088l-.36-1.043a.62.62 0 00-1.176 0l-.36 1.043a3.368 3.368 0 01-2.086 2.088l-1.043.36a.62.62 0 000 1.176l1.043.36a3.367 3.367 0 012.086 2.088l.36 1.044a.622.622 0 001.176 0l.36-1.044a3.368 3.368 0 012.086-2.087l1.043-.36a.626.626 0 00.423-.589c0-.266-.171-.5-.423-.588z" fill="#13C1AC"/><g opacity=".67"><path opacity=".82" fill-rule="evenodd" clip-rule="evenodd" d="M8.34 62.197l-1.013-.35a3.244 3.244 0 01-2.024-2.025l-.35-1.012a.6.6 0 00-.58-.405.626.626 0 00-.581.405l-.351 1.012a3.244 3.244 0 01-2.024 2.024l-1.012.351a.6.6 0 00-.405.58c0 .27.162.486.405.58l1.012.351c.958.324 1.7 1.08 2.024 2.025l.35 1.011a.6.6 0 00.581.405.626.626 0 00.58-.404l.351-1.013a3.244 3.244 0 012.024-2.024l1.012-.35a.6.6 0 00.405-.58.6.6 0 00-.405-.58z" fill="#F2C94C"/></g><path opacity=".54" d="M24.036 93.072a3.036 3.036 0 100-6.072 3.036 3.036 0 000 6.072zM129 94a2 2 0 110 4 2 2 0 010-4z" fill="#13C1AC"/><path opacity=".67" fill-rule="evenodd" clip-rule="evenodd" d="M105.809 12.805l-1.012-.351a3.245 3.245 0 01-2.024-2.024l-.351-1.012a.6.6 0 00-.58-.405.625.625 0 00-.58.405l-.351 1.012a3.245 3.245 0 01-2.024 2.024l-1.012.35a.6.6 0 00-.405.58c0 .27.162.486.405.581l1.012.35c.958.325 1.7 1.08 2.024 2.025l.351 1.012a.6.6 0 00.58.405.626.626 0 00.58-.405l.351-1.012a3.246 3.246 0 012.024-2.024l1.012-.351a.6.6 0 00.405-.58.6.6 0 00-.405-.58z" fill="#13C1AC"/><g opacity=".41"><path opacity=".41" d="M150.09 23.69a2.028 2.028 0 01-1.849-1.2 2.017 2.017 0 011.026-2.672l6.518-2.928a2.017 2.017 0 012.672 1.025 2.017 2.017 0 01-1.026 2.672l-6.518 2.928a2.01 2.01 0 01-.823.176z" fill="#56CCF2"/><path opacity=".41" d="M21.554 12.643a1.649 1.649 0 011.093-1.42 1.64 1.64 0 012.1 1.004l1.953 5.475a1.64 1.64 0 01-1.005 2.1 1.64 1.64 0 01-2.1-1.005l-1.953-5.475a1.634 1.634 0 01-.088-.679z" fill="#FFC900"/></g><path d="M227.909 50.093a1.012 1.012 0 100-2.023 1.012 1.012 0 000 2.023z" fill="#fff"/><path d="M71.687 42.373a1.687 1.687 0 100-3.373 1.687 1.687 0 000 3.373z" fill="#CE9CE5"/><path opacity=".36" d="M155.241 56.775a1.687 1.687 0 100-3.374 1.687 1.687 0 000 3.374z" fill="#6013C1"/><path opacity=".42" d="M275 99a3 3 0 100-6 3 3 0 000 6zM135.701 16.185a3.036 3.036 0 100-6.072 3.036 3.036 0 000 6.072zM250.087 15.486a3.036 3.036 0 100-6.072 3.036 3.036 0 000 6.072z" fill="#8913C1"/></svg>