<svg xmlns="http://www.w3.org/2000/svg" xmlns:xlink="http://www.w3.org/1999/xlink" width="322" height="214" viewBox="0 0 322 214"><defs><linearGradient id="c" x1="100%" x2="0%" y1="100%" y2="0%"><stop offset="0%" stop-color="#39D79E"/><stop offset="100%" stop-color="#13C1AC"/></linearGradient><filter id="b" width="118.6%" height="129.7%" x="-9.3%" y="-11.5%" filterUnits="objectBoundingBox"><feOffset dy="6" in="SourceAlpha" result="shadowOffsetOuter1"/><feGaussianBlur in="shadowOffsetOuter1" result="shadowBlurOuter1" stdDeviation="8"/><feColorMatrix in="shadowBlurOuter1" values="0 0 0 0 0.0980392157 0 0 0 0 0.57254902 0 0 0 0 0.462745098 0 0 0 0.3 0"/></filter><rect id="a" width="290" height="182" rx="6"/></defs><g fill="none" fill-rule="evenodd"><g transform="translate(16 10)"><mask id="d" fill="#fff"><use xlink:href="#a"/></mask><use fill="#000" filter="url(#b)" xlink:href="#a"/><use fill="url(#c)" xlink:href="#a"/><path fill="#0F9989" d="M134.94 323.436c-14.73-70.942-61.117-104.663-72.842-111.665-4.862-2.9-8.008-7.109-7.784-14.312C58.395 67.043-38.132-45.548-172.874-45.225c-86.066.206-139.853 37.107-184.254 87.741-5.032 5.74-13.855 5.132-20.688 1.629-86.977-44.471-190.55-14.503-234.375 67.934-37.986 71.446-22.847 152.887 38.798 205.935 6.45 5.53 7.784 15.234 3.165 22.329-53.822 82.937-29.362 193.301 54.748 246.359 45.81 28.913 102.384 36.027 154.042 19.248 9.112-2.616 15.72.004 20.145 6.8 55.823 81.063 167.847 104.246 251.504 50.526 45.367-29.13 75.386-76.52 81.856-129.51.79-6.436 5.126-12.589 11.506-14.193 124.525-31.41 141.634-146.71 131.368-196.137zm-175.759 155.64c-16.065.618-24.868 9.601-24.928 24.836-.622 22.53-7.535 44.343-20.001 63.233-37.3 56.56-114.05 72.58-171.415 35.802-57.37-36.778-73.614-112.444-36.314-169.005h.09c7.723-11.722 4.369-27.432-7.54-35.051-11.9-7.63-28.238-4.568-35.976 7.173-27.228 36.724-39.848 82.04-34.424 127.3 1.065 8.803-4.986 16.918-13.81 18.67-30.686 6.127-62.586 1.089-89.813-14.156-62.342-34.894-84.195-112.993-48.806-174.465 3.917-6.805 11.262-10.917 19.538-8.802 15.95 4.361 32.443 6.461 48.99 6.31v.014c13.034-.118 23.505-10.608 23.4-23.467-.104-12.197-9.764-22.246-22.11-23.016-23.301-1.452-44.905-6.383-63.97-19.684-58.312-40.67-67.996-115.8-27.556-170.237 38.599-51.958 117.434-61.025 173.37-17.177 10.89 8.537 29.612 7.04 35.947-5.171 12.138-23.399 32.492-41.916 42.57-49.138C-214.095-3.908-112.358 4.477-48.573 78.151 17.01 153.901 6.38 264.421-76.81 330.672c-11.043 8.798-11.964 25.263-2.657 35.866 8.843 10.092 24.669 11.854 35.468 3.822 28.347-21.112 54.663-49.912 70.942-81.038 1.483-2.856 4.011-6.212 6.813-7.831 8.216-4.813 18.762-1.001 23.629 7.1 10.087 16.79 18.896 41.836 20.036 61.314 3.961 67.355-49.93 125.25-118.24 129.17z" mask="url(#d)" opacity=".202" transform="rotate(-101 -247.716 323.531)"/><path fill="#FFF" d="M87-15.5c71.38 40.333 87.906 112.667 49.58 217-38.325 104.333 21.981 100.333 180.92-12l-23.43-198L87-15.5z" mask="url(#d)" opacity=".099"/></g><path fill="#FFF" d="M67.896 45.33c-.612-2.95-2.539-4.353-3.026-4.644a.613.613 0 01-.323-.595c.17-5.423-3.84-10.104-9.438-10.091-3.575.009-5.81 1.543-7.654 3.648-.21.24-.576.214-.86.068-3.613-1.849-7.915-.603-9.736 2.825-1.578 2.97-.949 6.357 1.612 8.563.268.23.323.633.131.928-2.235 3.449-1.22 8.038 2.275 10.244a7.597 7.597 0 006.399.8c.378-.108.653 0 .837.283 2.319 3.371 6.972 4.335 10.447 2.101a7.487 7.487 0 003.4-5.385c.034-.267.214-.523.479-.59 5.173-1.306 5.884-6.1 5.457-8.156zm-7.301 6.47c-.668.026-1.033.4-1.036 1.033a5.02 5.02 0 01-.83 2.63c-1.55 2.35-4.738 3.017-7.121 1.488a5.04 5.04 0 01-1.509-7.028h.004c.32-.487.181-1.14-.313-1.457-.495-.317-1.174-.19-1.495.298-1.131 1.527-1.655 3.411-1.43 5.293a.71.71 0 01-.574.777 5.451 5.451 0 01-3.73-.589c-2.59-1.45-3.498-4.698-2.028-7.254.163-.283.468-.454.812-.366a7.449 7.449 0 002.035.262.974.974 0 00.972-.975.973.973 0 00-.919-.957c-.968-.06-1.865-.266-2.657-.819-2.422-1.69-2.825-4.815-1.145-7.078 1.604-2.16 4.878-2.538 7.202-.715.453.355 1.23.293 1.493-.215.505-.973 1.35-1.742 1.769-2.043 3.302-2.368 7.528-2.02 10.178 1.044 2.724 3.15 2.282 7.745-1.173 10.5-.46.366-.497 1.05-.11 1.492.367.42 1.024.492 1.473.159 1.177-.878 2.27-2.076 2.947-3.37a.84.84 0 01.283-.326c.341-.2.78-.041.981.295.42.699.785 1.74.833 2.55.164 2.8-2.075 5.208-4.912 5.371z"/></g></svg>