<svg xmlns="http://www.w3.org/2000/svg" width="124" height="132" viewBox="0 0 124 132"><g fill="none" fill-rule="evenodd" transform="translate(1)"><circle cx="62.5" cy="57.5" r="57.5" fill="#FFF" fill-rule="nonzero"/><path fill="#FFF" fill-rule="nonzero" d="M103.73 18.96c8.154-4.422 12.79-8.089 13.907-11 1.117-2.91 1.96-3.453 2.528-1.628 1.008 5.982.581 9.714-1.28 11.196-2.793 2.222 1.733-2.337 1.733 2.362 0 4.7.508 4.223-.453 5.172-.64.633-1.314 1.304-2.022 2.013-.368 2.69-.923 4.4-1.664 5.127-.74.727-1.936 1.557-3.585 2.488.436.987.436 1.984 0 2.99-.435 1.005-2.998 2.525-7.69 4.56l-1.474-23.28zM7.227 42.151L.683 40.486l.343 2.915 3.403 2.562 2.798.871z"/><path stroke="#13C1AC" stroke-linecap="round" stroke-linejoin="round" stroke-width="2" d="M39 40.456s-1.893-5.77-10.542-2.399C19.808 41.428 7.336 44.099 0 39.92c0 0 2.617 10.147 15.945 6.146M7 47s3.583 7.828 13 3.894M14 53s2.357 5.4 11 1.71"/><path stroke="#13C1AC" stroke-linecap="round" stroke-linejoin="round" stroke-width="2" d="M22 55.778s2.062 4.162 7.202 1.094C34.342 53.804 35 52 35 52m-4-8.086s7.737-3.087 9 2.086"/><path fill="#FFF" d="M30.44 49.625l2.155-.375"/><path stroke="#13C1AC" stroke-linecap="round" stroke-linejoin="round" stroke-width="2" d="M28 49.375L30.156 49M80.045 36c-.73-10.043 7.674-11.675 7.674-11.675C102.642 22.11 114.69 14.365 119.556 5c0 0 9.391 14.465-19.722 23.11M119.864 18s7.461 9.434-15.864 15m13.97-6s1.169 7.304-10.97 10m5.996-1s.554 7.278-10.996 5.802"/><path stroke="#13C1AC" stroke-linecap="round" stroke-linejoin="round" stroke-width="2" d="M107 41.904c-2.073 1.475-4.933 2.81-8.647 3.056-1.273.084-2.646.04-4.123-.171C90.74 44.29 86.676 42.863 82 40"/><path fill="#FFF" d="M88.418 36.313s2.768.5 4.197.25"/><path stroke="#13C1AC" stroke-linecap="round" stroke-linejoin="round" stroke-width="2" d="M88.418 36.313s2.768.5 4.197.25"/><path fill="#FFF" d="M91.276 31.375s1.95 0 2.625-.375"/><path stroke="#13C1AC" stroke-linecap="round" stroke-linejoin="round" stroke-width="2" d="M91.276 31.375s1.95 0 2.625-.375"/><path stroke="#CFD8DC" stroke-linecap="round" stroke-linejoin="round" stroke-width="2" d="M85.919 70.066c.482 2.973-1.229 7.407-4.07 8.385-3.93 1.352-23.104 4.488-27.137 5.439-3.531.832-7.797-3.247-8.198-5.494-.96-5.384-1.68-10.113-2.656-16.715-1.81-12.237-5.47-26.605-6.752-32.969-.58-2.88 1.276-5.703 4.038-6.69 2.672-.953 9.173-2.121 15.575-3.502 4.043-.872 6.866-1.717 9.152-2.276 4.66-1.14 8.974 1.837 10.456 6.409 2.808 8.661 5.193 20.566 6.878 30.417C84.562 61 85.92 70.066 85.92 70.066z"/><path stroke="#F3F3F3" stroke-linecap="round" stroke-width="3" d="M79 120v10"/><path stroke="#CFD8DC" stroke-linecap="round" stroke-linejoin="round" stroke-width="2" d="M45 64l38-8M51 70l15-3M53 77l27-6"/><path stroke="#CFD8DC" stroke-linejoin="round" stroke-width="2" d="M56 43.225c.648 2.627 3.36 4.259 6.077 3.646 2.717-.612 4.41-3.236 3.798-5.871L56 43.225z"/><path stroke="#CFD8DC" stroke-linecap="round" stroke-linejoin="round" stroke-width="2" d="M68 36c1.005-.943 2.604-1.255 4-.78M48 41c1.004-.943 2.603-1.255 4-.78"/><path stroke="#ECEFF1" stroke-linecap="round" stroke-width="2" d="M74.5 87.5v8m-6.25-8V101m-6-9.5V105m12-5.5v2.5"/></g></svg>