<svg xmlns="http://www.w3.org/2000/svg" width="124" height="132" viewBox="0 0 124 132">
  <g fill="none" fill-rule="evenodd" transform="translate(1)">
    <circle cx="62.5" cy="57.5" r="57.5" fill="#FFF" fill-rule="nonzero"/>
    <path fill="#FFF" fill-rule="nonzero" d="M103.729736,18.9599609 C111.883545,14.5375977 116.519206,10.8710124 117.636719,7.96020508 C118.754232,5.04939779 119.597087,4.50651042 120.165283,6.33154297 C121.173096,12.3142904 120.746094,16.0463867 118.884277,17.527832 C116.091553,19.75 120.61792,15.190918 120.61792,19.8901367 C120.61792,24.5893555 121.125732,24.1125488 120.165283,25.0620117 C119.524984,25.694987 118.850993,26.3658854 118.143311,27.074707 C117.774658,29.7652995 117.219889,31.4743652 116.479004,32.2019043 C115.738118,32.9294434 114.543213,33.7588704 112.894287,34.6901855 C113.329879,35.6773275 113.329879,36.6736654 112.894287,37.6791992 C112.458695,38.6847331 109.895544,40.2049154 105.204834,42.2397461 L103.729736,18.9599609 Z"/>
    <polygon fill="#FFF" fill-rule="nonzero" points="7.227 42.151 .683 40.486 1.026 43.401 4.429 45.963 7.227 46.834"/>
    <g transform="translate(0 5)">
      <path stroke="#13C1AC" stroke-linecap="round" stroke-linejoin="round" stroke-width="2" d="M39 35.4561338C39 35.4561338 37.1074274 29.6859806 28.458405 33.0569821 19.8086981 36.4279836 7.33551546 39.0990959 0 34.9200764 0 34.9200764 2.61674681 45.0671578 15.9448384 41.0657319M7 42C7 42 10.5828366 49.8282662 20 45.8943956M14 48C14 48 16.3571429 53.4002779 25 49.7099946"/>
      <path stroke="#13C1AC" stroke-linecap="round" stroke-linejoin="round" stroke-width="2" d="M22 50.7777399C22 50.7777399 24.0615697 54.9400402 29.2023004 51.8717833 34.3423545 48.8035264 35 47 35 47M31 38.9142421C31 38.9142421 38.7365685 35.8265408 40 41"/>
      <g transform="translate(28 44)">
        <path fill="#FFF" d="M2.43905,0.625 L4.5953,0.25"/>
        <path stroke="#13C1AC" stroke-linecap="round" stroke-linejoin="round" stroke-width="2" d="M0,0.375 L2.15625,0"/>
      </g>
      <path stroke="#13C1AC" stroke-linecap="round" stroke-linejoin="round" stroke-width="2" d="M80.0450452 31C79.3141712 20.9568864 87.7192219 19.3246575 87.7192219 19.3246575 102.642364 17.1113029 114.690238 9.36456189 119.555712 0 119.555712 0 128.947035 14.46502 99.8343411 23.1098643M119.864414 13C119.864414 13 127.325162 22.4344837 104 28M117.969506 22C117.969506 22 119.138552 29.3042498 107 32M112.995748 31C112.995748 31 113.550067 38.2783349 102 36.8024613"/>
      <path stroke="#13C1AC" stroke-linecap="round" stroke-linejoin="round" stroke-width="2" d="M107,36.9043173 C104.926712,38.3791283 102.067235,39.7148672 98.3532626,39.9600221 C97.0802261,40.0441122 95.7067395,39.9994798 94.2301243,39.7886077 C90.7404907,39.2911824 86.6756134,37.8629444 82,35"/>
      <g transform="translate(88 31)">
        <path fill="#FFF" d="M0.418142857,0.3125 C0.418142857,0.3125 3.186,0.8125 4.61457143,0.5625"/>
        <path stroke="#13C1AC" stroke-linecap="round" stroke-linejoin="round" stroke-width="2" d="M0.418142857,0.3125 C0.418142857,0.3125 3.186,0.8125 4.61457143,0.5625"/>
      </g>
      <g transform="translate(91 26)">
        <path fill="#FFF" d="M0.27624,0.375 C0.27624,0.375 2.22624,0.375 2.90124,0"/>
        <path stroke="#13C1AC" stroke-linecap="round" stroke-linejoin="round" stroke-width="2" d="M0.27624,0.375 C0.27624,0.375 2.22624,0.375 2.90124,0"/>
      </g>
      <path stroke="#CFD8DC" stroke-linecap="round" stroke-linejoin="round" stroke-width="2" d="M85.9189698,65.0660243 C86.4013163,68.0390439 84.6903769,72.4730785 81.8485351,73.4507145 C77.9192088,74.8029523 58.7447478,77.9391378 54.7123038,78.8895795 C51.1805233,79.7224057 46.9153862,75.643257 46.5144483,73.3963259 C45.5538258,68.0118496 44.8333588,63.2834363 43.8578113,56.6813341 C42.0485031,44.4438879 38.3878255,30.0757663 37.106317,23.7122943 C36.52628,20.8317355 38.3823982,18.0089645 41.1441882,17.0224904 C43.8157501,16.0693293 50.3169128,14.9006532 56.7190281,13.5198614 C60.7623266,12.6476034 63.585173,11.8025397 65.8714005,11.2436964 C70.5313699,10.1042541 74.8453522,13.0813529 76.3269904,17.6527189 C79.134912,26.3141114 81.5201867,38.2191069 83.2053467,48.0695713 C84.5621582,56.001476 85.9189698,65.0660243 85.9189698,65.0660243 Z"/>
      <path stroke="#F3F3F3" stroke-linecap="round" stroke-width="3" d="M79,115 L79,125"/>
      <path stroke="#CFD8DC" stroke-linecap="round" stroke-linejoin="round" stroke-width="2" d="M45 59L83 51M51 65L66 62M53 72L80 66"/>
      <path stroke="#CFD8DC" stroke-linejoin="round" stroke-width="2" d="M56,38.225272 C56.6479806,40.8524826 59.3603954,42.4836129 62.0768267,41.8712897 C64.7939273,41.2589665 66.4868436,38.6350026 65.8750107,36 L56,38.225272 Z"/>
      <path stroke="#CFD8DC" stroke-linecap="round" stroke-linejoin="round" stroke-width="2" d="M68 31C69.0047847 30.0570089 70.6036069 29.7445348 72 30.2191242M48 36C49.0042334 35.0570089 50.6033499 34.7445348 52 35.2191242"/>
    </g>
    <path stroke="#ECEFF1" stroke-linecap="round" stroke-width="2" d="M74.5 87.5L74.5 95.5M68.25 87.5L68.25 101M62.25 91.5L62.25 105M74.25 99.5L74.25 102"/>
  </g>
</svg>
