<svg id="Layer_1" xmlns="http://www.w3.org/2000/svg" viewBox="0 0 146 200"><style>.st1{fill:#cfd8dc}</style><path d="M114.9 80.1C80.4 81.3 76.2 58.7 76 57.7c-.1-.8-.9-1.4-1.7-1.2-.8.1-1.4.9-1.2 1.7 0 .3 1.2 6.7 6.9 13.1 5 5.5 14.7 11.9 32.3 11.9h2.7c.8 0 1.5-.7 1.4-1.6s-.6-1.5-1.5-1.5zm-1.2 92.4H33.4c-.8 0-1.5.7-1.5 1.5s.7 1.5 1.5 1.5h80.3c.8 0 1.5-.7 1.5-1.5s-.7-1.5-1.5-1.5zm13 0H120c-.8 0-1.5.7-1.5 1.5s.7 1.5 1.5 1.5h6.7c.8 0 1.5-.7 1.5-1.5s-.7-1.5-1.5-1.5z" fill="#eceff1"/><path class="st1" d="M118.7 84.2c-.8-9.1-5-17.3-12-23.1-6.9-5.9-15.8-8.7-24.8-7.9-9.1.8-17.3 5-23.1 12-5.6 6.7-8.4 15.1-8 23.8-2.6-7.1-4.8-16.2-5.5-27.3l2.6 3.7c.8 1.2 2.1 2 3.6 2 .2 0 .4 0 .7-.1 1.7-.3 3.1-1.6 3.4-3.3l.1-8.3 7.2-3 .2-.1c1.4-.9 2.1-2.7 1.7-4.4-.4-1.6-1.8-2.9-3.5-3.1l-22.9-5.2h-.1c-1.6-.2-3.1.5-4 1.8s-.9 3 0 4.4l8.1 11.3c-.1.2-.1.4-.1.7 1 32.5 14.3 48.9 17.2 52.2-5.3 6.3-9.1 14.7-10.9 23.7-2.3 11.6 4.2 23 14.8 27.3l1 11.5c.1.8.7 1.4 1.5 1.4h.1c.8-.1 1.4-.8 1.4-1.6l-.9-10.3 1.2.3 10.6 2.1c1 .2 2.1.3 3.1.4l.7 7.8c.1.8.7 1.4 1.5 1.4h.1c.8-.1 1.4-.8 1.4-1.6l-.6-7.5c10.8-.6 20.2-8.5 22.4-19.6.5-2.4.8-4.7.9-7.1.5 5.6.4 12.4-.9 20.3-.1.8.4 1.6 1.2 1.7h.2c.7 0 1.4-.5 1.5-1.3 4.2-25.8-3.6-40.9-5.5-44.1 9.5-6.8 15.4-18.3 14.4-30.9zm-82-40.9c.2-.3.6-.5 1-.5L60.6 48h.1c.5.1.9.4 1 .9.1.4 0 .8-.3 1.1l-7.3 3-12.5-7.2-.6.9 11.5 8.7-.1 8.2c-.1.4-.4.7-.8.7-.5.1-1-.2-1.2-.6L36.7 44.4c-.2-.3-.2-.8 0-1.1zm24.4 23.8c5.3-6.3 12.8-10.2 21.1-10.9.9-.1 1.8-.1 2.7-.1 7.3 0 14.3 2.5 19.9 7.3 6.3 5.3 10.2 12.8 10.9 21.1 1.4 17-11.2 32.1-28.3 33.5-8.2.7-16.3-1.9-22.6-7.2S54.6 98 53.9 89.7c-.7-8.2 1.8-16.2 7.2-22.6zm40.8 49.9l-.3.1c3.3 8.1 4.1 17.9 2.2 27.8-2.3 11.5-13.5 19.1-25 16.8l-10.6-2.1c-11.5-2.3-19.1-13.5-16.8-25 1.7-8.5 5.3-16.4 10.3-22.4.4.3.7.7 1.1 1 6.2 5.2 13.9 8 21.9 8 1 0 2 0 2.9-.1 5.1-.4 9.9-2 14-4.4.1 0 .2.1.3.3z"/><path class="st1" d="M81.9 88.1h.5c.8 0 1.5-.7 1.4-1.6 0-.8-.8-1.5-1.6-1.4-3.2.1-7.3-2-9-4.6-.5-.7-1.4-.9-2.1-.4-.7.5-.9 1.4-.4 2.1 2.3 3.4 7.1 5.9 11.2 5.9z"/><circle transform="rotate(-62.851 66.33 74.822)" class="st1" cx="66.3" cy="74.8" r="2.2"/><circle transform="rotate(-62.851 92.233 88.106)" class="st1" cx="92.2" cy="88.1" r="2.8"/><path d="M29.3 52.3l-.8-.3c-.8-.3-1.4-.9-1.7-1.7l-.3-.9c-.1-.2-.3-.3-.5-.3s-.4.1-.5.3l-.3.9c-.3.8-.9 1.4-1.7 1.7l-.9.3c-.2.1-.3.3-.3.5s.1.4.3.5l.9.3c.8.3 1.4.9 1.7 1.7l.3.9c.1.2.3.3.5.3s.4-.1.5-.3l.3-.9c.3-.8.9-1.4 1.7-1.7l.9-.3c.2-.1.3-.3.3-.5 0-.3-.2-.5-.4-.5zm-5.4-20.4l.9-.3c.2-.1.4-.3.4-.5s-.2-.5-.4-.5l-.9-.3c-.9-.3-1.6-1-1.9-1.9l-.3-.9c-.1-.2-.3-.4-.5-.4s-.5.2-.5.4l-.3.9c-.3.9-1 1.6-1.9 1.9l-.9.3c-.2.1-.4.3-.4.5s.2.5.4.5l.9.3c.9.3 1.6 1 1.9 1.9l.3.9c.1.2.3.4.5.4s.5-.2.5-.4l.3-.9c.3-.9 1-1.6 1.9-1.9zM47.4 27l-1.4-.4c-1.3-.4-2.3-1.4-2.7-2.7l-.5-1.3c-.1-.3-.4-.5-.8-.5s-.6.2-.8.5l-.5 1.3c-.4 1.3-1.4 2.3-2.7 2.7l-1.1.4c-.3.1-.5.4-.5.8s.2.6.5.8l1.3.5c1.3.4 2.3 1.4 2.7 2.7l.5 1.3c.1.3.4.5.8.5s.6-.2.8-.5l.5-1.3c.4-1.3 1.4-2.3 2.7-2.7l1.3-.5c.3-.1.5-.4.5-.8s-.3-.6-.6-.8z" fill-rule="evenodd" clip-rule="evenodd" fill="#c2fff5"/><path d="M95 38.2c-.8 0-1.5.7-1.5 1.5v8c0 .8.7 1.5 1.5 1.5s1.5-.7 1.5-1.5v-8c0-.8-.6-1.5-1.5-1.5zm19.9 1.4c-.7-.4-1.6-.2-2.1.5L106 50.6c-.4.7-.2 1.6.5 2.1.3.2.5.2.8.2.5 0 1-.2 1.3-.7l6.8-10.5c.4-.7.2-1.6-.5-2.1zm10.2 14.3c-.5-.7-1.4-.8-2.1-.4l-6.6 4.6c-.7.5-.8 1.4-.4 2.1.3.4.8.6 1.2.6.3 0 .6-.1.9-.3l6.6-4.6c.7-.4.9-1.3.4-2z" opacity=".13" fill="#ffc512"/></svg>