<svg width="1125" height="196" fill="none" xmlns="http://www.w3.org/2000/svg"><path d="M.617 10a9.5 9.5 0 019.5-9.5H1114.88c5.25 0 9.5 4.253 9.5 9.5v70c0 5.247-4.25 9.5-9.5 9.5H10.117a9.5 9.5 0 01-9.5-9.5V10z" fill="#fff" stroke="#ECEFF1"/><rect x="13" y="20" width="192" height="12" rx="4" fill="#ECEFF1"/><rect x="483.883" y="20" width="105" height="12" rx="4" fill="#ECEFF1"/><rect x="951.883" y="20" width="141" height="20" rx="4" fill="#ECEFF1"/><rect x="13" y="50" width="192" height="12" rx="4" fill="#ECEFF1"/><rect x="483.883" y="50" width="105" height="12" rx="4" fill="#ECEFF1"/><g opacity=".5"><path d="M.617 116a9.5 9.5 0 019.5-9.5H1114.88c5.25 0 9.5 4.253 9.5 9.5v70c0 5.247-4.25 9.5-9.5 9.5H10.117a9.5 9.5 0 01-9.5-9.5v-70z" fill="#fff" stroke="#ECEFF1"/><rect x="13" y="126" width="192" height="12" rx="4" fill="#ECEFF1"/><rect x="483.883" y="126" width="105" height="12" rx="4" fill="#ECEFF1"/><rect x="951.883" y="126" width="141" height="20" rx="4" fill="#ECEFF1"/><rect x="13" y="156" width="192" height="12" rx="4" fill="#ECEFF1"/><rect x="483.883" y="156" width="105" height="12" rx="4" fill="#ECEFF1"/></g></svg>