<?xml version="1.0" encoding="utf-8"?>
<!-- Generator: Adobe Illustrator 21.0.0, SVG Export Plug-In . SVG Version: 6.00 Build 0)  -->
<svg version="1.1" id="Layer_1" xmlns="http://www.w3.org/2000/svg" xmlns:xlink="http://www.w3.org/1999/xlink" x="0px" y="0px"
	 viewBox="0 0 146 200" style="enable-background:new 0 0 146 200;" xml:space="preserve">
<style type="text/css">
	.st0{fill:#ECEFF1;}
	.st1{fill:#CFD8DC;}
	.st2{fill-rule:evenodd;clip-rule:evenodd;fill:#C2FFF5;}
	.st3{opacity:0.13;fill:#FFC512;}
</style>
<g>
	<path class="st0" d="M114.9,80.1c-34.5,1.2-38.7-21.4-38.9-22.4c-0.1-0.8-0.9-1.4-1.7-1.2c-0.8,0.1-1.4,0.9-1.2,1.7
		c0,0.3,1.2,6.7,6.9,13.1c5,5.5,14.7,11.9,32.3,11.9c0.9,0,1.8,0,2.7,0c0.8,0,1.5-0.7,1.4-1.6S115.8,80.1,114.9,80.1z"/>
	<path class="st0" d="M113.7,172.5H33.4c-0.8,0-1.5,0.7-1.5,1.5s0.7,1.5,1.5,1.5h80.3c0.8,0,1.5-0.7,1.5-1.5
		S114.5,172.5,113.7,172.5z"/>
	<path class="st0" d="M126.7,172.5H120c-0.8,0-1.5,0.7-1.5,1.5s0.7,1.5,1.5,1.5h6.7c0.8,0,1.5-0.7,1.5-1.5S127.5,172.5,126.7,172.5z
		"/>
</g>
<g>
	<path class="st1" d="M118.7,84.2c-0.8-9.1-5-17.3-12-23.1c-6.9-5.9-15.8-8.7-24.8-7.9c-9.1,0.8-17.3,5-23.1,12
		c-5.6,6.7-8.4,15.1-8,23.8c-2.6-7.1-4.8-16.2-5.5-27.3l2.6,3.7c0.8,1.2,2.1,2,3.6,2c0.2,0,0.4,0,0.7-0.1c1.7-0.3,3.1-1.6,3.4-3.3
		l0.1-8.3l7.2-3l0.2-0.1c1.4-0.9,2.1-2.7,1.7-4.4c-0.4-1.6-1.8-2.9-3.5-3.1l-22.9-5.2l-0.1,0c-1.6-0.2-3.1,0.5-4,1.8s-0.9,3,0,4.4
		l8.1,11.3c-0.1,0.2-0.1,0.4-0.1,0.7c1,32.5,14.3,48.9,17.2,52.2c-5.3,6.3-9.1,14.7-10.9,23.7c-2.3,11.6,4.2,23,14.8,27.3l1,11.5
		c0.1,0.8,0.7,1.4,1.5,1.4c0,0,0.1,0,0.1,0c0.8-0.1,1.4-0.8,1.4-1.6l-0.9-10.3c0.4,0.1,0.8,0.2,1.2,0.3l10.6,2.1
		c1,0.2,2.1,0.3,3.1,0.4l0.7,7.8c0.1,0.8,0.7,1.4,1.5,1.4c0,0,0.1,0,0.1,0c0.8-0.1,1.4-0.8,1.4-1.6l-0.6-7.5
		c10.8-0.6,20.2-8.5,22.4-19.6c0.5-2.4,0.8-4.7,0.9-7.1c0.5,5.6,0.4,12.4-0.9,20.3c-0.1,0.8,0.4,1.6,1.2,1.7c0.1,0,0.2,0,0.2,0
		c0.7,0,1.4-0.5,1.5-1.3c4.2-25.8-3.6-40.9-5.5-44.1C113.8,108.3,119.7,96.8,118.7,84.2z M36.7,43.3c0.2-0.3,0.6-0.5,1-0.5L60.6,48
		l0.1,0c0.5,0.1,0.9,0.4,1,0.9c0.1,0.4,0,0.8-0.3,1.1l-7.3,3l-12.5-7.2l-0.6,0.9l11.5,8.7l-0.1,8.2c-0.1,0.4-0.4,0.7-0.8,0.7
		c-0.5,0.1-1-0.2-1.2-0.6L36.7,44.4C36.5,44.1,36.5,43.6,36.7,43.3z M61.1,67.1c5.3-6.3,12.8-10.2,21.1-10.9
		c0.9-0.1,1.8-0.1,2.7-0.1c7.3,0,14.3,2.5,19.9,7.3c6.3,5.3,10.2,12.8,10.9,21.1c1.4,17-11.2,32.1-28.3,33.5
		c-8.2,0.7-16.3-1.9-22.6-7.2S54.6,98,53.9,89.7C53.2,81.5,55.7,73.5,61.1,67.1z M101.9,117l-0.3,0.1c3.3,8.1,4.1,17.9,2.2,27.8
		c-2.3,11.5-13.5,19.1-25,16.8l-10.6-2.1c-11.5-2.3-19.1-13.5-16.8-25c1.7-8.5,5.3-16.4,10.3-22.4c0.4,0.3,0.7,0.7,1.1,1
		c6.2,5.2,13.9,8,21.9,8c1,0,2,0,2.9-0.1c5.1-0.4,9.9-2,14-4.4C101.7,116.7,101.8,116.8,101.9,117z"/>
	<path class="st1" d="M81.9,88.1c0.2,0,0.3,0,0.5,0c0.8,0,1.5-0.7,1.4-1.6c0-0.8-0.8-1.5-1.6-1.4c-3.2,0.1-7.3-2-9-4.6
		c-0.5-0.7-1.4-0.9-2.1-0.4c-0.7,0.5-0.9,1.4-0.4,2.1C73,85.6,77.8,88.1,81.9,88.1z"/>
	<ellipse transform="matrix(0.4563 -0.8898 0.8898 0.4563 -30.5128 99.7007)" class="st1" cx="66.3" cy="74.8" rx="2.2" ry="2.2"/>
	<ellipse transform="matrix(0.4563 -0.8898 0.8898 0.4563 -28.2494 129.9725)" class="st1" cx="92.2" cy="88.1" rx="2.8" ry="2.8"/>
</g>
<g>
	<path class="st2" d="M29.3,52.3L28.5,52c-0.8-0.3-1.4-0.9-1.7-1.7l-0.3-0.9c-0.1-0.2-0.3-0.3-0.5-0.3s-0.4,0.1-0.5,0.3l-0.3,0.9
		c-0.3,0.8-0.9,1.4-1.7,1.7l-0.9,0.3c-0.2,0.1-0.3,0.3-0.3,0.5c0,0.2,0.1,0.4,0.3,0.5l0.9,0.3c0.8,0.3,1.4,0.9,1.7,1.7l0.3,0.9
		c0.1,0.2,0.3,0.3,0.5,0.3s0.4-0.1,0.5-0.3l0.3-0.9c0.3-0.8,0.9-1.4,1.7-1.7l0.9-0.3c0.2-0.1,0.3-0.3,0.3-0.5
		C29.7,52.5,29.5,52.3,29.3,52.3z"/>
	<path class="st2" d="M23.9,31.9l0.9-0.3c0.2-0.1,0.4-0.3,0.4-0.5c0-0.2-0.2-0.5-0.4-0.5l-0.9-0.3c-0.9-0.3-1.6-1-1.9-1.9l-0.3-0.9
		c-0.1-0.2-0.3-0.4-0.5-0.4s-0.5,0.2-0.5,0.4l-0.3,0.9c-0.3,0.9-1,1.6-1.9,1.9l-0.9,0.3c-0.2,0.1-0.4,0.3-0.4,0.5
		c0,0.2,0.2,0.5,0.4,0.5l0.9,0.3c0.9,0.3,1.6,1,1.9,1.9l0.3,0.9c0.1,0.2,0.3,0.4,0.5,0.4s0.5-0.2,0.5-0.4l0.3-0.9
		C22.3,32.9,23,32.2,23.9,31.9z"/>
	<path class="st2" d="M47.4,27L46,26.6c-1.3-0.4-2.3-1.4-2.7-2.7l-0.5-1.3c-0.1-0.3-0.4-0.5-0.8-0.5s-0.6,0.2-0.8,0.5l-0.5,1.3
		c-0.4,1.3-1.4,2.3-2.7,2.7L36.9,27c-0.3,0.1-0.5,0.4-0.5,0.8s0.2,0.6,0.5,0.8l1.3,0.5c1.3,0.4,2.3,1.4,2.7,2.7l0.5,1.3
		c0.1,0.3,0.4,0.5,0.8,0.5s0.6-0.2,0.8-0.5l0.5-1.3c0.4-1.3,1.4-2.3,2.7-2.7l1.3-0.5c0.3-0.1,0.5-0.4,0.5-0.8S47.7,27.2,47.4,27z"/>
</g>
<g>
	<path class="st3" d="M95,38.2c-0.8,0-1.5,0.7-1.5,1.5v8c0,0.8,0.7,1.5,1.5,1.5s1.5-0.7,1.5-1.5v-8C96.5,38.9,95.9,38.2,95,38.2z"/>
	<path class="st3" d="M114.9,39.6c-0.7-0.4-1.6-0.2-2.1,0.5l-6.8,10.5c-0.4,0.7-0.2,1.6,0.5,2.1c0.3,0.2,0.5,0.2,0.8,0.2
		c0.5,0,1-0.2,1.3-0.7l6.8-10.5C115.8,41,115.6,40.1,114.9,39.6z"/>
	<path class="st3" d="M125.1,53.9c-0.5-0.7-1.4-0.8-2.1-0.4l-6.6,4.6c-0.7,0.5-0.8,1.4-0.4,2.1c0.3,0.4,0.8,0.6,1.2,0.6
		c0.3,0,0.6-0.1,0.9-0.3l6.6-4.6C125.4,55.5,125.6,54.6,125.1,53.9z"/>
</g>
</svg>
