<?xml version="1.0" encoding="UTF-8"?>
<svg width="112px" height="155px" viewBox="0 0 112 155" version="1.1" xmlns="http://www.w3.org/2000/svg" xmlns:xlink="http://www.w3.org/1999/xlink">
    <!-- Generator: Sketch 42 (36781) - http://www.bohemiancoding.com/sketch -->
    <title>Page 1</title>
    <desc>Created with Sketch.</desc>
    <defs></defs>
    <g id="-" stroke="none" stroke-width="1" fill="none" fill-rule="evenodd">
        <g id="+-Messages-Dark" transform="translate(-960.000000, -475.000000)">
            <g id="Page-1" transform="translate(960.000000, 475.000000)">
                <path d="M16.2888,153.019 L96.5878,153.019" id="Stroke-1" stroke="#36474F" stroke-width="3" stroke-linecap="round" stroke-linejoin="round"></path>
                <path d="M102.9138,153.019 L109.6218,153.019" id="Stroke-3" stroke="#36474F" stroke-width="3" stroke-linecap="round" stroke-linejoin="round"></path>
                <path d="M85.9363,95.4888 C89.2533,103.4888 90.2683,113.6108 88.1973,124.1318 L88.1963,124.1368 C85.7623,136.4978 73.7733,144.5398 61.4123,142.1068 L50.8063,140.0198 C38.4483,137.5878 30.3983,125.5988 32.8293,113.2398 L32.8303,113.2358 C34.6903,103.7868 38.7293,95.5798 43.9523,89.5518" id="Stroke-7" stroke="#455A64" stroke-width="3" stroke-linecap="round" stroke-linejoin="round"></path>
                <path d="M85.5202,94.2241 C85.5202,94.2241 95.8302,109.5521 91.1682,137.8601" id="Stroke-9" stroke="#455A64" stroke-width="3" stroke-linecap="round" stroke-linejoin="round"></path>
                <path d="M47.6076,139.2466 L48.6566,151.6206" id="Stroke-11" stroke="#455A64" stroke-width="3" stroke-linecap="round" stroke-linejoin="round"></path>
                <path d="M65.7263,143.6767 L66.3993,151.6207" id="Stroke-13" stroke="#455A64" stroke-width="3" stroke-linecap="round" stroke-linejoin="round"></path>
                <path d="M43.8928,88.8008 C43.8928,88.8008 27.6478,72.6028 26.5258,36.9908" id="Stroke-15" stroke="#455A64" stroke-width="3" stroke-linecap="round" stroke-linejoin="round"></path>
                <path d="M65.26,65.6357 C61.571,65.8087 56.95,63.4397 54.939,60.3427" id="Stroke-17" stroke="#455A64" stroke-width="2.5" stroke-linecap="round" stroke-linejoin="round"></path>
                <path d="M70.4372,98.5195 C88.3272,97.0025 101.6002,81.2705 100.0842,63.3805 C98.5672,45.4915 82.8352,32.2175 64.9452,33.7345 C47.0562,35.2505 33.7822,50.9825 35.2992,68.8725 C36.8152,86.7625 52.5472,100.0355 70.4372,98.5195" id="Stroke-5" stroke="#455A64" stroke-width="3"></path>
                <path d="M51.216,54.8286 C51.769,53.7496 51.341,52.4256 50.259,51.8706 C49.177,51.3156 47.852,51.7406 47.299,52.8196 C46.745,53.8986 47.174,55.2226 48.256,55.7776 C49.338,56.3316 50.663,55.9076 51.216,54.8286" id="Fill-19" fill="#455A64"></path>
                <path d="M77.677,68.3979 C78.388,67.0119 77.837,65.3109 76.448,64.5979 C75.057,63.8849 73.354,64.4309 72.644,65.8169 C71.933,67.2029 72.483,68.9039 73.874,69.6169 C75.263,70.3299 76.966,69.7839 77.677,68.3979" id="Fill-21" fill="#455A64"></path>
                <path d="M32.1062,43.5547 C32.6842,44.4987 33.7822,45.0097 34.8652,44.8397 C35.9472,44.6687 36.7872,43.8517 36.9742,42.7877 L37.0362,33.7137 L45.1382,30.3167 C46.0382,29.7197 46.4512,28.6227 46.1742,27.5627 C45.8972,26.5027 44.9892,25.7007 43.8932,25.5477 L20.8972,20.3757 C19.8912,20.2367 18.9122,20.6707 18.3722,21.4957 C17.8322,22.3207 17.8252,23.3917 18.3562,24.2577 L32.1062,43.5547 Z" id="Stroke-23" stroke="#546E7A" stroke-width="3" stroke-linecap="round" stroke-linejoin="round"></path>
                <path d="M36.2102,34.9653 L24.0352,25.8013 C23.7892,25.6163 23.7392,25.2673 23.9242,25.0213 C24.0952,24.7943 24.4072,24.7353 24.6472,24.8733 L37.8622,32.4613 C38.5822,32.8743 38.8312,33.7933 38.4172,34.5123 C38.0042,35.2323 37.0852,35.4813 36.3662,35.0683 C36.3142,35.0383 36.2572,35.0003 36.2102,34.9653" id="Fill-25" fill="#546E7A"></path>
                <path d="M57.5393,36.9907 C57.5393,36.9907 61.5943,61.9197 97.9263,60.6437" id="Stroke-27" stroke="#455A64" stroke-width="2.5" stroke-linecap="round" stroke-linejoin="round"></path>
                <path d="M12.2629,32.2383 C12.4699,32.1673 12.6079,31.9723 12.6079,31.7533 C12.6079,31.5343 12.4699,31.3403 12.2629,31.2683 L11.4059,30.9723 C10.6019,30.6953 9.9709,30.0633 9.6939,29.2593 L9.3979,28.4033 C9.3259,28.1963 9.1319,28.0573 8.9129,28.0573 C8.6939,28.0573 8.4989,28.1963 8.4279,28.4033 L8.1319,29.2593 C7.8549,30.0633 7.2229,30.6953 6.4189,30.9723 L5.5629,31.2683 C5.3559,31.3403 5.2179,31.5343 5.2179,31.7533 C5.2179,31.9723 5.3559,32.1673 5.5629,32.2383 L6.4189,32.5343 C7.2229,32.8113 7.8549,33.4433 8.1319,34.2473 L8.4279,35.1033 C8.4989,35.3103 8.6939,35.4483 8.9129,35.4483 C9.1319,35.4483 9.3259,35.3103 9.3979,35.1033 L9.6939,34.2473 C9.9709,33.4433 10.6019,32.8113 11.4059,32.5343 L12.2629,32.2383 Z" id="Fill-29" fill="#13C1AC"></path>
                <path d="M0.3816,9.5063 C0.1536,9.5853 0.0006,9.7993 0.0006,10.0413 C0.0006,10.2823 0.1536,10.4983 0.3816,10.5763 L1.3266,10.9023 C2.2146,11.2093 2.9106,11.9063 3.2166,12.7933 L3.5436,13.7383 C3.6226,13.9663 3.8376,14.1193 4.0786,14.1193 C4.3196,14.1193 4.5346,13.9663 4.6136,13.7383 L4.9396,12.7933 C5.2466,11.9063 5.9436,11.2093 6.8296,10.9023 L7.7756,10.5763 C8.0036,10.4983 8.1566,10.2823 8.1566,10.0413 C8.1566,9.7993 8.0036,9.5853 7.7756,9.5063 L6.8296,9.1793 C5.9436,8.8743 5.2466,8.1773 4.9396,7.2893 L4.6136,6.3453 C4.5346,6.1163 4.3196,5.9633 4.0786,5.9633 C3.8376,5.9633 3.6226,6.1163 3.5436,6.3453 L3.2166,7.2893 C2.9106,8.1773 2.2146,8.8743 1.3266,9.1793 L0.3816,9.5063 Z" id="Fill-31" fill="#13C1AC"></path>
                <path d="M32.2126,5.9106 C32.5936,6.0416 32.8486,6.4006 32.8486,6.8036 C32.8486,7.2066 32.5936,7.5646 32.2126,7.6966 L30.6356,8.2406 C29.1556,8.7516 27.9926,9.9136 27.4826,11.3936 L26.9386,12.9706 C26.8066,13.3506 26.4486,13.6066 26.0456,13.6066 C25.6426,13.6066 25.2836,13.3506 25.1526,12.9706 L24.6086,11.3936 C24.0976,9.9136 22.9346,8.7516 21.4556,8.2406 L19.8786,7.6966 C19.4976,7.5646 19.2426,7.2066 19.2426,6.8036 C19.2426,6.4006 19.4976,6.0416 19.8786,5.9106 L21.4556,5.3666 C22.9346,4.8556 24.0976,3.6926 24.6086,2.2136 L25.1526,0.6366 C25.2836,0.2556 25.6426,0.0006 26.0456,0.0006 C26.4486,0.0006 26.8066,0.2556 26.9386,0.6366 L27.4826,2.2136 C27.9926,3.6926 29.1556,4.8556 30.6356,5.3666 L32.2126,5.9106 Z" id="Fill-33" fill="#13C1AC"></path>
                <path d="M77.9494,18.7436 L77.9494,26.7536" id="Stroke-35" stroke="#FFC512" stroke-width="3" stroke-linecap="round" opacity="0.486526268"></path>
                <path d="M97.0574,19.8686 L90.3074,30.3686" id="Stroke-37" stroke="#FFC512" stroke-width="3" stroke-linecap="round" opacity="0.486526268"></path>
                <path d="M106.8074,33.7436 L100.1944,38.3536" id="Stroke-39" stroke="#FFC512" stroke-width="3" stroke-linecap="round" opacity="0.486526268"></path>
            </g>
        </g>
    </g>
</svg>