<svg width="332" height="302" xmlns="http://www.w3.org/2000/svg"><g fill="#9C9B9B"><path d="M1.66 106.086l37.46 31.925c1.809 1.596 4.575 1.384 6.172-.532l1.49-1.703c1.809-2.128 1.915-4.895.319-7.768l-11.6-22.241c-.638-1.277-1.809-2.235-3.192-2.554l-3.3-.852c-4.681-1.17-8.619-4.575-10.322-9.151a3.186 3.186 0 00-.425-.852l-.532-.851c-1.065-1.596-3.086-2.341-4.896-1.81-.744.214-1.49.746-2.021 1.278l-6.918 8.088-.638.638-2.022 2.341c-.851 1.384-.745 3.086.426 4.044zm42.142 30.223c-.958 1.064-2.554 1.17-3.618.319L2.83 104.703c-.319-.32-.425-.852-.106-1.277l1.383-1.597 40.013 34.16-.32.32zm-7.13-24.37l-10.748 6.066-2.767-2.341 11.919-6.705 1.596 2.98zm2.341 4.576l-8.939 5.002-2.767-2.342 10.11-5.64 1.596 2.98zm6.279 18.09L31.564 122.9l8.3-4.682 5.534 10.641c1.17 2.235 1.17 4.044-.106 5.747zM12.196 92.359c.32-.319.745-.638 1.17-.745 1.065-.319 2.235.107 2.874 1.064l.532.852c.106.106.213.32.213.426 1.915 5.108 6.278 8.939 11.6 10.322l3.298.851c.851.213 1.596.852 2.022 1.597l.426.744-12.557 7.024-16.495-14.047 6.917-8.088z" opacity=".2"/><g opacity=".1"><path d="M43.589 65.754l3.618-4.257c.532-.638.426-1.596-.213-2.128L23.795 39.682l24.796 18.09a1.61 1.61 0 002.022-.212s0-.107.106-.107l3.299-4.47c.532-.638.32-1.595-.32-2.127l-29.477-21.39a2.053 2.053 0 00-1.064-.32c-.426.107-.745.32-.958.639l-3.299 4.47a2.048 2.048 0 00-.319 1.064v.212c-.532-.106-1.064 0-1.49.426l-3.618 4.257c-.532.638-.426 1.596.213 2.128l27.668 23.625c.745.532 1.703.425 2.235-.213zm-20.22-34.692l28.84 21.177-2.873 3.937L20.496 35l2.874-3.937zm-8.193 10.003l3.192-3.724 27.243 23.198-3.193 3.725-27.242-23.199zm40.544 8.62c.64.426 1.49.32 1.916-.32l.107-.106 2.98-4.682c.212-.32.318-.745.212-1.17-.106-.426-.32-.746-.638-.958l-8.514-5.534 11.28 4.576c.639.213 1.277.106 1.703-.426.106-.106.213-.213.213-.426L67 35.531c.32-.744-.107-1.596-.852-1.915l-17.346-7.024c-.744-.319-1.596.107-1.915.852l-2.022 5.001-10.429-6.81a1.478 1.478 0 00-1.17-.213c-.426.106-.745.32-.958.638l-2.98 4.683c-.426.745-.213 1.596.426 2.128L55.72 49.685zM48.379 28.4l16.92 6.811-1.809 4.576-16.92-6.81 1.809-4.577zm-14.792-1.064L59.02 43.938l-2.66 4.15-25.435-16.707 2.66-4.044z"/><path d="M21.56 42.342l-.744.958c-.32.426-.32.958.106 1.277.426.32.958.32 1.277-.107l.745-.957c.32-.426.32-.958-.106-1.277-.426-.32-.958-.32-1.277.106zm14.9-11.599a1.015 1.015 0 00-1.278.319l-.32.532c-.212.426-.106.958.32 1.277.426.213.851.106 1.17-.213l.107-.106.32-.532c.212-.426.106-1.064-.32-1.277zm13.62.532l-.212.638c-.213.426.106.958.532 1.17.319.107.745 0 .958-.212.106-.106.106-.213.212-.32l.213-.531c.213-.426-.106-.958-.532-1.17-.426-.214-.958 0-1.17.425z"/><path d="M20.501 35.071l2.894-3.948 28.837 21.14-2.894 3.947z" opacity=".2"/></g><g opacity=".5"><path d="M105.524 148.547c.532.319 1.277.319 1.809.106a1.919 1.919 0 001.277-1.277l6.704-16.708a2.141 2.141 0 00-.319-2.234l-4.15-5.321c-.32-.426-.852-.745-1.49-.852l-5.215-.744c-.425-.107-.744 0-1.17.106l-10.43 3.937c-.32.107-.639.32-.958.639l-3.405 3.937c-.426.426-.532 1.065-.532 1.597l.425 6.704c0 .745.533 1.49 1.277 1.915l16.176 8.195zm-13.834-9.152l5.959-2.235c2.128 2.447 4.15 5.108 5.853 7.343l1.277 1.596-13.09-6.704zm14.047 5.001c-.213-.319-.532-.638-.745-1.064-1.596-2.022-3.512-4.576-5.534-6.917l5.853-2.235c.106 3.086.213 6.172.32 8.833.106.532.106.958.106 1.383zm-7.13-9.47c0-2.13.106-5.641.532-8.195 1.915 1.49 4.47 4.044 6.066 5.747l-6.598 2.447zm9.045 10.109c0-.639-.106-1.277-.106-2.022-.107-2.767-.32-6.172-.426-9.365l5.96-2.235-5.428 13.622zm5.747-15.644l-6.172 2.342c.319-1.49.85-3.3 1.383-4.79.32-1.063.638-1.915.745-2.66l4.044 5.108zm-9.365-6.172l3.618.532c-.213.639-.425 1.49-.745 2.448a47.221 47.221 0 00-1.17 4.15c-1.597-1.702-4.044-4.15-6.066-5.533l4.15-1.597h.213zm-10.855 4.15c0-.106.107-.106.213-.106l4.15-1.49c-.532 2.341-.638 5.747-.744 8.3-1.17-.85-2.554-1.595-3.725-2.447-.851-.532-1.596-.958-2.235-1.383l2.341-2.873zm-3.511 4.257c.638.32 1.383.852 2.34 1.384 1.384.851 2.98 1.809 4.258 2.766l-6.173 2.342-.425-6.492z"/><path d="M91.69 139.395l5.959-2.235c2.128 2.447 4.15 5.108 5.853 7.343l1.277 1.596-13.09-6.704z" opacity=".2"/><path d="M98.607 134.925c0-2.128.106-5.64.532-8.194 1.915 1.49 4.47 4.044 6.066 5.747l-6.598 2.447z" opacity=".1"/><path d="M107.652 145.035c0-.639-.106-1.277-.106-2.022-.107-2.767-.32-6.172-.426-9.365l5.96-2.235-5.428 13.622z" opacity=".2"/></g><g opacity=".2"><path d="M81.9 71.926l20.644 5.747c1.49.425 2.98-.426 3.406-1.916l5.533-19.793c.107.106.213.106.32.106.532.106.957-.106 1.17-.639l.32-1.277c.106-.532-.107-.957-.64-1.17h-.318l.957-3.405c.107.106.213.106.32.106.532.106.957-.106 1.17-.639l.32-1.277c.106-.532-.107-.957-.64-1.17h-.318l1.383-4.895c.426-1.49-.426-2.98-1.915-3.406l-20.645-5.746c-1.49-.426-2.98.425-3.406 1.915l-9.577 34.054c-.426 1.49.425 2.98 1.915 3.405zm9.258-36.714c.106-.532.638-.745 1.17-.638l20.645 5.746c.532.107.745.639.639 1.17l-9.472 33.841c-.106.533-.638.745-1.17.639l-20.645-5.747c-.532-.106-.745-.638-.639-1.17l9.472-33.84z"/><path d="M94.244 40.746l14.26 4.044c.532.106.957-.107 1.17-.639.107-.532-.106-.958-.638-1.17l-14.26-4.044c-.532-.107-.958.106-1.17.638-.107.532.212.958.638 1.17zm-6.492 23.305l14.26 4.044c.532.107.958-.106 1.17-.638.107-.532-.106-.958-.638-1.171l-14.366-3.937c-.532-.107-.958.106-1.17.638-.107.532.212.958.744 1.064zm7.13 4.151l-1.17-.32c-.533-.106-.958.107-1.171.639-.106.532.106.958.638 1.17l1.171.32c.532.106.958-.107 1.17-.639.107-.532-.106-1.064-.638-1.17z"/></g><g opacity=".5"><path d="M186.188 113.429l-11.919-7.45.107-.106c1.277-2.022.638-4.789-1.384-6.066l-1.383-.85c-1.17-.746-1.596-2.342-.851-3.513.745-1.17 2.34-1.596 3.511-.851l5.215 3.299c.426.213.958.106 1.277-.32a1.015 1.015 0 00-.32-1.276l-5.214-3.3c-2.022-1.276-4.789-.638-6.066 1.384-1.277 2.022-.638 4.789 1.384 6.066l1.383.851c1.17.745 1.596 2.341.852 3.512l-.107.106-11.706-7.342c-5.533-3.512-12.983-1.916-16.494 3.405-1.81 2.767-2.448 5.96-1.703 9.152.745 3.192 2.554 5.853 5.427 7.662 1.81 1.17 4.044 1.81 6.172 1.81.958 0 1.916.318 2.66.744l10.43 6.491c.638.426 1.277 1.065 1.596 1.81.958 2.021 2.554 3.724 4.47 4.895.319.213.532.319.85.425 5.215 2.767 11.813 1.171 15.218-3.618 1.916-2.767 2.66-6.066 2.022-9.365-.638-2.98-2.66-5.852-5.427-7.555zm1.916 16.069c-2.98 4.044-8.514 5.427-12.983 3.086-1.916-1.064-3.512-2.554-4.47-4.576-.532-1.064-1.277-2.022-2.341-2.554l-10.429-6.491c-1.064-.639-2.341-.958-3.618-1.065-1.81 0-3.618-.532-5.214-1.49-2.342-1.49-3.938-3.724-4.576-6.49-.639-2.661-.107-5.428 1.49-7.77 2.98-4.575 9.364-5.852 14.046-2.873l25.115 15.644c2.448 1.49 4.044 3.83 4.576 6.704.638 2.767 0 5.534-1.596 7.875z"/><path d="M180.974 122.049c1.383.851 3.192.425 3.937-.958.851-1.384.426-3.193-.958-3.938-1.383-.85-3.192-.425-3.937.958-.851 1.277-.426 3.086.958 3.938zm2.128-3.406c.532.32.639.958.32 1.49-.32.532-.958.639-1.49.32-.533-.32-.64-.958-.32-1.49.32-.426.958-.639 1.49-.32zm-3.937 6.385c-1.384-.851-3.193-.425-3.938.958-.851 1.384-.426 3.193.958 3.938 1.383.744 3.192.425 3.937-.958.852-1.384.426-3.193-.957-3.938zm-2.129 3.3c-.532-.32-.638-.958-.319-1.49.32-.533.958-.64 1.49-.32s.638.958.32 1.49c-.32.532-.959.639-1.49.32zm.107-10.004c-1.384-.851-3.193-.426-3.938.958-.745 1.383-.425 3.192.958 3.937 1.383.852 3.193.426 3.937-.958.852-1.383.426-3.086-.957-3.937zm-2.129 3.299c-.532-.32-.638-.958-.319-1.49.32-.532.958-.638 1.49-.32.532.32.638.959.32 1.49-.32.533-.959.64-1.49.32zm7.024 3.087c-.851 1.383-.426 3.192.958 3.937 1.383.85 3.192.425 3.937-.958.851-1.384.426-3.193-.958-3.938-1.277-.745-3.086-.319-3.937.958zm3.405 2.127c-.319.533-.958.639-1.49.32-.532-.32-.638-.958-.319-1.49.32-.532.958-.639 1.49-.32.426.32.638.958.32 1.49zm-25.54-19.367l-.851-.533.532-.85c.958-1.49.425-3.406-.958-4.364-1.49-.958-3.405-.426-4.363.958l-.532.851-.851-.532c-1.49-.958-3.406-.426-4.364.958-.957 1.49-.425 3.405.958 4.363l.852.532-.533.851c-.957 1.49-.425 3.406.958 4.363 1.49.958 3.406.426 4.363-.957l.532-.852.852.532c1.49.958 3.405.426 4.363-.957.958-1.49.532-3.406-.958-4.364zm-2.341 3.83l-1.064-.638c-.745-.532-1.81-.213-2.235.532l-.639 1.064c-.425.639-1.17.852-1.809.426-.638-.426-.851-1.17-.425-1.81l.638-1.063c.532-.745.213-1.81-.532-2.235l-1.064-.639c-.639-.425-.851-1.17-.426-1.809.426-.638 1.17-.851 1.81-.425l1.064.638c.744.532 1.809.213 2.234-.532l.639-1.064c.425-.639 1.17-.851 1.809-.426.638.426.851 1.17.426 1.81l-.639 1.063c-.532.745-.213 1.81.532 2.235l1.064.639c.639.425.852 1.17.426 1.809-.426.532-1.277.745-1.81.426zm11.387 6.598l-3.3.32c-.531 0-.85.425-.85.957 0 .32.212.532.425.745.106.107.32.107.532.107l3.299-.32c.532 0 .851-.425.851-.957s-.425-.852-.957-.852zm-4.044-2.554l-3.3.32c-.531 0-.85.425-.85.957 0 .32.212.532.425.745.107.107.32.107.532.107l3.3-.32c.531 0 .85-.425.85-.957 0-.426-.425-.852-.957-.852z"/><path d="M151.283 110.768l.639-1.064c.532-.745.213-1.809-.532-2.235l-1.064-.638c-.639-.426-.852-1.17-.426-1.81.426-.638 1.17-.85 1.809-.425l1.064.639c.745.532 1.81.213 2.235-.532l.638-1.065c.426-.638 1.171-.85 1.81-.425.638.425.85 1.17.425 1.809l-.638 1.064c-.532.745-.213 1.81.532 2.235l1.064.638c.638.426.851 1.17.426 1.81-.426.638-1.171.85-1.81.425l-1.064-.638c-.745-.532-1.809-.213-2.234.532l-.639 1.064c-.426.638-1.17.851-1.809.426-.639-.32-.851-1.171-.426-1.81z" opacity=".2"/></g><g opacity=".1"><path d="M182.25 1.159l-40.438 15.75c-2.235.85-3.299 3.405-2.447 5.533l9.258 23.625c.851 2.235 3.405 3.299 5.534 2.447l1.064-.425.532 1.383c.425 1.064 1.596 1.596 2.66 1.17l2.022-.85c1.064-.426 1.596-1.597 1.17-2.661l-.531-1.384 24.582-9.577.532 1.383c.426 1.065 1.596 1.597 2.66 1.171l2.022-.851c1.065-.426 1.597-1.597 1.171-2.66l-.532-1.384 2.98-1.17c2.234-.852 3.299-3.406 2.447-5.535l-9.152-23.518c-.85-2.234-3.405-3.299-5.533-2.447zm-22.24 46.717c0 .106 0 .213-.107.32l-2.022.85c-.106 0-.213 0-.32-.106l-.531-1.383 2.447-.958.532 1.277zm30.435-11.812c0 .106 0 .212-.107.319l-2.022.851c-.106 0-.212 0-.319-.106l-.532-1.384 2.448-.957.532 1.277zm4.895-8.195c.532 1.277-.106 2.767-1.383 3.193l-40.439 15.75c-1.277.532-2.767-.107-3.192-1.384l-9.259-23.624c-.532-1.277.107-2.767 1.384-3.193l40.438-15.75c1.277-.532 2.767.107 3.193 1.384l9.258 23.624z"/><path d="M169.8 11.8l-21.922 8.514a3.172 3.172 0 00-1.81 4.256l6.067 15.431a3.172 3.172 0 004.256 1.81l21.922-8.514a3.172 3.172 0 001.81-4.257l-6.066-15.43c-.639-1.597-2.554-2.448-4.257-1.81zm8.62 17.985c.319.745-.107 1.596-.852 1.915l-21.922 8.514c-.745.32-1.596-.107-1.915-.852l-5.96-15.43c-.319-.745.107-1.596.852-1.916l21.922-8.513c.745-.32 1.596.106 1.915.851l5.96 15.43zm1.17-21.709c-1.809.745-2.66 2.66-1.915 4.47.745 1.808 2.66 2.66 4.47 1.915 1.808-.745 2.66-2.66 1.915-4.47-.745-1.702-2.66-2.66-4.47-1.915zm1.81 4.682a1.653 1.653 0 01-2.129-.958c-.32-.85.106-1.809.958-2.128a1.652 1.652 0 012.128.958 1.652 1.652 0 01-.958 2.128zm1.383 3.618c-1.81.745-2.66 2.66-1.916 4.47.745 1.809 2.66 2.66 4.47 1.915 1.809-.745 2.66-2.66 1.915-4.47-.638-1.702-2.66-2.66-4.47-1.915zm1.915 4.79a1.653 1.653 0 01-2.128-.959 1.652 1.652 0 01.958-2.128 1.652 1.652 0 012.128.958c.32.851-.106 1.702-.958 2.128zm4.151 5.214l-3.619 1.383c-.425.213-.745.745-.532 1.17.213.426.745.745 1.17.533l3.62-1.384c.425-.213.744-.745.531-1.17-.213-.532-.745-.745-1.17-.532z"/><circle transform="rotate(-21.339 139.438 -471.709)" cx="2.239" cy="2.129" r="1.596" opacity=".2"/><circle transform="rotate(-21.339 115.248 -467.3)" cx="2.239" cy="2.32" r="1.596" opacity=".2"/><path d="M154.689 20.952l-4.363 6.279 1.064 2.767 7.342-10.642zm17.133-4.682l-15.644 22.348 4.044-1.597 12.664-17.984zm-4.682-.106l-5.428 2.021-9.577 13.835 1.702 4.363 13.835-19.794z" opacity=".2"/></g><g opacity=".5"><path d="M231.628 105.66l-4.044 11.174-4.576-1.702c-1.17-.426-2.447.212-2.873 1.383l-.106.32c-.426 1.17.213 2.447 1.383 2.872l15.43 5.534c1.171.426 2.448-.213 2.874-1.383l.106-.32c.426-1.17-.212-2.447-1.383-2.873l-4.044-1.49 4.044-11.173 9.365 3.405c.851.32 1.702.106 2.34-.426.64-.532.959-1.277.959-2.128V84.909c-.107-.958-.745-1.703-1.597-2.022l-4.895-1.703h-.106s-.107 0-.107-.106l-4.895-1.703c-.851-.319-1.915-.106-2.554.532l-15.324 18.41c-.638.64-.851 1.49-.638 2.235.212.852.744 1.49 1.596 1.81l9.045 3.298zm6.172 16.814c.213.107.32.32.213.532l-.106.32c-.107.212-.32.319-.532.212l-15.43-5.533c-.214-.107-.32-.32-.214-.532l.107-.32c.106-.212.32-.319.532-.212l4.576 1.702 6.704 2.448 4.15 1.383zm-8.513-5.001l4.044-11.174 3.299 1.17-4.044 11.174-3.299-1.17zm-6.598-17.24c0-.106 0-.426.213-.638l15.218-18.41c.213-.107.425-.213.638-.107l4.895 1.703h.107s.106 0 .106.106l4.895 1.703c.213.106.426.319.426.532v23.944c0 .319-.213.532-.213.638-.106.107-.319.213-.638.107l-9.365-3.406-6.704-2.447-9.152-3.3c-.32 0-.426-.318-.426-.425z"/><path d="M225.988 108.853l1.064-2.873c.213-.426-.106-.958-.532-1.17-.425-.214-.957.105-1.17.531l-1.064 2.873c-.213.426.106.958.532 1.171.425.213.957-.106 1.17-.532z"/><path d="M231.758 110.603l1.546-4.307 3.306 1.186-1.546 4.307z" opacity=".2"/><path d="M249.187 108.96v-1.81l-25.114-9.045-1.17 1.383c-.214.213-.214.532-.214.639 0 .106.107.319.426.532l9.152 3.299 6.704 2.447 9.365 3.406c.32.106.532 0 .638-.107.107-.106.32-.319.213-.745z" opacity=".1"/></g><g opacity=".3"><path d="M318.784 49.898c-10.322-3.725-21.816 1.702-25.54 12.025-3.725 10.322 1.703 21.815 12.025 25.54 10.322 3.725 21.816-1.703 25.54-12.025 3.725-10.323-1.596-21.71-12.025-25.54zm11.28 16.282c-1.17-1.916-2.873-3.406-5.108-4.15-3.724-1.384-7.768-.32-10.429 2.34l-.638-.319 4.257-11.812c.106-.213.106-.426.106-.639 6.491 2.448 10.854 8.088 11.812 14.58zm-.532 6.597a.229.229 0 01-.213.213c-.106 0-.106.107-.213 0l-12.025-4.363c0-1.17-.425-2.341-1.17-3.192 2.128-2.129 5.427-2.874 8.407-1.81 3.724 1.384 5.96 5.215 5.214 9.152zm-13.408-21.496s.106 0 0 0c.212.107.212.107.212.213s.107.106 0 .213l-4.363 12.025c-1.17 0-2.34.426-3.192 1.17-2.129-2.128-2.873-5.427-1.81-8.406 1.384-3.725 5.215-5.96 9.153-5.215zm-6.598-.532c-1.916 1.17-3.406 2.873-4.15 5.108-1.384 3.725-.32 7.769 2.34 10.429l-.319.639-11.812-4.257c-.213-.107-.426-.107-.638-.107 2.34-6.491 8.087-10.854 14.579-11.812zm-14.792 13.622c.106 0 .106-.107.213 0l12.025 4.363c0 1.17.425 2.34 1.17 3.192-2.128 2.128-5.427 2.873-8.407 1.81-3.724-1.384-5.959-5.215-5.214-9.153.106-.106.213-.106.213-.212zm-.639 6.917c1.17 1.915 2.873 3.405 5.108 4.15 3.725 1.383 7.769.32 10.43-2.341.212.106.425.213.531.319l-4.256 11.812c-.107.213-.107.426-.107.639-6.385-2.448-10.748-8.194-11.706-14.58zm15.005-3.619c.639-1.596 2.448-2.554 4.044-1.915 1.596.638 2.554 2.448 1.915 4.044-.638 1.596-2.447 2.554-4.043 1.915-1.703-.638-2.554-2.447-1.916-4.044zm-1.17 18.517a.229.229 0 01-.213-.213c0-.106-.107-.106 0-.213l4.363-12.025c1.17 0 2.34-.425 3.192-1.17 2.129 2.128 2.874 5.427 1.81 8.407-1.384 3.724-5.215 5.959-9.153 5.214zm6.704.532c1.915-1.17 3.405-2.873 4.15-5.108 1.383-3.724.32-7.768-2.341-10.429l.32-.638 11.811 4.256c.213.107.426.107.639.107a18.58 18.58 0 01-14.58 11.812zm-13.302 12.557c-.426-.212-.958.107-1.171.532l-.106.426c-.213.426.106.958.532 1.17.425.214.957-.106 1.17-.531l.107-.426c.213-.426 0-.958-.532-1.17zm-1.384 3.938c-.426-.213-.958.106-1.17.532l-.107.426c-.213.425.107.957.532 1.17.426.213.958-.106 1.17-.532l.107-.426c.213-.425-.106-.957-.532-1.17z"/><path d="M295.798 136.309l-5.215-4.576 4.257-11.92 1.596.64c.852.319 1.703-.107 2.022-.958l8.088-20.645a2.594 2.594 0 000-1.277c-.213-.426-.532-.745-.958-.852l-2.128-.745 1.809-5.108c.213-.425-.106-.957-.532-1.17-.426-.213-.958.106-1.17.532l-1.81 5.108-2.128-.745c-.426-.106-.851-.106-1.277.106-.426.213-.639.533-.851.958l-6.918 21.07c-.319.852.107 1.703.958 2.023l1.596.532-4.256 11.706-7.556.213a1.61 1.61 0 00-1.596 1.383c-.107.745.32 1.49 1.064 1.81l13.196 4.788c.745.32 1.596 0 2.022-.745.532-.745.425-1.596-.213-2.128zm-3.299-19.368l6.81-20.645 5.64 2.022-7.98 20.325-4.47-1.702zm-10.11 15.962l6.598-.213 5.002 4.363-11.6-4.15z"/><path d="M307.078 68.734c0 1.17.426 2.34 1.17 3.192-2.128 2.128-5.427 2.873-8.406 1.81-3.725-1.384-5.96-5.215-5.215-9.153 0-.106.107-.212.213-.212.107 0 .107-.107.213 0l12.025 4.363zm10.003 0c0-1.171-.425-2.342-1.17-3.193 2.128-2.128 5.427-2.873 8.407-1.809 3.724 1.383 5.96 5.214 5.214 9.152a.229.229 0 01-.213.213c-.106 0-.106.106-.213 0l-12.025-4.363zm-9.151 17.452a.229.229 0 01-.213-.213c0-.106-.107-.106 0-.213l4.363-12.025c1.17 0 2.34-.425 3.192-1.17 2.129 2.128 2.874 5.427 1.81 8.407-1.384 3.724-5.215 5.959-9.153 5.214zm8.194-34.905s.106 0 0 0c.212.107.212.107.212.213s.107.106 0 .213l-4.363 12.025c-1.17 0-2.34.426-3.192 1.17-2.129-2.128-2.873-5.427-1.81-8.406 1.384-3.725 5.215-5.96 9.153-5.215zm-33.734 81.622l6.597-.213 5.002 4.47z" opacity=".2"/></g><g opacity=".2"><path d="M243.973 46.173l.106.32c.532 1.383 2.022 2.128 3.405 1.702 1.384-.532 2.129-2.022 1.703-3.405l-.106-.32 10.322-3.618.107.32c.532 1.383 2.022 2.128 3.405 1.702 1.383-.532 2.128-2.022 1.703-3.405l-.107-.426c1.17-.958 1.81-2.554 1.277-4.044l-7.981-22.773c-.639-1.915-2.66-2.873-4.576-2.235l-4.363 1.49-2.98-8.407 1.384-.425c.425-.213.745-.639.532-1.171-.213-.532-.639-.745-1.17-.532l-1.384.426-10.323 3.618-1.383.425c-.426.213-.745.639-.532 1.171.213.532.638.745 1.17.532l1.384-.426 2.98 8.407-4.364 1.49c-1.915.639-2.873 2.66-2.234 4.576l7.98 22.773c.533 1.597 2.342 2.554 4.045 2.235zm3.511-.851c.213.425-.106.958-.532 1.17-.425.213-.957-.106-1.17-.532l-.107-.319 1.703-.532.106.213zm15.431-5.427c.213.425-.106.957-.532 1.17-.426.213-.958-.106-1.17-.532l-.107-.32 1.703-.531.106.213zM237.268 5.947l6.918-2.447 2.98 8.407-6.918 2.447-2.98-8.407zM233.65 20.42a1.783 1.783 0 011.064-2.235l4.364-1.49 10.322-3.618 4.363-1.49a1.783 1.783 0 012.235 1.065l7.981 22.773a1.783 1.783 0 01-1.064 2.235l-19.049 6.598a1.783 1.783 0 01-2.234-1.065L233.65 20.42z"/><path d="M238.013 21.378c.107.106.213.106.32.106h.319c.213-.106.426-.212.532-.425 0-.107.106-.213.106-.32v-.319s0-.106-.106-.106l-.106-.107-.107-.106-.106-.106c-.107 0-.107 0-.213-.107h-.426c-.106 0-.213.107-.32.107-.106 0-.106.106-.106.106l-.106.106-.106.107c0 .106 0 .106-.107.213v.638c0 .107.107.213.213.32.106-.213.213-.107.32-.107zm5.427-1.596c.213-.107.426-.213.533-.426.106-.106.106-.213.106-.32 0-.106 0-.212-.106-.318 0 0 0-.107-.107-.213l-.106-.107-.107-.106-.106-.107s-.106 0-.213-.106h-.425c-.107 0-.213.106-.32.106l-.106.107-.107.106-.106.107s0 .106-.106.213v.638c.106.213.212.426.425.532.32 0 .639 0 .852-.106zm4.044-1.703c.107.106.213.106.32.106h.319c.213-.106.426-.212.532-.425 0-.107.106-.213.106-.32v-.319s0-.106-.106-.106l-.106-.107-.107-.106-.106-.106c-.32-.107-.639-.107-.852 0l-.106.106-.106.106-.107.107c0 .106 0 .106-.106.213v.638c0 .107.106.213.213.32 0-.213.106-.213.212-.107zm5.428-1.596c.213-.107.425-.213.532-.426.106-.106.106-.213.106-.32 0-.106 0-.212-.106-.318 0 0 0-.107-.107-.213l-.106-.107-.106-.106-.107-.106s-.106 0-.213-.107h-.425c-.107 0-.213.107-.32.107l-.106.106-.106.106-.107.107c0 .106 0 .106-.106.213v.638c.106.213.213.426.425.532.426-.106.639 0 .852-.106zm-13.302 9.684c.212.106.425.106.745 0 .106 0 .212-.107.319-.213.106-.107.213-.213.213-.32 0-.106.106-.212.106-.319v-.319c-.106-.213-.213-.426-.426-.532-.319-.106-.638-.106-.851 0-.106 0-.106.106-.106.106l-.107.107-.106.106c-.107.213-.107.426 0 .745 0 .107.106.213.213.32-.213.212-.107.212 0 .319zm5.427-1.597c.213-.106.426-.212.532-.425.106-.213.106-.426 0-.745 0-.107 0-.107-.106-.213l-.107-.106-.106-.107-.107-.106c-.319-.107-.638-.107-.851 0l-.106.106-.107.107-.106.106c-.107.213-.107.426 0 .745.106.213.213.426.425.532.213.106.426.106.639.106zm4.789-1.702c.212-.107.425-.213.532-.426.106-.213.106-.426 0-.745-.107-.213-.213-.425-.426-.532-.106 0-.106 0-.213-.106h-.425c-.32 0-.533.213-.639.532 0 .106 0 .106-.106.213v.638c.106.213.212.426.425.532.426 0 .639 0 .852-.106zm4.788-1.703c.213-.106.426-.213.533-.426 0-.106.106-.212.106-.319v-.32c-.106-.212-.213-.425-.426-.531-.106 0-.106 0-.213-.107h-.425c-.107 0-.213.107-.32.107l-.106.106-.106.107-.107.106c-.106.213-.106.426 0 .745.107.213.213.426.426.532.106.107.426.107.638 0zm-13.302 9.685c.213.106.426.106.745 0 .213-.107.426-.214.532-.427.107-.212.107-.425 0-.745 0 0 0-.106-.106-.106l-.107-.106-.106-.107-.106-.106c-.107 0-.107 0-.213-.107h-.426c-.106 0-.213.107-.32.107-.106 0-.106.106-.106.106l-.106.107-.106.106c0 .106 0 .106-.107.213v.638c0 .107.107.213.213.32.106 0 .213.106.32.106zm4.683-1.597c.212.106.425.106.745 0 .212-.107.425-.213.532-.426.106-.213.106-.426 0-.745 0 0 0-.106-.107-.213l-.106-.106-.107-.106-.106-.107c-.106 0-.106 0-.213-.106h-.426c-.106 0-.212.106-.319.106l-.106.107-.107.106-.106.106c0 .107 0 .107-.106.213v.639c0 .106.106.213.212.319.213.106.213.106.32.213zm5.108-1.596c.106 0 .212 0 .319-.107.106 0 .213-.106.32-.213.106-.106.212-.213.212-.319.106-.213.106-.426 0-.745-.106-.213-.213-.426-.426-.532-.319-.106-.638-.106-.851 0l-.106.106-.107.107-.106.106c-.107.213-.107.426 0 .745.106.213.213.426.425.532.107.32.213.32.32.32zm5.107-1.703c.214-.107.426-.213.533-.426.106-.213.106-.425 0-.745 0 0 0-.106-.107-.213l-.106-.106-.106-.106-.107-.107c-.106 0-.106 0-.213-.106h-.425c-.107 0-.213.106-.32.106l-.106.107-.106.106-.107.106c0 .107 0 .107-.106.213v.639c.106.213.213.425.425.532.426.106.639.106.852 0zm-13.301 9.684c.106 0 .212.106.319.106h.319c.213-.106.426-.213.532-.425 0-.107.107-.213.107-.32v-.319c0-.106 0-.106-.107-.106l-.106-.107-.107-.106-.106-.107c-.107 0-.107 0-.213-.106h-.426c-.319 0-.532.213-.638.532-.107.213-.107.426 0 .745 0 .106.106.213.213.32.106-.214.106-.107.213-.107zm4.788-1.703c.213.107.426.107.745 0 .107 0 .213-.106.32-.213.106-.106.106-.212.212-.319 0-.106.107-.213.107-.32v-.318c0-.107 0-.107-.107-.213l-.106-.107-.107-.106-.106-.106c-.213-.107-.638-.107-.851 0l-.107.106-.106.106-.107.107c0 .106 0 .106-.106.213v.638c0 .107.106.213.213.32-.107.106 0 .212.106.212zm4.789-1.596c.106 0 .213.106.32.106h.319c.106 0 .212-.106.319-.212.106-.107.213-.213.213-.32 0-.106.106-.213.106-.319v-.32c-.106-.212-.213-.425-.426-.531-.425-.213-.957 0-1.17.425 0 .107 0 .107-.107.213v.639c0 .106.107.213.213.319 0-.106.107-.106.213 0zm4.682-1.703c.107 0 .213.107.32.107h.319c.213-.107.426-.213.532-.426 0-.106.106-.213.106-.32v-.319c-.106-.212-.212-.425-.425-.532-.107 0-.107 0-.213-.106h-.426c-.106 0-.213.106-.319.106l-.106.107-.107.106-.106.107c0 .106 0 .106-.107.212v.639c0 .106.107.213.213.32.107-.107.213 0 .32 0zm-12.557 9.791c.107.106.213.106.32.106h.319c.106 0 .213-.106.319-.213.106-.106.213-.213.213-.319 0-.106.106-.213.106-.32v-.319c-.106-.212-.213-.425-.425-.532-.426-.212-.958 0-1.171.426-.106.213-.106.426 0 .745 0 .106.106.213.213.32-.107 0 0 0 .106.106zm4.789-1.703c.106.106.213.106.32.106h.318c.213-.106.426-.212.533-.425.106-.107.106-.213.106-.32v-.319c-.106-.213-.213-.425-.426-.532-.106 0-.106 0-.213-.106h-.425c-.32 0-.532.213-.745.532-.107.213-.107.425 0 .745 0 .106.106.213.213.319.106-.106.213 0 .319 0zm4.682-1.703c.213.107.426.107.745 0 .107 0 .213-.106.32-.213.106-.106.212-.212.212-.319 0-.106.107-.213.107-.32v-.318c-.107-.213-.213-.426-.426-.532-.32-.107-.638-.107-.851 0l-.107.106-.106.106-.107.107c-.106.213-.106.426 0 .745 0 .106.107.213.213.319-.213.213-.106.32 0 .32zm4.789-1.596c.107.106.213.106.32.106h.319c.106 0 .212-.106.319-.212.106-.107.106-.213.213-.32.106-.106.106-.212.106-.319v-.32c-.106-.212-.213-.425-.426-.531-.212-.107-.638-.107-.85 0l-.107.106-.107.107-.106.106c-.107.213-.107.426 0 .745 0 .106.106.213.213.32-.107.106 0 .106.106.212zm-17.239 7.768l.212.745c.213.532 1.065.745 2.022.426l19.049-6.598c.958-.319 1.49-1.064 1.277-1.596l-.213-.745-22.347 7.768z"/></g><g opacity=".5"><path d="M56.998 167.276l-35.863 13.621c-1.17.426-1.703 1.703-1.277 2.874l8.407 22.24c.426 1.171 1.703 1.704 2.873 1.278l35.863-13.622c1.17-.425 1.703-1.702 1.277-2.873l-8.407-22.241c-.426-1.17-1.703-1.703-2.873-1.277zm9.684 24.157c.106.213 0 .425-.213.532l-35.863 13.621c-.213.107-.426 0-.532-.213l-8.407-22.24c-.106-.214 0-.427.213-.533l35.863-13.621c.212-.107.425 0 .532.212l8.407 22.242z"/><path d="M63.702 168.234c-.107 0-.213.106-.32.213l-1.064-2.874c-.638-1.809-2.766-2.767-4.575-2.022l-39.694 15.112c-1.81.638-2.767 2.766-2.022 4.576l9.897 26.072c.638 1.809 2.767 2.767 4.576 2.022l13.94-5.321 1.277 3.299-8.407 3.192c-.425.213-.744.745-.532 1.17.213.427.745.746 1.17.533l8.408-3.193 11.812-4.47 8.407-3.192c.426-.212.745-.745.532-1.17-.213-.426-.745-.745-1.17-.532l-8.407 3.192-1.277-3.299 13.94-5.32c1.81-.639 2.767-2.767 2.022-4.576l-5.001-13.303c.106 0 .213 0 .319-.106.426-.213.745-.745.532-1.17l-.745-2.023c-.213-.425-.745-.744-1.17-.532-.107 0-.213.107-.32.213l-.958-2.554c.107 0 .213 0 .32-.106.425-.213.745-.745.532-1.17l-.745-2.023c-.32-.638-.851-.851-1.277-.638zm-7.981 37.14l-8.407 3.192-1.277-3.3 8.407-3.192 1.277 3.3zm14.792-13.196c.319.85-.107 1.915-.958 2.234L29.86 209.524c-.851.319-1.915-.107-2.235-.958l-9.896-26.179c-.32-.851.106-1.915.957-2.235l39.694-15.004c.851-.32 1.916.106 2.235.957l9.897 26.073z"/><path d="M46.037 205.302l8.458-3.209 1.246 3.284-8.458 3.208zM58.381 181.323c-.213.106-.426.106-.532 0l-6.917-2.128-3.831 6.172c-.213.32-.639.532-1.064.426l-6.917-2.129-3.831 6.172c-.213.32-.639.533-1.065.426l-7.555-2.341c-.532-.106-.745-.639-.639-1.17.107-.533.639-.746 1.17-.64l6.918 2.13 3.83-6.173c.214-.32.64-.532 1.065-.426l6.917 2.129 3.831-6.173c.213-.319.639-.532 1.064-.425l7.556 2.341c.532.106.745.638.639 1.17-.213.32-.426.533-.639.64zm2.979 7.875c-.212.106-.425.106-.531 0l-6.917-2.128-3.832 6.172c-.212.319-.638.532-1.064.425L42.1 191.54l-3.83 6.172c-.214.32-.64.532-1.065.426l-7.556-2.341c-.532-.107-.745-.639-.638-1.17.106-.533.638-.746 1.17-.64l6.918 2.129 3.83-6.172c.213-.32.64-.532 1.065-.426l6.917 2.129 3.83-6.173c.214-.319.64-.532 1.065-.425l7.556 2.34c.532.107.745.64.638 1.171a.96.96 0 01-.638.639z" opacity=".2"/></g><g opacity=".7"><path d="M58.807 258.476a6.41 6.41 0 008.939-1.065 6.41 6.41 0 00-1.064-8.939 6.41 6.41 0 00-8.94 1.064c-2.234 2.767-1.702 6.811 1.065 8.94zm6.704-8.514c1.916 1.596 2.341 4.363.745 6.385-1.596 1.916-4.363 2.341-6.385.745-1.916-1.596-2.341-4.363-.745-6.385 1.596-2.022 4.47-2.341 6.385-.745z"/><path d="M73.705 260.604c0-1.384.532-2.767 1.49-3.938l.106-.106c2.98-3.725 2.98-9.152-.106-13.09l11.706-15.004c.213-.213.426-.32.638-.32l1.597-.212c.957-.107 1.702-.745 2.022-1.596l2.34-5.853c.426-1.065.107-2.235-.85-2.98l-2.235-1.81c-.852-.744-2.129-.744-3.086-.106l-5.215 3.619c-.851.532-1.17 1.49-1.064 2.447l.213 1.596c0 .213 0 .533-.213.745l-11.706 15.005c-4.682-2.128-9.684-.958-12.664 2.873-.106.213-.212.32-.425.533-.745.957-1.703 1.702-2.874 1.915-3.724.851-7.13 2.98-9.47 5.96-.533.638-.958 1.383-1.278 2.021-5.214 6.598-3.405 14.58 4.576 20.858 7.982 6.279 16.176 6.066 21.284-.532.532-.532 1.064-1.064 1.596-1.81 2.448-2.872 3.618-6.384 3.618-10.215zM53.912 246.13a6.53 6.53 0 004.043-2.66c.107-.107.213-.32.32-.426 2.66-3.405 6.917-4.257 11.173-2.128l.639.319 12.664-16.069c.425-.639.638-1.383.532-2.128l-.213-1.597c0-.319.106-.532.32-.745l5.214-3.618c.319-.213.638-.213.85 0l2.236 1.81c.212.212.319.531.212.85l-2.34 5.854c-.107.212-.32.425-.64.425l-1.595.213c-.745.107-1.384.426-1.81 1.064l-12.663 16.07.425.744c2.98 3.3 3.193 8.088.533 11.387v.106c-1.171 1.49-1.916 3.3-1.916 5.108 0 3.3-1.064 6.492-3.192 9.152-4.257 5.427-9.79 5.002-17.772-1.277-7.981-6.278-9.79-11.6-5.534-17.027 2.128-2.766 5.215-4.682 8.514-5.427zm-5.534 25.647c-4.895-3.831-7.237-8.3-6.704-12.558 1.064 5.108 6.065 9.046 8.194 10.642 2.128 1.703 7.13 5.534 12.344 5.427-4.044 1.597-8.939.426-13.834-3.511zm36.927-55.443l.532-.319c.425-.213.638-.745.425-1.17-.212-.426-.745-.639-1.17-.426l-.532.32c-.426.212-.639.744-.426 1.17.106.106.106.212.213.319.32.213.638.32.958.106zm-3.086-.213l-.533.32c-.425.213-.638.745-.425 1.17.106.107.106.213.213.32.319.212.638.212.957.106l.532-.32c.426-.212.639-.744.426-1.17-.106-.532-.638-.638-1.17-.426zm12.876 6.918l.106-.639c.107-.532-.212-.958-.638-1.064-.532-.106-.958.213-1.064.638l-.107.639c-.106.32.107.745.32.958.106.106.212.106.319.213.425 0 .958-.32 1.064-.745zm-2.66 2.66c-.107.32.106.745.319.958.106.106.213.106.32.213.531.106.957-.213 1.063-.639l.107-.638c.106-.532-.213-.958-.639-1.065-.532-.106-.958.213-1.064.639l-.106.532z"/><path d="M48.378 271.778c-4.895-3.831-7.237-8.3-6.704-12.558 1.064 5.108 6.065 9.046 8.194 10.642 2.128 1.703 7.13 5.534 12.344 5.427-4.044 1.597-8.939.426-13.834-3.511z" opacity=".2"/><circle transform="rotate(-51.875 287.717 72.522)" cx="6.461" cy="7.23" r="4.576" opacity=".2"/></g><g opacity=".7"><path d="M298.884 244.216l-3.086-6.066c-1.064-2.128-3.618-2.873-5.747-1.81l-11.28 5.854a4.97 4.97 0 01-1.064.532c-.106 0-.106-.107-.213-.107-2.128-.532-4.682-2.34-5.853-3.618l-.106-.106c-2.767-2.341-5.64-3.193-8.514-2.66-4.47.85-6.81 5.107-6.917 5.214v.106c-1.383 2.767-1.702 5.534-.745 8.088 1.597 4.363 6.066 6.385 6.279 6.385h.106c0 1.277.852 2.448 2.129 2.873l2.34.745c-.425 4.044.214 8.3 2.342 12.345 1.064 2.128 3.618 2.873 5.747 1.809l.319-.107c.958.745 2.341.852 3.512.213 1.17-.532 1.809-1.703 1.809-2.98l17.559-9.045c1.064-.107 2.128-.426 3.192-.958 4.47-2.341 6.172-7.768 3.938-12.238-1.597-2.235-3.512-3.724-5.747-4.47zm-8.088-6.279c.958-.532 2.235-.32 2.874.532-20.965 10.216-20.113 17.027-19.368 22.454.425 3.512.85 6.066-5.002 9.152-4.363-9.79-.213-20.964 10.11-26.391l11.386-5.747zm-27.562 12.983c-.745-.426-2.447-1.49-2.98-3.086-.425-1.064-.212-2.235.426-3.725.213-.319 1.384-2.235 3.193-2.554 1.17-.213 2.447.32 3.937 1.49.426.426 2.341 2.128 4.789 3.405-1.383 1.277-2.448 2.767-3.405 4.257l-2.554-.851c-1.384-.213-2.66.213-3.406 1.064zm-6.385-1.81c-.745-2.021-.532-4.256.639-6.597.106-.106 2.022-3.618 5.64-4.363 2.235-.426 4.682.32 7.023 2.235l.107.106c.958.958 3.192 2.66 5.427 3.618l-1.596 1.277c-2.554-1.277-4.576-3.086-5.002-3.512-1.915-1.596-3.724-2.234-5.427-1.915-2.554.426-4.15 2.873-4.47 3.405v.107c-.957 1.915-1.064 3.618-.532 5.108.852 2.235 3.086 3.618 3.938 4.15l-.532 1.703c-.958-.532-4.044-2.129-5.215-5.321zm7.343 8.195c-.639-.213-1.064-.958-.851-1.596l.957-3.193c.213-.638.958-1.064 1.597-.851l2.234.745c-.957 1.702-1.596 3.618-1.915 5.533l-2.022-.638zm9.045 15.005c-.957.532-2.234.213-2.98-.532 6.811-3.725 6.386-7.45 5.854-10.961-.639-5.108-1.49-10.961 18.516-20.645l1.916 3.83c-1.596-.106-3.086.214-4.576.959-4.47 2.34-6.172 7.768-3.938 12.238 1.171 2.34 3.3 3.937 5.64 4.575l-20.432 10.536zm26.285-12.983c-3.511 1.809-7.98.426-9.79-3.086-1.809-3.512-.426-7.982 3.086-9.79 3.512-1.81 7.981-.426 9.79 3.085 1.81 3.512.426 7.982-3.086 9.79z"/><path d="M296.862 252.516l-.106-.106c-.107 0-.107 0-.213-.107h-.639c-.106 0-.213.107-.319.213l-.106.107-.107.106c0 .106 0 .106-.106.213-.107.213 0 .532.106.745.107.106.107.213.213.319.106.106.213.106.32.213h.319c.106 0 .212 0 .319-.107.106-.106.213-.106.32-.212.105-.107.105-.213.212-.32v-.319c0-.106 0-.213-.107-.32 0-.106-.106-.106-.106-.106.106-.319.106-.319 0-.319z"/><path d="M256.85 249.11c-.746-2.021-.533-4.256.638-6.597.106-.106 2.022-3.618 5.64-4.363 2.235-.426 4.682.32 7.023 2.235l.107.106c.958.958 3.192 2.66 5.427 3.618l-1.596 1.277c-2.554-1.277-4.576-3.086-5.002-3.512-1.915-1.596-3.724-2.234-5.427-1.915-2.554.426-4.15 2.873-4.47 3.405v.107c-.957 1.915-1.064 3.618-.532 5.108.852 2.235 3.086 3.618 3.938 4.15l-.532 1.703c-.958-.532-4.044-2.129-5.215-5.321zm16.387 23.2c-.957.532-2.234.213-2.98-.532 6.811-3.725 6.386-7.45 5.854-10.961-.639-5.108-1.49-10.961 18.516-20.645l1.916 3.83c-1.596-.106-3.086.214-4.576.959-4.47 2.34-6.172 7.768-3.938 12.238 1.171 2.34 3.3 3.937 5.64 4.575l-20.432 10.536z" opacity=".2"/></g><g opacity=".5"><path d="M279.303 183.132c1.596-4.363 1.17-8.939-1.064-12.983-2.341-4.15-6.385-7.13-11.174-7.981-10.322-2.022-17.771 6.172-20.538 15.111-.639 2.235-1.064 7.237.851 9.365 1.596 1.809 4.47 4.257 9.046 6.172 8.194 3.299 12.025 2.128 12.131 2.022 4.682-1.596 9.152-7.13 10.748-11.706zm-31.393-3.192c.107-.852.213-1.597.426-2.235 1.915-6.279 5.108-10.11 8.62-12.132l.106.107 8.3 5.746c1.384.958 2.342 2.341 2.555 3.725a6.16 6.16 0 01-.32 3.405l-2.66 6.704c-.32.639-.958 1.065-1.703.958-3.299-.319-9.577-1.702-15.324-6.278zm20.22 13.089c-.107 0-3.512.958-10.962-2.022-4.15-1.703-6.81-4.044-8.407-5.64-.638-.639-.85-1.81-.957-3.193a31.403 31.403 0 006.598 3.619c3.405 1.383 6.385 1.915 8.407 2.234 1.49.213 2.98-.638 3.618-2.128l2.66-6.704c.532-1.384.745-2.98.426-4.47-.32-1.915-1.596-3.618-3.3-4.895l-7.555-5.214c2.767-1.171 5.534-1.277 7.982-.852.957.213 1.809.426 2.66.852 3.086 1.277 5.534 3.405 7.236 6.385 2.022 3.618 2.342 7.662.958 11.493-1.49 4.682-5.746 9.364-9.365 10.535z"/><path d="M261.638 183.345c.426.213.958 0 1.17-.532l2.661-6.598c.213-.426 0-.958-.532-1.17-.532-.213-.958 0-1.17.532l-2.661 6.597c-.107.426.106.958.532 1.171zm9.79-1.915c-.425-.213-.957 0-1.17.532l-.426 1.064c-.213.425 0 .957.532 1.17.426.213.958 0 1.17-.532l.426-1.064c.107-.426-.106-.958-.532-1.17z"/><path d="M256.956 165.68s.106 0 0 0l8.3 5.746c1.384.958 2.341 2.341 2.554 3.725a6.16 6.16 0 01-.32 3.405l-2.66 6.704c-.319.639-.957 1.065-1.702.958-3.3-.425-9.578-1.809-15.218-6.278.107-.852.213-1.597.426-2.235 1.915-6.172 5.108-10.003 8.62-12.025z" opacity=".2"/></g><ellipse cx="46.291" cy="5.64" rx="46.291" ry="5.64" opacity=".1" transform="translate(121.167 289.869)"/><path d="M172.992 284.229h-9.79c-10.748 0-19.474-8.727-19.474-19.475 0-8.726 2.234-16.92 6.172-23.412 5.32 3.3 11.493 5.215 18.09 5.215 6.599 0 12.877-1.916 18.092-5.215 4.044 6.492 6.172 14.686 6.172 23.412.213 10.748-8.513 19.475-19.262 19.475z" opacity=".2"/><path d="M148.197 244.428c5.321 4.044 12.025 6.492 19.368 6.492 7.556 0 14.58-2.66 20.113-7.13-.426-.851-.958-1.703-1.49-2.554-5.32 3.299-11.493 5.214-18.09 5.214-6.599 0-12.877-1.915-18.092-5.214-.638 1.064-1.277 2.128-1.809 3.192z" opacity=".1"/><path d="M177.568 197.711c1.81-1.064 4.79-1.064 6.492 0 .213.107.425.107.532.107.426 0 .745-.213.958-.532.319-.532.106-1.277-.426-1.597-2.448-1.383-6.385-1.383-8.833 0-.532.32-.745 1.065-.425 1.597.425.638 1.17.745 1.702.425z"/><path d="M177.036 198.456c-.106 0-.319 0-.425-.106a1.951 1.951 0 01-1.065-.745c-.212-.426-.319-.851-.212-1.277.106-.426.425-.851.744-1.064 2.66-1.49 6.705-1.49 9.365 0 .426.213.639.638.745 1.064.107.426.107.851-.213 1.277-.425.745-1.49 1.064-2.34.638-1.597-.957-4.364-.957-5.96 0-.107.107-.426.213-.639.213zm3.831-3.299c-1.49 0-2.98.32-4.15.958a1.47 1.47 0 00-.32.426c-.106.213 0 .319.107.425.213.32.532.426.852.213 1.915-1.064 5.108-1.064 7.023 0 .32.213.639.107.851-.213.107-.106.107-.319.107-.425 0-.107-.107-.32-.32-.426-1.17-.532-2.66-.958-4.15-.958zm-23.199.639c-2.447-1.384-6.385-1.384-8.832 0-.532.319-.745 1.064-.426 1.596.213.426.639.532.958.532.213 0 .425 0 .532-.106 1.809-1.064 4.789-1.064 6.491 0 .532.319 1.277.106 1.597-.426.425-.638.212-1.277-.32-1.596z"/><path d="M157.136 198.456c-.319 0-.532-.106-.851-.213-1.596-.957-4.363-.957-5.96 0-.744.426-1.809.107-2.34-.638-.213-.426-.32-.851-.213-1.277.106-.426.425-.851.744-1.064 2.66-1.49 6.705-1.49 9.365 0 .426.213.639.638.745 1.064.106.426.106.851-.213 1.277-.319.426-.638.638-1.064.745.106.106-.106.106-.213.106zm-3.83-2.022c1.276 0 2.553.32 3.511.852.106.106.32.106.426.106.212 0 .319-.106.425-.32.107-.212.107-.318.107-.425 0-.106-.107-.32-.32-.426-2.34-1.383-5.959-1.383-8.3 0a1.47 1.47 0 00-.32.426c-.106.213 0 .32.107.426.213.32.532.425.851.213.958-.532 2.235-.852 3.512-.852z"/><path d="M221.2 245.493c-.426-.852-2.767-1.916-4.47-2.129-2.022-.319-5.002-.106-7.875 2.767-3.831 3.831-7.343 5.321-10.642 4.576-5.64-1.277-9.152-8.726-10.003-10.748 1.383-.958 2.554-2.128 3.831-3.299 6.385-6.385 10.003-15.005 10.003-24.05 0-9.046-3.511-17.666-10.003-24.05-6.385-6.386-15.005-10.004-24.05-10.004-9.046 0-17.665 3.512-24.05 10.003-6.386 6.385-10.004 15.005-10.004 24.05 0 9.046 3.512 17.666 10.003 24.051 1.171 1.17 2.448 2.341 3.832 3.299-.852 2.128-4.364 9.577-10.004 10.748-3.299.745-6.917-.851-10.641-4.576-2.874-2.873-5.853-3.086-7.875-2.767-2.022.32-4.15 1.49-4.47 2.129-.32.532-.106 1.277.532 1.596.426.213 1.064.106 1.384-.213.213-.213 1.49-.958 3.086-1.17 2.128-.32 4.044.425 5.746 2.128 3.618 3.618 7.237 5.427 10.748 5.427.745 0 1.384-.106 2.129-.213 2.128-.425 3.937-1.596 5.427-2.873-1.383 4.576-2.128 9.578-2.128 14.686 0 7.768 4.15 14.685 10.429 18.516v8.514c0 .638.532 1.17 1.17 1.17a1.18 1.18 0 001.17-1.17v-7.343c2.768 1.277 5.747 1.915 8.94 1.915h9.684c3.405 0 6.704-.851 9.577-2.234v7.98c0 .64.532 1.171 1.171 1.171a1.18 1.18 0 001.17-1.17v-8.94c0-.106 0-.212-.106-.318 5.853-3.832 9.79-10.536 9.79-18.091a52.3 52.3 0 00-2.128-14.792c1.596 1.383 3.406 2.554 5.534 2.98.745.106 1.383.212 2.128.212 3.512 0 7.024-1.809 10.748-5.427 1.703-1.703 3.619-2.448 5.747-2.129a7.526 7.526 0 013.086 1.171c.32.426.851.532 1.383.213 0-.32.213-1.064 0-1.596zm-75.876-10.536c-5.96-5.959-9.258-13.94-9.258-22.454 0-8.513 3.299-16.494 9.258-22.454 5.96-5.96 13.94-9.258 22.454-9.258 8.513 0 16.495 3.299 22.454 9.258 5.96 5.96 9.258 13.94 9.258 22.454 0 8.514-3.299 16.495-9.258 22.454-5.96 5.96-13.94 9.259-22.454 9.259-8.407 0-16.388-3.3-22.454-9.259zm27.35 49.059h-9.685c-10.642 0-19.368-8.62-19.368-19.368 0-8.62 2.235-16.814 6.172-23.306a34.006 34.006 0 0017.985 5.108 34.002 34.002 0 0017.984-5.108c3.938 6.385 6.173 14.686 6.173 23.306 0 10.641-8.62 19.368-19.262 19.368z"/><path d="M183.421 293.7a1.68 1.68 0 01-1.702-1.703v-7.13a22.274 22.274 0 01-9.046 1.916h-9.684c-2.873 0-5.746-.533-8.407-1.703v6.491a1.68 1.68 0 01-1.702 1.703 1.68 1.68 0 01-1.703-1.703v-8.087c-6.492-4.044-10.429-11.068-10.429-18.73 0-4.576.532-9.045 1.703-13.196-1.384.958-2.874 1.703-4.363 2.022-4.257.958-8.833-.851-13.303-5.427-1.596-1.596-3.299-2.235-5.32-1.915-1.703.212-2.767 1.064-2.767 1.064-.426.532-1.277.638-1.916.319-.851-.426-1.17-1.383-.745-2.235.426-.958 2.767-2.128 4.895-2.447 2.129-.32 5.321-.107 8.301 2.873 3.618 3.618 7.024 5.108 10.216 4.47 5.108-1.065 8.407-7.556 9.471-10.11-1.277-.958-2.447-2.022-3.618-3.086-6.491-6.492-10.11-15.218-10.11-24.476 0-9.259 3.619-17.878 10.11-24.476 6.491-6.598 15.218-10.11 24.476-10.11s17.878 3.618 24.476 10.11c6.491 6.491 10.11 15.217 10.11 24.476 0 9.258-3.619 17.878-10.11 24.476-1.064 1.064-2.235 2.128-3.512 3.086 1.064 2.554 4.47 8.939 9.471 10.11 3.086.638 6.598-.852 10.216-4.47 2.98-2.98 6.173-3.193 8.3-2.873 1.704.319 4.258 1.383 4.896 2.447.213.426.213.852.106 1.277-.106.426-.425.745-.85.958-.64.32-1.49.213-2.023-.426 0 0-1.17-.745-2.767-1.064-1.915-.32-3.724.426-5.32 1.916-4.47 4.47-9.046 6.278-13.303 5.427-1.49-.32-2.98-1.064-4.47-2.022 1.171 4.257 1.704 8.726 1.704 13.302 0 7.343-3.619 14.154-9.684 18.304v9.046c.106.85-.639 1.596-1.597 1.596zm-.638-10.536v8.833c0 .32.319.638.638.638.32 0 .639-.319.639-.638v-9.152l-.107-.426.32-.212c5.959-3.938 9.577-10.536 9.577-17.666 0-5.108-.745-10.003-2.128-14.579l-.532-1.809 1.383 1.277c1.703 1.49 3.406 2.448 5.321 2.873 3.937.852 8.088-.851 12.344-5.108 1.81-1.809 3.938-2.554 6.173-2.234 1.702.212 2.98 1.064 3.299 1.277.212.319.532.319.85.212l.32-.319v-.426c-.32-.532-2.341-1.596-4.044-1.915-1.915-.32-4.682-.106-7.342 2.554-3.938 3.937-7.663 5.534-11.174 4.789-5.853-1.277-9.471-8.833-10.43-11.068l-.212-.425.32-.213c1.276-.958 2.553-2.022 3.724-3.193 6.385-6.385 9.79-14.792 9.79-23.73 0-8.94-3.512-17.347-9.79-23.732-6.385-6.385-14.792-9.79-23.731-9.79-8.94 0-17.346 3.512-23.731 9.79-6.385 6.279-9.79 14.792-9.79 23.731 0 8.94 3.511 17.346 9.79 23.731 1.17 1.17 2.447 2.235 3.83 3.3l.32.212-.213.426c-.958 2.235-4.576 9.79-10.429 11.067-3.511.745-7.236-.851-11.174-4.789-2.66-2.66-5.533-2.873-7.342-2.554-2.022.32-3.831 1.384-4.044 1.916-.107.106-.107.32 0 .532 0 .106.213.32.32.32.212.106.531.106.744-.107.426-.32 1.703-1.17 3.405-1.384 2.235-.319 4.363.426 6.173 2.235 4.256 4.257 8.407 5.96 12.344 5.108 1.81-.425 3.512-1.383 5.214-2.767l1.384-1.277-.532 1.81c-1.384 4.575-2.129 9.47-2.129 14.579 0 7.449 3.831 14.153 10.11 17.984l.213.107v8.832c0 .32.32.639.638.639.32 0 .639-.32.639-.639v-8.194l.745.32a20.467 20.467 0 008.726 1.915h9.684c3.299 0 6.385-.745 9.365-2.235l.532-.426zm-10.11 1.384h-9.684c-10.96 0-19.9-8.94-19.9-19.9 0-8.726 2.235-17.027 6.279-23.518l.319-.426.426.32c5.32 3.298 11.386 5.107 17.665 5.107s12.45-1.703 17.665-5.108l.426-.32.32.427c4.043 6.491 6.278 14.898 6.278 23.518 0 10.96-8.833 19.9-19.794 19.9zm-22.667-42.46c-3.724 6.278-5.853 14.26-5.853 22.56 0 10.322 8.407 18.836 18.836 18.836h9.684c10.323 0 18.836-8.407 18.836-18.73 0-8.3-2.022-16.282-5.853-22.56-5.32 3.192-11.493 4.895-17.772 4.895-6.278 0-12.557-1.703-17.878-5.002zm17.772 2.66c-8.62 0-16.708-3.406-22.773-9.471-6.066-6.066-9.471-14.154-9.471-22.774 0-8.62 3.405-16.707 9.47-22.773 6.066-6.066 14.154-9.471 22.774-9.471 8.62 0 16.707 3.405 22.773 9.471 6.066 6.066 9.471 14.154 9.471 22.773 0 8.62-3.405 16.708-9.47 22.774-6.067 6.172-14.154 9.47-22.774 9.47zm0-63.425c-8.3 0-16.175 3.299-22.028 9.152-5.853 5.853-9.152 13.728-9.152 22.028 0 8.3 3.299 16.176 9.152 22.029 5.853 5.853 13.727 9.152 22.028 9.152 8.3 0 16.175-3.3 22.028-9.152 5.853-5.853 9.152-13.728 9.152-22.029 0-8.3-3.299-16.175-9.152-22.028-5.853-5.853-13.621-9.152-22.028-9.152z"/><path d="M167.14 204.841c-1.916 0-3.832-.425-5.321-1.277-1.065-.532-1.384-1.915-.745-2.873.532-1.064 1.915-1.383 2.873-.745 1.703.958 4.682.958 6.385 0a2.063 2.063 0 012.873.745c.532 1.064.213 2.341-.745 2.873-1.49.852-3.405 1.277-5.32 1.277z"/><ellipse cx="21.816" cy="4.576" rx="21.816" ry="3.831" opacity=".05" transform="translate(259.51 279.227)"/><path d="M257.807 253.474c-.532-.639-.851-1.277-1.17-2.022h-1.916c-7.981 0-14.366 1.17-14.366 2.554 0 1.383 6.385 2.554 14.366 2.554 2.128 0 4.15-.106 6.066-.213-1.065-.851-2.129-1.809-2.98-2.873z" opacity=".03"/><ellipse cx="21.816" cy="4.576" rx="21.816" ry="3.831" opacity=".05" transform="translate(38.162 283.484)"/><path d="M39.97 260.391c-.212-1.277.214-2.554.533-3.725.106-.319.213-.638.426-.957-1.81-.107-3.831-.107-5.853-.107-10.536 0-19.155 1.17-19.155 2.66 0 1.49 8.62 2.661 19.155 2.661 1.702 0 3.405 0 5.001-.106-.106-.107-.106-.32-.106-.426z" opacity=".03"/><path d="M189.913 228.147c-5.853 5.853-13.728 9.152-22.029 9.152-8.3 0-16.175-3.3-22.028-9.152-5.108-5.108-8.3-11.706-8.939-18.836-.106 1.064-.213 2.128-.213 3.192 0 8.3 3.3 16.176 9.152 22.029 5.853 5.853 13.728 9.152 22.028 9.152 8.3 0 16.176-3.3 22.029-9.152 5.853-5.853 9.152-13.728 9.152-22.029 0-1.064-.107-2.128-.213-3.192-.745 7.13-3.831 13.728-8.94 18.836z" opacity=".1"/><path d="M173.099 278.695h-10.11c-9.045 0-16.814-5.534-19.261-12.983v.532c0 9.684 8.726 17.559 19.474 17.559h9.79c10.749 0 19.475-7.875 19.475-17.559v-.532c-2.554 7.45-10.216 12.983-19.368 12.983z" opacity=".05"/></g></svg>