<svg xmlns="http://www.w3.org/2000/svg" width="340" height="404" viewBox="0 0 340 404"><g fill="#ECEFF1" fill-rule="evenodd"><path d="M0 100h340v1H0z" opacity=".75"/><rect width="94" height="12" x="92" y="23" rx="6"/><rect width="183" height="12" x="92" y="43" rx="6"/><rect width="183" height="12" x="92" y="63" rx="6"/><rect width="60" height="60" x="20" y="20" rx="10"/><g transform="translate(0 101)"><path d="M0 100h340v1H0z" opacity=".75"/><rect width="94" height="12" x="92" y="23" rx="6"/><rect width="183" height="12" x="92" y="43" rx="6"/><rect width="183" height="12" x="92" y="63" rx="6"/><rect width="60" height="60" x="20" y="20" rx="10"/></g><g opacity=".5" transform="translate(0 202)"><path d="M0 100h340v1H0z" opacity=".75"/><rect width="94" height="12" x="92" y="23" rx="6"/><rect width="183" height="12" x="92" y="43" rx="6"/><rect width="183" height="12" x="92" y="63" rx="6"/><rect width="60" height="60" x="20" y="20" rx="10"/></g><g opacity=".25" transform="translate(0 303)"><path d="M0 100h340v1H0z" opacity=".75"/><rect width="94" height="12" x="92" y="23" rx="6"/><rect width="183" height="12" x="92" y="43" rx="6"/><rect width="183" height="12" x="92" y="63" rx="6"/><rect width="60" height="60" x="20" y="20" rx="10"/></g></g></svg>