<svg width="149" height="150" fill="none" xmlns="http://www.w3.org/2000/svg"><mask id="a" maskUnits="userSpaceOnUse" x="0" y="0" width="149" height="150"><path fill="#fff" d="M0 0h149v150H0z"/></mask><g mask="url(#a)" stroke-width="2"><path d="M1 10a9 9 0 019-9h48a9 9 0 019 9v56a9 9 0 01-9 9H10a9 9 0 01-9-9V10z" stroke="#CFD8DC"/><path d="M8 84h28M8 90h53" stroke="#CFD8DC" stroke-linecap="round"/><path d="M82 10a9 9 0 019-9h48a9 9 0 019 9v50a9 9 0 01-9 9H91a9 9 0 01-9-9V10z" stroke="#CFD8DC"/><path d="M89 78h28m-28 7l53-1" stroke="#CFD8DC" stroke-linecap="round"/><path d="M82 105a9 9 0 019-9h48a9 9 0 019 9v58a9 9 0 01-9 9H91a9 9 0 01-9-9v-58zm-81 5a9 9 0 019-9h48a9 9 0 019 9v48a9 9 0 01-9 9H10a9 9 0 01-9-9v-48z" stroke="#CFD8DC"/><path clip-rule="evenodd" d="M28 140.5a3 3 0 10-6 0 3 3 0 006 0zm18 0a3 3 0 10-6 0 3 3 0 006 0z" stroke="#90A4AE" stroke-linecap="round"/><path d="M40 139H28m-6.913 1.595A3.086 3.086 0 0118 137.508V133a3.086 3.086 0 012.418-3.013l3.582-.682a3.086 3.086 0 002.091-1.632l.956-1.904a5.024 5.024 0 014.49-2.769h3.526c1.07 0 1.938.867 1.938 1.937v5.188c0 1.07.867 1.937 1.937 1.937h7.124A1.94 1.94 0 0148.001 134v3.062c0 1.07-.868 1.938-1.938 1.938H46m-25-9h8m17 0v1m-4.333-85.75H26.5m-5.833 0h-2.634c-1.123 0-2.033-.975-2.033-2.179V38.69c0-.938.56-1.774 1.39-2.072l5.424-1.377c.15-.053 3.785-3.88 5.332-5.514A2.28 2.28 0 0129.803 29h9.56c.72 0 1.4.348 1.853.948l3.703 4.9c.165.124.345.222.536.29l4.154 1.485C50.44 36.919 51 37.75 51 38.689v4.813c0 .965-.73 1.748-1.631 1.748H47.5" stroke="#90A4AE" stroke-linecap="round"/><path clip-rule="evenodd" d="M25.917 45.875c0-1.38-1.046-2.5-2.334-2.5s-2.333 1.12-2.333 2.5 1.045 2.5 2.333 2.5c1.288 0 2.334-1.12 2.334-2.5zm21 0c0-1.38-1.046-2.5-2.334-2.5s-2.333 1.12-2.333 2.5 1.045 2.5 2.333 2.5c1.288 0 2.334-1.12 2.334-2.5z" stroke="#90A4AE" stroke-linecap="round"/><path d="M23 35.25h5.833m94.834 100H108.5m-5.833 0h-2.634c-1.123 0-2.033-.975-2.033-2.179v-4.382c0-.938.56-1.774 1.39-2.072l5.424-1.377c.15-.053 3.785-3.88 5.332-5.514a2.281 2.281 0 011.657-.726h9.559c.72 0 1.402.347 1.854.947l3.703 4.9c.165.125.345.223.536.292l4.154 1.483c.831.297 1.391 1.129 1.391 2.067v4.813c0 .965-.73 1.748-1.631 1.748H129.5" stroke="#90A4AE" stroke-linecap="round"/><path clip-rule="evenodd" d="M107.917 135.875c0-1.38-1.046-2.5-2.334-2.5s-2.333 1.12-2.333 2.5 1.045 2.5 2.333 2.5c1.288 0 2.334-1.12 2.334-2.5zm21 0c0-1.38-1.046-2.5-2.334-2.5s-2.333 1.12-2.333 2.5 1.045 2.5 2.333 2.5c1.288 0 2.334-1.12 2.334-2.5z" stroke="#90A4AE" stroke-linecap="round"/><path d="M105 125.25h5.833" stroke="#90A4AE" stroke-linecap="round"/><path clip-rule="evenodd" d="M107.2 40.786c0-1.42-1.075-2.572-2.4-2.572s-2.4 1.152-2.4 2.572c0 1.42 1.075 2.571 2.4 2.571s2.4-1.152 2.4-2.571zm21.6 0c0-1.42-1.075-2.572-2.4-2.572s-2.4 1.152-2.4 2.572c0 1.42 1.075 2.571 2.4 2.571s2.4-1.152 2.4-2.571z" stroke="#90A4AE" stroke-linecap="round"/><path d="M101.645 40.143h-1.62C98.355 40.143 97 38.69 97 36.9c0-1.085.505-2.097 1.348-2.698A12.529 12.529 0 01103 32.138l2.995-.642c.196-.042.395-.063.594-.063H130.7c1.269 0 2.299 1.102 2.299 2.462v3.006c0 1.79-1.355 3.242-3.026 3.242h-.574m-21.948 0h16.259M121 28.572l-1.2 2.571M112.6 26l-6 5.143m21.6-2.571l-1.2 2.571" stroke="#90A4AE" stroke-linecap="round"/></g></svg>