<svg xmlns="http://www.w3.org/2000/svg" width="200" height="200" viewBox="0 0 200 200"><g fill="none" fill-rule="evenodd"><circle cx="100" cy="100" r="100" fill="#FFF"/><path fill="#607D8B" fill-rule="nonzero" d="M17.5 147.5v-3.491h165v3.491h-165zm128.138-17.457v8.057c0 2.347 1.596 4.163 3.436 4.163h7.171c1.842 0 3.436-1.815 3.436-4.163v-8.057h-14.043zm17.553 8.057c0 4.18-3.052 7.654-6.946 7.654h-7.171c-3.892 0-6.946-3.476-6.946-7.654v-11.548h21.063V138.1zM40.32 130.043v8.057c0 2.347 1.596 4.163 3.436 4.163h7.171c1.842 0 3.436-1.815 3.436-4.163v-8.057H40.319zm17.553 8.057c0 4.18-3.052 7.654-6.946 7.654h-7.171c-3.893 0-6.946-3.476-6.946-7.654v-11.548h21.063V138.1zm-27.519-11.548h139.294a2.313 2.313 0 002.321-2.305V84.633c0-5.772-4.71-10.452-10.522-10.452H38.554c-5.81 0-10.522 4.68-10.522 10.452v39.614a2.313 2.313 0 002.321 2.305zm0 3.491c-3.22 0-5.832-2.594-5.832-5.796V84.633c0-7.7 6.284-13.943 14.033-13.943h122.892c7.75 0 14.033 6.242 14.033 13.943v39.614c0 3.202-2.612 5.796-5.832 5.796H30.353zm10.397-12.802a1.75 1.75 0 01-1.756-1.745 1.75 1.75 0 011.756-1.746h15.5a1.75 1.75 0 011.755 1.746 1.75 1.75 0 01-1.756 1.745h-15.5zm106.387 0v-3.491h15.5v3.491h-15.5zm0-3.491h15.5v3.491h-15.5v-3.491zM33.297 93.384h3.512v12.22h-3.511v-12.22zm3.512 0v12.22h-3.511v-12.22h3.51zm126.382 0h3.511v12.22h-3.51v-12.22zm3.511 0v12.22h-3.51v-12.22h3.51zm-138.67 0v-3.492h143.936v3.492H28.032zm0-3.492h143.936v3.492H28.032v-3.492zm0 17.457v-3.491h143.936v3.491H28.032zm0-3.491h143.936v3.491H28.032v-3.491zm21.553-11.01l2.532-2.42 13.493 13.966-2.532 2.419-13.493-13.966zm101.26-2.42l2.53 2.42-13.492 13.965-2.532-2.42 13.493-13.965zm2.53 2.42l-13.492 13.965-2.532-2.42 13.493-13.965 2.532 2.42zM49.799 70.69h100.404l-5.863-16.994c-.821-2.381-2.984-3.955-5.395-3.955H61.056c-2.412 0-4.576 1.575-5.397 3.954l-5.86 16.995zm-4.118 1.179l6.658-19.307c1.303-3.776 4.79-6.312 8.718-6.312h77.888c3.927 0 7.413 2.536 8.716 6.313l7.458 21.618H44.883l.797-2.312zm-2.094-1.18c1.13 0 2-.807 2-1.744 0-.939-.87-1.747-2-1.747h-8.289c-1.13 0-2 .808-2 1.747 0 .937.87 1.745 2 1.745h8.289zm0 3.492h-8.289c-3.018 0-5.51-2.316-5.51-5.236 0-2.921 2.492-5.238 5.51-5.238h8.289c3.018 0 5.51 2.317 5.51 5.238 0 2.92-2.492 5.236-5.51 5.236zm121.117-3.491c1.13 0 2-.808 2-1.745 0-.939-.87-1.747-2-1.747h-8.289c-1.13 0-2 .808-2 1.747 0 .937.87 1.745 2 1.745h8.289zm0 3.491h-8.289c-3.018 0-5.51-2.316-5.51-5.236 0-2.921 2.492-5.238 5.51-5.238h8.289c3.018 0 5.51 2.317 5.51 5.238 0 2.92-2.492 5.236-5.51 5.236zm-76.205-11.53a1.76 1.76 0 012.416.565 1.74 1.74 0 01-.57 2.403l-13.622 8.383a1.76 1.76 0 01-2.416-.566 1.74 1.74 0 01.57-2.403l13.622-8.383zm9.825-6.875a1.761 1.761 0 012.423.535 1.74 1.74 0 01-.539 2.41l-2.044 1.293a1.761 1.761 0 01-2.423-.535 1.74 1.74 0 01.539-2.41l2.044-1.293zm-8.38-8.474a1.76 1.76 0 012.416.566 1.74 1.74 0 01-.569 2.403l-38.57 23.73a1.76 1.76 0 01-2.416-.565 1.74 1.74 0 01.57-2.403l38.57-23.73z"/></g></svg>