<svg width="252" height="148" viewBox="0 0 252 148" fill="none" xmlns="http://www.w3.org/2000/svg"><g clip-path="url(#clip0)"><path d="M81.382 121.426a5.149 5.149 0 100-10.298 5.149 5.149 0 000 10.298zM139.172 121.426a5.149 5.149 0 100-10.297 5.149 5.149 0 000 10.297zM60.022 130.487c0 9.304-7.569 16.873-16.873 16.873h-4.22c-9.305 0-16.874-7.569-16.874-16.873 0-6.917 5.636-12.553 12.553-12.553H47.48c6.906 0 12.541 5.636 12.541 12.553zm-25.425-5.923a5.923 5.923 0 00-5.923 5.923c0 5.646 4.597 10.243 10.243 10.243h4.221c5.647 0 10.244-4.597 10.244-10.243a5.923 5.923 0 00-5.923-5.923H34.597zM200.355 130.487c0 9.304-7.569 16.873-16.873 16.873h-4.221c-9.304 0-16.873-7.569-16.873-16.873 0-6.917 5.635-12.553 12.552-12.553h12.873c6.906 0 12.542 5.636 12.542 12.553zm-25.426-5.923a5.922 5.922 0 00-5.922 5.923c0 5.646 4.596 10.243 10.243 10.243h4.221c5.646 0 10.243-4.597 10.243-10.243a5.923 5.923 0 00-5.923-5.923h-12.862z" fill="#607D88"/><path opacity=".3" d="M43.293 133.493h-4.276a10.39 10.39 0 01-9.437-6.023 5.81 5.81 0 00-.928 3.139c0 5.646 4.652 10.243 10.365 10.243h4.276c5.713 0 10.365-4.597 10.365-10.243a5.845 5.845 0 00-.928-3.139 10.378 10.378 0 01-9.437 6.023z" fill="url(#paint0_radial)"/><path opacity=".3" d="M183.625 133.493h-4.276a10.39 10.39 0 01-9.436-6.023 5.817 5.817 0 00-.94 3.139c0 5.646 4.652 10.243 10.365 10.243h4.276c5.713 0 10.365-4.597 10.365-10.243a5.765 5.765 0 00-.939-3.139 10.323 10.323 0 01-9.415 6.023z" fill="url(#paint1_radial)"/><path opacity=".3" d="M109.824 56.332c-4.752 16.298-36.586 27.68-54.023 26.983-2.784 2.32-5.547 9.04-6.563 11.083 14.508.453 64.663-.63 76.763-36.342-1.901-.431-12.045-2.045-16.177-1.724z" fill="url(#paint2_radial)"/><path opacity=".3" d="M237.46 16.85c9.624 12.156 6.961 45.117-29.006 42.277l-.121-.01-.122-.012a30.76 30.76 0 01-6.53-1.171l-.122-.033-.121-.033c-3.669-.94-7.116-2.498-10.464-4.752.066.089.121.177.187.266.21.22.409.442.597.64.365.398.696.752.961 1.04.531.574.829.905.829.905l.254.276a3.338 3.338 0 01-.21 4.719 3.338 3.338 0 01-4.718-.21c-.055-.067-.121-.133-.166-.2 0 0-.331-.43-.928-1.181-.155-.2-.32-.41-.497-.652-.564 2.95-1.68 5.701-3.392 8.331 6.541 1.492 11.547 1.79 18.63 1.79 13.469 0 22.674-2.563 29.834-8.31l.099-.077.1-.077a30.23 30.23 0 004.851-4.52l.077-.099.089-.088c.033-.033.055-.066.088-.1l.254-.309a29.934 29.934 0 006.763-18.94c0-7.436-2.719-14.232-7.216-19.47z" fill="url(#paint3_radial)"/><path d="M251.217 36.398C251.217 16.298 234.93 0 214.83 0s-36.398 16.298-36.398 36.398c0 4.387.774 8.597 2.199 12.486a19.55 19.55 0 01.663 5.061c0 4.972-1.68 8.508-4.707 11.978 0 0-.951 1.238-.951 2.608a4.028 4.028 0 003.116 3.922c9.393 2.542 15.525 2.918 23.901 2.918 12.984 0 24.431-2.188 33.835-9.724a36.535 36.535 0 005.9-5.48l.663-.697-.044-.022c5.127-6.288 8.21-14.31 8.21-23.05zm-13.348 18.84l-.254.31c-.033.032-.056.066-.089.099l-.088.088-.077.1a29.986 29.986 0 01-4.829 4.497l-.1.077-.099.078c-7.127 5.712-16.288 8.265-29.68 8.265-7.05 0-12.033-.287-18.541-1.78 1.712-2.618 2.817-5.358 3.37-8.287.177.232.353.453.497.641.586.752.917 1.183.917 1.183l.166.199a3.318 3.318 0 004.685.21 3.318 3.318 0 00.21-4.686l-.254-.276s-.299-.331-.818-.895c-.265-.287-.586-.63-.95-1.028-.188-.198-.387-.408-.586-.63-.188-.242-.364-.508-.563-.773-.387-.541-.818-1.138-1.26-1.757-.11-.154-.232-.31-.343-.475l-.265-.497-.563-1.028c-.376-.73-.84-1.337-1.16-2.32-.354-.906-.708-1.823-1.061-2.752l-.067-.176-.022-.067-.066-.276-.166-.663c-.11-.442-.221-.873-.331-1.315-.011-.055-.022-.11-.044-.155a30.569 30.569 0 01-.387-4.729c.011-16.442 13.359-29.79 29.779-29.79 16.409 0 29.768 13.348 29.768 29.768a29.91 29.91 0 01-6.729 18.84zM165.581 135.68c-1.337-1.9-1.37-4.674-.121-6.629H56.453c1.15 2.022 1.006 4.806-.442 6.629h109.57zM219.659 129.051h-21.923c1.061 2.088.807 4.883-.762 6.629h22.685a3.31 3.31 0 003.315-3.315 3.31 3.31 0 00-3.315-3.314zM26.1 129.051H3.315A3.31 3.31 0 000 132.365a3.31 3.31 0 003.315 3.315h24.431c-1.945-1.513-2.497-4.364-1.646-6.629zM110.575 49.68c-40.243 0-73.194 31.812-75.05 71.602.796-.53 1.801-.85 3.017-.85 1.536 0 2.729.508 3.602 1.315a68.103 68.103 0 014.243-20.807c1.558.099 4.11.21 7.381.21 7.205 0 17.912-.542 29.26-3.017 25.901-5.657 42.906-18.85 49.326-38.243 25.923 8.73 44.962 32.552 46.586 60.984.288-.045.575-.089.873-.089a30.66 30.66 0 013.326.199c.276-.044.542-.077.818-.121a10.483 10.483 0 011.635-.144c-2.121-39.536-34.961-71.04-75.017-71.04zm-61.36 44.74c11.216-22.563 34.498-38.11 61.36-38.11 5.293 0 10.453.618 15.404 1.768-12.1 35.713-62.255 36.796-76.763 36.342z" fill="#607D88"/><path d="M223.813 41.304c0-5.005-4.055-23.724-9.06-23.724-5.006 0-9.061 18.719-9.061 23.724a9.059 9.059 0 009.061 9.061 9.059 9.059 0 009.06-9.06z" stroke="#607D88" stroke-width="6" stroke-miterlimit="10"/><path opacity=".3" d="M219.847 36.155c.044.486.077.917.077 1.248 0 3.559-2.862 6.454-6.398 6.454a6.336 6.336 0 01-4.453-1.824c.387 2.84 2.796 5.028 5.724 5.028 3.193 0 5.779-2.608 5.779-5.823 0-1.039-.265-2.95-.729-5.083z" fill="#607D88"/></g><defs><radialGradient id="paint0_radial" cx="0" cy="0" r="1" gradientUnits="userSpaceOnUse" gradientTransform="translate(57.432 128.176) scale(70.0963)"><stop stop-color="#607D88"/><stop offset=".177" stop-color="#607D88" stop-opacity=".823"/><stop offset=".365" stop-color="#607D88" stop-opacity=".635"/><stop offset=".559" stop-color="#607D88" stop-opacity=".441"/><stop offset=".755" stop-color="#607D88" stop-opacity=".245"/><stop offset=".953" stop-color="#F5FBFE" stop-opacity=".047"/><stop offset="1" stop-color="#fff" stop-opacity="0"/></radialGradient><radialGradient id="paint1_radial" cx="0" cy="0" r="1" gradientUnits="userSpaceOnUse" gradientTransform="translate(197.753 128.176) scale(70.0963)"><stop stop-color="#607D88"/><stop offset=".177" stop-color="#607D88" stop-opacity=".823"/><stop offset=".365" stop-color="#607D88" stop-opacity=".635"/><stop offset=".559" stop-color="#607D88" stop-opacity=".441"/><stop offset=".755" stop-color="#607D88" stop-opacity=".245"/><stop offset=".953" stop-color="#F5FBFE" stop-opacity=".047"/><stop offset="1" stop-color="#fff" stop-opacity="0"/></radialGradient><radialGradient id="paint2_radial" cx="0" cy="0" r="1" gradientUnits="userSpaceOnUse" gradientTransform="translate(125.065 49.387) scale(121.287)"><stop stop-color="#607D88"/><stop offset="1" stop-color="#fff" stop-opacity="0"/></radialGradient><radialGradient id="paint3_radial" cx="0" cy="0" r="1" gradientUnits="userSpaceOnUse" gradientTransform="matrix(96.0416 0 0 165.196 243.934 7.449)"><stop stop-color="#607D88"/><stop offset="1" stop-color="#fff" stop-opacity="0"/></radialGradient><clipPath id="clip0"><path fill="#fff" d="M0 0h251.217v147.36H0z"/></clipPath></defs></svg>