<svg xmlns="http://www.w3.org/2000/svg" xmlns:xlink="http://www.w3.org/1999/xlink" width="167" height="99" viewBox="0 0 167 99"><defs><path id="a" d="M0 .304h18.348V4.59H0z"/><path id="c" d="M.711.273H26.49V20H.71z"/><path id="e" d="M.711.273H26.49V20H.71z"/></defs><g fill="none" fill-rule="evenodd"><path fill="#ECEFF1" d="M138.574 39.47l-.17-.014a20.383 20.383 0 0 1-4.4-.79l-.163-.045c-2.476-.634-4.8-1.684-7.058-3.197.042.057.084.122.128.176l.4.429.644.696.557.608.173.188c.839.916.744 1.841-.173 2.68-.917.837-2.046-.58-2.885-1.496a2.744 2.744 0 0 1-.114-.135l-.624-.8c-.102-.13-.215-.278-.338-.437-.382 1.988-1.392 5.688-2.551 7.464 4.41 1.007 7.787 1.203 12.567 1.203 9.082 0 15.287-1.726 20.122-5.595l.134-.103a20.406 20.406 0 0 0 3.273-3.042l.114-.126.231-.275A20.166 20.166 0 0 0 163 24.104c0-5-1.838-9.578-4.867-13.104 6.493 8.184 4.692 30.386-19.559 28.47zm-18.527 50.577c-2.849 0-5.303-1.663-6.412-4.047a3.88 3.88 0 0 0-.635 2.112c0 3.799 3.162 6.888 7.047 6.888h2.906c3.885 0 7.047-3.09 7.047-6.888 0-.777-.025-1.498-.421-2.112-1.11 2.384-3.777 4.047-6.626 4.047h-2.906zm-94 0c-2.849 0-5.303-1.663-6.412-4.047A3.88 3.88 0 0 0 19 88.112C19 91.911 22.162 95 26.047 95h2.906C32.838 95 36 91.91 36 88.112c0-.777-.025-1.498-.421-2.112-1.11 2.384-3.777 4.047-6.626 4.047h-2.906z"/><path fill="#CFD8DC" d="M158.165 36.644l-.165.206-.06.063-.057.061-.054.063a19.843 19.843 0 0 1-3.194 2.98l-.066.05-.064.051c-4.718 3.792-10.775 5.484-19.637 5.484-4.664 0-7.96-.193-12.263-1.18 1.13-1.74 1.861-3.552 2.232-5.5l.33.429.61.783a2.191 2.191 0 0 0 3.214.27 2.206 2.206 0 0 0 .137-3.11l-.168-.186-.543-.595-.63-.682-.39-.421c-.125-.158-.24-.336-.37-.515l-.836-1.165c-.072-.104-.154-.208-.223-.316l-.178-.332c-.122-.224-.246-.453-.374-.685-.246-.488-.557-.887-.766-1.54l-.698-1.822-.044-.114-.018-.046-.044-.181-.109-.437-.218-.87-.026-.105a19.908 19.908 0 0 1-.259-3.138c0-10.887 8.834-19.746 19.69-19.746 10.858 0 19.69 8.859 19.69 19.746a19.81 19.81 0 0 1-4.449 12.5m8.835-12.5C167 10.81 156.222 0 142.925 0c-13.297 0-24.076 10.809-24.076 24.144 0 2.911.514 5.701 1.455 8.284.282 1.072.442 2.195.442 3.355 0 3.298-1.112 5.643-3.115 7.95 0 0-.631.823-.631 1.727 0 1.268.88 2.324 2.058 2.604 6.21 1.688 10.268 1.936 15.81 1.936 8.591 0 16.16-1.45 22.38-6.45a24.216 24.216 0 0 0 3.901-3.638c.144-.156.295-.306.437-.464l-.027-.017A24.086 24.086 0 0 0 167 24.144M58 77.5a3.5 3.5 0 1 0-7 0 3.5 3.5 0 0 0 7 0m38 0a3.5 3.5 0 1 0-7 0 3.5 3.5 0 0 0 7 0M110 90c-.89-1.146-.914-2.821-.08-4H37.298c.768 1.22.667 2.899-.298 4h73zm35.832-4H131.5c.694 1.26.529 2.945-.499 4h14.832c1.198 0 2.168-.895 2.168-2s-.97-2-2.168-2"/><g transform="translate(0 86)"><mask id="b" fill="#fff"><use xlink:href="#a"/></mask><path fill="#CFD8DC" d="M17.259.304H2.192C.982.304 0 1.264 0 2.447 0 3.631.982 4.59 2.192 4.59h16.156c-1.287-.98-1.649-2.819-1.09-4.286" mask="url(#b)"/></g><g transform="translate(14 79)"><mask id="d" fill="#fff"><use xlink:href="#c"/></mask><path fill="#CFD8DC" d="M9.23 4.718c-2.216 0-4.019 1.78-4.019 3.969 0 3.788 3.12 6.869 6.956 6.869h2.867c3.835 0 6.955-3.081 6.955-6.87 0-2.188-1.803-3.968-4.02-3.968H9.232zm17.26 3.969C26.489 14.925 21.35 20 15.034 20h-2.867C5.85 20 .71 14.925.71 8.687.71 4.048 4.532.273 9.23.273h8.739c4.698 0 8.519 3.775 8.519 8.414z" mask="url(#d)"/></g><g transform="translate(108 79)"><mask id="f" fill="#fff"><use xlink:href="#e"/></mask><path fill="#CFD8DC" d="M9.23 4.718c-2.216 0-4.019 1.78-4.019 3.969 0 3.788 3.12 6.869 6.956 6.869h2.867c3.835 0 6.955-3.081 6.955-6.87 0-2.188-1.803-3.968-4.02-3.968H9.232zm17.26 3.969C26.489 14.925 21.35 20 15.034 20h-2.867C5.85 20 .71 14.925.71 8.687.71 4.048 4.532.273 9.23.273h8.739c4.698 0 8.519 3.775 8.519 8.414z" mask="url(#f)"/></g><path fill="#ECEFF1" d="M74.038 37.028c-3.214 11.098-24.782 18.854-36.59 18.38-1.889 1.58-3.757 6.152-4.448 7.549 9.83.311 43.803-.428 52-24.751-1.29-.3-8.162-1.395-10.962-1.178"/><path fill="#CFD8DC" d="M33.123 62.8c7.476-15.028 22.988-25.384 40.886-25.384 3.53 0 6.964.414 10.265 1.175-8.063 23.79-41.483 24.513-51.151 24.209M74.009 33C47.192 33 25.235 54.187 24 80.694c.533-.353 1.2-.57 2.007-.57 1.021 0 1.82.342 2.403.876a45.336 45.336 0 0 1 2.828-13.857 82.57 82.57 0 0 0 4.922.138c4.801 0 11.934-.362 19.499-2.013 17.258-3.764 28.588-12.558 32.87-25.474 17.271 5.813 29.955 21.685 31.04 40.622.19-.03.384-.06.583-.059.733.005 1.48.042 2.219.134.18-.026.362-.051.542-.08a6.987 6.987 0 0 1 1.087-.094C122.575 53.985 100.7 33 74.01 33"/><path fill="#ECEFF1" d="M147.436 24c.038.359.058.67.058.916 0 2.616-2.24 4.737-5.006 4.737A5.14 5.14 0 0 1 139 28.31c.304 2.084 2.19 3.69 4.476 3.69 2.498 0 4.524-1.916 4.524-4.28 0-.75-.205-2.154-.564-3.72"/><path fill="#CFD8DC" d="M143.5 14.583c-1.636 1.795-3.948 9.868-3.948 13.252 0 2.091 1.771 3.793 3.948 3.793s3.948-1.702 3.948-3.793c0-3.384-2.312-11.457-3.948-13.252m0 21.417c-4.687 0-8.5-3.663-8.5-8.165 0-1.832.72-5.965 1.925-9.708C138.709 12.583 140.798 10 143.5 10s4.79 2.583 6.575 8.127C151.28 21.87 152 26.003 152 27.835c0 4.502-3.813 8.165-8.5 8.165"/></g></svg>