<svg width="400" height="400" fill="none" xmlns="http://www.w3.org/2000/svg"><path d="M200 400c110.457 0 200-89.543 200-200S310.457 0 200 0 0 89.543 0 200s89.543 200 200 200z" fill="#fff"/><path d="M52 90c0-11.046 8.954-20 20-20h96c11.046 0 20 8.954 20 20v104c0 11.046-8.954 20-20 20H72c-11.046 0-20-8.954-20-20V90z" fill="#C1F5E6" fill-opacity=".2"/><path fill-rule="evenodd" clip-rule="evenodd" d="M49.6 90c0-12.371 10.028-22.4 22.4-22.4h96c12.371 0 22.4 10.029 22.4 22.4v104c0 12.371-10.029 22.4-22.4 22.4H72c-12.372 0-22.4-10.029-22.4-22.4V90zM72 72.4c-9.72 0-17.6 7.88-17.6 17.6v104c0 9.72 7.88 17.6 17.6 17.6h96c9.72 0 17.6-7.88 17.6-17.6V90c0-9.72-7.88-17.6-17.6-17.6H72zM65.6 230a2.4 2.4 0 012.4-2.4h56a2.4 2.4 0 010 4.8H68a2.4 2.4 0 01-2.4-2.4zm0 12a2.4 2.4 0 012.4-2.4h106a2.4 2.4 0 010 4.8H68a2.4 2.4 0 01-2.4-2.4z" fill="#13C1AC"/><path fill-rule="evenodd" clip-rule="evenodd" d="M209.6 90c0-12.371 10.028-22.4 22.4-22.4h96c12.371 0 22.4 10.029 22.4 22.4v80c0 12.371-10.029 22.4-22.4 22.4h-96c-12.372 0-22.4-10.029-22.4-22.4V90zM232 72.4c-9.721 0-17.6 7.88-17.6 17.6v80c0 9.72 7.879 17.6 17.6 17.6h96c9.72 0 17.6-7.88 17.6-17.6V90c0-9.72-7.88-17.6-17.6-17.6h-96zM225.6 206a2.4 2.4 0 012.4-2.4h56a2.4 2.4 0 010 4.8h-56a2.4 2.4 0 01-2.4-2.4zm110.799 11.955a2.4 2.4 0 01-2.354 2.445l-106 2a2.4 2.4 0 01-.091-4.799l106-2a2.4 2.4 0 012.445 2.354zM209.6 260c0-12.371 10.028-22.4 22.4-22.4h96c12.371 0 22.4 10.029 22.4 22.4v90h-4.8v-90c0-9.72-7.88-17.6-17.6-17.6h-96c-9.721 0-17.6 7.88-17.6 17.6v90h-4.8v-90zm-160 22c0-12.371 10.028-22.4 22.4-22.4h96c12.371 0 22.4 10.029 22.4 22.4v68h-4.8v-68c0-9.72-7.88-17.6-17.6-17.6H72c-9.72 0-17.6 7.88-17.6 17.6v68h-4.8v-68z" fill="#90A4AE"/><path d="M36.322 136.472l-19.16 11.815a2.4 2.4 0 11-2.52-4.086l27.16-16.747c1.615-.996 3.693.189 3.66 2.087l-.577 31.902a2.4 2.4 0 11-4.799-.087l.406-22.511-9.04 15.847c-18.56 39.76-15.827 80.517 8.272 122.524a2.4 2.4 0 01-4.163 2.389c-24.855-43.326-27.7-85.725-8.37-127.117l9.131-16.016z" fill="#13C1AC"/><path fill-rule="evenodd" clip-rule="evenodd" d="M21.216 92.707l3.012 1.039a9.735 9.735 0 016.025 6.026l1.04 3.012a1.806 1.806 0 003.413 0l1.039-3.013a9.737 9.737 0 016.025-6.025l3.013-1.039a1.805 1.805 0 000-3.413l-3.013-1.04a9.732 9.732 0 01-6.025-6.024l-1.04-3.013A1.807 1.807 0 0033 78c-.77 0-1.455.49-1.706 1.217l-1.04 3.013a9.73 9.73 0 01-6.024 6.024l-3.013 1.04a1.805 1.805 0 000 3.413zm154.093 137.132l3.245 1.119a10.484 10.484 0 016.488 6.489l1.12 3.245a1.946 1.946 0 003.676 0l1.119-3.245a10.483 10.483 0 016.489-6.489l3.245-1.119a1.946 1.946 0 000-3.675l-3.245-1.121a10.476 10.476 0 01-6.489-6.487l-1.119-3.245a1.948 1.948 0 00-1.839-1.311c-.828 0-1.566.528-1.837 1.311l-1.12 3.245a10.476 10.476 0 01-6.488 6.487l-3.245 1.121a1.944 1.944 0 000 3.675zM152.842 58.182l2.086.72a6.739 6.739 0 014.17 4.171l.721 2.086a1.25 1.25 0 002.362 0l.72-2.086a6.74 6.74 0 014.171-4.171l2.086-.72a1.25 1.25 0 000-2.363l-2.086-.72a6.737 6.737 0 01-4.171-4.17l-.72-2.086a1.25 1.25 0 00-2.362 0l-.721 2.086a6.735 6.735 0 01-4.17 4.17l-2.086.72a1.248 1.248 0 000 2.363z" fill="#FFC900"/></svg>