<svg xmlns="http://www.w3.org/2000/svg" width="141" height="128" viewBox="0 0 141 128">
    <g fill="none" fill-rule="nonzero">
        <path fill="#D6D6D6" d="M87.422 126.173c0 .546-.456.99-1.02.99-.562 0-1.018-.444-1.018-.99v-10.885c0-6.012 5.018-10.885 11.21-10.885h32.61c6.19 0 11.209 4.873 11.209 10.885v10.885c0 .547-.457.99-1.02.99-.562 0-1.018-.443-1.018-.99v-10.885c0-4.919-4.107-8.906-9.172-8.906h-32.61c-5.065 0-9.171 3.987-9.171 8.906v10.885zm-65.22 0c0 .546-.456.99-1.019.99-.562 0-1.019-.444-1.019-.99v-5.937c0-6.012 5.019-10.885 11.21-10.885h32.61c6.19 0 11.21 4.873 11.21 10.885v5.937c0 .547-.457.99-1.02.99s-1.019-.443-1.019-.99v-5.937c0-4.919-4.106-8.906-9.171-8.906h-32.61c-5.065 0-9.172 3.987-9.172 8.906v5.937zm73.31-99h33.667c6.191 0 11.21 4.873 11.21 10.884v32.02c0 6.011-5.019 10.885-11.21 10.885H95.513c-6.191 0-11.21-4.874-11.21-10.886V38.057c0-6.011 5.019-10.885 11.21-10.885zm0 1.978c-5.065 0-9.17 3.988-9.17 8.906v32.02c0 4.918 4.105 8.905 9.17 8.905h33.667c5.065 0 9.172-3.987 9.172-8.906V38.057c0-4.918-4.107-8.906-9.172-8.906H95.513zm-4.3 59.212c-.563 0-1.02-.443-1.02-.99 0-.546.457-.989 1.02-.989h23.6c.563 0 1.019.443 1.019.99 0 .546-.456.99-1.02.99h-23.6zm.04 6.729c-.562 0-1.018-.443-1.018-.99 0-.546.456-.99 1.019-.99h44.652c.563 0 1.02.444 1.02.99 0 .547-.457.99-1.02.99H91.253zm-3.046-84.425c-.563 0-1.02-.443-1.02-.99 0-.546.457-.989 1.02-.989h21.068c.563 0 1.02.443 1.02.99 0 .546-.457.99-1.02.99H88.206zm.036 6.729c-.562 0-1.019-.443-1.019-.99 0-.546.457-.99 1.02-.99h45.98c.563 0 1.02.444 1.02.99 0 .547-.457.99-1.02.99h-45.98z"/>
        <path fill="#13C1AC" d="M24.43 87.056a.986.986 0 0 1-.982-.99c0-.546.44-.989.983-.989h20.286c.543 0 .983.443.983.99 0 .546-.44.99-.983.99H24.431zm.036 6.9a.986.986 0 0 1-.983-.99c0-.546.44-.989.983-.989H68.74c.543 0 .983.443.983.99 0 .546-.44.99-.983.99H24.466zm0 6.355a.986.986 0 0 1-.983-.99c0-.546.44-.99.983-.99H68.74c.543 0 .983.444.983.99 0 .547-.44.99-.983.99H24.466zM31.107.586h32.484c5.973 0 10.816 4.873 10.816 10.885v55.768c0 6.012-4.843 10.885-10.816 10.885H31.107c-5.973 0-10.816-4.873-10.816-10.885V11.471c0-6.012 4.843-10.885 10.816-10.885zm0 1.979c-4.887 0-8.85 3.987-8.85 8.906v55.768c0 4.919 3.963 8.906 8.85 8.906h32.484c4.887 0 8.85-3.987 8.85-8.906V11.471c0-4.919-3.963-8.906-8.85-8.906H31.107z"/>
        <path fill="#333" d="M10.098 57.395l-5.09 2.712a.98.98 0 0 1-1.33-.412.993.993 0 0 1 .41-1.337l8.357-4.453a.983.983 0 0 1 1.444.874v9.401c0 .547-.44.99-.984.99a.986.986 0 0 1-.983-.99v-5.97C-.916 77.356-.168 95.163 14.142 111.9a.994.994 0 0 1-.104 1.395.979.979 0 0 1-1.386-.105C-2.178 95.845-3.021 77.16 10.098 57.395z"/>
    </g>
</svg>
