<svg xmlns="http://www.w3.org/2000/svg" xmlns:xlink="http://www.w3.org/1999/xlink" width="200" height="200" viewBox="0 0 200 200">
    <defs>
        <path id="a" d="M0 0h148v140H0z"/>
    </defs>
    <g fill="none" fill-rule="evenodd">
        <circle cx="100" cy="100" r="100" fill="#FFF" fill-rule="nonzero"/>
        <g transform="translate(26 35)">
            <mask id="b" fill="#fff">
                <use xlink:href="#a"/>
            </mask>
            <g fill-rule="nonzero" stroke-width="2.4" mask="url(#b)">
                <path fill="#C1F5E6" fill-opacity=".2" stroke="#13C1AC" d="M10 1.2A8.8 8.8 0 0 0 1.2 10v52a8.8 8.8 0 0 0 8.8 8.8h48a8.8 8.8 0 0 0 8.8-8.8V10A8.8 8.8 0 0 0 58 1.2H10z"/>
                <path stroke="#13C1AC" stroke-linecap="round" d="M8 80h28M8 86h53"/>
                <path stroke="#90A4AE" d="M90 1.2a8.8 8.8 0 0 0-8.8 8.8v40a8.8 8.8 0 0 0 8.8 8.8h48a8.8 8.8 0 0 0 8.8-8.8V10a8.8 8.8 0 0 0-8.8-8.8H90z"/>
                <path stroke="#90A4AE" stroke-linecap="round" d="M88 68h28M88 75l53-1"/>
                <path stroke="#90A4AE" d="M90 86.2a8.8 8.8 0 0 0-8.8 8.8v58a8.8 8.8 0 0 0 8.8 8.8h48a8.8 8.8 0 0 0 8.8-8.8V95a8.8 8.8 0 0 0-8.8-8.8H90zM10 97.2a8.8 8.8 0 0 0-8.8 8.8v48a8.8 8.8 0 0 0 8.8 8.8h48a8.8 8.8 0 0 0 8.8-8.8v-48a8.8 8.8 0 0 0-8.8-8.8H10z"/>
            </g>
        </g>
        <path fill="#13C1AC" fill-rule="nonzero" d="M21.967 134.593l8.277-7.627a1.2 1.2 0 1 1 1.626 1.765l-11.732 10.81a1.2 1.2 0 0 1-1.995-.674l-2.761-15.713a1.2 1.2 0 1 1 2.364-.415l1.948 11.087 2.925-8.64c5.316-21.286.086-41.029-15.75-59.348a1.2 1.2 0 1 1 1.816-1.57c16.333 18.894 21.774 39.433 16.235 61.593l-2.953 8.732z"/>
        <path fill="#FFC900" d="M10.608 46.354l1.506.519a4.867 4.867 0 0 1 3.012 3.013l.52 1.506a.903.903 0 0 0 1.707 0l.52-1.506a4.869 4.869 0 0 1 3.012-3.013l1.506-.52a.904.904 0 0 0 0-1.706l-1.506-.52a4.866 4.866 0 0 1-3.013-3.012l-.52-1.506a.904.904 0 0 0-1.706 0l-.52 1.506a4.865 4.865 0 0 1-3.012 3.012l-1.506.52a.902.902 0 0 0 0 1.707M87.655 114.92l1.622.56a5.242 5.242 0 0 1 3.244 3.244l.56 1.622a.972.972 0 0 0 1.838 0l.56-1.622a5.243 5.243 0 0 1 3.244-3.245l1.622-.56a.973.973 0 0 0 0-1.837l-1.622-.56a5.24 5.24 0 0 1-3.245-3.244l-.56-1.623a.973.973 0 0 0-1.837 0l-.56 1.623a5.24 5.24 0 0 1-3.244 3.244l-1.622.56a.971.971 0 0 0 0 1.838M76.42 29.091l1.044.36a3.37 3.37 0 0 1 2.085 2.086l.36 1.043a.625.625 0 0 0 1.182 0l.36-1.043a3.37 3.37 0 0 1 2.085-2.086l1.043-.36a.626.626 0 0 0 0-1.181l-1.043-.36a3.369 3.369 0 0 1-2.086-2.086l-.36-1.043a.626.626 0 0 0-1.18 0l-.36 1.043a3.368 3.368 0 0 1-2.086 2.086l-1.043.36a.624.624 0 0 0 0 1.181"/>
    </g>
</svg>
