<svg width="200" height="206" viewBox="0 0 200 206" xmlns="http://www.w3.org/2000/svg"><g id="All" stroke="none" stroke-width="1" fill="none" fill-rule="evenodd"><g id="Icon"><circle id="Oval" fill="#FFF" fill-rule="nonzero" cx="100" cy="105" r="100"/><g id="items" transform="translate(29 18)" fill-rule="nonzero" stroke="#CFD8DC" stroke-width="3"><path d="M92 1.5c-5.799 0-10.5 4.701-10.5 10.5v62c0 5.799 4.701 10.5 10.5 10.5h38c5.799 0 10.5-4.701 10.5-10.5V12c0-5.799-4.701-10.5-10.5-10.5H92z" id="Rectangle-2"/><path d="M90 64h28M82 54h58M82 136h58M2 156h58" id="Line-4" stroke-linecap="round"/><path d="M90 74h38" id="Line-4-Copy" stroke-linecap="round"/><path d="M90 146h28" id="Line-4" stroke-linecap="round"/><path d="M90 156h38" id="Line-4-Copy" stroke-linecap="round"/><path d="M10 166h28" id="Line-4" stroke-linecap="round"/><path d="M10 176h38" id="Line-4-Copy" stroke-linecap="round"/><path d="M92 95.5c-5.799 0-10.5 4.701-10.5 10.5v50c0 5.799 4.701 10.5 10.5 10.5h38c5.799 0 10.5-4.701 10.5-10.5v-50c0-5.799-4.701-10.5-10.5-10.5H92z" id="Rectangle-2"/><path d="M12 98.5c-5.799 0-10.5 4.701-10.5 10.5v67c0 5.799 4.701 10.5 10.5 10.5h38c5.799 0 10.5-4.701 10.5-10.5v-67c0-5.799-4.701-10.5-10.5-10.5H12z" id="Rectangle-2-Copy"/></g><path d="M16.425 61.698l-9.593 5.918a1.201 1.201 0 11-1.26-2.046l13.596-8.39A1.202 1.202 0 0121 58.227l-.289 15.98a1.202 1.202 0 11-2.402-.043l.203-11.276-4.526 7.938c-9.292 19.916-7.923 40.332 4.142 61.374a1.203 1.203 0 01-2.085 1.197C3.6 111.693 2.176 90.454 11.853 69.72l4.572-8.023z" id="arrow" fill="#13C1AC" fill-rule="nonzero"/><path d="M1.608 30.354l1.506.519a4.867 4.867 0 013.012 3.013l.52 1.506a.903.903 0 001.707 0l.52-1.506a4.869 4.869 0 013.012-3.013l1.506-.52a.904.904 0 000-1.706l-1.506-.52a4.866 4.866 0 01-3.013-3.012l-.52-1.506a.904.904 0 00-1.706 0l-.52 1.506a4.865 4.865 0 01-3.012 3.012l-1.506.52a.902.902 0 000 1.707" id="Fill-1" fill="#FFC900"/><path d="M92.655 77.92l1.622.56a5.242 5.242 0 013.244 3.244l.56 1.622a.972.972 0 001.838 0l.56-1.622a5.243 5.243 0 013.244-3.245l1.622-.56a.973.973 0 000-1.837l-1.622-.56a5.24 5.24 0 01-3.245-3.244l-.56-1.623a.973.973 0 00-1.837 0l-.56 1.623a5.24 5.24 0 01-3.244 3.244l-1.622.56a.971.971 0 000 1.838" id="Fill-1-Copy-2" fill="#FFC900"/><path d="M79.42 5.091l1.044.36a3.37 3.37 0 012.085 2.086l.36 1.043a.625.625 0 001.182 0l.36-1.043a3.37 3.37 0 012.085-2.086l1.043-.36a.626.626 0 000-1.181l-1.043-.36a3.369 3.369 0 01-2.086-2.086L84.09.421a.626.626 0 00-1.18 0l-.36 1.043a3.368 3.368 0 01-2.086 2.086l-1.043.36a.624.624 0 000 1.181" id="Fill-1-Copy" fill="#FFC900"/><g id="single-item" transform="translate(18 7)" stroke="#13C1AC" stroke-linejoin="round" stroke-width="3"><path d="M72.5 80c.711 4.373-1.811 10.895-6 12.333-5.792 1.99-34.056 6.602-40 8-5.206 1.225-11.493-4.775-12.084-8.08C13 84.333 11.938 77.378 10.5 67.667c-2.667-18-8.063-39.134-9.952-48.494-.855-4.237 1.881-8.389 5.952-9.84 3.938-1.402 13.521-3.12 22.958-5.152 5.96-1.283 10.121-2.526 13.491-3.348 6.869-1.676 13.228 2.703 15.412 9.427C62.5 23 66.016 40.511 68.5 55c2 11.667 4 25 4 25z" id="Stroke-167" stroke-linecap="round"/><path d="M12 71.334l56.5-12" id="Stroke-185" stroke-linecap="round"/><path d="M20.5 80.834l22-4.5" id="Stroke-187" stroke-linecap="round"/><path d="M23 90.334l40-8.5" id="Stroke-189" stroke-linecap="round"/><path d="M27.248 41.434A7.572 7.572 0 0042 38.007l-14.752 3.427z" id="Stroke-191"/><path d="M44.8 30.715a4.852 4.852 0 015.435-1.262" id="Stroke-193" stroke-linecap="round"/><path d="M15.41 37.543a4.85 4.85 0 015.432-1.262" id="Stroke-195" stroke-linecap="round"/></g></g></g></svg>