<svg xmlns="http://www.w3.org/2000/svg" width="174" height="133" viewBox="0 0 174 133"><g fill="none" fill-rule="evenodd"><g stroke-width="3"><path stroke="#F3F5F6" stroke-linecap="round" stroke-linejoin="round" d="M45.163 73.488c3 14.399 10.279 26.81 20.23 36.183m62.994-67.305a69.543 69.543 0 00-13.648-14.794M35.235 68.47A69.141 69.141 0 0038.385 88"/><path stroke="#CFD8DC" stroke-linecap="round" stroke-linejoin="round" d="M114.79 74.857s15.048-2.812 24.201-7.456M68.978 94.743s-9.536 9.085-17.383 13.135"/><path stroke="#607D8B" stroke-linecap="round" stroke-linejoin="round" d="M61.218 40.79c-1.888-.773-5.438-1.51-9.184 1.438m34.802-5.475c-1.872-.811-5.406-1.621-9.211 1.249"/><path stroke="#90A4AE" stroke-linecap="round" stroke-linejoin="round" d="M109.008 67.487s23.82-14.745 29.907-21.59M66.746 86.999s-22.276 9.2-30.117 10.003"/><path stroke="#607D8B" stroke-linecap="round" stroke-linejoin="round" d="M73.602 45.608c-1.807 1.312-4.927 1.648-6.971.75m3.744 32.356c-.186 3.52.133 7.97 1.732 12.983 4.355 13.654 20.806 19.343 32.746 11.414.144-.096.29-.193.435-.292 7.377-5.007 9.94-14.737 6.03-22.75-2.37-4.855-5.869-10.2-10.938-14.46"/><path stroke="#607D8B" stroke-linecap="round" stroke-linejoin="round" d="M105.072 95.803l10.182 7.056a14.722 14.722 0 0018.959-2.82M100.69 65.262s18.326-25.189 24.06-42.665M69.38 80.075s-26.8.11-41.88-4.685"/><path stroke="#607D8B" d="M104.083 49.947c.38-16.432-12.633-30.06-29.065-30.439-16.432-.38-30.06 12.632-30.439 29.064-.38 16.432 12.633 30.06 29.065 30.44 16.431.38 30.06-12.633 30.44-29.065z"/><path stroke="#607D8B" stroke-linecap="round" stroke-linejoin="round" d="M85.002 106.523c-2.894 5.919-.617 13.068 5.167 16.224l2.593 1.415"/></g><path fill="#13C1AC" d="M41.104 117.516l-1.472-.508a4.748 4.748 0 01-2.942-2.942l-.508-1.472a.88.88 0 00-1.666 0l-.51 1.472a4.748 4.748 0 01-2.942 2.942l-1.471.508a.882.882 0 000 1.667l1.47.508a4.75 4.75 0 012.944 2.943l.509 1.471a.881.881 0 001.666 0l.508-1.471a4.75 4.75 0 012.942-2.943l1.472-.508a.882.882 0 000-1.667"/><path fill="#FFC900" d="M110.473 9.494l-.666-.23a2.15 2.15 0 01-1.33-1.33l-.23-.666a.397.397 0 10-.753 0l-.23.666a2.146 2.146 0 01-1.331 1.33l-.665.23a.397.397 0 000 .753l.665.23a2.148 2.148 0 011.331 1.331l.23.665a.398.398 0 00.753 0l.23-.665a2.151 2.151 0 011.33-1.331l.666-.23a.398.398 0 000-.753m62.961 60.814l-.812-.28a2.626 2.626 0 01-1.624-1.624l-.279-.811a.487.487 0 00-.92 0l-.28.81a2.624 2.624 0 01-1.624 1.625l-.812.28a.487.487 0 000 .919l.812.28a2.622 2.622 0 011.624 1.624l.28.812a.487.487 0 00.92 0l.28-.812a2.625 2.625 0 011.623-1.623l.812-.281a.486.486 0 000-.92"/><path fill="#CFD8DC" d="M158.228 47.922l-.808-.28a2.612 2.612 0 01-1.616-1.617l-.28-.807a.485.485 0 00-.915 0l-.279.807a2.613 2.613 0 01-1.616 1.617l-.809.28a.484.484 0 000 .916l.81.277a2.615 2.615 0 011.615 1.617l.28.809a.484.484 0 00.914 0l.28-.808a2.614 2.614 0 011.617-1.617l.808-.279a.486.486 0 000-.916m-3.547 71.761a5.069 5.069 0 00-3.233-.056 1.036 1.036 0 01-1.052-.46v.002a5.089 5.089 0 00-2.47-1.875 5.107 5.107 0 00-6.515 3.112c-1.906 5.39 3.352 10.824 4.612 12.025a.936.936 0 00.647.22l.15-.014.03-.003c2.053-.194 9.104-1.234 10.943-6.436a5.105 5.105 0 00-3.112-6.515"/><path fill="#13C1AC" d="M155.587 78.363c-.618 0-1.188.206-1.647.553a.561.561 0 01-.615-.044 2.734 2.734 0 00-1.586-.505 2.744 2.744 0 00-2.74 2.746c.005 3.07 3.642 4.877 4.496 5.258a.494.494 0 00.367-.005l.074-.034a.091.091 0 00.014-.007c1.005-.466 4.387-2.26 4.383-5.224a2.742 2.742 0 00-2.746-2.738"/><path fill="#ECEFF1" d="M142.611.1a4.847 4.847 0 00-2.676 1.546 1 1 0 01-1.087.142h.001a4.856 4.856 0 00-2.946-.318 4.88 4.88 0 00-3.804 5.756c1.093 5.353 8.074 7.215 9.698 7.578a.924.924 0 00.327-.007.756.756 0 00.311-.133 3.653 3.653 0 00.14-.102c1.585-1.17 6.848-5.492 5.792-10.66A4.88 4.88 0 00142.611.1"/><path fill="#13C1AC" d="M9.353 52.056l-1.137-.393a3.671 3.671 0 01-2.274-2.273l-.392-1.137a.682.682 0 00-1.288 0l-.393 1.137a3.669 3.669 0 01-2.274 2.273l-1.137.393a.682.682 0 000 1.288l1.137.392a3.672 3.672 0 012.274 2.275l.393 1.136a.68.68 0 001.288 0l.392-1.136a3.674 3.674 0 012.274-2.275l1.137-.392a.68.68 0 100-1.288"/><path fill="#CFD8DC" d="M19.861 21.494l-.666-.229a2.151 2.151 0 01-1.33-1.331l-.23-.666a.399.399 0 00-.753 0l-.23.666a2.15 2.15 0 01-1.33 1.331l-.666.229a.4.4 0 000 .754l.665.229a2.148 2.148 0 011.331 1.331l.23.665a.398.398 0 00.753 0l.23-.665a2.149 2.149 0 011.33-1.331l.666-.229a.4.4 0 000-.754"/><path fill="#FFC900" d="M32.616 48.738l-.812-.281a2.622 2.622 0 01-1.624-1.623l-.28-.811a.485.485 0 00-.919 0l-.28.81a2.622 2.622 0 01-1.624 1.624l-.812.28a.487.487 0 000 .92l.812.28c.762.263 1.36.862 1.624 1.624l.28.812a.486.486 0 00.92 0l.28-.812a2.622 2.622 0 011.623-1.623l.812-.281a.486.486 0 000-.92"/></g></svg>