<svg width="149" height="150" fill="none" xmlns="http://www.w3.org/2000/svg"><mask id="a" maskUnits="userSpaceOnUse" x="0" y="0" width="149" height="150"><path fill="#fff" d="M0 0h149v150H0z"/></mask><g mask="url(#a)" stroke-width="2"><path d="M1 10a9 9 0 019-9h48a9 9 0 019 9v56a9 9 0 01-9 9H10a9 9 0 01-9-9V10z" stroke="#FD6C67"/><path d="M8 84h28M8 90h53" stroke="#FD6C67" stroke-linecap="round"/><path d="M82 10a9 9 0 019-9h48a9 9 0 019 9v50a9 9 0 01-9 9H91a9 9 0 01-9-9V10z" stroke="#CFD8DC"/><path d="M89 78h28M89 85l53-1" stroke="#CFD8DC" stroke-linecap="round"/><path d="M82 105a9 9 0 019-9h48a9 9 0 019 9v58a9 9 0 01-9 9H91a9 9 0 01-9-9v-58zM1 110a9 9 0 019-9h48a9 9 0 019 9v48a9 9 0 01-9 9H10a9 9 0 01-9-9v-48z" stroke="#CFD8DC"/></g></svg>