<svg xmlns="http://www.w3.org/2000/svg" width="366" height="171" viewBox="0 0 366 171"><g fill="none" fill-rule="evenodd"><g fill-rule="nonzero"><path fill="#070308" d="M241.496 161.661H125.17c-1 0-1.667.667-1.667 1.667s.667 1.666 1.667 1.666h116.325c1 0 1.666-.666 1.666-1.666 0-1-.833-1.667-1.666-1.667zM216.33 123.83c0 14.5-11.832 26.332-26.33 26.332h-13.333c-14.499 0-26.331-11.833-26.331-26.331 0-11.833 3-22.999 8.332-31.665 7.167 4.5 15.5 7 24.499 7 8.999 0 17.332-2.5 24.498-7 5.666 8.833 8.666 19.999 8.666 31.665z" opacity=".1"/><path fill="#070308" d="M183.333 99.166c-8.999 0-17.332-2.5-24.498-7-.666 1.167-1.333 2.333-2 3.667 4.833 5.666 12 9.166 19.999 9.166h13.332c8 0 15.166-3.5 19.999-9.166-.667-1.334-1.334-2.5-2-3.667-7.5 4.5-15.832 7-24.832 7z" opacity=".05"/><path fill="#FFF" d="M136.837 53.669s53.662-2 67.495-38.664c0 0-17.832-17.499-46.83 0 .167 0-19.665 14.832-20.665 38.664z" opacity=".1"/><g fill="#FFF"><path d="M187.333 77.834c.167.167.5.167.667.167.666 0 1.333-.334 1.5-1 .333-.834 0-1.834-.834-2.334-3-1.333-6.333-1.333-9.166 0-.833.334-1.166 1.5-.833 2.334.333.833 1.5 1.166 2.333.833 2-.833 4.333-.833 6.333 0zm-18.332-7.5h-7c-1 0-1.666.834-1.666 1.667 0 1 .833 1.667 1.667 1.667h7c.999 0 1.666-.834 1.666-1.667 0-.833-.834-1.667-1.667-1.667zm27.998 3.5h7c1 0 1.666-.833 1.666-1.666 0-1-.833-1.667-1.667-1.667H197c-1 0-1.667.833-1.667 1.667-.166.833.667 1.666 1.667 1.666z"/><path d="M210.665 90.5C222.33 82 229.83 68.335 229.83 52.836c0-25.665-20.999-46.663-46.663-46.663-25.665 0-46.664 20.998-46.664 46.663 0 15.165 7.333 28.831 18.666 37.33-19.332 10.5-19.166 16.832-18.666 18.666.667 2.166 2.834 4.5 11 5.166-.5 3.333-.667 6.833-.667 10.166 0 10.666 5.666 19.998 14.166 25.331v11.666c0 1 .666 1.667 1.666 1.667 1 0 1.667-.667 1.667-1.667v-10c3.666 1.667 7.832 2.667 12.166 2.667h13.332c4.666 0 9.166-1.166 12.999-3v10.833c0 1 .667 1.667 1.666 1.667 1 0 1.667-.667 1.667-1.667V149.33c0-.167 0-.334-.167-.5 8-5.333 13.333-14.5 13.333-24.832 0-8.5-1.5-16.665-4.167-23.998 12.166 16.165 6.833 30.831 6.5 31.498-.333.833.167 1.833 1 2.166.166 0 .333.167.666.167.667 0 1.334-.333 1.5-1 .167-.167 2.167-6 1.334-14.166-.667-7.166-4.167-17.832-15.5-28.164zm-70.828-37.664c0-23.832 19.498-43.33 43.33-43.33 23.831 0 43.33 19.498 43.33 43.33 0 23.831-19.499 43.33-43.33 43.33-23.999 0-43.33-19.499-43.33-43.33zm-.167 54.996c-.667-2.5 5.833-8 13.666-12.833-2.334 4.833-4.167 10.166-5.333 15.666-6.833-.5-8.166-2.167-8.333-2.833zm76.494 16.332c0 14.499-11.832 26.331-26.331 26.331H176.5c-14.5 0-26.332-11.832-26.332-26.331 0-3.333.333-6.833.833-10h3c4.833 0 11-.333 18.999-1.166.833-.167 1.5-.833 1.5-1.833-.167-.833-.834-1.5-1.834-1.5-9.499 1-16.332 1.333-20.998 1.167 1.333-6.833 3.833-13 7.166-18.332 7.166 4.5 15.499 6.999 24.498 6.999 9 0 17.332-2.5 24.499-7 5.332 8.667 8.332 19.832 8.332 31.665z"/></g></g><g fill-rule="nonzero" opacity=".547"><path fill="#070308" d="M89.808 149.312H5.44c-.725 0-1.208-.483-1.208-1.208 0-.726.483-1.21 1.208-1.21h84.37c.724 0 1.208.484 1.208 1.21 0 .725-.604 1.208-1.209 1.208z" opacity=".11"/><g fill="#FFF"><circle cx="2.78" cy="3.143" r="2.297" transform="translate(31.427 69.053)"/><circle cx="2.417" cy="3.143" r="2.297" transform="translate(58.019 69.053)"/></g><path fill="#FFF" d="M49.8 78.965c-.242 0-.484-.121-.726-.242a2.72 2.72 0 00-3.263 0c-.605.362-1.33.242-1.693-.363-.362-.604-.241-1.33.363-1.692a5.29 5.29 0 015.923 0c.604.363.725 1.088.362 1.692-.241.363-.604.605-.967.605z"/><path fill="#FFF" d="M94.401 90.327c-.604-.363-1.33-.121-1.692.362 0 .121-4.593 7.494-12.087 8.703-4.23.725-8.703-.725-13.175-4.23 8.34-6.165 13.78-16.077 13.78-27.318C81.226 49.23 65.996 34 47.381 34c-18.614 0-33.844 15.23-33.844 33.844 0 11.241 5.56 21.153 13.9 27.317-4.472 3.385-8.824 4.835-13.054 4.231C7.01 98.304 2.417 90.81 2.417 90.81c-.362-.604-1.087-.725-1.692-.363-.483.242-.725.967-.362 1.572.241.362 5.197 8.46 13.78 9.79.845.121 1.691.242 2.537.242 2.901 0 5.802-.846 8.703-2.417-2.78 5.923-4.23 12.812-4.23 20.065 0 7.735 4.11 14.504 10.274 18.372v8.461c0 .726.483 1.209 1.209 1.209.725 0 1.208-.483 1.208-1.209v-7.252c2.66 1.209 5.681 1.934 8.824 1.934h9.67c3.384 0 6.648-.846 9.428-2.176v7.857c0 .725.483 1.209 1.209 1.209.725 0 1.208-.484 1.208-1.21v-8.944c0-.12 0-.241-.12-.362 5.801-3.868 9.67-10.516 9.67-18.01 0-7.253-1.572-14.263-4.352-20.307 3.022 1.692 6.043 2.66 9.065 2.66.846 0 1.692-.122 2.539-.242 8.582-1.45 13.537-9.428 13.779-9.791.484-.484.242-1.209-.363-1.571zM16.076 67.965c0-17.285 14.142-31.427 31.427-31.427S78.93 50.68 78.93 67.965 64.788 99.392 47.503 99.392c-6.406 0-12.33-1.934-17.285-5.198l-.12-.12c-8.462-5.56-14.022-15.23-14.022-26.109zm55.36 51.734c0 10.515-8.582 19.097-19.098 19.097h-9.67c-10.516 0-19.098-8.582-19.098-19.097 0-8.582 2.176-16.68 6.044-22.966 5.197 3.263 11.24 5.076 17.768 5.076 6.527 0 12.57-1.813 17.768-5.076 4.11 6.285 6.286 14.505 6.286 22.966z"/><path fill="#070308" d="M71.436 119.699c0 10.515-8.582 19.097-19.098 19.097h-9.67c-10.516 0-19.098-8.582-19.098-19.097 0-8.582 2.176-16.68 6.044-22.966 5.197 3.263 11.24 5.076 17.768 5.076 6.527 0 12.57-1.813 17.768-5.076 4.11 6.285 6.286 14.505 6.286 22.966z" opacity=".1"/><path fill="#FFF" d="M58.381 86.096c0 1.088.967 2.055 2.055 2.055s2.055-.967 2.055-2.055-.846-6.648-2.055-6.648c-1.208 0-2.055 5.44-2.055 6.648z" opacity=".2"/><path fill="#FFF" d="M14.867 65.064s39.042-1.33 49.195-24.537c0 0-13.054-11.12-34.086 0 0 0-14.383 9.307-15.109 24.537z" opacity=".1"/><path fill="#070308" d="M47.503 101.81c-6.527 0-12.57-1.814-17.768-5.077a51.968 51.968 0 00-1.45 2.659c3.504 4.11 8.702 6.648 14.504 6.648h9.67c5.802 0 11-2.538 14.504-6.648-.483-.967-.967-1.813-1.45-2.66-5.44 3.144-11.483 5.077-18.01 5.077z" opacity=".05"/></g><g opacity=".55"><path d="M304.002 77.253l3.172 2.953c1.093.985 1.53 2.516.984 3.937l-.328.985-7.218-6.562.219-.547c.437-1.312 2.077-1.75 3.171-.766z"/><ellipse cx="39.589" cy="2.625" fill="#070308" fill-rule="nonzero" opacity=".1" rx="39.589" ry="1.75" transform="translate(278.302 141.996)"/><g fill="#FFF" fill-rule="nonzero"><path d="M333.858 119.577c.219 0 .547-.11.765-.328 0 0 1.422-1.313 2.953-.329.547.329 1.203.22 1.531-.328.328-.546.219-1.203-.328-1.53-2.296-1.422-4.593-.22-5.468.546a1.171 1.171 0 00-.11 1.531c0 .219.329.438.657.438zm-11.155-2.953c0 .547.547 1.094 1.094 1.094l4.593-.22c.656 0 1.093-.546 1.093-1.093 0-.656-.546-1.093-1.093-1.093l-4.593.218c-.657 0-1.094.438-1.094 1.094zm20.888.219l4.703-.22c.656 0 1.093-.546 1.093-1.093 0-.656-.546-1.093-1.093-1.093l-4.812.218c-.656 0-1.094.547-1.094 1.094.11.656.547 1.094 1.203 1.094z"/><path d="M365.026 85.128l-15.092-13.78-.219-.219-15.2-13.998c-.22-.219-.548-.328-.876-.328l-41.557 3.28c-.438 0-.766.329-.985.766v.219c0 .11-.11.11-.11.219l-13.779 39.807v.875c0 .11.11.11.219.22 0 0 0 .108.11.108l15.31 13.999-.547 14.764c0 .656.438 1.093 1.094 1.093.547 0 1.094-.437 1.094-1.093l.437-12.905 7.765 7.108c.437 1.313 3.609 10.718 0 16.952-.328.546-.11 1.203.437 1.53.219.11.328.11.547.11.328 0 .765-.219.984-.547 2.844-4.921 2.078-11.264 1.203-15.201l2.406 2.187h.11c.109.11.218.11.328.219.109 0 .218.11.328.11h.11l18.59-1.422c.11.218 2.953 7.983.11 13.014-.328.546-.11 1.203.437 1.53.22.11.329.11.547.11.328 0 .766-.219.985-.547 2.952-5.14.984-12.139.328-14.217l11.155-.875-.11 3.39c0 .657.438 1.094 1.094 1.094.547 0 1.093-.437 1.093-1.093l.11-3.61 7.327-.546c.328 0 .656-.219.766-.438 0 0 0-.11.109-.11 0-.108.11-.108.11-.218l13.888-40.354v-.329c-.109-.218-.328-.656-.656-.874zm-3.171.109l-38.496 2.953-13.123-12.03 38.495-3.062 13.124 12.139zM333.42 58.99l13.124 12.03-38.496 2.953-13.123-12.03 38.495-2.953zm-24.934 68.68l-13.452-12.358.438-11.702c0-.656-.438-1.094-1.094-1.094-.547 0-1.093.438-1.093 1.094l-.329 9.842-13.451-12.248 13.123-38.058L321.61 89.61l-13.123 38.058zm41.23-2.297l-39.152 2.953 13.123-38.058 39.261-2.953-13.233 38.058z"/><path d="M304.22 78.238c-.765-.766-2.077-.438-2.405.656l-.11.437 5.25 4.812.328-.875c.328-.984.11-2.187-.766-2.843l-2.296-2.187z"/></g><path fill="#FFF" fill-rule="nonzero" d="M324.672 127.341l-4.703.328 3.5-10.06 4.702-.11zm20.122-1.531l-4.702.438 3.28-9.405 4.703-.22z" opacity=".2"/><ellipse cx="3.281" cy=".984" fill="#FFF" fill-rule="nonzero" opacity=".2" rx="2.734" ry="1" transform="translate(311.11 155.12)"/><ellipse cx="3.937" cy="1.64" fill="#FFF" fill-rule="nonzero" opacity=".2" rx="3.828" ry="1" transform="translate(324.234 149.651)"/><ellipse cx="3.828" cy=".984" fill="#FFF" fill-rule="nonzero" opacity=".2" rx="3.828" ry="1" transform="translate(302.362 149.651)"/><ellipse cx="4.593" cy=".656" fill="#FFF" fill-rule="nonzero" opacity=".2" rx="3.828" ry="1" transform="translate(336.264 151.839)"/><path fill="#070308" fill-rule="nonzero" d="M361.855 85.237l-38.496 2.953-13.233-12.03 38.605-3.062zM333.42 58.99l13.124 12.14-38.605 2.952-13.123-12.03z" opacity=".1"/></g></g></svg>