<svg xmlns="http://www.w3.org/2000/svg" width="159" height="188" viewBox="0 0 159 188">
  <g fill="none" fill-rule="evenodd">
    <g stroke-width="2" transform="translate(10 15)">
      <g fill-rule="nonzero">
        <g stroke="#13C1AC">
          <rect width="66" height="74" x="1" y="1" rx="10"/>
          <path stroke-linecap="round" d="M8.6010101 84.0365854L36.2474747 84.0365854M8.5952862 90.8638211L61.5757576 90.8638211"/>
        </g>
        <g stroke="#CFD8DC" transform="translate(81)">
          <rect width="66" height="58" x="1" y="1" rx="10"/>
          <path stroke-linecap="round" d="M8.6010101 70.0365854L36.2474747 70.0365854M8.6010101 170.25L36.2474747 170.25M8.5952862 76.8638211L61.5757576 76.8638211"/>
        </g>
        <g stroke="#CFD8DC" transform="translate(0 86)">
          <rect width="65.821" height="73" x="82.179" y="1" rx="10"/>
          <rect width="65.821" height="66" x="1" y="20" rx="10"/>
        </g>
      </g>
      <g stroke="#CFD8DC" stroke-linecap="round" transform="translate(18 129)">
        <path d="M10 17.5C10 15.843 8.657 14.5 7 14.5 5.343 14.5 4 15.843 4 17.5 4 19.157 5.343 20.5 7 20.5 8.657 20.5 10 19.157 10 17.5zM28 17.5C28 15.843 26.657 14.5 25 14.5 23.343 14.5 22 15.843 22 17.5 22 19.157 23.343 20.5 25 20.5 26.657 20.5 28 19.157 28 17.5zM22 16L10 16"/>
        <path d="M3.0864 17.5952C1.3814 17.5952.0004 16.2132.0004 14.5082L.0004 10.0002C.0004 8.5532 1.0044 7.3012 2.4174 6.9872L6.0004 6.3052C6.9074 6.1042 7.6754 5.5042 8.0914 4.6732L9.0474 2.7692C9.8994 1.0722 11.6374.0002 13.5364.0002L17.0624.0002C18.1324.0002 19.0004.8672 19.0004 1.9372L19.0004 7.1252C19.0004 8.1952 19.8674 9.0622 20.9374 9.0622L28.0624 9.0622C29.1324 9.0622 30.0004 9.9302 30.0004 11.0002L30.0004 14.0622C30.0004 15.1322 29.1324 16.0002 28.0624 16.0002L28.0004 16.0002M3 7L11 7M28 7L28 8"/>
      </g>
      <g stroke="#13C1AC" stroke-linecap="round" transform="translate(16 29)">
        <path d="M25.6666667 16.25L10.5 16.25M4.66666667 16.25L2.0335 16.25C.91 16.25 0 15.275 0 14.07125L0 9.68875C0 8.75125.56 7.915 1.39066667 7.6175L6.8145 6.24C6.96383333 6.1875 10.5991667 2.36 12.1461667.72625 12.5883333.26 13.1821667 0 13.8028333 0L23.3625 0C24.0823333 0 24.7636667.3475 25.2163333.9475L28.9193333 5.8475C29.0838333 5.9725 29.2635 6.07 29.4548333 6.13875L33.6093333 7.6225C34.44 7.91875 35 8.75125 35 9.68875L35 14.5025C35 15.4675 34.2696667 16.25 33.369 16.25L31.5 16.25"/>
        <path d="M9.91666667 16.875C9.91666667 15.495 8.87133333 14.375 7.58333333 14.375 6.29533333 14.375 5.25 15.495 5.25 16.875 5.25 18.255 6.29533333 19.375 7.58333333 19.375 8.87133333 19.375 9.91666667 18.255 9.91666667 16.875zM30.9166667 16.875C30.9166667 15.495 29.8713333 14.375 28.5833333 14.375 27.2953333 14.375 26.25 15.495 26.25 16.875 26.25 18.255 27.2953333 19.375 28.5833333 19.375 29.8713333 19.375 30.9166667 18.255 30.9166667 16.875zM7 6.25L12.8333333 6.25"/>
      </g>
      <g stroke="#CFD8DC" stroke-linecap="round" transform="translate(99 114)">
        <path d="M25.6666667 16.25L10.5 16.25M4.66666667 16.25L2.0335 16.25C.91 16.25 0 15.275 0 14.07125L0 9.68875C0 8.75125.56 7.915 1.39066667 7.6175L6.8145 6.24C6.96383333 6.1875 10.5991667 2.36 12.1461667.72625 12.5883333.26 13.1821667 0 13.8028333 0L23.3625 0C24.0823333 0 24.7636667.3475 25.2163333.9475L28.9193333 5.8475C29.0838333 5.9725 29.2635 6.07 29.4548333 6.13875L33.6093333 7.6225C34.44 7.91875 35 8.75125 35 9.68875L35 14.5025C35 15.4675 34.2696667 16.25 33.369 16.25L31.5 16.25"/>
        <path d="M9.91666667 16.875C9.91666667 15.495 8.87133333 14.375 7.58333333 14.375 6.29533333 14.375 5.25 15.495 5.25 16.875 5.25 18.255 6.29533333 19.375 7.58333333 19.375 8.87133333 19.375 9.91666667 18.255 9.91666667 16.875zM30.9166667 16.875C30.9166667 15.495 29.8713333 14.375 28.5833333 14.375 27.2953333 14.375 26.25 15.495 26.25 16.875 26.25 18.255 27.2953333 19.375 28.5833333 19.375 29.8713333 19.375 30.9166667 18.255 30.9166667 16.875zM7 6.25L12.8333333 6.25"/>
      </g>
      <g stroke="#CFD8DC" stroke-linecap="round" transform="translate(96 23)">
        <path d="M10.2 14.7857143C10.2 13.3662857 9.1248 12.2142857 7.8 12.2142857 6.4752 12.2142857 5.4 13.3662857 5.4 14.7857143 5.4 16.2051429 6.4752 17.3571429 7.8 17.3571429 9.1248 17.3571429 10.2 16.2051429 10.2 14.7857143zM31.8 14.7857143C31.8 13.3662857 30.7248 12.2142857 29.4 12.2142857 28.0752 12.2142857 27 13.3662857 27 14.7857143 27 16.2051429 28.0752 17.3571429 29.4 17.3571429 30.7248 17.3571429 31.8 16.2051429 31.8 14.7857143z"/>
        <path d="M4.64532 14.1428571L3.02532 14.1428571C1.35492 14.1428571.00012 12.6912857.00012 10.9015714.00012 9.81642857.50532 8.80457143 1.34772 8.20285714 2.75772 7.19614286 4.33932 6.49414286 6.00132 6.138L8.99652 5.49642857C9.19212 5.454 9.39132 5.43342857 9.59052 5.43342857L33.70092 5.43342857C34.97052 5.43342857 36.00012 6.53528571 36.00012 7.89557143L36.00012 10.9015714C36.00012 12.6912857 34.64532 14.1428571 32.97372 14.1428571L32.40012 14.1428571M10.4514 14.1428571L26.7102 14.1428571M24 2.57142857L22.8 5.14285714M15.6 0L9.6 5.14285714M31.2 2.57142857L30 5.14285714"/>
      </g>
    </g>
    <path fill="#FFC900" d="M.607883369 12.3535637L2.11425486 12.8730022C3.52796976 13.3615551 4.63844492 14.4720302 5.1262959 15.8857451L5.64643629 17.3921166C5.77208423 17.7557235 6.11463283 18 6.5 18 6.88466523 18 7.22721382 17.7557235 7.35286177 17.3921166L7.87230022 15.8857451C8.36015119 14.4720302 9.47132829 13.3615551 10.8850432 12.8730022L12.3914147 12.3535637C12.7550216 12.2272138 12.9992981 11.8853672 12.9992981 11.5 12.9992981 11.1153348 12.7550216 10.7727862 12.3914147 10.6471382L10.8850432 10.1269978C9.47132829 9.63914687 8.36015119 8.52867171 7.87230022 7.1149568L7.35286177 5.60858531C7.22721382 5.2449784 6.88466523 5 6.49929806 5 6.11463283 5 5.77208423 5.2449784 5.64643629 5.60858531L5.1262959 7.1149568C4.63844492 8.52867171 3.52796976 9.63914687 2.11425486 10.1269978L.607883369 10.6471382C.243574514 10.7727862 0 11.1153348 0 11.5 0 11.8853672.243574514 12.2272138.607883369 12.3535637M71.654679 98.9196501L73.2770128 99.4790755C74.7995572 100.005238 75.9955181 101.201199 76.5209245 102.723743L77.0811059 104.346077C77.2164264 104.737675 77.5853448 105.000756 78.000378 105.000756 78.4146552 105.000756 78.7835736 104.737675 78.9188941 104.346077L79.4783196 102.723743C80.0037259 101.201199 81.2004428 100.005238 82.7229872 99.4790755L84.345321 98.9196501C84.7369188 98.7835736 85 98.4154112 85 98.000378 85 97.5861008 84.7369188 97.2171824 84.345321 97.0818619L82.7229872 96.5216804C81.2004428 95.9962741 80.0037259 94.8003132 79.4783196 93.2777688L78.9188941 91.655435C78.7835736 91.2638371 78.4146552 91 77.999622 91 77.5853448 91 77.2164264 91.2638371 77.0811059 91.655435L76.5209245 93.2777688C75.9955181 94.8003132 74.7995572 95.9962741 73.2770128 96.5216804L71.654679 97.0818619C71.2623252 97.2171824 71 97.5861008 71 98.000378 71 98.4154112 71.2623252 98.7835736 71.654679 98.9196501M62.4208651 5.09120363L63.4637939 5.45083428C64.4425725 5.78908148 65.2114045 6.55791349 65.5491657 7.53669205L65.9092824 8.57962093C65.9962741 8.83136238 66.2334359 9.00048599 66.500243 9.00048599 66.7665641 9.00048599 67.0037259 8.83136238 67.0907176 8.57962093L67.4503483 7.53669205C67.7881095 6.55791349 68.5574275 5.78908148 69.5362061 5.45083428L70.5791349 5.09120363C70.8308764 5.0037259 71 4.76705006 71 4.50024299 71 4.23392192 70.8308764 3.99676008 70.5791349 3.90976835L69.5362061 3.54965171C68.5574275 3.21189049 67.7881095 2.44305848 67.4503483 1.46427993L67.0907176.421351045C67.0037259.16960959 66.7665641 0 66.499757 0 66.2334359 0 65.9962741.16960959 65.9092824.421351045L65.5491657 1.46427993C65.2114045 2.44305848 64.4425725 3.21189049 63.4637939 3.54965171L62.4208651 3.90976835C62.1686376 3.99676008 62 4.23392192 62 4.50024299 62 4.76705006 62.1686376 5.0037259 62.4208651 5.09120363"/>
  </g>
</svg>
