<svg xmlns="http://www.w3.org/2000/svg" width="159" height="188" viewBox="0 0 159 188"><g fill="none" fill-rule="evenodd"><g stroke-width="2"><g fill-rule="nonzero"><g stroke="#13C1AC" transform="translate(10 15)"><rect width="66" height="74" x="1" y="1" rx="10"/><path stroke-linecap="round" d="M8.601 84.037h27.646M8.595 90.864h52.98"/></g><g stroke="#CFD8DC" transform="translate(91 15)"><rect width="66" height="58" x="1" y="1" rx="10"/><path stroke-linecap="round" d="M8.601 70.037h27.646M8.601 170.25h27.646M8.595 76.864h52.98"/></g><g stroke="#CFD8DC" transform="translate(10 101)"><rect width="65.821" height="73" x="82.179" y="1" rx="10"/><rect width="65.821" height="66" x="1" y="20" rx="10"/></g></g><g stroke="#CFD8DC" stroke-linecap="round"><path d="M38 161.5a3 3 0 10-6 0 3 3 0 006 0zm18 0a3 3 0 10-6 0 3 3 0 006 0zm-6-1.5H38"/><path d="M31.086 161.595A3.086 3.086 0 0128 158.508V154a3.086 3.086 0 012.417-3.013l3.583-.682a3.086 3.086 0 002.091-1.632l.956-1.904a5.024 5.024 0 014.49-2.769h3.525c1.07 0 1.938.867 1.938 1.937v5.188c0 1.07.867 1.937 1.937 1.937h7.125c1.07 0 1.938.868 1.938 1.938v3.062c0 1.07-.868 1.938-1.938 1.938H56m-25-9h8m17 0v1"/></g><g stroke="#13C1AC" stroke-linecap="round"><path d="M51.667 60.25H36.5m-5.833 0h-2.634c-1.123 0-2.033-.975-2.033-2.179V53.69c0-.938.56-1.774 1.39-2.072l5.424-1.377c.15-.053 3.785-3.88 5.332-5.514A2.28 2.28 0 0139.803 44h9.56c.72 0 1.4.347 1.853.948l3.703 4.9c.165.124.345.222.536.29l4.154 1.484C60.44 51.92 61 52.752 61 53.69v4.813c0 .965-.73 1.748-1.631 1.748H57.5"/><path d="M35.917 60.875c0-1.38-1.046-2.5-2.334-2.5s-2.333 1.12-2.333 2.5 1.045 2.5 2.333 2.5c1.288 0 2.334-1.12 2.334-2.5zm21 0c0-1.38-1.046-2.5-2.334-2.5s-2.333 1.12-2.333 2.5 1.045 2.5 2.333 2.5c1.288 0 2.334-1.12 2.334-2.5zM33 50.25h5.833"/></g><g stroke="#CFD8DC" stroke-linecap="round"><path d="M134.667 145.25H119.5m-5.833 0h-2.634c-1.123 0-2.033-.975-2.033-2.179v-4.382c0-.938.56-1.774 1.39-2.071l5.425-1.378c.149-.053 3.784-3.88 5.331-5.514a2.28 2.28 0 011.657-.726h9.56c.72 0 1.4.348 1.853.948l3.703 4.9c.165.125.344.222.536.29l4.154 1.485c.831.296 1.391 1.128 1.391 2.066v4.814c0 .965-.73 1.747-1.631 1.747H140.5"/><path d="M118.917 145.875c0-1.38-1.046-2.5-2.334-2.5s-2.333 1.12-2.333 2.5 1.045 2.5 2.333 2.5c1.288 0 2.334-1.12 2.334-2.5zm21 0c0-1.38-1.046-2.5-2.334-2.5s-2.333 1.12-2.333 2.5 1.045 2.5 2.333 2.5c1.288 0 2.334-1.12 2.334-2.5zM116 135.25h5.833"/></g><g stroke="#CFD8DC" stroke-linecap="round"><path d="M116.2 52.786c0-1.42-1.075-2.572-2.4-2.572s-2.4 1.152-2.4 2.572c0 1.42 1.075 2.571 2.4 2.571s2.4-1.152 2.4-2.571zm21.6 0c0-1.42-1.075-2.572-2.4-2.572s-2.4 1.152-2.4 2.572c0 1.42 1.075 2.571 2.4 2.571s2.4-1.152 2.4-2.571z"/><path d="M110.645 52.143h-1.62c-1.67 0-3.025-1.452-3.025-3.241 0-1.086.505-2.097 1.348-2.7A12.529 12.529 0 01112 44.139l2.996-.642c.195-.042.394-.063.594-.063h24.11c1.27 0 2.3 1.102 2.3 2.463v3.006c0 1.79-1.356 3.24-3.027 3.24h-.574m-21.949 0h16.26M130 40.573l-1.2 2.57M121.6 38l-6 5.143m21.6-2.572l-1.2 2.572"/></g></g><path fill="#FFC900" d="M.608 12.354l1.506.519a4.867 4.867 0 013.012 3.013l.52 1.506a.903.903 0 001.707 0l.52-1.506a4.869 4.869 0 013.012-3.013l1.506-.52a.904.904 0 000-1.706l-1.506-.52a4.866 4.866 0 01-3.013-3.012l-.52-1.506a.904.904 0 00-1.706 0l-.52 1.506a4.865 4.865 0 01-3.012 3.012l-1.506.52a.902.902 0 000 1.707M71.655 98.92l1.622.56a5.242 5.242 0 013.244 3.244l.56 1.622a.972.972 0 001.838 0l.56-1.622a5.243 5.243 0 013.244-3.245l1.622-.56a.973.973 0 000-1.837l-1.622-.56a5.24 5.24 0 01-3.245-3.244l-.56-1.623a.973.973 0 00-1.837 0l-.56 1.623a5.24 5.24 0 01-3.244 3.244l-1.622.56a.971.971 0 000 1.838M62.42 5.09l1.043.36a3.37 3.37 0 012.085 2.086l.36 1.043a.625.625 0 001.182 0l.36-1.043a3.37 3.37 0 012.085-2.086l1.043-.36a.626.626 0 000-1.181l-1.043-.36a3.369 3.369 0 01-2.086-2.086L67.09.421a.626.626 0 00-1.18 0l-.36 1.043a3.368 3.368 0 01-2.086 2.086l-1.043.36a.624.624 0 000 1.181"/></g></svg>