<svg xmlns="http://www.w3.org/2000/svg" width="89" height="82" viewBox="0 0 89 82"><g fill="#FFF" fill-rule="evenodd"><path fill-rule="nonzero" d="M11.865 42.1C6.121 51.224 3.412 60.537 3.75 70.027a.75.75 0 101.5-.054c-.328-9.177 2.296-18.197 7.885-27.073a.75.75 0 10-1.27-.8z" opacity=".85"/><path fill-rule="nonzero" d="M25.5 45.5c12.15 0 22-9.85 22-22s-9.85-22-22-22-22 9.85-22 22 9.85 22 22 22zm0 1.5C12.521 47 2 36.479 2 23.5S12.521 0 25.5 0 49 10.521 49 23.5 38.479 47 25.5 47z"/><path fill-rule="nonzero" d="M30.084 29.624c2.252 1.501 4.58 1.501 6.832 0a.75.75 0 10-.832-1.248c-1.748 1.165-3.42 1.165-5.168 0a.75.75 0 10-.832 1.248zM11.79 42.256C3.98 65.011 8.71 76.75 26 76.75c17.309 0 21.692-11.922 13.204-35.009l-1.408.518C45.975 64.505 42.024 75.25 26 75.25c-16.043 0-20.313-10.595-12.79-32.506l-1.42-.488z"/><path fill-rule="nonzero" d="M14.25 73.5V81a.75.75 0 101.5 0v-7.5a.75.75 0 10-1.5 0zm22 0V81a.75.75 0 101.5 0v-7.5a.75.75 0 10-1.5 0z"/><path fill-rule="nonzero" d="M1 81.75h42a.75.75 0 100-1.5H1a.75.75 0 100 1.5z" opacity=".5"/><circle cx="24.5" cy="27.5" r="1.5"/><circle cx="42.5" cy="27.5" r="1.5"/><g fill-rule="nonzero"><path d="M87 37c0-8.284-6.716-15-15-15-8.284 0-15 6.716-15 15 0 8.283 6.716 15 15 15 8.284 0 15-6.717 15-15zm2 0c0 9.388-7.611 17-17 17-9.388 0-17-7.612-17-17 0-9.39 7.611-17 17-17s17 7.611 17 17z"/><path d="M67.246 39.566l-2.414-3.62a1 1 0 10-1.664 1.109l3 4.5a1 1 0 001.432.245l12-9a1 1 0 00-1.2-1.6l-11.154 8.366zM61 50v10.179c0 2.74 2.778 4.593 5.28 3.507l5.02-2.176a1.757 1.757 0 011.4 0l5.02 2.176c2.502 1.086 5.28-.768 5.28-3.507V50h-2v10.179c0 1.308-1.31 2.182-2.485 1.672l-5.02-2.176a3.758 3.758 0 00-2.99 0l-5.02 2.176c-1.174.51-2.485-.364-2.485-1.672V50h-2z"/></g><path fill-rule="nonzero" d="M38.314 42.803c5.177 11.736 13.337 14.574 24.063 8.346l-.754-1.298c-9.94 5.772-17.114 3.277-21.937-7.654l-1.372.606z"/></g></svg>