<svg xmlns="http://www.w3.org/2000/svg" width="138" height="152" viewBox="0 0 138 152"><g fill="none"><path fill="#707070" d="M77.042 150.468a1.159 1.159 0 11-2.318 0V137.72c0-7.04 5.708-12.748 12.748-12.748h37.086c7.04 0 12.748 5.707 12.748 12.748v12.748a1.159 1.159 0 11-2.318 0V137.72c0-5.76-4.67-10.43-10.43-10.43H87.472c-5.76 0-10.43 4.67-10.43 10.43v12.748zm-74.171 0a1.159 1.159 0 01-2.318 0v-32.45c0-7.04 5.708-12.748 12.748-12.748h37.086c7.04 0 12.748 5.708 12.748 12.748v32.45a1.159 1.159 0 01-2.318 0v-32.45c0-5.76-4.67-10.43-10.43-10.43H13.3c-5.76 0-10.43 4.67-10.43 10.43v32.45zM86.243 34.523h38.287c7.041 0 12.749 5.708 12.749 12.748v37.5c0 7.04-5.708 12.748-12.749 12.748H86.243c-7.04 0-12.748-5.708-12.748-12.749V47.271c0-7.04 5.708-12.748 12.748-12.748zm0 2.318c-5.76 0-10.43 4.67-10.43 10.43v37.5c0 5.76 4.67 10.43 10.43 10.43h38.287c5.76 0 10.43-4.67 10.43-10.43v-37.5c0-5.76-4.67-10.43-10.43-10.43H86.243zm-4.89 69.346a1.159 1.159 0 110-2.318h26.838a1.159 1.159 0 110 2.318H81.352zm.045 7.88a1.159 1.159 0 110-2.318h50.782a1.159 1.159 0 010 2.318H81.398zm-3.464-98.874a1.159 1.159 0 110-2.317h23.96a1.159 1.159 0 010 2.317h-23.96zm.041 7.88a1.159 1.159 0 110-2.317h52.292a1.159 1.159 0 010 2.318H77.975z"/><path fill="#FFC900" d="M33.708 11.397C36.718 5.222 43.055.967 50.387.967c10.24 0 18.542 8.302 18.542 18.543 0 4.703-1.75 8.996-4.635 12.265v29.456c0 7.04-5.708 12.748-12.748 12.748H13.3C6.261 73.98.553 68.272.553 61.231V24.146c0-7.041 5.708-12.749 12.748-12.749h20.407zm-.94 2.318H13.3c-5.76 0-10.43 4.67-10.43 10.43v37.086c0 5.76 4.67 10.43 10.43 10.43h38.245c5.76 0 10.43-4.67 10.43-10.43V33.986a18.465 18.465 0 01-11.59 4.067c-10.24 0-18.542-8.302-18.542-18.543 0-2.024.324-3.972.923-5.795zM5.536 86.727a1.159 1.159 0 110-2.318h23.682a1.159 1.159 0 110 2.318H5.537zm.044 7.533a1.159 1.159 0 110-2.318h52.14a1.159 1.159 0 110 2.318H5.581z"/><path fill="#FFF" d="M56.172 19.952l-6.975 9.606a.46.46 0 01-.38.2c-.276 0-.546-.243-.473-.58l1.438-6.603a.476.476 0 00-.466-.575h-4.154a1.604 1.604 0 01-1.527-2.106l3.175-9.582a1.534 1.534 0 011.457-1.05h5.54c1.188 0 1.925 1.287 1.322 2.306l-2.535 4.282H51.28a.976.976 0 100 1.952h3.847c1.075.047 1.687 1.268 1.045 2.15m1.85-2.3a3.294 3.294 0 00-2.72-1.794c-.013 0-.025-.008-.038-.008h-.073c-.042-.002-.082-.009-.124-.009h-.2l1.94-3.278a3.485 3.485 0 00.031-3.493 3.493 3.493 0 00-3.03-1.76h-5.54a3.48 3.48 0 00-3.31 2.387l-3.176 9.584a3.563 3.563 0 00.493 3.196 3.57 3.57 0 002.887 1.474h2.323l-1.048 4.812a2.413 2.413 0 00.476 2.036c.46.57 1.172.91 1.905.91.781 0 1.496-.366 1.958-1.004l6.976-9.606a3.294 3.294 0 00.27-3.447"/></g></svg>