<svg xmlns="http://www.w3.org/2000/svg" xmlns:xlink="http://www.w3.org/1999/xlink" width="178" height="178" viewBox="0 0 178 178"><defs><filter id="c" width="128.9%" height="128.9%" x="-14.4%" y="-14.4%" filterUnits="objectBoundingBox"><feMorphology in="SourceAlpha" radius="16" result="shadowSpreadInner1"/><feGaussianBlur in="shadowSpreadInner1" result="shadowBlurInner1" stdDeviation="11.5"/><feOffset in="shadowBlurInner1" result="shadowOffsetInner1"/><feComposite in="shadowOffsetInner1" in2="SourceAlpha" k2="-1" k3="1" operator="arithmetic" result="shadowInnerInner1"/><feColorMatrix in="shadowInnerInner1" values="0 0 0 0 1 0 0 0 0 1 0 0 0 0 1 0 0 0 0.2 0"/></filter><filter id="e" width="122.2%" height="122.2%" x="-11.1%" y="-11.1%" filterUnits="objectBoundingBox"><feMorphology in="SourceAlpha" radius="16" result="shadowSpreadInner1"/><feGaussianBlur in="shadowSpreadInner1" result="shadowBlurInner1" stdDeviation="11.5"/><feOffset in="shadowBlurInner1" result="shadowOffsetInner1"/><feComposite in="shadowOffsetInner1" in2="SourceAlpha" k2="-1" k3="1" operator="arithmetic" result="shadowInnerInner1"/><feColorMatrix in="shadowInnerInner1" values="0 0 0 0 1 0 0 0 0 1 0 0 0 0 1 0 0 0 0.2 0"/></filter><filter id="g" width="137.1%" height="160.8%" x="-17.9%" y="-28.9%" filterUnits="objectBoundingBox"><feOffset in="SourceAlpha" result="shadowOffsetOuter1"/><feGaussianBlur in="shadowOffsetOuter1" result="shadowBlurOuter1" stdDeviation="3"/><feColorMatrix in="shadowBlurOuter1" result="shadowMatrixOuter1" values="0 0 0 0 1 0 0 0 0 1 0 0 0 0 1 0 0 0 0.5 0"/><feMerge><feMergeNode in="shadowMatrixOuter1"/><feMergeNode in="SourceGraphic"/></feMerge></filter><linearGradient id="a" x1="87.413%" x2="16.902%" y1="-120.583%" y2="104.056%"><stop offset="0%" stop-color="#14A6AD"/><stop offset="100%" stop-color="#13C1AC"/></linearGradient><linearGradient id="f" x1="87.413%" x2="16.902%" y1="-120.583%" y2="104.056%"><stop offset="0%" stop-color="#14ADAB"/><stop offset="100%" stop-color="#13C1AC"/></linearGradient><circle id="b" cx="88.133" cy="88.074" r="67.478"/><circle id="d" cx="88.133" cy="88.074" r="88.023"/></defs><g fill="none" fill-rule="evenodd"><g opacity=".3" transform="translate(.661 .388)"><use fill="url(#a)" xlink:href="#b"/><use fill="#000" filter="url(#c)" xlink:href="#b"/></g><g opacity=".14" transform="translate(.661 .388)"><use fill="url(#a)" xlink:href="#d"/><use fill="#000" filter="url(#e)" xlink:href="#d"/></g><circle cx="88.789" cy="88.46" r="46.048" fill="url(#f)"/><g fill="#FFF" filter="url(#g)" transform="translate(63.804 72.864)"><path d="M12.94 27.709a8.335 8.335 0 0011.364-3.132l.294.168-.294-.168a8.334 8.334 0 00-3.132-11.363L2.594 2.65c-.329 1.86.16 3.209 1.54 3.993l14.724 8.362a1.118 1.118 0 01-1.103 1.943l-13.909-7.9a3.613 3.613 0 001.703 4.071l9.277 5.27a1.117 1.117 0 11-1.103 1.942l-8.767-4.98a3.611 3.611 0 001.702 4.072l4.792 2.722a1.117 1.117 0 11-1.104 1.943l-1.041-.592a8.281 8.281 0 003.636 4.214z" opacity=".4"/><path fill-rule="nonzero" d="M.506 1.711A1.9 1.9 0 013.294.491l18.982 10.78-.168.295.168-.295c5.076 2.885 6.853 9.335 3.97 14.41-2.883 5.075-9.335 6.852-14.409 3.97a10.549 10.549 0 01-5.24-7.695l-1.042-.592c-2.605-1.479-3.641-4.672-2.467-7.397A5.83 5.83 0 011.93 7.785C.358 6.337-.08 4.217.506 1.71zM12.941 27.71a8.335 8.335 0 0011.363-3.132l.294.168-.294-.168a8.334 8.334 0 00-3.132-11.363L2.594 2.65c-.329 1.86.16 3.209 1.54 3.993l14.724 8.362a1.118 1.118 0 01-1.103 1.943l-13.909-7.9a3.613 3.613 0 001.703 4.071l9.277 5.27a1.117 1.117 0 11-1.103 1.942l-8.767-4.98a3.611 3.611 0 001.702 4.072l4.792 2.722a1.117 1.117 0 11-1.104 1.943l-1.041-.592a8.281 8.281 0 003.636 4.214z"/><path d="M35.395 27.709a8.335 8.335 0 0011.363-3.132l.295.168-.295-.168a8.334 8.334 0 00-3.13-11.363L25.047 2.65c-.328 1.86.161 3.209 1.541 3.993l14.724 8.362a1.118 1.118 0 01-1.103 1.943L26.3 9.047a3.613 3.613 0 001.703 4.071l9.276 5.27a1.117 1.117 0 01-1.103 1.942l-8.766-4.98a3.611 3.611 0 001.702 4.072l4.792 2.722a1.117 1.117 0 11-1.104 1.943l-1.042-.592a8.281 8.281 0 003.636 4.214z" opacity=".4"/><path fill-rule="nonzero" d="M22.96 1.711a1.9 1.9 0 012.79-1.22L44.73 11.27l-.168.295.168-.295c5.076 2.885 6.853 9.335 3.969 14.41-2.882 5.075-9.334 6.852-14.408 3.97a10.549 10.549 0 01-5.24-7.695l-1.042-.592c-2.605-1.479-3.641-4.672-2.467-7.397a5.83 5.83 0 01-1.159-6.182c-1.571-1.448-2.008-3.568-1.423-6.074zM35.396 27.71a8.335 8.335 0 0011.363-3.132l.295.168-.295-.168a8.334 8.334 0 00-3.13-11.363L25.047 2.65c-.328 1.86.161 3.209 1.541 3.993l14.724 8.362a1.118 1.118 0 01-1.103 1.943L26.3 9.047a3.613 3.613 0 001.703 4.071l9.276 5.27a1.117 1.117 0 01-1.103 1.942l-8.766-4.98a3.611 3.611 0 001.702 4.072l4.792 2.722a1.117 1.117 0 11-1.104 1.943l-1.042-.592a8.281 8.281 0 003.636 4.214z"/></g></g></svg>