<svg xmlns="http://www.w3.org/2000/svg" width="120" height="120" viewBox="0 0 120 120"><g fill="none" fill-rule="evenodd" stroke-width="2" transform="translate(15 22)"><g fill="#FFF" stroke="#13C1AC" transform="translate(1 15)"><rect width="21" height="6" x="6" y="37" rx="2"/><rect width="21" height="6" x="7" y="31" rx="2"/><rect width="21" height="6" x="5" y="25" rx="2"/><rect width="21" height="6" x="1" y="19" rx="2"/><rect width="21" height="6" x="8" y="13" rx="2"/><rect width="21" height="6" x="5" y="7" rx="2"/><rect width="21" height="6" x="6" y="1" rx="2"/><rect width="21" height="6" x="8" y="43" rx="2"/></g><g fill="#FFF" stroke="#13C1AC" transform="translate(61 9)"><rect width="21" height="6" x="2" y="43" rx="2"/><rect width="21" height="6" x="3" y="37" rx="2"/><rect width="21" height="6" x="1" y="31" rx="2"/><rect width="21" height="6" x="1" y="25" rx="2"/><rect width="21" height="6" x="2" y="19" rx="2"/><rect width="21" height="6" x="1" y="13" rx="2"/><rect width="21" height="6" x="4" y="7" rx="2"/><rect width="21" height="6" x="3" y="1" rx="2"/><rect width="21" height="6" x="4" y="49" rx="2"/></g><path stroke="#CFD8DC" stroke-linecap="round" d="M8.998 65.5H90"/><path fill="#FFF" stroke="#13C1AC" d="M30.359 17.649c-3.136 5.841-5.416 9.702-6.84 11.584-6.723 8.878-10.151 13.927-8.658 20.765 2.953 13.517 18.643 16.85 38.559 13.585 19.915-3.264 21.124-17.696 9.068-36.989-8.036-12.862-18.746-15.844-32.13-8.945z"/><path d="M36.812 44.795c0 3.085 2.867 5.585 6.405 5.585 3.536 0 6.404-2.5 6.404-5.585s-2.868-5.586-6.404-5.586c-3.538 0-6.405-2.5-6.405-5.585s2.867-5.585 6.405-5.585c3.536 0 6.404 2.5 6.404 5.585m-6.75-8.564v2.979m0 22.743v2.979" stroke="#E0FAF2" stroke-linecap="round"/><path stroke="#13C1AC" stroke-linecap="round" stroke-linejoin="round" d="M43.5 64.745c-13.256 0-18.237-8.283-20.066-15.433"/><path fill="#FFF" stroke="#13C1AC" d="M32.617 14.85c-1.363-3.372-3.049-5.547-5.058-6.524-3.013-1.467-2.245-6.147.966-6.436 3.211-.29 3.269 2.883 5.744 2.883 2.474 0 3.995-4.25 7.648-3.95 3.652.3 3.482 1.42 6.044 2.685 2.562 1.265 9.062-5.393 12.323-.54 3.26 4.854-1.807 7.436-4.938 8.072-2.087.424-2.763 2.054-2.029 4.89l-20.7-1.08z"/><path fill="#FFF" stroke="#13C1AC" d="M58.071 13.234c-.265-1.646-1.779-2.782-3.405-2.585-1.107.136-1.902.256-4.155.615-1.02.163-1.596.252-2.23.346-2.494.367-4.392.55-6.194.55-1.91.001-3.746-.193-6.285-.608-.473-.077-.755-.124-1.737-.292-1.89-.324-2.835-.473-3.96-.61-1.626-.199-3.14.938-3.405 2.584-.265 1.639.953 3.203 2.72 3.42a106.594 106.594 0 0025.931 0c1.767-.215 2.985-1.782 2.72-3.42z"/><path stroke="#E0FAF2" stroke-linecap="round" d="M57.822 33.137c2.45 3.712 3.675 6.824 3.675 9.336 0 2.512-.3 4.431-.899 5.759"/><path stroke="#CFD8DC" stroke-linecap="round" d="M50 75h31m-50 5h31M0 70h31"/><rect width="21" height="6" x="53" y="62" fill="#FFF" stroke="#13C1AC" rx="2"/><rect width="21" height="6" x="57" y="56" fill="#FFF" stroke="#13C1AC" rx="2"/><rect width="21" height="6" x="56" y="50" fill="#FFF" stroke="#13C1AC" rx="2"/><rect width="21" height="6" x="59" y="44" fill="#FFF" stroke="#13C1AC" rx="2"/><rect width="21" height="6" x="55" y="68" fill="#FFF" stroke="#13C1AC" rx="2"/><rect width="21" height="6" x="40" y="66" fill="#FFF" stroke="#13C1AC" rx="2"/><rect width="21" height="6" x="36" y="72" fill="#FFF" stroke="#13C1AC" rx="2"/><rect width="21" height="6" x="6" y="56" fill="#FFF" stroke="#13C1AC" rx="2"/><rect width="21" height="6" x="2" y="50" fill="#FFF" stroke="#13C1AC" rx="2"/><rect width="21" height="6" x="2" y="62" fill="#FFF" stroke="#13C1AC" rx="2"/></g></svg>