<svg width="300" height="200" viewBox="0 0 300 200" xmlns="http://www.w3.org/2000/svg"><g id="onboarding" fill="none" fill-rule="evenodd"><g id="onboarding_1" transform="translate(-570 -163)"><g id="Group-9" transform="translate(570 163)"><path id="Rectangle-6" fill-opacity="0" fill="#FFF" fill-rule="nonzero" d="M0 5h300v200H0z"/><circle id="Oval" fill="#C1F5E6" opacity=".5" cx="151" cy="99" r="75"/><g id="Group-43" transform="translate(61 11)"><g id="Group-8"><path d="M4.816 68.517c5.904 4.007 14.04 10.792 17.321 10.792 3.281 0 21.414 1.955 41.87-26.114 20.455-28.069 7.522-41.656 5.419-42.631C67.323 9.589 56.93-1.104 50.66.824 44.393 2.753 23.978 7.198 10.5 28.56-2.978 49.922-1.088 64.51 4.816 68.517z" id="Path-2" fill="#FFF" fill-rule="nonzero"/><path d="M130.228 113.58c5.502 3.735 13.085 10.058 16.143 10.058s19.958 1.822 39.022-24.338c19.065-26.16 7.011-38.824 5.05-39.732-1.96-.908-11.645-10.875-17.488-9.077-5.842 1.797-24.868 5.94-37.43 25.85-12.561 19.909-10.8 33.503-5.297 37.239z" id="Path-2" fill="#FFF" fill-rule="nonzero" transform="rotate(104 161.02 86.97)"/><path d="M67.536 175.47c4.5 3.055 10.704 8.227 13.205 8.227 2.501 0 16.325 1.49 31.92-19.909 15.594-21.398 5.734-31.757 4.131-32.5-1.603-.743-9.526-8.896-14.305-7.425-4.78 1.47-20.343 4.859-30.618 21.145-10.275 16.286-8.834 27.406-4.333 30.461z" id="Path-2" fill="#FFF" fill-rule="nonzero" transform="rotate(78 92.723 153.703)"/><path d="M59.44 3.858c8.818 7.614 3.62 28.082-11.607 45.718C32.604 67.21 13.113 75.334 4.294 67.72c-8.818-7.614-3.62-28.083 11.607-45.718C31.13 4.368 50.621-3.756 59.44 3.858" id="Stroke-1" stroke="#13C1AC" stroke-width="3" stroke-linecap="round" stroke-linejoin="round"/><path d="M58.328 3.018c.091.078 13.32 10.043 13.408 10.124 8.443 7.795 3.198 28.025-11.875 45.48-14.959 17.324-34.036 25.47-43.063 18.531-.161-.124-11.99-9.03-12.144-9.163" id="Stroke-3" stroke="#13C1AC" stroke-width="3" stroke-linecap="round" stroke-linejoin="round"/><path d="M22.208 68.674l10.29 7.982" id="Stroke-5" stroke="#13C1AC" stroke-width="3" stroke-linecap="round" stroke-linejoin="round"/><path d="M42.606 57.334l9.782 7.56" id="Stroke-7" stroke="#13C1AC" stroke-width="3" stroke-linecap="round" stroke-linejoin="round"/><path d="M55.536 40.5l11.001 8.338" id="Stroke-9" stroke="#13C1AC" stroke-width="3" stroke-linecap="round" stroke-linejoin="round"/><path d="M63.684 19.828l11.493 8.887" id="Stroke-11" stroke="#13C1AC" stroke-width="3" stroke-linecap="round" stroke-linejoin="round"/><path d="M50.336 15.41c-2.709-2.34-15.118 1.56-26.452 14.686-9.032 10.46-12.355 20.816-11.62 26.012" id="Stroke-13" stroke="#C1F5E6" stroke-width="3" stroke-linecap="round" stroke-linejoin="round"/></g><g id="Group-4" transform="translate(60 128)" stroke-linecap="round" stroke-linejoin="round" stroke-width="3"><path d="M62.766 33.882c-3.78 7.863-19.594 8.107-35.32.546C11.722 26.866 2.039 14.363 5.819 6.5c3.781-7.863 19.594-8.108 35.32-.546 15.725 7.561 25.41 20.065 21.628 27.928" id="Stroke-15" stroke="#13C1AC"/><path d="M63.156 32.914c-.039.08-4.657 11.593-4.698 11.672-3.985 7.627-19.635 7.79-35.2.307C7.81 37.464-1.808 25.266 1.443 17.383c.058-.141 4.183-10.432 4.25-10.57" id="Stroke-17" stroke="#13C1AC"/><path d="M8.63 19.637l-3.758 8.998" id="Stroke-19" stroke="#13C1AC"/><path d="M20.816 32.165l-3.553 8.55" id="Stroke-21" stroke="#13C1AC"/><path d="M35.514 38.222l-3.878 9.584" id="Stroke-23" stroke="#13C1AC"/><path d="M52.05 40.072l-4.177 10.046" id="Stroke-25" stroke="#13C1AC"/><path d="M52.635 29.559c1.162-2.416-4.084-10.624-15.789-16.252-9.327-4.485-17.462-4.863-21.075-3.315" id="Stroke-27" stroke="#C1F5E6"/></g><g id="Group-4" transform="rotate(42 -18.96 137.485)"><path d="M18.13 5.458c5.892-1.87 9.577-2.493 11.055-1.87 2.218.935 10.592 5.892 12.833 16.618 2.24 10.726-.288 24.402-7.009 26.17-6.721 1.768-13.481 2.568-16.88-2.713-3.397-5.28-8.331-21.21-5.864-28.018 1.645-4.539 3.6-7.934 5.865-10.187z" id="Path-3" fill="#FFF" fill-rule="nonzero" transform="rotate(-58 27.207 25.534)"/><path d="M48.619 31.973c-2.628 5.466-13.622 5.636-24.554.38C13.132 27.095 6.4 18.402 9.028 12.936c2.629-5.467 13.622-5.637 24.555-.38 10.932 5.257 17.665 13.95 15.036 19.416" id="Stroke-15" stroke="#13C1AC" stroke-width="3" stroke-linecap="round" stroke-linejoin="round"/><path d="M48.89 31.3c-.026.056-3.237 8.06-3.266 8.115-2.77 5.302-13.65 5.416-24.471.213-10.74-5.164-17.427-13.645-15.166-19.125.04-.098 2.908-7.253 2.954-7.349" id="Stroke-17" stroke="#13C1AC" stroke-width="3" stroke-linecap="round" stroke-linejoin="round"/><path d="M10.983 22.07L8.37 28.326" id="Stroke-19" stroke="#13C1AC" stroke-width="3" stroke-linecap="round" stroke-linejoin="round"/><path d="M19.455 30.78l-2.47 5.944" id="Stroke-21" stroke="#13C1AC" stroke-width="3" stroke-linecap="round" stroke-linejoin="round"/><path d="M29.673 34.99l-2.696 6.663" id="Stroke-23" stroke="#13C1AC" stroke-width="3" stroke-linecap="round" stroke-linejoin="round"/><path d="M41.17 36.276l-2.905 6.985" id="Stroke-25" stroke="#13C1AC" stroke-width="3" stroke-linecap="round" stroke-linejoin="round"/><path d="M41.576 28.968c.808-1.68-2.84-7.386-10.977-11.3-6.484-3.117-12.14-3.38-14.651-2.303" id="Stroke-27" stroke="#C1F5E6" stroke-width="3" stroke-linecap="round" stroke-linejoin="round"/></g><g id="Group-5" transform="translate(128 48)" stroke-linecap="round" stroke-linejoin="round" stroke-width="3"><path d="M69.261 65.905c-8.623 7.53-27.822-.345-42.884-17.591-15.06-17.246-20.28-37.33-11.656-44.861 8.623-7.53 27.822.345 42.883 17.591 15.06 17.246 20.28 37.331 11.657 44.861" id="Stroke-29" stroke="#13C1AC"/><path d="M70.231 64.94c-.088.077-11.606 11.576-11.697 11.65-8.748 7.142-27.708-.749-42.614-17.818C1.123 41.83-4.174 22.147 3.82 14.32c.144-.14 10.437-10.422 10.589-10.555" id="Stroke-31" stroke="#13C1AC"/><path d="M11.325 20.752l-9.184 8.912" id="Stroke-33" stroke="#13C1AC"/><path d="M19.549 42.16l-8.704 8.477" id="Stroke-35" stroke="#13C1AC"/><path d="M34.147 57.06l-9.629 9.555" id="Stroke-37" stroke="#13C1AC"/><path d="M53.138 67.835l-10.23 9.959" id="Stroke-39" stroke="#13C1AC"/><path d="M59.276 55.456c2.649-2.312.563-14.923-10.646-27.76-8.934-10.23-18.552-14.888-23.709-14.888" id="Stroke-41" stroke="#C1F5E6"/></g></g></g></g></g></svg>