<svg xmlns="http://www.w3.org/2000/svg" width="120" height="120" viewBox="0 0 120 120"><g fill="none" fill-rule="evenodd" stroke-width="2" transform="translate(24 33)"><g fill="#FFF" stroke="#13C1AC"><rect width="21" height="6" x="6" y="37" rx="2"/><rect width="21" height="6" x="7" y="31" rx="2"/><rect width="21" height="6" x="5" y="25" rx="2"/><rect width="21" height="6" x="1" y="19" rx="2"/><rect width="21" height="6" x="8" y="13" rx="2"/><rect width="21" height="6" x="5" y="7" rx="2"/><rect width="21" height="6" x="6" y="1" rx="2"/><rect width="21" height="6" x="8" y="43" rx="2"/></g><g fill="#FFF" stroke="#13C1AC" transform="translate(44 18)"><rect width="21" height="6" x="2" y="19" rx="2"/><rect width="21" height="6" x="3" y="13" rx="2"/><rect width="21" height="6" x="1" y="7" rx="2"/><rect width="21" height="6" x="1" y="1" rx="2"/><rect width="21" height="6" x="4" y="25" rx="2"/></g><path stroke="#CFD8DC" stroke-linecap="round" d="M1 50.2h70.068"/><path fill="#FFF" stroke="#13C1AC" d="M27.919 16.913c-2.093 3.943-3.615 6.55-4.565 7.819-4.487 5.993-6.776 9.4-5.779 14.017 1.97 9.123 12.444 11.373 25.736 9.17 13.293-2.204 14.1-11.945 6.054-24.968C44 14.269 36.852 12.256 27.919 16.913z"/><path d="M32.226 35.237c0 2.082 1.914 3.77 4.275 3.77 2.36 0 4.275-1.688 4.275-3.77 0-2.083-1.914-3.77-4.275-3.77-2.36 0-4.275-1.688-4.275-3.77 0-2.083 1.914-3.77 4.275-3.77 2.36 0 4.275 1.687 4.275 3.77m-4.506-5.781v2.01m0 15.352v2.01" stroke="#E0FAF2" stroke-linecap="round"/><path stroke="#13C1AC" stroke-linecap="round" stroke-linejoin="round" d="M36.69 48.703c-8.848 0-12.172-5.59-13.393-10.417"/><path fill="#FFF" stroke="#13C1AC" d="M29.426 15.023c-.91-2.276-2.035-3.743-3.375-4.403-2.012-.99-1.499-4.15.644-4.345 2.143-.195 2.182 1.947 3.834 1.947 1.652 0 2.666-2.869 5.104-2.666 2.438.202 2.325.958 4.035 1.812 1.71.854 6.048-3.64 8.225-.364 2.177 3.276-1.206 5.019-3.296 5.448-1.393.286-1.844 1.386-1.354 3.3l-13.817-.729z"/><path fill="#FFF" stroke="#13C1AC" d="M46.088 13.983c-.15-.94-.998-1.583-1.903-1.472-.733.09-1.261.171-2.761.413-.682.11-1.068.17-1.493.234-1.679.25-2.96.375-4.184.375-1.297.001-2.539-.132-4.25-.415a133.08 133.08 0 01-1.162-.198c-1.257-.217-1.884-.317-2.627-.41-.905-.11-1.753.533-1.903 1.473-.147.925.535 1.813 1.53 1.936a70.021 70.021 0 0017.224 0c.993-.122 1.677-1.01 1.529-1.936z"/><path stroke="#E0FAF2" stroke-linecap="round" d="M46.25 27.368c1.635 2.505 2.453 4.606 2.453 6.301 0 1.696-.2 2.992-.6 3.887"/><path stroke="#CFD8DC" stroke-linecap="round" d="M42 60h31"/><rect width="21" height="6" x="45" y="47" fill="#FFF" stroke="#13C1AC" rx="2"/><rect width="21" height="6" x="49" y="41" fill="#FFF" stroke="#13C1AC" rx="2"/><rect width="21" height="6" x="48" y="35" fill="#FFF" stroke="#13C1AC" rx="2"/><rect width="21" height="6" x="51" y="29" fill="#FFF" stroke="#13C1AC" rx="2"/><rect width="21" height="6" x="47" y="53" fill="#FFF" stroke="#13C1AC" rx="2"/></g></svg>