<svg xmlns="http://www.w3.org/2000/svg" width="120" height="120" viewBox="0 0 120 120"><g fill="none" fill-rule="evenodd"><g fill="#FFF" stroke="#13C1AC" stroke-width="2" transform="translate(81 69)"><rect width="21" height="6" x="4" y="13" rx="2"/><rect width="21" height="6" x="1" y="7" rx="2"/><rect width="21" height="6" x="4" y="1" rx="2"/></g><g fill="#FFF" stroke="#13C1AC" stroke-width="2" transform="translate(8 45)"><rect width="21" height="6" x="7" y="37" rx="2"/><rect width="21" height="6" x="4" y="31" rx="2"/><rect width="21" height="6" x="7" y="25" rx="2"/><rect width="21" height="6" x="2" y="19" rx="2"/><rect width="21" height="6" x="4" y="13" rx="2"/><rect width="21" height="6" x="2" y="7" rx="2"/><rect width="21" height="6" x="1" y="1" rx="2"/></g><g transform="translate(11.6 24.6)"><g transform="translate(29.2)"><ellipse cx="55.538" cy="14.4" fill="#FFF" stroke="#13C1AC" stroke-width="2" rx="13.538" ry="13.4"/><path fill="#FFF" stroke="#CFD8DC" d="M.5.579h54.385V27.3H.5z"/><path stroke="#C1F5E6" stroke-linecap="round" stroke-width="2" d="M1.385 1.38C7.732 1.148 15.23 6.15 15.23 14.011c0 7.861-6.12 13.14-13.656 13.417"/><path fill="#FFF" fill-opacity="0" stroke="#13C1AC" stroke-width="2" d="M1 1h53.385v26.8H1z"/><path stroke="#C1F5E6" stroke-linecap="round" stroke-width="2" d="M62.27 20.837c-.823 1.438-3.142 2.87-4.54 2.883m.758-19.086c5.232 1.904 7.954 7.67 6.068 12.852"/></g><path stroke="#CFD8DC" stroke-linecap="round" stroke-width="2" d="M1.075 64.8h94.002"/><rect width="21" height="6" x="41.4" y="23.4" fill="#FFF" stroke="#13C1AC" stroke-width="2" rx="2"/><rect width="21" height="6" x="61.4" y="23.4" fill="#FFF" stroke="#13C1AC" stroke-width="2" rx="2"/><rect width="21" height="6" x="42.4" y="17.4" fill="#FFF" stroke="#13C1AC" stroke-width="2" rx="2"/><rect width="21" height="6" x="23.4" y="22.4" fill="#FFF" stroke="#13C1AC" stroke-width="2" rx="2"/><rect width="21" height="6" x="20.4" y="16.4" fill="#FFF" stroke="#13C1AC" stroke-width="2" rx="2"/><path fill="#FFF" stroke="#13C1AC" stroke-width="2" d="M8.6 27.6h53.2v35.2H8.6z"/><path fill="#FFF" stroke="#C1F5E6" stroke-width="2" d="M16.446 59.81H15.43v1h1v-.875a3.84 3.84 0 00.016-.125zm-2.764-4.094a3.81 3.81 0 00-.989-.141l-.01 1h1v-.859zm-1.445-.178h-1l1 1v-1zm0-19.076v-1l-1 1h1zm4.24-4.225v-1l-1 1h1zm37.576 0h1l-1-1v1zm4.24 4.225h1l-1-1v1zm0 19.076v1l1-1h-1zm-1.37.158v.879h1l.014-1h-.057c-.33 0-.652.042-.958.121zm-2.736 2.737c-.08.31-.123.634-.123.968v.043l1-.01v-1h-.877zm-.16 1.377v1l1-1h-1z"/><path fill="#FFF" stroke="#13C1AC" stroke-width="2" d="M62.6 27.6h23.2v35.2H62.6z"/><path fill="#FFF" stroke="#C1F5E6" stroke-width="2" d="M69.971 59h9.286v-.41c.017-1.728 1.171-3.183 2.743-3.624V36.234a3.778 3.778 0 01-2.596-2.605h-.175V32.2h-9.286v.41c-.017 1.728-1.171 3.183-2.743 3.624v18.732a3.778 3.778 0 012.596 2.605h.175V59z"/></g><g stroke-width="2" transform="translate(26 61)"><path stroke="#CFD8DC" stroke-linecap="round" d="M0 33h48"/><rect width="21" height="6" x="3" y="19" fill="#FFF" stroke="#13C1AC" rx="2"/><rect width="21" height="6" x="4" y="13" fill="#FFF" stroke="#13C1AC" rx="2"/><rect width="21" height="6" x="5" y="7" fill="#FFF" stroke="#13C1AC" rx="2"/><rect width="21" height="6" x="5" y="25" fill="#FFF" stroke="#13C1AC" rx="2"/><rect width="21" height="6" x="22" y="19" fill="#FFF" stroke="#13C1AC" rx="2"/><rect width="21" height="6" x="23" y="13" fill="#FFF" stroke="#13C1AC" rx="2"/><rect width="21" height="6" x="20" y="7" fill="#FFF" stroke="#13C1AC" rx="2"/><rect width="21" height="6" x="23" y="1" fill="#FFF" stroke="#13C1AC" rx="2"/><rect width="21" height="6" x="24" y="25" fill="#FFF" stroke="#13C1AC" rx="2"/></g></g></svg>