<svg width="209" height="41" fill="none" xmlns="http://www.w3.org/2000/svg"><g filter="url(#filter0_d)"><path d="M114.64 19c0-2.496 2.016-4.48 4.512-4.48 2.496 0 4.512 1.984 4.512 4.48a4.507 4.507 0 01-4.512 4.512A4.507 4.507 0 01114.64 19zm-4.096 0a8.59 8.59 0 008.608 8.608A8.59 8.59 0 00127.76 19c0-4.736-3.84-8.608-8.608-8.608-4.768 0-8.608 3.872-8.608 8.608zm-91.968 7.36c1.216.832 2.656 1.248 4.128 1.248 4.64 0 8.032-3.808 7.744-8.544l-.416-7.04a1.73 1.73 0 00-1.76-1.632c-.96 0-1.664.736-1.728 1.728l-.48 7.968c-.096 1.76-1.504 3.136-3.264 3.136-1.6 0-3.136-1.248-3.296-3.008l-.544-5.824c-.096-.896-.704-1.6-1.6-1.6-.896 0-1.504.704-1.6 1.6l-.544 5.824c-.16 1.76-1.696 3.008-3.296 3.008-1.76 0-3.168-1.376-3.264-3.136l-.48-7.968c-.064-.992-.768-1.728-1.728-1.728a1.73 1.73 0 00-1.76 1.632l-.416 7.04c-.288 4.736 3.104 8.544 7.744 8.544 1.472 0 2.912-.416 4.128-1.248.32-.224.8-.384 1.216-.384.416 0 .896.16 1.216.384zM36.816 19c0-2.496 2.016-4.48 4.512-4.48 2.496 0 4.512 1.984 4.512 4.48a4.507 4.507 0 01-4.512 4.512A4.507 4.507 0 0136.816 19zm38.24 0c0-2.496 2.016-4.48 4.512-4.48 2.496 0 4.512 1.984 4.512 4.48a4.507 4.507 0 01-4.512 4.512A4.507 4.507 0 0175.056 19zm58.752 0c0-2.496 2.016-4.48 4.512-4.48 2.496 0 4.512 1.984 4.512 4.48a4.507 4.507 0 01-4.512 4.512A4.507 4.507 0 01133.808 19zm.16 9.312c.032-.832.448-1.248 1.12-1.248.128 0 .416.064.512.096A8.59 8.59 0 00146.928 19c0-4.736-3.84-8.608-8.608-8.608-4.768 0-8.608 3.872-8.608 8.608v.544l.448 13.184c.032.992.8 1.792 1.792 1.792s1.728-.8 1.792-1.792l.224-4.416zM95.76 19c0-2.496 2.016-4.48 4.512-4.48 2.496 0 4.512 1.984 4.512 4.48a4.507 4.507 0 01-4.512 4.512A4.507 4.507 0 0195.76 19zm-3.648 13.728c.032.992.8 1.792 1.792 1.792s1.728-.8 1.792-1.792l.224-4.416c.032-.832.448-1.248 1.12-1.248.128 0 .416.064.512.096A8.59 8.59 0 00108.88 19c0-4.736-3.84-8.608-8.608-8.608-4.768 0-8.608 3.872-8.608 8.608v.544l.064 2.08c.032.896-.416 1.792-1.472 1.792-.832 0-1.504-.512-1.6-1.312l-.576-4.288c-.576-4.16-4.16-7.424-8.512-7.424-4.768 0-8.608 3.872-8.608 8.608 0 .64.064 1.248.192 1.856.064.32.128.544.128.832 0 1.088-.8 1.728-1.984 1.728-1.248 0-1.952-.864-1.984-2.08l-.608-17.024c-.032-.992-.8-1.792-1.792-1.792s-1.76.8-1.792 1.792l-.64 17.024c-.032 1.216-.736 2.08-1.984 2.08s-1.952-.864-1.984-2.08l-.64-17.024c-.032-.992-.8-1.792-1.792-1.792s-1.76.8-1.792 1.792l-.64 17.568c-.032.896-.864 1.536-1.632 1.536-.832 0-1.504-.512-1.6-1.312l-.576-4.288c-.576-4.16-4.16-7.424-8.512-7.424-4.768 0-8.608 3.872-8.608 8.608a8.59 8.59 0 008.608 8.608 8.677 8.677 0 005.216-1.76c.256-.192.48-.288.736-.288.448 0 .736.224.96.48.896 1.024 2.24 1.568 3.552 1.568 1.152 0 2.368-.384 3.2-1.248.384-.384.864-.608 1.312-.608.48 0 .96.224 1.312.608.8.864 1.92 1.248 2.976 1.248 1.088 0 2.112-.384 2.944-1.248.384-.384.864-.608 1.312-.608.48 0 .928.224 1.312.608.864.832 2.176 1.248 3.52 1.248 1.344 0 2.688-.416 3.552-1.28.256-.288.512-.448.832-.448.224 0 .48.096.736.288 1.376.896 3.008 1.44 4.768 1.44 1.664 0 3.2-.544 4.544-1.312.48-.288.8-.544 1.344-.544 1.312 0 1.344 1.408 3.424 1.408.928 0 1.248-.48 1.92-.48.864 0 1.12.608 1.152 1.184l.16 4.864zm75.084-20.384c3.872 0 6.528 2.912 6.528 6.912s-2.656 6.912-6.528 6.912c-3.968 0-6.528-2.912-6.528-6.912s2.56-6.912 6.528-6.912zm-6.528 21.728v-7.36c0-.768-.032-2.976-.032-2.976h.032c1.344 2.368 3.712 3.808 6.72 3.808 4.64 0 7.808-3.552 7.808-8.288 0-4.736-3.168-8.288-7.808-8.288-3.008 0-5.376 1.44-6.72 3.808h-.032v-3.424h-1.408v22.72h1.44zm20.749-6.912v-9.056c0-3.136 2.016-5.6 5.088-5.6.384 0 .608.032.608.032v-1.312h-.352c-3.232 0-4.64 1.792-5.312 3.072h-.032v-2.944h-1.408V27.16h1.408zm15.5-14.816c3.872 0 6.56 2.912 6.56 6.912s-2.688 6.912-6.56 6.912c-3.872 0-6.56-2.912-6.56-6.912s2.688-6.912 6.56-6.912zm0 15.2c4.64 0 8.032-3.552 8.032-8.288 0-4.736-3.392-8.288-8.032-8.288-4.64 0-8.032 3.552-8.032 8.288 0 4.736 3.392 8.288 8.032 8.288z" fill="#13C1AC"/></g><defs><filter id="filter0_d" x=".255" y=".52" width="208.694" height="40" filterUnits="userSpaceOnUse" color-interpolation-filters="sRGB"><feFlood flood-opacity="0" result="BackgroundImageFix"/><feColorMatrix in="SourceAlpha" values="0 0 0 0 0 0 0 0 0 0 0 0 0 0 0 0 0 0 127 0"/><feOffset dy="2"/><feGaussianBlur stdDeviation="2"/><feColorMatrix values="0 0 0 0 0.145098 0 0 0 0 0.196078 0 0 0 0 0.219608 0 0 0 0.1 0"/><feBlend in2="BackgroundImageFix" result="effect1_dropShadow"/><feBlend in="SourceGraphic" in2="effect1_dropShadow" result="shape"/></filter></defs></svg>