<svg xmlns="http://www.w3.org/2000/svg" width="170" height="130" viewBox="0 0 170 130"><g fill="none" fill-rule="evenodd"><path fill="#13C1AC" d="M139.532 33.654l.503-.992a3.395 3.395 0 012.368-1.798l1.09-.217a.63.63 0 00.162-1.18l-.992-.501a3.4 3.4 0 01-1.799-2.369l-.216-1.09a.63.63 0 00-1.18-.162l-.501.992a3.397 3.397 0 01-2.37 1.798l-1.09.217a.63.63 0 00-.162 1.18l.993.502a3.396 3.396 0 011.798 2.368l.216 1.09a.63.63 0 001.18.162M26.557 68.903l.52-.456a2.11 2.11 0 011.78-.489l.68.127a.39.39 0 00.366-.642l-.456-.519a2.108 2.108 0 01-.489-1.781l.128-.68a.391.391 0 00-.643-.366l-.52.457a2.11 2.11 0 01-1.78.488l-.68-.128a.392.392 0 00-.366.643l.456.52c.428.487.608 1.144.488 1.78l-.127.68a.39.39 0 00.643.366"/><path fill="#C1F5E6" d="M149.472 52.635l.491-.431a1.993 1.993 0 011.683-.463l.642.122a.37.37 0 00.347-.608l-.431-.49a1.994 1.994 0 01-.462-1.685l.12-.642a.37.37 0 00-.607-.346l-.491.431a1.997 1.997 0 01-1.684.462l-.642-.12a.371.371 0 00-.346.607l.43.491a1.99 1.99 0 01.463 1.684l-.12.642a.37.37 0 00.607.346M66.557 38.903l.52-.456a2.108 2.108 0 011.78-.489l.68.128a.392.392 0 00.366-.643l-.456-.519a2.11 2.11 0 01-.489-1.78l.128-.68a.391.391 0 00-.643-.366l-.52.455a2.113 2.113 0 01-1.78.49l-.68-.129a.392.392 0 00-.366.644l.456.519c.428.487.608 1.144.489 1.781l-.128.68a.391.391 0 00.643.366"/><path fill="#13C1AC" d="M45.338 37.55l.229-.81a2.57 2.57 0 011.496-1.68l.777-.321a.476.476 0 00-.052-.9l-.81-.227a2.568 2.568 0 01-1.68-1.496l-.321-.778a.477.477 0 00-.9.052l-.228.811a2.57 2.57 0 01-1.495 1.68l-.78.321a.478.478 0 00.053.9l.81.227a2.568 2.568 0 011.681 1.496l.321.778a.476.476 0 00.9-.052"/><path stroke="#ECEFF1" stroke-linecap="round" stroke-linejoin="bevel" stroke-width="2" d="M130.24 55.06c2.467-.819 5.378-.819 8.735 0 3.356.82 5.929 2.85 7.72 6.092l-10.869 41.364c-2.953-2.315-10.16-4.149-21.619-5.501-11.46-1.353-32.068 2.31-61.826 10.99l3.25-7.704"/><path stroke="#CFD8DC" stroke-linecap="round" stroke-linejoin="bevel" stroke-width="2" d="M123.896 40.185l3.15-1.028 8.633 48.815c-17.795 2.32-32.137 4.353-43.028 6.101-10.89 1.748-22.44 3.976-34.651 6.684v-2.182"/><path stroke="#ECEFF1" stroke-linecap="round" stroke-linejoin="bevel" stroke-width="2" d="M116.97 34.735L121.864 33 131 80.955c-27.141 7.085-44.506 11.37-52.093 12.856A5629.284 5629.284 0 0152 99v-3.425"/><path stroke="#CFD8DC" stroke-linejoin="round" stroke-width="2" d="M75 65.967c.714 3.502 3.697 5.678 6.685 4.861 2.988-.816 4.85-4.315 4.178-7.828L75 65.967z"/><path stroke="#CFD8DC" stroke-linecap="round" stroke-linejoin="round" stroke-width="2" d="M89 57c1.004-.943 2.603-1.255 4-.78M65 62c1.004-.943 2.603-1.255 4-.78"/><path stroke="#CFD8DC" stroke-linecap="round" stroke-linejoin="round" stroke-width="2" d="M113.352 29.117c.537-1.58-19.914 13.177-75.352 21.61L44.997 95S105.752 86.303 126 71.677l-12.648-42.56z"/><path stroke="#ECEFF1" stroke-linecap="round" stroke-linejoin="round" stroke-width="2" d="M110.488 37.093c.476-1.27-17.38 10.791-66.488 17.563L49.937 90S104.644 80.313 120 69.58l-9.512-32.487z"/><path fill="#ECEFF1" d="M45.782 62c3.35 0 6.066-2.744 6.066-6.127 0-1.361.479-1.381-.263-2.398-1.105-1.512-4.855 1.066-6.859 1.066-3.35 0-.791-2.318-.791 1.066 0 1.479-1.129-.526-.264.533 1.113 1.362.224 5.86 2.11 5.86m3.837 20.546c3.227-1.383 7.037-.05 8.512 2.978.592 1.218 1.063 1.038.79 2.254-.406 1.81-5.14 1.051-7.07 1.878-3.227 1.383.249 2.401-1.226-.627-.643-1.324-.857.936-.486-.368.478-1.678-2.337-5.336-.52-6.115m62.885-38.355c-2.961 1.651-6.762.694-8.487-2.138-.695-1.137-1.128-.918-.99-2.135.205-1.81 4.834-1.5 6.604-2.487 2.96-1.651-.483-2.33 1.242.501.756 1.238.73-.996.505.316-.288 1.688 2.792 5.014 1.126 5.943m3.71 17.837c-3.563.793-5.83 4.425-5.064 8.112.309 1.484-.197 1.619.823 2.55 1.518 1.387 4.923-2.31 7.054-2.784 3.563-.793 1.366 2.34.6-1.349-.336-1.611 1.319.307.16-.643-1.493-1.221-1.567-6.333-3.573-5.886"/></g></svg>