<svg xmlns="http://www.w3.org/2000/svg" width="170" height="130" viewBox="0 0 170 130"><g fill="none" fill-rule="evenodd"><path stroke="#CFD8DC" stroke-width="2" d="M79.601 69.968c8.76-4.085 12.55-14.497 8.465-23.256-4.085-8.76-14.497-12.55-23.256-8.465-8.76 4.085-12.55 14.497-8.465 23.256 4.085 8.76 14.497 12.55 23.256 8.465"/><path stroke="#CFD8DC" stroke-linecap="round" stroke-linejoin="round" stroke-width="2" d="M87.955 63.866c3.54 2.5 6.836 6.538 9.101 11.6l.001.002c2.66 5.947.524 12.69-4.771 15.065l-4.544 2.038c-5.295 2.375-11.745-.52-14.406-6.465v-.002c-2.035-4.546-2.9-9.164-2.698-13.178m16.728-8.786s13.868.244 19.637 14.57m-10.461 9.84l13.228 7.072m-48.02-27.26s-11.082-5.023-18.097-22.456m22.934 9.167c-.478 1.531-2.049 2.398-3.51 1.938m20.078 36.678c-.179 3.416 5.897 7.796 12.587 6.39"/><path fill="#FFF" stroke="#13C1AC" stroke-linecap="round" stroke-linejoin="round" stroke-width="2" d="M84.538 35.668L80.12 48.6l4.54-3.096-.087 7.802 4.852-13.147-4.74 2.406z"/><path fill="#13C1AC" d="M83.345 73.812l-2.563 9.233c-.046.167.147.291.287.185l2.838-2.158c.118-.09.287-.016.294.128l.232 5c.01.202.299.231.358.036l2.885-9.491c.047-.156-.12-.285-.265-.203l-3.094 1.768c-.117.067-.262-.006-.272-.137l-.341-4.335c-.016-.2-.305-.221-.36-.026"/><path stroke="#ECEFF1" stroke-width="2" d="M91.954 76.345a9 9 0 00-11.96-4.353 9 9 0 00-4.354 11.96 9 9 0 0011.96 4.353 9 9 0 004.354-11.96z"/><path fill="#CFD8DC" d="M59.881 54.89a1 1 0 10-1.812.844 1 1 0 001.812-.845m10.876-5.071a1 1 0 10-1.812.844 1 1 0 001.812-.844"/><path stroke="#CFD8DC" stroke-linecap="round" stroke-linejoin="round" stroke-width="2" d="M88.086 63.27s11.68-5.907 34.538 6.609c1.017.557.673 1.929-.22 2.669-1.173.974-1.954 2.31-1.913 3.756.086 3.063-1.294 4.289-4.034 6.104-1.384.916-1.374 3.549-1.566 4.948a1.128 1.128 0 01-1.403.945c-1.75-.47-4.01-.968-8.076-5.329L88.086 63.27z"/><path stroke="#ECEFF1" stroke-linecap="round" stroke-linejoin="round" stroke-width="2" d="M127 58.068l9-.068m-15 .015l2-.015m0 7.114L135 65m-11.002-12L102 53.315M135.999 77l-9.999.143M140 65h2"/></g></svg>