<svg width="300" height="200" viewBox="0 0 300 200" xmlns="http://www.w3.org/2000/svg"><g id="onboarding" fill="none" fill-rule="evenodd"><g id="onboarding_2" transform="translate(-570 -163)"><g id="Group-10" transform="translate(570 163)"><path id="Rectangle-6" fill-opacity="0" fill="#FFF" fill-rule="nonzero" d="M0 0h300v200H0z"/><circle id="Oval" fill="#C1F5E6" opacity=".5" cx="151" cy="100" r="75"/><g id="Group-4" transform="rotate(-5 707.248 -1913.12)" fill="#FFF" fill-rule="nonzero" stroke-width="3"><rect id="Rectangle-6" stroke="#13C1AC" x="1.5" y="1.5" width="69" height="87" rx="3"/><rect id="Rectangle-6" stroke="#C1F5E6" x="10.5" y="11.5" width="51" height="68" rx="3"/></g><g id="Group-4" transform="rotate(12 -201.182 606.5)" fill="#FFF" fill-rule="nonzero" stroke-width="3"><rect id="Rectangle-6" stroke="#13C1AC" x="1.5" y="1.5" width="69" height="87" rx="3"/><rect id="Rectangle-6" stroke="#C1F5E6" x="10.5" y="11.5" width="51" height="68" rx="3"/></g><g id="Group-4" transform="rotate(-17 228.584 -97.597)" fill="#FFF" fill-rule="nonzero" stroke-width="3"><rect id="Rectangle-6" stroke="#13C1AC" x="1.5" y="1.5" width="69" height="87" rx="3"/><rect id="Rectangle-6" stroke="#C1F5E6" x="10.5" y="11.5" width="51" height="68" rx="3"/></g><g id="Group-8" transform="translate(68 82)" stroke-width="2"><g id="Group-5" transform="rotate(-17 61 9.117)"><rect id="Rectangle-Copy-21" stroke="#13C1AC" fill="#FFF" x="1" y="1" width="33" height="8" rx="3"/><path d="M29 2v5.992M21 2v5.992M13 2v5.992M5 2v5.992" id="Line" stroke="#C1F5E6" fill-rule="nonzero"/></g><g id="Group-5" transform="rotate(-17 34.235 5.117)"><rect id="Rectangle-Copy-21" stroke="#13C1AC" fill="#FFF" x="1" y="1" width="33" height="8" rx="3"/><path d="M29 2v5.992M21 2v5.992M13 2v5.992M5 2v5.992" id="Line" stroke="#C1F5E6" fill-rule="nonzero"/></g></g><g id="Group-5" transform="rotate(11 -404.375 727.995)" stroke-width="2"><rect id="Rectangle-Copy-21" stroke="#13C1AC" fill="#FFF" x="1" y="10" width="33" height="8" rx="3"/><path d="M29 11v5.992M21 11v5.992M13 11v5.992M5 11v5.992" id="Line" stroke="#C1F5E6" fill-rule="nonzero"/><rect id="Rectangle-Copy-21" stroke="#13C1AC" fill="#FFF" x="3" y="1.996" width="33" height="8" rx="3"/><path d="M30.25 3v5.992M24.25 3v5.992M17.25 3v5.992M10.25 3v5.992" id="Line" stroke="#C1F5E6" fill-rule="nonzero"/><rect id="Rectangle-Copy-21" stroke="#13C1AC" fill="#FFF" x="3" y="18" width="33" height="8" rx="3"/><path d="M31 19v5.992M23 19v5.992M15 19v5.992M7 19v5.992" id="Line" stroke="#C1F5E6" fill-rule="nonzero"/></g><g id="Group-5" transform="rotate(-5 1015.22 -2115.206)" stroke-width="2"><rect id="Rectangle-Copy-21" stroke="#13C1AC" fill="#FFF" x="1" y="18" width="33" height="8" rx="3"/><path d="M29 19v5.992M21 19v5.992M13 19v5.992M5 19v5.992" id="Line" stroke="#C1F5E6" fill-rule="nonzero"/><rect id="Rectangle-Copy-21" stroke="#13C1AC" fill="#FFF" x="4.297" y="10.055" width="33" height="8" rx="3"/><path d="M31.25 11v5.992m-7-5.992v5.992m-8-5.992v5.992M9.15 11v5.992" id="Line" stroke="#C1F5E6" fill-rule="nonzero"/><rect id="Rectangle-Copy-21" stroke="#13C1AC" fill="#FFF" x="3.998" y="1.998" width="33" height="8" rx="3"/><path d="M33.25 3v5.992M27.25 3v5.992M20.25 3v5.992M13.15 3v5.992" id="Line" stroke="#C1F5E6" fill-rule="nonzero"/><path d="M7.25 3v5.992" id="Line-Copy" stroke="#C1F5E6" fill-rule="nonzero"/><rect id="Rectangle-Copy-21" stroke="#13C1AC" fill="#FFF" x="3" y="26" width="33" height="8" rx="3"/><path d="M31 27v5.992M23 27v5.992M15 27v5.992M7 27v5.992" id="Line" stroke="#C1F5E6" fill-rule="nonzero"/></g></g></g></g></svg>