<svg width="300" height="200" viewBox="0 0 300 200" xmlns="http://www.w3.org/2000/svg"><g id="onboarding" fill="none" fill-rule="evenodd"><g id="onboarding_3" transform="translate(-570 -163)"><g id="Group-4" transform="translate(570 163)"><path id="Rectangle-6" fill-opacity="0" fill="#FFF" fill-rule="nonzero" d="M0 0h300v200H0z"/><circle id="Oval" fill="#C1F5E6" opacity=".5" cx="151" cy="100" r="75"/><g id="Group-9" transform="translate(40 50)" fill-rule="nonzero"><rect id="Rectangle-2" stroke="#13C1AC" stroke-width="3" fill="#FFF" transform="rotate(-33 49.988 54.862)" x="22.048" y="10.094" width="55.881" height="89.537" rx="5"/><g id="Group-14" transform="rotate(-33 68.806 -10.257)" stroke="#C1F5E6" stroke-linecap="round" stroke-width="3"><g id="Group-12"><path d="M.371 9.72C.624 7.772 1.51 6.455 3.028 5.77c2.277-1.026 3.432.187 5.827-.377C11.25 4.829 11.825.72 18.371.72" id="Path-16"/><path d="M18.364 9.672c.252-1.95 1.137-3.267 2.656-3.95 2.278-1.027 3.432.185 5.827-.379 2.396-.563 3.37-4.625 9.916-4.625" id="Path-16" transform="matrix(-1 0 0 1 55.127 0)"/></g></g><rect id="Rectangle-2" stroke="#13C1AC" stroke-width="3" fill="#FFF" transform="rotate(-23 70.358 64.075)" x="42.418" y="19.307" width="55.881" height="89.537" rx="5"/><circle id="Oval-2" stroke="#C1F5E6" stroke-width="3" fill="#FFF" transform="rotate(-20 70.638 64.168)" cx="70.638" cy="64.168" r="16.5"/><path d="M87.463 30.282l9.787-.395c3.89-4.129 8.1-5.24 12.628-3.336 6.793 2.856 23.288 15.715 25.095 22.274 1.808 6.56 2.216 23.204-7.416 27.621-6.421 2.945-12.314 4.566-17.679 4.864l-1.086-2.15L98.04 53.99c-4.114 7.428-6.853 11.764-8.217 13.01-2.047 1.868-10.289 12.095-17.558 8.187-7.27-3.908-4.096-8.935 1.673-17.648 3.846-5.81 9.141-12.615 15.885-20.417l-2.36-6.84z" id="Path-14" fill="#FFF"/><path id="Rectangle-5" fill="#FFF" d="M124 38h64v36h-64z"/><path d="M100.299 52.543C90.235 68.893 81.75 76.599 74.845 75.658c-10.359-1.41-7.806-8.091 0-18.278 7.805-10.186 13.808-19.22 19.498-25.31 5.69-6.089 12.49-7.723 19.443-4.329 6.953 3.394 17.35 13.401 19.871 21.097 2.521 7.696 2.764 15.497-1.951 22.425-4.716 6.928-9.63 8.755-14.566 10.056-3.29.867-6.02.637-8.19-.688" id="Path-12" stroke="#13C1AC" stroke-width="3" stroke-linecap="round"/><path d="M95.5 29.5h-8" id="Line-3" stroke="#13C1AC" stroke-width="3" stroke-linecap="square"/><path d="M98.305 57.626c2.818 3.01 6.47 4.739 10.955 5.19 4.485.45 8.25-.846 11.298-3.889" id="Path-13" stroke="#13C1AC" stroke-width="3" stroke-linecap="round"/><path d="M126.87 38.25h57.137m-55.507 37h50.275" id="Line-4" stroke="#13C1AC" stroke-width="3" stroke-linecap="round"/><g id="Group-14" transform="rotate(-23 117.371 -80.992)" stroke="#C1F5E6" stroke-linecap="round" stroke-width="3"><g id="Group-12"><path d="M.476 9.784c.252-1.95 1.138-3.266 2.656-3.95 2.278-1.026 3.433.186 5.828-.378 2.395-.564 2.97-4.672 9.516-4.672" id="Path-16"/><path d="M18.468 9.735c.252-1.95 1.138-3.266 2.656-3.95 2.278-1.026 3.433.186 5.828-.378 2.395-.564 3.37-4.625 9.916-4.625" id="Path-16" transform="matrix(-1 0 0 1 55.336 0)"/></g></g><g id="Group-14" transform="rotate(159 41.728 53.854)" stroke="#C1F5E6" stroke-linecap="round" stroke-width="3"><g id="Group-12"><path d="M.068 9.359c.252-1.95 1.138-3.267 2.656-3.95 2.278-1.027 3.433.185 5.828-.379 2.395-.563 2.97-4.67 9.516-4.67" id="Path-16"/><path d="M18.06 9.31c.253-1.95 1.138-3.267 2.657-3.951 2.277-1.026 3.432.186 5.827-.378C28.94 4.417 29.914.356 36.46.356" id="Path-16" transform="matrix(-1 0 0 1 54.52 0)"/></g></g></g></g></g></g></svg>