<svg xmlns="http://www.w3.org/2000/svg" width="170" height="130" viewBox="0 0 170 130"><g fill="none" fill-rule="evenodd"><g fill="#FFF" stroke-width="2" transform="rotate(-9 277.446 -630.782)"><rect width="52" height="65" x="1" y="1" stroke="#CFD8DC" rx="3"/><rect width="43" height="53.833" x="5.5" y="6.583" stroke="#ECEFF1" rx="3"/></g><g transform="rotate(-9 404.712 -719.412)"><ellipse cx="25.851" cy="6.509" fill="#FFF" stroke="#13C1AC" rx="2.372" ry="5.853" transform="rotate(1 25.851 6.509)"/><g fill="#FFF" transform="translate(0 7.086)"><rect width="23.128" height="15.172" x=".5" y=".5" stroke="#13C1AC" rx="1"/><rect width="16.234" height="8.241" x="3.947" y="3.966" stroke="#C1F5E6" rx="1"/></g><path fill="#FFF" stroke="#13C1AC" stroke-linecap="round" stroke-linejoin="round" d="M28.177 5.597v14.364l-4.818 2.59.379-15.076z"/><path stroke="#13C1AC" stroke-linecap="round" d="M25.773.806H3.713c-1.01.5-1.805 1.374-2.382 2.62C.753 4.67.509 6.114.597 7.755"/><rect width="2.447" height="2.466" x="10.84" y="6.431" fill="#FFF" stroke="#13C1AC" rx="1"/></g><g fill="#FFF" stroke-width="2" transform="rotate(10 -161.473 383.346)"><rect width="52" height="65" x="1" y="1" stroke="#D0D9DD" rx="3"/><rect width="43" height="53.833" x="5.5" y="6.583" stroke="#ECEFF1" rx="3"/></g><path fill="#FFF" stroke="#13C1AC" d="M80.626 65.535c-1.501 1.948-2.568 3.223-3.2 3.824-2.982 2.839-4.537 4.477-4.445 7.084.181 5.154 5.584 7.369 12.926 7.427 7.343.058 8.711-5.169 5.644-13.02-2.044-5.233-5.686-7.005-10.925-5.315z"/><path stroke="#C1F5E6" stroke-linecap="round" d="M81.536 77.22c-.215 1.218.675 2.394 1.987 2.625 1.312.231 2.55-.569 2.765-1.788.215-1.218-.675-2.394-1.987-2.625-1.312-.232-2.202-1.407-1.987-2.626.215-1.219 1.453-2.019 2.766-1.787 1.312.23 2.201 1.406 1.986 2.625m-2.404-3.036l.23-1.308M82.76 81.396l.23-1.308"/><path stroke="#13C1AC" stroke-linecap="round" stroke-linejoin="round" d="M82.356 83.684c-4.395-.775-5.49-4.224-5.615-7.057"/><path fill="#FFF" stroke="#13C1AC" d="M81.657 63.914c-.278-1.402-.757-2.359-1.44-2.871-1.023-.769-.415-2.54.802-2.44 1.218.098 1.022 1.336 1.945 1.499.923.163 1.782-1.39 3.124-1.034 1.341.357 1.201.782 2.07 1.442.869.661 3.75-1.502 4.633.6.884 2.104-1.184 2.775-2.395 2.817-.808.027-1.172.617-1.093 1.77l-7.646-1.783z"/><path fill="#FFF" stroke="#13C1AC" d="M90.902 65.605c.03-.731-.396-1.28-.914-1.295-.416-.011-.718-.01-1.575.003-.39.006-.611.008-.854.009-.96 0-1.685-.042-2.364-.162-.72-.126-1.393-.336-2.31-.69-.169-.065-.27-.104-.62-.243a24.64 24.64 0 00-1.405-.526c-.491-.163-1.08.206-1.301.903-.227.712.087 1.455.647 1.642a33.08 33.08 0 009.527 1.68c.59.016 1.139-.576 1.17-1.321z"/><path stroke="#C1F5E6" stroke-linecap="round" d="M90.739 75.05c.42 1.318.56 2.384.415 3.2-.144.816-.331 1.426-.562 1.83"/><g transform="rotate(-17 139.558 12.699)" fill="#FFF"><rect width="52" height="65" x="1" y="1" stroke="#D0D9DD" stroke-width="2" rx="3"/><rect width="42.358" height="53.037" x="5.821" y="6.981" stroke="#ECEFF1" stroke-width="2" rx="3"/><g stroke="#13C1AC" transform="translate(16 26)"><rect width="14" height="3" x="2.5" y="9.5" rx="1.5"/><rect width="14" height="3" x=".5" y="6.5" rx="1.5"/><rect width="14" height="3" x=".5" y="3.5" rx="1.5"/><rect width="14" height="3" x="1.5" y=".5" rx="1.5"/><rect width="14" height="3" x="6.5" y="14.5" rx="1.5"/><rect width="14" height="3" x="7.5" y="11.5" rx="1.5"/><rect width="14" height="3" x="6.5" y="8.5" rx="1.5"/></g></g></g></svg>