<svg xmlns="http://www.w3.org/2000/svg" width="120" height="120" viewBox="0 0 120 120"><g fill="none" fill-rule="evenodd" stroke-width="2" transform="translate(15 28)"><path stroke="#CFD8DC" stroke-linecap="round" d="M2 58.006h78M18.8 67.6h31m34-9.8h5.268"/><g fill="#FFF" stroke="#13C1AC" transform="translate(4.8 .6)"><rect width="21" height="6" x="48.2" y="43.4" rx="2"/><rect width="21" height="6" x="49.2" y="37.4" rx="2"/><rect width="21" height="6" x="47.2" y="31.4" rx="2"/><rect width="21" height="6" x="47.2" y="25.4" rx="2"/><rect width="21" height="6" x="50.2" y="19.4" rx="2"/><rect width="21" height="6" x="47.2" y="13.4" rx="2"/><rect width="21" height="6" x="48.2" y="7.4" rx="2"/><rect width="21" height="6" x="50.2" y="49.4" rx="2"/><rect width="21" height="6" x="1.2" y="43.4" rx="2"/><rect width="21" height="6" x="5.2" y="37.4" rx="2"/><rect width="21" height="6" x="4.2" y="31.4" rx="2"/><rect width="21" height="6" x="5.2" y="25.4" rx="2"/><rect width="21" height="6" x="4.2" y="19.4" rx="2"/><rect width="21" height="6" x="7.2" y="13.4" rx="2"/><rect width="21" height="6" x="2.2" y="7.4" rx="2"/><rect width="21" height="6" x="4.2" y="1.4" rx="2"/><rect width="21" height="6" x="3.2" y="49.4" rx="2"/></g><g fill="#FFF" stroke="#13C1AC" transform="translate(33.8 18.6)"><rect width="21" height="6" x="3" y="19" rx="2"/><rect width="21" height="6" x="7" y="25" rx="2"/><rect width="21" height="6" x="4" y="7" rx="2"/><rect width="21" height="6" x="1" y="1" rx="2"/><rect width="21" height="6" x="1" y="13" rx="2"/><rect width="21" height="6" x="3.2" y="31.4" rx="2"/></g><rect width="21" height="6" x="24" y="60" fill="#FFF" stroke="#13C1AC" rx="2"/><rect width="21" height="6" x="25" y="48" fill="#FFF" stroke="#13C1AC" rx="2"/><rect width="21" height="6" x="22" y="42" fill="#FFF" stroke="#13C1AC" rx="2"/><rect width="21" height="6" x="22" y="54" fill="#FFF" stroke="#13C1AC" rx="2"/></g></svg>