<svg xmlns="http://www.w3.org/2000/svg" xmlns:xlink="http://www.w3.org/1999/xlink" width="652" height="215" viewBox="0 0 652 215"><defs><path id="a" d="M.173.05h45.024v53.86H.173z"/><path id="c" d="M.004.022H14.09v14.087H.004z"/><path id="e" d="M.005.027h17.654v17.655H.005z"/><path id="g" d="M0 .504h6.332v6.332H0z"/></defs><g fill="none" fill-rule="evenodd" opacity=".12"><path fill="#FFF" d="M370.24 3.419a3.418 3.418 0 10-6.835 0 3.418 3.418 0 006.836 0M164.774 137.706a6.66 6.66 0 00-6.66-6.66 6.66 6.66 0 100 13.32 6.66 6.66 0 006.66-6.66m143.496 43.686a7.292 7.292 0 10-14.583 0 7.292 7.292 0 0014.583 0m-297.654-73.47a5.077 5.077 0 10-10.154 0 5.077 5.077 0 0010.154 0m542.562 86.261a5.077 5.077 0 10-10.155 0 5.077 5.077 0 0010.155 0M494.479 18.09a4.08 4.08 0 014.242-2.573 4.077 4.077 0 013.617 4.495 33.419 33.419 0 003.742 19.368 4.088 4.088 0 01-1.686 5.52 4.084 4.084 0 01-5.52-1.685 41.555 41.555 0 01-4.648-24.081 4.12 4.12 0 01.253-1.044m17.119 99.675a5.067 5.067 0 01-1.316-9.958 19.415 19.415 0 009.688-6.102 5.065 5.065 0 117.682 6.604 29.472 29.472 0 01-14.734 9.278 5.07 5.07 0 01-1.32.178M412.44 68.208a70.721 70.721 0 01-7.934-25.899 5.062 5.062 0 014.501-5.57 5.066 5.066 0 015.571 4.5c1.295 12.176 6.158 23.55 14.059 32.884a5.073 5.073 0 01-.595 7.137 5.063 5.063 0 01-7.138-.594 71.11 71.11 0 01-8.464-12.458M138.56 15.424c-5.102 0-10.108-1.267-14.76-3.77a3.796 3.796 0 01-1.549-5.144 3.808 3.808 0 015.145-1.548c5.253 2.822 11.082 3.569 16.882 2.169a3.802 3.802 0 014.586 2.8 3.798 3.798 0 01-2.8 4.586 31.885 31.885 0 01-7.504.907M80.078 131.25a5.067 5.067 0 01-1.603-9.873l20.48-6.826a5.06 5.06 0 016.408 3.203 5.066 5.066 0 01-3.203 6.408l-20.48 6.828a5.045 5.045 0 01-1.603.262"/><g transform="rotate(-30 538.56 -743.971)"><mask id="b" fill="#fff"><use xlink:href="#a"/></mask><path fill="#FFF" d="M2.588 53.16a5.063 5.063 0 01-1.85-6.637c3.18-6.174 8.548-7.368 12.467-8.239 3.516-.782 4.731-1.187 5.661-2.99.93-1.806.555-3.03-.846-6.349-1.562-3.698-3.7-8.763-.516-14.934 3.18-6.17 8.546-7.36 12.466-8.23 3.515-.783 4.729-1.186 5.657-2.985a5.063 5.063 0 016.822-2.18c2.499 1.246 3.463 4.335 2.181 6.82-3.18 6.171-8.546 7.362-12.465 8.232-3.516.782-4.73 1.186-5.659 2.985-.929 1.806-.554 3.03.847 6.349 1.562 3.7 3.7 8.763.517 14.934-3.183 6.172-8.548 7.365-12.467 8.237-3.516.782-4.73 1.187-5.663 2.992a5.062 5.062 0 01-7.152 1.995" mask="url(#b)"/></g><path fill="#FFF" d="M216.172 125.477a5.063 5.063 0 01-6.175-3.058c-2.468-6.493.23-11.284 2.201-14.781 1.767-3.14 2.277-4.313 1.559-6.21-.723-1.899-1.886-2.438-5.29-3.613-3.795-1.31-8.992-3.102-11.456-9.594-2.465-6.49.234-11.277 2.205-14.774 1.768-3.138 2.278-4.312 1.56-6.204a5.062 5.062 0 012.936-6.533c2.598-1.025 5.54.32 6.533 2.936 2.465 6.49-.234 11.278-2.204 14.775-1.769 3.137-2.28 4.31-1.561 6.203.722 1.899 1.884 2.438 5.29 3.613 3.795 1.309 8.991 3.101 11.454 9.594 2.466 6.492-.229 11.28-2.2 14.778-1.768 3.14-2.277 4.314-1.558 6.213a5.061 5.061 0 01-3.294 6.655m-104.021 66.501l-3.895-1.344a12.57 12.57 0 01-7.785-7.787l-1.345-3.894a2.333 2.333 0 00-4.411 0l-1.344 3.894a12.573 12.573 0 01-7.789 7.787l-3.893 1.344a2.332 2.332 0 100 4.412l3.893 1.344a12.575 12.575 0 017.789 7.787l1.344 3.893a2.334 2.334 0 104.412 0l1.344-3.893a12.572 12.572 0 017.785-7.787l3.895-1.344a2.332 2.332 0 000-4.412"/><g transform="translate(637.316 107.922)"><mask id="d" fill="#fff"><use xlink:href="#c"/></mask><path fill="#FFF" d="M13.432 6.142L11.8 5.578a5.271 5.271 0 01-3.265-3.265L7.972.682a.977.977 0 00-1.85 0L5.56 2.313a5.268 5.268 0 01-3.265 3.265l-1.631.564a.977.977 0 000 1.849l1.631.563A5.268 5.268 0 015.56 11.82l.564 1.631a.976.976 0 101.849 0l.563-1.631A5.271 5.271 0 0111.8 8.554l1.632-.563a.977.977 0 000-1.85" mask="url(#d)"/></g><g transform="translate(533.896 54.592)"><mask id="f" fill="#fff"><use xlink:href="#e"/></mask><path fill="#FFF" d="M16.834 7.697l-2.046-.707a6.606 6.606 0 01-4.091-4.09L9.99.854a1.224 1.224 0 00-2.317 0L6.966 2.9a6.602 6.602 0 01-4.091 4.09l-2.044.707a1.225 1.225 0 000 2.317l2.044.707a6.602 6.602 0 014.091 4.091l.707 2.044c.17.497.635.826 1.159.826.523 0 .988-.33 1.158-.826l.707-2.044a6.606 6.606 0 014.091-4.091l2.046-.707a1.225 1.225 0 000-2.317" mask="url(#f)"/></g><path fill="#FFF" d="M604.213 148.72l-4.176-1.442a13.488 13.488 0 01-8.348-8.348l-1.438-4.172a2.504 2.504 0 00-4.73 0l-1.439 4.172a13.486 13.486 0 01-8.347 8.348l-4.176 1.441a2.5 2.5 0 100 4.727l4.176 1.442a13.49 13.49 0 018.347 8.348l1.439 4.175a2.505 2.505 0 004.73 0l1.438-4.175a13.494 13.494 0 018.348-8.348l4.176-1.442a2.5 2.5 0 000-4.727M26.287 161.194l-1.905-.658a6.155 6.155 0 01-3.81-3.809l-.657-1.905a1.143 1.143 0 00-2.158 0l-.658 1.905a6.153 6.153 0 01-3.809 3.81l-1.904.657a1.141 1.141 0 000 2.158l1.904.656a6.158 6.158 0 013.81 3.81l.657 1.905a1.141 1.141 0 002.158 0l.657-1.904a6.16 6.16 0 013.81-3.81l1.905-.657a1.141 1.141 0 000-2.158m302.587-28.164a3.801 3.801 0 01-3.675-2.841 3.802 3.802 0 012.72-4.635l11.847-3.082a3.802 3.802 0 014.635 2.72 3.803 3.803 0 01-2.72 4.635l-11.847 3.082a3.898 3.898 0 01-.96.121M305.86 61.493a3.802 3.802 0 01-3.47-2.246 3.801 3.801 0 011.913-5.021l12.241-5.488a3.801 3.801 0 013.107 6.935l-12.24 5.489a3.804 3.804 0 01-1.552.33m269.81-25.15a3.802 3.802 0 01.282-4.124 3.801 3.801 0 015.319-.76l10.734 8.045a3.801 3.801 0 01-4.56 6.08l-10.734-8.046a3.804 3.804 0 01-1.041-1.195m-308.867-9.024a3.815 3.815 0 01-.092-.49l-1.158-9.721a3.8 3.8 0 013.323-4.221 3.777 3.777 0 014.221 3.323l1.16 9.72a3.8 3.8 0 11-7.454 1.388M464.856 74.32a1.899 1.899 0 10-3.798 0 1.899 1.899 0 003.798 0"/><g transform="translate(15.416 41.564)"><mask id="h" fill="#fff"><use xlink:href="#g"/></mask><path fill="#FFF" d="M6.332 3.67a3.167 3.167 0 10-6.334 0 3.167 3.167 0 006.334 0" mask="url(#h)"/></g><path fill="#FFF" d="M432.407 132.655a3.166 3.166 0 10-6.332 0 3.166 3.166 0 006.332 0M90.844 57.711a2.533 2.533 0 10-5.067 0 2.533 2.533 0 005.067 0M631.73 199.028a5.698 5.698 0 10-11.396 0 5.698 5.698 0 0011.396 0"/></g></svg>