<svg xmlns="http://www.w3.org/2000/svg" width="185" height="87" viewBox="0 0 185 87"><g fill="none" fill-rule="evenodd"><rect width="113" height="84" x="71" y="1" stroke="#FFF" stroke-opacity=".5" stroke-width="2" rx="6"/><path stroke="#FFF" stroke-opacity=".2" stroke-width="1.5" d="M72.75 15.75h109.5v1H72.75z"/><path fill="#FFF" fill-rule="nonzero" d="M51.75 76.795c6.27-4.333 7.319-13.398 3.16-27.003 5.287 6.26 12.436 10.41 21.425 12.44a.75.75 0 00.33-1.464c-10.15-2.292-17.817-7.349-23.041-15.184a.748.748 0 00-.183-.19l-.237-.653-1.408.518C59.975 67.505 56.024 78.25 40 78.25c-16.04 0-20.31-10.59-12.796-32.492a.75.75 0 00-1.339-.658c-5.744 9.124-8.453 18.437-8.115 27.927a.75.75 0 101.5-.054c-.253-7.065 1.244-14.037 4.497-20.922-3.156 12.45-1.657 20.785 4.503 24.838V84a.75.75 0 101.5 0v-6.254c2.699 1.333 6.115 2.004 10.25 2.004 4.165 0 7.581-.69 10.25-2.06V84a.75.75 0 101.5 0v-7.205z" opacity=".8"/><path fill="#FFF" fill-rule="nonzero" d="M39.5 48.5c12.15 0 22-9.85 22-22s-9.85-22-22-22-22 9.85-22 22 9.85 22 22 22zm0 1.5C26.521 50 16 39.479 16 26.5S26.521 3 39.5 3 63 13.521 63 26.5 52.479 50 39.5 50z"/><path fill="#FFF" fill-rule="nonzero" d="M43.084 32.624c2.252 1.501 4.58 1.501 6.832 0a.75.75 0 10-.832-1.248c-1.748 1.165-3.42 1.165-5.168 0a.75.75 0 10-.832 1.248z"/><path fill="#FFF" fill-rule="nonzero" d="M15 86.25h42c.414 0 .75-.448.75-1s-.336-1-.75-1H15c-.414 0-.75.448-.75 1s.336 1 .75 1z" opacity=".5"/><path fill="#0F9989" d="M13.626 3.475l-.928-.32a2.992 2.992 0 01-1.853-1.853l-.32-.928a.555.555 0 00-1.05 0l-.32.928c-.3.87-.984 1.553-1.855 1.853l-.926.32a.556.556 0 000 1.05l.926.32A2.995 2.995 0 019.155 6.7l.32.926a.555.555 0 001.05 0l.32-.926c.3-.871.983-1.554 1.853-1.855l.928-.32a.556.556 0 000-1.05m53.14 2.697l-.58-.2a1.872 1.872 0 01-1.158-1.159l-.2-.58a.346.346 0 10-.656 0l-.2.58a1.87 1.87 0 01-1.16 1.158l-.579.2a.346.346 0 000 .656l.58.2a1.87 1.87 0 011.158 1.16l.2.579a.347.347 0 00.656 0l.2-.58c.189-.544.615-.97 1.159-1.158l.58-.2a.346.346 0 000-.656" opacity=".5"/><path fill="#C1F5E6" d="M7.94 44.618l-.965-.333a3.118 3.118 0 01-1.93-1.931l-.333-.964a.58.58 0 00-1.093 0l-.334.964a3.117 3.117 0 01-1.93 1.93l-.965.334a.578.578 0 000 1.093l.965.333a3.12 3.12 0 011.93 1.93l.334.965a.579.579 0 001.093 0l.333-.964a3.121 3.121 0 011.93-1.931l.965-.333a.577.577 0 000-1.093m73.78-2.01l-.696-.24a2.25 2.25 0 01-1.391-1.392l-.24-.695a.417.417 0 00-.787 0l-.24.695a2.248 2.248 0 01-1.39 1.392l-.696.24a.418.418 0 000 .788l.695.24a2.247 2.247 0 011.391 1.392l.24.696a.417.417 0 00.788 0l.239-.696a2.249 2.249 0 011.39-1.391l.696-.241a.416.416 0 000-.788" opacity=".5"/><circle cx="37.5" cy="30.5" r="1.5" fill="#FFF"/><circle cx="55.5" cy="30.5" r="1.5" fill="#FFF"/><g transform="translate(78 7)"><g fill="#0F9989" transform="translate(9 20)"><rect width="4" height="4" x="60" y="4" fill-opacity=".5" rx="1"/><rect width="4" height="4" x="66" y="4" fill-opacity=".5" rx="1"/><rect width="4" height="4" x="72" y="4" fill-opacity=".5" rx="1"/><rect width="4" height="4" x="78" y="4" fill-opacity=".5" rx="1"/><rect width="4" height="4" x="60" y="22" fill-opacity=".5" rx="1"/><rect width="4" height="4" x="66" y="22" fill-opacity=".5" rx="1"/><rect width="4" height="4" x="72" y="22" fill-opacity=".5" rx="1"/><rect width="4" height="4" x="78" y="22" fill-opacity=".5" rx="1"/><rect width="4" height="4" x="60" y="40" fill-opacity=".5" rx="1"/><rect width="4" height="4" x="66" y="40" fill-opacity=".5" rx="1"/><rect width="4" height="4" x="72" y="40" fill-opacity=".5" rx="1"/><rect width="4" height="4" x="78" y="40" fill-opacity=".5" rx="1"/><rect width="12" height="12" fill-opacity=".5" rx="2"/><rect width="12" height="12" y="18" fill-opacity=".5" rx="2"/><rect width="12" height="12" y="36" fill-opacity=".5" rx="2"/><rect width="32" height="4" x="20" y="4" opacity=".5" rx="1"/><rect width="32" height="4" x="20" y="22" opacity=".5" rx="1"/><rect width="32" height="4" x="20" y="40" opacity=".5" rx="1"/></g><circle cx="1.5" cy="1.5" r="1.5" fill="#C1F5E6" opacity=".5"/><circle cx="7.5" cy="1.5" r="1.5" fill="#C1F5E6" opacity=".5"/><circle cx="13.5" cy="1.5" r="1.5" fill="#C1F5E6" opacity=".5"/></g></g></svg>