<svg width="337" height="231" fill="none" xmlns="http://www.w3.org/2000/svg" viewBox="0 0 337 231"><path d="M323 0H.73v219.55H323V0z" fill="#90A4AE"/><path d="M332.27 231H15.15a3.997 3.997 0 01-4-4V7.45a4 4 0 014-4h317.12a4 4 0 014 4V227a3.999 3.999 0 01-4 4zm-313.12-8h309.12V11.45H19.15V223z" fill="#607D8B"/><path d="M177.731 40.65l.41-.33-.4.32a.79.79 0 00-.29.62.737.737 0 000 .22l1 3.16a1.637 1.637 0 01-.56 1.8 1.502 1.502 0 01-1.8 0l-2.59-2a.803.803 0 00-.42-.13.768.768 0 00-.42.13l-2.59 2a1.523 1.523 0 01-1.81 0 1.661 1.661 0 01-.56-1.8l1-3.16a.9.9 0 000-.22.8.8 0 00-.33-.65l-2.55-1.93a1.59 1.59 0 01-.56-1.75 1.52 1.52 0 011.47-1.07h3.3-.18c.43-.14.66-.32.74-.53l1-3.24a1.568 1.568 0 011.47-1.12 1.538 1.538 0 011.46 1.1l1 3.23a1.077 1.077 0 00.75.56h-.18 3.31a1.499 1.499 0 011.46 1.07 1.568 1.568 0 01-.56 1.75l-2.57 1.97z" fill="#fff"/><path d="M177.001 47.74a2.46 2.46 0 01-1.51-.51l-2.4-1.82-2.41 1.82a2.5 2.5 0 01-3 0 2.633 2.633 0 01-.91-2.88l.94-3-2.45-1.85a2.57 2.57 0 01-.91-2.85 2.507 2.507 0 012.42-1.77h3l.94-3a2.516 2.516 0 012.42-1.817 2.518 2.518 0 012.42 1.817l.94 3.05h3a2.51 2.51 0 012.42 1.77 2.588 2.588 0 01-.91 2.85l-2.46 1.86.95 3a2.639 2.639 0 01-.91 2.88 2.44 2.44 0 01-1.58.45zm-3.91-4.4a1.69 1.69 0 011 .32l2.62 2a.51.51 0 00.6 0 .647.647 0 00.21-.7l-1-3.17a1.79 1.79 0 01.48-1.79l.09-.09.42-.32.15-.11 2.05-1.55a.558.558 0 00.21-.65.511.511 0 00-.51-.37h-2.89a.891.891 0 01-.4 0h-.18a.937.937 0 01-.48-.23 1.769 1.769 0 01-.86-1l-1-3.27a.543.543 0 00-.5-.336.537.537 0 00-.5.336l-1 3.24c-.149.43-.457.788-.86 1a.94.94 0 01-.5.24h-.17a1.121 1.121 0 01-.41 0h-2.88a.51.51 0 00-.51.37.557.557 0 00.21.65l2.54 1.93a1.8 1.8 0 01.66 1.94l-1 3.19a.642.642 0 00-.007.38.641.641 0 00.207.32.53.53 0 00.61 0l2.59-2a1.749 1.749 0 011.01-.33z" fill="#607D8B"/><path d="M215.891 53.18l.52-.08-.51.08a.805.805 0 00-.56.39c-.037.064-.067.13-.09.2l-.72 3.24a1.638 1.638 0 01-1.39 1.27 1.5 1.5 0 01-.93-.18 1.524 1.524 0 01-.63-.72l-1.26-3a.745.745 0 00-.3-.33.63.63 0 00-.42-.09l-3.23.4a1.498 1.498 0 01-1.57-.9 1.65 1.65 0 01.41-1.84l2.44-2.24c.053-.055.1-.115.14-.18a.825.825 0 000-.73l-1.25-2.94a1.593 1.593 0 01.4-1.8 1.519 1.519 0 011.8-.19l2.86 1.65-.17-.06a1.11 1.11 0 00.91-.09l2.49-2.31a1.518 1.518 0 012.468.492c.129.306.155.646.072.968l-.76 3.28a1.099 1.099 0 00.37.87l-.14-.12 2.86 1.65a1.516 1.516 0 01.74 1.66 1.606 1.606 0 01-1.36 1.24l-3.19.41z" fill="#fff"/><path d="M213 59.3a2.492 2.492 0 01-1.24-.34 2.442 2.442 0 01-1-1.19L209.49 55l-3 .37a2.47 2.47 0 01-2.61-1.51 2.638 2.638 0 01.65-2.95l2.33-2.14-1.2-2.83a2.57 2.57 0 01.64-2.92 2.52 2.52 0 013-.32l2.57 1.48 2.34-2.16a2.521 2.521 0 014.19 2.41l-.71 3.11 2.57 1.49a2.497 2.497 0 011.21 2.74 2.571 2.571 0 01-2.21 2l-3.06.38-.68 3.08a2.638 2.638 0 01-2.23 2.05l-.29.02zm-3.34-6.3a1.7 1.7 0 01.86.23c.307.18.551.448.7.77l1.28 3a.488.488 0 00.52.3.654.654 0 00.53-.5l.73-3.23a1.768 1.768 0 011.34-1.34h.12l.52-.08h.18l2.55-.31a.6.6 0 00.51-.47.496.496 0 00-.26-.57l-2.5-1.44a1.093 1.093 0 01-.35-.19l-.14-.11a1.004 1.004 0 01-.31-.44 1.805 1.805 0 01-.27-1.26l.76-3.34a.542.542 0 00-.24-.6.56.56 0 00-.65.11l-2.48 2.3a1.83 1.83 0 01-1.23.41 1 1 0 01-.54-.05l-.17-.06a1.001 1.001 0 01-.34-.22l-2.5-1.44a.509.509 0 00-.63.06.588.588 0 00-.15.67l1.25 2.95a1.755 1.755 0 01-.09 1.61 1.599 1.599 0 01-.31.39l-2.46 2.27a.64.64 0 00-.17.71c.048.097.12.18.21.24a.54.54 0 00.31.06l3.23-.41.19-.02z" fill="#607D8B"/><path d="M242.58 83.27l.49.19-.48-.18a.782.782 0 00-.86.19l-2.25 2.43a1.635 1.635 0 01-1.83.42 1.501 1.501 0 01-.71-.63 1.464 1.464 0 01-.19-.94l.4-3.22a.695.695 0 00-.09-.43.765.765 0 00-.32-.3l-3-1.26a1.482 1.482 0 01-.72-.63 1.533 1.533 0 01-.19-.94 1.647 1.647 0 011.28-1.38l3.23-.73a.775.775 0 00.6-.69l.4-3.17a1.578 1.578 0 011.24-1.36 1.499 1.499 0 011.65.73l1.66 2.87-.12-.14a1.112 1.112 0 00.84.37l3.3-.75a1.522 1.522 0 011.901 1.654 1.52 1.52 0 01-.421.876l-2.3 2.47a1.08 1.08 0 00-.11.93l-.07-.17 1.66 2.86a1.51 1.51 0 01-.2 1.8 1.548 1.548 0 01-1.79.39l-3-1.26z" fill="#fff"/><path d="M238.27 87.44a2.752 2.752 0 01-1-.2 2.478 2.478 0 01-1.5-2.61l.37-3-2.78-1.17a2.512 2.512 0 01-1.51-2.61 2.643 2.643 0 012.05-2.23l3.08-.7.38-3a2.564 2.564 0 012-2.21 2.509 2.509 0 012.74 1.2l1.49 2.58 3.1-.71a2.56 2.56 0 012.79 1.19 2.527 2.527 0 01-.36 3l-2.12 2.3 1.48 2.57a2.521 2.521 0 01-.32 3 2.571 2.571 0 01-2.92.64l-2.84-1.2-2.13 2.32a2.646 2.646 0 01-2 .84zm1.65-15.84h-.12a.572.572 0 00-.47.5l-.39 3.17a1.784 1.784 0 01-1.34 1.54l-3.27.74a.626.626 0 00-.5.53.418.418 0 00.06.31.5.5 0 00.24.21l3 1.26c.333.15.609.403.79.72.177.302.258.651.23 1l-.41 3.25c-.011.11.01.221.06.32.06.09.143.163.24.21a.66.66 0 00.71-.17l2.25-2.44a1.78 1.78 0 011.82-.49h.12l.49.19.17.08 2.37 1a.57.57 0 00.67-.15.512.512 0 00.06-.62l-1.44-2.5A1.003 1.003 0 01245 80l-.06-.17a1.008 1.008 0 01-.05-.53 1.8 1.8 0 01.39-1.22l2.33-2.51a.552.552 0 00.1-.64.577.577 0 00-.62-.24l-3.3.75a1.74 1.74 0 01-1.26-.26.88.88 0 01-.45-.31l-.12-.14a1.006 1.006 0 01-.19-.36l-1.44-2.5a.514.514 0 00-.41-.27z" fill="#607D8B"/><path d="M250.29 122.67l.33.41-.32-.4a.798.798 0 00-.62-.29.81.81 0 00-.22 0l-3.16 1a1.661 1.661 0 01-1.8-.56 1.514 1.514 0 010-1.81l2-2.59a.796.796 0 00.13-.42.708.708 0 00-.13-.41l-2-2.6a1.514 1.514 0 010-1.81 1.662 1.662 0 011.8-.56l3.16 1h.22a.791.791 0 00.65-.33l1.93-2.55a1.566 1.566 0 011.75-.55 1.504 1.504 0 011.07 1.46V115v-.17c.14.42.32.66.53.73l3.24 1a1.548 1.548 0 011.12 1.46 1.532 1.532 0 01-1.1 1.46l-3.23 1c-.24.08-.42.32-.56.75v-.18 3.3a1.519 1.519 0 01-1.07 1.47 1.586 1.586 0 01-1.75-.56l-1.97-2.59z" fill="#fff"/><path d="M253.521 126.9a2.54 2.54 0 01-2.06-1l-1.86-2.46-3 .95a2.627 2.627 0 01-2.88-.91 2.476 2.476 0 010-3l1.82-2.41-1.82-2.41a2.476 2.476 0 010-3 2.632 2.632 0 012.88-.91l3 .94 1.85-2.45a2.588 2.588 0 012.85-.91 2.51 2.51 0 011.77 2.42v3l3 .94a2.522 2.522 0 011.312 3.933 2.516 2.516 0 01-1.312.907l-3.05.94v3a2.506 2.506 0 01-1.77 2.42 2.745 2.745 0 01-.73.01zm-2-4.29l1.55 2.05a.577.577 0 00.66.21.512.512 0 00.37-.51v-2.88a.945.945 0 010-.41v-.17a.995.995 0 01.22-.49 1.828 1.828 0 011-.86l3.27-1a.55.55 0 00.4-.51.572.572 0 00-.42-.51l-3.23-1a1.747 1.747 0 01-1-.86 1 1 0 01-.24-.49V115a.945.945 0 010-.41v-2.89a.514.514 0 00-.37-.51.577.577 0 00-.66.21l-1.92 2.54a1.801 1.801 0 01-1.94.66l-3.19-1a.634.634 0 00-.7.21.474.474 0 00-.1.3.486.486 0 00.1.3l2 2.59c.21.292.325.641.33 1 0 .359-.112.708-.32 1l-2 2.61a.486.486 0 00-.1.3.5.5 0 00.1.31.655.655 0 00.7.2l3.16-1a1.79 1.79 0 011.84.5l.07.09.33.41a.639.639 0 01.07.19h.02z" fill="#607D8B"/><path d="M237.94 160.83l.07.52-.07-.51a.8.8 0 00-.39-.56.583.583 0 00-.21-.08l-3.23-.73a1.65 1.65 0 01-1.28-1.38 1.533 1.533 0 01.19-.94 1.48 1.48 0 01.72-.63l3-1.26a.84.84 0 00.33-.29.668.668 0 00.09-.43l-.4-3.23a1.506 1.506 0 01.9-1.57 1.64 1.64 0 011.83.42l2.25 2.43a.74.74 0 00.18.14.805.805 0 00.72 0l2.95-1.24a1.549 1.549 0 011.79.39 1.506 1.506 0 01.2 1.8l-1.66 2.86.07-.17a1.111 1.111 0 00.09.91l2.31 2.49a1.57 1.57 0 01.23 1.82 1.538 1.538 0 01-1.69.72l-3.29-.75a1.056 1.056 0 00-.86.36l.12-.14-1.66 2.87a1.499 1.499 0 01-1.65.73 1.571 1.571 0 01-1.24-1.36l-.41-3.19z" fill="#fff"/><path d="M239.921 166.46a2.577 2.577 0 01-2.57-2.28l-.38-3.05-3.08-.69a2.64 2.64 0 01-2.05-2.23 2.44 2.44 0 01.32-1.56c.28-.452.697-.802 1.19-1l2.78-1.17-.37-3a2.477 2.477 0 011.5-2.61 2.64 2.64 0 013 .66l2.14 2.32 2.83-1.2a2.57 2.57 0 012.92.64 2.523 2.523 0 01.32 3l-1.47 2.5 2.16 2.34a2.523 2.523 0 01.361 2.996 2.52 2.52 0 01-2.771 1.194l-3.11-.71-1.49 2.58a2.52 2.52 0 01-2.23 1.27zm-.91-5.08l.32 2.56a.566.566 0 00.47.5.503.503 0 00.57-.25l1.44-2.5c.038-.132.103-.254.19-.36l.12-.14a.927.927 0 01.45-.31 1.761 1.761 0 011.24-.27l3.34.76a.525.525 0 00.6-.24.576.576 0 00-.11-.65l-2.3-2.48a1.838 1.838 0 01-.41-1.22 1.003 1.003 0 01.05-.55l.06-.17a.99.99 0 01.22-.34l1.44-2.5a.514.514 0 00-.06-.62.57.57 0 00-.67-.15l-3 1.24a1.755 1.755 0 01-1.61-.09 1.834 1.834 0 01-.39-.3l-2.27-2.47a.655.655 0 00-.71-.16.521.521 0 00-.24.2.582.582 0 00-.06.32l.4 3.23c.03.347-.043.695-.21 1a1.82 1.82 0 01-.77.71l-3 1.27a.55.55 0 00-.24.21.428.428 0 00-.06.31.629.629 0 00.5.53l3.23.73a1.804 1.804 0 011.34 1.33v.13l.07.52a.54.54 0 01.05.22h.01z" fill="#607D8B"/><path d="M207.851 187.52l-.19.49.18-.48a.784.784 0 000-.68.906.906 0 00-.14-.18l-2.44-2.24a1.65 1.65 0 01-.41-1.84c.127-.298.348-.548.63-.71.285-.162.614-.229.94-.19l3.22.4a.65.65 0 00.36-.09.646.646 0 00.29-.32l1.27-3c.13-.3.35-.551.63-.72.285-.16.615-.223.94-.18a1.64 1.64 0 011.38 1.27l.72 3.24c.019.071.05.138.09.2a.768.768 0 00.61.4l3.17.39a1.607 1.607 0 011.36 1.24 1.522 1.522 0 01-.74 1.66l-2.86 1.65.14-.11a1.074 1.074 0 00-.37.83l.75 3.3a1.554 1.554 0 01-.71 1.7 1.529 1.529 0 01-1.82-.22l-2.45-2.33a1.082 1.082 0 00-.93-.11l.17-.06-2.86 1.65a1.52 1.52 0 01-1.8-.19 1.586 1.586 0 01-.4-1.8l1.27-2.97z" fill="#fff"/><path d="M215.94 194.76a2.58 2.58 0 01-1.75-.7l-2.34-2.17-2.57 1.49a2.529 2.529 0 01-3-.33 2.57 2.57 0 01-.64-2.92l1.2-2.84-2.32-2.13a2.64 2.64 0 01-.66-3 2.477 2.477 0 012.61-1.5l3 .37 1.18-2.78a2.442 2.442 0 011-1.19 2.552 2.552 0 011.56-.32 2.639 2.639 0 012.23 2.05l.69 3.08 3.05.38a2.57 2.57 0 012.21 2 2.495 2.495 0 01-1.21 2.74l-2.57 1.49.71 3.1a2.543 2.543 0 01-1.19 2.79 2.45 2.45 0 01-1.19.39zm-4.07-4.89c.426-.012.841.13 1.17.4l2.51 2.33a.55.55 0 00.64.09.57.57 0 00.23-.62l-.75-3.3a1.846 1.846 0 01.26-1.26c.066-.178.176-.337.32-.46l.14-.11c.104-.084.223-.149.35-.19l2.5-1.44a.505.505 0 00.231-.239.503.503 0 00.029-.331.597.597 0 00-.51-.47l-3.17-.39a1.766 1.766 0 01-1.53-1.35l-.74-3.26a.649.649 0 00-.53-.5.546.546 0 00-.31.06.497.497 0 00-.21.24l-1.27 3a1.695 1.695 0 01-1.73 1l-3.26-.41a.546.546 0 00-.31.06.587.587 0 00-.21.25.636.636 0 00.17.7l2.44 2.25c.125.125.235.262.33.41a1.83 1.83 0 01.16 1.41.565.565 0 010 .13l-.19.49a1.26 1.26 0 01-.09.16l-1 2.37a.589.589 0 00.15.67.51.51 0 00.63.06l2.5-1.44a1 1 0 01.34-.22l.17-.06c.169-.064.352-.081.53-.05l.01.02z" fill="#607D8B"/><path d="M168.451 195.55l-.41.33.4-.32a.817.817 0 00.29-.62.737.737 0 000-.22l-1-3.17a1.649 1.649 0 01.56-1.79 1.518 1.518 0 011.81 0l2.59 2a.71.71 0 00.83.01l2.6-2c.259-.196.575-.301.9-.3.327 0 .646.105.91.3a1.632 1.632 0 01.55 1.79l-1 3.17a.9.9 0 000 .22.817.817 0 00.34.65l2.54 1.93a1.567 1.567 0 01.56 1.75 1.488 1.488 0 01-1.46 1.06h-3.31.18c-.42.14-.66.32-.73.53l-1 3.24a1.52 1.52 0 01-2.93 0l-1-3.22c-.09-.24-.32-.42-.75-.56h.18-3.3a1.512 1.512 0 01-1.47-1.06 1.582 1.582 0 01.56-1.75l2.56-1.97z" fill="#fff"/><path d="M173.091 206.2a2.54 2.54 0 01-2.42-1.81l-.94-3.06h-3a2.518 2.518 0 01-2.42-1.76 2.558 2.558 0 01.91-2.85l2.45-1.86-.94-3a2.647 2.647 0 01.91-2.89 2.535 2.535 0 013 0l2.41 1.83 2.4-1.83a2.549 2.549 0 013 0 2.648 2.648 0 01.91 2.89l-.94 3 2.45 1.86a2.597 2.597 0 01.91 2.85 2.524 2.524 0 01-2.42 1.76h-3l-.94 3.05a2.552 2.552 0 01-2.33 1.82zm-2.38-6.63c.391.203.696.54.86.95l1 3.28a.537.537 0 00.51.4.572.572 0 00.51-.42l1-3.23c.147-.432.455-.79.86-1a.919.919 0 01.49-.23h.18c.132-.025.267-.025.4 0h2.89a.496.496 0 00.51-.36.584.584 0 00-.21-.66l-2.55-1.93a1.793 1.793 0 01-.73-1.44c.003-.166.027-.33.07-.49l1-3.19a.646.646 0 00.002-.382.646.646 0 00-.212-.318.483.483 0 00-.6 0l-2.59 2a1.74 1.74 0 01-2 0l-2.61-2a.504.504 0 00-.61 0 .65.65 0 00-.2.7l1 3.16c.05.169.077.344.08.52a1.796 1.796 0 01-.57 1.31l-.09.08-.41.33-.15.1-2.05 1.55a.578.578 0 00-.21.66.496.496 0 00.51.36h2.88c.132-.025.267-.025.4 0h.18c.172.041.331.127.46.25z" fill="#607D8B"/><path d="M130.29 182.88l-.52.08.5-.08a.802.802 0 00.57-.39.63.63 0 00.08-.2l.73-3.24a1.633 1.633 0 011.38-1.27 1.467 1.467 0 011.57.9l1.26 3c.06.135.162.247.29.32a.67.67 0 00.43.09l3.23-.4c.323-.039.649.028.93.19.284.159.506.409.63.71a1.633 1.633 0 01-.41 1.84l-2.44 2.24a1.057 1.057 0 00-.13.18.8.8 0 000 .73l1.24 2.94a1.57 1.57 0 01-1.258 2.19 1.534 1.534 0 01-.932-.2l-2.86-1.65.17.06a1.052 1.052 0 00-.91.1l-2.49 2.3a1.519 1.519 0 01-2.54-1.45l.75-3.29a1.101 1.101 0 00-.37-.87l.14.12-2.86-1.65a1.518 1.518 0 01-.73-1.66 1.605 1.605 0 011.36-1.24l3.19-.4z" fill="#fff"/><path d="M130.231 194.75a2.5 2.5 0 01-2.44-3.1l.72-3.12-2.58-1.53a2.525 2.525 0 01-1.21-2.74 2.582 2.582 0 012.21-2l3.06-.38.68-3.08c.119-.53.398-1.01.799-1.376.4-.367.903-.602 1.441-.674a2.572 2.572 0 011.56.32c.452.28.802.697 1 1.19l1.17 2.78 3-.37a2.48 2.48 0 012.62 1.5 2.653 2.653 0 01-.66 3l-2.32 2.14 1.19 2.83a2.576 2.576 0 01-.63 2.92 2.54 2.54 0 01-3 .33l-2.57-1.49-2.27 2.15a2.6 2.6 0 01-1.77.7zm0-7.26c.237.374.333.821.27 1.26l-.77 3.34a.566.566 0 00.24.6.564.564 0 00.65-.11l2.49-2.3a1.7 1.7 0 011.22-.4.937.937 0 01.55 0l.17.06a.99.99 0 01.34.22l2.5 1.44a.497.497 0 00.62-.06.57.57 0 00.15-.67l-1.24-3a1.76 1.76 0 01.09-1.61c.083-.142.184-.273.3-.39l2.47-2.27a.649.649 0 00.16-.71.487.487 0 00-.52-.3l-3.23.41a1.709 1.709 0 01-1.75-1l-1.28-3a.481.481 0 00-.2-.24.49.49 0 00-.32-.06.631.631 0 00-.52.5l-.73 3.24a1.812 1.812 0 01-1.34 1.33h-.12l-.52.08h-.19l-2.55.31a.602.602 0 00-.51.47.514.514 0 00.26.57l2.5 1.44c.132.038.254.103.36.19l.14.11c.158.148.269.339.32.55h-.01z" fill="#607D8B"/><path d="M103.601 152.79l-.49-.19.48.18a.784.784 0 00.68 0 .603.603 0 00.17-.14l2.25-2.43a1.646 1.646 0 011.83-.42c.303.125.556.346.72.63.162.285.229.614.19.94l-.41 3.22a.713.713 0 00.1.43.657.657 0 00.32.3l3 1.26a1.506 1.506 0 01.9 1.57 1.642 1.642 0 01-1.27 1.38l-3.24.73a.794.794 0 00-.6.69l-.39 3.17a1.6 1.6 0 01-1.24 1.36 1.504 1.504 0 01-1.66-.73l-1.65-2.87.11.14a1.13 1.13 0 00-.83-.37l-3.31.75a1.516 1.516 0 01-1.693-.708 1.523 1.523 0 01.223-1.822l2.29-2.47a1.006 1.006 0 00.12-.93l.06.17-1.65-2.86a1.5 1.5 0 01.19-1.8 1.572 1.572 0 011.8-.39l3 1.21z" fill="#fff"/><path d="M106.26 166.46a2.506 2.506 0 01-2.18-1.27l-1.49-2.58-3.11.71a2.516 2.516 0 01-2.778-1.181 2.522 2.522 0 01.348-2.999l2.18-2.35-1.49-2.57a2.54 2.54 0 01.33-3 2.595 2.595 0 012.92-.64l2.84 1.2 2.13-2.32a2.63 2.63 0 012.95-.66c.502.213.922.581 1.2 1.05.272.472.381 1.02.31 1.56l-.37 3 2.78 1.17a2.48 2.48 0 011.5 2.61 2.615 2.615 0 01-2 2.23l-3.08.7-.38 3a2.593 2.593 0 01-2 2.22 2.746 2.746 0 01-.61.12zm-1.9-4.77l1.45 2.5a.497.497 0 00.57.25.55.55 0 00.46-.5l.4-3.17a1.82 1.82 0 01.88-1.36c.146-.079.3-.139.46-.18l3.27-.74a.635.635 0 00.5-.53.555.555 0 00-.06-.31.602.602 0 00-.24-.21l-3-1.26a1.762 1.762 0 01-.8-.72 1.69 1.69 0 01-.22-1l.41-3.26a.498.498 0 00-.31-.53.657.657 0 00-.7.17l-2.25 2.44a1.84 1.84 0 01-.41.33 1.747 1.747 0 01-1.41.16h-.13l-.49-.19-.16-.08-2.37-1a.57.57 0 00-.67.15.5.5 0 00-.06.62l1.44 2.5a.999.999 0 01.21.34l.07.17a.937.937 0 010 .55c.025.435-.114.863-.39 1.2l-2.33 2.51a.53.53 0 00.52.88l3.31-.75c.438-.076.889.016 1.26.26a.914.914 0 01.45.31l.12.14a.858.858 0 01.22.31z" fill="#607D8B"/><path d="M95.39 113.39l-.33-.41.32.4a.806.806 0 00.62.29.81.81 0 00.22 0l3.17-1a1.652 1.652 0 011.79.56c.196.263.302.582.3.91.002.325-.104.641-.3.9l-2 2.59a.71.71 0 00-.01.83l2 2.6c.196.259.302.575.3.9.002.328-.104.647-.3.91a1.65 1.65 0 01-1.79.56l-3.17-1h-.22a.81.81 0 00-.65.33l-1.93 2.55a1.588 1.588 0 01-1.75.56 1.519 1.519 0 01-1.07-1.47v-3.3.18c-.14-.43-.32-.66-.53-.74l-3.24-1a1.55 1.55 0 01-1.12-1.46 1.518 1.518 0 011.11-1.46l3.22-1c.24-.08.42-.32.56-.74v.17-3.3a1.52 1.52 0 011.07-1.47 1.587 1.587 0 011.75.56l1.98 2.55z" fill="#fff"/><path d="M92.17 126.9a2.78 2.78 0 01-.8-.12 2.527 2.527 0 01-1.77-2.42v-3l-3-.94a2.521 2.521 0 010-4.84l3-.94v-3a2.533 2.533 0 011.77-2.42 2.583 2.583 0 012.85.91l1.86 2.46 3-.95a2.642 2.642 0 012.89.91c.328.435.503.965.5 1.51a2.404 2.404 0 01-.51 1.5l-1.81 2.44 1.83 2.41c.326.432.502.959.5 1.5a2.435 2.435 0 01-.51 1.51 2.632 2.632 0 01-2.88.91l-3-.94-1.85 2.45a2.545 2.545 0 01-2.07 1.06zm-.57-5.42v2.88a.511.511 0 00.37.51.576.576 0 00.66-.21l1.92-2.54a1.801 1.801 0 011.94-.66l3.19 1a.634.634 0 00.7-.21.468.468 0 00.1-.3.486.486 0 00-.1-.3l-2-2.59a1.709 1.709 0 010-2l2-2.61a.517.517 0 000-.61.644.644 0 00-.7-.2l-3.16 1a1.774 1.774 0 01-1.83-.5l-.08-.09-.33-.41-.1-.15-1.55-2.05a.577.577 0 00-.66-.21.506.506 0 00-.37.51v2.88c.03.135.03.275 0 .41v.18a.998.998 0 01-.22.48c-.215.4-.572.707-1 .86l-3.28 1a.55.55 0 00-.4.51.57.57 0 00.42.51l3.23 1c.428.153.785.46 1 .86a.93.93 0 01.23.49v.18a.94.94 0 01.02.38z" fill="#607D8B"/><path d="M108.24 75.23l-.08-.52.08.51a.784.784 0 00.59.64l3.24.73a1.638 1.638 0 011.27 1.38c.045.326-.022.657-.19.94a1.497 1.497 0 01-.71.63l-3 1.26a.73.73 0 00-.42.72l.41 3.23c.039.326-.027.655-.19.94a1.478 1.478 0 01-.72.63 1.647 1.647 0 01-1.83-.42l-2.25-2.43a.536.536 0 00-.17-.14.817.817 0 00-.73 0l-2.94 1.24a1.569 1.569 0 01-1.8-.39 1.5 1.5 0 01-.19-1.8l1.65-2.86-.06.17a1.056 1.056 0 00-.1-.91l-2.3-2.49a1.52 1.52 0 011.45-2.54l3.29.75a1.05 1.05 0 00.86-.36l-.11.14 1.65-2.87a1.515 1.515 0 011.66-.73 1.597 1.597 0 011.24 1.36l.4 3.19z" fill="#fff"/><path d="M107.911 87.44a2.647 2.647 0 01-1.95-.86l-2.14-2.32-2.83 1.2a2.57 2.57 0 01-2.92-.64 2.54 2.54 0 01-.33-3l1.49-2.57-2.16-2.34a2.51 2.51 0 012.4-4.19l3.12.71 1.49-2.58a2.505 2.505 0 012.74-1.2 2.567 2.567 0 012 2.21l.38 3.05 3.08.69a2.623 2.623 0 012 2.23 2.48 2.48 0 01-1.5 2.61l-2.78 1.17.37 3c.068.54-.04 1.087-.31 1.56a2.563 2.563 0 01-1.2 1.05 2.665 2.665 0 01-.95.22zm-4-5.22c.316 0 .626.083.9.24.14.085.271.186.39.3l2.27 2.47a.64.64 0 00.7.17.483.483 0 00.31-.53l-.41-3.23c-.04-.364.037-.732.22-1.05a1.8 1.8 0 01.77-.7l3-1.27a.611.611 0 00.24-.21.563.563 0 00.06-.32.646.646 0 00-.5-.52l-3.24-.73a1.797 1.797 0 01-1.34-1.35v-.11l-.08-.52a1.205 1.205 0 010-.19l-.32-2.55a.55.55 0 00-.46-.5.49.49 0 00-.57.25l-1.45 2.51a.908.908 0 01-.18.35l-.12.14a1.004 1.004 0 01-.44.31 1.77 1.77 0 01-1.25.27l-3.34-.76a.53.53 0 00-.6.24.54.54 0 00.11.64l2.3 2.49c.28.343.423.778.4 1.22.055.18.055.37 0 .55l-.07.17a1.011 1.011 0 01-.21.34l-1.44 2.5a.51.51 0 00.06.63.58.58 0 00.67.14l2.94-1.24c.202-.09.419-.14.64-.15h.04z" fill="#607D8B"/><path d="M138.33 48.54l.19-.49-.19.48a.817.817 0 00.06.68c.039.063.082.124.13.18l2.44 2.24a1.633 1.633 0 01.41 1.84 1.498 1.498 0 01-1.56.9l-3.23-.4a.611.611 0 00-.42.09.665.665 0 00-.3.32l-1.26 3a1.469 1.469 0 01-1.57.9 1.633 1.633 0 01-1.38-1.27l-.73-3.24a.805.805 0 00-.69-.6l-3.17-.39a1.603 1.603 0 01-1.36-1.24 1.522 1.522 0 01.73-1.66l2.87-1.65-.14.12a1.156 1.156 0 00.37-.84l-.75-3.3a1.52 1.52 0 012.52-1.48l2.48 2.3a1.083 1.083 0 00.93.11l-.17.06 2.86-1.65a1.532 1.532 0 011.8.19 1.566 1.566 0 01.39 1.8l-1.26 3z" fill="#fff"/><path d="M133.221 59.3h-.31a2.658 2.658 0 01-2.24-2.05l-.69-3.08-3.05-.38a2.58 2.58 0 01-2.21-2 2.528 2.528 0 011.21-2.74l2.58-1.49-.71-3.1a2.518 2.518 0 012.743-3.166c.55.068 1.062.317 1.457.706l2.35 2.17 2.57-1.48a2.518 2.518 0 013 .32 2.578 2.578 0 01.63 2.92l-1.19 2.84 2.32 2.13a2.631 2.631 0 01.65 3 2.461 2.461 0 01-2.6 1.5l-3-.37-1.17 2.78a2.49 2.49 0 01-1 1.19c-.41.222-.874.326-1.34.3zm-3.79-10l-2.5 1.44a.519.519 0 00-.26.57.602.602 0 00.51.47l3.17.39a1.8 1.8 0 011.36.89c.082.144.143.299.18.46l.74 3.26a.629.629 0 00.52.5.5.5 0 00.32-.06.483.483 0 00.2-.24l1.27-3c.153-.333.404-.612.72-.8a1.75 1.75 0 011-.22l3.26.41a.488.488 0 00.52-.3.648.648 0 00-.16-.71l-2.44-2.25a1.715 1.715 0 01-.32-.4 1.725 1.725 0 01-.17-1.42.602.602 0 010-.12l.19-.5c.022-.055.049-.109.08-.16l1-2.37a.572.572 0 00-.15-.67.5.5 0 00-.62-.06l-2.5 1.44a1.11 1.11 0 01-.34.22l-.17.06a1 1 0 01-.55.05 1.838 1.838 0 01-1.2-.39l-2.52-2.34a.571.571 0 00-.64-.09.579.579 0 00-.23.62l.75 3.3c.077.438-.016.889-.26 1.26-.06.176-.167.332-.31.45l-.14.12a.999.999 0 01-.31.2v-.01z" fill="#607D8B"/><path d="M177.731 40.65l.41-.33-.4.32a.79.79 0 00-.29.62.737.737 0 000 .22l1 3.16a1.637 1.637 0 01-.56 1.8 1.502 1.502 0 01-1.8 0l-2.59-2a.803.803 0 00-.42-.13.768.768 0 00-.42.13l-2.59 2a1.523 1.523 0 01-1.81 0 1.661 1.661 0 01-.56-1.8l1-3.16a.9.9 0 000-.22.8.8 0 00-.33-.65l-2.55-1.93a1.59 1.59 0 01-.56-1.75 1.52 1.52 0 011.47-1.07h3.3-.18c.43-.14.66-.32.74-.53l1-3.24a1.568 1.568 0 011.47-1.12 1.538 1.538 0 011.46 1.1l1 3.23a1.077 1.077 0 00.75.56h-.18 3.31a1.499 1.499 0 011.46 1.07 1.568 1.568 0 01-.56 1.75l-2.57 1.97z" fill="#fff"/><path d="M177.001 47.74a2.46 2.46 0 01-1.51-.51l-2.4-1.82-2.41 1.82a2.5 2.5 0 01-3 0 2.633 2.633 0 01-.91-2.88l.94-3-2.45-1.85a2.57 2.57 0 01-.91-2.85 2.507 2.507 0 012.42-1.77h3l.94-3a2.516 2.516 0 012.42-1.817 2.518 2.518 0 012.42 1.817l.94 3.05h3a2.51 2.51 0 012.42 1.77 2.588 2.588 0 01-.91 2.85l-2.46 1.86.95 3a2.639 2.639 0 01-.91 2.88 2.44 2.44 0 01-1.58.45zm-3.91-4.4a1.69 1.69 0 011 .32l2.62 2a.51.51 0 00.6 0 .647.647 0 00.21-.7l-1-3.17a1.79 1.79 0 01.48-1.79l.09-.09.42-.32.15-.11 2.05-1.55a.558.558 0 00.21-.65.511.511 0 00-.51-.37h-2.89a.891.891 0 01-.4 0h-.18a.937.937 0 01-.48-.23 1.769 1.769 0 01-.86-1l-1-3.27a.543.543 0 00-.5-.336.537.537 0 00-.5.336l-1 3.24c-.149.43-.457.788-.86 1a.94.94 0 01-.5.24h-.17a1.121 1.121 0 01-.41 0h-2.88a.51.51 0 00-.51.37.557.557 0 00.21.65l2.54 1.93a1.8 1.8 0 01.66 1.94l-1 3.19a.642.642 0 00-.007.38.641.641 0 00.207.32.53.53 0 00.61 0l2.59-2a1.749 1.749 0 011.01-.33z" fill="#607D8B"/></svg>