<svg width="600" height="600" fill="none" xmlns="http://www.w3.org/2000/svg"><path d="M332.39 445.2c66.826 0 121-54.174 121-121s-54.174-121-121-121c-66.827 0-121 54.174-121 121s54.173 121 121 121z" fill="#CFD8DC"/><path d="M341.39 456.21a125 125 0 11125-125 125.139 125.139 0 01-125 125zm0-242a117.002 117.002 0 00-82.732 199.732 117.01 117.01 0 0059.906 32.02A117.006 117.006 0 00458.39 331.21a117.128 117.128 0 00-117-117z" fill="#607D8B"/><path d="M341.39 275.21a229.806 229.806 0 01-93.13-19.5 3.998 3.998 0 01-1.95-5.226 4 4 0 015.17-2.094 224.176 224.176 0 00179.82 0 3.998 3.998 0 015.373 2.005 4.005 4.005 0 01.046 3.112 3.992 3.992 0 01-2.199 2.203 229.81 229.81 0 01-93.13 19.5zM250 414.52a4.003 4.003 0 01-3.92-3.172 3.998 3.998 0 012.3-4.488 232.238 232.238 0 01186.26-.32 4 4 0 01-3.21 7.33 224.215 224.215 0 00-179.81.31 4.071 4.071 0 01-1.62.34z" fill="#607D8B"/><path d="M325.22 455.13a4.008 4.008 0 01-3.4-1.9 231.678 231.678 0 01.69-244.16 3.999 3.999 0 017.213 1.264 4.001 4.001 0 01-.433 2.976 223.717 223.717 0 00-.67 235.69 3.999 3.999 0 01-1.3 5.5 3.915 3.915 0 01-2.1.63zM357.55 455.13a4.002 4.002 0 01-3.995-4.088 4 4 0 01.595-2.012 223.69 223.69 0 00-.66-235.72 4 4 0 014.284-6.025 4.005 4.005 0 012.496 1.775 231.71 231.71 0 01.73 244.18 3.995 3.995 0 01-3.45 1.89z" fill="#607D8B"/><path d="M462.39 335.21h-242a3.998 3.998 0 01-4-4 3.999 3.999 0 014-4h242a4 4 0 110 8z" fill="#607D8B"/><path d="M178.26 360.85V317l20.21-16.87h-20.21v-11.28a10.001 10.001 0 00-10-10h-72a10.002 10.002 0 00-10 10v72a10 10 0 0010 10h72a9.999 9.999 0 0010-10z" fill="#C1F5E6"/><path d="M118.39 363.21a3 3 0 01-3-3v-58a3 3 0 116 0v58a3 3 0 01-3 3z" fill="#0F9989"/><path d="M134.89 334.21h-16.5a3 3 0 110-6h16.5a3 3 0 010 6z" fill="#0F9989"/><path d="M149.14 363.21c-9.67 0-17.25-14.06-17.25-32 0-17.94 7.58-32 17.25-32s17.25 14.05 17.25 32-7.58 32-17.25 32zm0-58c-5.32 0-11.25 10.67-11.25 26s5.93 26 11.25 26 11.25-10.68 11.25-26-5.93-26-11.25-26z" fill="#0F9989"/><path d="M175.26 379.85h-72a13 13 0 01-13-13v-72a12.999 12.999 0 0113-13h72a13 13 0 0113 13v8.28h17.21a3 3 0 011.92 5.3l-19.13 16v42.45a12.999 12.999 0 01-13 12.97zm-72-92a7.003 7.003 0 00-7 7v72a7 7 0 007 7h72a7 7 0 007-7V323a2.997 2.997 0 011.07-2.31l13.86-11.56h-11.93a3 3 0 01-3-3v-11.28a7.005 7.005 0 00-2.05-4.95 7.005 7.005 0 00-4.95-2.05h-72z" fill="#0F9989"/><path d="M225.12 176H259l16.87 20.21V176h21.28a10.001 10.001 0 0010-10V94a10.002 10.002 0 00-10-10h-72a10 10 0 00-10 10v72a9.997 9.997 0 009.97 10z" fill="#C1F5E6"/><path d="M295.39 166.21a2.999 2.999 0 01-2.72-1.74l-24.28-52.16-24.28 52.16a3.003 3.003 0 01-3.97 1.422 3.003 3.003 0 01-1.47-3.952l27-58a2.998 2.998 0 014.333-1.264c.481.307.866.746 1.107 1.264l27 58a3.006 3.006 0 01-1.45 4 2.902 2.902 0 01-1.27.27z" fill="#0F9989"/><path d="M285.1 146.1h-33.42a3 3 0 110-6h33.42a3 3 0 010 6z" fill="#0F9989"/><path d="M282.84 205.21a3.005 3.005 0 01-2.3-1.08l-16-19.14h-32.42a13.001 13.001 0 01-13-13V100a13 13 0 0113-13h72a13 13 0 0113 13v72a13 13 0 01-13 13h-18.28v17.22a3.002 3.002 0 01-2 2.82c-.322.112-.66.169-1 .17zM232.12 93a7 7 0 00-7 7v72a6.999 6.999 0 007 7H266c.439.001.872.098 1.27.284.397.187.749.459 1.03.796l11.56 13.86V182a3 3 0 013-3h21.28a7 7 0 007-7v-72a7 7 0 00-7-7h-72.02z" fill="#0F9989"/><path d="M491.12 211h-43.86l-16.87 20.2V211h-11.27a10 10 0 01-10-10v-72a9.997 9.997 0 0110-10h72a10.003 10.003 0 0110 10v72a10.001 10.001 0 01-10 10z" fill="#C1F5E6"/><path d="M461.39 155.21a3 3 0 01-3-3v-10a3 3 0 116 0v10a3 3 0 01-3 3z" fill="#0F9989"/><path d="M486.39 157.21h-51a3 3 0 110-6h51a3 3 0 010 6z" fill="#0F9989"/><path d="M437.39 202.21a2.998 2.998 0 01-2.661-4.393 2.995 2.995 0 011.481-1.367c33.16-14.22 39.19-42.55 39.25-42.83a3.008 3.008 0 012.349-2.468 2.993 2.993 0 012.306.458 3.004 3.004 0 011.225 3.18c-.26 1.29-6.73 31.73-42.77 47.17a2.91 2.91 0 01-1.18.25z" fill="#0F9989"/><path d="M488.39 202.21a3.091 3.091 0 01-.73-.09c-24.89-6.23-40.18-30.3-40.81-31.33a3.008 3.008 0 01-.475-2.314 3.008 3.008 0 011.347-1.94 3.01 3.01 0 012.334-.364 3.013 3.013 0 011.874 1.438c.21.33 14.73 23.07 37.19 28.68a3 3 0 01-.73 5.92z" fill="#0F9989"/><path d="M437.39 240.21a3 3 0 01-3-3V220h-8.27a13.001 13.001 0 01-13-13v-72a12.998 12.998 0 0113-13h72a13 13 0 0113 13v72a13 13 0 01-13 13h-42.46l-16 19.14a3.003 3.003 0 01-2.27 1.07zM426.12 128a6.999 6.999 0 00-7 7v72a6.999 6.999 0 007 7h11.27a3 3 0 013 3v11.94L452 215.07a3 3 0 012.31-1.08h43.86a7 7 0 007-7V135a7 7 0 00-7-7h-72.05z" fill="#0F9989"/></svg>