<svg width="426" height="373" fill="none" xmlns="http://www.w3.org/2000/svg" viewBox="0 0 426 373"><path d="M246.39 361.2c66.826 0 121-54.174 121-121s-54.174-121-121-121c-66.827 0-121 54.174-121 121s54.173 121 121 121z" fill="#CFD8DC"/><path d="M255.39 372.21a125 125 0 11125-125 125.139 125.139 0 01-125 125zm0-242a117.002 117.002 0 00-82.732 199.732 117.01 117.01 0 0059.906 32.02A117.006 117.006 0 00372.39 247.21a117.128 117.128 0 00-117-117z" fill="#607D8B"/><path d="M255.39 191.21a229.806 229.806 0 01-93.13-19.5 3.998 3.998 0 01-1.95-5.226 4 4 0 015.17-2.094 224.176 224.176 0 00179.82 0 3.998 3.998 0 015.373 2.005 4.005 4.005 0 01.046 3.112 3.992 3.992 0 01-2.199 2.203 229.81 229.81 0 01-93.13 19.5zM164 330.52a4.003 4.003 0 01-3.92-3.172 3.998 3.998 0 012.3-4.488 232.238 232.238 0 01186.26-.32 4 4 0 01-3.21 7.33 224.215 224.215 0 00-179.81.31 4.071 4.071 0 01-1.62.34z" fill="#607D8B"/><path d="M239.22 371.13a4.008 4.008 0 01-3.4-1.9 231.678 231.678 0 01.69-244.16 3.999 3.999 0 017.213 1.264 4.001 4.001 0 01-.433 2.976 223.717 223.717 0 00-.67 235.69 3.999 3.999 0 01-1.3 5.5 3.915 3.915 0 01-2.1.63zM271.55 371.13a4.002 4.002 0 01-3.995-4.088 4 4 0 01.595-2.012 223.69 223.69 0 00-.66-235.72 4 4 0 014.284-6.025 4.005 4.005 0 012.496 1.775 231.71 231.71 0 01.73 244.18 3.995 3.995 0 01-3.45 1.89z" fill="#607D8B"/><path d="M376.39 251.21h-242a3.998 3.998 0 01-4-4 3.999 3.999 0 014-4h242a4 4 0 110 8z" fill="#607D8B"/><path d="M92.26 276.85V233l20.21-16.87H92.26v-11.28a10 10 0 00-10-10h-72a10.002 10.002 0 00-10 10v72a10 10 0 0010 10h72a9.997 9.997 0 0010-10z" fill="#C1F5E6"/><path d="M32.39 279.21a2.999 2.999 0 01-3-3v-58a2.998 2.998 0 013-3 2.999 2.999 0 013 3v58a2.998 2.998 0 01-3 3z" fill="#0F9989"/><path d="M48.89 250.21h-16.5a2.999 2.999 0 01-2.122-5.121 2.999 2.999 0 012.122-.879h16.5a2.999 2.999 0 012.121 5.121 2.999 2.999 0 01-2.121.879z" fill="#0F9989"/><path d="M63.14 279.21c-9.67 0-17.25-14.06-17.25-32 0-17.94 7.58-32 17.25-32s17.25 14.05 17.25 32-7.58 32-17.25 32zm0-58c-5.32 0-11.25 10.67-11.25 26s5.93 26 11.25 26 11.25-10.68 11.25-26-5.93-26-11.25-26z" fill="#0F9989"/><path d="M89.26 295.85h-72a13 13 0 01-13-13v-72a12.999 12.999 0 0113-13h72a13 13 0 0113 13v8.28h17.21a3 3 0 011.92 5.3l-19.13 16v42.45a12.998 12.998 0 01-13 12.97zm-72-92a7.003 7.003 0 00-7 7v72a7 7 0 007 7h72a6.999 6.999 0 007-7V239a2.998 2.998 0 011.07-2.31l13.86-11.56H99.26a2.999 2.999 0 01-3-3v-11.28a7.002 7.002 0 00-7-7h-72z" fill="#0F9989"/><path d="M139.12 92H173l16.87 20.21V92h21.28a10 10 0 0010-10V10a10.002 10.002 0 00-10-10h-72a10 10 0 00-10 10v72a10 10 0 009.97 10z" fill="#C1F5E6"/><path d="M209.39 82.21a3 3 0 01-2.72-1.74l-24.28-52.16-24.28 52.16a3.001 3.001 0 01-5.44-2.53l27-58a2.998 2.998 0 015.44 0l27 58a3.002 3.002 0 01-1.45 4 2.9 2.9 0 01-1.27.27z" fill="#0F9989"/><path d="M199.1 62.1h-33.42a3.002 3.002 0 01-2.122-5.121 3.002 3.002 0 012.122-.879h33.42a3.001 3.001 0 010 6z" fill="#0F9989"/><path d="M196.84 121.21a3.005 3.005 0 01-2.3-1.08l-16-19.14h-32.42a13.001 13.001 0 01-13-13V16a13 13 0 0113-13h72a13 13 0 0113 13v72a13 13 0 01-13 13h-18.28v17.22a3.002 3.002 0 01-2 2.82c-.322.112-.66.169-1 .17zM146.12 9a7 7 0 00-7 7v72a6.999 6.999 0 007 7H180a3.002 3.002 0 012.3 1.08l11.56 13.86V98a3.002 3.002 0 013-3h21.28a6.998 6.998 0 007-7V16a7 7 0 00-7-7h-72.02z" fill="#0F9989"/><path d="M405.12 127h-43.86l-16.87 20.2V127h-11.27a10 10 0 01-10-10V45a9.997 9.997 0 0110-10h72a10.001 10.001 0 0110 10v72a10.001 10.001 0 01-10 10z" fill="#C1F5E6"/><path d="M375.39 71.21a3.002 3.002 0 01-3-3v-10a3.002 3.002 0 013-3 3.001 3.001 0 013 3v10a2.999 2.999 0 01-3 3z" fill="#0F9989"/><path d="M400.39 73.21h-51a3.002 3.002 0 01-2.122-5.121 3.002 3.002 0 012.122-.879h51a3.001 3.001 0 010 6z" fill="#0F9989"/><path d="M351.39 118.21a2.998 2.998 0 01-2.661-4.393 2.995 2.995 0 011.481-1.367c33.16-14.22 39.19-42.55 39.25-42.83a3.004 3.004 0 011.248-1.993 2.997 2.997 0 014.242.844 2.997 2.997 0 01.39 2.319c-.26 1.29-6.73 31.73-42.77 47.17a2.91 2.91 0 01-1.18.25z" fill="#0F9989"/><path d="M402.39 118.21a3.091 3.091 0 01-.73-.09c-24.89-6.23-40.18-30.3-40.81-31.33a3 3 0 115.08-3.18c.21.33 14.73 23.07 37.19 28.68a3 3 0 01-.73 5.92z" fill="#0F9989"/><path d="M351.39 156.21a3 3 0 01-3-3V136h-8.27a13.001 13.001 0 01-13-13V51a13 13 0 0113-13h72a13 13 0 0113 13v72a13 13 0 01-13 13h-42.46l-16 19.14a3.003 3.003 0 01-2.27 1.07zM340.12 44a7 7 0 00-7 7v72a6.999 6.999 0 007 7h11.27a3 3 0 013 3v11.94L366 131.07a3 3 0 012.31-1.08h43.86a7 7 0 007-7V51a7 7 0 00-7-7h-72.05z" fill="#0F9989"/></svg>