<svg width="529" height="247" fill="none" xmlns="http://www.w3.org/2000/svg" viewBox="0 0 529 247"><path d="M527 9H306v153h221V9z" fill="#fff"/><path d="M529 9h-62v153h62V9zM368 9h-62v153h62V9zM414.85 124h1.81l-.66-18.6a1.308 1.308 0 011.55-1.34l18.21 3.35-2.32-6.52a1.345 1.345 0 01.4-1.46L453 83.59l-4.52-2.12a1.33 1.33 0 01-.68-1.62l4.05-11.7-11.25 2.4a1.32 1.32 0 01-1.49-.78l-2-4.9-8.61 9.21a1.31 1.31 0 01-2.25-1.13l4-21.72-6.67 4a1.316 1.316 0 01-1.041.14 1.314 1.314 0 01-.809-.67l-6.76-13.35-6.75 13.35a1.302 1.302 0 01-1.344.709 1.31 1.31 0 01-.506-.179l-6.67-4 4 21.72a1.319 1.319 0 01-2.26 1.13l-8.6-9.21-2.05 4.9a1.302 1.302 0 01-1.48.78l-11.26-2.4 4.05 11.7a1.323 1.323 0 01-.68 1.62l-4.52 2.12 19.17 15.84a1.298 1.298 0 01.4 1.46l-2.47 6.52 18.22-3.35a1.32 1.32 0 011.098.297 1.308 1.308 0 01.452 1.043l-.71 18.6h1.79z" fill="#CFD8DC"/><path d="M521 159H300a2.996 2.996 0 01-2.121-.879A2.996 2.996 0 01297 156V3a2.999 2.999 0 013-3h221a2.998 2.998 0 013 3v153c0 .796-.316 1.559-.879 2.121A2.996 2.996 0 01521 159zm-218-6h215V6H303v147z" fill="#607D8B"/><path d="M271 16H13v153h258V16z" fill="#fff"/><path d="M268 16H10v12h258V16zM268 157H10v12h258v-12zM268 134H10v12h258v-12zM268 110H10v12h258v-12zM268 86H10v12h258V86zM268 63H10v12h258V63zM268 39H10v12h258V39z" fill="#CFD8DC"/><path d="M119 16H13v83h106V16z" fill="#607D8B"/><path d="M22.52 24.22l.2-.15-.19.15a.34.34 0 00-.14.28.3.3 0 000 .1l.46 1.47a.77.77 0 01-.26.83.66.66 0 01-.84 0l-1.2-.91a.36.36 0 00-.2-.06.31.31 0 00-.19.06l-1.2.91a.66.66 0 01-.84 0 .75.75 0 01-.26-.83l.46-1.47a.342.342 0 000-.1.36.36 0 00-.15-.3L17 23.31a.74.74 0 01-.26-.82.7.7 0 01.68-.49h1.45a.5.5 0 00.34-.25l.46-1.5a.73.73 0 01.68-.51.7.7 0 01.68.51l.46 1.49a.479.479 0 00.35.26h1.45a.71.71 0 01.68.49.75.75 0 01-.26.82l-1.19.91zM40.78 24.22l.19-.15-.19.15a.36.36 0 00-.13.28.31.31 0 000 .1l.46 1.47a.77.77 0 01-.26.83.66.66 0 01-.84 0l-1.2-.91a.36.36 0 00-.2-.06.33.33 0 00-.19.06l-1.2.91a.66.66 0 01-.84 0 .75.75 0 01-.26-.83l.46-1.47a.342.342 0 000-.1.36.36 0 00-.15-.3l-1.18-.89a.74.74 0 01-.26-.82.7.7 0 01.68-.49h1.45a.5.5 0 00.34-.25l.47-1.5a.7.7 0 011.35 0l.46 1.49a.48.48 0 00.35.26h1.45a.71.71 0 01.68.49.75.75 0 01-.26.82l-1.18.91zM59 24.22l.19-.15-.19.15a.361.361 0 00-.13.28.31.31 0 000 .1l.46 1.47a.77.77 0 01-.26.83.66.66 0 01-.84 0l-1.2-.91a.35.35 0 00-.39 0l-1.2.91a.66.66 0 01-.84 0 .77.77 0 01-.26-.83l.46-1.47a.335.335 0 000-.1.36.36 0 00-.15-.3l-1.18-.89a.74.74 0 01-.26-.82.71.71 0 01.68-.49h1.45a.48.48 0 00.34-.25l.47-1.5a.72.72 0 01.68-.51.7.7 0 01.67.51l.46 1.49a.48.48 0 00.35.26h1.45a.71.71 0 01.68.49.74.74 0 01-.26.82l-1.18.91zM77.28 24.22l.19-.15-.19.15a.361.361 0 00-.13.28.31.31 0 000 .1l.46 1.47a.75.75 0 01-.26.83.66.66 0 01-.84 0l-1.2-.91a.33.33 0 00-.19-.06.36.36 0 00-.2.06l-1.2.91a.66.66 0 01-.84 0 .77.77 0 01-.26-.83l.46-1.47a.356.356 0 000-.1.369.369 0 00-.16-.3l-1.18-.89a.75.75 0 01-.26-.82.71.71 0 01.68-.49h1.45c.2-.06.31-.15.34-.25l.47-1.5a.71.71 0 011.36 0l.46 1.49a.48.48 0 00.34.26h1.45a.7.7 0 01.68.49.74.74 0 01-.26.82l-1.17.91zM95.53 24.22l.19-.15-.18.15a.34.34 0 00-.14.28.31.31 0 000 .1l.46 1.47a.75.75 0 01-.26.83.66.66 0 01-.84 0l-1.2-.91a.33.33 0 00-.38 0l-1.21.91a.66.66 0 01-.84 0 .77.77 0 01-.26-.83l.46-1.47a.356.356 0 000-.1.369.369 0 00-.16-.3l-1.18-.89a.75.75 0 01-.26-.82.71.71 0 01.68-.49h1.45c.2-.06.31-.15.34-.25l.47-1.5a.71.71 0 011.36 0l.46 1.49a.48.48 0 00.34.26h1.45a.7.7 0 01.68.49.74.74 0 01-.26.82l-1.17.91zM113.78 24.22l.19-.15-.18.15a.336.336 0 00-.14.28v.1l.46 1.47a.755.755 0 01-.26.83.66.66 0 01-.84 0l-1.2-.91a.33.33 0 00-.38 0l-1.21.91a.66.66 0 01-.84 0 .755.755 0 01-.25-.83l.45-1.47a.335.335 0 000-.1.37.37 0 00-.16-.3l-1.18-.89a.748.748 0 01-.26-.82.713.713 0 01.68-.49h1.45c.2-.06.31-.15.34-.25l.47-1.5a.73.73 0 01.68-.51.712.712 0 01.68.51l.46 1.49a.482.482 0 00.35.26h1.45a.69.69 0 01.67.49.717.717 0 01-.26.82l-1.17.91zM31 32.22l.19-.15-.18.15a.34.34 0 00-.14.28.305.305 0 000 .1l.45 1.47a.75.75 0 01-.26.83.66.66 0 01-.42.15.63.63 0 01-.41-.15l-1.15-.9a.33.33 0 00-.38 0l-1.21.91a.65.65 0 01-.83 0 .75.75 0 01-.26-.83l.45-1.47a.356.356 0 000-.1.38.38 0 00-.15-.3l-1.19-.89a.75.75 0 01-.26-.82.71.71 0 01.75-.5h1.4a.5.5 0 00.35-.25l.46-1.5a.73.73 0 01.68-.51.71.71 0 01.68.51l.46 1.49a.48.48 0 00.35.26h1.45a.71.71 0 01.68.941.75.75 0 01-.26.369l-1.25.91zM49.29 32.22l.19-.15-.18.15a.34.34 0 00-.14.28.3.3 0 000 .1l.45 1.47a.74.74 0 01-.26.83.63.63 0 01-.41.15.66.66 0 01-.42-.15l-1.2-.91a.36.36 0 00-.2-.06.31.31 0 00-.12.07l-1.2.91a.66.66 0 01-.84 0 .75.75 0 01-.26-.83l.46-1.47a.342.342 0 000-.1.38.38 0 00-.15-.3l-1.19-.89a.73.73 0 01-.25-.82.69.69 0 01.67-.49h1.45a.5.5 0 00.35-.25l.46-1.5a.73.73 0 01.68-.51.71.71 0 01.68.51l.46 1.49a.48.48 0 00.35.26h1.45a.71.71 0 01.68.49.75.75 0 01-.26.82l-1.25.9zM67.54 32.22l.2-.15-.19.15a.34.34 0 00-.14.28.3.3 0 000 .1l.46 1.47a.77.77 0 01-.26.83.66.66 0 01-.84 0l-1.2-.91a.36.36 0 00-.2-.06.31.31 0 00-.19.06l-1.2.91a.66.66 0 01-.84 0 .75.75 0 01-.26-.83l.46-1.47a.342.342 0 000-.1.36.36 0 00-.15-.3L62 31.31a.74.74 0 01-.26-.82.7.7 0 01.68-.49h1.45a.5.5 0 00.34-.25l.46-1.5a.73.73 0 01.68-.51.7.7 0 01.68.51l.46 1.49a.479.479 0 00.35.26h1.45a.71.71 0 01.68.49.75.75 0 01-.26.82l-1.17.91zM85.8 32.22l.19-.15-.19.15a.37.37 0 00-.14.28.3.3 0 000 .1l.46 1.47a.77.77 0 01-.26.83.66.66 0 01-.84 0l-1.2-.91a.36.36 0 00-.2-.06.33.33 0 00-.19.06l-1.2.91a.66.66 0 01-.84 0 .75.75 0 01-.26-.83l.46-1.47a.342.342 0 000-.1.36.36 0 00-.15-.3l-1.18-.89a.74.74 0 01-.26-.82.7.7 0 01.68-.49h1.45a.5.5 0 00.34-.25l.46-1.5a.73.73 0 01.68-.51.7.7 0 01.68.51l.46 1.49a.478.478 0 00.35.26h1.45a.71.71 0 01.68.941.75.75 0 01-.26.369l-1.17.91zM104.05 32.22l.19-.15-.19.15a.36.36 0 00-.13.28.335.335 0 000 .1l.46 1.47a.776.776 0 01-.001.455.775.775 0 01-.259.375.66.66 0 01-.84 0l-1.2-.91a.35.35 0 00-.39 0l-1.2.91a.66.66 0 01-.84 0 .77.77 0 01-.26-.83l.46-1.47a.335.335 0 000-.1.36.36 0 00-.15-.3l-1.18-.89a.74.74 0 01-.26-.82A.71.71 0 0199 30h1.45a.5.5 0 00.34-.25l.47-1.5a.714.714 0 01.67-.51.696.696 0 01.68.51l.46 1.49a.481.481 0 00.35.26h1.45a.709.709 0 01.68.49.741.741 0 01-.26.82l-1.24.91zM22.52 41.22l.2-.15-.19.15a.34.34 0 00-.14.28.3.3 0 000 .1l.46 1.47a.77.77 0 01-.26.83.66.66 0 01-.84 0l-1.2-.91a.36.36 0 00-.2-.06.31.31 0 00-.19.06l-1.2.91a.66.66 0 01-.84 0 .75.75 0 01-.26-.83l.46-1.47a.342.342 0 000-.1.36.36 0 00-.15-.3L17 40.31a.74.74 0 01-.26-.82.7.7 0 01.68-.49h1.45a.5.5 0 00.34-.25l.46-1.5a.73.73 0 01.68-.51.7.7 0 01.68.51l.46 1.49a.479.479 0 00.35.26h1.45a.71.71 0 01.68.49.75.75 0 01-.26.82l-1.19.91zM40.78 41.22l.19-.15-.19.15a.36.36 0 00-.13.28.31.31 0 000 .1l.46 1.47a.77.77 0 01-.26.83.66.66 0 01-.84 0l-1.2-.91a.36.36 0 00-.2-.06.33.33 0 00-.19.06l-1.2.91a.66.66 0 01-.84 0 .75.75 0 01-.26-.83l.46-1.47a.342.342 0 000-.1.36.36 0 00-.15-.3l-1.18-.89a.74.74 0 01-.26-.82.7.7 0 01.68-.49h1.45a.5.5 0 00.34-.25l.47-1.5a.7.7 0 011.35 0l.46 1.49a.48.48 0 00.35.26h1.45a.71.71 0 01.68.49.75.75 0 01-.26.82l-1.18.91zM59 41.22l.19-.15-.19.15a.361.361 0 00-.13.28.31.31 0 000 .1l.46 1.47a.77.77 0 01-.26.83.66.66 0 01-.84 0l-1.2-.91a.35.35 0 00-.39 0l-1.2.91a.66.66 0 01-.84 0 .77.77 0 01-.26-.83l.46-1.47a.335.335 0 000-.1.36.36 0 00-.15-.3l-1.18-.89a.74.74 0 01-.26-.82.71.71 0 01.68-.49h1.45a.48.48 0 00.34-.25l.47-1.5a.72.72 0 01.68-.51.7.7 0 01.67.51l.46 1.49a.48.48 0 00.35.26h1.45a.71.71 0 01.68.49.74.74 0 01-.26.82l-1.18.91zM77.28 41.22l.19-.15-.19.15a.361.361 0 00-.13.28.31.31 0 000 .1l.46 1.47a.75.75 0 01-.26.83.66.66 0 01-.84 0l-1.2-.91a.33.33 0 00-.19-.06.36.36 0 00-.2.06l-1.2.91a.66.66 0 01-.84 0 .77.77 0 01-.26-.83l.46-1.47a.356.356 0 000-.1.369.369 0 00-.16-.3l-1.18-.89a.75.75 0 01-.26-.82.71.71 0 01.68-.49h1.45c.2-.06.31-.15.34-.25l.47-1.5a.71.71 0 011.36 0l.46 1.49a.48.48 0 00.34.26h1.45a.7.7 0 01.68.49.74.74 0 01-.26.82l-1.17.91zM95.53 41.22l.19-.15-.18.15a.34.34 0 00-.14.28.31.31 0 000 .1l.46 1.47a.75.75 0 01-.26.83.66.66 0 01-.84 0l-1.2-.91a.33.33 0 00-.38 0l-1.21.91a.66.66 0 01-.84 0 .77.77 0 01-.26-.83l.46-1.47a.356.356 0 000-.1.369.369 0 00-.16-.3l-1.18-.89a.75.75 0 01-.26-.82.71.71 0 01.68-.49h1.45c.2-.06.31-.15.34-.25l.47-1.5a.71.71 0 011.36 0l.46 1.49a.48.48 0 00.34.26h1.45a.7.7 0 01.68.49.74.74 0 01-.26.82l-1.17.91zM113.78 41.22l.19-.15-.18.15a.336.336 0 00-.14.28v.1l.46 1.47a.755.755 0 01-.26.83.66.66 0 01-.84 0l-1.2-.91a.33.33 0 00-.38 0l-1.21.91a.66.66 0 01-.84 0 .755.755 0 01-.25-.83l.45-1.47a.335.335 0 000-.1.37.37 0 00-.16-.3l-1.18-.89a.748.748 0 01-.26-.82.713.713 0 01.68-.49h1.45c.2-.06.31-.15.34-.25l.47-1.5a.73.73 0 01.68-.51.712.712 0 01.68.51l.46 1.49a.482.482 0 00.35.26h1.45a.69.69 0 01.67.49.717.717 0 01-.26.82l-1.17.91zM31 49.22l.19-.15-.18.15a.34.34 0 00-.14.28.305.305 0 000 .1l.45 1.47a.75.75 0 01-.26.83.66.66 0 01-.42.15.63.63 0 01-.41-.15l-1.15-.9a.33.33 0 00-.38 0l-1.21.91a.65.65 0 01-.83 0 .75.75 0 01-.26-.83l.45-1.47a.356.356 0 000-.1.38.38 0 00-.15-.3l-1.19-.89a.75.75 0 01-.26-.82.71.71 0 01.75-.5h1.4a.5.5 0 00.35-.25l.46-1.5a.73.73 0 01.68-.51.71.71 0 01.68.51l.46 1.49a.48.48 0 00.35.26h1.45a.71.71 0 01.68.941.75.75 0 01-.26.369l-1.25.91zM49.29 49.22l.19-.15-.18.15a.34.34 0 00-.14.28.3.3 0 000 .1l.45 1.47a.74.74 0 01-.26.83.63.63 0 01-.41.15.66.66 0 01-.42-.15l-1.2-.91a.36.36 0 00-.2-.06.31.31 0 00-.12.07l-1.2.91a.66.66 0 01-.84 0 .75.75 0 01-.26-.83l.46-1.47a.342.342 0 000-.1.38.38 0 00-.15-.3l-1.19-.89a.73.73 0 01-.25-.82.69.69 0 01.67-.49h1.45a.5.5 0 00.35-.25l.46-1.5a.73.73 0 01.68-.51.71.71 0 01.68.51l.46 1.49a.48.48 0 00.35.26h1.45a.71.71 0 01.68.49.75.75 0 01-.26.82l-1.25.9zM67.54 49.22l.2-.15-.19.15a.34.34 0 00-.14.28.3.3 0 000 .1l.46 1.47a.77.77 0 01-.26.83.66.66 0 01-.84 0l-1.2-.91a.36.36 0 00-.2-.06.31.31 0 00-.19.06l-1.2.91a.66.66 0 01-.84 0 .75.75 0 01-.26-.83l.46-1.47a.342.342 0 000-.1.36.36 0 00-.15-.3L62 48.31a.74.74 0 01-.26-.82.7.7 0 01.68-.49h1.45a.5.5 0 00.34-.25l.46-1.5a.73.73 0 01.68-.51.7.7 0 01.68.51l.46 1.49a.479.479 0 00.35.26h1.45a.71.71 0 01.68.49.75.75 0 01-.26.82l-1.17.91zM85.8 49.22l.19-.15-.19.15a.37.37 0 00-.14.28.3.3 0 000 .1l.46 1.47a.77.77 0 01-.26.83.66.66 0 01-.84 0l-1.2-.91a.36.36 0 00-.2-.06.33.33 0 00-.19.06l-1.2.91a.66.66 0 01-.84 0 .75.75 0 01-.26-.83l.46-1.47a.342.342 0 000-.1.36.36 0 00-.15-.3l-1.18-.89a.74.74 0 01-.26-.82.7.7 0 01.68-.49h1.45a.5.5 0 00.34-.25l.46-1.5a.73.73 0 01.68-.51.7.7 0 01.68.51l.46 1.49a.478.478 0 00.35.26h1.45a.71.71 0 01.68.941.75.75 0 01-.26.369l-1.17.91zM104.05 49.22l.19-.15-.19.15a.36.36 0 00-.13.28.335.335 0 000 .1l.46 1.47a.776.776 0 01-.001.455.775.775 0 01-.259.375.66.66 0 01-.84 0l-1.2-.91a.35.35 0 00-.39 0l-1.2.91a.66.66 0 01-.84 0 .77.77 0 01-.26-.83l.46-1.47a.335.335 0 000-.1.36.36 0 00-.15-.3l-1.18-.89a.74.74 0 01-.26-.82A.71.71 0 0199 47h1.45a.5.5 0 00.34-.25l.47-1.5a.714.714 0 01.67-.51.696.696 0 01.68.51l.46 1.49a.481.481 0 00.35.26h1.45a.709.709 0 01.68.49.741.741 0 01-.26.82l-1.24.91zM22.52 58.22l.2-.15-.19.15a.34.34 0 00-.14.28.3.3 0 000 .1l.46 1.47a.77.77 0 01-.26.83.66.66 0 01-.84 0l-1.2-.91a.36.36 0 00-.2-.06.31.31 0 00-.19.06l-1.2.91a.66.66 0 01-.84 0 .75.75 0 01-.26-.83l.46-1.47a.342.342 0 000-.1.36.36 0 00-.15-.3L17 57.31a.74.74 0 01-.26-.82.7.7 0 01.68-.49h1.45a.5.5 0 00.34-.25l.46-1.5a.73.73 0 01.68-.51.7.7 0 01.68.51l.46 1.49a.479.479 0 00.35.26h1.45a.71.71 0 01.68.49.75.75 0 01-.26.82l-1.19.91zM40.78 58.22l.19-.15-.19.15a.36.36 0 00-.13.28.31.31 0 000 .1l.46 1.47a.77.77 0 01-.26.83.66.66 0 01-.84 0l-1.2-.91a.36.36 0 00-.2-.06.33.33 0 00-.19.06l-1.2.91a.66.66 0 01-.84 0 .75.75 0 01-.26-.83l.46-1.47a.342.342 0 000-.1.36.36 0 00-.15-.3l-1.18-.89a.74.74 0 01-.26-.82.7.7 0 01.68-.49h1.45a.5.5 0 00.34-.25l.47-1.5a.7.7 0 011.35 0l.46 1.49a.48.48 0 00.35.26h1.45a.71.71 0 01.68.49.75.75 0 01-.26.82l-1.18.91zM59 58.22l.19-.15-.19.15a.361.361 0 00-.13.28.31.31 0 000 .1l.46 1.47a.77.77 0 01-.26.83.66.66 0 01-.84 0l-1.2-.91a.35.35 0 00-.39 0l-1.2.91a.66.66 0 01-.84 0 .77.77 0 01-.26-.83l.46-1.47a.335.335 0 000-.1.36.36 0 00-.15-.3l-1.18-.89a.74.74 0 01-.26-.82.71.71 0 01.68-.49h1.45a.48.48 0 00.34-.25l.47-1.5a.72.72 0 01.68-.51.7.7 0 01.67.51l.46 1.49a.48.48 0 00.35.26h1.45a.71.71 0 01.68.49.74.74 0 01-.26.82l-1.18.91zM77.28 58.22l.19-.15-.19.15a.361.361 0 00-.13.28.31.31 0 000 .1l.46 1.47a.75.75 0 01-.26.83.66.66 0 01-.84 0l-1.2-.91a.33.33 0 00-.19-.06.36.36 0 00-.2.06l-1.2.91a.66.66 0 01-.84 0 .77.77 0 01-.26-.83l.46-1.47a.356.356 0 000-.1.369.369 0 00-.16-.3l-1.18-.89a.75.75 0 01-.26-.82.71.71 0 01.68-.49h1.45c.2-.06.31-.15.34-.25l.47-1.5a.71.71 0 011.36 0l.46 1.49a.48.48 0 00.34.26h1.45a.7.7 0 01.68.49.74.74 0 01-.26.82l-1.17.91zM95.53 58.22l.19-.15-.18.15a.34.34 0 00-.14.28.31.31 0 000 .1l.46 1.47a.75.75 0 01-.26.83.66.66 0 01-.84 0l-1.2-.91a.33.33 0 00-.38 0l-1.21.91a.66.66 0 01-.84 0 .77.77 0 01-.26-.83l.46-1.47a.356.356 0 000-.1.369.369 0 00-.16-.3l-1.18-.89a.75.75 0 01-.26-.82.71.71 0 01.68-.49h1.45c.2-.06.31-.15.34-.25l.47-1.5a.71.71 0 011.36 0l.46 1.49a.48.48 0 00.34.26h1.45a.7.7 0 01.68.49.74.74 0 01-.26.82l-1.17.91zM113.78 58.22l.19-.15-.18.15a.336.336 0 00-.14.28v.1l.46 1.47a.755.755 0 01-.26.83.66.66 0 01-.84 0l-1.2-.91a.33.33 0 00-.38 0l-1.21.91a.66.66 0 01-.84 0 .755.755 0 01-.25-.83l.45-1.47a.335.335 0 000-.1.37.37 0 00-.16-.3l-1.18-.89a.748.748 0 01-.26-.82.713.713 0 01.68-.49h1.45c.2-.06.31-.15.34-.25l.47-1.5a.73.73 0 01.68-.51.712.712 0 01.68.51l.46 1.49a.482.482 0 00.35.26h1.45a.69.69 0 01.67.49.717.717 0 01-.26.82l-1.17.91zM31 66.22l.19-.15-.18.15a.34.34 0 00-.14.28.305.305 0 000 .1l.45 1.47a.75.75 0 01-.26.83.66.66 0 01-.42.15.63.63 0 01-.41-.15l-1.15-.9a.33.33 0 00-.38 0l-1.21.91a.65.65 0 01-.83 0 .75.75 0 01-.26-.83l.45-1.47a.356.356 0 000-.1.38.38 0 00-.15-.3l-1.19-.89a.75.75 0 01-.26-.82.71.71 0 01.75-.5h1.4a.5.5 0 00.35-.25l.46-1.5a.73.73 0 01.68-.51.71.71 0 01.68.51l.46 1.49a.48.48 0 00.35.26h1.45a.71.71 0 01.68.941.75.75 0 01-.26.369l-1.25.91zM49.29 66.22l.19-.15-.18.15a.34.34 0 00-.14.28.3.3 0 000 .1l.45 1.47a.74.74 0 01-.26.83.63.63 0 01-.41.15.66.66 0 01-.42-.15l-1.2-.91a.36.36 0 00-.2-.06.31.31 0 00-.12.07l-1.2.91a.66.66 0 01-.84 0 .75.75 0 01-.26-.83l.46-1.47a.342.342 0 000-.1.38.38 0 00-.15-.3l-1.19-.89a.73.73 0 01-.25-.82.69.69 0 01.67-.49h1.45a.5.5 0 00.35-.25l.46-1.5a.73.73 0 01.68-.51.71.71 0 01.68.51l.46 1.49a.48.48 0 00.35.26h1.45a.71.71 0 01.68.49.75.75 0 01-.26.82l-1.25.9zM67.54 66.22l.2-.15-.19.15a.34.34 0 00-.14.28.3.3 0 000 .1l.46 1.47a.77.77 0 01-.26.83.66.66 0 01-.84 0l-1.2-.91a.36.36 0 00-.2-.06.31.31 0 00-.19.06l-1.2.91a.66.66 0 01-.84 0 .75.75 0 01-.26-.83l.46-1.47a.342.342 0 000-.1.36.36 0 00-.15-.3L62 65.31a.74.74 0 01-.26-.82.7.7 0 01.68-.49h1.45a.5.5 0 00.34-.25l.46-1.5a.73.73 0 01.68-.51.7.7 0 01.68.51l.46 1.49a.479.479 0 00.35.26h1.45a.71.71 0 01.68.49.75.75 0 01-.26.82l-1.17.91zM85.8 66.22l.19-.15-.19.15a.37.37 0 00-.14.28.3.3 0 000 .1l.46 1.47a.77.77 0 01-.26.83.66.66 0 01-.84 0l-1.2-.91a.36.36 0 00-.2-.06.33.33 0 00-.19.06l-1.2.91a.66.66 0 01-.84 0 .75.75 0 01-.26-.83l.46-1.47a.342.342 0 000-.1.36.36 0 00-.15-.3l-1.18-.89a.74.74 0 01-.26-.82.7.7 0 01.68-.49h1.45a.5.5 0 00.34-.25l.46-1.5a.73.73 0 01.68-.51.7.7 0 01.68.51l.46 1.49a.478.478 0 00.35.26h1.45a.71.71 0 01.68.941.75.75 0 01-.26.369l-1.17.91zM104.05 66.22l.19-.15-.19.15a.36.36 0 00-.13.28.335.335 0 000 .1l.46 1.47a.776.776 0 01-.001.455.775.775 0 01-.259.375.66.66 0 01-.84 0l-1.2-.91a.35.35 0 00-.39 0l-1.2.91a.66.66 0 01-.84 0 .77.77 0 01-.26-.83l.46-1.47a.335.335 0 000-.1.36.36 0 00-.15-.3l-1.18-.89a.74.74 0 01-.26-.82A.71.71 0 0199 64h1.45a.5.5 0 00.34-.25l.47-1.5a.714.714 0 01.67-.51.696.696 0 01.68.51l.46 1.49a.481.481 0 00.35.26h1.45a.709.709 0 01.68.49.741.741 0 01-.26.82l-1.24.91zM22.52 75.22l.2-.15-.19.15a.34.34 0 00-.14.28.3.3 0 000 .1l.46 1.47a.77.77 0 01-.26.83.66.66 0 01-.84 0l-1.2-.91a.36.36 0 00-.2-.06.31.31 0 00-.19.06l-1.2.91a.66.66 0 01-.84 0 .75.75 0 01-.26-.83l.46-1.47a.342.342 0 000-.1.36.36 0 00-.15-.3L17 74.31a.74.74 0 01-.26-.82.7.7 0 01.68-.49h1.45a.5.5 0 00.34-.25l.46-1.5a.73.73 0 01.68-.51.7.7 0 01.68.51l.46 1.49a.479.479 0 00.35.26h1.45a.71.71 0 01.68.49.75.75 0 01-.26.82l-1.19.91zM40.78 75.22l.19-.15-.19.15a.36.36 0 00-.13.28.31.31 0 000 .1l.46 1.47a.77.77 0 01-.26.83.66.66 0 01-.84 0l-1.2-.91a.36.36 0 00-.2-.06.33.33 0 00-.19.06l-1.2.91a.66.66 0 01-.84 0 .75.75 0 01-.26-.83l.46-1.47a.342.342 0 000-.1.36.36 0 00-.15-.3l-1.18-.89a.74.74 0 01-.26-.82.7.7 0 01.68-.49h1.45a.5.5 0 00.34-.25l.47-1.5a.7.7 0 011.35 0l.46 1.49a.48.48 0 00.35.26h1.45a.71.71 0 01.68.49.75.75 0 01-.26.82l-1.18.91zM59 75.22l.19-.15-.19.15a.361.361 0 00-.13.28.31.31 0 000 .1l.46 1.47a.77.77 0 01-.26.83.66.66 0 01-.84 0l-1.2-.91a.35.35 0 00-.39 0l-1.2.91a.66.66 0 01-.84 0 .77.77 0 01-.26-.83l.46-1.47a.335.335 0 000-.1.36.36 0 00-.15-.3l-1.18-.89a.74.74 0 01-.26-.82.71.71 0 01.68-.49h1.45a.48.48 0 00.34-.25l.47-1.5a.72.72 0 01.68-.51.7.7 0 01.67.51l.46 1.49a.48.48 0 00.35.26h1.45a.71.71 0 01.68.49.74.74 0 01-.26.82l-1.18.91zM77.28 75.22l.19-.15-.19.15a.361.361 0 00-.13.28.31.31 0 000 .1l.46 1.47a.75.75 0 01-.26.83.66.66 0 01-.84 0l-1.2-.91a.33.33 0 00-.19-.06.36.36 0 00-.2.06l-1.2.91a.66.66 0 01-.84 0 .77.77 0 01-.26-.83l.46-1.47a.356.356 0 000-.1.369.369 0 00-.16-.3l-1.18-.89a.75.75 0 01-.26-.82.71.71 0 01.68-.49h1.45c.2-.06.31-.15.34-.25l.47-1.5a.71.71 0 011.36 0l.46 1.49a.48.48 0 00.34.26h1.45a.7.7 0 01.68.49.74.74 0 01-.26.82l-1.17.91zM95.53 75.22l.19-.15-.18.15a.34.34 0 00-.14.28.31.31 0 000 .1l.46 1.47a.75.75 0 01-.26.83.66.66 0 01-.84 0l-1.2-.91a.33.33 0 00-.38 0l-1.21.91a.66.66 0 01-.84 0 .77.77 0 01-.26-.83l.46-1.47a.356.356 0 000-.1.369.369 0 00-.16-.3l-1.18-.89a.75.75 0 01-.26-.82.71.71 0 01.68-.49h1.45c.2-.06.31-.15.34-.25l.47-1.5a.71.71 0 011.36 0l.46 1.49a.48.48 0 00.34.26h1.45a.7.7 0 01.68.49.74.74 0 01-.26.82l-1.17.91zM113.78 75.22l.19-.15-.18.15a.336.336 0 00-.14.28v.1l.46 1.47a.755.755 0 01-.26.83.66.66 0 01-.84 0l-1.2-.91a.33.33 0 00-.38 0l-1.21.91a.66.66 0 01-.84 0 .755.755 0 01-.25-.83l.45-1.47a.335.335 0 000-.1.37.37 0 00-.16-.3l-1.18-.89a.748.748 0 01-.26-.82.713.713 0 01.68-.49h1.45c.2-.06.31-.15.34-.25l.47-1.5a.73.73 0 01.68-.51.712.712 0 01.68.51l.46 1.49a.482.482 0 00.35.26h1.45a.69.69 0 01.67.49.717.717 0 01-.26.82l-1.17.91zM22.52 92.22l.2-.15-.19.15a.339.339 0 00-.14.28.3.3 0 000 .1l.46 1.47a.77.77 0 01-.26.83.66.66 0 01-.84 0l-1.2-.91a.36.36 0 00-.2-.06.31.31 0 00-.19.06l-1.2.91a.66.66 0 01-.84 0 .75.75 0 01-.26-.83l.46-1.47a.342.342 0 000-.1.36.36 0 00-.15-.3L17 91.31a.74.74 0 01-.26-.82.7.7 0 01.68-.49h1.45a.5.5 0 00.34-.25l.46-1.5a.73.73 0 01.68-.51.7.7 0 01.68.51l.46 1.49a.479.479 0 00.35.26h1.45a.71.71 0 01.68.49.75.75 0 01-.26.82l-1.19.91zM40.78 92.22l.19-.15-.19.15a.361.361 0 00-.13.28.31.31 0 000 .1l.46 1.47a.77.77 0 01-.26.83.66.66 0 01-.84 0l-1.2-.91a.36.36 0 00-.2-.06.33.33 0 00-.19.06l-1.2.91a.66.66 0 01-.84 0 .75.75 0 01-.26-.83l.46-1.47a.342.342 0 000-.1.36.36 0 00-.15-.3l-1.18-.89a.74.74 0 01-.26-.82.7.7 0 01.68-.49h1.45a.5.5 0 00.34-.25l.47-1.5a.7.7 0 011.35 0l.46 1.49a.48.48 0 00.35.26h1.45a.71.71 0 01.68.49.75.75 0 01-.26.82l-1.18.91zM59 92.22l.19-.15-.19.15a.36.36 0 00-.13.28.31.31 0 000 .1l.46 1.47a.77.77 0 01-.26.83.66.66 0 01-.84 0l-1.2-.91a.35.35 0 00-.39 0l-1.2.91a.66.66 0 01-.84 0 .77.77 0 01-.26-.83l.46-1.47a.335.335 0 000-.1.36.36 0 00-.15-.3l-1.18-.89a.74.74 0 01-.26-.82.71.71 0 01.68-.49h1.45a.48.48 0 00.34-.25l.47-1.5a.72.72 0 01.68-.51.7.7 0 01.67.51l.46 1.49a.48.48 0 00.35.26h1.45a.71.71 0 01.68.49.74.74 0 01-.26.82l-1.18.91zM77.28 92.22l.19-.15-.19.15a.361.361 0 00-.13.28.31.31 0 000 .1l.46 1.47a.75.75 0 01-.26.83.66.66 0 01-.84 0l-1.2-.91a.33.33 0 00-.19-.06.36.36 0 00-.2.06l-1.2.91a.66.66 0 01-.84 0 .77.77 0 01-.26-.83l.46-1.47a.356.356 0 000-.1.369.369 0 00-.16-.3l-1.18-.89a.75.75 0 01-.26-.82.71.71 0 01.68-.49h1.45c.2-.06.31-.15.34-.25l.47-1.5a.71.71 0 011.36 0l.46 1.49a.48.48 0 00.34.26h1.45a.7.7 0 01.68.49.74.74 0 01-.26.82l-1.17.91zM95.53 92.22l.19-.15-.18.15a.34.34 0 00-.14.28.31.31 0 000 .1l.46 1.47a.75.75 0 01-.26.83.66.66 0 01-.84 0l-1.2-.91a.33.33 0 00-.38 0l-1.21.91a.66.66 0 01-.84 0 .77.77 0 01-.26-.83l.46-1.47a.356.356 0 000-.1.369.369 0 00-.16-.3l-1.18-.89a.75.75 0 01-.26-.82.71.71 0 01.68-.49h1.45c.2-.06.31-.15.34-.25l.47-1.5a.71.71 0 011.36 0l.46 1.49a.48.48 0 00.34.26h1.45a.7.7 0 01.68.49.74.74 0 01-.26.82l-1.17.91zM113.78 92.22l.19-.15-.18.15a.336.336 0 00-.14.28v.1l.46 1.47a.755.755 0 01-.26.83.66.66 0 01-.84 0l-1.2-.91a.33.33 0 00-.38 0l-1.21.91a.66.66 0 01-.84 0 .755.755 0 01-.25-.83l.45-1.47a.335.335 0 000-.1.37.37 0 00-.16-.3l-1.18-.89a.748.748 0 01-.26-.82.713.713 0 01.68-.49h1.45c.2-.06.31-.15.34-.25l.47-1.5a.73.73 0 01.68-.51.712.712 0 01.68.51l.46 1.49a.482.482 0 00.35.26h1.45a.69.69 0 01.67.49.717.717 0 01-.26.82l-1.17.91zM31 84.22l.19-.15-.18.15a.34.34 0 00-.14.28.305.305 0 000 .1l.45 1.47a.75.75 0 01-.26.83.66.66 0 01-.42.15.631.631 0 01-.41-.15l-1.15-.9a.33.33 0 00-.38 0l-1.21.91a.65.65 0 01-.83 0 .75.75 0 01-.26-.83l.45-1.47a.356.356 0 000-.1.38.38 0 00-.15-.3l-1.19-.89a.75.75 0 01-.26-.82.71.71 0 01.75-.5h1.4a.5.5 0 00.35-.25l.46-1.5a.73.73 0 01.68-.51.71.71 0 01.68.51l.46 1.49a.48.48 0 00.35.26h1.45a.71.71 0 01.68.49.75.75 0 01-.26.82l-1.25.91zM49.29 84.22l.19-.15-.18.15a.34.34 0 00-.14.28.3.3 0 000 .1l.45 1.47a.74.74 0 01-.26.83.63.63 0 01-.41.15.66.66 0 01-.42-.15l-1.2-.91a.36.36 0 00-.2-.06.31.31 0 00-.12.07l-1.2.91a.66.66 0 01-.84 0 .75.75 0 01-.26-.83l.46-1.47a.342.342 0 000-.1.38.38 0 00-.15-.3l-1.19-.89a.73.73 0 01-.25-.82.69.69 0 01.67-.49h1.45a.5.5 0 00.35-.25l.46-1.5a.73.73 0 01.68-.51.71.71 0 01.68.51l.46 1.49a.48.48 0 00.35.26h1.45a.71.71 0 01.68.941.75.75 0 01-.26.369l-1.25.9zM67.54 84.22l.2-.15-.19.15a.34.34 0 00-.14.28.3.3 0 000 .1l.46 1.47a.77.77 0 01-.26.83.66.66 0 01-.84 0l-1.2-.91a.36.36 0 00-.2-.06.31.31 0 00-.19.06l-1.2.91a.66.66 0 01-.84 0 .75.75 0 01-.26-.83l.46-1.47a.342.342 0 000-.1.36.36 0 00-.15-.3L62 83.31a.74.74 0 01-.26-.82.7.7 0 01.68-.49h1.45a.5.5 0 00.34-.25l.46-1.5a.73.73 0 01.68-.51.7.7 0 01.68.51l.46 1.49a.48.48 0 00.35.26h1.45a.71.71 0 01.68.49.75.75 0 01-.26.82l-1.17.91zM85.8 84.22l.19-.15-.19.15a.37.37 0 00-.14.28.3.3 0 000 .1l.46 1.47a.77.77 0 01-.26.83.66.66 0 01-.84 0l-1.2-.91a.36.36 0 00-.2-.06.33.33 0 00-.19.06l-1.2.91a.66.66 0 01-.84 0 .75.75 0 01-.26-.83l.46-1.47a.342.342 0 000-.1.36.36 0 00-.15-.3l-1.18-.89a.74.74 0 01-.26-.82.7.7 0 01.68-.49h1.45a.5.5 0 00.34-.25l.46-1.5a.73.73 0 01.68-.51.7.7 0 01.68.51l.46 1.49a.48.48 0 00.35.26h1.45a.71.71 0 01.68.941.75.75 0 01-.26.369l-1.17.91zM104.05 84.22l.19-.15-.19.15a.36.36 0 00-.13.28.335.335 0 000 .1l.46 1.47a.776.776 0 01-.001.455.774.774 0 01-.259.375.66.66 0 01-.84 0l-1.2-.91a.35.35 0 00-.39 0l-1.2.91a.66.66 0 01-.84 0 .77.77 0 01-.26-.83l.46-1.47a.335.335 0 000-.1.36.36 0 00-.15-.3l-1.18-.89a.74.74 0 01-.26-.82A.71.71 0 0199 82h1.45a.5.5 0 00.34-.25l.47-1.5a.714.714 0 01.67-.51.696.696 0 01.68.51l.46 1.49a.482.482 0 00.35.26h1.45a.709.709 0 01.68.49.741.741 0 01-.26.82l-1.24.91z" fill="#fff"/><path d="M261 165H3a2.999 2.999 0 01-3-3V9a3 3 0 013-3h258a2.998 2.998 0 013 3v153c0 .796-.316 1.559-.879 2.121A2.996 2.996 0 01261 165zM6 159h252V12H6v147z" fill="#607D8B"/><path d="M374 94H153v153h221V94z" fill="#607D8B"/><path d="M348.2 247L153 111.86V94h26.9L374 228.38V247h-25.8z" fill="#fff"/><path d="M153 247v-17.9L348.14 94H374v18.59L179.85 247H153z" fill="#fff"/><path d="M374 247h-8.23L153 99.7V94h9.33L374 240.54V247z" fill="#CFD8DC"/><path d="M153.2 247l-.2-.3v-5.44L365.71 94H374v6.42L162.28 247h-9.08z" fill="#CFD8DC"/><path d="M279 94h-30v153h30V94z" fill="#fff"/><path d="M374 155H153v30h221v-30z" fill="#fff"/><path d="M274 94h-20v153h20V94z" fill="#CFD8DC"/><path d="M374 160H153v20h221v-20z" fill="#CFD8DC"/><path d="M369 245H146a2.996 2.996 0 01-2.121-.879A2.996 2.996 0 01143 242V87a2.999 2.999 0 013-3h223a2.998 2.998 0 013 3v155c0 .796-.316 1.559-.879 2.121A2.996 2.996 0 01369 245zm-220-6h217V90H149v149z" fill="#607D8B"/></svg>