<svg width="600" height="600" fill="none" xmlns="http://www.w3.org/2000/svg"><path d="M561 185H340v153h221V185z" fill="#fff"/><path d="M563 185h-62v153h62V185zM402 185h-62v153h62V185zM448.85 300h1.81l-.66-18.6a1.308 1.308 0 011.55-1.34l18.21 3.35-2.32-6.52a1.345 1.345 0 01.4-1.46L487 259.59l-4.52-2.12a1.33 1.33 0 01-.68-1.62l4.05-11.7-11.25 2.4a1.319 1.319 0 01-1.49-.78l-2-4.9-8.61 9.21a1.309 1.309 0 01-2.25-1.13l4-21.72-6.67 4a1.312 1.312 0 01-1.85-.53l-6.76-13.35-6.75 13.35a1.3 1.3 0 01-.809.67 1.307 1.307 0 01-1.041-.14l-6.67-4 4 21.72a1.324 1.324 0 01-.711 1.404 1.317 1.317 0 01-1.549-.274l-8.6-9.21-2.05 4.9a1.301 1.301 0 01-1.48.78l-11.26-2.4 4.05 11.7c.105.307.094.641-.031.94a1.324 1.324 0 01-.649.68l-4.52 2.12 19.17 15.84a1.298 1.298 0 01.4 1.46l-2.47 6.52 18.22-3.35a1.32 1.32 0 011.098.297 1.308 1.308 0 01.452 1.043l-.71 18.6h1.79z" fill="#CFD8DC"/><path d="M555 335H334a2.996 2.996 0 01-2.121-.879A2.996 2.996 0 01331 332V179c0-.796.316-1.559.879-2.121A2.996 2.996 0 01334 176h221c.796 0 1.559.316 2.121.879.563.562.879 1.325.879 2.121v153c0 .796-.316 1.559-.879 2.121A2.996 2.996 0 01555 335zm-218-6h215V182H337v147z" fill="#607D8B"/><path d="M305 192H47v153h258V192z" fill="#fff"/><path d="M302 192H44v12h258v-12zM302 333H44v12h258v-12zM302 310H44v12h258v-12zM302 286H44v12h258v-12zM302 262H44v12h258v-12zM302 239H44v12h258v-12zM302 215H44v12h258v-12z" fill="#CFD8DC"/><path d="M153 192H47v83h106v-83z" fill="#607D8B"/><path d="M56.52 200.22l.2-.15-.19.15a.337.337 0 00-.14.28.3.3 0 000 .1l.46 1.47a.769.769 0 01-.26.83.663.663 0 01-.84 0l-1.2-.91a.364.364 0 00-.2-.06.315.315 0 00-.19.06l-1.2.91a.663.663 0 01-.84 0 .751.751 0 01-.26-.83l.46-1.47a.342.342 0 000-.1.366.366 0 00-.15-.3l-1.17-.89a.741.741 0 01-.26-.82.699.699 0 01.68-.49h1.45a.497.497 0 00.34-.25l.46-1.5a.73.73 0 01.68-.51.704.704 0 01.68.51l.46 1.49a.477.477 0 00.35.26h1.45a.71.71 0 01.68.941.747.747 0 01-.26.369l-1.19.91zM74.78 200.22l.19-.15-.19.15a.361.361 0 00-.13.28.31.31 0 000 .1l.46 1.47a.769.769 0 01-.26.83.663.663 0 01-.84 0l-1.2-.91a.364.364 0 00-.2-.06.331.331 0 00-.19.06l-1.2.91a.663.663 0 01-.84 0 .75.75 0 01-.26-.83l.46-1.47a.342.342 0 000-.1.366.366 0 00-.15-.3l-1.18-.89a.741.741 0 01-.26-.82.699.699 0 01.68-.49h1.45a.497.497 0 00.34-.25l.47-1.5a.7.7 0 011.35 0l.46 1.49a.477.477 0 00.35.26h1.45a.71.71 0 01.68.941.75.75 0 01-.26.369l-1.18.91zM93 200.22l.19-.15-.19.15a.363.363 0 00-.13.28.31.31 0 000 .1l.46 1.47a.769.769 0 01-.26.83.657.657 0 01-.84 0l-1.2-.91a.349.349 0 00-.39 0l-1.2.91a.657.657 0 01-.84 0 .771.771 0 01-.26-.83l.46-1.47a.335.335 0 000-.1.365.365 0 00-.15-.3l-1.18-.89a.742.742 0 01-.26-.82.711.711 0 01.68-.49h1.45a.472.472 0 00.34-.25l.47-1.5a.722.722 0 01.68-.51.701.701 0 01.67.51l.46 1.49a.478.478 0 00.35.26h1.45a.71.71 0 01.68.49.74.74 0 01-.26.82l-1.18.91zM111.28 200.22l.19-.15-.19.15a.355.355 0 00-.13.28.335.335 0 000 .1l.46 1.47a.755.755 0 01-.26.83.663.663 0 01-.84 0l-1.2-.91a.332.332 0 00-.19-.06.364.364 0 00-.2.06l-1.2.91a.663.663 0 01-.84 0 .767.767 0 01-.26-.83l.46-1.47a.335.335 0 000-.1.39.39 0 00-.043-.17.374.374 0 00-.117-.13l-1.18-.89a.749.749 0 01-.26-.82.714.714 0 01.68-.49h1.45c.2-.06.31-.15.34-.25l.47-1.5a.712.712 0 011.36 0l.46 1.49a.481.481 0 00.34.26h1.45a.702.702 0 01.68.49.742.742 0 01-.26.82l-1.17.91zM129.53 200.22l.19-.15-.18.15a.334.334 0 00-.14.28.335.335 0 000 .1l.46 1.47a.755.755 0 01-.26.83.662.662 0 01-.84 0l-1.2-.91a.332.332 0 00-.38 0l-1.21.91a.662.662 0 01-.84 0 .767.767 0 01-.26-.83l.46-1.47a.335.335 0 000-.1.39.39 0 00-.043-.17.374.374 0 00-.117-.13l-1.18-.89a.749.749 0 01-.26-.82.714.714 0 01.68-.49h1.45c.2-.06.31-.15.34-.25l.47-1.5a.712.712 0 011.36 0l.46 1.49a.481.481 0 00.34.26h1.45a.702.702 0 01.68.49.742.742 0 01-.26.82l-1.17.91zM147.78 200.22l.19-.15-.18.15a.334.334 0 00-.14.28v.1l.46 1.47a.758.758 0 01.003.457.756.756 0 01-.263.373.662.662 0 01-.84 0l-1.2-.91a.332.332 0 00-.38 0l-1.21.91a.662.662 0 01-.84 0 .755.755 0 01-.25-.83l.45-1.47a.335.335 0 000-.1.368.368 0 00-.16-.3l-1.18-.89a.749.749 0 01-.26-.82.714.714 0 01.68-.49h1.45c.2-.06.31-.15.34-.25l.47-1.5a.73.73 0 01.68-.51.71.71 0 01.68.51l.46 1.49a.48.48 0 00.35.26h1.45a.693.693 0 01.67.49.716.716 0 01-.26.82l-1.17.91zM65 208.22l.19-.15-.18.15a.338.338 0 00-.14.28.305.305 0 000 .1l.45 1.47a.751.751 0 01-.26.83.662.662 0 01-.42.15.634.634 0 01-.41-.15l-1.15-.9a.33.33 0 00-.38 0l-1.21.91a.649.649 0 01-.83 0 .751.751 0 01-.26-.83l.45-1.47a.356.356 0 000-.1.378.378 0 00-.15-.3l-1.19-.89a.75.75 0 01-.26-.82.71.71 0 01.75-.5h1.4a.502.502 0 00.35-.25l.46-1.5a.729.729 0 01.68-.51.708.708 0 01.68.51l.46 1.49a.478.478 0 00.35.26h1.45a.711.711 0 01.68.941.75.75 0 01-.26.369l-1.25.91zM83.29 208.22l.19-.15-.18.15a.338.338 0 00-.14.28.3.3 0 000 .1l.45 1.47a.739.739 0 01-.26.83.634.634 0 01-.41.15.663.663 0 01-.42-.15l-1.2-.91a.364.364 0 00-.2-.06.312.312 0 00-.12.07l-1.2.91a.663.663 0 01-.84 0 .751.751 0 01-.26-.83l.46-1.47a.342.342 0 000-.1.379.379 0 00-.15-.3l-1.19-.89a.73.73 0 01-.25-.82.69.69 0 01.67-.49h1.45a.502.502 0 00.35-.25l.46-1.5a.73.73 0 01.68-.51.708.708 0 01.68.51l.46 1.49a.478.478 0 00.35.26h1.45a.711.711 0 01.68.941.746.746 0 01-.26.369l-1.25.9zM101.54 208.22l.2-.15-.19.15a.334.334 0 00-.14.28.335.335 0 000 .1l.46 1.47a.775.775 0 01-.001.455.776.776 0 01-.259.375.662.662 0 01-.84 0l-1.2-.91a.364.364 0 00-.2-.06.315.315 0 00-.19.06l-1.2.91a.663.663 0 01-.84 0 .751.751 0 01-.26-.83l.46-1.47a.342.342 0 000-.1.366.366 0 00-.15-.3l-1.19-.89a.741.741 0 01-.26-.82.699.699 0 01.68-.49h1.45a.497.497 0 00.34-.25l.46-1.5a.73.73 0 01.68-.51.704.704 0 01.68.51l.46 1.49a.48.48 0 00.35.26h1.45a.71.71 0 01.68.49.746.746 0 01-.26.82l-1.17.91zM119.8 208.22l.19-.15-.19.15a.366.366 0 00-.14.28.28.28 0 000 .1l.46 1.47a.767.767 0 01-.26.83.662.662 0 01-.84 0l-1.2-.91a.364.364 0 00-.2-.06.332.332 0 00-.19.06l-1.2.91a.658.658 0 01-.84 0 .756.756 0 01-.263-.373.758.758 0 01.003-.457l.46-1.47a.335.335 0 000-.1.363.363 0 00-.15-.3l-1.18-.89a.74.74 0 01-.26-.82.7.7 0 01.68-.49h1.45a.503.503 0 00.34-.25l.46-1.5a.73.73 0 01.68-.51.704.704 0 01.68.51l.46 1.49a.48.48 0 00.35.26h1.45a.71.71 0 01.68.49.746.746 0 01-.26.82l-1.17.91zM138.05 208.22l.19-.15-.19.15a.355.355 0 00-.13.28.335.335 0 000 .1l.46 1.47a.775.775 0 01-.001.455.776.776 0 01-.259.375.658.658 0 01-.84 0l-1.2-.91a.348.348 0 00-.39 0l-1.2.91a.658.658 0 01-.84 0 .767.767 0 01-.26-.83l.46-1.47a.335.335 0 000-.1.354.354 0 00-.15-.3l-1.18-.89a.74.74 0 01-.26-.82.71.71 0 01.74-.49h1.45a.497.497 0 00.34-.25l.47-1.5a.709.709 0 01.67-.51.7.7 0 01.68.51l.46 1.49a.48.48 0 00.35.26h1.45a.71.71 0 01.68.49.742.742 0 01-.26.82l-1.24.91zM56.52 217.22l.2-.15-.19.15a.337.337 0 00-.14.28.3.3 0 000 .1l.46 1.47a.769.769 0 01-.26.83.663.663 0 01-.84 0l-1.2-.91a.364.364 0 00-.2-.06.315.315 0 00-.19.06l-1.2.91a.663.663 0 01-.84 0 .751.751 0 01-.26-.83l.46-1.47a.342.342 0 000-.1.366.366 0 00-.15-.3l-1.17-.89a.741.741 0 01-.26-.82.699.699 0 01.68-.49h1.45a.497.497 0 00.34-.25l.46-1.5a.73.73 0 01.68-.51.704.704 0 01.68.51l.46 1.49a.477.477 0 00.35.26h1.45a.71.71 0 01.68.941.747.747 0 01-.26.369l-1.19.91zM74.78 217.22l.19-.15-.19.15a.361.361 0 00-.13.28.31.31 0 000 .1l.46 1.47a.769.769 0 01-.26.83.663.663 0 01-.84 0l-1.2-.91a.364.364 0 00-.2-.06.331.331 0 00-.19.06l-1.2.91a.663.663 0 01-.84 0 .75.75 0 01-.26-.83l.46-1.47a.342.342 0 000-.1.366.366 0 00-.15-.3l-1.18-.89a.741.741 0 01-.26-.82.699.699 0 01.68-.49h1.45a.497.497 0 00.34-.25l.47-1.5a.7.7 0 011.35 0l.46 1.49a.477.477 0 00.35.26h1.45a.71.71 0 01.68.941.75.75 0 01-.26.369l-1.18.91zM93 217.22l.19-.15-.19.15a.363.363 0 00-.13.28.31.31 0 000 .1l.46 1.47a.769.769 0 01-.26.83.657.657 0 01-.84 0l-1.2-.91a.349.349 0 00-.39 0l-1.2.91a.657.657 0 01-.84 0 .771.771 0 01-.26-.83l.46-1.47a.335.335 0 000-.1.365.365 0 00-.15-.3l-1.18-.89a.742.742 0 01-.26-.82.711.711 0 01.68-.49h1.45a.472.472 0 00.34-.25l.47-1.5a.722.722 0 01.68-.51.701.701 0 01.67.51l.46 1.49a.478.478 0 00.35.26h1.45a.71.71 0 01.68.49.74.74 0 01-.26.82l-1.18.91zM111.28 217.22l.19-.15-.19.15a.355.355 0 00-.13.28.335.335 0 000 .1l.46 1.47a.755.755 0 01-.26.83.663.663 0 01-.84 0l-1.2-.91a.332.332 0 00-.19-.06.364.364 0 00-.2.06l-1.2.91a.663.663 0 01-.84 0 .767.767 0 01-.26-.83l.46-1.47a.335.335 0 000-.1.39.39 0 00-.043-.17.374.374 0 00-.117-.13l-1.18-.89a.749.749 0 01-.26-.82.714.714 0 01.68-.49h1.45c.2-.06.31-.15.34-.25l.47-1.5a.712.712 0 011.36 0l.46 1.49a.481.481 0 00.34.26h1.45a.702.702 0 01.68.49.742.742 0 01-.26.82l-1.17.91zM129.53 217.22l.19-.15-.18.15a.334.334 0 00-.14.28.335.335 0 000 .1l.46 1.47a.755.755 0 01-.26.83.662.662 0 01-.84 0l-1.2-.91a.332.332 0 00-.38 0l-1.21.91a.662.662 0 01-.84 0 .767.767 0 01-.26-.83l.46-1.47a.335.335 0 000-.1.39.39 0 00-.043-.17.374.374 0 00-.117-.13l-1.18-.89a.749.749 0 01-.26-.82.714.714 0 01.68-.49h1.45c.2-.06.31-.15.34-.25l.47-1.5a.712.712 0 011.36 0l.46 1.49a.481.481 0 00.34.26h1.45a.702.702 0 01.68.49.742.742 0 01-.26.82l-1.17.91zM147.78 217.22l.19-.15-.18.15a.334.334 0 00-.14.28v.1l.46 1.47a.758.758 0 01.003.457.756.756 0 01-.263.373.662.662 0 01-.84 0l-1.2-.91a.332.332 0 00-.38 0l-1.21.91a.662.662 0 01-.84 0 .755.755 0 01-.25-.83l.45-1.47a.335.335 0 000-.1.368.368 0 00-.16-.3l-1.18-.89a.749.749 0 01-.26-.82.714.714 0 01.68-.49h1.45c.2-.06.31-.15.34-.25l.47-1.5a.73.73 0 01.68-.51.71.71 0 01.68.51l.46 1.49a.48.48 0 00.35.26h1.45a.693.693 0 01.67.49.716.716 0 01-.26.82l-1.17.91zM65 225.22l.19-.15-.18.15a.338.338 0 00-.14.28.305.305 0 000 .1l.45 1.47a.751.751 0 01-.26.83.662.662 0 01-.42.15.634.634 0 01-.41-.15l-1.15-.9a.33.33 0 00-.38 0l-1.21.91a.649.649 0 01-.83 0 .751.751 0 01-.26-.83l.45-1.47a.356.356 0 000-.1.378.378 0 00-.15-.3l-1.19-.89a.75.75 0 01-.26-.82.71.71 0 01.75-.5h1.4a.502.502 0 00.35-.25l.46-1.5a.729.729 0 01.68-.51.708.708 0 01.68.51l.46 1.49a.478.478 0 00.35.26h1.45a.711.711 0 01.68.941.75.75 0 01-.26.369l-1.25.91zM83.29 225.22l.19-.15-.18.15a.338.338 0 00-.14.28.3.3 0 000 .1l.45 1.47a.739.739 0 01-.26.83.634.634 0 01-.41.15.663.663 0 01-.42-.15l-1.2-.91a.364.364 0 00-.2-.06.312.312 0 00-.12.07l-1.2.91a.663.663 0 01-.84 0 .751.751 0 01-.26-.83l.46-1.47a.342.342 0 000-.1.379.379 0 00-.15-.3l-1.19-.89a.73.73 0 01-.25-.82.69.69 0 01.67-.49h1.45a.502.502 0 00.35-.25l.46-1.5a.73.73 0 01.68-.51.708.708 0 01.68.51l.46 1.49a.478.478 0 00.35.26h1.45a.711.711 0 01.68.941.746.746 0 01-.26.369l-1.25.9zM101.54 225.22l.2-.15-.19.15a.334.334 0 00-.14.28.335.335 0 000 .1l.46 1.47a.775.775 0 01-.001.455.776.776 0 01-.259.375.662.662 0 01-.84 0l-1.2-.91a.364.364 0 00-.2-.06.315.315 0 00-.19.06l-1.2.91a.663.663 0 01-.84 0 .751.751 0 01-.26-.83l.46-1.47a.342.342 0 000-.1.366.366 0 00-.15-.3l-1.19-.89a.741.741 0 01-.26-.82.699.699 0 01.68-.49h1.45a.497.497 0 00.34-.25l.46-1.5a.73.73 0 01.68-.51.704.704 0 01.68.51l.46 1.49a.48.48 0 00.35.26h1.45a.71.71 0 01.68.49.746.746 0 01-.26.82l-1.17.91zM119.8 225.22l.19-.15-.19.15a.366.366 0 00-.14.28.28.28 0 000 .1l.46 1.47a.767.767 0 01-.26.83.662.662 0 01-.84 0l-1.2-.91a.364.364 0 00-.2-.06.332.332 0 00-.19.06l-1.2.91a.658.658 0 01-.84 0 .756.756 0 01-.263-.373.758.758 0 01.003-.457l.46-1.47a.335.335 0 000-.1.363.363 0 00-.15-.3l-1.18-.89a.74.74 0 01-.26-.82.7.7 0 01.68-.49h1.45a.503.503 0 00.34-.25l.46-1.5a.73.73 0 01.68-.51.704.704 0 01.68.51l.46 1.49a.48.48 0 00.35.26h1.45a.71.71 0 01.68.49.746.746 0 01-.26.82l-1.17.91zM138.05 225.22l.19-.15-.19.15a.355.355 0 00-.13.28.335.335 0 000 .1l.46 1.47a.775.775 0 01-.001.455.776.776 0 01-.259.375.658.658 0 01-.84 0l-1.2-.91a.348.348 0 00-.39 0l-1.2.91a.658.658 0 01-.84 0 .767.767 0 01-.26-.83l.46-1.47a.335.335 0 000-.1.354.354 0 00-.15-.3l-1.18-.89a.74.74 0 01-.26-.82.71.71 0 01.74-.49h1.45a.497.497 0 00.34-.25l.47-1.5a.709.709 0 01.67-.51.7.7 0 01.68.51l.46 1.49a.48.48 0 00.35.26h1.45a.71.71 0 01.68.49.742.742 0 01-.26.82l-1.24.91zM56.52 234.22l.2-.15-.19.15a.337.337 0 00-.14.28.3.3 0 000 .1l.46 1.47a.769.769 0 01-.26.83.663.663 0 01-.84 0l-1.2-.91a.364.364 0 00-.2-.06.315.315 0 00-.19.06l-1.2.91a.663.663 0 01-.84 0 .751.751 0 01-.26-.83l.46-1.47a.342.342 0 000-.1.366.366 0 00-.15-.3l-1.17-.89a.741.741 0 01-.26-.82.699.699 0 01.68-.49h1.45a.497.497 0 00.34-.25l.46-1.5a.73.73 0 01.68-.51.704.704 0 01.68.51l.46 1.49a.477.477 0 00.35.26h1.45a.71.71 0 01.68.941.747.747 0 01-.26.369l-1.19.91zM74.78 234.22l.19-.15-.19.15a.361.361 0 00-.13.28.31.31 0 000 .1l.46 1.47a.769.769 0 01-.26.83.663.663 0 01-.84 0l-1.2-.91a.364.364 0 00-.2-.06.331.331 0 00-.19.06l-1.2.91a.663.663 0 01-.84 0 .75.75 0 01-.26-.83l.46-1.47a.342.342 0 000-.1.366.366 0 00-.15-.3l-1.18-.89a.741.741 0 01-.26-.82.699.699 0 01.68-.49h1.45a.497.497 0 00.34-.25l.47-1.5a.7.7 0 011.35 0l.46 1.49a.477.477 0 00.35.26h1.45a.71.71 0 01.68.941.75.75 0 01-.26.369l-1.18.91zM93 234.22l.19-.15-.19.15a.363.363 0 00-.13.28.31.31 0 000 .1l.46 1.47a.769.769 0 01-.26.83.657.657 0 01-.84 0l-1.2-.91a.349.349 0 00-.39 0l-1.2.91a.657.657 0 01-.84 0 .771.771 0 01-.26-.83l.46-1.47a.335.335 0 000-.1.365.365 0 00-.15-.3l-1.18-.89a.742.742 0 01-.26-.82.711.711 0 01.68-.49h1.45a.472.472 0 00.34-.25l.47-1.5a.722.722 0 01.68-.51.701.701 0 01.67.51l.46 1.49a.478.478 0 00.35.26h1.45a.71.71 0 01.68.49.74.74 0 01-.26.82l-1.18.91zM111.28 234.22l.19-.15-.19.15a.355.355 0 00-.13.28.335.335 0 000 .1l.46 1.47a.755.755 0 01-.26.83.663.663 0 01-.84 0l-1.2-.91a.332.332 0 00-.19-.06.364.364 0 00-.2.06l-1.2.91a.663.663 0 01-.84 0 .767.767 0 01-.26-.83l.46-1.47a.335.335 0 000-.1.39.39 0 00-.043-.17.374.374 0 00-.117-.13l-1.18-.89a.749.749 0 01-.26-.82.714.714 0 01.68-.49h1.45c.2-.06.31-.15.34-.25l.47-1.5a.712.712 0 011.36 0l.46 1.49a.481.481 0 00.34.26h1.45a.702.702 0 01.68.49.742.742 0 01-.26.82l-1.17.91zM129.53 234.22l.19-.15-.18.15a.334.334 0 00-.14.28.335.335 0 000 .1l.46 1.47a.755.755 0 01-.26.83.662.662 0 01-.84 0l-1.2-.91a.332.332 0 00-.38 0l-1.21.91a.662.662 0 01-.84 0 .767.767 0 01-.26-.83l.46-1.47a.335.335 0 000-.1.39.39 0 00-.043-.17.374.374 0 00-.117-.13l-1.18-.89a.749.749 0 01-.26-.82.714.714 0 01.68-.49h1.45c.2-.06.31-.15.34-.25l.47-1.5a.712.712 0 011.36 0l.46 1.49a.481.481 0 00.34.26h1.45a.702.702 0 01.68.49.742.742 0 01-.26.82l-1.17.91zM147.78 234.22l.19-.15-.18.15a.334.334 0 00-.14.28v.1l.46 1.47a.758.758 0 01.003.457.756.756 0 01-.263.373.662.662 0 01-.84 0l-1.2-.91a.332.332 0 00-.38 0l-1.21.91a.662.662 0 01-.84 0 .755.755 0 01-.25-.83l.45-1.47a.335.335 0 000-.1.368.368 0 00-.16-.3l-1.18-.89a.749.749 0 01-.26-.82.714.714 0 01.68-.49h1.45c.2-.06.31-.15.34-.25l.47-1.5a.73.73 0 01.68-.51.71.71 0 01.68.51l.46 1.49a.48.48 0 00.35.26h1.45a.693.693 0 01.67.49.716.716 0 01-.26.82l-1.17.91zM65 242.22l.19-.15-.18.15a.338.338 0 00-.14.28.305.305 0 000 .1l.45 1.47a.751.751 0 01-.26.83.662.662 0 01-.42.15.634.634 0 01-.41-.15l-1.15-.9a.33.33 0 00-.38 0l-1.21.91a.649.649 0 01-.83 0 .751.751 0 01-.26-.83l.45-1.47a.356.356 0 000-.1.378.378 0 00-.15-.3l-1.19-.89a.75.75 0 01-.26-.82.71.71 0 01.75-.5h1.4a.502.502 0 00.35-.25l.46-1.5a.729.729 0 01.68-.51.708.708 0 01.68.51l.46 1.49a.478.478 0 00.35.26h1.45a.711.711 0 01.68.941.75.75 0 01-.26.369l-1.25.91zM83.29 242.22l.19-.15-.18.15a.338.338 0 00-.14.28.3.3 0 000 .1l.45 1.47a.739.739 0 01-.26.83.634.634 0 01-.41.15.663.663 0 01-.42-.15l-1.2-.91a.364.364 0 00-.2-.06.312.312 0 00-.12.07l-1.2.91a.663.663 0 01-.84 0 .751.751 0 01-.26-.83l.46-1.47a.342.342 0 000-.1.379.379 0 00-.15-.3l-1.19-.89a.73.73 0 01-.25-.82.69.69 0 01.67-.49h1.45a.502.502 0 00.35-.25l.46-1.5a.73.73 0 01.68-.51.708.708 0 01.68.51l.46 1.49a.478.478 0 00.35.26h1.45a.711.711 0 01.68.941.746.746 0 01-.26.369l-1.25.9zM101.54 242.22l.2-.15-.19.15a.334.334 0 00-.14.28.335.335 0 000 .1l.46 1.47a.775.775 0 01-.001.455.776.776 0 01-.259.375.662.662 0 01-.84 0l-1.2-.91a.364.364 0 00-.2-.06.315.315 0 00-.19.06l-1.2.91a.663.663 0 01-.84 0 .751.751 0 01-.26-.83l.46-1.47a.342.342 0 000-.1.366.366 0 00-.15-.3l-1.19-.89a.741.741 0 01-.26-.82.699.699 0 01.68-.49h1.45a.497.497 0 00.34-.25l.46-1.5a.73.73 0 01.68-.51.704.704 0 01.68.51l.46 1.49a.48.48 0 00.35.26h1.45a.71.71 0 01.68.49.746.746 0 01-.26.82l-1.17.91zM119.8 242.22l.19-.15-.19.15a.366.366 0 00-.14.28.28.28 0 000 .1l.46 1.47a.767.767 0 01-.26.83.662.662 0 01-.84 0l-1.2-.91a.364.364 0 00-.2-.06.332.332 0 00-.19.06l-1.2.91a.658.658 0 01-.84 0 .756.756 0 01-.263-.373.758.758 0 01.003-.457l.46-1.47a.335.335 0 000-.1.363.363 0 00-.15-.3l-1.18-.89a.74.74 0 01-.26-.82.7.7 0 01.68-.49h1.45a.503.503 0 00.34-.25l.46-1.5a.73.73 0 01.68-.51.704.704 0 01.68.51l.46 1.49a.48.48 0 00.35.26h1.45a.71.71 0 01.68.49.746.746 0 01-.26.82l-1.17.91zM138.05 242.22l.19-.15-.19.15a.355.355 0 00-.13.28.335.335 0 000 .1l.46 1.47a.775.775 0 01-.001.455.776.776 0 01-.259.375.658.658 0 01-.84 0l-1.2-.91a.348.348 0 00-.39 0l-1.2.91a.658.658 0 01-.84 0 .767.767 0 01-.26-.83l.46-1.47a.335.335 0 000-.1.354.354 0 00-.15-.3l-1.18-.89a.74.74 0 01-.26-.82.71.71 0 01.74-.49h1.45a.497.497 0 00.34-.25l.47-1.5a.709.709 0 01.67-.51.7.7 0 01.68.51l.46 1.49a.48.48 0 00.35.26h1.45a.71.71 0 01.68.49.742.742 0 01-.26.82l-1.24.91zM56.52 251.22l.2-.15-.19.15a.337.337 0 00-.14.28.3.3 0 000 .1l.46 1.47a.769.769 0 01-.26.83.663.663 0 01-.84 0l-1.2-.91a.364.364 0 00-.2-.06.315.315 0 00-.19.06l-1.2.91a.663.663 0 01-.84 0 .751.751 0 01-.26-.83l.46-1.47a.342.342 0 000-.1.366.366 0 00-.15-.3l-1.17-.89a.741.741 0 01-.26-.82.699.699 0 01.68-.49h1.45a.497.497 0 00.34-.25l.46-1.5a.73.73 0 01.68-.51.704.704 0 01.68.51l.46 1.49a.477.477 0 00.35.26h1.45a.71.71 0 01.68.941.747.747 0 01-.26.369l-1.19.91zM74.78 251.22l.19-.15-.19.15a.361.361 0 00-.13.28.31.31 0 000 .1l.46 1.47a.769.769 0 01-.26.83.663.663 0 01-.84 0l-1.2-.91a.364.364 0 00-.2-.06.331.331 0 00-.19.06l-1.2.91a.663.663 0 01-.84 0 .75.75 0 01-.26-.83l.46-1.47a.342.342 0 000-.1.366.366 0 00-.15-.3l-1.18-.89a.741.741 0 01-.26-.82.699.699 0 01.68-.49h1.45a.497.497 0 00.34-.25l.47-1.5a.7.7 0 011.35 0l.46 1.49a.477.477 0 00.35.26h1.45a.71.71 0 01.68.941.75.75 0 01-.26.369l-1.18.91zM93 251.22l.19-.15-.19.15a.363.363 0 00-.13.28.31.31 0 000 .1l.46 1.47a.769.769 0 01-.26.83.657.657 0 01-.84 0l-1.2-.91a.349.349 0 00-.39 0l-1.2.91a.657.657 0 01-.84 0 .771.771 0 01-.26-.83l.46-1.47a.335.335 0 000-.1.365.365 0 00-.15-.3l-1.18-.89a.742.742 0 01-.26-.82.711.711 0 01.68-.49h1.45a.472.472 0 00.34-.25l.47-1.5a.722.722 0 01.68-.51.701.701 0 01.67.51l.46 1.49a.478.478 0 00.35.26h1.45a.71.71 0 01.68.49.74.74 0 01-.26.82l-1.18.91zM111.28 251.22l.19-.15-.19.15a.355.355 0 00-.13.28.335.335 0 000 .1l.46 1.47a.755.755 0 01-.26.83.663.663 0 01-.84 0l-1.2-.91a.332.332 0 00-.19-.06.364.364 0 00-.2.06l-1.2.91a.663.663 0 01-.84 0 .767.767 0 01-.26-.83l.46-1.47a.335.335 0 000-.1.39.39 0 00-.043-.17.374.374 0 00-.117-.13l-1.18-.89a.749.749 0 01-.26-.82.714.714 0 01.68-.49h1.45c.2-.06.31-.15.34-.25l.47-1.5a.712.712 0 011.36 0l.46 1.49a.481.481 0 00.34.26h1.45a.702.702 0 01.68.49.742.742 0 01-.26.82l-1.17.91zM129.53 251.22l.19-.15-.18.15a.334.334 0 00-.14.28.335.335 0 000 .1l.46 1.47a.755.755 0 01-.26.83.662.662 0 01-.84 0l-1.2-.91a.332.332 0 00-.38 0l-1.21.91a.662.662 0 01-.84 0 .767.767 0 01-.26-.83l.46-1.47a.335.335 0 000-.1.39.39 0 00-.043-.17.374.374 0 00-.117-.13l-1.18-.89a.749.749 0 01-.26-.82.714.714 0 01.68-.49h1.45c.2-.06.31-.15.34-.25l.47-1.5a.712.712 0 011.36 0l.46 1.49a.481.481 0 00.34.26h1.45a.702.702 0 01.68.49.742.742 0 01-.26.82l-1.17.91zM147.78 251.22l.19-.15-.18.15a.334.334 0 00-.14.28v.1l.46 1.47a.758.758 0 01.003.457.756.756 0 01-.263.373.662.662 0 01-.84 0l-1.2-.91a.332.332 0 00-.38 0l-1.21.91a.662.662 0 01-.84 0 .755.755 0 01-.25-.83l.45-1.47a.335.335 0 000-.1.368.368 0 00-.16-.3l-1.18-.89a.749.749 0 01-.26-.82.714.714 0 01.68-.49h1.45c.2-.06.31-.15.34-.25l.47-1.5a.73.73 0 01.68-.51.71.71 0 01.68.51l.46 1.49a.48.48 0 00.35.26h1.45a.693.693 0 01.67.49.716.716 0 01-.26.82l-1.17.91zM56.52 268.22l.2-.15-.19.15a.337.337 0 00-.14.28.3.3 0 000 .1l.46 1.47a.769.769 0 01-.26.83.663.663 0 01-.84 0l-1.2-.91a.364.364 0 00-.2-.06.315.315 0 00-.19.06l-1.2.91a.663.663 0 01-.84 0 .751.751 0 01-.26-.83l.46-1.47a.342.342 0 000-.1.366.366 0 00-.15-.3l-1.17-.89a.741.741 0 01-.26-.82.699.699 0 01.68-.49h1.45a.497.497 0 00.34-.25l.46-1.5a.73.73 0 01.68-.51.704.704 0 01.68.51l.46 1.49a.477.477 0 00.35.26h1.45a.71.71 0 01.68.941.747.747 0 01-.26.369l-1.19.91zM74.78 268.22l.19-.15-.19.15a.361.361 0 00-.13.28.31.31 0 000 .1l.46 1.47a.769.769 0 01-.26.83.663.663 0 01-.84 0l-1.2-.91a.364.364 0 00-.2-.06.331.331 0 00-.19.06l-1.2.91a.663.663 0 01-.84 0 .75.75 0 01-.26-.83l.46-1.47a.342.342 0 000-.1.366.366 0 00-.15-.3l-1.18-.89a.741.741 0 01-.26-.82.699.699 0 01.68-.49h1.45a.497.497 0 00.34-.25l.47-1.5a.7.7 0 011.35 0l.46 1.49a.477.477 0 00.35.26h1.45a.71.71 0 01.68.941.75.75 0 01-.26.369l-1.18.91zM93 268.22l.19-.15-.19.15a.363.363 0 00-.13.28.31.31 0 000 .1l.46 1.47a.769.769 0 01-.26.83.657.657 0 01-.84 0l-1.2-.91a.349.349 0 00-.39 0l-1.2.91a.657.657 0 01-.84 0 .771.771 0 01-.26-.83l.46-1.47a.335.335 0 000-.1.365.365 0 00-.15-.3l-1.18-.89a.742.742 0 01-.26-.82.711.711 0 01.68-.49h1.45a.472.472 0 00.34-.25l.47-1.5a.722.722 0 01.68-.51.701.701 0 01.67.51l.46 1.49a.478.478 0 00.35.26h1.45a.71.71 0 01.68.49.74.74 0 01-.26.82l-1.18.91zM111.28 268.22l.19-.15-.19.15a.355.355 0 00-.13.28.335.335 0 000 .1l.46 1.47a.755.755 0 01-.26.83.663.663 0 01-.84 0l-1.2-.91a.332.332 0 00-.19-.06.364.364 0 00-.2.06l-1.2.91a.663.663 0 01-.84 0 .767.767 0 01-.26-.83l.46-1.47a.335.335 0 000-.1.39.39 0 00-.043-.17.374.374 0 00-.117-.13l-1.18-.89a.749.749 0 01-.26-.82.714.714 0 01.68-.49h1.45c.2-.06.31-.15.34-.25l.47-1.5a.712.712 0 011.36 0l.46 1.49a.481.481 0 00.34.26h1.45a.702.702 0 01.68.49.742.742 0 01-.26.82l-1.17.91zM129.53 268.22l.19-.15-.18.15a.334.334 0 00-.14.28.335.335 0 000 .1l.46 1.47a.755.755 0 01-.26.83.662.662 0 01-.84 0l-1.2-.91a.332.332 0 00-.38 0l-1.21.91a.662.662 0 01-.84 0 .767.767 0 01-.26-.83l.46-1.47a.335.335 0 000-.1.39.39 0 00-.043-.17.374.374 0 00-.117-.13l-1.18-.89a.749.749 0 01-.26-.82.714.714 0 01.68-.49h1.45c.2-.06.31-.15.34-.25l.47-1.5a.712.712 0 011.36 0l.46 1.49a.481.481 0 00.34.26h1.45a.702.702 0 01.68.49.742.742 0 01-.26.82l-1.17.91zM147.78 268.22l.19-.15-.18.15a.334.334 0 00-.14.28v.1l.46 1.47a.758.758 0 01.003.457.756.756 0 01-.263.373.662.662 0 01-.84 0l-1.2-.91a.332.332 0 00-.38 0l-1.21.91a.662.662 0 01-.84 0 .755.755 0 01-.25-.83l.45-1.47a.335.335 0 000-.1.368.368 0 00-.16-.3l-1.18-.89a.746.746 0 01-.26-.82.714.714 0 01.68-.49h1.45c.2-.06.31-.15.34-.25l.47-1.5a.73.73 0 01.68-.51.71.71 0 01.68.51l.46 1.49a.48.48 0 00.35.26h1.45a.693.693 0 01.67.49.716.716 0 01-.26.82l-1.17.91zM65 260.22l.19-.15-.18.15a.338.338 0 00-.14.28.305.305 0 000 .1l.45 1.47a.751.751 0 01-.26.83.662.662 0 01-.42.15.634.634 0 01-.41-.15l-1.15-.9a.33.33 0 00-.38 0l-1.21.91a.649.649 0 01-.83 0 .751.751 0 01-.26-.83l.45-1.47a.356.356 0 000-.1.378.378 0 00-.15-.3l-1.19-.89a.75.75 0 01-.26-.82.71.71 0 01.75-.5h1.4a.502.502 0 00.35-.25l.46-1.5a.729.729 0 01.68-.51.708.708 0 01.68.51l.46 1.49a.478.478 0 00.35.26h1.45a.711.711 0 01.68.941.75.75 0 01-.26.369l-1.25.91zM83.29 260.22l.19-.15-.18.15a.338.338 0 00-.14.28.3.3 0 000 .1l.45 1.47a.739.739 0 01-.26.83.634.634 0 01-.41.15.663.663 0 01-.42-.15l-1.2-.91a.364.364 0 00-.2-.06.312.312 0 00-.12.07l-1.2.91a.663.663 0 01-.84 0 .751.751 0 01-.26-.83l.46-1.47a.342.342 0 000-.1.379.379 0 00-.15-.3l-1.19-.89a.73.73 0 01-.25-.82.69.69 0 01.67-.49h1.45a.502.502 0 00.35-.25l.46-1.5a.73.73 0 01.68-.51.708.708 0 01.68.51l.46 1.49a.478.478 0 00.35.26h1.45a.711.711 0 01.68.941.746.746 0 01-.26.369l-1.25.9zM101.54 260.22l.2-.15-.19.15a.334.334 0 00-.14.28.335.335 0 000 .1l.46 1.47a.775.775 0 01-.001.455.776.776 0 01-.259.375.662.662 0 01-.84 0l-1.2-.91a.364.364 0 00-.2-.06.315.315 0 00-.19.06l-1.2.91a.663.663 0 01-.84 0 .751.751 0 01-.26-.83l.46-1.47a.342.342 0 000-.1.366.366 0 00-.15-.3l-1.19-.89a.741.741 0 01-.26-.82.699.699 0 01.68-.49h1.45a.497.497 0 00.34-.25l.46-1.5a.73.73 0 01.68-.51.704.704 0 01.68.51l.46 1.49a.48.48 0 00.35.26h1.45a.71.71 0 01.68.49.746.746 0 01-.26.82l-1.17.91zM119.8 260.22l.19-.15-.19.15a.366.366 0 00-.14.28.28.28 0 000 .1l.46 1.47a.767.767 0 01-.26.83.662.662 0 01-.84 0l-1.2-.91a.364.364 0 00-.2-.06.332.332 0 00-.19.06l-1.2.91a.658.658 0 01-.84 0 .756.756 0 01-.263-.373.758.758 0 01.003-.457l.46-1.47a.335.335 0 000-.1.363.363 0 00-.15-.3l-1.18-.89a.74.74 0 01-.26-.82.7.7 0 01.68-.49h1.45a.503.503 0 00.34-.25l.46-1.5a.73.73 0 01.68-.51.704.704 0 01.68.51l.46 1.49a.48.48 0 00.35.26h1.45a.71.71 0 01.68.49.746.746 0 01-.26.82l-1.17.91zM138.05 260.22l.19-.15-.19.15a.355.355 0 00-.13.28.335.335 0 000 .1l.46 1.47a.775.775 0 01-.001.455.776.776 0 01-.259.375.658.658 0 01-.84 0l-1.2-.91a.348.348 0 00-.39 0l-1.2.91a.658.658 0 01-.84 0 .767.767 0 01-.26-.83l.46-1.47a.335.335 0 000-.1.354.354 0 00-.15-.3l-1.18-.89a.74.74 0 01-.26-.82.71.71 0 01.74-.49h1.45a.497.497 0 00.34-.25l.47-1.5a.709.709 0 01.67-.51.7.7 0 01.68.51l.46 1.49a.48.48 0 00.35.26h1.45a.71.71 0 01.68.49.742.742 0 01-.26.82l-1.24.91z" fill="#fff"/><path d="M295 341H37a2.999 2.999 0 01-3-3V185a2.998 2.998 0 013-3h258c.796 0 1.559.316 2.121.879.563.562.879 1.325.879 2.121v153c0 .796-.316 1.559-.879 2.121A2.996 2.996 0 01295 341zm-255-6h252V188H40v147z" fill="#607D8B"/><path d="M408 270H187v153h221V270z" fill="#607D8B"/><path d="M382.2 423L187 287.86V270h26.9L408 404.38V423h-25.8z" fill="#fff"/><path d="M187 423v-17.9L382.14 270H408v18.59L213.85 423H187z" fill="#fff"/><path d="M408 423h-8.23L187 275.7V270h9.33L408 416.54V423z" fill="#CFD8DC"/><path d="M187.2 423l-.2-.3v-5.44L399.71 270H408v6.42L196.28 423h-9.08z" fill="#CFD8DC"/><path d="M313 270h-30v153h30V270z" fill="#fff"/><path d="M408 331H187v30h221v-30z" fill="#fff"/><path d="M308 270h-20v153h20V270z" fill="#CFD8DC"/><path d="M408 336H187v20h221v-20z" fill="#CFD8DC"/><path d="M403 421H180a2.996 2.996 0 01-2.121-.879A2.996 2.996 0 01177 418V263c0-.796.316-1.559.879-2.121A2.996 2.996 0 01180 260h223c.796 0 1.559.316 2.121.879.563.562.879 1.325.879 2.121v155c0 .796-.316 1.559-.879 2.121A2.996 2.996 0 01403 421zm-220-6h217V266H183v149z" fill="#607D8B"/></svg>