<svg width="600" height="600" fill="none" xmlns="http://www.w3.org/2000/svg"><path d="M536.23 135.64l.65.22a2.112 2.112 0 011.3 1.3l.22.65a.391.391 0 00.73 0l.23-.65a2.103 2.103 0 011.3-1.3l.65-.22a.391.391 0 000-.73l-.65-.23a2.103 2.103 0 01-1.3-1.3l-.23-.65a.391.391 0 00-.73 0l-.22.65a2.12 2.12 0 01-1.3 1.3l-.65.23a.391.391 0 000 .73zM50.5 124.43l.65.23a2.068 2.068 0 011.3 1.29l.22.65a.382.382 0 00.37.26.403.403 0 00.37-.26l.22-.65a2.083 2.083 0 011.3-1.29l.65-.23a.392.392 0 00.183-.587.392.392 0 00-.183-.143l-.65-.23a2.103 2.103 0 01-1.3-1.3l-.22-.64a.41.41 0 00-.37-.27.385.385 0 00-.23.075.384.384 0 00-.14.195l-.22.64a2.107 2.107 0 01-1.3 1.3l-.65.23a.392.392 0 00-.184.587c.045.065.11.115.184.143zM273 121.89l1.11.38a3.6 3.6 0 012.22 2.22l.38 1.11a.659.659 0 001.015.323.677.677 0 00.245-.323l.38-1.11a3.591 3.591 0 012.22-2.22l1.1-.38a.661.661 0 000-1.25l-1.1-.39a3.577 3.577 0 01-2.22-2.21l-.38-1.11a.677.677 0 00-.63-.45.658.658 0 00-.63.45l-.38 1.11a3.583 3.583 0 01-2.22 2.21l-1.11.39a.656.656 0 00-.448.625.66.66 0 00.448.625z" fill="#fff"/><path d="M293.03 514.09c106.469 0 192.78-86.311 192.78-192.78 0-106.47-86.311-192.78-192.78-192.78s-192.78 86.31-192.78 192.78c0 106.469 86.311 192.78 192.78 192.78z" fill="#CFD8DC"/><path d="M333.7 187.55c-22.41 1.18-44.3-11.49-52.81 2.79-8.51 14.28-7.81 33.75-18.36 30.28-10.55-3.47-28.83 4.47-28.32 14.24.16 3 2 5.25 4.57 7a10.422 10.422 0 013.778 12.03 10.408 10.408 0 01-2.388 3.79c-2.59 2.66-4.47 5.39-4.35 7.64.36 6.9 17.14-2.63 31-1.63 3.77.27 12.39 6.88 13.76 1.79 12.11-44.85 24.62 11.92 32.44 3.53 29.81-32 39.9 21.25 17.67 25.88-22.23 4.63-61.56-20-76.91-16.23-15.35 3.77-36.1 3.8-35.12 22.45.98 18.65 7.71 47.68 37.83 61.65 30.12 13.97 30.58 55.43 28 71.12-2.58 15.69 15.7 35.48 27.22 24.5 11.52-10.98 57.15-63.52 56-85.93-1.15-22.41-4.09-44.73-9.81-54.8-3.35-5.9 5.54-4.73 13.48-2.75a10.477 10.477 0 008.218-1.35 10.466 10.466 0 004.632-6.92 10.476 10.476 0 017.911-8.312 10.473 10.473 0 0110.779 3.932c8.27 11.1 18.48 20.5 24.48 22.11 11.76 3.16 47.26-21.51 46.54-35.3-.45-8.51 3-19.45 2.51-35.24-25.31-69.92-87.66-102.19-87.72-101.94-4.21 16.19-38.22 34.78-55.03 35.67zM403.2 372.49c-3.32-.29-26.84 24.06-26.84 37 0 12.94 25 12 26.84 0 1.84-12 27.66-34.58 0-37zM445 333.8c-2.14 1.38-6.7 25-1.54 31.74 5.16 6.74 19.94-5.28 16.28-12.42s3.02-30.85-14.74-19.32zM147.44 354.06c-34.95-23.27-34.95-41.17-34.95-62.64s15.53 0 17.47-8.95c1.94-8.95 23.3-16.11 46.6-17.9 23.3-1.79 13.59-32.22 9.71-48.32-3.88-16.1 17.47-16.11 19.42-25.06 1.95-8.95-19.42-28.76-19.42-28.76-3 .29-6.1 4.81-9.31 6.08A192.451 192.451 0 00102.15 321c0 59.27 26.76 111.06 68.85 146.42 2.37-17.6 17.85-29.63 25-50.49 9.69-28.44-13.61-39.6-48.56-62.87z" fill="#90A4AE"/><path d="M310.76 468.34a16.597 16.597 0 01-7.77-2.08c-8.74-4.64-16.79-17.43-14.84-29.09 2.41-14.38 2.39-54.62-26.25-67.9-32.26-15-38.64-46.66-39.56-64.22-1-18 15.72-21.2 29.11-23.78 2.91-.56 5.66-1.08 8.28-1.73 8-2 20.19 2.34 34.33 7.35 14.79 5.23 31.56 11.16 42.69 8.84 7.65-1.59 9.21-10.18 9.5-12.77.85-7.47-1.88-14.65-6.35-16.71-4.47-2.06-10.92 1-18 8.59a5.276 5.276 0 01-4.41 1.79c-3.9-.37-6.8-5-10.46-10.91-2.45-3.93-7-11.25-9.41-10.89-.58.08-3.68 1.22-7.45 15.22a5.306 5.306 0 01-2.86 3.58c-3 1.43-6.6-.17-10.11-1.71a20.156 20.156 0 00-3.91-1.46c-5.65-.4-11.93 1.11-17.47 2.44-6.55 1.57-11.29 2.71-14.24.5a5.293 5.293 0 01-1.528-1.822 5.293 5.293 0 01-.572-2.308c-.15-2.91 1.55-6.14 5.19-9.9a7.595 7.595 0 002.12-6.06 7.065 7.065 0 00-3-5.19c-4.62-3.16-5.74-6.81-5.87-9.31-.23-4.23 2.1-8.43 6.56-11.84 7.23-5.52 18.27-7.85 25.69-5.41.36.168.752.26 1.149.269.398.008.793-.066 1.161-.219 2.18-1.12 3.89-6.56 5.54-11.82 1.72-5.44 3.66-11.61 7-17.2 6.49-10.88 19.08-8.72 32.42-6.42 7.4 1.27 15.05 2.58 22.81 2.18 15.39-.81 48.48-18.81 52.23-33.44a3 3 0 012.77-2.25c1.59-.11 7.49 3.55 12.15 6.61a208.451 208.451 0 0124.58 19c17.29 15.5 40.68 41.67 53.95 78.32.109.298.169.612.18.93.134 7.666-.381 15.33-1.54 22.91a72.164 72.164 0 00-1 12.27c.47 8.92-9.94 18.74-16.19 23.8-10.6 8.58-25.8 16.78-34.12 14.55-7.61-2.05-18.6-13.13-26.1-23.21a7.473 7.473 0 00-7.742-2.856A7.467 7.467 0 00393.77 311a13.48 13.48 0 01-5.953 8.904 13.464 13.464 0 01-10.567 1.746c-5.88-1.47-8.76-1.6-10.07-1.5 6.53 11.67 9.11 36.86 10.11 56 1.35 25.56-49.93 81.62-56.89 88.25a13.77 13.77 0 01-9.64 3.94zM264.19 285a12.666 12.666 0 00-3 .32c-2.77.69-5.73 1.26-8.58 1.81-15.52 3-24.89 5.65-24.26 17.57 1 19.8 8.15 46.13 36.09 59.08 32.05 14.86 32.27 58.71 29.65 74.35-1.5 9 5 19.21 11.73 22.79 4 2.14 7.55 1.81 10.46-1 13.19-12.56 56.12-63.19 55-83.6-1.38-26.22-4.73-45.21-9.42-53.47-1.81-3.2-1.09-5.32-.17-6.54 2.17-2.85 7.25-3 17-.6a7.473 7.473 0 008.031-3.095 7.484 7.484 0 001.139-2.815 13.473 13.473 0 0110.18-10.695 13.468 13.468 0 0113.87 5.065c9 12.07 18.48 19.83 22.85 21 5.05 1.35 18-4.67 28.79-13.43 8.72-7.05 14.2-14.44 14-18.82a75.483 75.483 0 011-13.36 130.649 130.649 0 001.51-21.47c-21.85-59.82-71-91.27-83.12-98.23-7.86 16.78-39.74 33.52-56.44 34.4-8.44.45-16.78-1-24.15-2.26-14-2.4-22.07-3.42-26.25 3.59-3 5-4.8 10.79-6.41 15.92-2.3 7.32-4.12 13.1-8.53 15.36a8.734 8.734 0 01-6.93.31c-5.51-1.81-14.56.19-20.17 4.48-1.64 1.25-4.37 3.8-4.21 6.76.09 1.7 1.16 3.23 3.27 4.67a13.144 13.144 0 015.62 9.55 13.565 13.565 0 01-3.74 10.91c-2.76 2.84-3.36 4.43-3.48 5.08 1.62.19 5.8-.82 8.92-1.57 5.67-1.36 12.72-3.06 19.3-2.58 2.058.331 4.05.989 5.9 1.95a24.807 24.807 0 004.83 1.75c3.45-12.61 7.24-18.54 12.29-19.29 6.29-.92 10.91 6.49 15.38 13.66 1.72 2.76 4.24 6.8 5.67 7.9 11.43-12.09 19.69-11.93 24.64-9.65 5.67 2.61 11.16 10.87 9.8 22.83-1.07 9.48-6.53 16.37-14.24 18-12.77 2.66-30.38-3.57-45.91-9.07-10.91-3.86-21.26-7.56-27.91-7.56z" fill="#607D8B"/><path d="M395.64 425.68c-.65 0-1.31 0-2-.07-8.28-.61-13.64-5.47-13.64-12.31 0-12.27 16.43-30.09 22.19-35.36 4.9-4.5 6.66-4.76 7.91-4.65 7.67.68 12.38 2.92 14.41 6.87 3.2 6.25-1.51 14.19-6.07 21.87-2.54 4.28-5.17 8.7-5.63 11.72-.93 5.99-7.2 11.93-17.17 11.93zm14.42-46.36c-4.69 2.28-24.06 23.32-24.06 34 0 5.29 6.2 6.18 8.1 6.32 5.58.42 12-2 12.78-6.78.64-4.17 3.43-8.88 6.4-13.87 3.38-5.69 7.58-12.77 5.89-16.07-.95-1.87-4.1-3.11-9.11-3.6zM454.31 374.32a8 8 0 01-6.58-3.17c-4.67-6.13-2.62-20.53-1.88-24.8 1.67-9.64 3.49-10.83 4.17-11.27 3.44-2.24 8.5-5 12.69-2.83 4.63 2.38 4.94 8.83 5.24 15.06.15 3.13.32 6.68 1.11 8.24 3 5.74-1.58 12.72-7.36 16.36a14.059 14.059 0 01-7.39 2.41zm-.63-34.46c-1.78 3.45-4.91 22.77-1.18 27.66 1.56 2 5.55-.4 6-.68 3.8-2.4 6.29-6.48 5.23-8.55-1.4-2.71-1.58-6.59-1.78-10.69-.16-3.45-.44-9.22-2-10-.14-.09-1.61-.69-6.27 2.26zM177.64 474.2a2.997 2.997 0 01-1.93-.71 196.139 196.139 0 01-51-65.24 190.514 190.514 0 01-18.94-83.48 194.63 194.63 0 0176-154.84c.226-.173.475-.314.74-.42a15.212 15.212 0 003.4-2.47c2-1.75 4.13-3.55 6.72-3.8a3 3 0 012.37.76c3.78 3.5 22.5 21.48 20.31 31.59-1.06 4.86-5.67 7.45-10.13 10-6.89 3.86-11 6.6-9.3 13.76.3 1.26.64 2.62 1 4 3.28 13 7.78 30.86.53 40.93-3 4.2-7.7 6.57-13.93 7.05-25.45 1.95-42.6 9.59-43.9 15.54a5.65 5.65 0 01-2.89 4.12c-2.63 1.33-5.53 0-8.34-1.23-1.35-.6-4.17-1.86-4.86-1.42 0 0-1.31.92-1.31 6.84 0 21.1 0 37.77 33.61 60.15 3.626 2.407 7.12 4.7 10.48 6.88 29.32 19.13 48.69 31.76 39.24 59.44-3.38 9.89-8.65 18-13.29 25.12-5.56 8.54-10.36 15.91-11.56 24.8a3.008 3.008 0 01-1.89 2.39 2.93 2.93 0 01-1.13.24zm7.49-299.29a188.635 188.635 0 00-73.34 149.86 184.684 184.684 0 0018.34 80.88 189.567 189.567 0 0045.61 60c2.2-7.94 6.69-14.84 11.4-22.08 4.71-7.24 9.5-14.6 12.64-23.78 7.94-23.26-8-33.64-36.84-52.47-3.36-2.2-6.88-4.49-10.52-6.92-36.29-24.16-36.29-43.15-36.29-65.14 0-6.31 1.29-10.09 4.05-11.88 3.42-2.21 7.39-.44 10.58 1 .952.456 1.934.847 2.94 1.17 2.67-11.48 26.63-18.38 49.27-20.12 4.44-.34 7.56-1.83 9.52-4.56 5.62-7.81 1.35-24.75-1.48-36-.36-1.45-.71-2.82-1-4.11-2.87-11.93 5.84-16.82 12.2-20.4 3.46-1.94 6.72-3.77 7.21-6 1-4.69-9.23-17-17.2-24.67a28.89 28.89 0 00-2.39 1.91 20.246 20.246 0 01-4.7 3.31z" fill="#607D8B"/><path opacity=".2" d="M299.63 131.06a198.416 198.416 0 00-43.5 4.8c86.9 19.52 151.75 96.27 151.75 188S343 492.28 256.13 511.8a198.48 198.48 0 0043.5 4.81c107.83 0 195.24-86.31 195.24-192.78s-87.41-192.77-195.24-192.77z" fill="#607D8B"/><path d="M301.57 519.94c-107.95 0-195.78-87.83-195.78-195.78s87.83-195.79 195.78-195.79 195.79 87.83 195.79 195.79-87.83 195.78-195.79 195.78zm0-385.57c-104.65 0-189.78 85.14-189.78 189.79 0 104.65 85.13 189.78 189.78 189.78s189.79-85.14 189.79-189.78-85.14-189.79-189.79-189.79z" fill="#607D8B"/><path d="M392.51 456.59h2.59a19.996 19.996 0 016.521-12.658 19.995 19.995 0 0113.289-5.112 19.998 19.998 0 0119.8 17.77H445a19.995 19.995 0 0114.062 5.858 19.995 19.995 0 015.858 14.062A20 20 0 01445 496.43h-52.5a20 20 0 01-19.92-19.92 20 20 0 0119.93-19.92zM450.22 232.72h2a15.65 15.65 0 0115.5-13.91 15.652 15.652 0 0115.5 13.91h8.05a15.638 15.638 0 0115.59 15.59 15.634 15.634 0 01-15.59 15.59h-41.05a15.638 15.638 0 01-15.59-15.59 15.638 15.638 0 0115.59-15.59zM89.46 216.74h2.9a22.49 22.49 0 0122.28-20 22.49 22.49 0 0122.27 20h11.57a22.473 22.473 0 0122.41 22.4 22.466 22.466 0 01-22.41 22.4h-59a22.471 22.471 0 01-22.41-22.4 22.47 22.47 0 0122.39-22.4zM132.15 441h2.44a18.787 18.787 0 0118.62-16.72A18.793 18.793 0 01171.83 441h9.69a18.793 18.793 0 0118.73 18.73 18.791 18.791 0 01-18.73 18.74h-49.37a18.792 18.792 0 01-18.73-18.74A18.79 18.79 0 01132.15 441z" fill="#fff"/><path fill-rule="evenodd" clip-rule="evenodd" d="M75.63 391.86l-1.76-.08a5.373 5.373 0 01-4.1-2.27l-1-1.43a.998.998 0 00-1.8.52l-.09 1.75a5.352 5.352 0 01-2.27 4.1l-1.43 1a.997.997 0 00-.377 1.088 1 1 0 00.897.722l1.75.09a5.36 5.36 0 014.11 2.26l1 1.43a.996.996 0 001.08.365 1.004 1.004 0 00.72-.885l.09-1.75a5.36 5.36 0 012.26-4.1l1.44-1a1.002 1.002 0 00.043-1.591.994.994 0 00-.563-.219zM465.88 128.67l-1.75-.09a5.344 5.344 0 01-4.1-2.26l-1-1.44a.996.996 0 00-1.088-.377 1.001 1.001 0 00-.722.897l-.09 1.75a5.321 5.321 0 01-2.26 4.11l-1.43 1a.997.997 0 00.52 1.8l1.75.09a5.373 5.373 0 014.1 2.27l1 1.43a.998.998 0 001.81-.52l.08-1.75a5.368 5.368 0 012.27-4.11l1.43-1a.997.997 0 00-.52-1.8z" fill="#CFD8DC"/><path opacity=".42" fill-rule="evenodd" clip-rule="evenodd" d="M538 399l-2.87-.15a8.75 8.75 0 01-6.72-3.71l-1.65-2.35a1.632 1.632 0 00-2.665-.107c-.213.278-.33.617-.335.967l-.15 2.87a8.735 8.735 0 01-3.7 6.72l-2.35 1.65a1.626 1.626 0 00-.113 2.66c.276.214.614.333.963.34l2.87.14a8.774 8.774 0 016.72 3.71l1.66 2.35a1.623 1.623 0 003-.85l.15-2.87a8.725 8.725 0 013.71-6.72l2.34-1.66a1.623 1.623 0 00.112-2.663A1.623 1.623 0 00538 399z" fill="#CFD8DC"/><path fill-rule="evenodd" clip-rule="evenodd" d="M571.05 304.59l-1.76-.09a5.39 5.39 0 01-4.12-2.28l-1-1.44a.999.999 0 00-1.82.53l-.08 1.76a5.4 5.4 0 01-2.28 4.12l-1.44 1a1.002 1.002 0 00-.38 1.1 1 1 0 00.9.71l1.76.09a5.427 5.427 0 014.13 2.28l1 1.44c.121.167.29.293.485.361a1 1 0 001.325-.881l.09-1.76a5.438 5.438 0 012.28-4.13l1.44-1a1.005 1.005 0 00.376-1.093 1.005 1.005 0 00-.906-.717z" fill="#CFD8DC"/><path opacity=".42" fill-rule="evenodd" clip-rule="evenodd" d="M125.91 124.15l-1.76-.09a5.362 5.362 0 01-4.12-2.27l-1-1.44a1.002 1.002 0 00-1.82.52l-.09 1.76a5.376 5.376 0 01-.659 2.322 5.376 5.376 0 01-1.611 1.798l-1.44 1a.998.998 0 00-.044 1.591c.161.129.358.206.564.219l1.76.09a5.354 5.354 0 014.12 2.27l1 1.44a1.002 1.002 0 001.591.043c.129-.161.205-.357.219-.563l.09-1.76A5.333 5.333 0 01125 127l1.44-1a1.003 1.003 0 00.375-1.093 1 1 0 00-.905-.717v-.04z" fill="#CFD8DC"/><path fill-rule="evenodd" clip-rule="evenodd" d="M285.13 89.47h1.17A3.597 3.597 0 01289 91l.68 1a.646.646 0 00.72.25.658.658 0 00.48-.6l.06-1.17a3.53 3.53 0 011.51-2.73l.95-.67a.69.69 0 00.26-.73.647.647 0 00-.61-.47l-1.16-.06a3.604 3.604 0 01-2.74-1.51l-.67-1a.66.66 0 00-.73-.25.646.646 0 00-.47.6l-.06 1.17a3.569 3.569 0 01-1.51 2.73l-1 .67a.667.667 0 00-.249.727.669.669 0 00.599.483l.07.03z" fill="#CFD8DC"/><path opacity=".42" d="M541.2 194.12a5.23 5.23 0 10-.001-10.461 5.23 5.23 0 00.001 10.461z" fill="#CFD8DC"/><path d="M33.23 289.1a5.23 5.23 0 100-10.46 5.23 5.23 0 000 10.46zM448.8 502.73h-52.49a22.428 22.428 0 01-21.956-22.425 22.427 22.427 0 0121.956-22.425h.45a22.43 22.43 0 0143.88 0h8.16a22.43 22.43 0 010 44.85zm-52.49-39.85a17.43 17.43 0 000 34.85h52.49a17.43 17.43 0 000-34.85h-12.54l-.24-2.23a17.42 17.42 0 00-34.64 0l-.24 2.23h-4.83zM495.09 270.2H454a18.087 18.087 0 01-18.13-18.05 18.091 18.091 0 0118.05-18.13 18.099 18.099 0 0135.21 0h5.95c4.798 0 9.399 1.906 12.792 5.298a18.093 18.093 0 010 25.584 18.093 18.093 0 01-12.792 5.298h.01zM454 239a13.089 13.089 0 100 26.18h41.08a13.089 13.089 0 100-26.18h-10.3l-.24-2.23a13.087 13.087 0 00-13-11.558 13.093 13.093 0 00-13 11.558l-.24 2.23H454zM152.28 267.84h-59a24.913 24.913 0 01-24.41-24.905 24.912 24.912 0 0124.41-24.905H94a24.9 24.9 0 0148.82 0h9.44a24.912 24.912 0 010 49.81h.02zM93.25 223a19.912 19.912 0 00-19.464 19.905A19.91 19.91 0 0093.25 262.81h59a19.912 19.912 0 0019.464-19.905A19.91 19.91 0 00152.25 223h-13.79l-.24-2.23a19.91 19.91 0 00-39.58 0L98.4 223h-5.15zM185.31 484.73H136a21.242 21.242 0 110-42.47h.31a21.232 21.232 0 0120.745-16.718A21.232 21.232 0 01177.8 442.26h7.56a21.238 21.238 0 010 42.47h-.05zM136 447.26a16.234 16.234 0 00-15.368 9.927 16.233 16.233 0 000 12.616A16.236 16.236 0 00136 479.73h49.36a16.24 16.24 0 000-32.47h-11.97l-.25-2.23a16.233 16.233 0 00-16.135-14.477 16.23 16.23 0 00-16.135 14.477l-.25 2.23H136z" fill="#CFD8DC"/></svg>