<svg width="24" height="24" fill="none" viewBox="0 0 48 48" xmlns="http://www.w3.org/2000/svg"><path d="M40.385 13.7L24.718 4.161a1.214 1.214 0 00-1.21 0l-15.77 8.681a1.24 1.24 0 00-.462.456c-.112.19-.171.408-.173.63L7 32.189a1.27 1.27 0 00.156.623c.104.19.255.35.439.463l15.667 9.558c.193.113.413.17.635.167.208.004.412-.047.595-.146l15.77-8.703a1.24 1.24 0 00.462-.455c.112-.19.171-.408.173-.63L41 14.806a1.27 1.27 0 00-.16-.64 1.242 1.242 0 00-.455-.467zM24.062 6.75l13.206 8.055-5.64 3.11-12.632-8.473 5.066-2.692zm-.657 15.714a1.173 1.173 0 00-.184.167l-13.063-8.285 6.419-3.548 12.673 8.473-5.845 3.193zM9.543 16.892l12.55 7.889V39.2L9.44 31.48l.103-14.588zm15.01 22.957V24.593l13.945-7.7v15.4L24.554 39.85z" fill="#253238"/></svg>