<svg width="48" height="48" viewBox="0 0 48 48" fill="none" xmlns="http://www.w3.org/2000/svg"><path fill-rule="evenodd" clip-rule="evenodd" d="M2 34.5l.137-22.032a1.959 1.959 0 011.06-1.717L23.169.238a2.084 2.084 0 012.01.042L45.014 11.8c.615.358.99 1.004.986 1.7l-.136 22.032a1.959 1.959 0 01-1.061 1.717L24.831 47.762a2.083 2.083 0 01-2.01-.042L2.986 36.2A1.955 1.955 0 012 34.5zm19.139 7.454l-15.045-8.74.101-16.34 14.94 8.948.004 16.132zm4.057.933l16.59-8.733.108-17.334-16.703 8.79.005 17.277zm14.5-29.386L24.09 4.436l-5.247 2.762 14.59 9.26c.095.06.183.127.265.2l5.998-3.157zM14.795 9.33l14.881 9.445-6.643 3.497-.057.03-15.355-9.196 7.174-3.776z" fill="#253238"/></svg>