<svg width="24" height="24" fill="none" viewBox="0 0 48 48" xmlns="http://www.w3.org/2000/svg"><path fill-rule="evenodd" clip-rule="evenodd" d="M42.796 21.579C42.796 12.419 34.556 5 24.398 5 14.241 5 6 12.42 6 21.579c0 .565.032 1.13.095 1.694.42 7.36 7.862 14.819 16.976 18.484.486.168.915.243 1.361.243.493 0 .891-.074 1.35-.249l.176-.071h.001l.048-.02.09-.038c9.046-3.788 16.2-11.144 16.613-18.446.056-.483.086-1.043.086-1.597zM24.474 38.743h-.001l-.057.024h-.002c-7.755-3.123-14.43-9.73-14.775-15.742-.058-.53-.084-.986-.084-1.446 0-7.368 6.642-13.348 14.843-13.348s14.843 5.98 14.843 13.348c0 .45-.025.9-.075 1.352-.341 5.991-6.75 12.487-14.556 15.756l-.136.056zm-.076-11.808c3.383 0 6.118-2.463 6.118-5.493 0-3.03-2.735-5.493-6.118-5.493-3.382 0-6.118 2.463-6.118 5.493 0 3.03 2.736 5.493 6.118 5.493zm-9.673-5.493c0 4.822 4.334 8.725 9.673 8.725s9.673-3.903 9.673-8.725c0-4.822-4.334-8.725-9.673-8.725s-9.673 3.903-9.673 8.725z" fill="#253238"/></svg>