<svg width="24" height="24" viewBox="0 0 48 48" fill="none" xmlns="http://www.w3.org/2000/svg"><path fill-rule="evenodd" clip-rule="evenodd" d="M36.857 6.014V40.25h-5.714V22.113c0-1.112-.96-2.014-2.143-2.014-1.183 0-2.143.902-2.143 2.014V40.25h-5.714V8.692c0-1.112-.96-2.014-2.143-2.014-1.183 0-2.143.902-2.143 2.014V40.25h-5.714V27.479c0-1.113-.96-2.014-2.143-2.014-1.184 0-2.143.901-2.143 2.014v12.77H5.765C4.79 40.25 4 41.153 4 42.265s.79 2.014 1.765 2.014h36.47c.975 0 1.765-.902 1.765-2.014 0-1.112-.79-2.014-1.765-2.014h-1.092V6.014C41.143 4.902 40.183 4 39 4c-1.184 0-2.143.902-2.143 2.014z" fill="#253238"/></svg>