<svg width="48" height="48" viewBox="0 0 48 48" fill="none" xmlns="http://www.w3.org/2000/svg"><path d="M39.964 2.4v40.8h-6.428V21.586c0-1.326-1.08-2.4-2.411-2.4a2.405 2.405 0 00-2.41 2.4V43.2h-6.43V5.592c0-1.326-1.079-2.4-2.41-2.4a2.405 2.405 0 00-2.41 2.4V43.2h-6.43V27.98c0-1.326-1.079-2.4-2.41-2.4a2.405 2.405 0 00-2.41 2.4V43.2h-1.23C3.89 43.2 3 44.275 3 45.6S3.889 48 4.985 48h41.03C47.11 48 48 46.925 48 45.6s-.889-2.4-1.985-2.4h-1.23V2.4c0-1.325-1.079-2.4-2.41-2.4a2.405 2.405 0 00-2.41 2.4z" fill="#253238"/></svg>