<svg width="18" height="18" xmlns="http://www.w3.org/2000/svg" fill="none"><g stroke="null"><path fill="#fff" d="M0 0h18v18H0z"/><path fill="#253238" d="M17.916 6.075L16.193 1.2c-.225-.75-.9-1.2-1.649-1.2H3.457c-.75 0-1.424.45-1.648 1.2L.085 6.075c-.224.75 0 1.575.6 1.95l.3.3.449.45v4.95C1.434 16.05 3.307 18 5.554 18H12.372c2.247 0 4.12-1.95 4.12-4.275v-4.95l.45-.45c.075-.15.225-.225.3-.3.674-.375.898-1.2.674-1.95zM1.509 6.6l1.723-4.875c.075-.15.15-.225.225-.225H14.47c.074 0 .224.075.224.225L16.492 6.6v.225c-.224.15-.45.375-.6.525-.224.3-.299.375-.523.375-.15 0-.225-.075-.525-.375-.3-.3-.749-.825-1.648-.825-.9 0-1.349.525-1.648.825-.225.3-.3.375-.525.375-.224 0-.224-.075-.524-.375-.3-.3-.75-.825-1.648-.825-.9 0-1.349.525-1.648.825-.225.3-.3.375-.525.375-.225 0-.225-.075-.524-.375-.3-.3-.75-.825-1.648-.825-.9 0-1.05.45-1.349.825-.225.3-.3.375-.524.375-.225 0-.225-.075-.525-.375-.15-.225-.3-.375-.524-.525-.075-.075-.075-.15-.075-.225zm5.993 9.9v-3.45c0-.825.675-1.5 1.499-1.5.824 0 1.498.675 1.498 1.5v3.45H7.502zm4.945 0h-.45v-3.45c0-1.65-1.348-3-2.996-3a3.007 3.007 0 00-2.997 3v3.45h-.45c-1.423 0-2.622-1.275-2.622-2.775V9.15c.675-.075 1.05-.525 1.274-.825.225-.3.3-.375.524-.375.225 0 .225.075.525.375.3.3.749.825 1.648.825.899 0 1.348-.525 1.648-.825.225-.3.3-.375.525-.375.224 0 .224.075.524.375.3.3.75.825 1.648.825.9 0 1.349-.525 1.648-.825.225-.3.3-.375.525-.375.15 0 .224.075.524.375.225.3.674.675 1.274.825v4.575c-.15 1.5-1.349 2.775-2.772 2.775z"/></g></svg>