<svg width="48" height="48" viewBox="0 0 48 48" fill="none" xmlns="http://www.w3.org/2000/svg"><path fill-rule="evenodd" clip-rule="evenodd" d="M10.19 2.99h-.012a1.701 1.701 0 00-1.206.511l-5.115 5.19c-1.12 1.34-1.356 2.87.7 7.29.052.114 3.957 8.844 11.207 16.02 7.277 7.206 17.57 11.746 17.673 11.79 3.385 1.527 4.676 1.584 5.777.278l5.299-5.252a1.565 1.565 0 00.313-1.8 1.575 1.575 0 00-.392-.513l-6.704-5.808c-.454-.392-1.024-.884-2.318.42l-4.55 4.468a1.52 1.52 0 01-1.738.283c-.135-.067-3.31-1.674-9.457-7.761-6.228-6.163-7.855-10.861-7.922-11.056a1.485 1.485 0 01.405-1.565l4.406-4.066c1.302-1.53 1.007-1.82.572-2.257L11.39 3.478a1.693 1.693 0 00-1.202-.492v.002l.002.002zM37.385 48c-1.907 0-3.812-.86-5.184-1.48-.425-.184-10.9-4.803-18.575-12.404C5.959 26.528 1.967 17.58 1.8 17.206-.182 12.946-.91 9.686 1.611 6.686l5.2-5.28A4.701 4.701 0 018.344.37 4.74 4.74 0 0110.16 0h.03c1.261 0 2.444.486 3.334 1.368L19.27 7.05c2.71 2.682.325 5.46-.456 6.37a1.61 1.61 0 01-.124.129l-3.696 3.41c.724 1.516 2.641 4.902 6.815 9.03 3.903 3.865 6.502 5.803 7.776 6.649l3.687-3.631c2.084-2.1 4.438-2.304 6.453-.56l6.698 5.805h.002c.475.413.86.919 1.13 1.485a4.55 4.55 0 01-.902 5.196l-5.206 5.15c-1.2 1.435-2.63 1.917-4.06 1.917zm.076-25.5c-.402 0-.787-.158-1.072-.44a1.492 1.492 0 01-.443-1.06c0-2.52-.922-4.817-2.601-6.472-1.654-1.632-3.938-2.527-6.438-2.527h-.053c-.402 0-.788-.157-1.072-.438a1.493 1.493 0 01-.005-2.122c.284-.282.67-.441 1.072-.442 3.354-.038 6.393 1.196 8.637 3.404 2.251 2.219 3.49 5.272 3.49 8.597 0 .398-.16.78-.444 1.06-.284.282-.67.44-1.071.44zm7.574-3c-.401 0-.787-.158-1.07-.439a1.492 1.492 0 01-.444-1.06c0-4.03-1.291-7.435-3.734-9.847C37.365 5.762 33.962 4.5 29.947 4.5c-.021 0-.039.005-.062 0a1.528 1.528 0 01-1.072-.438 1.492 1.492 0 01-.004-2.12c.284-.283.669-.441 1.07-.442h.068c4.837 0 8.978 1.567 11.98 4.53 3.024 2.988 4.624 7.128 4.624 11.97 0 .398-.16.78-.443 1.061-.284.281-.67.44-1.072.44z" fill="#13C1AC"/></svg>