<svg width="310" height="172" fill="none" viewBox="0 0 310 172" xmlns="http://www.w3.org/2000/svg"><g clip-path="url(#a)"><path d="M208.98 198.6H83.392c-14.783 0-11.056-34.161-4.97-46.211 8.2-15.9 20.746-20.621 34.162-26.211 6.211-2.608 19.254-11.552 22.111-23.602 3.106-12.919 10.932-23.974 21.49-29.937 10.932-5.963 26.087-6.584 37.143-.87 6.211 3.23 13.043 9.193 15.652 14.907 2.981 6.584 4.223 14.658 5.093 23.354 1.366 15.03 2.608 30.31 3.478 43.477 1.118 15.776 1.863 22.112 1.987 31.801 0 7.081-3.726 13.292-10.558 13.292Z" fill="#FD6C67" stroke="#FD6C67" stroke-width="3" stroke-linecap="round" stroke-linejoin="round"/><path d="M206.247 165.308c15.403-2.857 30.807-8.074 39.005-10.931 4.969-1.739 12.423-5.59 15.901-9.565 3.354-3.975 1.987-10.435-1.739-14.037-4.1-3.975-10.683-2.981-16.273-1.988-5.839 1.118-23.478 7.329-41.118 7.329" fill="#FD6C67"/><path d="M206.247 165.308c15.403-2.857 30.807-8.074 39.005-10.931 4.969-1.739 12.423-5.59 15.901-9.565 3.354-3.975 1.987-10.435-1.739-14.037-4.1-3.975-10.683-2.981-16.273-1.988-5.839 1.118-23.478 7.329-41.118 7.329" stroke="#FD6C67" stroke-width="3" stroke-linecap="round" stroke-linejoin="round"/><path d="m230.718 118.85-5.59 35.155c-.372 2.609 1.367 4.969 3.975 5.466l15.901 2.484c2.608.373 4.969-1.366 5.466-3.975l5.589-35.154c.373-2.609-1.366-4.969-3.975-5.466l-15.9-2.485c-2.609-.372-4.969 1.367-5.466 3.975Z" fill="#A31745" stroke="#A31745" stroke-width="3" stroke-linecap="round" stroke-linejoin="round"/><path d="m240.531 125.433.746-4.596M229.227 157.359l6.459-40.248" stroke="#FD6C67" stroke-width="3" stroke-linecap="round" stroke-linejoin="round"/><path d="M136.434 164.19a88.46 88.46 0 0 0 32.794-3.229c11.925-3.479 18.012-7.081 21.49-9.441 4.969-3.354 6.46-5.59 5.218-13.292-.249-1.863-.373-3.851-1.491-5.466-1.366-1.987-4.099-2.857-6.459-2.857-.746 0-1.491.124-2.236.249l-.373-2.857c-.124-1.739-.621-3.354-1.367-4.845-.993-1.366-2.857-2.36-4.472-1.615-1.863.87-2.236 3.354-2.484 5.466-.373 2.981-1.739 5.838-3.851 7.95-1.615 1.242-3.478 2.112-5.341 2.484a40.868 40.868 0 0 1-19.752 0" stroke="#A31745" stroke-width="3" stroke-linecap="round" stroke-linejoin="round"/><path d="M189.102 137.608c2.236-.373 4.223-1.118 6.211-2.236" stroke="#A31745" stroke-width="3" stroke-linecap="round" stroke-linejoin="round"/><path d="m243.389 83.447-1.491-4.223M259.039 85.186l.745-3.975M271.957 92.888l2.981-2.857M277.426 108.167l3.851.124M231.338 94.13l-2.858-2.484" stroke="#90A4AE" stroke-width="3" stroke-linecap="round" stroke-linejoin="round"/><path d="M71.836 95c7.826 0 14.286-6.336 14.286-14.286 0-7.826-6.336-14.285-14.286-14.285-7.826 0-14.285 6.335-14.285 14.285S63.886 95 71.836 95ZM91.836 79.596l5.714-.372M46 82.329l5.714-.373M88.61 69.658l4.72-3.105M50.223 95l4.72-3.106M80.781 62.827l2.609-5.094M60.285 103.943l2.609-5.093M70.595 60.714 70.223 55M73.33 106.552l-.373-5.714M60.656 64.068l-3.105-4.72M86 102.328l-3.106-4.72M53.828 71.77l-5.094-2.485M94.945 92.266l-5.093-2.609" stroke="#CFD8DC" stroke-width="3" stroke-linecap="round" stroke-linejoin="round"/><path fill-rule="evenodd" clip-rule="evenodd" d="M65.254 79.471c0-.248-.124-.62-.373-.87-.124-.248-.372-.372-.745-.496a1.061 1.061 0 0 0-.87 0c-.248.124-.62.248-.745.497-.248.248-.373.497-.373.745 0 .249 0 .621.125.87.124.248.372.496.62.62.25.125.622.25.87.25.249 0 .373-.125.621-.125.249-.124.373-.249.497-.373s.249-.372.249-.497c.124-.124.124-.372.124-.62ZM81.156 78.602c0-.248-.124-.62-.372-.87-.125-.248-.373-.372-.746-.496a1.061 1.061 0 0 0-.87 0c-.248.124-.62.248-.745.497-.248.248-.372.496-.372.745 0 .248 0 .621.124.87.124.248.373.496.621.62.249.125.621.25.87.25.372 0 .745-.25.993-.498.373-.373.621-.745.497-1.118Z" fill="#CFD8DC"/><path d="m74.324 78.727.124 1.49c0 .746-.249 1.49-.745 2.112-.497.621-1.243.87-1.988.994-.373 0-.745 0-1.118-.124-.373-.125-.745-.373-.994-.497-.248-.249-.497-.497-.621-.87s-.248-.745-.248-1.118l-.125-1.49" stroke="#CFD8DC" stroke-width="3" stroke-linecap="round" stroke-linejoin="round"/><path fill-rule="evenodd" clip-rule="evenodd" d="M192.457 89.657c0-.745.248-1.49.621-2.111.373-.622.994-1.118 1.739-1.491.746-.249 1.491-.373 2.236-.249.746.125 1.491.497 1.988 1.118.497.497.869 1.243 1.118 1.988.124.745.124 1.49-.249 2.236a2.936 2.936 0 0 1-1.49 1.74c-.621.372-1.367.62-2.112.62-.497 0-.994-.124-1.491-.248-.497-.249-.869-.497-1.242-.87-.373-.372-.621-.745-.87-1.242-.248-.497-.248-.994-.248-1.49ZM156.059 89.657c0-.745.248-1.49.621-2.111.372-.622.993-1.118 1.739-1.491.745-.249 1.49-.373 2.236-.249.745.125 1.49.497 1.987 1.118.497.497.87 1.243 1.118 1.988.125.745.125 1.49-.248 2.236a2.938 2.938 0 0 1-1.491 1.74c-.621.372-1.366.62-2.112.62a3.853 3.853 0 0 1-2.732-1.118 3.85 3.85 0 0 1-1.118-2.733Z" fill="#A31745"/><path d="M180.781 110.775h-5.342c-3.105 0-5.962-1.242-8.198-3.353-2.112-2.112-3.354-5.094-3.354-8.2v-1.366h28.571v1.367c0 1.491-.249 2.981-.87 4.472-.621 1.366-1.491 2.733-2.484 3.727-1.118 1.117-2.361 1.863-3.727 2.484-1.615.621-3.105.994-4.596.869Z" fill="#A31745" stroke="#A31745" stroke-width="3.41" stroke-linecap="round" stroke-linejoin="round"/><path d="M186.247 109.409c-2.858-4.348-6.211-7.329-13.789-7.329-2.733 0-5.342.373-7.95 1.242.869 2.236 2.236 4.1 4.223 5.466 1.988 1.366 4.224 2.112 6.584 2.112h5.342c1.987 0 3.85-.497 5.59-1.491Z" fill="#FD6C67" stroke="#A31745" stroke-width="3.41" stroke-linecap="round" stroke-linejoin="round"/></g><defs><clipPath id="a"><path fill="#fff" d="M0 0h310v172H0z"/></clipPath></defs></svg>