<svg width="39" height="38" viewBox="0 0 39 38" fill="none" xmlns="http://www.w3.org/2000/svg"><path d="M.852 17.01C.852 7.77 8.343.277 17.584.277c9.242 0 16.734 7.492 16.734 16.733 0 9.242-7.492 16.733-16.733 16.733C8.342 33.743.851 26.252.851 17.01Z" fill="#000" stroke="#fff" stroke-width="4"/><path d="M19.483 6.973c-2.268 0-3.902 1.235-4.834 2.556a.16.16 0 0 1-.22.043 4.352 4.352 0 0 0-2.412-.73c-2.396 0-4.474 2.064-4.474 4.61 0 1.943 1.051 3.234 1.647 3.729a.171.171 0 0 1 .038.22c-.392.658-.784 1.829-.784 2.698 0 2.677 2.088 4.847 4.686 4.847.801 0 1.405-.153 1.654-.23.073-.021.15.01.188.077.447.782 1.812 2.26 4.091 2.26 2.335 0 4.626-1.886 4.833-4.46a.167.167 0 0 1 .132-.15c2.1-.407 3.595-2.422 3.595-4.632 0-2.2-1.286-3.467-2.047-3.986a.166.166 0 0 1-.071-.153c.235-2.933-1.951-6.7-6.022-6.7Zm-8.995 12.832c0-.536.115-1.082.388-1.581.017-.03.079-.125.182-.1.41.118.815.178 1.303.178.497 0 .866-.406.866-.906a.886.886 0 0 0-.922-.897c-1.111 0-2.573-.996-2.573-2.834 0-1.58 1.226-2.803 2.674-2.803.561 0 1.04.11 1.64.495.216.138.442.38.874.38.357 0 .589-.221.694-.437.274-.565 1.373-2.124 3.78-2.124 2.119 0 4.048 2.053 4.048 4.27 0 1.263-.413 1.973-.878 2.685-.16.246-.185.43-.185.61 0 .569.444.958.93.958.737 0 1.224-.93 1.545-1.525a.108.108 0 0 1 .185-.011c.2.287.51.957.51 1.838 0 1.248-.972 2.687-2.72 2.847-.56.051-.868.36-.89.941-.065 1.628-1.331 2.859-2.909 2.859-1.957 0-3.03-1.984-2.826-3.614.083-.664-.428-1.017-.878-1.017a.92.92 0 0 0-.867.536c-.27.54-.283 1.631-.232 2.062.02.155-.054.24-.64.24-1.559-.002-3.099-1.201-3.099-3.05Z" fill="#fff"/></svg>