<svg width="48" height="47" fill="none" viewBox="0 0 48 47" xmlns="http://www.w3.org/2000/svg"><path fill-rule="evenodd" clip-rule="evenodd" d="M34.5 43.968H45V19.71H34.5v24.258zm-18 0v-3.79c0-.417.336-.759.75-.759s.75.342.75.758v3.79h-1.5zM3 3.032h28.5v40.936H21v-3.79c0-2.091-1.683-3.79-3.75-3.79-2.069 0-3.75 1.699-3.75 3.79v3.79H3V3.032zm43.5 13.645c.828 0 1.5.678 1.5 1.517v27.29c0 .838-.672 1.516-1.5 1.516h-45C.672 47 0 46.322 0 45.484V1.516C0 .678.672 0 1.5 0H33c.828 0 1.5.678 1.5 1.516v15.161H39v-3.032c0-.838.672-1.516 1.5-1.516s1.5.678 1.5 1.516v3.032h4.5zM8.565 6.504c-.075-.06-.15-.136-.225-.182a1.13 1.13 0 00-.27-.136 1.381 1.381 0 00-1.14 0c-.09.03-.18.076-.27.136-.075.046-.15.122-.225.182-.135.152-.24.319-.315.5-.075.182-.12.38-.12.577 0 .197.045.394.12.576.075.182.18.347.315.485.15.152.315.258.495.333a1.438 1.438 0 001.635-.334c.135-.137.24-.302.315-.484.075-.182.12-.38.12-.576 0-.197-.045-.395-.12-.576a1.567 1.567 0 00-.315-.5zM13.5 9.097H15c.828 0 1.5-.678 1.5-1.516 0-.839-.672-1.516-1.5-1.516h-1.5c-.828 0-1.5.677-1.5 1.516 0 .838.672 1.516 1.5 1.516zm6 0H21c.828 0 1.5-.678 1.5-1.516 0-.839-.672-1.516-1.5-1.516h-1.5c-.828 0-1.5.677-1.5 1.516 0 .838.672 1.516 1.5 1.516zM6.435 12.569A1.6 1.6 0 006 13.645c0 .197.045.394.12.576.075.182.18.348.315.5.15.137.315.243.495.319.18.076.375.121.57.121.195 0 .39-.045.57-.121.18-.076.345-.182.495-.318.285-.29.435-.669.435-1.077a1.6 1.6 0 00-.435-1.076c-.555-.561-1.575-.561-2.13 0zM13.5 15.16H15c.828 0 1.5-.677 1.5-1.516 0-.838-.672-1.516-1.5-1.516h-1.5c-.828 0-1.5.678-1.5 1.516 0 .839.672 1.516 1.5 1.516zm6 0H21c.828 0 1.5-.677 1.5-1.516 0-.838-.672-1.516-1.5-1.516h-1.5c-.828 0-1.5.678-1.5 1.516 0 .839.672 1.516 1.5 1.516zM8.565 18.633c-.15-.136-.3-.242-.495-.318a1.472 1.472 0 00-1.14 0 1.547 1.547 0 00-.495.318c-.135.152-.24.319-.315.5a1.514 1.514 0 00.315 1.653c.285.287.66.44 1.065.44.195 0 .39-.032.57-.121.18-.076.345-.182.495-.319a1.514 1.514 0 00.315-1.652 1.753 1.753 0 00-.315-.5zm4.935 2.593H15c.828 0 1.5-.678 1.5-1.516 0-.839-.672-1.517-1.5-1.517h-1.5c-.828 0-1.5.678-1.5 1.517 0 .838.672 1.516 1.5 1.516zm6 0H21c.828 0 1.5-.678 1.5-1.516 0-.839-.672-1.517-1.5-1.517h-1.5c-.828 0-1.5.678-1.5 1.517 0 .838.672 1.516 1.5 1.516zM8.565 24.698c-.075-.06-.15-.137-.225-.182-.09-.06-.18-.106-.27-.137a.998.998 0 00-.27-.092 1.52 1.52 0 00-1.365.41c-.135.152-.24.304-.315.501-.075.182-.12.38-.12.576 0 .197.045.394.12.576.075.182.18.348.315.5.15.137.315.243.495.319.18.076.375.121.57.121.195 0 .39-.045.57-.121.18-.076.345-.182.495-.318a1.514 1.514 0 00.315-1.653 1.754 1.754 0 00-.315-.5zM13.5 27.29H15c.828 0 1.5-.677 1.5-1.516 0-.838-.672-1.516-1.5-1.516h-1.5c-.828 0-1.5.678-1.5 1.516 0 .839.672 1.516 1.5 1.516zm6 0H21c.828 0 1.5-.677 1.5-1.516 0-.838-.672-1.516-1.5-1.516h-1.5c-.828 0-1.5.678-1.5 1.516 0 .839.672 1.516 1.5 1.516zm6.435-18.648c.15.152.315.258.495.334.18.076.375.121.57.121.405 0 .78-.153 1.065-.455.135-.138.24-.303.315-.485.075-.182.12-.379.12-.576 0-.197-.045-.394-.12-.576a1.551 1.551 0 00-.315-.5c-.075-.061-.15-.137-.225-.182-.09-.061-.18-.108-.27-.137a1.38 1.38 0 00-1.14 0c-.09.029-.18.076-.27.137-.075.045-.15.12-.225.181-.135.15-.24.319-.315.5-.075.183-.12.38-.12.577 0 .197.045.394.12.576.075.182.18.347.315.485zm.494 6.398a1.483 1.483 0 001.635-.318c.135-.154.24-.319.315-.5.09-.183.12-.38.12-.577 0-.394-.165-.788-.435-1.076-.15-.137-.3-.243-.495-.319a1.42 1.42 0 00-1.14 0 1.546 1.546 0 00-.495.319c-.27.288-.435.667-.435 1.076 0 .41.15.788.435 1.077.15.136.315.242.495.318zm0 6.064c.18.091.375.122.57.122.195 0 .39-.03.57-.122a1.73 1.73 0 00.495-.318 1.51 1.51 0 00.315-1.653 1.754 1.754 0 00-.315-.5c-.15-.136-.3-.242-.495-.318a1.486 1.486 0 00-1.14 0 1.546 1.546 0 00-.495.318c-.135.152-.24.319-.315.5a1.509 1.509 0 00.315 1.653c.15.136.315.243.495.318zm0 6.065a1.483 1.483 0 001.635-.318 1.51 1.51 0 00.435-1.077c0-.197-.03-.394-.12-.576a1.754 1.754 0 00-.315-.5 1.729 1.729 0 00-.495-.319 1.42 1.42 0 00-.87-.09.947.947 0 00-.27.09c-.09.03-.18.076-.27.137-.075.045-.15.12-.225.182-.135.151-.24.318-.315.5a1.509 1.509 0 00.315 1.653c.15.136.315.242.495.318zm-19.5 3.275a1.547 1.547 0 00-.495.318A1.6 1.6 0 006 31.84c0 .197.045.394.12.576.075.182.18.347.315.5.15.137.315.243.495.319.18.09.375.121.57.121.195 0 .39-.032.57-.121.18-.076.345-.182.495-.319.285-.29.435-.668.435-1.076a1.6 1.6 0 00-.435-1.077 1.486 1.486 0 00-1.635-.318zm6.57 2.91H15c.829 0 1.5-.677 1.5-1.515 0-.839-.671-1.516-1.5-1.516h-1.5c-.827 0-1.5.677-1.5 1.516 0 .838.673 1.516 1.5 1.516zm6 0H21c.829 0 1.5-.677 1.5-1.515 0-.839-.671-1.516-1.5-1.516h-1.5c-.827 0-1.5.677-1.5 1.516 0 .838.673 1.516 1.5 1.516zm6.436-.439c.15.137.315.243.495.319.18.09.375.12.57.12.195 0 .39-.03.57-.12a1.73 1.73 0 00.495-.319 1.51 1.51 0 00.435-1.076c0-.394-.165-.789-.435-1.077-.555-.56-1.575-.56-2.13 0-.27.288-.435.683-.435 1.077 0 .197.045.394.12.576.075.182.18.347.315.5zm10.994-8.778c.18.075.375.12.57.12.195 0 .39-.045.57-.12.18-.076.345-.182.495-.319.285-.288.435-.667.435-1.076 0-.394-.165-.789-.435-1.077a1.732 1.732 0 00-.495-.318 1.42 1.42 0 00-.87-.091.947.947 0 00-.27.09c-.09.031-.18.077-.27.137-.075.046-.15.122-.225.182-.27.288-.435.683-.435 1.077 0 .41.15.788.435 1.076.15.137.315.243.495.319zm-.494 5.746c.15.136.315.242.495.318.18.076.375.122.57.122.195 0 .39-.046.57-.122.18-.076.345-.182.495-.318.135-.153.24-.319.315-.5.075-.182.12-.38.12-.576 0-.198-.045-.395-.12-.577a1.753 1.753 0 00-.315-.5c-.075-.06-.15-.137-.225-.182-.09-.06-.18-.106-.27-.136a.9.9 0 00-.285-.091c-.48-.107-.99.06-1.35.409-.135.152-.24.303-.315.5-.075.182-.12.38-.12.576 0 .197.045.395.12.577.075.181.18.347.315.5zm0 6.064c.15.137.315.243.495.319.18.076.375.121.57.121.195 0 .39-.045.57-.121.18-.076.345-.182.495-.319.135-.153.24-.318.315-.5.09-.182.12-.379.12-.576 0-.394-.165-.788-.435-1.077-.42-.409-1.08-.56-1.635-.318a1.547 1.547 0 00-.495.319c-.27.288-.435.682-.435 1.076 0 .197.045.394.12.576.075.182.18.347.315.5zm4.5-12.129c.285.287.66.44 1.065.44.195 0 .39-.045.57-.121a1.73 1.73 0 00.495-.319c.135-.153.24-.318.315-.5.075-.182.12-.379.12-.576 0-.197-.045-.394-.12-.576a1.567 1.567 0 00-.315-.5c-.36-.35-.87-.516-1.35-.41a.899.899 0 00-.285.091c-.09.03-.18.076-.27.136-.075.046-.15.122-.225.183-.27.287-.435.682-.435 1.076 0 .197.045.394.12.576.075.182.18.347.315.5zm0 6.065c.285.286.66.44 1.065.44.195 0 .39-.046.57-.122.18-.076.345-.182.495-.318.135-.153.24-.319.315-.5.075-.182.12-.38.12-.576 0-.198-.045-.395-.12-.577a1.753 1.753 0 00-.315-.5c-.42-.425-1.095-.561-1.635-.318a1.545 1.545 0 00-.495.318c-.135.152-.24.318-.315.5-.075.182-.12.38-.12.576 0 .197.045.395.12.577.075.181.18.347.315.5zm0 6.064c.15.137.315.243.495.319.18.076.375.121.57.121.195 0 .39-.045.57-.121.18-.076.345-.182.495-.319.135-.153.24-.318.315-.5.075-.182.12-.379.12-.576 0-.197-.045-.394-.12-.576a1.567 1.567 0 00-.315-.5c-.15-.137-.3-.243-.495-.319a1.486 1.486 0 00-1.14 0 1.73 1.73 0 00-.495.319c-.27.288-.435.682-.435 1.076 0 .197.045.394.12.576.075.182.18.347.315.5z" fill="#333"/></svg>