<svg width="48" height="48" viewBox="0 0 48 48" fill="none" xmlns="http://www.w3.org/2000/svg"><path fill-rule="evenodd" clip-rule="evenodd" d="M30.563 36.129h6.562V21.161h-6.563V36.13zm-11.25 0V33.79a.469.469 0 01.937 0v2.339h-.938zm-8.438-25.258h17.813V36.129h-6.563V33.79a2.344 2.344 0 00-4.688 0v2.339h-6.562V10.871zm27.188 8.42c.517 0 .937.418.937.935v16.839c0 .517-.42.935-.938.935H9.938A.936.936 0 019 37.065V9.935C9 9.418 9.42 9 9.938 9h19.687c.517 0 .938.418.938.935v9.355h2.812v-1.87c0-.518.42-.936.938-.936.517 0 .937.418.937.935v1.871h2.813zm-23.71-6.278c-.047-.037-.094-.084-.14-.112a.707.707 0 00-.17-.084.875.875 0 00-.713 0 .707.707 0 00-.168.084c-.047.028-.093.075-.14.112-.085.094-.15.197-.197.309a.93.93 0 00-.075.355.93.93 0 00.075.356.935.935 0 00.197.3.943.943 0 00.31.205.936.936 0 00.355.075.935.935 0 00.862-.58.93.93 0 00.076-.356.93.93 0 00-.075-.355.966.966 0 00-.197-.309zm3.084 1.6h.938a.936.936 0 100-1.871h-.938a.936.936 0 100 1.87zm3.75 0h.938a.936.936 0 100-1.871h-.938a.936.936 0 100 1.87zm-8.165 2.142a.98.98 0 00-.272.664c0 .122.028.244.075.356.047.112.112.214.197.309.094.084.197.15.31.196a.934.934 0 00.355.075.935.935 0 00.357-.075c.112-.047.215-.112.309-.197a.927.927 0 00.272-.664.98.98 0 00-.272-.664c-.347-.346-.984-.346-1.331 0zm4.415 1.6h.938a.936.936 0 100-1.871h-.938a.936.936 0 100 1.87zm3.75 0h.938a.936.936 0 100-1.871h-.938a.936.936 0 100 1.87zm-6.834 2.142a.968.968 0 00-.31-.196.932.932 0 00-.712 0 .968.968 0 00-.31.196c-.084.094-.15.197-.196.309a.93.93 0 00.197 1.02.933.933 0 00.665.27.8.8 0 00.357-.074 1.08 1.08 0 00.309-.196.928.928 0 00.197-1.02 1.079 1.079 0 00-.197-.309zm3.084 1.6h.938a.936.936 0 100-1.871h-.938a.936.936 0 100 1.87zm3.75 0h.938a.936.936 0 100-1.871h-.938a.936.936 0 100 1.87zm-6.834 2.142c-.047-.037-.094-.084-.14-.112a.71.71 0 00-.17-.084.63.63 0 00-.168-.058.959.959 0 00-.853.254.966.966 0 00-.197.309.93.93 0 00-.075.355c0 .122.028.244.075.356.047.112.112.214.197.308.093.085.197.15.31.197a.936.936 0 00.355.075.936.936 0 00.357-.075c.112-.047.215-.112.309-.197a.928.928 0 00.197-1.02 1.081 1.081 0 00-.197-.308zm3.084 1.6h.938a.936.936 0 100-1.871h-.938a.936.936 0 100 1.87zm3.75 0h.938a.936.936 0 100-1.871h-.938a.936.936 0 100 1.87zm4.022-11.507c.094.094.197.16.31.206a.936.936 0 00.356.075.904.904 0 00.666-.28.934.934 0 00.196-.3.93.93 0 00.075-.355.93.93 0 00-.075-.356.955.955 0 00-.196-.309c-.047-.037-.094-.084-.141-.112a.671.671 0 00-.169-.084.875.875 0 00-.713 0 .672.672 0 00-.168.084c-.047.028-.094.075-.14.112-.085.093-.15.197-.198.31a.93.93 0 00-.075.355.93.93 0 00.075.355.934.934 0 00.197.3zm.31 3.948a.934.934 0 001.021-.197c.085-.094.15-.196.197-.308a.782.782 0 00.075-.356.983.983 0 00-.272-.664.969.969 0 00-.31-.196.898.898 0 00-.712 0 .969.969 0 00-.31.196.965.965 0 00-.271.664c0 .253.094.487.272.665.094.084.197.15.31.196zm0 3.742a.787.787 0 00.356.075.787.787 0 00.356-.075c.112-.047.215-.112.31-.197a.925.925 0 00.196-1.02 1.081 1.081 0 00-.197-.308.967.967 0 00-.31-.196.939.939 0 00-.712 0 .967.967 0 00-.31.196c-.083.094-.15.197-.196.309a.925.925 0 00.197 1.02c.094.084.197.15.31.196zm0 3.742a.934.934 0 001.021-.197.925.925 0 00.272-.664.783.783 0 00-.075-.355 1.081 1.081 0 00-.197-.31 1.084 1.084 0 00-.31-.195.897.897 0 00-.543-.057.594.594 0 00-.169.056.711.711 0 00-.169.085c-.046.028-.093.075-.14.112-.084.093-.15.196-.197.309a.925.925 0 00.197 1.02c.094.084.197.149.31.196zm-12.188 2.02a.969.969 0 00-.31.197.98.98 0 00-.272.664.93.93 0 00.075.356c.047.112.113.214.197.308.094.085.197.15.31.197a.8.8 0 00.356.075.8.8 0 00.356-.075c.113-.047.216-.112.31-.197a.928.928 0 00.271-.664.98.98 0 00-.271-.664.938.938 0 00-1.022-.196zm4.106 1.797h.938a.936.936 0 100-1.871h-.938a.936.936 0 100 1.87zm3.75 0h.938a.936.936 0 100-1.871h-.938a.936.936 0 100 1.87zm4.022-.272c.094.084.197.15.31.197a.788.788 0 00.356.075.788.788 0 00.356-.075c.113-.047.216-.113.31-.197a.925.925 0 00.271-.664.982.982 0 00-.271-.664c-.347-.346-.985-.346-1.332 0a.982.982 0 00-.272.664c0 .122.028.243.075.356.047.112.113.214.197.308zm6.872-5.416a.934.934 0 00.356.075.935.935 0 00.356-.075c.113-.047.216-.112.31-.197a.925.925 0 00.271-.664.983.983 0 00-.271-.664 1.084 1.084 0 00-.31-.196.899.899 0 00-.544-.057.597.597 0 00-.168.057.711.711 0 00-.169.084c-.047.028-.094.075-.14.112a.983.983 0 00-.272.664c0 .253.093.487.271.664.094.085.197.15.31.197zm-.31 3.545c.095.085.198.15.31.197a.934.934 0 00.356.075.935.935 0 00.357-.075 1.08 1.08 0 00.309-.197c.084-.094.15-.196.197-.308a.93.93 0 00.075-.356.93.93 0 00-.075-.355 1.08 1.08 0 00-.197-.309c-.047-.037-.094-.084-.14-.112a.714.714 0 00-.17-.085.945.945 0 00-1.022.197.965.965 0 00-.196.309.93.93 0 00-.075.355.93.93 0 00.075.356c.047.112.112.214.197.308zm0 3.742c.095.085.198.15.31.197a.936.936 0 00.356.075.936.936 0 00.357-.075c.112-.047.215-.112.309-.197.084-.094.15-.196.197-.308a.782.782 0 00.075-.356.983.983 0 00-.272-.664.955.955 0 00-1.022-.197.968.968 0 00-.31.197.983.983 0 00-.271.664c0 .122.028.243.075.356.047.112.112.214.197.308zm2.813-7.483a.933.933 0 001.022.196c.113-.047.216-.112.31-.197.084-.094.15-.196.196-.308a.928.928 0 00.075-.356.929.929 0 00-.075-.355.965.965 0 00-.197-.309.945.945 0 00-1.021-.196.711.711 0 00-.17.084c-.046.028-.093.075-.14.112a.982.982 0 00-.272.664c0 .122.029.244.075.356.047.112.113.214.197.308zm0 3.741a.933.933 0 001.022.197 1.08 1.08 0 00.31-.197c.084-.094.15-.196.196-.308a.93.93 0 00.075-.356.93.93 0 00-.075-.355 1.08 1.08 0 00-.197-.309.941.941 0 00-1.021-.197.968.968 0 00-.31.197 1.08 1.08 0 00-.197.309.93.93 0 00-.075.355.93.93 0 00.075.356c.047.112.113.214.197.308zm0 3.742c.094.085.197.15.31.197a.936.936 0 00.356.075.936.936 0 00.356-.075c.113-.047.216-.112.31-.197.084-.094.15-.196.196-.308a.929.929 0 00.075-.356.93.93 0 00-.075-.355.966.966 0 00-.197-.31.968.968 0 00-.309-.195.939.939 0 00-.712 0 1.083 1.083 0 00-.31.196.983.983 0 00-.272.664c0 .122.029.243.075.356.047.112.113.214.197.308z" fill="#253238"/></svg>