<svg width="48" height="48" viewBox="0 0 48 48" fill="none" xmlns="http://www.w3.org/2000/svg"><path fill-rule="evenodd" clip-rule="evenodd" d="M23 33.5v-3.548l15-8.307v3.548L23 33.5zm-13-5.373v-3.394l11 5.004v3.639L10 28.37v-.243zm11.535-10.003c.031.016.054.044.087.057l10.735 4.325-10.135 5.613-10.91-4.963 10.223-5.032zm5.452-3.756c.001-.022.013-.04.013-.062V12.42l11 4.161v1.951l-11.013-4.165zm-1.196 1.661l3.72 1.407-1.628.902c-.074.041-.127.102-.187.158l-3.803-1.533 1.898-.934zm8.796 5.243l-4.582-1.846 1.934-1.071 4.704 1.779-2.056 1.138zm5.375-5.18a.971.971 0 00-.605-1.11l-13-4.917a1.005 1.005 0 00-1.291.57.956.956 0 00-.031.535c-.011.058-.035.112-.035.174v2.869L8.554 22.308a.973.973 0 00-.246.175c-.018.016-.03.037-.045.055a.907.907 0 00-.194.315.958.958 0 00-.063.311c-.001.01-.006.017-.006.027v8.886c0 .544.447.987 1 .987.553 0 1-.443 1-.988v-1.53l11 5.003v1.464c0 .545.447.987 1 .987.553 0 1-.442 1-.987v-1.25l15-8.306v1.658c0 .545.447.987 1 .987.553 0 1-.442 1-.987V16.28c0-.067-.025-.124-.038-.187z" fill="#253238"/></svg>