<svg width="48" height="42" fill="none" viewBox="0 0 48 42" xmlns="http://www.w3.org/2000/svg"><path fill-rule="evenodd" clip-rule="evenodd" d="M22.5 35.25v-5.322L45 17.468V22.79L22.5 35.25zM3 27.191V22.1l16.5 7.505v5.458L3 27.555v-.364zm17.302-15.004c.047.023.082.065.131.084l16.102 6.488-15.202 8.42-16.365-7.446 15.334-7.546zm8.178-5.635c.002-.033.02-.06.02-.093V3.632L45 9.874V12.8L28.48 6.552zm-1.794 2.492l5.58 2.11-2.441 1.353c-.111.062-.191.154-.281.236l-5.704-2.298 2.846-1.4zm13.194 7.864l-6.873-2.77 2.901-1.606 7.056 2.668-3.084 1.708zm8.063-7.769c.138-.695-.216-1.405-.907-1.666L27.535.098a1.507 1.507 0 00-1.937.853c-.104.27-.098.54-.047.804-.016.088-.052.168-.052.26V6.32L.831 18.461c-.14.068-.261.16-.369.264-.027.023-.045.055-.068.081a1.36 1.36 0 00-.29.474c-.056.148-.09.304-.095.467-.002.013-.009.025-.009.04v13.328c0 .817.67 1.48 1.5 1.48s1.5-.663 1.5-1.48v-2.297l16.5 7.505v2.196c0 .818.67 1.481 1.5 1.481s1.5-.663 1.5-1.48v-1.874L45 26.186v2.486c0 .817.67 1.48 1.5 1.48s1.5-.663 1.5-1.48V9.42c0-.1-.038-.186-.057-.281z" fill="#333"/></svg>