<svg width="48" height="48" viewBox="0 0 48 48" fill="none" xmlns="http://www.w3.org/2000/svg"><path fill-rule="evenodd" clip-rule="evenodd" d="M36 26.5c0-1.103.897-2 2-2v2h-2zm-26 3h28v-1H10v1zm0 3h28v-1H10v1zm28 3l-28 .063V34.5h28v1zm-28.031-23L38 12.469V14.5c-1.103 0-2-.897-2-2h-2c0 2.206 1.794 4 4 4v6c-2.206 0-4 1.794-4 4H14c0-2.206-1.794-4-4-4v2c1.103 0 2 .897 2 2H9.998l-.029-14zm28.062-2A1.97 1.97 0 0140 12.469V35.563a1.94 1.94 0 01-1.937 1.937H9.938A1.94 1.94 0 018 35.563V12.469A1.97 1.97 0 019.969 10.5h28.062zM24 16.5c1.654 0 3 1.346 3 3s-1.346 3-3 3-3-1.346-3-3 1.346-3 3-3zm0 8c2.757 0 5-2.243 5-5s-2.243-5-5-5-5 2.243-5 5 2.243 5 5 5zm-10-12h-2c0 1.103-.897 2-2 2v2c2.206 0 4-1.794 4-4z" fill="#253238"/></svg>