<svg width="48" height="36" fill="none" viewBox="0 0 48 36" xmlns="http://www.w3.org/2000/svg"><path d="M29.587 14.905l-3.393-11.31 14.774 3.693 3.2 6.401-14.58 1.216zM40.5 26l-15 6.25V11.721l1.564 5.211c.192.638.78 1.068 1.435 1.068.044 0 .084 0 .126-.005l11.875-.99V26zm-33-8.994l11.876.99a1.5 1.5 0 001.561-1.064l1.564-5.211V32.25L7.5 26v-8.994zm-.466-9.718l14.774-3.693-3.393 11.31L3.832 13.69l3.201-6.4zm40.809 7.041l-4.5-9a1.498 1.498 0 00-.978-.782l-18-4.5c-.05-.012-.097-.01-.145-.018-.07-.01-.138-.026-.209-.028L24 0l-.01.002c-.07.001-.139.017-.208.026-.048.01-.097.007-.145.018l-18 4.5a1.498 1.498 0 00-.978.784l-4.5 9c-.224.445-.21.972.033 1.406.244.434.687.717 1.183.76l3.125.259V27c0 .606.366 1.152.924 1.384l17.99 7.496c.002.002.004.002.007.003l.003.002c.184.078.38.115.576.115.196 0 .393-.038.577-.115l.003-.002.008-.003 17.989-7.496A1.5 1.5 0 0043.499 27V16.755l3.125-.26a1.503 1.503 0 001.218-2.166z" fill="#333"/></svg>