<svg width="48" height="48" viewBox="0 0 48 48" fill="none" xmlns="http://www.w3.org/2000/svg"><path d="M27.108 21.523l-2.191-7.226 9.541 2.36 2.067 4.089-9.417.777zm7.048 7.088l-9.688 3.993V19.488l1.01 3.33a.969.969 0 00.927.682c.028 0 .054 0 .081-.003l7.67-.632v5.746zm-21.312-5.746l7.67.632a.968.968 0 001.008-.68l1.009-3.329v13.116l-9.687-3.993v-5.746zm-.302-6.208l9.542-2.36-2.192 7.226-9.417-.777 2.067-4.09zm26.356 4.498l-2.906-5.75a.965.965 0 00-.632-.5L23.735 12.03c-.032-.008-.063-.006-.094-.012-.044-.006-.089-.016-.134-.017L23.5 12l-.006.001c-.046 0-.09.011-.135.017-.03.006-.063.004-.094.012L11.64 14.905a.965.965 0 00-.631.5l-2.906 5.75a.95.95 0 00.02.899.971.971 0 00.765.485l2.018.166v6.545c0 .387.236.736.597.884l11.618 4.79.005.001.002.001a.965.965 0 00.745 0h.002l.005-.003 11.618-4.789a.958.958 0 00.595-.884v-6.545l2.018-.166a.971.971 0 00.765-.485.95.95 0 00.022-.899z" fill="#253238"/></svg>