<svg width="48" height="48" viewBox="0 0 48 48" fill="none" xmlns="http://www.w3.org/2000/svg"><path fill-rule="evenodd" clip-rule="evenodd" d="M30 38h8V25h-8v13zM12 26h16v-1H12v1zm4-8h12v-8H16v8zm-4.977 20a.91.91 0 01.166.019c.07.011.13.031.19.061.06.02.12.05.18.09.05.03.1.08.15.12.09.1.16.2.21.33.05.12.08.25.08.38s-.03.26-.08.38-.12.229-.21.33a.994.994 0 01-1.09.21c-.13-.05-.23-.12-.33-.21-.09-.101-.16-.21-.21-.33A.838.838 0 0110 39c0-.13.02-.26.08-.38.05-.13.12-.23.21-.33.1-.09.2-.16.33-.21a.936.936 0 01.358-.08.999.999 0 01-.977-1V25H9a1 1 0 110-2h9a1 1 0 011-1h2v-2h-6a1 1 0 01-1-1V9a1 1 0 011-1h14a1 1 0 011 1v10a1 1 0 01-1 1h-6v2h2a1 1 0 011 1h6a1 1 0 011-1h1a1 1 0 011 1h4a1 1 0 011 1v15a1 1 0 01-1 1H29a1 1 0 01-1-1V28H12v9a1 1 0 01-.977 1zM32 28h4a1 1 0 100-2h-4a1 1 0 100 2zm0 4h4a1 1 0 100-2h-4a1 1 0 100 2zm0 4h4a1 1 0 100-2h-4a1 1 0 100 2zm-20.977 2A1.003 1.003 0 0011 38h.023z" fill="#253238"/></svg>