<svg width="48" height="48" fill="none" xmlns="http://www.w3.org/2000/svg"><path fill-rule="evenodd" clip-rule="evenodd" d="M33 45h12V25.5H33V45zM6 27h24v-1.5H6V27zm6-12h18V3H12v12zM4.534 45c.084.002.167.011.25.029a.957.957 0 01.286.091c.088.03.18.075.27.135.073.045.15.12.225.18.135.15.24.3.315.495.075.18.12.375.12.57 0 .195-.045.39-.12.57a1.76 1.76 0 01-.315.495 1.49 1.49 0 01-1.635.315 1.548 1.548 0 01-.495-.315 1.753 1.753 0 01-.315-.495c-.09-.18-.12-.375-.12-.57 0-.195.03-.39.12-.57.075-.195.18-.345.315-.495.15-.135.3-.24.495-.315.17-.076.352-.116.535-.12A1.499 1.499 0 013 43.5v-18H1.5C.67 25.5 0 24.83 0 24s.67-1.5 1.5-1.5H15c0-.83.67-1.5 1.5-1.5h3v-3h-9c-.83 0-1.5-.67-1.5-1.5v-15C9 .67 9.67 0 10.5 0h21c.83 0 1.5.67 1.5 1.5v15c0 .83-.67 1.5-1.5 1.5h-9v3h3c.83 0 1.5.67 1.5 1.5h9c0-.83.67-1.5 1.5-1.5H39c.83 0 1.5.67 1.5 1.5h6c.83 0 1.5.67 1.5 1.5v22.5c0 .83-.67 1.5-1.5 1.5h-15c-.83 0-1.5-.67-1.5-1.5V30H6v13.5A1.5 1.5 0 014.534 45zM36 30h6c.83 0 1.5-.67 1.5-1.5S42.83 27 42 27h-6c-.83 0-1.5.67-1.5 1.5S35.17 30 36 30zm0 6h6c.83 0 1.5-.67 1.5-1.5S42.83 33 42 33h-6c-.83 0-1.5.67-1.5 1.5S35.17 36 36 36zm0 6h6c.83 0 1.5-.67 1.5-1.5S42.83 39 42 39h-6c-.83 0-1.5.67-1.5 1.5S35.17 42 36 42zM4.534 45z" fill="#333"/></svg>