<svg width="43" height="48" fill="none" xmlns="http://www.w3.org/2000/svg"><path fill-rule="evenodd" clip-rule="evenodd" d="M34.103 33h5.931V22.5h-5.93V33zM20.76 45V10.5h10.379V45h-10.38zM7.414 45h10.38V10.5H7.413V45zm34.103-25.5c.82 0 1.483.671 1.483 1.5v13.5c0 .83-.663 1.5-1.483 1.5h-7.414v9h4.449c.82 0 1.483.67 1.483 1.5s-.663 1.5-1.483 1.5H1.483A1.49 1.49 0 010 46.5c0-.83.663-1.5 1.483-1.5h2.965V9c0-.829.663-1.5 1.483-1.5h26.69c.82 0 1.482.671 1.482 1.5v10.5h7.414zM24.547 4.25a1.473 1.473 0 01-2.057-.415 1.51 1.51 0 01.412-2.08l2.224-1.5a1.462 1.462 0 011.645 0l2.224 1.5c.682.46.866 1.39.41 2.08a1.473 1.473 0 01-2.055.415l-1.402-.945-1.401.945zm-12.766 0l-2.224-1.5a1.51 1.51 0 01-.41-2.08A1.468 1.468 0 0111.2.253l1.403.945 1.401-.945a1.47 1.47 0 012.057.416c.453.69.27 1.62-.413 2.08l-2.224 1.5a1.467 1.467 0 01-1.644 0zm25.288 22.752c.193 0 .386-.032.563-.12.178-.076.34-.18.49-.33.28-.27.43-.645.43-1.05 0-.39-.163-.782-.43-1.065-.074-.06-.15-.135-.223-.18a1.146 1.146 0 00-.267-.135.95.95 0 00-.267-.09 1.255 1.255 0 00-.578 0 .888.888 0 00-.282.09c-.088.03-.177.075-.268.135-.073.045-.147.12-.22.18-.27.283-.43.674-.43 1.064 0 .405.147.78.43 1.05.28.299.65.45 1.052.45zm-.563 4.38c.178.074.37.12.563.12.399 0 .77-.152 1.053-.436a1.5 1.5 0 00.43-1.065c0-.105-.015-.195-.031-.3a.912.912 0 00-.088-.27 1.204 1.204 0 00-.133-.27l-.178-.225-.224-.18a1.11 1.11 0 00-.265-.135.952.952 0 00-.267-.09 1.261 1.261 0 00-.58 0 .89.89 0 00-.28.09c-.09.03-.178.075-.269.135l-.22.18c-.06.075-.134.15-.179.225a1.09 1.09 0 00-.133.27 1.02 1.02 0 00-.09.27c-.014.105-.029.195-.029.3 0 .405.147.78.43 1.065.149.135.312.24.49.315z" fill="#333"/></svg>