<svg width="48" height="48" viewBox="0 0 48 48" fill="none" xmlns="http://www.w3.org/2000/svg"><path fill-rule="evenodd" clip-rule="evenodd" d="M33.38 30.75h4.413v-7.875H33.38v7.875zm-9.932 9V13.876h7.724V39.75h-7.724zm-9.93 0h7.723V13.876h-7.724V39.75zm25.379-19.125c.61 0 1.103.503 1.103 1.125v10.125c0 .622-.493 1.125-1.103 1.125h-5.518v6.75h3.31c.61 0 1.104.503 1.104 1.125S37.3 42 36.69 42H9.104C8.493 42 8 41.497 8 40.875s.493-1.125 1.103-1.125h2.207v-27c0-.621.494-1.124 1.104-1.124h19.862c.61 0 1.103.503 1.103 1.125v7.874h5.518zM26.267 9.187a1.091 1.091 0 01-1.53-.312 1.139 1.139 0 01.307-1.56l1.655-1.125a1.08 1.08 0 011.223 0l1.656 1.125c.507.345.644 1.043.305 1.56a1.09 1.09 0 01-1.53.312l-1.043-.709-1.043.709zm-9.5 0l-1.655-1.125a1.138 1.138 0 01-.306-1.56 1.088 1.088 0 011.53-.312l1.044.709 1.042-.71a1.09 1.09 0 011.53.312c.338.518.202 1.215-.306 1.56l-1.655 1.126a1.086 1.086 0 01-1.224 0zm18.82 17.063a.925.925 0 00.418-.09 1.12 1.12 0 00.365-.247c.208-.203.32-.484.32-.788 0-.292-.122-.586-.32-.798-.055-.045-.112-.102-.166-.135a.85.85 0 00-.199-.102.707.707 0 00-.198-.067.928.928 0 00-.43 0 .659.659 0 00-.21.067.857.857 0 00-.2.102c-.054.033-.11.09-.164.135-.2.212-.32.506-.32.798 0 .304.11.585.32.788.208.224.484.337.783.337zm-.42 3.285c.132.056.276.09.42.09.296 0 .572-.113.783-.326a1.13 1.13 0 00.32-.799c0-.078-.011-.146-.023-.225a.687.687 0 00-.066-.202.906.906 0 00-.099-.203l-.132-.169-.167-.134a.823.823 0 00-.197-.102.707.707 0 00-.199-.067.933.933 0 00-.431 0 .661.661 0 00-.209.067.836.836 0 00-.2.102l-.164.134c-.044.057-.1.113-.133.17a.817.817 0 00-.099.202.769.769 0 00-.067.202c-.01.079-.021.147-.021.225 0 .304.11.585.32.799.11.101.232.18.364.236z" fill="#253238"/></svg>