<svg width="48" height="48" viewBox="0 0 48 48" fill="none" xmlns="http://www.w3.org/2000/svg"><path fill-rule="evenodd" clip-rule="evenodd" d="M28.86 32.783l-.01-.002H18.598c-.038 0-.07.022-.108.025l-.917.002c0-.584.471-1.058 1.053-1.058h10.197c.571 0 1.038.46 1.052 1.031l-1.015.002zm-2.13 5.154h-6.012l-.796-3.093h7.604l-.795 3.093zm-8.806-16.322c-1.229-1.238-1.652-3.189-1.798-4.357 1.4.003 3.536.271 4.699 1.44 1.233 1.241 1.654 3.415 1.799 4.73-1.425-.162-3.532-.64-4.7-1.813zm8.251-10.666c1.234-1.24 3.396-1.666 4.704-1.811-.161 1.434-.637 3.553-1.803 4.727-1.229 1.236-3.165 1.662-4.327 1.808v-.19c.026-1.405.314-3.415 1.426-4.534zm2.648 18.738H24.75v-1.425l3.535-1.777c.507-.254.712-.874.458-1.383a1.025 1.025 0 00-1.376-.461l-2.617 1.315V17.75c1.407-.15 4.021-.661 5.776-2.427C32.972 12.863 33 8.227 33 8.031 33 7.461 32.542 7 31.975 7c-.194 0-4.772.029-7.226 2.469V8.03c0-.57-.458-1.031-1.025-1.031-.566 0-1.025.461-1.025 1.031v9.688a5.694 5.694 0 00-.425-.479c-2.496-2.512-7.172-2.007-7.365-1.983-.518.06-.909.5-.909 1.024 0 .176.028 4.33 2.475 6.792 1.776 1.787 4.685 2.29 6.224 2.432v4.183h-4.073a3.115 3.115 0 00-3.104 3.12c0 1.122.909 2.036 2.024 2.036h.26l1.125 4.383c.117.454.525.773.993.773h7.6c.468 0 .877-.319.993-.773l1.127-4.383h.259a2.032 2.032 0 002.023-2.036c0-1.721-1.392-3.12-3.103-3.12z" fill="#253238"/></svg>