<svg width="28" height="48" fill="none" viewBox="0 0 28 48" xmlns="http://www.w3.org/2000/svg"><path fill-rule="evenodd" clip-rule="evenodd" d="M21.9 37.503c-.007 0-.011-.003-.016-.003H6.776c-.056 0-.103.032-.159.036l-1.352.003c0-.849.695-1.539 1.552-1.539h15.028c.841 0 1.529.669 1.55 1.5l-1.496.003zM18.76 45H9.9l-1.175-4.5h11.208L18.76 45zM5.783 21.258c-1.811-1.8-2.435-4.638-2.65-6.337 2.063.004 5.211.394 6.924 2.095 1.818 1.805 2.439 4.967 2.652 6.88-2.1-.236-5.205-.931-6.926-2.638zm12.16-15.514c1.817-1.805 5.003-2.423 6.931-2.634-.237 2.086-.938 5.168-2.657 6.875-1.81 1.798-4.664 2.418-6.376 2.63v-.276c.038-2.043.462-4.968 2.101-6.596zM21.845 33H15.84v-2.073l5.21-2.584a1.495 1.495 0 00.675-2.014 1.52 1.52 0 00-2.028-.67l-3.857 1.914V15.636c2.073-.217 5.925-.961 8.512-3.53C27.959 8.527 28 1.786 28 1.5c0-.83-.675-1.5-1.51-1.5-.286 0-7.032.042-10.65 3.591V1.5c0-.83-.674-1.5-1.51-1.5-.834 0-1.51.67-1.51 1.5v14.091a8.309 8.309 0 00-.626-.696c-3.679-3.654-10.57-2.92-10.854-2.884A1.502 1.502 0 000 13.5c0 .255.04 6.299 3.647 9.879 2.618 2.6 6.905 3.33 9.172 3.537V33H6.817c-2.522 0-4.573 2.035-4.573 4.539 0 1.632 1.338 2.961 2.982 2.961h.382l1.659 6.375A1.51 1.51 0 008.73 48h11.2c.69 0 1.293-.464 1.463-1.125l1.66-6.375h.383c1.642 0 2.98-1.329 2.98-2.961 0-2.504-2.05-4.539-4.571-4.539z" fill="#333"/></svg>