<svg width="48" height="48" viewBox="0 0 48 48" fill="none" xmlns="http://www.w3.org/2000/svg"><path fill-rule="evenodd" clip-rule="evenodd" d="M37.938 36.936h-2.063V14.16a1.03 1.03 0 00-1.031-1.032H12.156a1.03 1.03 0 00-1.031 1.032v22.775H9.062V14.178a3.116 3.116 0 013.112-3.114h22.652a3.116 3.116 0 013.111 3.114v22.758zm-8.25-12.387h-16.5v-2.064h20.624v2.064h-4.124zm-3.094 3.097h-6.188c-.762 0-1.43-.415-1.785-1.033h9.758a2.059 2.059 0 01-1.785 1.033zM13.187 16.29h20.626v-1.098H13.186v1.098zm0 4.13h20.626v-2.065H13.186v2.064zM34.828 9H12.173A5.181 5.181 0 007 14.178v23.79C7 38.538 7.461 39 8.031 39h4.125a1.03 1.03 0 001.031-1.032V26.613h3.24c.462 1.777 2.063 3.097 3.98 3.097h6.187c1.916 0 3.517-1.32 3.978-3.097h3.24v11.355c0 .57.462 1.032 1.032 1.032h4.125A1.03 1.03 0 0040 37.968v-23.79A5.181 5.181 0 0034.826 9z" fill="#253238"/></svg>