<svg width="48" height="44" fill="none" xmlns="http://www.w3.org/2000/svg"><path fill-rule="evenodd" clip-rule="evenodd" d="M45 40.972h-3V7.57c0-.837-.67-1.513-1.5-1.513h-33c-.83 0-1.5.676-1.5 1.513v33.403H3V7.594c0-2.518 2.031-4.566 4.526-4.566h32.948C42.97 3.028 45 5.076 45 7.594v33.378zM33 22.805H9v-3.027h30v3.027h-6zm-4.5 4.542h-9a2.99 2.99 0 01-2.596-1.514h14.192a2.99 2.99 0 01-2.596 1.514zM9 10.694h30v-1.61H9v1.61zm0 6.056h30v-3.028H9v3.028zM40.474 0H7.526C3.375 0 0 3.406 0 7.594v34.892C0 43.323.67 44 1.5 44h6c.83 0 1.5-.677 1.5-1.514V25.833h4.713c.67 2.606 3 4.542 5.787 4.542h9c2.787 0 5.117-1.936 5.787-4.542H39v16.653c0 .837.67 1.514 1.5 1.514h6c.83 0 1.5-.677 1.5-1.514V7.594C48 3.406 44.625 0 40.474 0z" fill="#333"/></svg>