<svg width="48" height="48" fill="none" xmlns="http://www.w3.org/2000/svg"><path fill-rule="evenodd" clip-rule="evenodd" d="M10.5 45V26.121l13.5-13.5 13.5 13.5V45h-27zm-3-24.879l4.06-4.06 4.5-4.5L24 3.62l16.5 16.5v4.758l-.438-.438-.003-.003L25.061 9.44a1.496 1.496 0 00-2.122 0L7.941 24.438l-.003.003-.438.438v-4.758zM12 7.501h1.5v2.378l-1.5 1.5V7.5zM46.5 45c.83 0 1.5.67 1.5 1.5s-.67 1.5-1.5 1.5h-45a1.5 1.5 0 110-3h6V29.121l-.44.44A1.498 1.498 0 014.5 28.5v-9c0-.4.157-.78.44-1.061L9 14.38V6c0-.83.672-1.5 1.5-1.5H15c.828 0 1.5.67 1.5 1.5v.88L22.94.44a1.498 1.498 0 012.12 0l18 18c.282.28.44.661.44 1.06v9a1.499 1.499 0 01-2.56 1.06l-.44-.439V45h6zm-21-9v-3h3v3h-3zm-6 0v-3h3v3h-3zm0-6v-3h3v3h-3zm6 0v-3h3v3h-3zm3-6h-9c-1.654 0-3 1.346-3 3v9c0 1.655 1.346 3 3 3h9c1.653 0 3-1.345 3-3v-9c0-1.654-1.347-3-3-3z" fill="#333"/></svg>