<svg width="48" height="48" viewBox="0 0 48 48" fill="none" xmlns="http://www.w3.org/2000/svg"><path fill-rule="evenodd" clip-rule="evenodd" d="M15 38V25.414l9-9 9 9V38H15zm-2-16.586l2.707-2.707 3-3L24 10.414l11 11v3.172l-.292-.292-.002-.002-9.999-9.999a.997.997 0 00-1.414 0l-9.999 10-.002.001-.292.292v-3.172zM16 13h1v1.586l-1 1V13zm23 25a1 1 0 110 2H9a1 1 0 110-2h4V27.414l-.293.293A.999.999 0 0111 27v-6c0-.266.105-.52.293-.707L14 17.586V12a1 1 0 011-1h3a1 1 0 011 1v.586l4.293-4.293a.999.999 0 011.414 0l12 12c.188.187.293.441.293.707v6a.999.999 0 01-1.707.707L35 27.414V38h4zm-14-6v-2h2v2h-2zm-4 0v-2h2v2h-2zm0-4v-2h2v2h-2zm4 0v-2h2v2h-2zm2-4h-6c-1.103 0-2 .897-2 2v6c0 1.103.897 2 2 2h6c1.102 0 2-.897 2-2v-6c0-1.103-.898-2-2-2z" fill="#253238"/></svg>