<svg width="48" height="48" viewBox="0 0 48 48" fill="none" xmlns="http://www.w3.org/2000/svg"><path fill-rule="evenodd" clip-rule="evenodd" d="M17.747 21.82a7.994 7.994 0 00-5.654 2.335c-3.119 3.12-3.119 8.195 0 11.314 3.12 3.12 8.195 3.12 11.314 0a8.023 8.023 0 001.32-9.559c-.113-.2-.153-.436-.113-.663l.441-2.485a.997.997 0 01.811-.809l2.745-.486.483-2.744a.998.998 0 01.812-.81l2.743-.484.482-2.74a.998.998 0 01.811-.812l2.692-.476.434-2.906-3.26.486-11.44 11.441a1 1 0 01-1.142.193 7.99 7.99 0 00-3.479-.796zm.003 17.988a9.966 9.966 0 01-7.07-2.925c-3.9-3.899-3.9-10.243 0-14.142a10.01 10.01 0 0110.756-2.217l11.191-11.19c.151-.152.348-.25.56-.283l4.922-.734a1 1 0 011.137 1.137l-.713 4.775a1.001 1.001 0 01-.81 1.011l-2.744.484-.482 2.741a.996.996 0 01-.81.812l-2.745.483-.483 2.745a.997.997 0 01-.81.81l-2.747.485-.258 1.455c1.965 3.834 1.24 8.566-1.823 11.628a9.966 9.966 0 01-7.07 2.925zm-2-10.995c1.104 0 2 .897 2 2s-.896 2-2 2c-1.102 0-2-.897-2-2s.898-2 2-2zm0 6c2.206 0 4-1.794 4-4s-1.794-4-4-4-4 1.794-4 4 1.794 4 4 4z" fill="#253238"/></svg>