<svg width="48" height="48" viewBox="0 0 48 48" fill="none" xmlns="http://www.w3.org/2000/svg"><path fill-rule="evenodd" clip-rule="evenodd" d="M34.25 24.345c-.008-.004-.013-.012-.021-.016l-2.958-1.423 2.485-1.3 3.007 1.386-2.513 1.353zM24 29.865l-2.969-1.599 3.119-1.633 3.01 1.53L24 29.864zm-9.754-8.26l2.775 1.407-2.914 1.525-2.87-1.545 3.01-1.388zM24 17.101l2.29 1.057-2.338 1.225-2.397-1.153L24 17.102zm2.198 3.363l2.385-1.248 2.882 1.33-2.441 1.277-2.826-1.359zm-6.999-1.147l2.543 1.223-2.546 1.332-2.635-1.338 2.638-1.217zm-2.967 6.364l2.977-1.558 2.753 1.398-3.056 1.6-2.674-1.44zm7.905-1.299l-2.752-1.397 2.604-1.364 2.825 1.36-2.677 1.401zm5.168 2.625l-2.98-1.514 2.737-1.43 3.017 1.45-2.774 1.494zm10.114-4.993l-15-6.923a.998.998 0 00-.838 0l-15 6.923a1.002 1.002 0 00-.055 1.79l15 8.076a1.007 1.007 0 00.948 0l15-8.077a1.002 1.002 0 00-.055-1.789z" fill="#253238"/></svg>