<svg width="48" height="26" fill="none" xmlns="http://www.w3.org/2000/svg"><path fill-rule="evenodd" clip-rule="evenodd" d="M39.375 14.293c-.012-.007-.02-.019-.032-.025l-4.437-2.176 3.728-1.99 4.51 2.121-3.77 2.07zM24 22.735l-4.453-2.446 4.678-2.497 4.516 2.338L24 22.735zM9.37 10.1l4.162 2.153-4.371 2.332-4.305-2.363L9.369 10.1zM24 3.215l3.436 1.617-3.508 1.873-3.595-1.763L24 3.215zm3.297 5.143l3.577-1.908 4.323 2.034-3.661 1.953-4.24-2.079zM16.799 6.604l3.814 1.87-3.819 2.038-3.952-2.046 3.957-1.862zm-4.45 9.733l4.465-2.383 4.13 2.139-4.585 2.445-4.01-2.2zm11.857-1.986l-4.128-2.137 3.905-2.086 4.238 2.08-4.015 2.143zm7.751 4.014l-4.47-2.315 4.106-2.189 4.525 2.22-4.16 2.284zm15.17-7.636L24.629.141a1.47 1.47 0 00-1.256 0L.872 10.73a1.534 1.534 0 00-.871 1.341c-.017.58.288 1.12.789 1.395l22.499 12.353a1.487 1.487 0 001.422 0l22.5-12.353c.5-.275.805-.815.788-1.395a1.534 1.534 0 00-.871-1.341z" fill="#333"/></svg>