<svg width="46" height="48" fill="none" viewBox="0 0 46 48" xmlns="http://www.w3.org/2000/svg"><path fill-rule="evenodd" clip-rule="evenodd" d="M8.903 13.5h7.42v-3h-7.42v3zm-5.935-9c0 .83-.664 1.5-1.484 1.5A1.49 1.49 0 010 4.5C0 2.019 1.996 0 4.452 0c2.454 0 4.451 2.019 4.451 4.5v3h7.42v-3c0-.828-.665-1.5-1.484-1.5-.82 0-1.484.672-1.484 1.5 0 .83-.663 1.5-1.484 1.5a1.49 1.49 0 01-1.484-1.5c0-2.481 1.996-4.5 4.452-4.5 2.454 0 4.451 2.019 4.451 4.5v15c0 .83-.663 1.5-1.483 1.5a1.49 1.49 0 01-1.484-1.5v-3h-7.42v3c0 .83-.663 1.5-1.484 1.5a1.49 1.49 0 01-1.483-1.5v-15c0-.828-.665-1.5-1.484-1.5-.82 0-1.484.672-1.484 1.5zm9.414 21.362c.957-.83 2.147-1.861 4.425-1.861 2.28 0 3.471 1.031 4.428 1.861.79.686 1.313 1.139 2.493 1.139 1.183 0 1.705-.454 2.497-1.139.957-.83 2.147-1.861 4.428-1.861 2.284 0 3.474 1.03 4.433 1.86.792.686 1.316 1.14 2.498 1.14 1.186 0 1.71-.454 2.502-1.14.957-.83 2.149-1.86 4.43-1.86.82 0 1.484.67 1.484 1.5 0 .829-.664 1.5-1.484 1.5-1.184 0-1.707.452-2.5 1.14-.958.828-2.15 1.86-4.431 1.86s-3.471-1.033-4.43-1.86c-.792-.688-1.316-1.14-2.502-1.14-1.18 0-1.705.452-2.497 1.14-.957.828-2.147 1.86-4.428 1.86-2.28 0-3.47-1.034-4.426-1.862-.79-.686-1.314-1.139-2.495-1.139-1.178 0-1.702.453-2.491 1.139-.957.828-2.149 1.861-4.428 1.861-2.28 0-3.471-1.033-4.427-1.861C4.672 27.453 4.148 27 2.967 27c-.82 0-1.484-.67-1.484-1.5 0-.829.665-1.5 1.484-1.5 2.28 0 3.47 1.032 4.428 1.862.79.686 1.312 1.139 2.493 1.139 1.181 0 1.705-.454 2.494-1.139zM44.516 33c.82 0 1.484.67 1.484 1.5s-.663 1.5-1.484 1.5c-1.184 0-1.706.453-2.5 1.14-.957.83-2.149 1.86-4.431 1.86-2.28 0-3.472-1.03-4.43-1.86-.792-.687-1.316-1.14-2.501-1.14-1.183 0-1.705.453-2.498 1.14-.957.83-2.148 1.86-4.428 1.86-2.279 0-3.47-1.032-4.426-1.861-.79-.686-1.313-1.139-2.494-1.139-1.18 0-1.702.453-2.493 1.139-.956.829-2.147 1.861-4.427 1.861-2.279 0-3.47-1.032-4.426-1.861C4.67 36.453 4.149 36 2.967 36a1.49 1.49 0 01-1.483-1.5c0-.83.663-1.5 1.483-1.5 2.28 0 3.471 1.032 4.427 1.861.79.686 1.313 1.139 2.494 1.139 1.181 0 1.705-.453 2.495-1.139.955-.829 2.147-1.861 4.425-1.861 2.279 0 3.47 1.032 4.427 1.861.79.686 1.312 1.139 2.493 1.139 1.183 0 1.705-.453 2.498-1.139.955-.829 2.147-1.861 4.428-1.861 2.282 0 3.473 1.03 4.432 1.86.793.687 1.315 1.14 2.499 1.14 1.185 0 1.708-.453 2.502-1.14.957-.83 2.148-1.86 4.43-1.86zm0 9c.82 0 1.484.67 1.484 1.5s-.663 1.5-1.484 1.5c-1.184 0-1.706.453-2.5 1.14-.957.83-2.149 1.86-4.431 1.86-2.28 0-3.472-1.03-4.43-1.86-.792-.687-1.316-1.14-2.501-1.14-1.183 0-1.705.453-2.498 1.14-.957.83-2.148 1.86-4.428 1.86-2.279 0-3.47-1.032-4.426-1.861-.79-.686-1.313-1.139-2.494-1.139-1.18 0-1.702.453-2.493 1.139-.956.829-2.147 1.861-4.427 1.861-2.279 0-3.47-1.032-4.426-1.861C4.67 45.453 4.149 45 2.967 45a1.49 1.49 0 01-1.483-1.5c0-.83.663-1.5 1.483-1.5 2.28 0 3.471 1.032 4.427 1.861.79.686 1.313 1.139 2.494 1.139 1.181 0 1.705-.453 2.495-1.139.955-.829 2.147-1.861 4.425-1.861 2.279 0 3.47 1.032 4.427 1.861.79.686 1.312 1.139 2.493 1.139 1.183 0 1.705-.453 2.498-1.139.955-.829 2.147-1.861 4.428-1.861 2.282 0 3.473 1.03 4.432 1.86.793.687 1.315 1.14 2.499 1.14 1.185 0 1.708-.453 2.502-1.14.957-.83 2.148-1.86 4.43-1.86z" fill="#333"/></svg>