<svg width="48" height="48" viewBox="0 0 48 48" fill="none" xmlns="http://www.w3.org/2000/svg"><path fill-rule="evenodd" clip-rule="evenodd" d="M14.194 16.281h5.16V14.22h-5.16v2.062zm-4.13-6.187a1.03 1.03 0 01-1.032 1.031A1.03 1.03 0 018 10.094 3.098 3.098 0 0111.097 7a3.099 3.099 0 013.097 3.094v2.062h5.16v-2.062a1.032 1.032 0 00-2.064 0 1.03 1.03 0 01-1.032 1.031 1.03 1.03 0 01-1.032-1.031A3.098 3.098 0 0118.323 7a3.099 3.099 0 013.096 3.094v10.312a1.03 1.03 0 01-1.032 1.032 1.03 1.03 0 01-1.032-1.032v-2.062h-5.161v2.062a1.03 1.03 0 01-1.033 1.032 1.03 1.03 0 01-1.032-1.032V10.094a1.032 1.032 0 00-2.064 0zm6.55 14.686c.665-.57 1.493-1.28 3.078-1.28 1.587 0 2.414.71 3.08 1.28.55.471.914.783 1.734.783.823 0 1.186-.312 1.738-.783.666-.57 1.493-1.28 3.08-1.28 1.589 0 2.416.709 3.083 1.28.552.471.916.783 1.739.783.825 0 1.189-.312 1.74-.784.666-.57 1.495-1.279 3.081-1.279a1.03 1.03 0 110 2.063c-.823 0-1.187.311-1.738.784-.667.569-1.496 1.278-3.083 1.278-1.587 0-2.415-.71-3.082-1.278-.55-.473-.915-.784-1.74-.784-.822 0-1.186.311-1.737.784-.666.569-1.494 1.278-3.08 1.278s-2.414-.71-3.08-1.28c-.549-.47-.913-.782-1.735-.782-.82 0-1.184.311-1.733.783-.666.569-1.495 1.28-3.08 1.28-1.586 0-2.415-.711-3.08-1.28-.549-.472-.913-.783-1.735-.783a1.031 1.031 0 110-2.063c1.586 0 2.415.71 3.08 1.28.55.471.913.783 1.735.783.821 0 1.186-.312 1.735-.783zm22.354 4.907a1.03 1.03 0 110 2.063c-.824 0-1.187.312-1.74.784-.665.57-1.494 1.279-3.082 1.279-1.587 0-2.416-.709-3.081-1.28-.552-.471-.916-.783-1.74-.783-.823 0-1.187.312-1.738.784-.666.57-1.495 1.279-3.08 1.279-1.586 0-2.415-.71-3.08-1.28-.549-.471-.913-.783-1.735-.783-.82 0-1.184.312-1.734.783-.665.57-1.494 1.28-3.08 1.28-1.585 0-2.414-.71-3.078-1.28-.55-.471-.914-.783-1.736-.783a1.03 1.03 0 110-2.063c1.586 0 2.415.71 3.08 1.28.55.472.913.783 1.735.783.822 0 1.186-.311 1.735-.783.665-.57 1.494-1.28 3.078-1.28 1.586 0 2.415.71 3.08 1.28.55.472.913.783 1.735.783.822 0 1.186-.311 1.737-.783.665-.57 1.494-1.28 3.08-1.28 1.588 0 2.417.709 3.084 1.28.55.472.914.783 1.738.783.825 0 1.188-.311 1.74-.784.666-.57 1.495-1.279 3.082-1.279zm0 6.188a1.03 1.03 0 110 2.063c-.824 0-1.187.31-1.74.783-.665.57-1.494 1.279-3.082 1.279-1.587 0-2.416-.709-3.081-1.279-.552-.472-.916-.783-1.74-.783-.823 0-1.187.31-1.738.783-.666.57-1.495 1.279-3.08 1.279-1.586 0-2.415-.71-3.08-1.28-.549-.471-.913-.782-1.735-.782-.82 0-1.184.31-1.734.782-.665.57-1.494 1.28-3.08 1.28-1.585 0-2.414-.71-3.078-1.28-.55-.471-.914-.782-1.736-.782a1.03 1.03 0 110-2.063c1.586 0 2.415.71 3.08 1.28.55.471.913.782 1.735.782.822 0 1.186-.31 1.735-.782.665-.57 1.494-1.28 3.078-1.28 1.586 0 2.415.71 3.08 1.28.55.471.913.782 1.735.782.822 0 1.186-.31 1.737-.782.665-.57 1.494-1.28 3.08-1.28 1.588 0 2.417.709 3.084 1.279.55.472.914.783 1.738.783.825 0 1.188-.31 1.74-.783.666-.57 1.495-1.279 3.082-1.279z" fill="#253238"/></svg>