<svg width="48" height="48" viewBox="0 0 48 48" fill="none" xmlns="http://www.w3.org/2000/svg"><path d="M22.79 35.583l-1.524.012-.012-5.472.746-.005c.01 0 .02.005.029.005.01 0 .02-.005.03-.005l.73-.006v5.471zm8.875-20.888a1.2 1.2 0 01-1.2 1.197H13.592a1.2 1.2 0 01-1.2-1.197v-2.082a1.2 1.2 0 011.2-1.196h16.875c.66 0 1.199.536 1.199 1.196v2.082zm6.038-1.757h-3.618v-.325A3.621 3.621 0 0030.465 9H13.592c-1.877 0-3.407 1.44-3.585 3.267a1.194 1.194 0 00-.796-.314A1.21 1.21 0 008 13.162v.984c0 .668.542 1.209 1.21 1.209.309 0 .583-.125.796-.315.178 1.83 1.708 3.269 3.585 3.269h16.875a3.62 3.62 0 003.553-2.954h3.56v3.742l-14.99 3.522a2.285 2.285 0 00-1.77 2.233v2.899a2.405 2.405 0 00-1.973 2.361v5.483A2.41 2.41 0 0021.254 38h1.548a2.409 2.409 0 002.408-2.405v-5.483a2.406 2.406 0 00-1.971-2.361v-2.802l14.992-3.521A2.287 2.287 0 0040 19.195V15.23a2.297 2.297 0 00-2.297-2.293z" fill="#253238"/></svg>