<svg width="48" height="44" fill="none" xmlns="http://www.w3.org/2000/svg"><path d="M22.185 40.333l-2.285.019-.019-8.303L21 32.04c.016 0 .029.008.043.008.016 0 .03-.008.046-.008l1.096-.009v8.301zM35.497 8.641a1.81 1.81 0 01-1.799 1.816H8.386A1.81 1.81 0 016.587 8.64V5.482a1.81 1.81 0 011.799-1.815h25.312a1.81 1.81 0 011.8 1.815V8.64zm9.058-2.666h-5.428v-.493C39.127 2.46 36.692 0 33.698 0H8.386C5.571 0 3.276 2.183 3.01 4.957a1.78 1.78 0 00-1.195-.476A1.825 1.825 0 000 6.314v1.494c0 1.014.813 1.834 1.815 1.834a1.78 1.78 0 001.195-.477c.266 2.776 2.56 4.959 5.376 4.959h25.312c2.654 0 4.861-1.938 5.33-4.482h5.342v5.677l-22.486 5.344a3.46 3.46 0 00-2.656 3.389v4.398a3.637 3.637 0 00-2.959 3.582v8.32c0 2.01 1.621 3.648 3.612 3.648h2.322c1.993 0 3.612-1.637 3.612-3.648v-8.32a3.639 3.639 0 00-2.957-3.582v-4.252l22.488-5.342A3.461 3.461 0 0048 15.468V9.454c0-1.919-1.545-3.48-3.445-3.48z" fill="#333"/></svg>