<svg width="48" height="48" fill="none" xmlns="http://www.w3.org/2000/svg"><path fill-rule="evenodd" clip-rule="evenodd" d="M24 0c.948 0 1.714.766 1.714 1.714V15.43c0 .948-.766 1.714-1.714 1.714a1.713 1.713 0 01-1.714-1.714V1.714C22.286.766 23.052 0 24 0zm11.123 14.592a1.712 1.712 0 01-1.212-2.926l4.635-4.636c.67-.67 1.755-.67 2.424 0 .67.669.67 1.754 0 2.424l-4.635 4.635a1.71 1.71 0 01-1.212.503zm11.163 7.694c.948 0 1.714.766 1.714 1.714s-.766 1.714-1.714 1.714H32.57A1.713 1.713 0 0130.857 24c0-.948.766-1.714 1.714-1.714h13.715zM36.335 33.91l4.635 4.635a1.712 1.712 0 01-1.212 2.926 1.71 1.71 0 01-1.212-.502l-4.635-4.635a1.712 1.712 0 010-2.424c.67-.67 1.753-.67 2.424 0zM24 30.857c.948 0 1.714.766 1.714 1.714v13.715c0 .948-.766 1.714-1.714 1.714a1.713 1.713 0 01-1.714-1.714V32.57c0-.948.766-1.714 1.714-1.714zm-12.335 3.054c.67-.67 1.754-.67 2.424 0 .67.67.67 1.753 0 2.424L9.454 40.97a1.71 1.71 0 01-2.424 0 1.712 1.712 0 010-2.424l4.635-4.635zm3.764-11.625c.948 0 1.714.766 1.714 1.714s-.766 1.714-1.714 1.714H1.714A1.713 1.713 0 010 24c0-.948.766-1.714 1.714-1.714H15.43zm-3.764-8.197L7.03 9.454a1.712 1.712 0 010-2.424c.67-.67 1.753-.67 2.424 0l4.635 4.635a1.712 1.712 0 01-1.212 2.927 1.71 1.71 0 01-1.212-.503z" fill="#333"/></svg>