<svg width="48" height="48" viewBox="0 0 48 48" fill="none" xmlns="http://www.w3.org/2000/svg"><path fill-rule="evenodd" clip-rule="evenodd" d="M24 8c.632 0 1.143.51 1.143 1.143v9.143a1.142 1.142 0 11-2.286 0V9.143C22.857 8.51 23.368 8 24 8zm7.415 9.728a1.142 1.142 0 01-.808-1.95l3.09-3.091a1.142 1.142 0 111.616 1.616l-3.09 3.09a1.14 1.14 0 01-.808.335zm7.442 5.13a1.142 1.142 0 110 2.285h-9.143a1.142 1.142 0 110-2.286h9.143zm-6.634 7.75l3.09 3.09a1.142 1.142 0 11-1.616 1.615l-3.09-3.09a1.142 1.142 0 111.616-1.616zM24 28.57c.632 0 1.143.511 1.143 1.143v9.143a1.142 1.142 0 11-2.286 0v-9.143c0-.632.511-1.143 1.143-1.143zm-8.223 2.036a1.142 1.142 0 111.616 1.616l-3.09 3.09a1.14 1.14 0 01-1.617 0 1.142 1.142 0 010-1.616l3.09-3.09zm2.509-7.75a1.142 1.142 0 110 2.286H9.143a1.142 1.142 0 110-2.286h9.143zm-2.51-5.464l-3.09-3.09a1.142 1.142 0 111.616-1.616l3.09 3.09a1.142 1.142 0 11-1.615 1.616z" fill="#253238"/></svg>