<svg width="37" height="48" fill="none" viewBox="0 0 37 48" xmlns="http://www.w3.org/2000/svg"><path fill-rule="evenodd" clip-rule="evenodd" d="M22.554 4.348h.004-.004zm.004 0a.007.007 0 00.005.002l-.005-.002zm.007.002h.002-.002zm.004 0h.002-.002zm.363.022c-.216.113-.747.573-1.344 1.745-1.54 3.006-11.09 9.378-13.98 11.26-1.135.74-2.521 3.763-3.05 8.848-.602 5.776.301 10.595 1.215 11.507 3.762 3.752 13.001 5.508 20.395 5.9 1.265.092 2.315-1.203 3.014-2.279 3.31-5.091 4.583-16.269 2.348-20.62-.566-1.105-1.051-1.13-1.21-1.137l-8.166.035c-.14.013-.282.017-.42.002l-2.195.009h-.009a2.184 2.184 0 01-2.186-2.173 2.183 2.183 0 012.178-2.19l1.381-.007c1-1.337 3-4.544 3-8.719 0-1.498-.387-1.957-.505-2.061a.863.863 0 00-.258-.138c-.072.009-.14.016-.208.018zM26.268 48c-.114 0-.223-.004-.33-.009-5.102-.27-17.581-1.514-23.256-7.174C-.206 37.933-.232 30.006.207 25.774c.367-3.521 1.506-9.769 5.01-12.05 6.695-4.357 11.854-8.48 12.477-9.599C19.583.441 21.846.007 22.81.007h.01a4.88 4.88 0 013.474 1.217c1.316 1.163 1.981 2.954 1.981 5.33 0 3.566-1.08 6.55-2.21 8.699l4.353-.018c2.16.103 3.895 1.346 5.006 3.508 2.93 5.709 1.607 18.553-2.573 24.984C30.588 47.208 28.078 48 26.268 48z" fill="#333"/></svg>