<svg width="48" height="48" viewBox="0 0 48 48" fill="none" xmlns="http://www.w3.org/2000/svg"><path fill-rule="evenodd" clip-rule="evenodd" d="M26.02 11.627h.003-.003zm.003 0a.005.005 0 00.003.001l-.003-.001zm.004.001h.001-.001zm.002 0h.002-.002zm.226.013c-.134.069-.465.347-.836 1.055-.956 1.816-6.894 5.665-8.69 6.803-.706.447-1.567 2.273-1.896 5.345-.374 3.49.188 6.402.756 6.953 2.338 2.266 8.081 3.327 12.677 3.564.787.056 1.44-.727 1.874-1.377 2.058-3.076 2.849-9.829 1.46-12.458-.352-.667-.654-.683-.753-.687l-5.076.021a1.33 1.33 0 01-.26.002l-1.365.005h-.005c-.75 0-1.357-.588-1.36-1.313-.002-.729.604-1.32 1.354-1.323l.859-.004c.621-.808 1.864-2.745 1.864-5.268 0-.905-.24-1.182-.313-1.245-.06-.052-.16-.083-.16-.083-.046.005-.088.009-.13.01zM28.33 38c-.07 0-.139-.003-.205-.005-3.172-.164-10.93-.915-14.457-4.335-1.795-1.742-1.811-6.532-1.538-9.088.228-2.128.936-5.902 3.114-7.28 4.162-2.633 7.369-5.124 7.756-5.8 1.174-2.226 2.58-2.488 3.18-2.488h.007a3.092 3.092 0 012.16.735c.817.703 1.23 1.785 1.23 3.22 0 2.155-.67 3.958-1.373 5.256l2.705-.01c1.343.062 2.422.813 3.112 2.119 1.821 3.449 1 11.209-1.6 15.094C31.015 37.522 29.455 38 28.33 38z" fill="#253238"/></svg>