<svg width="48" height="48" viewBox="0 0 48 48" fill="none" xmlns="http://www.w3.org/2000/svg"><path fill-rule="evenodd" clip-rule="evenodd" d="M32.851 34.025l-3.317-2.981H33.08l3.316 2.98H32.85zm-1.742-8.944l.67 3.975H27.93l-.782-3.975h3.961zm8.879 9.88c.002.02.012.037.012.058v1.987c0 .55-.45.994-1.005.994a1 1 0 01-1.005-.994v-.993h-4.523v.993c0 .55-.45.994-1.005.994a1 1 0 01-1.005-.994V35.46l-3.518-3.162v.734c0 .55-.449.994-1.005.994a1 1 0 01-1.005-.994V30.05c0-.01.005-.017.005-.025a.979.979 0 01.063-.333c.003-.005.006-.009.008-.015l-1.062-5.4a.979.979 0 01.211-.822c.19-.228.475-.361.775-.361h6.03c.493 0 .912.351.993.83l.876 5.198c.114.044.222.109.316.192l5.527 4.97a.977.977 0 01.218.298c.015.031.026.061.038.092a.977.977 0 01.06.287zm-18.02-1.835c2.26.386 3.961 1.977 3.961 3.88 0 .55-.449.994-1.005.994h-8.04a.999.999 0 01-1.005-.994c0-1.945 1.778-3.561 4.114-3.902-.002-.025-.016-.047-.016-.073V19.3H9.005c-.34 0-.656-.17-.842-.45a.985.985 0 01-.075-.949C10.563 12.41 15.504 9 20.983 9l.037.002.015-.002c.012 0 .023.003.035.004 5.442.036 10.345 3.435 12.807 8.895a.983.983 0 01-.074.946 1.01 1.01 0 01-.843.453h-6.72l-.004.001H21.988v13.732c0 .033-.017.062-.02.095zm-3.661 2.887h5.194c-.53-.59-1.507-.994-2.597-.994s-2.067.404-2.597.994zm-1.48-24.192c-2.5 1.013-4.678 2.909-6.184 5.49h4.132a11.44 11.44 0 012.052-5.49zm14.495 5.49c-1.497-2.565-3.657-4.456-6.137-5.473a11.55 11.55 0 012.006 5.473h4.13zm-10.305-6.322c-1.187.025-3.803 2.632-4.22 6.322h8.373c-.402-3.655-2.909-6.244-4.082-6.316-.025 0-.047-.005-.071-.005z" fill="#253238"/></svg>