<svg width="48" height="44" fill="none" xmlns="http://www.w3.org/2000/svg"><path fill-rule="evenodd" clip-rule="evenodd" d="M37.276 37.969l-4.975-4.523h5.318l4.973 4.523h-5.316zm-2.612-13.57l1.004 6.031h-5.773l-1.173-6.031h5.942zm13.318 14.99c.003.03.018.056.018.088v3.015a1.507 1.507 0 11-3.015 0v-1.508H38.2v1.508a1.506 1.506 0 11-3.016 0v-2.347l-5.276-4.798v1.114a1.507 1.507 0 11-3.015 0v-4.523c0-.015.007-.026.007-.038.005-.172.032-.34.095-.505.003-.008.01-.014.01-.023l-1.591-8.193a1.505 1.505 0 011.479-1.796h9.045c.739 0 1.368.534 1.488 1.26l1.315 7.886c.172.068.333.166.473.293l8.292 7.539c.143.13.244.286.327.454.023.047.038.092.056.139.053.141.083.286.092.435zm-27.03-2.785c3.391.587 5.942 3 5.942 5.888 0 .834-.674 1.508-1.507 1.508H13.326a1.506 1.506 0 01-1.508-1.508c0-2.95 2.667-5.404 6.17-5.92-.002-.039-.022-.072-.022-.11V15.626H1.508A1.51 1.51 0 01.13 13.504C3.845 5.174 11.256 0 19.474 0c.02 0 .038.003.056.003L19.552 0c.018 0 .035.005.053.006 8.163.054 15.518 5.212 19.211 13.496a1.506 1.506 0 01-1.376 2.123H27.36l-.006.002-.006-.002-6.367.002V36.46c0 .05-.024.094-.028.143zm-5.491 4.38h7.79c-.794-.894-2.26-1.507-3.895-1.507-1.634 0-3.1.613-3.895 1.507zM13.24 4.281C9.49 5.817 6.224 8.694 3.965 12.61h6.198a17.478 17.478 0 013.077-8.33zm21.742 8.329c-2.244-3.892-5.484-6.761-9.205-8.304 1.551 2.236 2.718 5.157 3.01 8.304h6.195zM19.525 3.019c-1.78.037-5.705 3.992-6.329 9.59h12.558c-.603-5.545-4.363-9.473-6.122-9.581-.038-.002-.07-.01-.107-.01z" fill="#333"/></svg>