<svg width="37" height="40" viewBox="0 0 37 40" fill="none" xmlns="http://www.w3.org/2000/svg"><path fill-rule="evenodd" clip-rule="evenodd" d="M32.7 32.098c-3.225 5.533-10.436 7.471-16.11 4.328a11.515 11.515 0 01-5.54-6.957l2.461 1.364a1.073 1.073 0 001.446-.39 1.019 1.019 0 00-.4-1.408l-6.528-3.616a5.19 5.19 0 01-2.354-6.464l12.436 6.887a1.072 1.072 0 001.446-.387 1.016 1.016 0 00-.399-1.41l-12.64-7a5.192 5.192 0 01-2.354-6.465l19.44 10.77a1.08 1.08 0 001.447-.39 1.022 1.022 0 00-.4-1.409L4.591 8.442c-2.354-1.305-2.854-3.625-2.2-6.367.002-.009.006-.009.008-.005L28.26 16.39c5.675 3.141 7.662 10.174 4.44 15.708zm-3.393-17.507L3.446.271C2.209-.412.649.255.326 1.606-.411 4.679.03 7.533 2.37 9.448a7.162 7.162 0 001.575 8.24c-1.693 3.443-.418 7.618 3.036 9.529l1.618.898c.551 4.218 3.073 7.969 6.942 10.109 6.69 3.707 15.2 1.423 19-5.104 3.803-6.525 1.458-14.818-5.235-18.527" fill="#fff"/><path opacity=".5" fill-rule="evenodd" clip-rule="evenodd" d="M32.973 32.266c-3.286 5.61-10.636 7.574-16.418 4.389A11.685 11.685 0 0110.91 29.6l2.51 1.382a1.1 1.1 0 001.472-.393 1.03 1.03 0 00-.407-1.43l-6.651-3.666c-2.402-1.322-3.364-4.127-2.4-6.553l12.673 6.982c.518.29 1.18.11 1.472-.393a1.027 1.027 0 00-.405-1.427l-12.88-7.1c-2.4-1.322-3.364-4.127-2.4-6.552l19.809 10.916a1.1 1.1 0 001.473-.393 1.033 1.033 0 00-.406-1.429L4.331 8.28c-2.4-1.323-2.91-3.676-2.243-6.454.001-.01.007-.01.009-.007l26.352 14.52c5.782 3.185 7.807 10.316 4.524 15.927" fill="#fff"/></svg>