<svg width="35" height="40" viewBox="0 0 35 40" fill="none" xmlns="http://www.w3.org/2000/svg"><path d="M32.307 35.432L31.052 4.36a1.747 1.747 0 00-.612-1.247 1.782 1.782 0 00-1.334-.42c-4.924.501-8.998.826-11.195.826-2.323 0-6.717-.336-12.023-.845a1.792 1.792 0 00-1.329.424 1.762 1.762 0 00-.61 1.243L2.692 35.528a1.753 1.753 0 00.942 1.599 1.79 1.79 0 001.866-.122l9.585-6.868c.08-.058.17-.074.25-.125l-1.144-.768a1.3 1.3 0 01-.555-.832 1.283 1.283 0 01.208-.976 1.337 1.337 0 011.836-.341l4.342 2.917c.095.059.205.085.3.155l9.158 6.729a1.79 1.79 0 001.885.147 1.75 1.75 0 00.706-.67 1.73 1.73 0 00.236-.941zm-13.219-2.905l-.01-.005.01.005zm-2.827 0l-.008.003.008-.003zm2.248-.307l-.8-.538-.942.586-.28.155-9.406 6.743a4.505 4.505 0 01-4.715.313 4.45 4.45 0 01-1.768-1.693 4.395 4.395 0 01-.595-2.362L1.257 4.24a4.4 4.4 0 01.437-1.732 4.43 4.43 0 011.092-1.42A4.506 4.506 0 016.146.02c5.627.539 9.692.832 11.765.832 1.958 0 5.751-.285 10.92-.813a4.501 4.501 0 013.376 1.055 4.388 4.388 0 011.538 3.159l1.252 31.072a4.377 4.377 0 01-.597 2.383 4.432 4.432 0 01-1.791 1.698 4.505 4.505 0 01-4.733-.368l-8.971-6.594a4.206 4.206 0 01-.396-.224z" fill="#385EF9"/></svg>