<svg width="40" height="34" viewBox="0 0 40 34" fill="none" xmlns="http://www.w3.org/2000/svg"><path fill-rule="evenodd" clip-rule="evenodd" d="M36.73 17.37l-6.98-5.63-4.132-3.417-.005-.006c-1.608-1.328-3.258-1.174-4.572-.122a4.05 4.05 0 00-.78.804c-2.238 2.616-4.647 3.656-6.77 3.424a3.629 3.629 0 01-1.474-.479A12.4 12.4 0 0015.384 7.3a8.502 8.502 0 014.605-4.63c1.924-.796 4.238-.75 6.593.027l.457.163c1.322.466 2.147.713 3.053.86l.056.008c4.557.712 7.763 4.265 7.763 8.796 0 2.006-.362 3.48-1.18 4.848h-.001zm-.203 4.24l-.55.65c-.449.526-1.337.558-1.987.001l-.438-.491c-.128-.17-.27-.33-.425-.476l-.06-.07-.003.005c-.034-.032-.06-.07-.095-.1-.992-.848-2.327.527-1.452 1.497l.223.246c.516.558.596 1.33.183 1.816l-.553.65c-.45.526-1.337.558-1.987.003l-.438-.493a3.779 3.779 0 00-.426-.478l-.06-.07-.001.005c-.034-.032-.061-.07-.093-.097-.995-.85-2.329.527-1.456 1.494l.223.25c.516.554.596 1.33.184 1.814l-.552.648c-.451.526-1.34.558-1.989.003 0 0-1.146-.819-1.3-.967 0 0-.126-.136-.16-.166-.993-.849-2.106.527-1.233 1.498l.335.247c.514.557.65 1.331.237 1.813l-.523.65c-.45.526-1.325.558-1.976.003-.257-.186-.251-.186-.786-.562l-.249-.178a5.852 5.852 0 00-1.57-6.443l-8.072-7.196c-1.566-1.398-3.826-1.78-5.813-1.226-.379-1.093-.628-2.228-.628-3.367a9.489 9.489 0 012.77-6.699 9.451 9.451 0 016.687-2.773c.984 0 1.931.2 2.849.491a10.62 10.62 0 00-1.889 2.961 10.287 10.287 0 01-3.293 4.295c-.995.763-.618 1.904.301 2.646.68.545 1.683.934 2.799 1.057 2.838.313 5.913-1.018 8.645-4.218.111-.15.245-.302.436-.454.602-.48 1.17-.533 1.94.1 0 0 .003.002.003.006l4.145 3.424 7.815 6.304c.624.536.733 1.42.284 1.947h-.002zm-20.053 9.584l-.04.046a1.197 1.197 0 01-1.682.108L2.506 20.7a1.204 1.204 0 01-.348-1.298c.052-.15.132-.29.237-.409l.02-.024c1.36-1.53 4.12-1.68 5.678-.292l8.073 7.196a3.776 3.776 0 01.308 5.323v-.002zM40 12.524c0-5.587-3.98-9.998-9.53-10.863l-.043-.008c-.75-.12-1.48-.338-2.69-.766C27.496.8 27.281.8 27.04.716L26.796.71V.706C24.708-.21 21.4-.269 18.974.734c-.75.31-1.328.724-1.978 1.191A11.228 11.228 0 0012.438.96a11.498 11.498 0 00-8.15 3.39 11.543 11.543 0 00-3.364 8.174c0 1.446.293 2.898.799 4.267a5.46 5.46 0 00-.89.808l-.019.026a3.29 3.29 0 00.322 4.656l12.647 10.65c1.292 1.124 2.776 1.044 4.717-.125.286.209.297.239.442.34 1.417 1.22 3.603 1.145 4.827-.295l.54-.648c.362-.424.572-.919.678-1.43 1.244.314 2.531-.02 3.367-1l.55-.648c.362-.424.579-.917.687-1.43 1.242.316 2.531-.02 3.367-1l.553-.647c.36-.423.576-.918.685-1.43 1.243.313 2.534-.018 3.367-.999l.554-.65c1.003-1.176.99-2.849.143-4.123C39.467 17.028 40 15.08 40 12.523z" fill="#F75883"/></svg>