<svg width="48" height="48" viewBox="0 0 48 48" fill="none" xmlns="http://www.w3.org/2000/svg"><g clip-path="url(#clip0_2195_5197)" fill-rule="evenodd" clip-rule="evenodd" fill="#253238"><path d="M22.858.467c1.024-.67 2.37-.552 3.312-.069.032.017.064.034.095.053L43.333 10.79c1.15.618 1.667 1.788 1.667 2.85v20.723c0 1.034-.486 2.15-1.409 2.78l-.075.048L26.29 47.533c-1.024.67-2.37.552-3.312.069a1.566 1.566 0 01-.09-.05L5.67 37.212C4.517 36.595 4 35.424 4 34.362V13.638c0-1.062.517-2.233 1.67-2.85L22.858.467zm1.63 2.582a2.81 2.81 0 01-.013.007L7.22 13.418a1.552 1.552 0 01-.106.061.095.095 0 00-.015.022.292.292 0 00-.031.137v20.724c0 .063.016.11.03.137a.095.095 0 00.016.022s.007.006.015.01c.031.016.061.033.09.05l17.196 10.326a.57.57 0 00.246.044l.012-.008 17.174-10.312a.503.503 0 00.085-.269V13.638a.292.292 0 00-.03-.137.098.098 0 00-.016-.022s-.007-.006-.015-.01a1.565 1.565 0 01-.096-.054L24.732 3.092a.569.569 0 00-.244-.043z"/><path d="M44.18 11.624a1.518 1.518 0 01-.509 2.095l-17.525 10.65c-1.024.672-2.372.555-3.316.071a1.597 1.597 0 01-.094-.052L5.332 13.873a1.518 1.518 0 01-.514-2.093 1.54 1.54 0 012.108-.51l17.342 10.476a.573.573 0 00.244.043l.006-.003L42.07 11.119a1.54 1.54 0 012.108.505z"/><path d="M13.888 5.997a1.54 1.54 0 012.104-.523l18.148 10.82c.727.432.962 1.368.526 2.09a1.54 1.54 0 01-2.104.523L14.414 8.087a1.518 1.518 0 01-.526-2.09zM24.574 22.476c.847 0 1.534.682 1.534 1.524v22.4c0 .842-.687 1.524-1.534 1.524A1.529 1.529 0 0123.04 46.4V24c0-.842.687-1.524 1.534-1.524z"/></g><defs><clipPath id="clip0_2195_5197"><path fill="#fff" d="M0 0h48v48H0z"/></clipPath></defs></svg>