<svg width="32" height="32" viewBox="0 0 32 32" fill="none" xmlns="http://www.w3.org/2000/svg"><g clip-path="url(#clip0_2244_6046)" fill="#253238"><path d="M8 17.5a1.5 1.5 0 100-3 1.5 1.5 0 000 3zM17.5 16a1.5 1.5 0 11-3 0 1.5 1.5 0 013 0zM24 17.5a1.5 1.5 0 100-3 1.5 1.5 0 000 3z"/><path fill-rule="evenodd" clip-rule="evenodd" d="M.218 27.884l1.727-4.313A15.952 15.952 0 01.046 16C.046 7.163 7.2 0 16.023 0 24.847 0 32 7.163 32 16s-7.153 16-15.977 16H3c-2.12 0-3.57-2.145-2.78-4.116zM2.043 16c0-7.732 6.26-14 13.98-14 7.721 0 13.98 6.268 13.98 14s-6.259 14-13.98 14H3a1 1 0 01-.927-1.372l1.197-2.99c.268.354.55.698.846 1.029a.997.997 0 001.41.078c.41-.368.446-1 .078-1.412A13.947 13.947 0 012.043 16z"/></g><defs><clipPath id="clip0_2244_6046"><path fill="#fff" d="M0 0h32v32H0z"/></clipPath></defs></svg>