<svg width="40" height="40" viewBox="0 0 40 40" fill="none" xmlns="http://www.w3.org/2000/svg"><path fill-rule="evenodd" clip-rule="evenodd" d="M21.5 4.711a3 3 0 00-3 0L7.51 11.057a3 3 0 00-1.5 2.598v12.69a3 3 0 001.5 2.599l10.99 6.345a3 3 0 003 0l10.99-6.346a3 3 0 001.5-2.598v-12.69a3 3 0 00-1.5-2.598L21.5 4.71zm-2 1.733a1 1 0 011 0L30.99 12.5l-4.464 2.577-10.99-6.345L19.5 6.444zm-5.964 3.443l10.99 6.345L20 18.845 9.01 12.5l4.526-2.613zM8.01 14.232v12.114a1 1 0 00.5.866L19 33.267v-12.69L8.01 14.231zM21 20.577v12.691l10.49-6.056a1 1 0 00.5-.866V14.232L21 20.577z" fill="#253238"/></svg>