<svg width="40" height="40" viewBox="0 0 40 40" fill="none" xmlns="http://www.w3.org/2000/svg"><path fill-rule="evenodd" clip-rule="evenodd" d="M18.804 9.448c-1.175-.759-3.245-1.685-5.575-1.392-3.507.453-5.548 2.812-6.128 3.98a.99.99 0 01-.026.049c-.335.59-1.685 3.265-.75 6.873.929 3.584 4.189 8.372 13.668 13.046H20a.04.04 0 00.007 0c9.479-4.674 12.739-9.462 13.668-13.046.935-3.608-.415-6.282-.75-6.873a.95.95 0 01-.038-.074c-.573-1.236-2.5-3.5-6.115-3.955h-.004c-2.247-.292-4.374.634-5.576 1.399a2.221 2.221 0 01-2.388-.007zM12.978 6.07c2.976-.374 5.524.801 6.91 1.697a.222.222 0 00.23 0c1.4-.891 4.007-2.072 6.906-1.696 4.35.548 6.817 3.278 7.66 5.06.483.863 2.032 4.065.927 8.328-1.127 4.347-4.938 9.515-14.724 14.34a2.027 2.027 0 01-1.774 0C9.327 28.975 5.516 23.807 4.39 19.46c-1.11-4.283.458-7.494.933-8.34.833-1.652 3.385-4.497 7.653-5.048h.003z" fill="#253238"/></svg>