<svg width="32" height="32" viewBox="0 0 32 32" fill="none" xmlns="http://www.w3.org/2000/svg"><path fill-rule="evenodd" clip-rule="evenodd" d="M23 23.145l-6.856 6.856a3.41 3.41 0 01-4.823 0L1.999 20.68a3.41 3.41 0 010-4.823L15.856 1.999A3.41 3.41 0 0118.267 1h9.322A3.41 3.41 0 0131 4.41v9.322a3.41 3.41 0 01-.999 2.412L28 18.145V28.5a2.5 2.5 0 01-5 0v-5.355zM18.267 3a1.41 1.41 0 00-.997.413L3.413 17.27a1.41 1.41 0 000 1.995l9.322 9.322c.551.55 1.444.55 1.995 0l8.27-8.27v-9.488a3.001 3.001 0 112 0v7.488l3.587-3.587a1.41 1.41 0 00.413-.998V4.412C29 3.63 28.369 3 27.59 3h-9.323zM26 20.145V28.5a.5.5 0 01-1 0v-7.355l1-1zM24 9a1 1 0 100-2 1 1 0 000 2z" fill="#253238"/></svg>