<svg width="32" height="32" viewBox="0 0 32 32" fill="none" xmlns="http://www.w3.org/2000/svg"><path d="M16 21a1 1 0 011 1v1a1 1 0 11-2 0v-1a1 1 0 011-1zM18.803 8.936c-.767-.71-1.753-.983-2.834-.93-.502.011-.998.116-1.46.31-.47.195-.896.479-1.255.836l-.01.01-.01.01a4.587 4.587 0 00-1.225 2.559 1 1 0 001.983.26c.069-.528.305-1.028.684-1.432.17-.167.374-.303.603-.398.233-.098.486-.15.743-.155h.018l.018-.001c.674-.036 1.092.13 1.378.392.355.346.548.801.554 1.268v.036l.003.036c.025.293-.018.59-.126.867a3.78 3.78 0 01-.5.828l-.001.002a8.536 8.536 0 01-.763.842l-.007.008c-.324.32-.629.657-.912 1.012a2.433 2.433 0 00-.341.572c-.283.656-.339 1.342-.34 1.91L15 18.997a1 1 0 002 .004l.003-1.22c.001-.462.051-.832.176-1.122a.438.438 0 01.062-.109l.004-.005c.234-.292.485-.571.753-.836.335-.325.648-.67.936-1.035.314-.395.574-.828.774-1.289l.007-.014.005-.015a3.945 3.945 0 00.27-1.751 3.804 3.804 0 00-1.172-2.656l-.008-.007-.007-.007z" fill="#253238"/><path fill-rule="evenodd" clip-rule="evenodd" d="M0 16C0 7.163 7.163 0 16 0s16 7.163 16 16-7.163 16-16 16S0 24.837 0 16zM16 2C8.268 2 2 8.268 2 16s6.268 14 14 14 14-6.268 14-14S23.732 2 16 2z" fill="#253238"/></svg>