<svg width="48" height="48" viewBox="0 0 48 48" fill="none" xmlns="http://www.w3.org/2000/svg"><path fill-rule="evenodd" clip-rule="evenodd" d="M1.975 46.14a2.562 2.562 0 01-1.42-.904A2.575 2.575 0 010 43.644c0-.867.605-1.659.605-1.659 1.925-2.214 2.99-4.465 2.99-7.63 0-1.114-.153-2.19-.422-3.222a23.239 23.239 0 012.77-21.24 23.134 23.134 0 018.265-7.273 23.061 23.061 0 0123.038.972 23.157 23.157 0 018.527 9.66 23.235 23.235 0 01-2.995 24.6l.026.02c-.137.15-.28.294-.42.443a23.252 23.252 0 01-3.744 3.495C32.668 46.609 25.403 48 17.154 48c-5.321 0-9.217-.238-15.179-1.858v-.003zm4.46-10.297c-.264 2.806-1.296 5.216-3.255 7.603 5.244 1.389 8.73 1.637 13.974 1.637 8.825 0 14.89-1.709 19.666-5.55l.044-.034.043-.031c1.2-.896 2.3-1.92 3.276-3.057l.036-.043.038-.041.068-.072.204-.248a20.33 20.33 0 004.565-12.829c0-11.173-9.063-20.26-20.205-20.26-11.141 0-20.206 9.087-20.206 20.26 0 .525.024 1.047.062 1.564l.113.79.168.854c.053.29.13.573.209.86.079.272.146.599.232.83l.298.893c.096.3.216.54.32.809.194.52.475 1.035.705 1.533.276.479.511.958.797 1.377.271.426.53.823.801 1.172l.377.505.365.433c.226.277.427.513.61.694l.552.582.055.06a1.46 1.46 0 01-1.16 2.451 1.451 1.451 0 01-1.007-.506l-.596-.705a11.934 11.934 0 01-.65-.836l-.386-.522-.113-.173zm11.77-11.799c0 .802-.317 1.57-.882 2.136a3.008 3.008 0 01-4.26 0 3.025 3.025 0 010-4.271 3.008 3.008 0 014.26 0c.565.566.882 1.334.882 2.136zm6.682 3.021a3.008 3.008 0 01-2.13-.885 3.025 3.025 0 010-4.271 3.008 3.008 0 014.26 0 3.025 3.025 0 010 4.271 3.008 3.008 0 01-2.13.885zm9.694 0a3.008 3.008 0 01-2.13-.885 3.025 3.025 0 010-4.271 3.008 3.008 0 014.26 0 3.025 3.025 0 010 4.271 3.008 3.008 0 01-2.13.885z" fill="#333"/></svg>