<svg width="40" height="40" viewBox="0 0 40 40" fill="none" xmlns="http://www.w3.org/2000/svg"><path d="M20 25a1 1 0 011 1v1a1 1 0 11-2 0v-1a1 1 0 011-1zm2.803-12.064c-.767-.71-1.753-.983-2.834-.93a4 4 0 00-2.715 1.146l-.01.01-.01.01a4.587 4.587 0 00-1.225 2.559 1 1 0 001.983.26 2.582 2.582 0 01.684-1.432c.17-.167.374-.303.603-.398a2.02 2.02 0 01.743-.155h.018l.018-.001c.674-.036 1.092.13 1.378.392.355.346.548.801.554 1.268v.036l.003.036c.025.293-.018.59-.126.867a3.78 3.78 0 01-.5.828l-.001.002a8.536 8.536 0 01-.763.842l-.007.008c-.324.32-.628.658-.912 1.012a2.433 2.433 0 00-.341.572c-.283.656-.339 1.342-.34 1.91L19 22.997a1 1 0 002 .004l.003-1.22c.001-.462.051-.832.176-1.122a.438.438 0 01.062-.109l.004-.005c.234-.292.485-.571.753-.836.335-.325.648-.67.936-1.035.314-.395.574-.828.774-1.289l.007-.014.005-.015a3.945 3.945 0 00.27-1.751 3.805 3.805 0 00-1.172-2.656l-.008-.007-.007-.007z" fill="#253238"/><path fill-rule="evenodd" clip-rule="evenodd" d="M4 20c0-8.837 7.163-16 16-16s16 7.163 16 16-7.163 16-16 16S4 28.837 4 20zM20 6C12.268 6 6 12.268 6 20s6.268 14 14 14 14-6.268 14-14S27.732 6 20 6z" fill="#253238"/></svg>