<svg width="48" height="48" viewBox="0 0 48 48" fill="none" xmlns="http://www.w3.org/2000/svg"><path fill-rule="evenodd" clip-rule="evenodd" d="M0 17.891C0 9.691 6.639 3 14.875 3c3.146 0 6.068 1.091 8.417 2.692.218.142.39.202.706.202.07 0 .167-.013.284-.044.071-.02.138-.043.195-.066C26.995 4.047 30.044 3 33.284 3c8.222 0 14.887 6.681 14.713 14.91-.008 7.844-4.433 13.971-9.239 18.319-4.801 4.343-10.2 7.114-12.728 8.28a1.834 1.834 0 01-.343.189 2.403 2.403 0 01-.827.266C24.6 45 24.331 45 24.19 45H24.13c-.138 0-.385 0-.645-.042a3.01 3.01 0 01-.82-.265c-2.244-.941-7.795-3.63-12.831-7.999C4.786 32.314 0 26.014 0 17.891zM14.875 6.42C8.45 6.419 3.36 11.623 3.36 17.89c0 6.667 3.929 12.102 8.655 16.202 4.706 4.082 9.948 6.612 11.97 7.455l.072.033h.202a1.858 1.858 0 01.512-.244c2.437-1.135 7.392-3.717 11.755-7.663 4.475-4.048 8.111-9.328 8.111-15.783v-.039c.14-6.23-4.92-11.433-11.353-11.433-2.568 0-5.007.844-7.026 2.267-.07.05-.146.095-.223.133-.482.238-1.224.493-2.037.493-.982 0-1.786-.26-2.54-.756l-.025-.016c-1.885-1.288-4.17-2.121-6.558-2.121z" fill="#253238"/></svg>