<svg width="32" height="32" viewBox="0 0 32 32" fill="none" xmlns="http://www.w3.org/2000/svg"><path d="M26.108 7.367a1 1 0 10-1.548 1.266C26.042 10.444 27 13.057 27 16c0 2.943-.958 5.556-2.44 7.367a1 1 0 001.548 1.266C27.908 22.433 29 19.362 29 16c0-3.361-1.091-6.433-2.892-8.633z" fill="#253238"/><path fill-rule="evenodd" clip-rule="evenodd" d="M3.575 4.787C5.802 1.88 8.95 0 12.5 0H19v.012c.166-.008.332-.012.5-.012 3.552 0 6.698 1.88 8.925 4.785C30.652 7.689 32 11.657 32 16s-1.348 8.311-3.575 11.215C26.198 30.12 23.052 32 19.5 32c-.168 0-.334-.004-.5-.012V32h-6.5c-3.551 0-6.698-1.881-8.925-4.787C1.35 24.31 0 20.341 0 16c0-4.34 1.349-8.31 3.575-11.213zM12.5 2h.933a13.4 13.4 0 00-2.858 2.785A15.882 15.882 0 009.15 7.011C9.101 7.004 9.051 7 9 7H4.468c.22-.347.452-.68.694-.997C7.098 3.48 9.702 2 12.5 2zM3.412 9C2.518 11.052 2 13.44 2 16h5c0-2.502.447-4.879 1.252-7h-4.84zm-1.305 9h4.99c.209 2.158.753 4.189 1.57 6H3.892c-.917-1.744-1.546-3.784-1.785-6zm3.058 8c1.935 2.523 4.537 4 7.335 4h.933a13.4 13.4 0 01-2.858-2.785A15.45 15.45 0 019.733 26H5.165zM9 16c0-3.941 1.226-7.473 3.162-9.998C14.097 3.478 16.7 2 19.5 2s5.403 1.478 7.338 4.002C28.774 8.527 30 12.059 30 16c0 3.942-1.226 7.473-3.162 9.998C24.903 28.522 22.3 30 19.5 30s-5.403-1.478-7.338-4.002C10.226 23.473 9 19.942 9 16z" fill="#253238"/></svg>