<svg width="32" height="32" viewBox="0 0 32 32" fill="none" xmlns="http://www.w3.org/2000/svg"><path d="M23 22a1 1 0 100-2 1 1 0 000 2z" fill="#253238"/><path fill-rule="evenodd" clip-rule="evenodd" d="M25.373 1.072a1 1 0 01.569.592l2.32 6.497A5.002 5.002 0 0132 13v14a5 5 0 01-5 5H5a5 5 0 01-5-5V13a5.002 5.002 0 013.283-4.697c.043-.045.091-.086.144-.122l10-7a1 1 0 011.421.289l2.137 3.42 7.568-3.784a1 1 0 01.82-.034zM15.188 5.788L13.71 3.423 7.172 8h3.592l4.424-2.212zm9.25-2.389L26.081 8H15.236l9.202-4.6zM11.022 10a.97.97 0 01-.042 0H5a3 3 0 00-3 3v14a3 3 0 003 3h22a3 3 0 003-3v-2h-7a4 4 0 010-8h7v-4a3 3 0 00-3-3H11.022zM23 19h7v4h-7a2 2 0 110-4z" fill="#253238"/></svg>