<svg width="32" height="32" viewBox="0 0 32 32" fill="none" xmlns="http://www.w3.org/2000/svg"><path fill-rule="evenodd" clip-rule="evenodd" d="M17.5.711a3 3 0 00-3 0L3.51 7.057a3 3 0 00-1.5 2.598v12.69a3 3 0 001.5 2.599l10.99 6.345a3 3 0 003 0l10.99-6.346a3 3 0 001.5-2.598V9.656a3 3 0 00-1.5-2.598L17.5.71zm-2 1.733a1 1 0 011 0L26.99 8.5l-4.464 2.577-10.99-6.345L15.5 2.444zM9.536 5.887l10.99 6.345L16 14.845 5.01 8.5l4.526-2.613zM4.01 10.232v12.114a1 1 0 00.5.866L15 29.268v-12.69L4.01 10.231zM17 16.577v12.691l10.49-6.056a1 1 0 00.5-.866V10.232L17 16.577z" fill="#253238"/></svg>