<svg width="48" height="48" viewBox="0 0 48 48" fill="none" xmlns="http://www.w3.org/2000/svg"><path d="M24 0C10.72 0 0 10.792 0 24s10.72 24 24 24 24-10.792 24-24S37.28 0 24 0zm0 44.94c-11.52 0-20.8-9.343-20.8-20.779S12.48 3.221 24 3.221c11.52 0 20.8 9.343 20.8 20.779S35.52 44.94 24 44.94z" fill="#253238"/><path d="M23.52 11.114c-4.48 0-6.24 3.866-6.4 5.799-.16.805.48 1.61 1.44 1.771.8.161 1.6-.483 1.76-1.45 0-.16.48-3.06 3.2-3.06 2.24 0 3.2 1.933 3.2 3.866 0 1.289-.48 2.577-1.92 4.027l-.48.483c-1.28 1.45-1.92 2.577-1.92 4.832v1.289c0 .966.64 1.61 1.6 1.61.96 0 1.6-.644 1.6-1.61v-1.289c0-1.288.32-1.772 1.12-2.738l.48-.483c1.76-2.094 2.56-4.027 2.56-6.121 0-4.027-2.56-6.926-6.24-6.926zM23.04 32.537c-.32.322-.48.805-.48 1.127 0 .162 0 .484.16.645.16.16.16.322.32.483.16.161.32.322.48.322.16 0 .32.161.64.161.48 0 .8-.16 1.12-.483.16-.161.32-.322.32-.483 0-.161.16-.322.16-.645 0-.483-.16-.805-.48-1.127-.48-.483-1.6-.483-2.24 0z" fill="#253238"/></svg>