<svg width="40" height="40" viewBox="0 0 40 40" fill="none" xmlns="http://www.w3.org/2000/svg"><path fill-rule="evenodd" clip-rule="evenodd" d="M15.89 6.942l.002-.008c1.321-3.912 6.894-3.912 8.216 0l.002.008 1.92 5.848c.04.112.158.21.316.21h5.317c4.11 0 5.98 5.241 2.59 7.752l-4.737 3.506a.286.286 0 00-.111.316l1.93 5.787.002.008c1.323 4.08-3.41 7.213-6.714 4.767L20.21 31.87a.357.357 0 00-.419 0l-4.413 3.267c-3.304 2.446-8.037-.687-6.714-4.768l.003-.007 1.929-5.788a.286.286 0 00-.11-.315l-4.737-3.506 1.19-1.608 4.736 3.507a2.285 2.285 0 01.822 2.543l-1.93 5.791c-.693 2.137 1.803 3.89 3.62 2.544l4.414-3.267a2.357 2.357 0 012.8 0l4.413 3.267c1.818 1.346 4.314-.407 3.621-2.544l-1.93-5.79a2.285 2.285 0 01.822-2.544l4.736-3.507c1.794-1.327.842-4.144-1.4-4.144h-5.316a2.33 2.33 0 01-2.213-1.574l-1.92-5.852c-.71-2.099-3.717-2.099-4.426 0l-1.92 5.852A2.33 2.33 0 0113.652 15H8.337c-2.242 0-3.193 2.817-1.4 4.144l-1.19 1.608C2.357 18.242 4.227 13 8.337 13h5.316a.331.331 0 00.317-.21l1.92-5.848z" fill="#253238"/></svg>