<svg width="40" height="40" viewBox="0 0 40 40" fill="none" xmlns="http://www.w3.org/2000/svg"><path d="M30.108 11.367a1 1 0 00-1.548 1.266C30.042 14.444 31 17.057 31 20c0 2.943-.958 5.556-2.44 7.367a1 1 0 001.548 1.266C31.908 26.433 33 23.362 33 20c0-3.361-1.091-6.433-2.892-8.633z" fill="#253238"/><path fill-rule="evenodd" clip-rule="evenodd" d="M7.575 8.787C9.802 5.88 12.95 4 16.5 4H23v.012c.166-.008.332-.012.5-.012 3.552 0 6.698 1.88 8.925 4.785C34.652 11.689 36 15.657 36 20s-1.348 8.311-3.575 11.215C30.198 34.12 27.052 36 23.5 36c-.168 0-.334-.004-.5-.013V36h-6.5c-3.551 0-6.698-1.882-8.925-4.787C5.35 28.31 4 24.341 4 20c0-4.34 1.349-8.31 3.575-11.213zM16.5 6h.933a13.4 13.4 0 00-2.858 2.785 15.873 15.873 0 00-1.425 2.226A.996.996 0 0013 11H8.468c.22-.347.452-.68.694-.997C11.098 7.48 13.702 6 16.5 6zm-9.088 7C6.518 15.052 6 17.44 6 20h5c0-2.502.447-4.879 1.252-7h-4.84zm-1.305 9h4.99c.209 2.158.753 4.189 1.57 6H7.892c-.917-1.744-1.546-3.784-1.785-6zm3.058 8c1.935 2.523 4.537 4 7.335 4h.933a13.4 13.4 0 01-2.858-2.785A15.447 15.447 0 0113.733 30H9.165zM13 20c0-3.942 1.226-7.473 3.162-9.998C18.097 7.478 20.7 6 23.5 6s5.403 1.478 7.338 4.002C32.774 12.527 34 16.058 34 20c0 3.942-1.226 7.473-3.162 9.998C28.903 32.522 26.3 34 23.5 34s-5.403-1.478-7.338-4.002C14.226 27.473 13 23.942 13 20z" fill="#253238"/></svg>