<svg width="40" height="40" viewBox="0 0 40 40" fill="none" xmlns="http://www.w3.org/2000/svg"><path d="M12 21.5a1.5 1.5 0 100-3 1.5 1.5 0 000 3zm9.5-1.5a1.5 1.5 0 11-3 0 1.5 1.5 0 013 0zm6.5 1.5a1.5 1.5 0 100-3 1.5 1.5 0 000 3z" fill="#253238"/><path fill-rule="evenodd" clip-rule="evenodd" d="M4.218 31.884l1.727-4.313A15.952 15.952 0 014.046 20c0-8.837 7.153-16 15.977-16C28.847 4 36 11.163 36 20s-7.153 16-15.977 16H7c-2.12 0-3.57-2.145-2.78-4.116zM6.043 20c0-7.732 6.26-14 13.98-14 7.721 0 13.98 6.268 13.98 14s-6.259 14-13.98 14H7a1 1 0 01-.927-1.372l1.197-2.99c.268.354.55.698.846 1.029a.997.997 0 001.41.078c.41-.368.446-1 .078-1.412A13.947 13.947 0 016.043 20z" fill="#253238"/></svg>