<svg width="48" height="48" viewBox="0 0 48 48" fill="none" xmlns="http://www.w3.org/2000/svg"><path fill-rule="evenodd" clip-rule="evenodd" d="M28.911 3.097c-.552 0-.927.165-1.24.475l-.032.03L4.657 25.108c-.676.682-.734 1.858.013 2.597l13.925 13.78c.604.598 1.684.688 2.534-.05L44.27 19.93c.03-.028.061-.054.094-.08.31-.245.508-.665.508-1.268V4.955c0-1.003-.864-1.858-1.878-1.858H28.911zm-3.437-1.731C26.41.448 27.595 0 28.912 0h14.082C45.735 0 48 2.242 48 4.955V18.58c0 1.236-.416 2.652-1.63 3.643L23.255 43.71l-.032.029c-1.963 1.727-4.943 1.814-6.84-.063L2.457 29.895c-2.065-2.044-1.816-5.193 0-6.99l.031-.03 22.986-21.51z" fill="#253238"/><path fill-rule="evenodd" clip-rule="evenodd" d="M35.326 9.91c-.95 0-1.721.762-1.721 1.703 0 .94.77 1.703 1.721 1.703.95 0 1.721-.763 1.721-1.703 0-.94-.77-1.703-1.72-1.703zm-4.85 1.703c0-2.651 2.171-4.8 4.85-4.8s4.85 2.149 4.85 4.8c0 2.65-2.171 4.8-4.85 4.8s-4.85-2.15-4.85-4.8z" fill="#253238"/><path fill-rule="evenodd" clip-rule="evenodd" d="M35.565 13.471c.864 0 1.564.693 1.564 1.548v28.336c0 .376.16.796.44 1.115.275.315.573.433.812.433.239 0 .537-.118.813-.433.28-.32.439-.74.439-1.115V25.548c0-.855.7-1.548 1.564-1.548.865 0 1.565.693 1.565 1.548v17.807c0 1.172-.466 2.301-1.203 3.143-.742.846-1.852 1.502-3.178 1.502-1.326 0-2.436-.656-3.177-1.502-.738-.842-1.204-1.97-1.204-3.143V15.019c0-.855.7-1.548 1.565-1.548z" fill="#253238"/></svg>