<svg width="48" height="48" viewBox="0 0 48 48" fill="none" xmlns="http://www.w3.org/2000/svg"><path d="M14.178 24c0 11.3 6.875 20.308 15.107 20.308S44.394 35.3 44.394 24 37.517 3.692 29.285 3.692C21.052 3.692 14.177 12.7 14.177 24h.002zm5.105-20.308h-1.117c-4.213 0-8.068 2.552-10.752 6.646h6.47c1.43-2.65 3.267-4.916 5.4-6.646zM28.58.017c.235-.011.47-.017.706-.017C39.728 0 48 10.831 48 24s-8.269 24-18.715 24c-.236 0-.47-.005-.705-.017V48H18.168C8.005 48 0 37.16 0 24S8.007 0 18.166 0h10.412v.017h.002zm-9.297 44.29a21.259 21.259 0 01-4.534-5.169H8.487c2.59 3.222 6 5.17 9.68 5.17h1.116zm-13.13-8.86h6.672a28.841 28.841 0 01-2.079-8.124H3.803c.353 2.983 1.174 5.738 2.35 8.123zM3.61 23.63h6.962c.04-3.414.637-6.665 1.68-9.6h-6.76c-1.156 2.835-1.836 6.103-1.882 9.6zm34.623 13.176a1.782 1.782 0 01-2.492.565 1.872 1.872 0 01-.552-2.548c.66-1.061.923-1.523 1.327-2.437 1.13-2.553 1.715-5.592 1.488-9.305-.266-4.342-2.025-8.062-3.596-9.537a1.878 1.878 0 01-.111-2.608 1.773 1.773 0 012.55-.111c2.252 2.114 4.432 6.723 4.757 12.026.266 4.333-.436 7.97-1.802 11.058a22.062 22.062 0 01-1.57 2.897z" fill="#253238"/></svg>