<svg width="48" height="48" viewBox="0 0 48 48" fill="none" xmlns="http://www.w3.org/2000/svg"><path d="M31.73 43.643h7.232V1.679c0-.446.19-.873.529-1.187A1.88 1.88 0 0140.769 0c.48 0 .94.177 1.279.492.338.314.529.741.529 1.187v41.964h3.615c.48 0 .94.177 1.279.492.339.314.529.741.529 1.186 0 .446-.19.873-.53 1.187a1.88 1.88 0 01-1.278.492H2.808c-.48 0-.94-.177-1.279-.492A1.62 1.62 0 011 45.321c0-.445.19-.872.53-1.186a1.88 1.88 0 011.278-.492h3.615V33.57c0-.445.19-.872.53-1.186a1.88 1.88 0 011.278-.492c.48 0 .939.177 1.278.492.339.314.53.741.53 1.186v10.072h7.23V15.107c0-.445.19-.872.53-1.187a1.88 1.88 0 011.278-.491c.48 0 .94.176 1.278.491.34.315.53.742.53 1.187v28.536h7.23V25.179c0-.446.19-.873.53-1.187a1.88 1.88 0 011.278-.492c.48 0 .94.177 1.278.492.34.314.53.741.53 1.187v18.464z" fill="#253238"/></svg>