<svg width="40" height="40" viewBox="0 0 40 40" fill="none" xmlns="http://www.w3.org/2000/svg"><path d="M27 26a1 1 0 100-2 1 1 0 000 2z" fill="#253238"/><path fill-rule="evenodd" clip-rule="evenodd" d="M29.373 5.072a1 1 0 01.569.592l2.32 6.497A5.002 5.002 0 0136 17v14a5 5 0 01-5 5H9a5 5 0 01-5-5V17a5.002 5.002 0 013.283-4.697.893.893 0 01.144-.122l10-7a1 1 0 011.421.289l2.137 3.42 7.568-3.784a1 1 0 01.82-.034zM19.188 9.788l-1.477-2.365L11.172 12h3.591l4.424-2.212zm9.25-2.389L30.081 12H19.236l9.202-4.6zM15.022 14a.97.97 0 01-.042 0H9a3 3 0 00-3 3v14a3 3 0 003 3h22a3 3 0 003-3v-2h-7a4 4 0 010-8h7v-4a3 3 0 00-3-3H15.022zM27 23h7v4h-7a2 2 0 110-4z" fill="#253238"/></svg>