<svg width="48" height="48" viewBox="0 0 48 48" fill="none" xmlns="http://www.w3.org/2000/svg"><g clip-path="url(#clip0_2195_5207)"><path fill-rule="evenodd" clip-rule="evenodd" d="M11.542 27.54l-7.377-5.57c-1.054-.603-1.355-1.958-1.054-3.162.301-1.205 1.355-1.957 2.56-1.957h9.634c1.355-.151 2.71-1.205 3.162-2.56l2.86-9.334C21.63 3.753 22.683 3 23.887 3c1.204 0 2.258.753 2.71 2.108l2.86 9.334c.452 1.355 1.656 2.409 3.162 2.56h9.635c1.204 0 2.258.752 2.56 1.956.45 1.054 0 2.41-.452 3.011l-7.528 5.721c-.903.753-1.505 1.807-1.505 3.162 0 .451 0 .903.15 1.204l2.86 9.184c.302 1.053-.15 2.408-1.053 3.161-.452.452-1.054.602-1.656.602-.602 0-1.205-.3-1.656-.602l-7.528-5.72c-.602-.452-1.355-.753-2.108-.753-.903 0-1.655.3-2.258.752l-7.527 5.721c-1.054.753-2.409.753-3.312 0-1.054-.602-1.355-1.957-1.054-3.161l2.86-9.184c.15-.452.15-.753.15-1.204 0-1.355-.601-2.56-1.655-3.312zM9.527 46.87c-2.462-1.566-2.718-4.489-2.25-6.358.013-.055.029-.11.046-.165l2.86-9.183.012-.04.001-.028c.002-.057.002-.123.002-.244 0-.44-.177-.712-.4-.871a2.88 2.88 0 01-.064-.047l-7.253-5.477c-2.49-1.56-2.75-4.5-2.28-6.377.658-2.634 2.988-4.23 5.47-4.23h9.378a.999.999 0 00.302-.17c.163-.13.239-.26.265-.323L18.44 4.14C19.13 1.56 21.434 0 23.887 0c2.618 0 4.736 1.7 5.556 4.159l.022.07 2.846 9.286a.76.76 0 00.52.486h9.423c2.41 0 4.678 1.506 5.41 4.007.444 1.193.379 2.368.2 3.233-.19.915-.576 1.826-1.102 2.528-.167.223-.364.42-.585.589l-7.461 5.67c-.15.133-.238.255-.29.359a1 1 0 00-.097.465l.001.27.014.042 2.86 9.183.02.069c.644 2.254-.251 4.75-1.918 6.205-1.194 1.129-2.641 1.382-3.676 1.382-1.504 0-2.72-.705-3.32-1.106a2.96 2.96 0 01-.152-.107l-7.517-5.714a.946.946 0 00-.23-.126.39.39 0 00-.079-.023.739.739 0 00-.245.04.764.764 0 00-.202.11l-7.517 5.713a3.062 3.062 0 01-.071.052c-1.943 1.388-4.698 1.595-6.77.028z" fill="#000"/></g><defs><clipPath id="clip0_2195_5207"><path fill="#fff" d="M0 0h48v48H0z"/></clipPath></defs></svg>