<svg width="40" height="40" viewBox="0 0 40 40" fill="none" xmlns="http://www.w3.org/2000/svg"><path fill-rule="evenodd" clip-rule="evenodd" d="M13.08 4.864a2.95 2.95 0 00-4.172 0L5.303 8.469c-.967.967-1.55 2.376-1.203 3.851.658 2.802 2.695 8.387 8.944 14.636 6.249 6.25 11.834 8.286 14.636 8.944 1.475.346 2.884-.236 3.851-1.203l3.605-3.605a2.95 2.95 0 000-4.171l-4.135-4.136a2.95 2.95 0 00-4.172 0l-2.081 2.081c-.801-.128-2.749-.781-5.54-3.573a24.985 24.985 0 01-3.37-4.172c-.768-1.204-1.193-2.141-1.333-2.618l2.021-2.021a2.95 2.95 0 000-4.172L13.08 4.864zm-2.758 1.414a.95.95 0 011.343 0l3.447 3.446a.95.95 0 010 1.343l-2.058 2.058a1.881 1.881 0 00-.508 1.796c.192.753.752 1.937 1.604 3.275a26.99 26.99 0 003.643 4.511c3.13 3.13 5.513 4 6.809 4.158.61.075 1.15-.175 1.515-.539l2.127-2.127a.95.95 0 011.342 0l4.136 4.136a.95.95 0 010 1.343l-3.605 3.605c-.587.587-1.317.826-1.98.67-2.469-.58-7.713-2.445-13.679-8.411-5.966-5.966-7.831-11.21-8.41-13.679-.156-.663.083-1.393.67-1.98l3.604-3.605z" fill="#253238"/><path d="M23 6a1 1 0 011-1c3.227 0 5.994 1.08 7.957 3.043S35 12.773 35 16a1 1 0 11-2 0c0-2.773-.92-5.006-2.457-6.543S26.773 7 24 7a1 1 0 01-1-1z" fill="#253238"/><path d="M21 11a1 1 0 011-1c4.555 0 8 3.448 8 8a1 1 0 11-2 0c0-3.448-2.55-6-6-6a1 1 0 01-1-1z" fill="#253238"/></svg>