<svg width="48" height="48" viewBox="0 0 48 48" fill="none" xmlns="http://www.w3.org/2000/svg"><path d="M10.19 2.99h-.011c-.227.002-.45.047-.658.135a1.669 1.669 0 00-.55.375L3.86 8.688c-1.12 1.34-1.356 2.873.7 7.29.053.115 3.956 8.845 11.203 16.02 7.279 7.207 17.57 11.744 17.673 11.789 3.387 1.528 4.678 1.585 5.78.28l5.297-5.251c.157-.155.278-.339.358-.541.08-.202.117-.418.108-.635a1.547 1.547 0 00-.153-.624 1.587 1.587 0 00-.396-.514l-6.698-5.805c-.457-.397-1.022-.888-2.322.418l-4.54 4.47a1.533 1.533 0 01-1.743.28c-.132-.066-3.309-1.673-9.458-7.759-6.225-6.164-7.85-10.858-7.92-11.057-.09-.272-.1-.563-.027-.84.072-.278.223-.53.436-.727l4.404-4.06c1.294-1.533 1.006-1.82.567-2.256l-5.74-5.681a1.672 1.672 0 00-.548-.366 1.71 1.71 0 00-.652-.128zm27.195 45.007c-1.905 0-3.812-.862-5.186-1.48-.423-.186-10.895-4.802-18.575-12.4C5.958 26.523 1.971 17.58 1.804 17.203-.18 12.946-.911 9.686 1.615 6.684l5.2-5.276C7.243.966 7.763.613 8.34.37A4.767 4.767 0 0110.162 0h.027c1.262 0 2.445.486 3.336 1.369l5.74 5.681c2.706 2.683.323 5.46-.457 6.371-.039.044-.08.086-.124.125l-3.696 3.414c.726 1.515 2.644 4.9 6.817 9.03 3.9 3.861 6.501 5.8 7.774 6.646l3.688-3.629c2.082-2.1 4.438-2.306 6.45-.564l6.703 5.804c.478.418.864.925 1.135 1.491a4.528 4.528 0 01.123 3.631 4.624 4.624 0 01-1.031 1.56L41.44 46.08c-1.2 1.437-2.63 1.92-4.056 1.92" fill="#253238"/></svg>