<svg width="32" height="32" viewBox="0 0 32 32" fill="none" xmlns="http://www.w3.org/2000/svg"><g clip-path="url(#clip0_2240_5669)"><path fill-rule="evenodd" clip-rule="evenodd" d="M14.804 5.448c-1.175-.759-3.245-1.685-5.575-1.392-3.507.453-5.548 2.812-6.128 3.98a1 1 0 01-.026.049c-.335.59-1.685 3.265-.75 6.873.929 3.584 4.189 8.372 13.668 13.046H16a.04.04 0 00.007 0c9.479-4.674 12.739-9.462 13.668-13.046.935-3.608-.415-6.283-.75-6.873a.965.965 0 01-.038-.073c-.573-1.237-2.5-3.501-6.115-3.956h-.004c-2.247-.292-4.374.634-5.576 1.399a2.221 2.221 0 01-2.388-.007zM8.978 2.07c2.976-.374 5.524.801 6.91 1.697a.222.222 0 00.23 0c1.4-.891 4.007-2.072 6.906-1.696 4.35.548 6.817 3.278 7.66 5.06.483.863 2.032 4.065.927 8.328-1.127 4.347-4.938 9.515-14.724 14.34a2.027 2.027 0 01-1.774 0C5.327 24.975 1.516 19.807.39 15.46c-1.11-4.283.458-7.494.933-8.34.833-1.652 3.385-4.497 7.653-5.048h.003z" fill="#253238"/></g><defs><clipPath id="clip0_2240_5669"><path fill="#fff" d="M0 0h32v32H0z"/></clipPath></defs></svg>