<svg width="48" height="48" viewBox="0 0 48 48" fill="none" xmlns="http://www.w3.org/2000/svg"><path d="M41.48 11.338l-3.373-8.514a1.377 1.377 0 00-.92-.912c-.46-.152-.767-.152-1.227 0l-9.967 4.713c0-.152 0-.304-.153-.456l-2.76-4.56c-.153-.153-.613-.457-.92-.609-.46 0-.92 0-1.227.304l-14.566 9.73-.46.456C2.993 12.554 1 15.29 1 18.635V38.4C1 42.655 4.373 46 8.667 46h30.666C43.627 46 47 42.655 47 38.399V18.635c0-3.497-2.3-6.385-5.52-7.297zm-3.527-.304h-13.8L35.807 5.56l2.146 5.473zM21.24 4.649l1.84 3.192.153.152-6.133 2.889h-5.06l9.2-6.233zm18.093 38.31H8.667c-2.607 0-4.6-2.128-4.6-4.56V18.635c0-2.584 2.146-4.56 4.6-4.56h30.666c2.607 0 4.6 2.128 4.6 4.56v6.081h-9.2c-3.373 0-6.133 2.737-6.133 6.081 0 3.345 2.76 6.081 6.133 6.081h9.2v1.52c0 2.433-2.146 4.561-4.6 4.561zm4.6-9.121h-9.2c-1.686 0-3.066-1.368-3.066-3.04 0-1.673 1.38-3.041 3.066-3.041h9.2v6.08z" fill="#253238"/><path d="M33.66 29.581c-.154.152-.307.304-.307.456-.153.304-.153.456-.153.76s0 .456.153.608c0 .152.153.304.307.456.153.152.306.305.46.305.153 0 .306.152.613.152.46 0 .767-.152 1.073-.457.154-.152.307-.304.307-.456.153-.152.153-.304.153-.608s0-.456-.153-.608c-.153-.152-.153-.304-.307-.456-.153 0-.153-.152-.153-.152-.153 0-.153-.152-.307-.152-.153 0-.153 0-.306-.152-.46-.152-1.074 0-1.38.304z" fill="#253238"/></svg>