<svg width="174" height="30" fill="none" xmlns="http://www.w3.org/2000/svg"><path d="M107.381 28.472c.026.871.667 1.528 1.491 1.528.823 0 1.465-.66 1.491-1.528l.17-5.747c.016-.52.529-.871.999-.679a7.047 7.047 0 002.666.525c3.863.004 7.074-3.154 7.22-7.11.154-4.215-3.134-7.683-7.213-7.683-3.987 0-7.218 3.312-7.218 7.397 0 1.226.394 13.297.394 13.297zm6.824-9.43c-2.084 0-3.774-1.732-3.774-3.867 0-2.136 1.69-3.867 3.774-3.867s3.773 1.731 3.773 3.867c0 2.135-1.689 3.867-3.773 3.867zM22.277 9.25c-.047-.94-.743-1.472-1.495-1.472-.757 0-1.432.532-1.487 1.472l-.38 6.448c-.12 2.03-1.295 3.074-2.793 3.074-1.451 0-2.607-.952-2.765-2.661l-.473-5c-.084-.894-.73-1.348-1.36-1.348l-.033.001h-.033c-.631 0-1.276.453-1.36 1.347l-.473 5c-.158 1.709-1.314 2.66-2.766 2.66-1.498 0-2.673-1.041-2.793-3.073l-.38-6.448c-.054-.94-.73-1.472-1.486-1.472-.753 0-1.448.532-1.495 1.472l-.31 6.287c-.199 4.026 3.28 6.685 6.464 6.685a6.49 6.49 0 004.154-1.49.748.748 0 01.956 0 6.49 6.49 0 004.153 1.49c3.185 0 6.665-2.659 6.465-6.685l-.31-6.287zM98.66 7.778A7.22 7.22 0 0091.44 15a7.22 7.22 0 007.218 7.223A7.22 7.22 0 00105.877 15a7.22 7.22 0 00-7.218-7.222zm0 10.998a3.775 3.775 0 010-7.551 3.775 3.775 0 010 7.551zM82.778 7.482c-4.171 0-7.552 3.355-7.552 7.495 0 .306.025 1.281.063 2.576-.028.775-.61 1.342-1.356 1.342-.75 0-1.261-.536-1.352-1.228l-.478-3.633-.004-.033-.003-.029c-.494-3.664-3.656-6.49-7.484-6.49-4.137 0-7.496 3.303-7.55 7.396v-.002s-.037 1.124.108 2.497c.084.789-.771 1.523-1.521 1.523-.871 0-1.508-.674-1.553-2.162l-.468-15.275v-.024C53.607.738 52.954 0 52.07 0c-.897 0-1.533.738-1.555 1.46l-.467 15.274c-.043 1.43-.973 2.162-2.025 2.162-1.063 0-1.97-.732-2.014-2.162l-.467-15.275C45.52.7 44.832 0 43.987 0c-.77 0-1.532.596-1.558 1.46l-.493 16.084c-.023.781-.607 1.352-1.357 1.352s-1.261-.536-1.352-1.228l-.486-3.695v.001c-.492-3.645-3.622-6.46-7.422-6.49-4.179-.033-7.613 3.347-7.613 7.494 0 4.139 3.38 7.494 7.551 7.494a7.555 7.555 0 004.655-1.593.9.9 0 01.548-.185c1.13 0 1.27 1.777 4.119 1.777 1.146 0 2.342-.769 2.966-1.238a.682.682 0 01.838.014c.587.47 1.813 1.225 3.624 1.225 1.577 0 2.617-.655 3.16-1.125a.692.692 0 01.906 0 4.63 4.63 0 003.064 1.125c2.5 0 3.522-1.777 4.267-1.777.234 0 .39.063.569.195a7.556 7.556 0 004.64 1.582 7.556 7.556 0 004.654-1.593.9.9 0 01.549-.185c1.13 0 1.395 1.777 3.692 1.777.707 0 1.212-.266 1.79-.597a.085.085 0 01.129.07c.106 3.298.213 6.507.213 6.507.027.883.698 1.548 1.56 1.548.86 0 1.532-.668 1.56-1.548l.178-5.824a.769.769 0 011.057-.682c.86.338 1.796.526 2.777.526 4.042.005 7.402-3.196 7.554-7.205.159-4.27-3.281-7.784-7.548-7.784zM31.256 18.895c-2.18 0-3.948-1.755-3.948-3.918 0-2.164 1.768-3.919 3.948-3.919 2.18 0 3.948 1.755 3.948 3.919 0 2.163-1.768 3.918-3.948 3.918zm33.355 0c-2.18 0-3.948-1.755-3.948-3.918 0-2.164 1.768-3.919 3.948-3.919 2.18 0 3.948 1.755 3.948 3.919 0 2.163-1.768 3.918-3.948 3.918zm18.166 0c-2.18 0-3.948-1.755-3.948-3.918 0-2.164 1.768-3.919 3.949-3.919 2.18 0 3.947 1.755 3.947 3.919 0 2.163-1.767 3.918-3.947 3.918z" fill="#fff"/><path fill-rule="evenodd" clip-rule="evenodd" d="M130.306 15c0-5.83 4.642-10.555 10.369-10.555h22.568c5.727 0 10.369 4.726 10.369 10.555 0 5.83-4.642 10.555-10.369 10.555h-22.568c-5.727 0-10.369-4.725-10.369-10.555zm34.789 3.783c.993-.996 1.489-2.257 1.489-3.783 0-1.526-.496-2.787-1.489-3.783-.993-.996-2.254-1.495-3.781-1.495-1.528 0-2.788.499-3.781 1.495-.993.996-1.49 2.257-1.49 3.783 0 1.526.497 2.787 1.49 3.783.993.997 2.253 1.495 3.781 1.495 1.527 0 2.788-.498 3.781-1.495zm-20.724-2.96c.639-.607.959-1.426.959-2.456s-.322-1.851-.966-2.464c-.645-.612-1.502-.918-2.571-.918h-4.168v10.03h1.919v-3.28h2.249c1.079 0 1.938-.304 2.578-.911zm-4.827-.91v-3.106h2.063c.563 0 .993.134 1.289.401.296.267.444.654.444 1.16 0 .495-.148.876-.444 1.144-.296.267-.726.4-1.289.4h-2.063zm14.623 5.146c-.496 0-.931-.112-1.303-.335-.373-.224-.745-.608-1.117-1.152l-1.347-1.968h-1.69v3.411h-1.919V9.985h4.125c1.06 0 1.929.308 2.607.926.677.617 1.016 1.421 1.016 2.412 0 .72-.176 1.342-.53 1.867-.353.524-.854.913-1.503 1.166l.873 1.268c.153.224.315.384.487.481.172.098.411.146.716.146a.511.511 0 00.086-.007.518.518 0 01.086-.007v1.778c-.067.02-.15.032-.25.037a7.133 7.133 0 01-.337.007zm-5.457-5.234v-3.018h2.149c.553 0 .971.129 1.253.387.281.257.422.634.422 1.13 0 .495-.141.87-.422 1.122-.282.253-.7.38-1.253.38h-2.149zm15.869.175c0-1.03-.298-1.864-.895-2.5-.597-.637-1.387-.955-2.37-.955-.984 0-1.774.318-2.371.955-.596.636-.895 1.47-.895 2.5s.299 1.864.895 2.5c.597.637 1.387.955 2.371.955.983 0 1.773-.318 2.37-.955.597-.636.895-1.47.895-2.5z" fill="#fff"/></svg>