<svg width="100" height="17" fill="none" xmlns="http://www.w3.org/2000/svg"><path d="M61.556 16.134c.015.494.379.866.846.866.466 0 .83-.374.845-.866l.097-3.257c.008-.294.3-.493.566-.384.467.191.977.296 1.511.297 2.19.003 4.012-1.787 4.094-4.029.088-2.388-1.777-4.353-4.09-4.353-2.26 0-4.092 1.876-4.092 4.191 0 .695.223 7.535.223 7.535zm3.87-5.344c-1.182 0-2.14-.98-2.14-2.19s.958-2.192 2.14-2.192c1.18 0 2.139.981 2.139 2.191s-.958 2.191-2.14 2.191zM13.302 5.242c-.026-.533-.42-.834-.847-.834-.43 0-.812.301-.843.834l-.216 3.654c-.067 1.15-.734 1.741-1.583 1.741-.823 0-1.479-.54-1.568-1.507l-.268-2.834c-.048-.506-.414-.763-.772-.763h-.037c-.358 0-.724.257-.771.763L6.129 9.13c-.09.968-.745 1.507-1.568 1.507-.85 0-1.516-.59-1.584-1.741l-.215-3.654c-.032-.533-.414-.834-.843-.834-.427 0-.821.301-.848.834L.895 8.805c-.112 2.281 1.86 3.788 3.666 3.788.897 0 1.717-.318 2.355-.845a.425.425 0 01.542 0 3.682 3.682 0 002.355.845c1.806 0 3.778-1.507 3.665-3.788l-.176-3.563zM56.611 4.408a4.092 4.092 0 100 8.184 4.092 4.092 0 000-8.184zm0 6.232a2.14 2.14 0 110-4.28 2.14 2.14 0 010 4.28zM47.606 4.24c-2.365 0-4.282 1.901-4.282 4.247 0 .174.014.726.036 1.46-.016.44-.346.76-.77.76-.424 0-.714-.304-.765-.696l-.271-2.058-.003-.019-.002-.016c-.28-2.077-2.073-3.678-4.243-3.678-2.346 0-4.25 1.871-4.28 4.191l-.001-.001s-.02.636.062 1.415c.047.447-.438.863-.863.863-.494 0-.855-.382-.88-1.225-.01-.285-.266-8.656-.266-8.656V.813C31.066.418 30.696 0 30.195 0a.882.882 0 00-.882.827l-.265 8.656c-.024.81-.551 1.225-1.148 1.225-.602 0-1.117-.415-1.142-1.225L26.493.827C26.48.396 26.091 0 25.612 0c-.437 0-.869.338-.884.827 0 0-.27 8.83-.28 9.115-.013.442-.343.766-.769.766-.425 0-.715-.304-.766-.696l-.276-2.094c-.279-2.065-2.054-3.66-4.208-3.677-2.37-.019-4.317 1.897-4.317 4.247 0 2.345 1.917 4.246 4.282 4.246.996 0 1.912-.337 2.639-.902a.511.511 0 01.311-.106c.64 0 .72 1.008 2.335 1.008.65 0 1.328-.436 1.682-.702a.387.387 0 01.475.008 3.274 3.274 0 002.055.694c.894 0 1.484-.371 1.792-.637a.392.392 0 01.513 0c.307.266.888.637 1.738.637 1.418 0 1.997-1.007 2.419-1.007.133 0 .221.036.323.11.725.562 1.639.897 2.63.897.996 0 1.913-.337 2.64-.902a.511.511 0 01.31-.106c.641 0 .792 1.008 2.094 1.008.401 0 .687-.151 1.015-.338a.048.048 0 01.073.04c.06 1.868.121 3.686.121 3.686.016.5.396.878.884.878.489 0 .87-.38.885-.878l.1-3.3c.01-.3.318-.498.6-.387a4.298 4.298 0 001.575.299c2.292.002 4.197-1.811 4.283-4.083.09-2.42-1.86-4.411-4.28-4.411zm-29.213 6.467a2.23 2.23 0 01-2.238-2.22 2.23 2.23 0 012.238-2.22 2.23 2.23 0 012.239 2.22 2.23 2.23 0 01-2.239 2.22zm18.913 0a2.23 2.23 0 01-2.239-2.22 2.23 2.23 0 012.239-2.22 2.23 2.23 0 012.238 2.22 2.23 2.23 0 01-2.238 2.22zm10.3 0a2.23 2.23 0 01-2.239-2.22 2.23 2.23 0 012.239-2.22 2.23 2.23 0 012.238 2.22 2.23 2.23 0 01-2.238 2.22z" fill="#fff"/><path fill-rule="evenodd" clip-rule="evenodd" d="M74.555 8.5c0-3.303 2.632-5.981 5.879-5.981H93.23c3.247 0 5.88 2.678 5.88 5.981s-2.633 5.981-5.88 5.981H80.434c-3.247 0-5.88-2.678-5.88-5.981zm19.725 2.144c.563-.565.845-1.28.845-2.144 0-.865-.282-1.58-.845-2.144-.563-.564-1.278-.847-2.144-.847-.866 0-1.58.283-2.143.847-.564.565-.845 1.28-.845 2.144 0 .865.281 1.58.845 2.144.563.564 1.277.847 2.143.847.867 0 1.581-.283 2.144-.847zM82.53 8.967c.362-.345.544-.809.544-1.392 0-.584-.183-1.05-.549-1.397-.365-.346-.85-.52-1.457-.52h-2.363v5.684h1.088V9.483h1.275c.612 0 1.099-.172 1.462-.516zm-2.737-.517V6.69h1.17c.319 0 .562.076.73.228.168.151.252.37.252.657 0 .28-.084.497-.252.648-.168.152-.411.227-.73.227h-1.17zm8.291 2.917c-.281 0-.528-.064-.739-.19-.211-.127-.422-.345-.633-.653l-.764-1.115h-.958v1.933h-1.088V5.658h2.339c.6 0 1.093.175 1.478.525.384.35.576.805.576 1.367 0 .407-.1.76-.3 1.057-.2.298-.485.518-.853.661l.496.719a.862.862 0 00.276.273.832.832 0 00.503.074v1.008a.63.63 0 01-.142.02c-.057.003-.12.005-.19.005zM84.99 8.4V6.69h1.218c.314 0 .551.073.71.219.16.146.24.359.24.64 0 .28-.08.493-.24.636-.159.143-.396.215-.71.215H84.99zm8.998.099c0-.584-.17-1.056-.508-1.417-.338-.36-.786-.541-1.344-.541-.557 0-1.005.18-1.344.541-.338.36-.507.833-.507 1.417 0 .584.169 1.056.507 1.417.339.36.787.541 1.344.541.558 0 1.006-.18 1.344-.541.339-.36.508-.833.508-1.417z" fill="#fff"/></svg>