<svg xmlns="http://www.w3.org/2000/svg" width="938" height="851" viewBox="0 0 938 851"><defs><path id="a" d="M2 6.995v240.677a6 6 0 0 0 6 6h200a6 6 0 0 0 6-6V6.995a6 6 0 0 0-6-6H8a6 6 0 0 0-6 6z"/></defs><g fill="#ECEFF1" fill-rule="evenodd"><path d="M2 6.995v240.677a6 6 0 0 0 6 6h200a6 6 0 0 0 6-6V6.995a6 6 0 0 0-6-6H8a6 6 0 0 0-6 6z"/><path d="M2 348.846v240.677a6 6 0 0 0 6 6h200a6 6 0 0 0 6-6V348.846a6 6 0 0 0-6-6H8a6 6 0 0 0-6 6z" opacity=".5"/><path fill-rule="nonzero" d="M7 283.5h148.258a4.5 4.5 0 0 0 0-9H7a4.5 4.5 0 0 0 0 9zm239-118h85.501a4.5 4.5 0 0 0 0-9H246a4.5 4.5 0 0 0 0 9z"/><path fill-rule="nonzero" d="M246 392.5h130.501a4.5 4.5 0 0 0 0-9H246a4.5 4.5 0 0 0 0 9zM6 622.5h36.503a4.5 4.5 0 0 0 0-9H6a4.5 4.5 0 0 0 0 9zm720-181h46.5a4.5 4.5 0 0 0 0-9H726a4.5 4.5 0 0 0 0 9zm-239 162h130.501a4.5 4.5 0 0 0 0-9H487a4.5 4.5 0 0 0 0 9z" opacity=".5"/><path fill-rule="nonzero" d="M487 283.5h120.501a4.5 4.5 0 1 0 0-9H487a4.5 4.5 0 0 0 0 9zm145.397 0h19.29a4.5 4.5 0 1 0 0-9h-19.29a4.5 4.5 0 0 0 0 9zM7 309.5h52.693a4.5 4.5 0 0 0 0-9H7a4.5 4.5 0 0 0 0 9zm239-118h52.693a4.5 4.5 0 1 0 0-9H246a4.5 4.5 0 0 0 0 9z"/><path fill-rule="nonzero" d="M246 418.5h65.502a4.5 4.5 0 1 0 0-9H246a4.5 4.5 0 0 0 0 9zM6 648.5h65.502a4.5 4.5 0 0 0 0-9H6a4.5 4.5 0 0 0 0 9zm720-181h65.502a4.5 4.5 0 1 0 0-9H726a4.5 4.5 0 0 0 0 9zm-239 162h26.5a4.5 4.5 0 0 0 0-9H487a4.5 4.5 0 0 0 0 9zm-147.853-211H368.5a4.5 4.5 0 0 0 0-9h-29.353a4.5 4.5 0 0 0 0 9zm-240 230H128.5a4.5 4.5 0 0 0 0-9H99.147a4.5 4.5 0 0 0 0 9zm-37.649-26h123.003a4.5 4.5 0 1 0 0-9H61.498a4.5 4.5 0 0 0 0 9zm757.649-155H848.5a4.5 4.5 0 0 0 0-9h-29.353a4.5 4.5 0 0 0 0 9zm-19.84-27h109.625a4.5 4.5 0 0 0 0-9H799.307a4.5 4.5 0 0 0 0 9z" opacity=".5"/><path fill-rule="nonzero" d="M729.939 744.5h109.624a4.5 4.5 0 0 0 0-9H729.94a4.5 4.5 0 0 0 0 9zm-246.211 59h109.625a4.5 4.5 0 0 0 0-9H483.728a4.5 4.5 0 1 0 0 9zm-478.5 47h109.625a4.5 4.5 0 0 0 0-9H5.228a4.5 4.5 0 0 0 0 9zm239.5-199h109.625a4.5 4.5 0 0 0 0-9H244.728a4.5 4.5 0 1 0 0 9z" opacity=".25"/><path fill-rule="nonzero" d="M537.5 629.5h72a4.5 4.5 0 0 0 0-9h-72a4.5 4.5 0 0 0 0 9z" opacity=".5"/><path fill-rule="nonzero" d="M487 309.5h52.693a4.5 4.5 0 1 0 0-9H487a4.5 4.5 0 0 0 0 9zm239-128.459h52.693a4.5 4.5 0 1 0 0-9H726a4.5 4.5 0 1 0 0 9zm0 26.459h128.509a4.5 4.5 0 0 0 0-9H726a4.5 4.5 0 0 0 0 9zm73.942-26.459H818.5a4.5 4.5 0 1 0 0-9h-18.558a4.5 4.5 0 1 0 0 9zM84.147 309.5h17.36a4.5 4.5 0 0 0 0-9h-17.36a4.5 4.5 0 0 0 0 9zm237-118h17.36a4.5 4.5 0 0 0 0-9h-17.36a4.5 4.5 0 0 0 0 9zm241 118h17.36a4.5 4.5 0 0 0 0-9h-17.36a4.5 4.5 0 0 0 0 9z"/><path d="M241 6.995v126a6 6 0 0 0 6 6h200a6 6 0 0 0 6-6v-126a6 6 0 0 0-6-6H247a6 6 0 0 0-6 6z"/><path d="M241 230.5v126a6 6 0 0 0 6 6h200a6 6 0 0 0 6-6v-126a6 6 0 0 0-6-6H247a6 6 0 0 0-6 6z" opacity=".5"/><path d="M723 6.995v138.15a6 6 0 0 0 6 6h200a6 6 0 0 0 6-6V6.995a6 6 0 0 0-6-6H729a6 6 0 0 0-6 6z"/><path d="M723 246.32V406a6 6 0 0 0 6 6h200a6 6 0 0 0 6-6V246.32a6 6 0 0 0-6-6H729a6 6 0 0 0-6 6z" opacity=".5"/><path d="M483 6.995v240.677a6 6 0 0 0 6 6h200a6 6 0 0 0 6-6V6.995a6 6 0 0 0-6-6H489a6 6 0 0 0-6 6z"/><path d="M483 348.846v219.025a6 6 0 0 0 6 6h200a6 6 0 0 0 6-6V348.846a6 6 0 0 0-6-6H489a6 6 0 0 0-6 6z" opacity=".5"/><path d="M244 457v159.68a6 6 0 0 0 6 6h200a6 6 0 0 0 6-6V457a6 6 0 0 0-6-6H250a6 6 0 0 0-6 6zm238 211v100.383a6 6 0 0 0 6 6h200a6 6 0 0 0 6-6V668a6 6 0 0 0-6-6H488a6 6 0 0 0-6 6zm244-162v203.191a6 6 0 0 0 6 6h200a6 6 0 0 0 6-6V506a6 6 0 0 0-6-6H732a6 6 0 0 0-6 6zM2 687v126a6 6 0 0 0 6 6h200a6 6 0 0 0 6-6V687a6 6 0 0 0-6-6H8a6 6 0 0 0-6 6z" opacity=".25"/></g></svg>