<svg width="1182" height="591" viewBox="0 0 1182 591" xmlns="http://www.w3.org/2000/svg" xmlns:xlink="http://www.w3.org/1999/xlink"><defs><path d="M10 0h1160c5.523 0 10 4.477 10 10v68c0 5.522-4.477 10-10 10H10C4.477 88 0 83.521 0 78V10C0 4.477 4.477 0 10 0z" id="path-1"/><path d="M10 0h1160c5.523 0 10 4.477 10 10v68c0 5.522-4.477 10-10 10H10C4.477 88 0 83.521 0 78V10C0 4.477 4.477 0 10 0z" id="path-2"/><path d="M10 0h1160c5.523 0 10 4.477 10 10v68c0 5.522-4.477 10-10 10H10C4.477 88 0 83.521 0 78V10C0 4.477 4.477 0 10 0z" id="path-3"/><path d="M10 0h1160c5.523 0 10 4.477 10 10v68c0 5.522-4.477 10-10 10H10C4.477 88 0 83.521 0 78V10C0 4.477 4.477 0 10 0z" id="path-4"/><path d="M10 0h1160c5.523 0 10 4.477 10 10v68c0 5.522-4.477 10-10 10H10C4.477 88 0 83.521 0 78V10C0 4.477 4.477 0 10 0z" id="path-5"/><path d="M10 0h1160c5.523 0 10 4.477 10 10v68c0 5.522-4.477 10-10 10H10C4.477 88 0 83.521 0 78V10C0 4.477 4.477 0 10 0z" id="path-6"/><linearGradient x1="50%" y1="100%" x2="50%" y2="-46.811%" id="linearGradient-7"><stop stop-color="#F4F5F7" offset="0%"/><stop stop-color="#F4F5F7" stop-opacity="0" offset="100%"/></linearGradient></defs><g id="Final-Designs" fill="none" fill-rule="evenodd"><g id="Webapp---Catalog---Empty-State-v1" transform="translate(-131 -144)"><g id="Empty_state" transform="translate(131 145)"><g id="catalog_empty_product" transform="translate(1)"><g id="Product-1"><g id="Rectangle-4"><use fill="#FFF" xlink:href="#path-1"/><path stroke="#ECEFF1" d="M10-.5h1160c5.799 0 10.5 4.701 10.5 10.5v68c0 5.798-4.701 10.5-10.5 10.5H10C4.201 88.5-.5 83.797-.5 78V10C-.5 4.201 4.201-.5 10-.5z"/></g><rect id="Rectangle-16" fill="#ECEFF1" x="4" y="4" width="80" height="80" rx="6"/><rect id="Rectangle-19" fill="#ECEFF1" x="1111" y="24" width="40" height="40" rx="8"/><rect id="Rectangle-19" fill="#ECEFF1" x="1011" y="24" width="40" height="40" rx="8"/><rect id="Rectangle-19" fill="#ECEFF1" x="959" y="24" width="40" height="40" rx="8"/><path d="M790 24h149a8 8 0 0 1 8 8v24a8 8 0 0 1-8 8H790a8 8 0 0 1-8-8V32a8 8 0 0 1 8-8z" id="Rectangle-3" fill="#ECEFF1"/><rect id="Rectangle-19" fill="#ECEFF1" x="1061" y="24" width="40" height="40" rx="8"/><rect id="Rectangle-41" fill="#ECEFF1" x="104" y="36" width="74" height="16" rx="4"/><path d="M213 36h236a4 4 0 0 1 4 4v8a4 4 0 0 1-4 4H213a4 4 0 0 1-4-4v-8a4 4 0 0 1 4-4z" id="Rectangle-41" fill="#ECEFF1"/><circle id="Oval-9" fill="#ECEFF1" cx="589" cy="44" r="15"/><rect id="Rectangle-57" fill="#ECEFF1" x="613" y="36" width="30" height="16" rx="4"/><circle id="Oval-9" fill="#ECEFF1" cx="678" cy="44" r="15"/><rect id="Rectangle-57" fill="#ECEFF1" x="702" y="36" width="30" height="16" rx="4"/></g></g><g id="catalog_empty_product" transform="translate(1 100)"><g id="Product-1"><g id="Rectangle-4"><use fill="#FFF" xlink:href="#path-2"/><path stroke="#ECEFF1" d="M10-.5h1160c5.799 0 10.5 4.701 10.5 10.5v68c0 5.798-4.701 10.5-10.5 10.5H10C4.201 88.5-.5 83.797-.5 78V10C-.5 4.201 4.201-.5 10-.5z"/></g><rect id="Rectangle-16" fill="#ECEFF1" x="4" y="4" width="80" height="80" rx="6"/><rect id="Rectangle-19" fill="#ECEFF1" x="1111" y="24" width="40" height="40" rx="8"/><rect id="Rectangle-19" fill="#ECEFF1" x="1011" y="24" width="40" height="40" rx="8"/><rect id="Rectangle-19" fill="#ECEFF1" x="959" y="24" width="40" height="40" rx="8"/><path d="M790 24h149a8 8 0 0 1 8 8v24a8 8 0 0 1-8 8H790a8 8 0 0 1-8-8V32a8 8 0 0 1 8-8z" id="Rectangle-3" fill="#ECEFF1"/><rect id="Rectangle-19" fill="#ECEFF1" x="1061" y="24" width="40" height="40" rx="8"/><rect id="Rectangle-41" fill="#ECEFF1" x="104" y="36" width="74" height="16" rx="4"/><path d="M213 36h236a4 4 0 0 1 4 4v8a4 4 0 0 1-4 4H213a4 4 0 0 1-4-4v-8a4 4 0 0 1 4-4z" id="Rectangle-41" fill="#ECEFF1"/><circle id="Oval-9" fill="#ECEFF1" cx="589" cy="44" r="15"/><rect id="Rectangle-57" fill="#ECEFF1" x="613" y="36" width="30" height="16" rx="4"/><circle id="Oval-9" fill="#ECEFF1" cx="678" cy="44" r="15"/><rect id="Rectangle-57" fill="#ECEFF1" x="702" y="36" width="30" height="16" rx="4"/></g></g><g id="catalog_empty_product" transform="translate(1 200)"><g id="Product-1"><g id="Rectangle-4"><use fill="#FFF" xlink:href="#path-3"/><path stroke="#ECEFF1" d="M10-.5h1160c5.799 0 10.5 4.701 10.5 10.5v68c0 5.798-4.701 10.5-10.5 10.5H10C4.201 88.5-.5 83.797-.5 78V10C-.5 4.201 4.201-.5 10-.5z"/></g><rect id="Rectangle-16" fill="#ECEFF1" x="4" y="4" width="80" height="80" rx="6"/><rect id="Rectangle-19" fill="#ECEFF1" x="1111" y="24" width="40" height="40" rx="8"/><rect id="Rectangle-19" fill="#ECEFF1" x="1011" y="24" width="40" height="40" rx="8"/><rect id="Rectangle-19" fill="#ECEFF1" x="959" y="24" width="40" height="40" rx="8"/><path d="M790 24h149a8 8 0 0 1 8 8v24a8 8 0 0 1-8 8H790a8 8 0 0 1-8-8V32a8 8 0 0 1 8-8z" id="Rectangle-3" fill="#ECEFF1"/><rect id="Rectangle-19" fill="#ECEFF1" x="1061" y="24" width="40" height="40" rx="8"/><rect id="Rectangle-41" fill="#ECEFF1" x="104" y="36" width="74" height="16" rx="4"/><path d="M213 36h236a4 4 0 0 1 4 4v8a4 4 0 0 1-4 4H213a4 4 0 0 1-4-4v-8a4 4 0 0 1 4-4z" id="Rectangle-41" fill="#ECEFF1"/><circle id="Oval-9" fill="#ECEFF1" cx="589" cy="44" r="15"/><rect id="Rectangle-57" fill="#ECEFF1" x="613" y="36" width="30" height="16" rx="4"/><circle id="Oval-9" fill="#ECEFF1" cx="678" cy="44" r="15"/><rect id="Rectangle-57" fill="#ECEFF1" x="702" y="36" width="30" height="16" rx="4"/></g></g><g id="catalog_empty_product" transform="translate(1 300)"><g id="Product-1"><g id="Rectangle-4"><use fill="#FFF" xlink:href="#path-4"/><path stroke="#ECEFF1" d="M10-.5h1160c5.799 0 10.5 4.701 10.5 10.5v68c0 5.798-4.701 10.5-10.5 10.5H10C4.201 88.5-.5 83.797-.5 78V10C-.5 4.201 4.201-.5 10-.5z"/></g><rect id="Rectangle-16" fill="#ECEFF1" x="4" y="4" width="80" height="80" rx="6"/><rect id="Rectangle-19" fill="#ECEFF1" x="1111" y="24" width="40" height="40" rx="8"/><rect id="Rectangle-19" fill="#ECEFF1" x="1011" y="24" width="40" height="40" rx="8"/><rect id="Rectangle-19" fill="#ECEFF1" x="959" y="24" width="40" height="40" rx="8"/><path d="M790 24h149a8 8 0 0 1 8 8v24a8 8 0 0 1-8 8H790a8 8 0 0 1-8-8V32a8 8 0 0 1 8-8z" id="Rectangle-3" fill="#ECEFF1"/><rect id="Rectangle-19" fill="#ECEFF1" x="1061" y="24" width="40" height="40" rx="8"/><rect id="Rectangle-41" fill="#ECEFF1" x="104" y="36" width="74" height="16" rx="4"/><path d="M213 36h236a4 4 0 0 1 4 4v8a4 4 0 0 1-4 4H213a4 4 0 0 1-4-4v-8a4 4 0 0 1 4-4z" id="Rectangle-41" fill="#ECEFF1"/><circle id="Oval-9" fill="#ECEFF1" cx="589" cy="44" r="15"/><rect id="Rectangle-57" fill="#ECEFF1" x="613" y="36" width="30" height="16" rx="4"/><circle id="Oval-9" fill="#ECEFF1" cx="678" cy="44" r="15"/><rect id="Rectangle-57" fill="#ECEFF1" x="702" y="36" width="30" height="16" rx="4"/></g></g><g id="catalog_empty_product" transform="translate(1 400)"><g id="Product-1"><g id="Rectangle-4"><use fill="#FFF" xlink:href="#path-5"/><path stroke="#ECEFF1" d="M10-.5h1160c5.799 0 10.5 4.701 10.5 10.5v68c0 5.798-4.701 10.5-10.5 10.5H10C4.201 88.5-.5 83.797-.5 78V10C-.5 4.201 4.201-.5 10-.5z"/></g><rect id="Rectangle-16" fill="#ECEFF1" x="4" y="4" width="80" height="80" rx="6"/><rect id="Rectangle-19" fill="#ECEFF1" x="1111" y="24" width="40" height="40" rx="8"/><rect id="Rectangle-19" fill="#ECEFF1" x="1011" y="24" width="40" height="40" rx="8"/><rect id="Rectangle-19" fill="#ECEFF1" x="959" y="24" width="40" height="40" rx="8"/><path d="M790 24h149a8 8 0 0 1 8 8v24a8 8 0 0 1-8 8H790a8 8 0 0 1-8-8V32a8 8 0 0 1 8-8z" id="Rectangle-3" fill="#ECEFF1"/><rect id="Rectangle-19" fill="#ECEFF1" x="1061" y="24" width="40" height="40" rx="8"/><rect id="Rectangle-41" fill="#ECEFF1" x="104" y="36" width="74" height="16" rx="4"/><path d="M213 36h236a4 4 0 0 1 4 4v8a4 4 0 0 1-4 4H213a4 4 0 0 1-4-4v-8a4 4 0 0 1 4-4z" id="Rectangle-41" fill="#ECEFF1"/><circle id="Oval-9" fill="#ECEFF1" cx="589" cy="44" r="15"/><rect id="Rectangle-57" fill="#ECEFF1" x="613" y="36" width="30" height="16" rx="4"/><circle id="Oval-9" fill="#ECEFF1" cx="678" cy="44" r="15"/><rect id="Rectangle-57" fill="#ECEFF1" x="702" y="36" width="30" height="16" rx="4"/></g></g><g id="catalog_empty_product" transform="translate(1 500)"><g id="Product-1"><g id="Rectangle-4"><use fill="#FFF" xlink:href="#path-6"/><path stroke="#ECEFF1" d="M10-.5h1160c5.799 0 10.5 4.701 10.5 10.5v68c0 5.798-4.701 10.5-10.5 10.5H10C4.201 88.5-.5 83.797-.5 78V10C-.5 4.201 4.201-.5 10-.5z"/></g><rect id="Rectangle-16" fill="#ECEFF1" x="4" y="4" width="80" height="80" rx="6"/><rect id="Rectangle-19" fill="#ECEFF1" x="1111" y="24" width="40" height="40" rx="8"/><rect id="Rectangle-19" fill="#ECEFF1" x="1011" y="24" width="40" height="40" rx="8"/><rect id="Rectangle-19" fill="#ECEFF1" x="959" y="24" width="40" height="40" rx="8"/><path d="M790 24h149a8 8 0 0 1 8 8v24a8 8 0 0 1-8 8H790a8 8 0 0 1-8-8V32a8 8 0 0 1 8-8z" id="Rectangle-3" fill="#ECEFF1"/><rect id="Rectangle-19" fill="#ECEFF1" x="1061" y="24" width="40" height="40" rx="8"/><rect id="Rectangle-41" fill="#ECEFF1" x="104" y="36" width="74" height="16" rx="4"/><path d="M213 36h236a4 4 0 0 1 4 4v8a4 4 0 0 1-4 4H213a4 4 0 0 1-4-4v-8a4 4 0 0 1 4-4z" id="Rectangle-41" fill="#ECEFF1"/><circle id="Oval-9" fill="#ECEFF1" cx="589" cy="44" r="15"/><rect id="Rectangle-57" fill="#ECEFF1" x="613" y="36" width="30" height="16" rx="4"/><circle id="Oval-9" fill="#ECEFF1" cx="678" cy="44" r="15"/><rect id="Rectangle-57" fill="#ECEFF1" x="702" y="36" width="30" height="16" rx="4"/></g></g><path id="Overlay" fill="url(#linearGradient-7)" d="M0 1h1180v589H0z"/></g></g></g></svg>