<svg xmlns="http://www.w3.org/2000/svg" width="26" height="20" viewBox="0 0 26 20">
    <path fill="#13C1AC" fill-rule="evenodd" d="M26 6.968a.81.81 0 0 1-.813.809v4.042a.81.81 0 0 1 .813.809.81.81 0 0 1-.813.808v.41c0 1.646-1.254 3.462-3.079 3.613a3.25 3.25 0 0 1-6.264-1.193c0-.14.024-.27.041-.404h-5.77c.017.133.041.265.041.404a3.246 3.246 0 0 1-3.25 3.234 3.253 3.253 0 0 1-3.008-2.021H3.32A3.316 3.316 0 0 1 0 14.174v-2.779A3.287 3.287 0 0 1 2.6 8.17l4.184-.925c.482-.106.912-.452 1.148-.923l2.092-4.05A3.268 3.268 0 0 1 12.94.5h7.453a3.3 3.3 0 0 1 2.95 1.837l1.405 2.877c.166.273.286.6.359.946h.08a.81.81 0 0 1 .812.808zm-2.438 6.879V6.85c0-.306-.083-.606-.242-.87l-1.438-2.937a1.667 1.667 0 0 0-1.488-.927H12.94a1.65 1.65 0 0 0-1.472.893L9.382 7.054a3.388 3.388 0 0 1-.507.723h1.688a.81.81 0 0 1 .812.808.81.81 0 0 1-.813.809H4.875c-.06 0-.11-.022-.167-.034l-1.755.389a1.679 1.679 0 0 0-1.328 1.646v2.78c0 .93.761 1.687 1.696 1.687h.377a3.237 3.237 0 0 1 3.208-2.83c1.047 0 1.969.503 2.564 1.268a.809.809 0 0 1 .28-.055h6.5c.1 0 .193.023.28.055a3.241 3.241 0 0 1 2.564-1.268 3.24 3.24 0 0 1 3.2 2.744c.73-.266 1.268-1.161 1.268-1.93zm-7.312-8.9a.81.81 0 0 1 .813.808v4.043a.81.81 0 0 1-.813.808.81.81 0 0 1-.813-.808V5.755a.81.81 0 0 1 .813-.808zm2.844 12.936c.896 0 1.625-.725 1.625-1.617s-.73-1.617-1.625-1.617c-.896 0-1.625.725-1.625 1.617s.729 1.617 1.625 1.617zm-12.188 0c.896 0 1.625-.725 1.625-1.617s-.729-1.617-1.625-1.617-1.625.725-1.625 1.617.73 1.617 1.625 1.617z"/>
</svg>
