<svg xmlns="http://www.w3.org/2000/svg" width="26" height="23" viewBox="0 0 26 23">
    <path fill="#607D8B" fill-rule="evenodd" d="M5.2 17.415a9.823 9.823 0 0 0 1.948 1.97c.36.273.431.788.162 1.15a.81.81 0 0 1-1.138.164A11.484 11.484 0 0 1 3.9 18.402a.827.827 0 0 1 .163-1.15.808.808 0 0 1 1.137.163zm20.562-6.496a.827.827 0 0 1 0 1.162.806.806 0 0 1-1.15 0l-.253-.257C24.187 18.014 19.164 23 13 23a.817.817 0 0 1-.812-.821c0-.454.363-.822.812-.822 5.257 0 9.543-4.23 9.732-9.499l-.22.223a.805.805 0 0 1-1.15 0 .827.827 0 0 1 0-1.162l1.626-1.643a.805.805 0 0 1 1.149 0l1.625 1.643zM20.8 5.585a9.823 9.823 0 0 0-1.948-1.97.828.828 0 0 1-.162-1.15.807.807 0 0 1 1.138-.164c.86.654 1.626 1.427 2.272 2.297a.827.827 0 0 1-.163 1.15.807.807 0 0 1-1.137-.163zM4.637 10.919a.827.827 0 0 1 0 1.162l-1.625 1.643a.806.806 0 0 1-1.149 0L.238 12.08a.827.827 0 0 1 0-1.162.805.805 0 0 1 1.15 0l.253.257C1.813 4.986 6.836 0 13 0c.45 0 .812.368.812.821a.817.817 0 0 1-.812.822c-5.257 0-9.543 4.23-9.732 9.499l.22-.223a.805.805 0 0 1 1.15 0z"/>
</svg>