<svg xmlns="http://www.w3.org/2000/svg" width="29" height="30" viewBox="0 0 29 30">
    <path fill="#000" fill-rule="evenodd" d="M27 26.179c0 1.658-1.522 1.813-2 1.821-.478-.008-2-.163-2-1.821V10h4v16.179zM5 28c-2.823 0-2.994-2.503-3-3V2h19v24.179c0 .721.158 1.324.42 1.821H5zM28 8a1 1 0 0 1 1 1v17.179c0 2.79-2.368 3.81-3.976 3.819l-.008.002H5c-3.955 0-5-3.27-5-5V1a1 1 0 0 1 1-1h21a1 1 0 0 1 1 1v7h5zM6 17V6h11v11H6zM18 4H5a1 1 0 0 0-1 1v13a1 1 0 0 0 1 1h13a1 1 0 0 0 1-1V5a1 1 0 0 0-1-1zm0 17H5a1 1 0 1 0 0 2h13a1 1 0 1 0 0-2zm-4 3H5a1 1 0 1 0 0 2h9a1 1 0 1 0 0-2z"/>
</svg>
