<svg width="28" height="29" viewBox="0 0 28 29" xmlns="http://www.w3.org/2000/svg"><g id="Report" fill="none" fill-rule="evenodd"><g id="MVP-1.3---Report--Listing" transform="translate(-724 -464)" fill="#333"><g id="Overlay-Report-Listing" transform="translate(97 186)"><g id="Group" transform="translate(461 262)"><path d="M191.908 23.02c.888-.727 1.411-1.835 1.411-3.073A3.952 3.952 0 0 0 189.372 16c-1.68 0-3.133 1.067-3.697 2.6a10.984 10.984 0 0 0-2.281-.218h-6.57c-.832 0-1.587.071-2.285.217a3.947 3.947 0 0 0-3.693-2.574 3.945 3.945 0 0 0-3.947 3.934c0 1.176.485 2.25 1.308 2.978-1.033 1.602-1.574 3.394-1.574 5.231v8.61c0 3.482 2.8 6.333 6.3 6.483.708.443 2.48 1.038 6.884 1.038 4.728 0 6.715-.706 7.384-1.035 3.476-.116 6.166-2.923 6.166-6.486v-8.61c0-1.807-.502-3.57-1.459-5.147zm-.247 13.758c0 2.683-2.058 4.783-4.684 4.783a.85.85 0 0 0-.272.042.848.848 0 0 0-.24-.039c-2.915 0-5.321-2.367-5.646-5.403a2.1 2.1 0 0 0 1.2-1.038l.903-1.751a2.29 2.29 0 0 0-2.018-3.329h-1.911a2.28 2.28 0 0 0-1.987 3.373l.954 1.733c.178.33.433.595.736.788-.225 3.1-2.612 5.553-5.54 5.62-2.618-.038-4.817-2.21-4.817-4.779v-8.61c0-1.744.601-3.448 1.739-4.926a.854.854 0 0 0-.296-1.284c-.737-.367-1.177-1.114-1.177-1.999a2.237 2.237 0 0 1 2.24-2.228c1.136 0 2.09.86 2.224 2.002l-.022.102-.018.098-.034.139-.033.135-.004.017-.002.008v.002c0 .008.007-.065.003-.034l-.001.003-.01.02-.02.04-.064.143c-.01.034-.048.102-.077.156l-.075.14-.065.122a.864.864 0 1 0 1.614.553l.023-.136.027-.157c.01-.06.021-.12.032-.235l.026-.33.001-.087-.004-.027c.72-.21 1.523-.317 2.458-.317h6.57c.992 0 1.836.119 2.578.357l.005.075.03.33c.01.114.022.173.032.234l.027.157.024.136a.865.865 0 1 0 1.615-.553s-.025-.044-.066-.122l-.075-.14c-.029-.054-.066-.122-.077-.156l-.064-.143-.02-.04-.01-.02V20.2h-.001l.003.034v-.002l-.002-.008-.004-.017-.033-.135-.034-.14-.018-.097-.023-.103-.01-.12a1.39 1.39 0 0 1-.007-.246c-.001-.052.005-.101.01-.151.32-.878 1.158-1.509 2.098-1.509a2.243 2.243 0 0 1 2.24 2.241c0 .91-.478 1.692-1.25 2.041a.852.852 0 0 0-.338 1.28c1.07 1.468 1.637 3.162 1.637 4.9v8.61zm-18.876-10.157a1.731 1.731 0 1 0 0 3.463 1.731 1.731 0 0 0 0-3.463zm14.577-.284a1.731 1.731 0 1 0 0 3.462 1.731 1.731 0 0 0 0-3.462zm-7.889 8.012l-.971-1.747a.578.578 0 0 1 .49-.852h1.912c.188 0 .372.108.48.282a.588.588 0 0 1 .022.563l-.902 1.77c-.098.195-.31.244-.457.254-.04-.006-.08-.013-.122-.013l-.015.002c-.125-.023-.344-.087-.437-.26zm.344 8.243c-1.463 0-2.586-.07-3.443-.168 1.482-.797 2.676-2.106 3.374-3.705.704 1.613 1.913 2.93 3.412 3.725-.89.088-1.989.148-3.343.148z" id="report_animals"/></g></g></g></g></svg>