<svg xmlns="http://www.w3.org/2000/svg" width="48" height="48" viewBox="0 0 48 48">
  <path fill="#90A4AE" fill-rule="evenodd" d="M31,38 L38,38 L38,22 L31,22 L31,38 Z M19,38 L19,35.5 C19,35.225 19.224,35 19.5,35 C19.776,35 20,35.225 20,35.5 L20,38 L19,38 Z M10,11 L29,11 L29,21 L29,38 L22,38 L22,35.5 C22,34.121 20.878,33 19.5,33 C18.121,33 17,34.121 17,35.5 L17,38 L10,38 L10,11 Z M39,20 C39.552,20 40,20.447 40,21 L40,39 C40,39.553 39.552,40 39,40 L30,40 L21,40 L18,40 L9,40 C8.448,40 8,39.553 8,39 L8,10 C8,9.447 8.448,9 9,9 L30,9 C30.552,9 31,9.447 31,10 L31,20 L34,20 L34,18 C34,17.447 34.448,17 35,17 C35.552,17 36,17.447 36,18 L36,20 L39,20 Z M13.7098,13.29 C13.6598,13.25 13.6098,13.2 13.5598,13.17 C13.4998,13.13 13.4398,13.1 13.3798,13.08 C13.3198,13.05 13.2598,13.03 13.1998,13.019 C13.0698,12.99 12.9298,12.99 12.7998,13.019 C12.7398,13.03 12.6798,13.05 12.6198,13.08 C12.5598,13.1 12.4998,13.13 12.4398,13.17 C12.3898,13.2 12.3398,13.25 12.2898,13.29 C12.1998,13.39 12.1298,13.5 12.0798,13.62 C12.0298,13.74 11.9998,13.87 11.9998,14 C11.9998,14.13 12.0298,14.26 12.0798,14.38 C12.1298,14.5 12.1998,14.609 12.2898,14.7 C12.3898,14.8 12.4998,14.87 12.6198,14.92 C12.7398,14.97 12.8698,15 12.9998,15 C13.2698,15 13.5198,14.899 13.7098,14.7 C13.7998,14.609 13.8698,14.5 13.9198,14.38 C13.9698,14.26 13.9998,14.13 13.9998,14 C13.9998,13.87 13.9698,13.74 13.9198,13.62 C13.8698,13.49 13.7998,13.39 13.7098,13.29 Z M16.9999,15 L17.9999,15 C18.5519,15 18.9999,14.553 18.9999,14 C18.9999,13.447 18.5519,13 17.9999,13 L16.9999,13 C16.4479,13 15.9999,13.447 15.9999,14 C15.9999,14.553 16.4479,15 16.9999,15 Z M20.9999,15 L21.9999,15 C22.5519,15 22.9999,14.553 22.9999,14 C22.9999,13.447 22.5519,13 21.9999,13 L20.9999,13 C20.4479,13 19.9999,13.447 19.9999,14 C19.9999,14.553 20.4479,15 20.9999,15 Z M12.2899,17.29 C12.1099,17.479 11.9999,17.74 11.9999,18 C11.9999,18.13 12.0299,18.26 12.0799,18.38 C12.1299,18.5 12.1999,18.609 12.2899,18.71 C12.3899,18.8 12.4999,18.87 12.6199,18.92 C12.7399,18.97 12.8699,19 12.9999,19 C13.1299,19 13.2599,18.97 13.3799,18.92 C13.4999,18.87 13.6099,18.8 13.7099,18.71 C13.8999,18.519 13.9999,18.269 13.9999,18 C13.9999,17.74 13.8899,17.479 13.7099,17.29 C13.3399,16.92 12.6599,16.92 12.2899,17.29 Z M16.9999,19 L17.9999,19 C18.5519,19 18.9999,18.553 18.9999,18 C18.9999,17.447 18.5519,17 17.9999,17 L16.9999,17 C16.4479,17 15.9999,17.447 15.9999,18 C15.9999,18.553 16.4479,19 16.9999,19 Z M20.9999,19 L21.9999,19 C22.5519,19 22.9999,18.553 22.9999,18 C22.9999,17.447 22.5519,17 21.9999,17 L20.9999,17 C20.4479,17 19.9999,17.447 19.9999,18 C19.9999,18.553 20.4479,19 20.9999,19 Z M13.7098,21.29 C13.6098,21.2 13.5098,21.13 13.3798,21.08 C13.1398,20.979 12.8598,20.979 12.6198,21.08 C12.4898,21.13 12.3898,21.2 12.2898,21.29 C12.1998,21.39 12.1298,21.5 12.0798,21.62 C12.0298,21.74 11.9998,21.87 11.9998,22 C11.9998,22.269 12.0998,22.519 12.2898,22.71 C12.4798,22.899 12.7298,23 12.9998,23 C13.1298,23 13.2598,22.979 13.3798,22.92 C13.4998,22.87 13.6098,22.8 13.7098,22.71 C13.8998,22.519 13.9998,22.269 13.9998,22 C13.9998,21.87 13.9698,21.74 13.9198,21.62 C13.8698,21.5 13.7998,21.39 13.7098,21.29 Z M16.9999,23 L17.9999,23 C18.5519,23 18.9999,22.553 18.9999,22 C18.9999,21.447 18.5519,21 17.9999,21 L16.9999,21 C16.4479,21 15.9999,21.447 15.9999,22 C15.9999,22.553 16.4479,23 16.9999,23 Z M20.9999,23 L21.9999,23 C22.5519,23 22.9999,22.553 22.9999,22 C22.9999,21.447 22.5519,21 21.9999,21 L20.9999,21 C20.4479,21 19.9999,21.447 19.9999,22 C19.9999,22.553 20.4479,23 20.9999,23 Z M13.7098,25.29 C13.6598,25.25 13.6098,25.2 13.5598,25.17 C13.4998,25.13 13.4398,25.1 13.3798,25.08 C13.3198,25.05 13.2598,25.03 13.1998,25.019 C12.8698,24.95 12.5298,25.06 12.2898,25.29 C12.1998,25.39 12.1298,25.49 12.0798,25.62 C12.0298,25.74 11.9998,25.87 11.9998,26 C11.9998,26.13 12.0298,26.26 12.0798,26.38 C12.1298,26.5 12.1998,26.609 12.2898,26.71 C12.3898,26.8 12.4998,26.87 12.6198,26.92 C12.7398,26.97 12.8698,27 12.9998,27 C13.1298,27 13.2598,26.97 13.3798,26.92 C13.4998,26.87 13.6098,26.8 13.7098,26.71 C13.8998,26.519 13.9998,26.269 13.9998,26 C13.9998,25.87 13.9698,25.74 13.9198,25.62 C13.8698,25.5 13.7998,25.39 13.7098,25.29 Z M16.9999,27 L17.9999,27 C18.5519,27 18.9999,26.553 18.9999,26 C18.9999,25.447 18.5519,25 17.9999,25 L16.9999,25 C16.4479,25 15.9999,25.447 15.9999,26 C15.9999,26.553 16.4479,27 16.9999,27 Z M20.9999,27 L21.9999,27 C22.5519,27 22.9999,26.553 22.9999,26 C22.9999,25.447 22.5519,25 21.9999,25 L20.9999,25 C20.4479,25 19.9999,25.447 19.9999,26 C19.9999,26.553 20.4479,27 20.9999,27 Z M25.2899,14.7002 C25.3899,14.8002 25.4999,14.8702 25.6199,14.9202 C25.7399,14.9702 25.8699,15.0002 25.9999,15.0002 C26.2699,15.0002 26.5199,14.8992 26.7099,14.7002 C26.7999,14.6092 26.8699,14.5002 26.9199,14.3802 C26.9699,14.2602 26.9999,14.1302 26.9999,14.0002 C26.9999,13.8702 26.9699,13.7402 26.9199,13.6202 C26.8699,13.4902 26.7999,13.3892 26.7099,13.2902 C26.6599,13.2502 26.6099,13.2002 26.5599,13.1702 C26.4999,13.1302 26.4399,13.0992 26.3799,13.0802 C26.3199,13.0502 26.2599,13.0302 26.1999,13.0192 C26.0699,12.9902 25.9299,12.9902 25.7999,13.0192 C25.7399,13.0302 25.6799,13.0502 25.6199,13.0802 C25.5599,13.0992 25.4999,13.1302 25.4399,13.1702 C25.3899,13.2002 25.3399,13.2502 25.2899,13.2902 C25.1999,13.3892 25.1299,13.5002 25.0799,13.6202 C25.0299,13.7402 24.9999,13.8702 24.9999,14.0002 C24.9999,14.1302 25.0299,14.2602 25.0799,14.3802 C25.1299,14.5002 25.1999,14.6092 25.2899,14.7002 Z M25.6195,18.9199 C25.7395,18.9699 25.8695,18.9999 25.9995,18.9999 C26.2695,18.9999 26.5195,18.8989 26.7095,18.7099 C26.7995,18.6089 26.8695,18.4999 26.9195,18.3799 C26.9795,18.2599 26.9995,18.1299 26.9995,17.9999 C26.9995,17.7399 26.8895,17.4799 26.7095,17.2899 C26.6095,17.1999 26.5095,17.1299 26.3795,17.0799 C26.1395,16.9699 25.8595,16.9799 25.6195,17.0799 C25.4895,17.1299 25.3895,17.1999 25.2895,17.2899 C25.1095,17.4799 24.9995,17.7299 24.9995,17.9999 C24.9995,18.2699 25.0995,18.5199 25.2895,18.7099 C25.3895,18.7999 25.4995,18.8699 25.6195,18.9199 Z M25.6195,22.9199 C25.7395,22.9799 25.8695,22.9999 25.9995,22.9999 C26.1295,22.9999 26.2595,22.9799 26.3795,22.9199 C26.4995,22.8699 26.6095,22.7999 26.7095,22.7099 C26.8995,22.5199 26.9995,22.2699 26.9995,21.9999 C26.9995,21.8699 26.9695,21.7399 26.9195,21.6199 C26.8695,21.4999 26.7995,21.3899 26.7095,21.2899 C26.6095,21.1999 26.5095,21.1299 26.3795,21.0799 C26.1395,20.9799 25.8595,20.9799 25.6195,21.0799 C25.4895,21.1299 25.3895,21.1999 25.2895,21.2899 C25.1995,21.3899 25.1295,21.4999 25.0795,21.6199 C25.0295,21.7399 24.9995,21.8699 24.9995,21.9999 C24.9995,22.2699 25.0995,22.5199 25.2895,22.7099 C25.3895,22.7999 25.4995,22.8699 25.6195,22.9199 Z M25.6195,26.9199 C25.7395,26.9699 25.8695,26.9999 25.9995,26.9999 C26.2695,26.9999 26.5195,26.8989 26.7095,26.7099 C26.8995,26.5199 26.9995,26.2699 26.9995,25.9999 C26.9995,25.8699 26.9795,25.7399 26.9195,25.6199 C26.8695,25.4999 26.7995,25.3899 26.7095,25.2899 C26.6095,25.1999 26.4995,25.1299 26.3795,25.0799 C26.1995,24.9999 25.9995,24.9799 25.7995,25.0199 C25.7395,25.0299 25.6795,25.0499 25.6195,25.0799 C25.5595,25.0999 25.4995,25.1299 25.4395,25.1699 C25.3895,25.1999 25.3395,25.2499 25.2895,25.2899 C25.1995,25.3899 25.1295,25.4999 25.0795,25.6199 C25.0295,25.7399 24.9995,25.8699 24.9995,25.9999 C24.9995,26.2699 25.0995,26.5199 25.2895,26.7099 C25.3895,26.7999 25.4995,26.8699 25.6195,26.9199 Z M12.6195,29.0801 C12.4895,29.1301 12.3895,29.2001 12.2895,29.2901 C12.1095,29.4791 11.9995,29.7401 11.9995,30.0001 C11.9995,30.1301 12.0295,30.2601 12.0795,30.3801 C12.1295,30.5001 12.1995,30.6091 12.2895,30.7101 C12.3895,30.8001 12.4995,30.8701 12.6195,30.9201 C12.7395,30.9791 12.8695,31.0001 12.9995,31.0001 C13.1295,31.0001 13.2595,30.9791 13.3795,30.9201 C13.4995,30.8701 13.6095,30.8001 13.7095,30.7101 C13.8995,30.5191 13.9995,30.2691 13.9995,30.0001 C13.9995,29.7401 13.8895,29.4791 13.7095,29.2901 C13.4295,29.0101 12.9895,28.9201 12.6195,29.0801 Z M16.9999,31 L17.9999,31 C18.5519,31 18.9999,30.553 18.9999,30 C18.9999,29.447 18.5519,29 17.9999,29 L16.9999,29 C16.4479,29 15.9999,29.447 15.9999,30 C15.9999,30.553 16.4479,31 16.9999,31 Z M20.9999,31 L21.9999,31 C22.5519,31 22.9999,30.553 22.9999,30 C22.9999,29.447 22.5519,29 21.9999,29 L20.9999,29 C20.4479,29 19.9999,29.447 19.9999,30 C19.9999,30.553 20.4479,31 20.9999,31 Z M25.2899,30.71 C25.3899,30.8 25.4999,30.87 25.6199,30.92 C25.7399,30.98 25.8699,31 25.9999,31 C26.1299,31 26.2599,30.98 26.3799,30.92 C26.4999,30.87 26.6099,30.8 26.7099,30.71 C26.8999,30.52 26.9999,30.27 26.9999,30 C26.9999,29.74 26.8899,29.48 26.7099,29.29 C26.3399,28.92 25.6599,28.92 25.2899,29.29 C25.1099,29.48 24.9999,29.74 24.9999,30 C24.9999,30.13 25.0299,30.26 25.0799,30.38 C25.1299,30.5 25.1999,30.609 25.2899,30.71 Z M32.6195,24.9199 C32.7395,24.9699 32.8695,24.9999 32.9995,24.9999 C33.1295,24.9999 33.2595,24.9699 33.3795,24.9199 C33.4995,24.8699 33.6095,24.7999 33.7095,24.7099 C33.8995,24.5199 33.9995,24.2699 33.9995,23.9999 C33.9995,23.7399 33.8895,23.4799 33.7095,23.2899 C33.6095,23.1999 33.4995,23.1299 33.3795,23.0799 C33.1995,22.9999 32.9995,22.9799 32.7995,23.0199 C32.7395,23.0299 32.6795,23.0499 32.6195,23.0799 C32.5595,23.0999 32.4995,23.1299 32.4395,23.1699 C32.3895,23.1999 32.3395,23.2499 32.2895,23.2899 C32.1095,23.4799 31.9995,23.7399 31.9995,23.9999 C31.9995,24.2699 32.0995,24.5199 32.2895,24.7099 C32.3895,24.7999 32.4995,24.8699 32.6195,24.9199 Z M32.2899,28.71 C32.3899,28.8 32.4999,28.87 32.6199,28.92 C32.7399,28.97 32.8699,29 32.9999,29 C33.1299,29 33.2599,28.97 33.3799,28.92 C33.4999,28.87 33.6099,28.8 33.7099,28.71 C33.7999,28.609 33.8699,28.5 33.9199,28.38 C33.9699,28.26 33.9999,28.13 33.9999,28 C33.9999,27.87 33.9699,27.74 33.9199,27.62 C33.8699,27.5 33.7999,27.39 33.7099,27.29 C33.6599,27.25 33.6099,27.2 33.5599,27.17 C33.4999,27.13 33.4399,27.1 33.3799,27.08 C33.3199,27.05 33.2599,27.03 33.1899,27.02 C32.8699,26.95 32.5299,27.06 32.2899,27.29 C32.1999,27.39 32.1299,27.49 32.0799,27.62 C32.0299,27.74 31.9999,27.87 31.9999,28 C31.9999,28.13 32.0299,28.26 32.0799,28.38 C32.1299,28.5 32.1999,28.609 32.2899,28.71 Z M32.2899,32.71 C32.3899,32.8 32.4999,32.87 32.6199,32.92 C32.7399,32.97 32.8699,33 32.9999,33 C33.1299,33 33.2599,32.97 33.3799,32.92 C33.4999,32.87 33.6099,32.8 33.7099,32.71 C33.7999,32.609 33.8699,32.5 33.9199,32.38 C33.9799,32.26 33.9999,32.13 33.9999,32 C33.9999,31.74 33.8899,31.48 33.7099,31.29 C33.4299,31.02 32.9899,30.92 32.6199,31.08 C32.4899,31.13 32.3899,31.2 32.2899,31.29 C32.1099,31.48 31.9999,31.74 31.9999,32 C31.9999,32.13 32.0299,32.26 32.0799,32.38 C32.1299,32.5 32.1999,32.609 32.2899,32.71 Z M35.2899,24.71 C35.4799,24.899 35.7299,25 35.9999,25 C36.1299,25 36.2599,24.97 36.3799,24.92 C36.4999,24.87 36.6099,24.8 36.7099,24.71 C36.7999,24.609 36.8699,24.5 36.9199,24.38 C36.9699,24.26 36.9999,24.13 36.9999,24 C36.9999,23.87 36.9699,23.74 36.9199,23.62 C36.8699,23.49 36.7999,23.39 36.7099,23.29 C36.4699,23.06 36.1299,22.95 35.8099,23.02 C35.7399,23.03 35.6799,23.05 35.6199,23.08 C35.5599,23.1 35.4999,23.13 35.4399,23.17 C35.3899,23.2 35.3399,23.25 35.2899,23.29 C35.1099,23.48 34.9999,23.74 34.9999,24 C34.9999,24.13 35.0299,24.26 35.0799,24.38 C35.1299,24.5 35.1999,24.609 35.2899,24.71 Z M35.2899,28.71 C35.4799,28.899 35.7299,29 35.9999,29 C36.1299,29 36.2599,28.97 36.3799,28.92 C36.4999,28.87 36.6099,28.8 36.7099,28.71 C36.7999,28.609 36.8699,28.5 36.9199,28.38 C36.9699,28.26 36.9999,28.13 36.9999,28 C36.9999,27.87 36.9699,27.74 36.9199,27.62 C36.8699,27.5 36.7999,27.39 36.7099,27.29 C36.4299,27.01 35.9799,26.92 35.6199,27.08 C35.4899,27.13 35.3899,27.2 35.2899,27.29 C35.1999,27.39 35.1299,27.5 35.0799,27.62 C35.0299,27.74 34.9999,27.87 34.9999,28 C34.9999,28.13 35.0299,28.26 35.0799,28.38 C35.1299,28.5 35.1999,28.609 35.2899,28.71 Z M35.2899,32.71 C35.3899,32.8 35.4999,32.87 35.6199,32.92 C35.7399,32.97 35.8699,33 35.9999,33 C36.1299,33 36.2599,32.97 36.3799,32.92 C36.4999,32.87 36.6099,32.8 36.7099,32.71 C36.7999,32.609 36.8699,32.5 36.9199,32.38 C36.9699,32.26 36.9999,32.13 36.9999,32 C36.9999,31.87 36.9699,31.74 36.9199,31.62 C36.8699,31.49 36.7999,31.39 36.7099,31.29 C36.6099,31.2 36.5099,31.13 36.3799,31.08 C36.1399,30.98 35.8599,30.98 35.6199,31.08 C35.4999,31.13 35.3899,31.2 35.2899,31.29 C35.1099,31.48 34.9999,31.74 34.9999,32 C34.9999,32.13 35.0299,32.26 35.0799,32.38 C35.1299,32.5 35.1999,32.609 35.2899,32.71 Z"/>
</svg>
