<?xml version="1.0" encoding="UTF-8"?>
<svg width="15px" height="14px" viewBox="0 0 15 14" version="1.1" xmlns="http://www.w3.org/2000/svg" xmlns:xlink="http://www.w3.org/1999/xlink">
    <!-- Generator: Sketch 49.2 (51160) - http://www.bohemiancoding.com/sketch -->
    <title>Fill 1</title>
    <desc>Created with Sketch.</desc>
    <defs></defs>
    <g id="Symbols" stroke="none" stroke-width="1" fill="none" fill-rule="evenodd">
        <g id="calls/row-gestionado" transform="translate(-1125.000000, -29.000000)" fill="#90A4AE">
            <path d="M1128.41425,35.00025 L1132.70725,30.70725 C1133.09825,30.31625 1133.09825,29.68425 1132.70725,29.29325 C1132.31625,28.90225 1131.68425,28.90225 1131.29325,29.29325 L1125.29325,35.29325 C1124.90225,35.68425 1124.90225,36.31625 1125.29325,36.70725 L1131.29325,42.70725 C1131.48825,42.90225 1131.74425,43.00025 1132.00025,43.00025 C1132.25625,43.00025 1132.51225,42.90225 1132.70725,42.70725 C1133.09825,42.31625 1133.09825,41.68425 1132.70725,41.29325 L1128.41425,37.00025 L1139.00025,37.00025 C1139.55225,37.00025 1140.00025,36.55225 1140.00025,36.00025 C1140.00025,35.44825 1139.55225,35.00025 1139.00025,35.00025 L1128.41425,35.00025 Z" id="Fill-1"></path>
        </g>
    </g>
</svg>