<svg xmlns="http://www.w3.org/2000/svg" width="50" height="50" viewBox="0 0 50 50"><g fill="none" fill-rule="evenodd"><rect width="50" height="50" fill="#36474F" opacity=".5" rx="25"/><path fill="#FFF" fill-rule="nonzero" d="M19.365 15.62a1.078 1.078 0 0 1 1.201 1.79c-2.646 1.776-4.41 4.939-4.41 8.09 0 5.155 4.19 9.344 9.344 9.344 5.155 0 9.344-4.19 9.344-9.344 0-5.043-3.98-9.15-9.026-9.345a1.078 1.078 0 1 1 .083-2.154C32.102 14.239 37 19.295 37 25.5 37 31.845 31.845 37 25.5 37S14 31.845 14 25.5c0-3.886 2.135-7.712 5.365-9.88z"/><path fill="#FFF" fill-rule="nonzero" d="M16.023 17.045a1.023 1.023 0 1 1 0-2.045h3.954c.565 0 1.023.458 1.023 1.023v3.954a1.023 1.023 0 1 1-2.045 0v-2.932h-2.932z"/></g></svg>