<svg xmlns="http://www.w3.org/2000/svg" width="26" height="30" viewBox="0 0 26 30"><path fill="#607D8B" fill-rule="evenodd" d="M21.821 25.313H3.25a1.402 1.402 0 0 1-1.393-1.407c0-.775.625-1.406 1.393-1.406h18.571a1.4 1.4 0 0 1 1.393 1.406c0 .776-.625 1.407-1.393 1.407zm-7.892 2.812h-2.786a.935.935 0 0 1-.929-.938h4.643a.935.935 0 0 1-.928.938zm-3.715-8.438c0-1.292 1.042-2.343 2.322-2.343s2.321 1.05 2.321 2.343v.938h-4.643v-.938zm.929-17.812h2.786c.511 0 .928.42.928.938v13.37a4.127 4.127 0 0 0-4.643 0V2.813c0-.517.417-.938.929-.938zm10.678 18.75c1.793 0 3.25 1.472 3.25 3.281 0 1.81-1.457 3.282-3.25 3.282h-5.107c0 1.553-1.247 2.812-2.785 2.812h-2.786c-1.539 0-2.786-1.26-2.786-2.813H3.25c-1.792 0-3.25-1.471-3.25-3.28 0-1.81 1.458-3.282 3.25-3.282h5.107V2.812C8.357 1.26 9.604 0 11.143 0h2.786c1.538 0 2.785 1.26 2.785 2.813v17.812h5.107zM21.357 3.75a.933.933 0 0 1-.928-.938c0-.518.416-.937.928-.937h3.714c.513 0 .929.42.929.938a.933.933 0 0 1-.929.937h-3.714zm3.714 2.813c.513 0 .929.419.929.937a.933.933 0 0 1-.929.938h-3.714a.933.933 0 0 1-.928-.938c0-.518.416-.938.928-.938h3.714zm0 4.687c.513 0 .929.42.929.938a.933.933 0 0 1-.929.937h-3.714a.933.933 0 0 1-.928-.938c0-.518.416-.937.928-.937h3.714zm0 4.688c.513 0 .929.419.929.937a.933.933 0 0 1-.929.938h-3.714a.933.933 0 0 1-.928-.938c0-.518.416-.938.928-.938h3.714z"/></svg>