<svg width="29" height="28" viewBox="0 0 29 28" xmlns="http://www.w3.org/2000/svg"><g id="Report" fill="none" fill-rule="evenodd"><g id="MVP-1.1---Report-User" transform="translate(-574 -588)" fill="#333"><g id="Overlay-Report-User" transform="translate(97 186)"><path d="M505.047 415.505c0 3.245-1.145 6.222-3.052 8.55l.015.01c-.08.089-.164.173-.245.26a13.584 13.584 0 0 1-2.188 2.035c-3.49 2.796-7.735 3.607-12.554 3.607-3.109 0-5.385-.138-8.868-1.082a1.498 1.498 0 0 1-1.155-1.457c0-.506.354-.967.354-.967 1.124-1.29 1.748-2.601 1.748-4.446 0-.649-.09-1.277-.248-1.876a13.473 13.473 0 0 1-.817-4.634c0-7.459 6.047-13.505 13.506-13.505 7.458 0 13.504 6.046 13.504 13.505zm-4.372 7.47a11.817 11.817 0 0 0 2.666-7.47c0-6.506-5.293-11.799-11.798-11.799-6.506 0-11.8 5.293-11.8 11.8 0 .325.015.65.041.973l.057.397.1.497c.03.168.074.334.12.5.046.16.087.35.137.485l.174.52c.057.176.126.314.186.47.113.304.278.605.412.894.162.279.299.558.466.801.158.249.31.48.468.683l.22.294.213.254c.133.16.25.297.356.403l.322.339.033.035a.854.854 0 1 1-1.272 1.138l-.347-.411a6.91 6.91 0 0 1-.38-.487l-.227-.305-.057-.087c-.156 1.627-.758 3.026-1.894 4.41 3.058.807 5.093.952 8.152.952 5.154 0 8.697-.997 11.486-3.233l.025-.02.026-.019a11.885 11.885 0 0 0 1.913-1.78l.021-.024.023-.024.038-.04.12-.147zm-7.993-7.221l2.615 2.614a.853.853 0 1 1-1.207 1.207l-2.614-2.614-2.615 2.614a.852.852 0 0 1-1.206 0 .853.853 0 0 1 0-1.207l2.614-2.614-2.546-2.546a.853.853 0 0 1 1.207-1.207l2.546 2.546 2.545-2.546a.853.853 0 0 1 1.207 1.207l-2.546 2.546z" id="report_behavior"/></g></g></g></svg>