<svg width="14" height="16" fill="none" xmlns="http://www.w3.org/2000/svg"><path fill-rule="evenodd" clip-rule="evenodd" d="M7.5 14.354V8.086l5.483-3.147.017 6.284-5.5 3.131zM1 11.224V4.956l5.5 3.13v6.268L1 11.223zM6.999.974L1.496 4.108l2.228 1.269c.01-.006.014-.016.024-.02L9.21 2.245 7 .976zM7 7.242l5.486-3.116L10.2 2.814 4.711 5.939 7 7.242zm6.982-2.87a.974.974 0 00-.497-.841L7.503.132a1.022 1.022 0 00-1.007 0l-6 3.417A.973.973 0 000 4.392v6.832c0 .346.189.668.496.843l6 3.416a1.023 1.023 0 001.008 0l6-3.416A.972.972 0 0014 11.22l-.018-6.85z" fill="#607D8B"/></svg>