<svg xmlns="http://www.w3.org/2000/svg" width="48" height="48" viewBox="0 0 48 48">
  <path fill="#607D8B" d="M19.7249146,9.937 L17.4629146,2.397 L27.3119146,4.859 L29.4459146,9.126 L19.7249146,9.937 Z M26.9999146,17.333 L16.9999146,21.5 L16.9999146,7.814 L18.0419146,11.288 C18.1699146,11.713 18.5619146,12 18.9989146,12 C19.0279146,12 19.0549146,12 19.0829146,11.997 L26.9999146,11.337 L26.9999146,17.333 Z M4.99991464,11.337 L12.9169146,11.997 C12.9459146,12 12.9729146,12 13.0009146,12 C13.4389146,12 13.8299146,11.713 13.9579146,11.288 L14.9999146,7.814 L14.9999146,21.5 L4.99991464,17.333 L4.99991464,11.337 Z M4.68891464,4.859 L14.5379146,2.397 L12.2759146,9.937 L2.55491464,9.126 L4.68891464,4.859 Z M31.8949146,9.553 L28.8949146,3.553 C28.7639146,3.292 28.5259146,3.101 28.2429146,3.031 L16.2429146,0.031 C16.2099146,0.023 16.1779146,0.025 16.1459146,0.019 C16.0999146,0.013 16.0539146,0.002 16.0069146,0.001 C16.0039146,0.001 16.0019146,0 15.9999146,0 C15.9969146,0 15.9959146,0.001 15.9939146,0.001 C15.9469146,0.002 15.9009146,0.013 15.8549146,0.019 C15.8229146,0.025 15.7899146,0.023 15.7579146,0.031 L3.75791464,3.031 C3.47491464,3.101 3.23691464,3.292 3.10591464,3.553 L0.105914613,9.553 C-0.0430853868,9.85 -0.0340853868,10.201 0.127914613,10.491 C0.290914613,10.78 0.585914613,10.969 0.916914613,10.997 L2.99991464,11.17 L2.99991464,18 C2.99991464,18.404 3.24391464,18.768 3.61591464,18.923 L15.6089146,23.92 C15.6109146,23.921 15.6119146,23.921 15.6139146,23.922 L15.6159146,23.923 C15.7389146,23.975 15.8699146,24 15.9999146,24 C16.1309146,24 16.2619146,23.975 16.3849146,23.923 L16.3869146,23.922 C16.3889146,23.921 16.3899146,23.921 16.3919146,23.92 L28.3849146,18.923 C28.7569146,18.768 28.9999146,18.404 28.9999146,18 L28.9999146,11.17 L31.0829146,10.997 C31.4139146,10.969 31.7089146,10.78 31.8719146,10.491 C32.0349146,10.201 32.0429146,9.85 31.8949146,9.553 Z" transform="translate(8 12)"/>
</svg>
