<svg width="29" height="29" viewBox="0 0 29 29" xmlns="http://www.w3.org/2000/svg"><path d="M21.834 9.27l-1.31 1.31-2.978-2.977 1.31-1.311a.485.485 0 0 1 .348-.141.54.54 0 0 1 .385.162l2.225 2.224a.52.52 0 0 1 .02.733zM6.717 21.898a.247.247 0 0 1-.335-.322l1.715-3.961 2.449 2.449-3.829 1.834zm9.912-13.379l2.978 2.978-7.874 7.87a.145.145 0 0 1-.099-.048l-2.827-2.826c-.048-.049-.05-.096-.055-.096l7.877-7.878zm6.101-.898l-2.225-2.225a1.837 1.837 0 0 0-1.301-.541c-.46 0-.917.173-1.264.52L7.835 15.48a1.261 1.261 0 0 0-.209.289.632.632 0 0 0-.268.288L5.193 21.06a1.55 1.55 0 0 0 .346 1.727 1.548 1.548 0 0 0 1.737.28l5.022-2.406a.633.633 0 0 0 .317-.345c.01-.01.021-.016.03-.025L22.75 10.186c.704-.703.694-1.851-.02-2.565z" fill="#607D8B" fill-rule="evenodd"/></svg>