<?xml version="1.0" encoding="UTF-8" standalone="no"?>
<svg width="29px" height="29px" viewBox="0 0 29 29" version="1.1" xmlns="http://www.w3.org/2000/svg" xmlns:xlink="http://www.w3.org/1999/xlink">
    <!-- Generator: Sketch 48.2 (47327) - http://www.bohemiancoding.com/sketch -->
    <title>ic_delete</title>
    <desc>Created with Sketch.</desc>
    <defs></defs>
    <g id="Artboard" stroke="none" stroke-width="1" fill="none" fill-rule="evenodd" transform="translate(-118.000000, -12.000000)">
        <path d="M136.825873,18.9534506 L139.008337,18.9534506 C140.048377,18.9534506 140.926417,19.8405626 140.926417,20.9266106 C140.926417,21.7165226 140.426809,22.4118266 139.736041,22.7073146 L139.089337,33.2917466 C139.009633,34.6992026 136.597777,35.5409546 132.637201,35.5409546 C128.801689,35.5409546 126.633481,34.7523386 126.532393,33.3196106 L125.706841,22.5932666 C125.137249,22.2556586 124.739377,21.6303386 124.739377,20.9233706 C124.739377,19.8561146 125.621953,18.9534506 126.665881,18.9534506 L128.635153,18.9534506 C128.637097,17.5265546 129.598081,16.5305786 130.972489,16.5305786 L134.390041,16.5305786 C135.777409,16.5305786 136.823281,17.5725626 136.825873,18.9534506 Z M132.637201,34.2449546 C136.274425,34.2449546 137.693545,33.4777226 137.798521,33.1984346 L138.429025,22.8589466 L127.026817,22.8589466 L127.824505,33.2243546 C127.836817,33.3954266 128.720689,34.2449546 132.637201,34.2449546 Z M132.823242,24.544589 C133.181586,24.544589 133.471242,24.834245 133.471242,25.192589 L133.471242,31.342757 C133.471242,31.701101 133.181586,31.990757 132.823242,31.990757 C132.464898,31.990757 132.175242,31.701101 132.175242,31.342757 L132.175242,25.192589 C132.175242,24.834245 132.464898,24.544589 132.823242,24.544589 Z M135.991768,24.544589 C136.350112,24.544589 136.639768,24.834245 136.639768,25.192589 L136.639768,31.342757 C136.639768,31.701101 136.350112,31.990757 135.991768,31.990757 C135.633424,31.990757 135.343768,31.701101 135.343768,31.342757 L135.343768,25.192589 C135.343768,24.834245 135.633424,24.544589 135.991768,24.544589 Z M129.655365,24.544589 C130.013709,24.544589 130.303365,24.834245 130.303365,25.192589 L130.303365,31.342757 C130.303365,31.701101 130.013709,31.990757 129.655365,31.990757 C129.297021,31.990757 129.007365,31.701101 129.007365,31.342757 L129.007365,25.192589 C129.007365,24.834245 129.297021,24.544589 129.655365,24.544589 Z M126.665881,20.2494506 C126.330217,20.2494506 126.035377,20.5650266 126.035377,20.9233706 C126.035377,21.2642186 126.314017,21.5629466 126.630889,21.5629466 L139.008337,21.5629466 C139.333633,21.5629466 139.630417,21.2596826 139.630417,20.9266106 L139.630417,20.8916186 C139.630417,20.5553066 139.333633,20.2494506 139.008337,20.2494506 L126.665881,20.2494506 Z M130.972489,17.8265786 C130.321897,17.8265786 129.933097,18.2477786 129.931153,18.9534506 L135.529873,18.9534506 C135.527929,18.2795306 135.070441,17.8265786 134.390041,17.8265786 L130.972489,17.8265786 Z" id="Combined-Shape" fill="#607D8B"></path>
    </g>
</svg>