<svg width="29" height="29" viewBox="0 0 29 29" xmlns="http://www.w3.org/2000/svg"><g id="Artboard" fill="none" fill-rule="evenodd" transform="translate(-9 -12)"><path d="M32.07 26.01l-3.26-2.625-2.011-1.66-.002-.001c-.577-.477-1.117-.522-1.466-.475-.804.108-1.285.758-1.3.785-1.228 1.435-2.355 1.66-2.941 1.66h-.04a2.039 2.039 0 0 1-.689-.125 6.198 6.198 0 0 0 1.512-2.176 3.999 3.999 0 0 1 2.157-2.166c1.121-.462 2.307-.246 3.089.01l.078.028c.513.183 1.096.39 1.69.483 2.149.335 3.65 2.031 3.65 4.123 0 .884-.143 1.543-.466 2.139m-.172 2.171l-.268.315a.443.443 0 0 1-.326.147c-.015-.001-.03-.006-.045-.008l-2.308-1.85-.005-.004a.65.65 0 0 0-.8 1.02l1.297 1.018c.01.012.014.028.024.04l.203.225a.616.616 0 0 1 .087.243.45.45 0 0 1-.095.345l-.268.315a.447.447 0 0 1-.327.147.66.66 0 0 1-.22-.04l-.625-.575c-.032-.03-.054-.067-.089-.096-.013-.01-.028-.014-.042-.024l-.785-.722-.007-.007a.647.647 0 1 0-.863.967l.792.708.003.005.204.226c.12.197.124.431-.009.587l-.269.315c-.167.195-.492.197-.738.007l-.202-.223c-.048-.066-.113-.123-.171-.185-.016-.02-.024-.042-.043-.06l-.08-.075c-.011-.008-.017-.02-.027-.027-.003-.004-.008-.004-.011-.006l-.475-.439-.02-.018a.648.648 0 1 0-.84.988l.414.352c.012.015.017.035.03.05l.204.225c.12.197.124.432-.008.587l-.269.314c-.174.205-.517.198-.78-.026l-.291-.233c-.036-.029-.08-.042-.12-.062a2.99 2.99 0 0 0 .151-1.118 2.957 2.957 0 0 0-.994-2.053L18.97 25.99c-.587-.522-1.412-.796-2.246-.75a3.402 3.402 0 0 0-.604.09 4.855 4.855 0 0 1-.231-1.46 4.454 4.454 0 0 1 4.45-4.448c.385 0 .761.055 1.128.15-.326.4-.595.846-.793 1.328a4.894 4.894 0 0 1-1.553 2.022.816.816 0 0 0-.31.826c.1.5.64.935 1.407 1.134.76.197 2.745.395 4.83-2.046.052-.07.249-.277.459-.303.138-.013.292.049.464.19l.002.001 5.792 4.704c.248.212.308.55.134.753m-9.74 4.649l-.016.018a.443.443 0 0 1-.616.037l-5.946-5.16a.443.443 0 0 1-.038-.627c.294-.331.75-.535 1.251-.563l.114-.003c.46 0 .893.152 1.2.426l3.918 3.486c.337.3.536.71.562 1.16.027.45-.123.882-.43 1.226m11.675-8.96c0-2.745-1.951-4.967-4.746-5.403-.473-.073-.972-.25-1.452-.422l-.097-.034c-1.006-.33-2.516-.595-4.001.017-.35.144-.68.33-.989.545a5.69 5.69 0 0 0-2.21-.447 5.751 5.751 0 0 0-5.745 5.745c0 .679.127 1.37.356 2.025a2.758 2.758 0 0 0-.375.341 1.744 1.744 0 0 0-.437 1.266c.03.462.247.9.595 1.2l5.946 5.161a1.734 1.734 0 0 0 2.394-.12l.242.196c.371.316.82.471 1.261.471.503 0 .993-.203 1.332-.601l.269-.315c.154-.18.264-.384.33-.6.608.102 1.23-.097 1.637-.576l.27-.315a1.67 1.67 0 0 0 .33-.599c.12.02.246.027.37.024.5-.017.951-.23 1.268-.6l.267-.316a1.68 1.68 0 0 0 .332-.599c.121.02.245.026.37.024.501-.017.95-.23 1.267-.6l.268-.316c.495-.58.525-1.406.138-2.07.564-.873.81-1.82.81-3.081" id="Fill-14" fill="#607D8B"/></g></svg>