<svg width="29" height="29" viewBox="0 0 29 29" xmlns="http://www.w3.org/2000/svg"><path d="M20.07 20.41a.609.609 0 0 1-.969.51l-3.718-2.777a1.959 1.959 0 0 0-.283-.175l-1.607-1.096a.649.649 0 0 0-.73 1.07l.318.218-3.848 2.804a.614.614 0 0 1-.644.044.611.611 0 0 1-.32-.559l.509-12.87a.611.611 0 0 1 .667-.58c1.631.158 3.805.347 4.891.347 1.038 0 3.051-.185 4.558-.34a.612.612 0 0 1 .669.58l.507 12.823v.001zm.787-12.875a1.912 1.912 0 0 0-.654-1.363 1.931 1.931 0 0 0-1.443-.456c-1.208.125-3.39.334-4.424.334-.807 0-2.5-.121-4.766-.342a1.888 1.888 0 0 0-1.436.46c-.392.343-.63.838-.65 1.36l-.51 12.87a1.913 1.913 0 0 0 1.005 1.753 1.917 1.917 0 0 0 2.017-.14l3.89-2.835a.603.603 0 0 1 .588-.065l.46.314 3.392 2.533c.585.437 1.38.498 2.025.159a1.91 1.91 0 0 0 1.014-1.759l-.508-12.823z" fill="#607D8B" fill-rule="evenodd"/></svg>