<svg width="29" height="29" viewBox="0 0 29 29" xmlns="http://www.w3.org/2000/svg"><path d="M18.826 6.953h2.182c1.04 0 1.918.888 1.918 1.974 0 .79-.5 1.485-1.19 1.78l-.647 10.585c-.08 1.407-2.491 2.249-6.452 2.249-3.835 0-6.004-.789-6.105-2.221l-.825-10.727a1.958 1.958 0 0 1-.968-1.67c0-1.067.883-1.97 1.927-1.97h1.97c.001-1.426.962-2.422 2.336-2.422h3.418c1.387 0 2.433 1.042 2.436 2.422zm-4.189 15.292c3.637 0 5.057-.767 5.162-1.047l.63-10.34H9.027l.798 10.366c.012.171.896 1.021 4.812 1.021zm.186-9.7c.359 0 .648.29.648.648v6.15a.647.647 0 1 1-1.296 0v-6.15c0-.359.29-.648.648-.648zm3.169 0c.358 0 .648.29.648.648v6.15a.647.647 0 1 1-1.296 0v-6.15c0-.359.29-.648.648-.648zm-6.337 0c.359 0 .648.29.648.648v6.15a.647.647 0 1 1-1.296 0v-6.15c0-.359.29-.648.648-.648zm-2.99-4.296c-.335 0-.63.316-.63.674 0 .341.279.64.596.64h12.377c.326 0 .622-.303.622-.636v-.035c0-.337-.296-.643-.622-.643H8.666zm4.307-2.422c-.65 0-1.039.42-1.04 1.126h5.598c-.002-.673-.46-1.126-1.14-1.126h-3.418z" fill="#607D8B" fill-rule="evenodd"/></svg>