<svg width="36" height="27" viewBox="0 0 36 27" xmlns="http://www.w3.org/2000/svg"><defs><filter x="-36%" y="-60%" width="172%" height="220%" filterUnits="objectBoundingBox" id="a"><feOffset in="SourceAlpha" result="shadowOffsetOuter1"/><feGaussianBlur stdDeviation="3" in="shadowOffsetOuter1" result="shadowBlurOuter1"/><feColorMatrix values="0 0 0 0 1 0 0 0 0 1 0 0 0 0 1 0 0 0 0.5 0" in="shadowBlurOuter1" result="shadowMatrixOuter1"/><feMerge><feMergeNode in="shadowMatrixOuter1"/><feMergeNode in="SourceGraphic"/></feMerge></filter></defs><g filter="url(#a)" transform="translate(6 6)" fill="#13C1AC" fill-rule="evenodd"><path d="M6.14 13.097a3.964 3.964 0 0 0 5.393-1.48l.14.079-.14-.08a3.93 3.93 0 0 0-1.486-5.37L1.231 1.252c-.156.879.076 1.517.731 1.887l6.987 3.953a.527.527 0 1 1-.523.918l-6.6-3.734A1.705 1.705 0 0 0 2.632 6.2l4.402 2.491a.525.525 0 0 1 .2.72.531.531 0 0 1-.723.198l-4.16-2.353A1.704 1.704 0 0 0 3.16 9.18l2.274 1.287a.527.527 0 0 1 .199.72.532.532 0 0 1-.723.198l-.495-.28c.327.838.93 1.54 1.726 1.992z" opacity=".4"/><path d="M.24.809A.902.902 0 0 1 1.563.232l9.008 5.095-.08.14.08-.14a4.984 4.984 0 0 1 1.884 6.811 5.025 5.025 0 0 1-6.838 1.877 4.986 4.986 0 0 1-2.487-3.637l-.494-.28A2.755 2.755 0 0 1 1.466 6.6a2.747 2.747 0 0 1-.55-2.921C.17 2.995-.038 1.993.24.809zm5.9 12.288a3.964 3.964 0 0 0 5.393-1.48l.14.079-.14-.08a3.93 3.93 0 0 0-1.486-5.37L1.231 1.252c-.156.879.076 1.517.731 1.887l6.987 3.953a.527.527 0 1 1-.523.918l-6.6-3.734A1.705 1.705 0 0 0 2.632 6.2l4.402 2.491a.525.525 0 0 1 .2.72.531.531 0 0 1-.723.198l-4.16-2.353A1.704 1.704 0 0 0 3.16 9.18l2.274 1.287a.527.527 0 0 1 .199.72.532.532 0 0 1-.723.198l-.495-.28c.327.838.93 1.54 1.726 1.992z" fill-rule="nonzero"/><path d="M16.797 13.097a3.964 3.964 0 0 0 5.392-1.48l.14.079-.14-.08a3.93 3.93 0 0 0-1.486-5.37l-8.816-4.994c-.156.879.076 1.517.73 1.887l6.988 3.953a.527.527 0 1 1-.524.918l-6.6-3.734a1.705 1.705 0 0 0 .808 1.924l4.402 2.491a.525.525 0 0 1 .2.72.531.531 0 0 1-.723.198l-4.16-2.353a1.704 1.704 0 0 0 .807 1.924l2.274 1.287a.527.527 0 0 1 .2.72.532.532 0 0 1-.724.198l-.494-.28c.327.838.93 1.54 1.726 1.992z" opacity=".4"/><path d="M10.896.809a.902.902 0 0 1 1.323-.577l9.008 5.095-.08.14.08-.14a4.984 4.984 0 0 1 1.883 6.811 5.025 5.025 0 0 1-6.837 1.877 4.986 4.986 0 0 1-2.487-3.637l-.494-.28a2.755 2.755 0 0 1-1.17-3.497 2.747 2.747 0 0 1-.55-2.921c-.746-.685-.954-1.687-.676-2.871zm5.9 12.288a3.964 3.964 0 0 0 5.393-1.48l.14.079-.14-.08a3.93 3.93 0 0 0-1.486-5.37l-8.816-4.994c-.156.879.076 1.517.73 1.887l6.988 3.953a.527.527 0 1 1-.524.918l-6.6-3.734a1.705 1.705 0 0 0 .808 1.924l4.402 2.491a.525.525 0 0 1 .2.72.531.531 0 0 1-.723.198l-4.16-2.353a1.704 1.704 0 0 0 .807 1.924l2.274 1.287a.527.527 0 0 1 .2.72.532.532 0 0 1-.724.198l-.494-.28c.327.838.93 1.54 1.726 1.992z" fill-rule="nonzero"/></g></svg>