<svg width="36" height="27" viewBox="0 0 36 27" xmlns="http://www.w3.org/2000/svg"><defs><filter x="-36%" y="-60%" width="172%" height="220%" filterUnits="objectBoundingBox" id="filter-1"><feOffset in="SourceAlpha" result="shadowOffsetOuter1"/><feGaussianBlur stdDeviation="3" in="shadowOffsetOuter1" result="shadowBlurOuter1"/><feColorMatrix values="0 0 0 0 1 0 0 0 0 1 0 0 0 0 1 0 0 0 0.5 0" in="shadowBlurOuter1" result="shadowMatrixOuter1"/><feMerge><feMergeNode in="shadowMatrixOuter1"/><feMergeNode in="SourceGraphic"/></feMerge></filter></defs><g id="pro-profile" fill="none" fill-rule="evenodd"><g id="PROFILE-TABS-suscription-selected" transform="translate(-1204 -676)" fill="#13C1AC"><g id="Group-33" transform="translate(283 666)"><g id="Group-31" transform="translate(788)"><g id="Group-24-Copy-2"><g id="Group-24-Copy"><g id="Group-14-Copy-9" filter="url(#filter-1)" transform="translate(139 16)"><path d="M6.14 13.097a3.964 3.964 0 0 0 5.393-1.48l.14.079-.14-.08a3.93 3.93 0 0 0-1.486-5.37L1.231 1.252c-.156.879.076 1.517.731 1.887l6.987 3.953a.527.527 0 1 1-.523.918l-6.6-3.734A1.705 1.705 0 0 0 2.632 6.2l4.402 2.491a.525.525 0 0 1 .2.72.531.531 0 0 1-.723.198l-4.16-2.353A1.704 1.704 0 0 0 3.16 9.18l2.274 1.287a.527.527 0 0 1 .199.72.532.532 0 0 1-.723.198l-.495-.28c.327.838.93 1.54 1.726 1.992z" id="Path" opacity=".4"/><path d="M.24.809A.902.902 0 0 1 1.563.232l9.008 5.095-.08.14.08-.14a4.984 4.984 0 0 1 1.884 6.811 5.025 5.025 0 0 1-6.838 1.877 4.986 4.986 0 0 1-2.487-3.637l-.494-.28A2.755 2.755 0 0 1 1.466 6.6a2.747 2.747 0 0 1-.55-2.921C.17 2.995-.038 1.993.24.809zm5.9 12.288a3.964 3.964 0 0 0 5.393-1.48l.14.079-.14-.08a3.93 3.93 0 0 0-1.486-5.37L1.231 1.252c-.156.879.076 1.517.731 1.887l6.987 3.953a.527.527 0 1 1-.523.918l-6.6-3.734A1.705 1.705 0 0 0 2.632 6.2l4.402 2.491a.525.525 0 0 1 .2.72.531.531 0 0 1-.723.198l-4.16-2.353A1.704 1.704 0 0 0 3.16 9.18l2.274 1.287a.527.527 0 0 1 .199.72.532.532 0 0 1-.723.198l-.495-.28c.327.838.93 1.54 1.726 1.992z" id="wing-copy-6" fill-rule="nonzero"/><g id="Group-11" transform="translate(10.759)"><path d="M6.038 13.097a3.964 3.964 0 0 0 5.392-1.48l.14.079-.14-.08a3.93 3.93 0 0 0-1.486-5.37L1.128 1.252c-.156.879.076 1.517.73 1.887l6.988 3.953a.527.527 0 1 1-.523.918l-6.6-3.734A1.705 1.705 0 0 0 2.53 6.2l4.402 2.491a.525.525 0 0 1 .2.72.531.531 0 0 1-.723.198L2.25 7.256a1.704 1.704 0 0 0 .808 1.924l2.274 1.287a.527.527 0 0 1 .199.72.532.532 0 0 1-.723.198l-.495-.28c.327.838.93 1.54 1.726 1.992z" id="Path" opacity=".4"/><path d="M.137.809A.902.902 0 0 1 1.46.232l9.008 5.095-.08.14.08-.14a4.984 4.984 0 0 1 1.883 6.811 5.025 5.025 0 0 1-6.837 1.877 4.986 4.986 0 0 1-2.487-3.637l-.494-.28A2.755 2.755 0 0 1 1.363 6.6a2.747 2.747 0 0 1-.55-2.921C.067 2.995-.141 1.993.137.809zm5.9 12.288a3.964 3.964 0 0 0 5.393-1.48l.14.079-.14-.08a3.93 3.93 0 0 0-1.486-5.37L1.128 1.252c-.156.879.076 1.517.73 1.887l6.988 3.953a.527.527 0 1 1-.523.918l-6.6-3.734A1.705 1.705 0 0 0 2.53 6.2l4.402 2.491a.525.525 0 0 1 .2.72.531.531 0 0 1-.723.198L2.25 7.256a1.704 1.704 0 0 0 .808 1.924l2.274 1.287a.527.527 0 0 1 .199.72.532.532 0 0 1-.723.198l-.495-.28c.327.838.93 1.54 1.726 1.992z" id="wing-copy-7" fill-rule="nonzero"/></g></g></g></g></g></g></g></g></svg>