<svg xmlns="http://www.w3.org/2000/svg" width="93" height="44" viewBox="0 0 93 44"><g fill="#FFF" fill-rule="evenodd"><g fill-rule="nonzero"><path d="M5.522 6.81a2.057 2.057 0 0 1 3.02-1.322l20.556 11.675-.181.32.181-.32c5.498 3.124 7.422 10.11 4.3 15.606s-10.11 7.42-15.605 4.299a11.425 11.425 0 0 1-5.675-8.333l-1.128-.641c-2.821-1.601-3.943-5.06-2.672-8.011a6.313 6.313 0 0 1-1.255-6.695C5.361 11.82 4.888 9.524 5.522 6.81zm13.466 28.155a9.026 9.026 0 0 0 12.306-3.391l.32.181-.32-.181a9.026 9.026 0 0 0-3.39-12.306L7.782 7.825c-.356 2.014.174 3.476 1.668 4.325l15.946 9.056a1.211 1.211 0 0 1-1.195 2.105L9.139 14.754a3.913 3.913 0 0 0 1.844 4.41l10.047 5.707a1.21 1.21 0 1 1-1.194 2.103l-9.495-5.393a3.91 3.91 0 0 0 1.844 4.41l5.19 2.948a1.21 1.21 0 1 1-1.196 2.104l-1.129-.642a8.968 8.968 0 0 0 3.938 4.564z"/><path d="M29.636 6.81a2.057 2.057 0 0 1 3.018-1.322l20.557 11.675-.181.32.18-.32c5.498 3.124 7.423 10.11 4.3 15.606-3.122 5.496-10.109 7.42-15.604 4.299a11.425 11.425 0 0 1-5.676-8.333l-1.128-.641c-2.82-1.601-3.943-5.06-2.672-8.011a6.313 6.313 0 0 1-1.254-6.695c-1.702-1.568-2.175-3.864-1.542-6.578zm13.465 28.155a9.026 9.026 0 0 0 12.306-3.391l.32.181-.32-.181a9.026 9.026 0 0 0-3.391-12.306L31.896 7.825c-.356 2.014.173 3.476 1.668 4.325l15.946 9.056a1.211 1.211 0 0 1-1.195 2.105l-15.063-8.557a3.913 3.913 0 0 0 1.844 4.41l10.046 5.707a1.21 1.21 0 1 1-1.194 2.103l-9.495-5.393a3.91 3.91 0 0 0 1.844 4.41l5.19 2.948a1.21 1.21 0 1 1-1.196 2.104l-1.128-.642a8.968 8.968 0 0 0 3.938 4.564z"/><path d="M53.636 6.81a2.057 2.057 0 0 1 3.018-1.322l20.557 11.675-.181.32.18-.32c5.498 3.124 7.423 10.11 4.3 15.606-3.122 5.496-10.109 7.42-15.604 4.299a11.425 11.425 0 0 1-5.676-8.333l-1.128-.641c-2.82-1.601-3.943-5.06-2.672-8.011a6.313 6.313 0 0 1-1.254-6.695c-1.702-1.568-2.175-3.864-1.542-6.578zm13.465 28.155a9.026 9.026 0 0 0 12.306-3.391l.32.181-.32-.181a9.026 9.026 0 0 0-3.391-12.306L55.896 7.825c-.356 2.014.173 3.476 1.668 4.325l15.946 9.056a1.211 1.211 0 0 1-1.195 2.105l-15.063-8.557a3.913 3.913 0 0 0 1.844 4.41l10.046 5.707a1.21 1.21 0 1 1-1.194 2.103l-9.495-5.393a3.91 3.91 0 0 0 1.844 4.41l5.19 2.948a1.21 1.21 0 1 1-1.196 2.104l-1.128-.642a8.968 8.968 0 0 0 3.938 4.564z"/></g><path d="M43.102 34.965a9.026 9.026 0 0 0 12.306-3.39l.32.18-.32-.18a9.026 9.026 0 0 0-3.391-12.307L31.897 7.825c-.356 2.014.173 3.476 1.668 4.325l15.946 9.056a1.211 1.211 0 0 1-1.195 2.105l-15.063-8.557a3.913 3.913 0 0 0 1.844 4.41l10.047 5.708a1.21 1.21 0 1 1-1.194 2.103l-9.495-5.393a3.91 3.91 0 0 0 1.843 4.41l5.19 2.947a1.21 1.21 0 1 1-1.196 2.104l-1.128-.641a8.968 8.968 0 0 0 3.938 4.563zm24.014.185c4.4 2.499 9.995.958 12.496-3.444l.324.184-.324-.184a9.165 9.165 0 0 0-3.444-12.496L55.738 7.591c-.362 2.045.176 3.53 1.694 4.391l16.192 9.196a1.23 1.23 0 0 1-1.214 2.137l-15.295-8.688a3.973 3.973 0 0 0 1.872 4.477L69.19 24.9a1.228 1.228 0 1 1-1.213 2.136l-9.64-5.477a3.971 3.971 0 0 0 1.872 4.478l5.27 2.993a1.228 1.228 0 1 1-1.215 2.137l-1.146-.652a9.107 9.107 0 0 0 3.999 4.634z" opacity=".4"/><path fill-opacity=".4" d="M18.988 34.965a9.026 9.026 0 0 0 12.307-3.39l.319.18-.32-.18a9.026 9.026 0 0 0-3.39-12.307L7.782 7.825c-.356 2.014.174 3.476 1.668 4.325l15.946 9.056a1.211 1.211 0 0 1-1.195 2.105L9.14 14.754a3.913 3.913 0 0 0 1.844 4.41l10.047 5.708a1.21 1.21 0 0 1-1.194 2.103l-9.495-5.393a3.91 3.91 0 0 0 1.844 4.41l5.19 2.947a1.21 1.21 0 1 1-1.196 2.104l-1.128-.641a8.968 8.968 0 0 0 3.937 4.563z"/></g></svg>