<svg xmlns="http://www.w3.org/2000/svg" width="33" height="16"><g fill="none" fill-rule="evenodd"><path fill="#90A4AE" fill-rule="nonzero" d="M.383 1.398c.125-.56.726-.836 1.203-.552l8.19 4.881-.071.133.072-.133c2.19 1.306 2.957 4.227 1.713 6.524-1.244 2.298-4.028 3.103-6.218 1.798-1.233-.736-2.06-2.019-2.261-3.484l-.45-.268c-1.124-.67-1.57-2.116-1.064-3.35a2.738 2.738 0 0 1-.5-2.799C.319 3.493.13 2.533.383 1.398zm5.365 11.773c1.727 1.029 3.922.394 4.904-1.418l.127.076-.127-.076c.98-1.813.376-4.116-1.351-5.145L1.284 1.823c-.142.842.069 1.453.664 1.808l6.354 3.786a.52.52 0 0 1 .181.69.47.47 0 0 1-.657.19L1.824 4.721c-.18.71.111 1.472.735 1.843l4.003 2.387a.518.518 0 0 1 .182.689.47.47 0 0 1-.658.19L2.303 7.574c-.18.71.11 1.472.735 1.844l2.067 1.232a.52.52 0 0 1 .181.69.47.47 0 0 1-.657.19l-.45-.268a3.704 3.704 0 0 0 1.57 1.908z"/><path fill="#FFF" d="M5.748 13.17c1.727 1.029 3.922.394 4.904-1.418l.127.076-.127-.076c.98-1.813.376-4.116-1.351-5.145L1.284 1.823c-.142.842.069 1.453.664 1.808l6.354 3.786a.52.52 0 0 1 .181.69.47.47 0 0 1-.657.19L1.824 4.721c-.18.71.111 1.472.735 1.843l4.003 2.387a.518.518 0 0 1 .182.689.47.47 0 0 1-.658.19L2.303 7.574c-.18.71.11 1.472.735 1.844l2.067 1.232a.52.52 0 0 1 .181.69.47.47 0 0 1-.657.19l-.45-.268a3.704 3.704 0 0 0 1.57 1.908z" opacity=".3"/><path fill="#90A4AE" fill-rule="nonzero" d="M10.383 1.398c.125-.56.726-.836 1.203-.552l8.19 4.881-.071.133.072-.133c2.19 1.306 2.957 4.227 1.713 6.524-1.244 2.298-4.028 3.103-6.218 1.798-1.233-.736-2.06-2.019-2.261-3.484l-.45-.268c-1.124-.67-1.57-2.116-1.064-3.35a2.738 2.738 0 0 1-.5-2.799c-.678-.655-.867-1.615-.614-2.75zm5.365 11.773c1.727 1.029 3.922.394 4.904-1.418l.127.076-.127-.076c.98-1.813.376-4.116-1.351-5.145l-8.017-4.785c-.142.842.069 1.453.664 1.808l6.354 3.786a.52.52 0 0 1 .181.69.47.47 0 0 1-.657.19l-6.002-3.576c-.18.71.111 1.472.735 1.843l4.003 2.387a.518.518 0 0 1 .182.689.47.47 0 0 1-.658.19l-3.783-2.256c-.18.71.11 1.472.735 1.844l2.067 1.232a.52.52 0 0 1 .181.69.47.47 0 0 1-.657.19l-.45-.268a3.704 3.704 0 0 0 1.57 1.908z"/><path fill="#FFF" d="M15.748 13.17c1.727 1.029 3.922.394 4.904-1.418l.127.076-.127-.076c.98-1.813.376-4.116-1.351-5.145l-8.017-4.784c-.142.842.069 1.453.664 1.808l6.354 3.786a.52.52 0 0 1 .181.69.47.47 0 0 1-.657.19l-6.002-3.576c-.18.71.111 1.472.735 1.843l4.003 2.387a.518.518 0 0 1 .182.689.47.47 0 0 1-.658.19l-3.783-2.256c-.18.71.11 1.472.735 1.844l2.067 1.232a.52.52 0 0 1 .181.69.47.47 0 0 1-.657.19l-.45-.268a3.704 3.704 0 0 0 1.57 1.908z" opacity=".3"/><g><path fill="#90A4AE" fill-rule="nonzero" d="M20.383 1.398c.125-.56.726-.836 1.203-.552l8.19 4.881-.071.133.072-.133c2.19 1.306 2.957 4.227 1.713 6.524-1.244 2.298-4.028 3.103-6.218 1.798-1.233-.736-2.06-2.019-2.261-3.484l-.45-.268c-1.124-.67-1.57-2.116-1.064-3.35a2.738 2.738 0 0 1-.5-2.799c-.678-.655-.867-1.615-.614-2.75zm5.365 11.773c1.727 1.029 3.922.394 4.904-1.418l.127.076-.127-.076c.98-1.813.376-4.116-1.351-5.145l-8.017-4.785c-.142.842.069 1.453.664 1.808l6.354 3.786a.52.52 0 0 1 .181.69.47.47 0 0 1-.657.19l-6.002-3.576c-.18.71.111 1.472.735 1.843l4.003 2.387a.518.518 0 0 1 .182.689.47.47 0 0 1-.658.19l-3.783-2.256c-.18.71.11 1.472.735 1.844l2.067 1.232a.52.52 0 0 1 .181.69.47.47 0 0 1-.657.19l-.45-.268a3.704 3.704 0 0 0 1.57 1.908z"/><path fill="#FFF" d="M25.748 13.17c1.727 1.029 3.922.394 4.904-1.418l.127.076-.127-.076c.98-1.813.376-4.116-1.351-5.145l-8.017-4.784c-.142.842.069 1.453.664 1.808l6.354 3.786a.52.52 0 0 1 .181.69.47.47 0 0 1-.657.19l-6.002-3.576c-.18.71.111 1.472.735 1.843l4.003 2.387a.518.518 0 0 1 .182.689.47.47 0 0 1-.658.19l-3.783-2.256c-.18.71.11 1.472.735 1.844l2.067 1.232a.52.52 0 0 1 .181.69.47.47 0 0 1-.657.19l-.45-.268a3.704 3.704 0 0 0 1.57 1.908z" opacity=".3"/></g></g></svg>