<svg xmlns="http://www.w3.org/2000/svg" width="66" height="44" viewBox="0 0 66 44">
    <defs>
        <filter id="a" width="132.7%" height="152.9%" x="-16.4%" y="-26.5%" filterUnits="objectBoundingBox">
            <feOffset in="SourceAlpha" result="shadowOffsetOuter1"/>
            <feGaussianBlur in="shadowOffsetOuter1" result="shadowBlurOuter1" stdDeviation="3"/>
            <feColorMatrix in="shadowBlurOuter1" result="shadowMatrixOuter1" values="0 0 0 0 1 0 0 0 0 1 0 0 0 0 1 0 0 0 0.5 0"/>
            <feMerge>
                <feMergeNode in="shadowMatrixOuter1"/>
                <feMergeNode in="SourceGraphic"/>
            </feMerge>
        </filter>
    </defs>
    <g fill="#FFF" fill-rule="evenodd" filter="url(#a)" transform="translate(5 4.457)">
        <path d="M14.461 30.008a9.026 9.026 0 0 0 12.306-3.391l.32.181-.32-.18a9.026 9.026 0 0 0-3.39-12.307L3.255 2.868c-.356 2.014.173 3.476 1.668 4.325l15.946 9.056a1.211 1.211 0 0 1-1.195 2.105L4.612 9.797a3.913 3.913 0 0 0 1.844 4.41l10.047 5.708a1.21 1.21 0 0 1-1.194 2.103l-9.495-5.394a3.91 3.91 0 0 0 1.844 4.41l5.19 2.948a1.21 1.21 0 1 1-1.197 2.104l-1.128-.641a8.968 8.968 0 0 0 3.938 4.563z" opacity=".4"/>
        <path fill-rule="nonzero" d="M.995 1.853A2.057 2.057 0 0 1 4.014.531l20.557 11.676-.181.319.181-.32c5.497 3.124 7.422 10.11 4.299 15.606-3.122 5.496-10.109 7.421-15.604 4.299a11.425 11.425 0 0 1-5.676-8.333l-1.127-.641c-2.822-1.601-3.944-5.06-2.672-8.011A6.313 6.313 0 0 1 2.536 8.43C.834 6.863.361 4.567.995 1.853zM14.46 30.008a9.026 9.026 0 0 0 12.306-3.391l.32.181-.32-.18a9.026 9.026 0 0 0-3.39-12.307L3.255 2.868c-.356 2.014.173 3.476 1.668 4.325l15.946 9.056a1.211 1.211 0 0 1-1.195 2.105L4.612 9.797a3.913 3.913 0 0 0 1.844 4.41l10.047 5.708a1.21 1.21 0 0 1-1.194 2.103l-9.495-5.394a3.91 3.91 0 0 0 1.844 4.41l5.19 2.948a1.21 1.21 0 1 1-1.197 2.104l-1.128-.641a8.968 8.968 0 0 0 3.938 4.563z"/>
        <path d="M38.78 30.008a9.026 9.026 0 0 0 12.306-3.391l.319.181-.32-.18a9.026 9.026 0 0 0-3.39-12.307L27.573 2.868c-.356 2.014.174 3.476 1.668 4.325l15.946 9.056a1.211 1.211 0 0 1-1.194 2.105L28.93 9.797a3.913 3.913 0 0 0 1.844 4.41l10.047 5.708a1.21 1.21 0 0 1-1.194 2.103l-9.495-5.394a3.91 3.91 0 0 0 1.844 4.41l5.19 2.948a1.21 1.21 0 1 1-1.196 2.104l-1.128-.641a8.968 8.968 0 0 0 3.937 4.563z" opacity=".4"/>
        <path fill-rule="nonzero" d="M25.313 1.853a2.057 2.057 0 0 1 3.02-1.322L48.89 12.207l-.182.319.182-.32c5.497 3.124 7.422 10.11 4.298 15.606-3.121 5.496-10.108 7.421-15.604 4.299a11.425 11.425 0 0 1-5.675-8.333l-1.128-.641c-2.821-1.601-3.943-5.06-2.672-8.011a6.313 6.313 0 0 1-1.254-6.695c-1.703-1.568-2.176-3.864-1.542-6.578zm13.466 28.155a9.026 9.026 0 0 0 12.307-3.391l.319.181-.32-.18a9.026 9.026 0 0 0-3.39-12.307L27.573 2.868c-.356 2.014.174 3.476 1.668 4.325l15.946 9.056a1.211 1.211 0 0 1-1.194 2.105L28.93 9.797a3.913 3.913 0 0 0 1.844 4.41l10.047 5.708a1.21 1.21 0 0 1-1.194 2.103l-9.495-5.394a3.91 3.91 0 0 0 1.844 4.41l5.19 2.948a1.21 1.21 0 1 1-1.196 2.104l-1.128-.641a8.968 8.968 0 0 0 3.937 4.563z"/>
    </g>
</svg>
