<svg xmlns="http://www.w3.org/2000/svg" width="40" height="44" viewBox="0 0 40 44"><g fill="#FFF" fill-rule="evenodd"><path fill-rule="nonzero" d="M5.516 6.293a2.057 2.057 0 0 1 3.02-1.323l20.557 11.677-.181.32.181-.32c5.497 3.124 7.422 10.11 4.299 15.606-3.122 5.496-10.109 7.42-15.604 4.298a11.425 11.425 0 0 1-5.676-8.332l-1.127-.642c-2.822-1.6-3.944-5.06-2.672-8.01a6.313 6.313 0 0 1-1.255-6.696c-1.702-1.569-2.175-3.864-1.541-6.578zm13.468 28.154a9.026 9.026 0 0 0 12.306-3.392l.32.182-.32-.181a9.026 9.026 0 0 0-3.39-12.307L7.777 7.308c-.356 2.014.173 3.475 1.668 4.324l15.946 9.057a1.211 1.211 0 0 1-1.195 2.104L9.134 14.237a3.913 3.913 0 0 0 1.844 4.41l10.047 5.707a1.21 1.21 0 0 1-1.194 2.103l-9.495-5.393a3.91 3.91 0 0 0 1.844 4.41l5.19 2.947a1.21 1.21 0 1 1-1.197 2.104l-1.128-.64a8.968 8.968 0 0 0 3.938 4.563z"/><path d="M18.983 34.447a9.026 9.026 0 0 0 12.306-3.39l.32.18-.32-.18a9.026 9.026 0 0 0-3.39-12.307L7.777 7.308c-.356 2.014.173 3.475 1.668 4.324l15.946 9.057a1.211 1.211 0 0 1-1.195 2.104L9.134 14.237a3.913 3.913 0 0 0 1.844 4.41l10.047 5.707a1.21 1.21 0 0 1-1.194 2.103l-9.495-5.393a3.91 3.91 0 0 0 1.844 4.41l5.19 2.947a1.21 1.21 0 1 1-1.197 2.104l-1.128-.64a8.968 8.968 0 0 0 3.938 4.563z" opacity=".3"/></g></svg>