<svg xmlns="http://www.w3.org/2000/svg" width="66" height="44" viewBox="0 0 66 44"><g fill="#FFF" fill-rule="evenodd"><path d="M19.461 34.465a9.026 9.026 0 0 0 12.306-3.391l.32.181-.32-.18a9.026 9.026 0 0 0-3.39-12.307L8.255 7.325c-.356 2.014.173 3.476 1.668 4.325l15.946 9.056a1.211 1.211 0 0 1-1.195 2.105L9.612 14.254a3.913 3.913 0 0 0 1.844 4.41l10.047 5.708a1.21 1.21 0 0 1-1.194 2.103l-9.495-5.394a3.91 3.91 0 0 0 1.844 4.41l5.19 2.948a1.21 1.21 0 1 1-1.197 2.104l-1.128-.641a8.968 8.968 0 0 0 3.938 4.563z" opacity=".4"/><path fill-rule="nonzero" d="M5.995 6.31a2.057 2.057 0 0 1 3.019-1.322l20.557 11.676-.181.319.181-.32c5.497 3.124 7.422 10.11 4.299 15.606-3.122 5.496-10.109 7.421-15.604 4.299a11.425 11.425 0 0 1-5.676-8.333l-1.127-.641c-2.822-1.601-3.944-5.06-2.672-8.011a6.313 6.313 0 0 1-1.255-6.696C5.834 11.32 5.361 9.024 5.995 6.31zM19.46 34.465a9.026 9.026 0 0 0 12.306-3.391l.32.181-.32-.18a9.026 9.026 0 0 0-3.39-12.307L8.255 7.325c-.356 2.014.173 3.476 1.668 4.325l15.946 9.056a1.211 1.211 0 0 1-1.195 2.105L9.612 14.254a3.913 3.913 0 0 0 1.844 4.41l10.047 5.708a1.21 1.21 0 0 1-1.194 2.103l-9.495-5.394a3.91 3.91 0 0 0 1.844 4.41l5.19 2.948a1.21 1.21 0 1 1-1.197 2.104l-1.128-.641a8.968 8.968 0 0 0 3.938 4.563z"/><path d="M43.78 34.465a9.026 9.026 0 0 0 12.306-3.391l.319.181-.32-.18a9.026 9.026 0 0 0-3.39-12.307L32.573 7.325c-.356 2.014.174 3.476 1.668 4.325l15.946 9.056a1.211 1.211 0 0 1-1.194 2.105L33.93 14.254a3.913 3.913 0 0 0 1.844 4.41l10.047 5.708a1.21 1.21 0 0 1-1.194 2.103l-9.495-5.394a3.91 3.91 0 0 0 1.844 4.41l5.19 2.948a1.21 1.21 0 1 1-1.196 2.104l-1.128-.641a8.968 8.968 0 0 0 3.937 4.563z" opacity=".4"/><path fill-rule="nonzero" d="M30.313 6.31a2.057 2.057 0 0 1 3.02-1.322L53.89 16.664l-.182.319.182-.32c5.497 3.124 7.422 10.11 4.298 15.606-3.121 5.496-10.108 7.421-15.604 4.299a11.425 11.425 0 0 1-5.675-8.333l-1.128-.641c-2.821-1.601-3.943-5.06-2.672-8.011a6.313 6.313 0 0 1-1.254-6.695c-1.703-1.568-2.176-3.864-1.542-6.578zm13.466 28.155a9.026 9.026 0 0 0 12.307-3.391l.319.181-.32-.18a9.026 9.026 0 0 0-3.39-12.307L32.573 7.325c-.356 2.014.174 3.476 1.668 4.325l15.946 9.056a1.211 1.211 0 0 1-1.194 2.105L33.93 14.254a3.913 3.913 0 0 0 1.844 4.41l10.047 5.708a1.21 1.21 0 0 1-1.194 2.103l-9.495-5.394a3.91 3.91 0 0 0 1.844 4.41l5.19 2.948a1.21 1.21 0 1 1-1.196 2.104l-1.128-.641a8.968 8.968 0 0 0 3.937 4.563z"/></g></svg>