<svg xmlns="http://www.w3.org/2000/svg" width="48" height="48" viewBox="0 0 48 48">
  <path fill="#90A4AE" fill-rule="evenodd" d="M36,26.5 C36,25.397 36.897,24.5 38,24.5 L38,26.5 L36,26.5 Z M10,29.5 L38,29.5 L38,28.5 L10,28.5 L10,29.5 Z M10,32.5 L38,32.5 L38,31.5 L10,31.5 L10,32.5 Z M38,35.5 L10,35.563 L10,34.5 L38,34.5 L38,35.5 Z M9.969,12.5 L38,12.469 L38,14.5 C36.897,14.5 36,13.603 36,12.5 L34,12.5 C34,14.706 35.794,16.5 38,16.5 L38,22.5 C35.794,22.5 34,24.294 34,26.5 L14,26.5 C14,24.294 12.206,22.5 10,22.5 L10,24.5 C11.103,24.5 12,25.397 12,26.5 L9.998,26.5 L9.969,12.5 Z M38.031,10.5 C39.117,10.5 40,11.383 40,12.469 L40,26.5 L40,28.5 L40,29.5 L40,31.5 L40,32.5 L40,34.5 L40,35.563 C40,36.631 39.131,37.5 38.063,37.5 L9.938,37.5 C8.869,37.5 8,36.631 8,35.563 L8,34.5 L8,32.5 L8,31.5 L8,29.5 L8,28.5 L8,26.5 L8,12.469 C8,11.383 8.883,10.5 9.969,10.5 L38.031,10.5 Z M24,16.5 C25.654,16.5 27,17.846 27,19.5 C27,21.154 25.654,22.5 24,22.5 C22.346,22.5 21,21.154 21,19.5 C21,17.846 22.346,16.5 24,16.5 Z M24,24.5 C26.757,24.5 29,22.257 29,19.5 C29,16.743 26.757,14.5 24,14.5 C21.243,14.5 19,16.743 19,19.5 C19,22.257 21.243,24.5 24,24.5 Z M14,12.5 L12,12.5 C12,13.603 11.103,14.5 10,14.5 L10,16.5 C12.206,16.5 14,14.706 14,12.5 Z"/>
</svg>
