<svg width="16" height="18" viewBox="0 0 16 18" xmlns="http://www.w3.org/2000/svg"><g id="Empty-states" fill="none" fill-rule="evenodd"><g id="Calendar-Icon"><rect id="Rectangle-9" fill="#13C1AC" x="4" width="1" height="5" rx=".5"/><rect id="Rectangle-9" fill="#13C1AC" x="11" width="1" height="5" rx=".5"/><path id="Rectangle-8" fill="#13C1AC" d="M1 7h15v1H1z"/><path d="M1 5.01v9.98C1 16.108 1.895 17 3.01 17h9.98c1.117 0 2.01-.895 2.01-2.01V5.01C15 3.892 14.105 3 12.99 3H3.01C1.892 3 1 3.895 1 5.01zm-1 0A3.003 3.003 0 0 1 3.01 2h9.98A3.003 3.003 0 0 1 16 5.01v9.98A3.003 3.003 0 0 1 12.99 18H3.01A3.003 3.003 0 0 1 0 14.99V5.01z" id="Rectangle-6" fill="#27C8B5" fill-rule="nonzero"/></g></g></svg>