<svg width="19" height="16" viewBox="0 0 19 16" xmlns="http://www.w3.org/2000/svg"><title>3D309A5B-5A75-435D-BE4D-1A2B685A037B</title><g fill="#31C571" fill-rule="evenodd"><path d="M9.397 2.696L7.693 4.4a.628.628 0 0 1-.89.005.629.629 0 0 1 .006-.89l2.64-2.64A.667.667 0 0 1 9.455.87a.619.619 0 0 1 .44-.182.618.618 0 0 1 .45.188l2.64 2.64a.628.628 0 0 1 .005.89.629.629 0 0 1-.89-.006l-1.703-1.704V7.96a.507.507 0 0 1-.5.504.507.507 0 0 1-.5-.504V2.696z"/><path d="M1.93 8.99l-.002.003c-.1.1-.152.237-.147.383l.084 2.328c.066.558.37.965 1.849 1.54.038.016 2.923 1.188 6.181 1.266 3.272.078 6.584-1.126 6.618-1.138 1.097-.388 1.394-.658 1.332-1.204l-.058-2.382a.53.53 0 0 0-.17-.375.527.527 0 0 0-.386-.145l-2.819.12c-.192.01-.43.02-.412.607l.043 2.036a.454.454 0 0 1-.318.447c-.044.014-1.114.337-3.878.272-2.798-.067-4.246-.8-4.307-.832a.509.509 0 0 1-.275-.453l.022-1.911c-.07-.641-.202-.644-.4-.65l-2.579-.06a.512.512 0 0 0-.377.149m16.426 4.493c-.418.418-1.035.636-1.481.793-.136.05-3.507 1.275-6.958 1.193-3.446-.082-6.4-1.285-6.525-1.336-1.424-.555-2.342-1.152-2.485-2.403L.822 9.364c-.014-.405.13-.782.407-1.062l.007-.007a1.42 1.42 0 0 1 1.05-.414l2.579.062c1.217.028 1.34 1.197 1.38 1.58a.516.516 0 0 1 .003.056l-.018 1.605c.51.193 1.72.559 3.594.603 1.754.042 2.775-.079 3.25-.161l-.034-1.653c-.03-.945.439-1.51 1.285-1.546l2.82-.12v-.001c.404-.017.809.136 1.11.42.303.283.482.678.492 1.083l.055 2.339c.07.597-.131 1.023-.445 1.336"/></g></svg>