<svg width="21" height="21" viewBox="0 0 21 21" xmlns="http://www.w3.org/2000/svg"><g id="Symbols" fill="none" fill-rule="evenodd"><g id="calls/row-tlf-compartido" transform="translate(-640 -28)" fill="#56ACFF"><g id="Page-1" transform="translate(640 28)"><path d="M16.3 13.653c-.035.013-3.468 1.25-6.864 1.158-3.381-.093-6.38-1.32-6.42-1.336-1.535-.602-1.853-1.026-1.923-1.605L.998 9.453a.527.527 0 0 1 .15-.397l.003-.002a.527.527 0 0 1 .392-.153l2.676.072c.205.007.34.01.417.675l-.015 1.984a.53.53 0 0 0 .287.47c.062.033 1.568.8 4.473.88 2.867.077 3.977-.254 4.023-.268a.467.467 0 0 0 .328-.462l-.052-2.114c-.021-.61.226-.62.426-.628l2.925-.115a.552.552 0 0 1 .4.152.559.559 0 0 1 .179.39l.068 2.472c.067.567-.24.847-1.378 1.244m2.372-1.262c.074.62-.133 1.062-.457 1.385-.433.433-1.073.657-1.535.818-.141.05-3.634 1.31-7.216 1.213-3.577-.097-6.647-1.356-6.777-1.41-1.48-.581-2.434-1.204-2.588-2.503L0 9.437c-.015-.42.133-.81.42-1.1l.006-.007a1.465 1.465 0 0 1 1.088-.426l2.678.073c1.263.034 1.395 1.247 1.438 1.646a.375.375 0 0 1 .002.058l-.012 1.665c.53.202 1.786.586 3.732.639 1.82.049 2.879-.072 3.373-.156l-.042-1.715c-.035-.981.449-1.565 1.328-1.6l2.925-.115v-.001c.42-.016.84.144 1.155.44.315.295.502.706.514 1.126l.066 2.427zM6.852 3.772a.642.642 0 0 1-.91 0 .65.65 0 0 1 0-.91L8.567.236A.643.643 0 0 1 9.073.05a.628.628 0 0 1 .69.14l2.748 2.747a.624.624 0 1 1-.884.883l-1.91-1.91V7.54a.52.52 0 0 1-.515.514.516.516 0 0 1-.515-.514V1.937L6.852 3.772z" id="Combined-Shape"/></g></g></g></svg>
