<svg width="15" height="17" viewBox="0 0 15 17" xmlns="http://www.w3.org/2000/svg"><title>80D2B630-F617-47FF-B9E2-24C25F0E28FC</title><g fill="#31C571" fill-rule="evenodd"><path d="M3.162 1.475h-.004a.511.511 0 0 0-.374.166L1.197 3.347c-.349.44-.42.944.217 2.397.016.037 1.228 2.907 3.476 5.265 2.259 2.368 5.452 3.86 5.485 3.875 1.05.502 1.45.52 1.793.091l1.643-1.725a.53.53 0 0 0 .144-.386.527.527 0 0 0-.17-.375l-2.078-1.908c-.142-.13-.318-.292-.72.137l-1.41 1.47a.454.454 0 0 1-.54.092c-.041-.022-1.027-.55-2.935-2.55-1.931-2.026-2.436-3.57-2.457-3.634a.509.509 0 0 1 .126-.515l1.367-1.336c.403-.503.312-.598.176-.741l-1.78-1.867a.512.512 0 0 0-.372-.162M11.6 16.267c-.592 0-1.183-.282-1.61-.486-.13-.061-3.38-1.578-5.763-4.077C1.85 9.21.611 6.27.56 6.146c-.615-1.4-.842-2.47-.059-3.457L2.113.954c.276-.296.645-.46 1.04-.462h.009c.39 0 .758.16 1.035.45l1.78 1.866c.84.882.102 1.795-.141 2.095a.516.516 0 0 1-.038.041L4.65 6.066c.225.497.821 1.61 2.115 2.968 1.211 1.27 2.018 1.906 2.413 2.184l1.144-1.193c.647-.69 1.378-.757 2.002-.184l2.08 1.908c.297.273.475.668.488 1.082.014.414-.139.82-.418 1.114l-1.615 1.692c-.373.472-.817.63-1.26.63M11.59 7.916a.48.48 0 0 1-.468-.492c0-.826-.286-1.58-.805-2.121a2.724 2.724 0 0 0-1.992-.828c-.005 0-.01-.002-.016 0a.48.48 0 0 1-.469-.49.48.48 0 0 1 .467-.494 3.59 3.59 0 0 1 2.672 1.115c.697.728 1.08 1.728 1.08 2.818a.48.48 0 0 1-.469.492M13.934 6.932a.48.48 0 0 1-.469-.491c0-1.32-.4-2.436-1.155-3.227-.75-.784-1.803-1.197-3.045-1.197h-.018a.48.48 0 0 1-.47-.49.48.48 0 0 1 .468-.494h.02c1.496 0 2.778.513 3.707 1.485.936.979 1.43 2.336 1.43 3.923a.48.48 0 0 1-.468.491"/></g></svg>