<svg width="19" height="9" viewBox="0 0 19 9" xmlns="http://www.w3.org/2000/svg"><title>9225FB20-39B1-46C4-BDC7-B06851FE6661</title><path d="M17.359 7.232l.002-.002c.1-.101.152-.237.147-.383l-.084-2.328c-.065-.558-.37-.965-1.848-1.541-.038-.015-2.924-1.188-6.182-1.265C6.123 1.635 2.81 2.839 2.777 2.85c-1.098.387-1.395.657-1.333 1.203l.059 2.382a.53.53 0 0 0 .17.375c.106.1.243.152.385.146l2.82-.121c.191-.009.43-.019.411-.607l-.043-2.036a.454.454 0 0 1 .318-.447c.044-.014 1.115-.337 3.878-.272 2.798.067 4.247.801 4.307.833.17.088.277.265.275.452l-.022 1.912c.071.64.202.644.4.649l2.58.06a.512.512 0 0 0 .377-.148M.932 2.739c.418-.418 1.036-.636 1.482-.794C2.55 1.895 5.92.67 9.37.752c3.447.082 6.4 1.286 6.525 1.336 1.424.556 2.342 1.153 2.486 2.404l.086 2.367c.014.405-.13.781-.408 1.062l-.006.006a1.42 1.42 0 0 1-1.05.414l-2.58-.061c-1.217-.029-1.34-1.197-1.38-1.58a.516.516 0 0 1-.003-.057l.019-1.605c-.511-.192-1.72-.558-3.595-.603-1.754-.041-2.774.08-3.25.162l.034 1.652c.03.945-.438 1.51-1.285 1.546l-2.82.121a1.542 1.542 0 0 1-1.11-.42 1.549 1.549 0 0 1-.492-1.082l-.055-2.34C.417 3.479.62 3.053.932 2.74" fill="#F6658F" fill-rule="evenodd"/></svg>