<svg xmlns="http://www.w3.org/2000/svg" width="51" height="44" viewBox="0 0 51 44">
    <path fill="#B0BEC5" fill-rule="evenodd" d="M3.09 8.92c0-2.359 2.266-3.682 4.14-3.682h28.573c4.673 0 7.966 1.17 10.041 3.734 2.036 2.516 2.065 5.378 2.065 6.236V29.71c0 1.214-.064 4.441-1.852 6.97-1.899 2.685-5.05 4.177-9.618 4.177h-20.11c-12.833 0-13.238-10.95-13.238-11.406V8.921zM16.329 44C3.144 44 0 33.767 0 29.451V8.921c0-3.743 3.046-6.333 6.297-6.757a1.593 1.593 0 0 1-.115-.593C6.182.703 6.874 0 7.727 0h5.152c.853 0 1.545.703 1.545 1.571 0 .185-.037.36-.095.524h21.474C48.682 2.095 51 10.738 51 15.208V29.71C51 34.134 49.365 44 36.439 44h-20.11zm15.03-27.79c4.27 0 7.744 3.533 7.744 7.876s-3.473 7.876-7.744 7.876-7.746-3.533-7.746-7.876 3.475-7.876 7.746-7.876zm0 18.895c5.976 0 10.835-4.943 10.835-11.019 0-6.076-4.86-11.019-10.835-11.019-5.975 0-10.837 4.943-10.837 11.019 0 6.076 4.862 11.019 10.837 11.019zM10.426 16.199c1.768 0 3.2-1.458 3.2-3.255s-1.432-3.254-3.2-3.254c-1.767 0-3.2 1.457-3.2 3.254s1.433 3.255 3.2 3.255z"/>
</svg>
