<svg xmlns="http://www.w3.org/2000/svg" width="51" height="44" viewBox="0 0 51 44">
  <path fill="#FD6C67" fill-rule="evenodd" d="M3.09,8.92 C3.09,6.561 5.356,5.238 7.23,5.238 L35.803,5.238 C40.476,5.238 43.769,6.408 45.844,8.972 C47.88,11.488 47.909,14.35 47.909,15.208 L47.909,29.71 C47.909,30.924 47.845,34.151 46.057,36.68 C44.158,39.365 41.007,40.857 36.439,40.857 L16.329,40.857 C3.496,40.857 3.091,29.907 3.091,29.451 L3.091,8.921 L3.09,8.92 Z M16.329,44 C3.144,44 0,33.767 0,29.451 L0,8.921 C0,5.178 3.046,2.588 6.297,2.164 C6.221198,1.97547663 6.18216303,1.77419197 6.182,1.571 C6.182,0.703 6.874,0 7.727,0 L12.879,0 C13.732,0 14.424,0.703 14.424,1.571 C14.424,1.756 14.387,1.931 14.329,2.095 L35.803,2.095 C48.682,2.095 51,10.738 51,15.208 L51,29.71 C51,34.134 49.365,44 36.439,44 L16.329,44 Z M31.359,16.21 C35.629,16.21 39.103,19.743 39.103,24.086 C39.103,28.429 35.63,31.962 31.359,31.962 C27.088,31.962 23.613,28.429 23.613,24.086 C23.613,19.743 27.088,16.21 31.359,16.21 Z M31.359,35.105 C37.335,35.105 42.194,30.162 42.194,24.086 C42.194,18.01 37.334,13.067 31.359,13.067 C25.384,13.067 20.522,18.01 20.522,24.086 C20.522,30.162 25.384,35.105 31.359,35.105 Z M10.426,16.199 C12.194,16.199 13.626,14.741 13.626,12.944 C13.626,11.147 12.194,9.69 10.426,9.69 C8.659,9.69 7.226,11.147 7.226,12.944 C7.226,14.741 8.659,16.199 10.426,16.199 Z"/>
</svg>
