<svg width="18" height="10" viewBox="0 0 18 10" xmlns="http://www.w3.org/2000/svg"><path d="M6.965 1.086h4.449c.172 0 .332.076.44.21l1.723 2.128.107.1c.121.087.254.154.393.2l1.933.644a.402.402 0 0 1 .276.383v2.09a.217.217 0 0 1-.216.216h-.825a1.625 1.625 0 0 0-1.402-.814c-.6 0-1.12.33-1.402.814H5.474a1.625 1.625 0 0 0-1.403-.814c-.6 0-1.119.33-1.402.814H1.49a.404.404 0 0 1-.403-.403V4.75c0-.175.11-.33.229-.372l2.458-.584c.01 0 .017.005.027.005h2.714a.543.543 0 0 0 0-1.086H5.078c.363-.353.845-.825 1.498-1.47a.552.552 0 0 1 .39-.158m6.877 7.328a.544.544 0 0 1 0-1.085.544.544 0 0 1 0 1.085m-9.772 0a.544.544 0 0 1 0-1.085.544.544 0 0 1 0 1.085m-.607-5.66l-2.446.582A1.489 1.489 0 0 0 0 4.751v1.903c0 .821.668 1.489 1.49 1.489h.98c.13.769.796 1.357 1.601 1.357.805 0 1.472-.588 1.601-1.357h6.57c.13.769.796 1.357 1.6 1.357.806 0 1.472-.588 1.602-1.357h.626c.717 0 1.301-.584 1.301-1.302v-2.09c0-.642-.409-1.21-1.018-1.413l-1.935-.645a.332.332 0 0 1-.053-.023L12.698.612A1.646 1.646 0 0 0 11.414 0H6.965c-.434 0-.843.168-1.152.472C4.395 1.869 3.69 2.549 3.464 2.754" fill="#607D8B" fill-rule="evenodd"/></svg>