<?xml version="1.0" encoding="UTF-8"?>
<svg width="18px" height="10px" viewBox="0 0 18 10" version="1.1" xmlns="http://www.w3.org/2000/svg" xmlns:xlink="http://www.w3.org/1999/xlink">
    <!-- Generator: Sketch 49.2 (51160) - http://www.bohemiancoding.com/sketch -->
    <title>Fill 1</title>
    <desc>Created with Sketch.</desc>
    <defs></defs>
    <g id="pro-profile" stroke="none" stroke-width="1" fill="none" fill-rule="evenodd">
        <g id="CALLS-PENDING" transform="translate(-254.000000, -836.000000)" fill="#607D8B">
            <path d="M260.9654,837.085714 L265.413571,837.085714 C265.585657,837.085714 265.7458,837.162257 265.853829,837.2958 L267.5774,839.4238 L267.684343,839.524229 C267.8054,839.610543 267.937857,839.677857 268.076829,839.723457 L270.009943,840.368371 C270.174971,840.4232 270.285714,840.576829 270.285714,840.750543 L270.285714,842.841086 C270.285714,842.959971 270.188543,843.057143 270.069657,843.057143 L269.245057,843.057143 C268.962229,842.572914 268.442714,842.242857 267.842857,842.242857 C267.242457,842.242857 266.723486,842.572914 266.440657,843.057143 L259.473629,843.057143 C259.1908,842.572914 258.671286,842.242857 258.071429,842.242857 C257.471029,842.242857 256.952057,842.572914 256.669229,843.057143 L255.489057,843.057143 C255.266486,843.057143 255.085714,842.876371 255.085714,842.6538 L255.085714,840.750543 C255.085714,840.575743 255.196457,840.421029 255.3148,840.379229 L257.772857,839.794571 C257.782629,839.795114 257.790229,839.8 257.8,839.8 L260.514286,839.8 C260.813943,839.8 261.057143,839.5568 261.057143,839.257143 C261.057143,838.957486 260.813943,838.714286 260.514286,838.714286 L259.077886,838.714286 C259.440514,838.361429 259.922571,837.8886 260.575629,837.244771 C260.679857,837.142171 260.818286,837.085714 260.9654,837.085714 M267.842857,844.414286 C267.543743,844.414286 267.3,844.170543 267.3,843.871429 C267.3,843.572314 267.543743,843.328571 267.842857,843.328571 C268.141971,843.328571 268.385714,843.572314 268.385714,843.871429 C268.385714,844.170543 268.141971,844.414286 267.842857,844.414286 M258.071429,844.414286 C257.772314,844.414286 257.528571,844.170543 257.528571,843.871429 C257.528571,843.572314 257.772314,843.328571 258.071429,843.328571 C258.370543,843.328571 258.614286,843.572314 258.614286,843.871429 C258.614286,844.170543 258.370543,844.414286 258.071429,844.414286 M257.463971,838.754457 L255.017857,839.3364 C254.409314,839.539429 254,840.1078 254,840.750543 L254,842.6538 C254,843.475143 254.667714,844.142857 255.489057,844.142857 L256.47,844.142857 C256.600286,844.911543 257.266371,845.5 258.071429,845.5 C258.876486,845.5 259.542571,844.911543 259.672314,844.142857 L266.241429,844.142857 C266.371714,844.911543 267.0378,845.5 267.842857,845.5 C268.647914,845.5 269.314,844.911543 269.443743,844.142857 L270.069657,844.142857 C270.787314,844.142857 271.371429,843.558743 271.371429,842.841086 L271.371429,840.750543 C271.371429,840.108886 270.962114,839.541057 270.353029,839.338029 L268.418286,838.693114 C268.399829,838.687143 268.381914,838.679543 268.364543,838.670314 L266.697971,836.612343 C266.382571,836.223114 265.914629,836 265.413571,836 L260.9654,836 C260.531114,836 260.1218,836.167743 259.813457,836.471743 C258.394971,837.869057 257.689257,838.549257 257.463971,838.754457" id="Fill-1"></path>
        </g>
    </g>
</svg>