<svg xmlns="http://www.w3.org/2000/svg" width="32" height="22" viewBox="0 0 32 22">
    <g fill="none" fill-rule="evenodd">
        <path fill="#ECEFF1" d="M3 0h26a3 3 0 0 1 3 3v16a3 3 0 0 1-3 3H3a3 3 0 0 1-3-3V3a3 3 0 0 1 3-3z"/>
        <path fill="#FFF" fill-rule="nonzero" d="M16 4.755a8 8 0 1 1 0 12.49 8 8 0 1 1 0-12.49z"/>
        <circle cx="21" cy="11" r="8" fill="#F59D31" fill-rule="nonzero"/>
        <circle cx="11" cy="11" r="8" fill="#E80C26" fill-rule="nonzero"/>
        <path fill="#FC6020" fill-rule="nonzero" d="M16 17.245A7.985 7.985 0 0 1 13 11a7.985 7.985 0 0 1 3-6.245A7.985 7.985 0 0 1 19 11a7.985 7.985 0 0 1-3 6.245z"/>
    </g>
</svg>
