<svg xmlns="http://www.w3.org/2000/svg" width="32" height="22" viewBox="0 0 32 22">
    <g fill="none" fill-rule="evenodd">
        <path fill="#ECEFF1" d="M3 0h26a3 3 0 0 1 3 3v16a3 3 0 0 1-3 3H3a3 3 0 0 1-3-3V3a3 3 0 0 1 3-3z"/>
        <path fill="#1565C0" fill-rule="nonzero" d="M9.285 6.619l-2.001 5.967s-.508-2.524-.559-2.84c-1.139-2.6-2.82-2.455-2.82-2.455L5.887 15v-.002h2.409l3.33-8.379h-2.34zM11.192 15h2.187l1.323-8.381h-2.215L11.192 15zm15.48-8.381h-2.301L20.782 15h2.173l.448-1.197h2.74L26.376 15h1.991l-1.694-8.381zm-2.662 5.583l1.19-3.167.624 3.167H24.01zm-6.205-3.14c0-.462.38-.806 1.467-.806.707 0 1.517.514 1.517.514l.355-1.76s-1.034-.392-2.05-.392c-2.3 0-3.486 1.1-3.486 2.493 0 2.52 3.031 2.174 3.031 3.468 0 .221-.176.734-1.438.734-1.267 0-2.102-.464-2.102-.464l-.377 1.689s.81.461 2.374.461c1.57 0 3.745-1.173 3.745-2.858 0-2.028-3.036-2.174-3.036-3.08z"/>
        <path fill="#FFC107" fill-rule="nonzero" d="M7.019 11.149L6.283 7.53s-.333-.784-1.199-.784H1.701s4.313 1.274 5.318 4.402z"/>
    </g>
</svg>
