<?xml version="1.0" encoding="UTF-8"?>
<svg width="10px" height="6px" viewBox="0 0 10 6" version="1.1" xmlns="http://www.w3.org/2000/svg" xmlns:xlink="http://www.w3.org/1999/xlink">
    <!-- Generator: sketchtool 41.2 (35397) - http://www.bohemiancoding.com/sketch -->
    <title>19A8C5E2-4CF8-4180-87C4-749DB1696DF4</title>
    <desc>Created with sketchtool.</desc>
    <defs></defs>
    <g id="Navigation" stroke="none" stroke-width="1" fill="none" fill-rule="evenodd">
        <g id="MVP-1.2---Catalogs-+-Mark-as-Sold" transform="translate(-1436.000000, -180.000000)" stroke="#78909C">
            <path d="M1439.09299,186.124383 C1438.969,186.248257 1438.969,186.449248 1439.09299,186.573121 C1439.15499,186.635111 1439.23624,186.666106 1439.31739,186.666106 C1439.39864,186.666106 1439.47979,186.635111 1439.54178,186.573121 L1442.80084,183.314532 C1443.06639,183.049118 1443.06639,182.617094 1442.80084,182.35168 L1439.54178,179.092985 C1439.41779,178.969005 1439.21699,178.969005 1439.09299,179.092985 C1438.969,179.216858 1438.969,179.417955 1439.09299,179.541723 L1442.35205,182.800418 C1442.36316,182.811632 1442.36559,182.824432 1442.36559,182.833106 C1442.36559,182.84178 1442.36316,182.85458 1442.35205,182.865688 L1439.09299,186.124383 Z" id="Down_arrow" transform="translate(1441.000000, 182.833053) rotate(-270.000000) translate(-1441.000000, -182.833053) "></path>
        </g>
    </g>
</svg>