<svg xmlns="http://www.w3.org/2000/svg" width="23" height="22" viewBox="0 0 23 22"><path fill="#253238" fill-rule="evenodd" d="M18.879 20.2a.8.8 0 1 1 0-1.6.8.8 0 0 1 0 1.6m0-3.2c1.323 0 2.4 1.077 2.4 2.4s-1.077 2.4-2.4 2.4a2.403 2.403 0 0 1-2.4-2.4c0-1.323 1.076-2.4 2.4-2.4zm-9.6 0c1.323 0 2.4 1.077 2.4 2.4s-1.077 2.4-2.4 2.4a2.403 2.403 0 0 1-2.4-2.4c0-1.323 1.076-2.4 2.4-2.4zm0 3.2a.8.8 0 1 0-.001-1.6.8.8 0 0 0 0 1.6zM21.977 8.282a2.4 2.4 0 0 1 .497 2.001l-.938 4.635a1.575 1.575 0 0 1-1.552 1.282H8.432c-.71 0-1.337-.478-1.526-1.163L4.047 2.685A1.137 1.137 0 0 0 2.934 1.8H1.278a.8.8 0 1 1 0-1.6h1.656a2.73 2.73 0 0 1 2.672 2.124l1.176 5.082a.755.755 0 0 1 .096-.006h13.237a2.4 2.4 0 0 1 1.862.882zM19.984 14.6l.92-4.634a.8.8 0 0 0-.166-.67.801.801 0 0 0-.623-.296H7.151l1.307 5.645 11.526-.045z"/></svg>