<svg width="38" height="38" viewBox="0 0 38 38" xmlns="http://www.w3.org/2000/svg"><g id="Nav" fill="none" fill-rule="evenodd"><g id="Categories_Selected_Mobile-" transform="translate(-80 -226)" fill="#AEAEAE"><path d="M107.417 237.75v-1.583A3.17 3.17 0 0 0 104.25 233H93.167A3.17 3.17 0 0 0 90 236.167v19a3.17 3.17 0 0 0 3.167 3.166h11.083a3.17 3.17 0 0 0 3.167-3.166v-11.084a.792.792 0 0 0 .791-.791v-.792a.792.792 0 0 0-.791-.792v-1.583a.792.792 0 0 0 .791-.792v-.791a.792.792 0 0 0-.791-.792zm-1.584 17.417c0 .873-.71 1.583-1.583 1.583H93.167c-.874 0-1.584-.71-1.584-1.583v-19c0-.874.71-1.584 1.584-1.584h11.083c.873 0 1.583.71 1.583 1.584v19zm-2.375-19h-9.5a.792.792 0 0 0 0 1.583h9.5a.792.792 0 0 0 0-1.583zm0 15.833h-9.5a.792.792 0 0 0 0 1.583h9.5a.792.792 0 0 0 0-1.583zm-3.958 2.375h-.792a.792.792 0 0 0 0 1.583h.792a.792.792 0 0 0 0-1.583z" id="Combined-Shape"/></g></g></svg>