<svg width="38" height="38" viewBox="0 0 38 38" xmlns="http://www.w3.org/2000/svg"><path d="M8.583 18.515a8.7 8.7 0 0 0 2.685.435 8.713 8.713 0 0 0 5.576-2.021l1.707 1.707-5.598 5.598a.792.792 0 0 0 1.12 1.12l5.597-5.598 1.709 1.707a8.708 8.708 0 0 0-1.604 8.225c-.047 0-.093.007-.14.007-2.953 0-5.73-1.151-7.819-3.24a10.986 10.986 0 0 1-3.239-7.819c0-.041.005-.08.006-.12zm2.717-7.13l4.411 4.41a7.115 7.115 0 0 1-6.986 1.097 10.945 10.945 0 0 1 2.575-5.507zm1.12-1.118a10.944 10.944 0 0 1 5.513-2.547 7.117 7.117 0 0 1-1.102 6.956l-4.41-4.409zm15.035.55a10.99 10.99 0 0 1 3.24 7.82c0 .03-.005.06-.006.092a8.71 8.71 0 0 0-8.19 1.615l-1.709-1.708 5.598-5.598a.792.792 0 0 0-1.12-1.12l-5.598 5.599-1.707-1.709a8.707 8.707 0 0 0 1.601-8.227c.024 0 .048-.004.071-.004 2.954 0 5.731 1.15 7.82 3.24zm.55 15.033l-4.375-4.374a7.12 7.12 0 0 1 6.919-1.116 10.94 10.94 0 0 1-2.545 5.49zm-5.494-3.255l4.375 4.377a10.942 10.942 0 0 1-5.482 2.57 7.116 7.116 0 0 1 1.107-6.947zm-2.876 8.677a12.6 12.6 0 0 0 8.94-3.697c4.929-4.929 4.929-12.95 0-17.878-4.929-4.93-12.95-4.93-17.878 0-4.93 4.929-4.93 12.949 0 17.878a12.599 12.599 0 0 0 8.938 3.697z" fill="#AEAEAE" fill-rule="evenodd"/></svg>