<svg width="38" height="38" viewBox="0 0 38 38" xmlns="http://www.w3.org/2000/svg"><g id="Nav" fill="none" fill-rule="evenodd"><g id="Categories_Selected_Mobile-" transform="translate(-80 -501)" fill="#AEAEAE"><path d="M109.75 519.098a.111.111 0 0 1-.042.088.114.114 0 0 1-.096.025l-1.789-.358c-.15-.03-.3-.034-.448-.024v-1.792a.792.792 0 0 0-1.583 0v9.5h-14.25v-9.5a.792.792 0 0 0-1.584 0v1.792c-.038-.002-.075-.01-.113-.01-.111 0-.224.012-.336.034l-1.787.358a.113.113 0 0 1-.096-.024.112.112 0 0 1-.043-.09v-6.25c0-.043.025-.083.064-.102l6.3-3.15a.088.088 0 0 1 .081-.004c.02.008.068.037.09.11a4.781 4.781 0 0 0 4.549 3.378 4.781 4.781 0 0 0 4.549-3.378.163.163 0 0 1 .089-.11.087.087 0 0 1 .082.004l6.3 3.15a.114.114 0 0 1 .063.103v6.25zm-4.074 11.397H91.657a.115.115 0 0 1-.115-.115v-2.26h14.25v2.26a.115.115 0 0 1-.116.115zm4.718-19.166l-6.3-3.15a1.676 1.676 0 0 0-1.417-.041 1.746 1.746 0 0 0-.977 1.106 3.188 3.188 0 0 1-3.033 2.251 3.188 3.188 0 0 1-3.033-2.251c-.15-.5-.507-.903-.978-1.106a1.673 1.673 0 0 0-1.416.04l-6.3 3.15c-.58.29-.94.872-.94 1.52v6.25c0 .51.226.99.621 1.313.395.324.909.452 1.411.352l1.789-.357a.117.117 0 0 1 .095.024.11.11 0 0 1 .042.089v9.861a1.7 1.7 0 0 0 1.7 1.699h14.018a1.7 1.7 0 0 0 1.699-1.7V520.52a.11.11 0 0 1 .042-.089.113.113 0 0 1 .096-.024l1.789.357c.5.1 1.015-.028 1.41-.352.395-.324.621-.803.621-1.313v-6.25c0-.647-.36-1.23-.939-1.519z" id="Fill-36"/></g></g></svg>