<svg width="38" height="38" viewBox="0 0 38 38" xmlns="http://www.w3.org/2000/svg"><path d="M27.417 11.75v-1.583A3.17 3.17 0 0 0 24.25 7H13.167A3.17 3.17 0 0 0 10 10.167v19a3.17 3.17 0 0 0 3.167 3.166H24.25a3.17 3.17 0 0 0 3.167-3.166V18.083a.792.792 0 0 0 .791-.791V16.5a.792.792 0 0 0-.791-.792v-1.583a.792.792 0 0 0 .791-.792v-.791a.792.792 0 0 0-.791-.792zm-1.584 17.417c0 .873-.71 1.583-1.583 1.583H13.167c-.874 0-1.584-.71-1.584-1.583v-19c0-.874.71-1.584 1.584-1.584H24.25c.873 0 1.583.71 1.583 1.584v19zm-2.375-19h-9.5a.792.792 0 0 0 0 1.583h9.5a.792.792 0 0 0 0-1.583zm0 15.833h-9.5a.792.792 0 0 0 0 1.583h9.5a.792.792 0 0 0 0-1.583zM19.5 28.375h-.792a.792.792 0 0 0 0 1.583h.792a.792.792 0 0 0 0-1.583z" fill="#AEAEAE" fill-rule="evenodd"/></svg>