<svg width="38" height="38" viewBox="0 0 38 38" xmlns="http://www.w3.org/2000/svg"><g id="Nav" fill="none" fill-rule="evenodd"><g id="Categories_Selected_Mobile-" transform="translate(-80 -63)" fill="#AEAEAE"><g id="Group-21" transform="translate(87 71)"><path d="M2.139 21.375l3.24-5.816c.811 2.305 3.718 3.969 7.288 3.969 3.55 0 6.445-1.647 7.274-3.932l3.248 5.779H2.139zM12.663 2.648l4 7.113c-1.153-.498-2.516-.789-3.996-.789-1.504 0-2.887.3-4.05.812l4.046-7.136zm.004 7.907c3.219 0 5.937 1.693 5.937 3.695s-2.718 3.695-5.937 3.695c-3.219 0-5.938-1.693-5.938-3.695s2.72-3.695 5.938-3.695zm.69-10.028c-.14-.25-.403-.527-.689-.527-.286 0-.55.276-.69.524l-5.94 10.599L.1 21.78a.791.791 0 0 0 .692 1.177h23.75c.28 0 .541-.18.684-.422a.85.85 0 0 0 .006-.818L13.357.528zm-.69 12.14c.873 0 1.583.71 1.583 1.583s-.71 1.583-1.583 1.583-1.583-.71-1.583-1.583.71-1.583 1.583-1.583zm0 4.75a3.17 3.17 0 0 0 3.167-3.167 3.17 3.17 0 0 0-3.167-3.167A3.17 3.17 0 0 0 9.5 14.25a3.17 3.17 0 0 0 3.167 3.167zM19.792 4.75a.79.79 0 0 0 .56-.232l2.375-2.375a.79.79 0 1 0-1.12-1.12L19.232 3.4a.79.79 0 0 0 .56 1.351zm.8 3.958c0 .433.35.792.783.792h3.167a.79.79 0 0 0 .783-.792.79.79 0 0 0-.783-.791h-3.167a.79.79 0 0 0-.783.791zm-15.61-4.19a.79.79 0 0 0 1.12 0 .79.79 0 0 0 0-1.12L3.727 1.025a.79.79 0 1 0-1.12 1.119l2.375 2.375zM.792 9.5h3.167a.792.792 0 0 0 0-1.583H.792a.792.792 0 0 0 0 1.583z" id="Combined-Shape"/></g></g></g></svg>