<svg xmlns="http://www.w3.org/2000/svg" width="38" height="38" viewBox="0 0 38 38"><path fill="#333" fill-rule="evenodd" d="M14.17 29C11.286 29 9 26.663 9 23.78v-9.66C9 11.235 11.287 9 14.17 9h9.66C26.714 9 29 11.236 29 14.12v9.66c0 2.883-2.287 5.22-5.17 5.22h-9.66zm-3.958-14.88v9.66c0 2.21 1.748 4.008 3.957 4.008h9.662c2.21 0 3.957-1.798 3.957-4.008v-9.66c0-2.21-1.748-3.908-3.957-3.908h-9.662c-2.21 0-3.957 1.697-3.957 3.907zm12.706 8.852a.606.606 0 1 1 0 1.213h-7.879a.606.606 0 1 1 0-1.213h7.879zm-10.207-3.445a.606.606 0 1 1 0-1.212H24.63a.606.606 0 1 1 0 1.212H12.71zm2.328-4.657a.606.606 0 1 1 0-1.213h7.879a.606.606 0 1 1 0 1.213h-7.879z"/></svg>