<svg width="38" height="38" viewBox="0 0 38 38" xmlns="http://www.w3.org/2000/svg"><path d="M28.95 29.375h-1.583a.785.785 0 0 1-.784-.784v-.8a.78.78 0 0 0-.053-.268 48.522 48.522 0 0 0 2.66-.28c.197-.027.382-.085.56-.154v1.502a.802.802 0 0 1-.8.784zM8.358 25.674a.905.905 0 0 1-.775-.897V22.49c1.962.263 5.453.57 11.084.57 5.63 0 9.121-.307 11.083-.57v2.287a.905.905 0 0 1-.774.897c-1.778.244-5.01.534-10.31.534-5.298 0-8.53-.29-10.308-.534zm2.392 2.118v.8a.802.802 0 0 1-.8.783H8.367a.785.785 0 0 1-.784-.784V27.09c.18.07.364.127.56.154.675.092 1.553.19 2.662.28a.78.78 0 0 0-.055.269zm1.07-16.533c.505-1.513 2.068-1.676 2.717-1.676h8.26c.648 0 2.212.163 2.734 1.725l1.488 3.65c-.265-.088-.61-.229-1.029-.399-1.66-.677-4.442-1.809-7.323-1.809-2.881 0-5.662 1.132-7.324 1.809-.432.176-.79.323-1.059.41-.008.003-.017.004-.025.006l1.561-3.716zm14.821 8.376a52.803 52.803 0 0 0 3.109-.313v1.592c-.036 0-.07-.012-.107-.007-1.168.16-2.927.34-5.425.452.096-1.53 2.323-1.717 2.423-1.724zM14.706 21.42c-.028-2.452-2.56-3.273-3.897-3.362a51.212 51.212 0 0 1-3.118-.317c-.037-.005-.071.006-.108.006v-.196c0-.464.378-.842.842-.842h.861c.51 0 1.01-.078 1.487-.232.295-.097.692-.257 1.168-.45 1.654-.675 4.154-1.693 6.726-1.693 2.571 0 5.072 1.018 6.726 1.692.476.194.873.354 1.168.45a4.82 4.82 0 0 0 1.486.233h.862c.464 0 .841.378.841.842v.196c-.036 0-.07-.012-.107-.006-.9.123-1.947.23-3.113.316-1.343.09-3.874.911-3.903 3.363-1.18.035-2.494.057-3.96.057-1.466 0-2.78-.022-3.961-.057zm-7.123-2.097c.908.122 1.951.228 3.115.313.023.002 2.32.179 2.418 1.724-2.499-.113-4.257-.292-5.425-.452-.037-.005-.071.007-.108.007v-1.592zm22.292-3.994l1.226-1.227a.79.79 0 1 0-1.119-1.119l-1.462 1.463-1.504-3.687C26.448 9.057 24.83 8 22.796 8h-8.259c-2.035 0-3.652 1.057-4.197 2.702l-1.56 3.707-1.429-1.427a.79.79 0 1 0-1.119 1.12l1.227 1.226A2.426 2.426 0 0 0 6 17.55v7.227c0 .15.015.296.04.439-.017.065-.04.13-.04.2v3.175a2.37 2.37 0 0 0 2.367 2.367H9.95a2.377 2.377 0 0 0 2.383-2.367v-.8c0-.059-.021-.111-.033-.166 1.691.098 3.789.167 6.367.167s4.675-.07 6.367-.167c-.013.055-.034.107-.034.167v.8a2.37 2.37 0 0 0 2.367 2.366h1.583a2.377 2.377 0 0 0 2.383-2.367v-3.174c0-.072-.023-.136-.04-.201a2.43 2.43 0 0 0 .04-.439V17.55c0-.994-.601-1.848-1.458-2.222zm-8.833 8.505h-.009c-.505 0-1.82.009-2.366.009s-1.861-.009-2.366-.009h-.01a.796.796 0 0 0-.008 1.592c.51.006 1.834.01 2.384.01.55 0 1.874-.006 2.384-.012a.793.793 0 0 0 .783-.802.796.796 0 0 0-.792-.788zm-.792-3.958a.792.792 0 0 0-.791-.792h-1.584a.792.792 0 0 0 0 1.584h1.584a.792.792 0 0 0 .791-.792z" fill="#AEAEAE" fill-rule="evenodd"/></svg>