<svg width="38" height="38" viewBox="0 0 38 38" xmlns="http://www.w3.org/2000/svg"><path d="M24.388 27.133c-.08.062-1.936 1.436-7.14 1.436-2.978 0-5.18-.756-6.503-1.39-.393-.19-.78-.677-1.114-1.292 1.647.375 3.23.526 4.671.526 2.452 0 4.557-.405 5.858-.75 1.076-.283 1.88-1.261 1.88-2.377v-4.82c0-1.053-.354-2.078-.925-2.963-.734-1.14-1.968-1.948-3.427-2.276l-5.681-1.273c1.135-1.061 2.576-1.855 4.416-2.21a9.585 9.585 0 0 1 1.82-.175c2.143 0 4.232.718 5.928 2.07 2.102 1.674 3.311 4.07 3.405 6.745.113 3.21-1.317 7.131-3.188 8.75M10.808 13.31l6.506 1.461c1.036.233 1.97.812 2.47 1.59.405.629.672 1.357.672 2.106v4.819c0 .398-.319.746-.7.847-2.087.552-6.28 1.271-10.827-.062a7.518 7.518 0 0 1-.267-1.33c-.273-3.15.258-6.774 2.146-9.431m18.35 5.137c-.11-3.145-1.532-6.072-4.002-8.04a11.112 11.112 0 0 0-9.04-2.203c-7.01 1.351-9.594 8.364-9.045 14.702.157 1.807 1.216 4.906 2.989 5.757 1.47.706 3.912 1.604 7.187 1.604 5.883 0 7.949-1.698 8.164-1.698h.002c2.489-2.375 3.858-6.884 3.744-10.122zM18.08 23.028a.792.792 0 0 0 .792-.792v-4.75a.792.792 0 0 0-1.583 0v4.75c0 .437.354.792.791.792zm5.542-3.958a.792.792 0 0 0-.792.791v.792a.792.792 0 0 0 1.584 0v-.792a.792.792 0 0 0-.792-.791z" fill="#AEAEAE" fill-rule="evenodd"/></svg>