<svg width="48" height="48" viewBox="0 0 48 48" xmlns="http://www.w3.org/2000/svg"><g id="Styleguide" fill="none" fill-rule="evenodd"><g id="icons" transform="translate(-90 -1917)" fill="#000"><g id="Group-21" transform="translate(98 1927)"><path d="M2.702 27l4.093-7.347c1.024 2.912 4.696 5.014 9.205 5.014 4.485 0 8.142-2.08 9.189-4.967L29.29 27H2.7zM15.996 3.345l5.05 8.985c-1.454-.63-3.176-.997-5.046-.997-1.9 0-3.646.378-5.115 1.026l5.11-9.014zM16 13.333c4.066 0 7.5 2.138 7.5 4.667s-3.434 4.667-7.5 4.667c-4.065 0-7.5-2.138-7.5-4.667s3.435-4.667 7.5-4.667zM16.872.666c-.177-.315-.51-.666-.87-.666H16c-.361 0-.693.349-.871.662L7.627 14.05l-7.5 13.463A1 1 0 0 0 1 29h30c.355 0 .684-.227.864-.534.179-.307.182-.724.008-1.033l-15-26.767zM16 16c1.103 0 2 .897 2 2s-.897 2-2 2-2-.897-2-2 .897-2 2-2zm0 6c2.206 0 4-1.794 4-4s-1.794-4-4-4-4 1.794-4 4 1.794 4 4 4zm9-16a.997.997 0 0 0 .707-.293l3-3a.999.999 0 1 0-1.414-1.414l-3 3A.999.999 0 0 0 25 6zm1.01 5c0 .547.444 1 .99 1h4a.997.997 0 0 0 .99-1c0-.547-.442-1-.99-1h-4a.998.998 0 0 0-.99 1zM6.294 5.707a.997.997 0 0 0 1.414 0 .999.999 0 0 0 0-1.414l-3-3a.999.999 0 1 0-1.414 1.414l3 3zM1 12h4a1 1 0 0 0 0-2H1a1 1 0 0 0 0 2z" id="god"/></g></g></g></svg>