<?xml version="1.0" encoding="UTF-8" standalone="no"?>
<svg width="48px" height="48px" viewBox="0 0 48 48" version="1.1" xmlns="http://www.w3.org/2000/svg" xmlns:xlink="http://www.w3.org/1999/xlink">
    <!-- Generator: Sketch 41.1 (35376) - http://www.bohemiancoding.com/sketch -->
    <title>ic_god</title>
    <desc>Created with Sketch.</desc>
    <defs></defs>
    <g id="Styleguide" stroke="none" stroke-width="1" fill="none" fill-rule="evenodd">
        <g id="icons" transform="translate(-90.000000, -1917.000000)" fill="#000000">
            <g id="Group-21" transform="translate(98.000000, 1927.000000)">
                <path d="M2.70193475,27 L6.79493475,19.653 C7.81893475,22.565 11.4909348,24.667 15.9999348,24.667 C20.4849348,24.667 24.1419348,22.587 25.1889348,19.7 L29.2909348,27 L2.70193475,27 Z M15.9959348,3.345 L21.0469348,12.33 C19.5919348,11.7 17.8699348,11.333 15.9999348,11.333 C14.1009348,11.333 12.3539348,11.711 10.8849348,12.359 L15.9959348,3.345 Z M15.9999348,13.333 C20.0659348,13.333 23.4999348,15.471 23.4999348,18 C23.4999348,20.529 20.0659348,22.667 15.9999348,22.667 C11.9349348,22.667 8.49993475,20.529 8.49993475,18 C8.49993475,15.471 11.9349348,13.333 15.9999348,13.333 L15.9999348,13.333 Z M16.8719348,0.666 C16.6949348,0.351 16.3629348,0 16.0019348,0 L16.0009348,0 C15.6399348,0 15.3079348,0.349 15.1299348,0.662 L7.62693475,14.05 L0.126934754,27.513 C-0.0460652455,27.823 -0.0420652455,28.201 0.137934754,28.507 C0.317934754,28.813 0.645934754,29 0.999934754,29 L30.9999348,29 C31.3549348,29 31.6839348,28.773 31.8639348,28.466 C32.0429348,28.159 32.0459348,27.742 31.8719348,27.433 L16.8719348,0.666 Z M16.0002348,16 C17.1032348,16 18.0002348,16.897 18.0002348,18 C18.0002348,19.103 17.1032348,20 16.0002348,20 C14.8972348,20 14.0002348,19.103 14.0002348,18 C14.0002348,16.897 14.8972348,16 16.0002348,16 Z M16.0002348,22 C18.2062348,22 20.0002348,20.206 20.0002348,18 C20.0002348,15.794 18.2062348,14 16.0002348,14 C13.7942348,14 12.0002348,15.794 12.0002348,18 C12.0002348,20.206 13.7942348,22 16.0002348,22 Z M25.0002348,6 C25.2562348,6 25.5122348,5.902 25.7072348,5.707 L28.7072348,2.707 C29.0982348,2.316 29.0982348,1.684 28.7072348,1.293 C28.3162348,0.902 27.6842348,0.902 27.2932348,1.293 L24.2932348,4.293 C23.9022348,4.684 23.9022348,5.316 24.2932348,5.707 C24.4882348,5.902 24.7442348,6 25.0002348,6 Z M26.0105348,11 C26.0105348,11.547 26.4535348,12 27.0005348,12 L31.0005348,12 C31.5475348,12 31.9895348,11.547 31.9895348,11 C31.9895348,10.453 31.5475348,10 31.0005348,10 L27.0005348,10 C26.4535348,10 26.0105348,10.453 26.0105348,11 Z M6.29323475,5.707 C6.48823475,5.902 6.74423475,6 7.00023475,6 C7.25623475,6 7.51223475,5.902 7.70723475,5.707 C8.09823475,5.316 8.09823475,4.684 7.70723475,4.293 L4.70723475,1.293 C4.31623475,0.902 3.68423475,0.902 3.29323475,1.293 C2.90223475,1.684 2.90223475,2.316 3.29323475,2.707 L6.29323475,5.707 Z M1.00023475,12 L5.00023475,12 C5.55223475,12 6.00023475,11.552 6.00023475,11 C6.00023475,10.448 5.55223475,10 5.00023475,10 L1.00023475,10 C0.448234754,10 0.000234754467,10.448 0.000234754467,11 C0.000234754467,11.552 0.448234754,12 1.00023475,12 Z" id="god"></path>
            </g>
        </g>
    </g>
</svg>
