<svg width="38" height="38" viewBox="0 0 38 38" xmlns="http://www.w3.org/2000/svg"><g id="Nav" fill="none" fill-rule="evenodd"><g id="Categories_Selected_Mobile-" transform="translate(-80 -556)" fill="#AEAEAE"><path d="M108.747 578.054a4.743 4.743 0 0 1-4.738 4.738H93.692a4.76 4.76 0 0 1-4.623-3.72c-.118-.54-.51-1-1.049-1.23-1.076-.461-1.64-1.592-1.373-2.75a2.357 2.357 0 0 1 2.318-1.802c1 0 1.76.62 2.109 1.327.319.648.948 1.05 1.642 1.05h14.46c.866 0 1.57.705 1.57 1.571v.816zm-4.75 8.696a.792.792 0 1 1 .001-1.585.792.792 0 0 1-.001 1.585zm-10.292 0a.792.792 0 1 1 .002-1.585.792.792 0 0 1-.002 1.585zm6.333-22.167c1.316 0 2.56.303 3.68.828l-4.471 6.815v-6.851c0-.436.355-.792.791-.792zm7.738 4.73l-7.044 3.535 4.355-6.639a8.773 8.773 0 0 1 2.69 3.105zm.97 3.979a.792.792 0 0 1-.79.791h-6.157l6.576-3.299c.24.795.372 1.636.372 2.508zm1.584 0c0-5.675-4.617-10.292-10.292-10.292a2.378 2.378 0 0 0-2.375 2.375v8.708h-4.947c-.103 0-.182-.086-.222-.167a3.966 3.966 0 0 0-4.474-2.1 3.918 3.918 0 0 0-2.916 2.921 3.977 3.977 0 0 0 2.293 4.56c.072.031.118.081.125.113.516 2.36 2.357 4.188 4.627 4.769a2.36 2.36 0 0 0-.819 1.78 2.377 2.377 0 0 0 2.375 2.374 2.377 2.377 0 0 0 2.375-2.375 2.36 2.36 0 0 0-.617-1.583h6.776a2.36 2.36 0 0 0-.617 1.583 2.377 2.377 0 0 0 2.375 2.375 2.377 2.377 0 0 0 2.375-2.375c0-.712-.322-1.345-.821-1.78 2.741-.692 4.78-3.17 4.78-6.124v-.816c0-.828-.329-1.576-.852-2.14a2.36 2.36 0 0 0 .851-1.806zm-21.937 1.813a.832.832 0 0 0-.23.562c0 .214.088.412.23.562.15.143.356.23.562.23a.832.832 0 0 0 .562-.23.818.818 0 0 0 .23-.562.832.832 0 0 0-.23-.562c-.293-.293-.831-.293-1.124 0z" id="Combined-Shape"/></g></g></svg>