<svg width="38" height="38" viewBox="0 0 38 38" xmlns="http://www.w3.org/2000/svg"><g id="Nav" fill="none" fill-rule="evenodd"><g id="Categories_Selected_Mobile-" transform="translate(-80 -446)" fill="#AEAEAE"><path d="M90.958 454.687v20.6l-2.375.017-.016-20.6 2.391-.017zm4.8-.12l1.527 20.544-2.368.193-1.543-20.542 2.383-.194zm5.599 3.142l2.248 17.272-2.353.323-2.265-17.269 2.37-.326zm5.229 7.062l3.27 9.758-2.247.77-3.285-9.753 2.262-.775zm-18.02 12.1h2.409c.864 0 1.567-.703 1.567-1.567v-10.605l.797 10.722c.03.417.222.797.54 1.07a1.552 1.552 0 0 0 1.138.376l2.402-.179c.417-.03.797-.222 1.071-.54a1.56 1.56 0 0 0 .376-1.138l-1.003-13.475 1.82 13.973c.053.415.265.785.597 1.04a1.555 1.555 0 0 0 1.158.311l2.387-.31a1.557 1.557 0 0 0 1.04-.598 1.56 1.56 0 0 0 .312-1.159l-.376-2.89 1.307 3.9a1.569 1.569 0 0 0 1.984.988l2.283-.765a1.569 1.569 0 0 0 .988-1.984l-3.275-9.774a1.567 1.567 0 0 0-1.984-.987l-2.283.765c-.014.005-.027.012-.04.018l-.854-6.557a1.57 1.57 0 0 0-1.756-1.352l-2.388.31a1.56 1.56 0 0 0-1.228.93l-.219-2.944a1.562 1.562 0 0 0-1.678-1.446l-2.402.18c-.427.03-.8.233-1.062.531a1.559 1.559 0 0 0-1.219-.594h-2.408c-.864 0-1.567.703-1.567 1.566v20.617c0 .864.703 1.567 1.567 1.567z" id="Fill-32"/></g></g></svg>