<svg width="38" height="38" viewBox="0 0 38 38" xmlns="http://www.w3.org/2000/svg"><g id="Nav" fill="none" fill-rule="evenodd"><g id="Categories_Selected_Mobile-" transform="translate(-80 -391)" fill="#AEAEAE"><path d="M105.31 419.511c-.73.56-1.642.166-3.068-.521-.466-.225-.962-.46-1.479-.657-.05-.044-.096-.092-.158-.124l-3.167-1.583a.791.791 0 1 0-.709 1.416l.278.139c-.677.216-1.319.521-1.915.809-1.427.688-2.338 1.08-3.068.521-2.656-2.034-4.44-5.967-4.44-9.788 0-6.739 5.725-9.14 11.083-9.14 5.358 0 11.083 2.401 11.083 9.14 0 3.82-1.784 7.755-4.44 9.788M98.667 399C90.972 399 86 403.21 86 409.723c0 4.289 2.034 8.727 5.061 11.045a2.765 2.765 0 0 0 1.734.597c1.016 0 2.04-.494 2.984-.949.958-.461 1.949-.939 2.888-.939.94 0 1.93.478 2.888.94 1.49.717 3.178 1.531 4.718.351 3.027-2.318 5.06-6.757 5.06-11.045 0-6.514-4.971-10.723-12.666-10.723zm-3.958 9.625h-.792v-.791a.792.792 0 0 0-1.583 0v.791h-.792a.792.792 0 0 0 0 1.584h.792V411a.792.792 0 0 0 1.583 0v-.791h.792a.792.792 0 0 0 0-1.584zm8.146 2.605a.832.832 0 0 0-.23.562c0 .206.087.412.23.562.15.143.356.23.562.23a.832.832 0 0 0 .562-.23.832.832 0 0 0 .23-.562.832.832 0 0 0-.23-.562c-.293-.293-.831-.293-1.124 0zm-2.375-2.375a.832.832 0 0 0-.23.562c0 .214.087.412.23.562.15.143.356.23.562.23a.818.818 0 0 0 .562-.23.818.818 0 0 0 .23-.562.832.832 0 0 0-.23-.562c-.293-.293-.831-.293-1.124 0zm4.75 0a.832.832 0 0 0-.23.562c0 .214.087.412.23.562.15.143.356.23.562.23a.832.832 0 0 0 .562-.23.818.818 0 0 0 .23-.562.832.832 0 0 0-.23-.562c-.293-.293-.831-.293-1.124 0zm-2.375-2.375a.832.832 0 0 0-.23.562c0 .206.087.412.23.562.15.143.356.23.562.23a.832.832 0 0 0 .562-.23.832.832 0 0 0 .23-.562.832.832 0 0 0-.23-.562c-.293-.293-.823-.293-1.124 0z" id="Combined-Shape"/></g></g></svg>