<svg width="38" height="38" viewBox="0 0 38 38" xmlns="http://www.w3.org/2000/svg"><g id="Nav" fill="none" fill-rule="evenodd"><g id="Categories_Selected_Mobile-" fill="#333" transform="translate(-80 -336)"><path d="M107 365.958h-1.583l-.004.001-8.705.003v-21.379-.002l10.292-.004v21.381zm-17.417 0l-.006-21.378 5.548.001v21.381l-3.93.002c-.01 0-.019-.009-.028-.009-.01 0-.019.003-.028.003h-1.556zM107.006 343H89.577A1.58 1.58 0 0 0 88 344.577v21.388c0 .869.708 1.577 1.577 1.577h.798a.792.792 0 0 0 1.583 0h12.667a.792.792 0 0 0 1.583 0h.798a1.58 1.58 0 0 0 1.577-1.577v-21.388a1.58 1.58 0 0 0-1.577-1.577zM92.75 358.042a.792.792 0 0 0 .792-.792v-3.958a.792.792 0 0 0-1.584 0v3.958c0 .437.355.792.792.792zm6.333 0a.792.792 0 0 0 .792-.792v-3.958a.792.792 0 0 0-1.583 0v3.958c0 .437.354.792.791.792z" id="Combined-Shape"/></g></g></svg>