<svg width="38" height="38" viewBox="0 0 38 38" xmlns="http://www.w3.org/2000/svg"><path d="M24.298 30.75h-1.42v-3.76a2.575 2.575 0 0 0-2.572-2.573h-2.772a2.576 2.576 0 0 0-2.573 2.573v3.76h-1.42c-1.817 0-3.33-1.513-3.33-3.33v-9.337h17.417v9.337c0 1.817-1.513 3.33-3.33 3.33zm-3.004 0h-4.75v-3.76c0-.546.444-.99.99-.99h2.772a.99.99 0 0 1 .988.99v3.76zm-8.958-20.503a.19.19 0 0 1 .151-.08h1.682v.791a.792.792 0 0 0 1.584 0l.05-2.375 1.533.05v2.325a.792.792 0 0 0 1.583 0v-.791h6.433c.088 0 .142.065.15.08l3.662 6.159c-.007.01-.052.094-.152.094H8.827c-.075 0-.118-.061-.138-.056l3.647-6.197zm14.621-.807c-.322-.545-.937-.857-1.605-.857H18.91C18.854 7.792 18.151 7 17.287 7h-1.484c-.866 0-1.569.792-1.623 1.583h-1.693c-.668 0-1.283.312-1.605.856l-3.66 6.166c-.303.51-.29 1.116.003 1.63.28.494.611.8 1.403.872v9.313a4.893 4.893 0 0 0 4.913 4.913h10.757a4.893 4.893 0 0 0 4.913-4.913v-9.313c.792-.071 1.122-.385 1.403-.878a1.59 1.59 0 0 0-.006-1.624l-3.65-6.165zM14.17 20.458a.792.792 0 0 0-.791.792v.792a.792.792 0 0 0 1.583 0v-.792a.792.792 0 0 0-.792-.792zm3.167 0a.792.792 0 0 0-.792.792v.792a.792.792 0 0 0 1.584 0v-.792a.792.792 0 0 0-.792-.792zm3.167 0a.792.792 0 0 0-.792.792v.792a.792.792 0 0 0 1.583 0v-.792a.792.792 0 0 0-.791-.792zm3.166 0a.792.792 0 0 0-.791.792v.792a.792.792 0 0 0 1.583 0v-.792a.792.792 0 0 0-.792-.792z" fill="#AEAEAE" fill-rule="evenodd"/></svg>