<svg width="38" height="38" viewBox="0 0 38 38" xmlns="http://www.w3.org/2000/svg"><path d="M27.708 28.467c0 .454-.37.825-.825.825H11.117a.826.826 0 0 1-.825-.825V8.74c0-.455.37-.824.825-.824h15.766c.456 0 .825.37.825.824v19.726zm-.825-22.134H11.117a2.41 2.41 0 0 0-2.409 2.408v19.726c0 1.316.792 2.387 2.375 2.404v.004c0 .437.355.792.792.792h1.583a.792.792 0 0 0 .792-.792h9.5c0 .437.355.792.792.792h1.583a.792.792 0 0 0 .792-.792l-.001-.004a2.408 2.408 0 0 0 2.376-2.404V8.74a2.41 2.41 0 0 0-2.409-2.408zM24.771 9.73a.832.832 0 0 0-.23.562c0 .206.088.412.23.562.15.143.357.23.562.23a.832.832 0 0 0 .562-.23.832.832 0 0 0 .23-.562.832.832 0 0 0-.23-.562.829.829 0 0 0-1.124 0zm-1.813 1.354a.832.832 0 0 0 .562-.23.832.832 0 0 0 .23-.562.832.832 0 0 0-.23-.562c-.293-.293-.83-.293-1.124 0a.832.832 0 0 0-.23.562c0 .206.088.412.23.562.15.143.357.23.562.23zm-2.375 0a.832.832 0 0 0 .562-.23.832.832 0 0 0 .23-.562.832.832 0 0 0-.23-.562c-.3-.293-.83-.293-1.124 0a.832.832 0 0 0-.23.562c0 .206.088.412.23.562.15.143.357.23.562.23zm-7.916 0h3.958a.792.792 0 0 0 0-1.583h-3.958a.792.792 0 0 0 0 1.583zM19 26.125a5.548 5.548 0 0 1-5.542-5.542A5.548 5.548 0 0 1 19 15.04a5.548 5.548 0 0 1 5.542 5.542A5.548 5.548 0 0 1 19 26.125zm0-12.667c-3.928 0-7.125 3.197-7.125 7.125s3.197 7.125 7.125 7.125 7.125-3.197 7.125-7.125-3.197-7.125-7.125-7.125zm0 3.167a3.963 3.963 0 0 0-3.958 3.958.792.792 0 0 0 1.583 0A2.378 2.378 0 0 1 19 18.208a.792.792 0 0 0 0-1.583z" fill="#AEAEAE" fill-rule="evenodd"/></svg>