<svg width="38" height="38" viewBox="0 0 38 38" xmlns="http://www.w3.org/2000/svg"><path d="M9.167 16a3.167 3.167 0 1 0 0 6.334 3.167 3.167 0 0 0 0-6.334m0 1.583c.873 0 1.583.71 1.583 1.584 0 .873-.71 1.583-1.583 1.583-.874 0-1.584-.71-1.584-1.583 0-.874.71-1.584 1.584-1.584zm9.5-1.583a3.167 3.167 0 1 0 0 6.334 3.167 3.167 0 0 0 0-6.334zm0 1.583c.873 0 1.583.71 1.583 1.584 0 .873-.71 1.583-1.583 1.583-.874 0-1.584-.71-1.584-1.583 0-.874.71-1.584 1.584-1.584zm9.5-1.583a3.167 3.167 0 1 0 0 6.334 3.167 3.167 0 0 0 0-6.334zm0 1.583c.873 0 1.583.71 1.583 1.584 0 .873-.71 1.583-1.583 1.583-.874 0-1.584-.71-1.584-1.583 0-.874.71-1.584 1.584-1.584z" fill="#AEAEAE" fill-rule="evenodd"/></svg>