<svg xmlns="http://www.w3.org/2000/svg" width="24" height="24" viewBox="0 0 24 24">
    <g fill="#000" fill-rule="nonzero">
        <path d="M21.692 12c0-5.352-4.34-9.692-9.692-9.692S2.308 6.648 2.308 12s4.34 9.692 9.692 9.692c5.353 0 9.692-4.34 9.692-9.692zm1.847 0c0 6.372-5.167 11.538-11.54 11.538C5.629 23.538.463 18.372.463 12S5.628.462 12 .462 23.539 5.628 23.539 12z"/>
        <path d="M11.077 21.23a.923.923 0 1 1 1.846 0v.797a.923.923 0 1 1-1.846 0v-.796zm10.154-8.307a.923.923 0 1 1 0-1.846h.791a.923.923 0 1 1 0 1.846h-.791zm-19.385 0a.923.923 0 1 1 0-1.846h.791a.923.923 0 1 1 0 1.846h-.79zm9.23-11.077a.923.923 0 1 1 1.847 0v.796a.923.923 0 1 1-1.846 0v-.796zm6.655 7.39l-4.614 3.285v3.896a.923.923 0 1 1-1.846 0v-4.372c0-.299.144-.58.387-.752l5.003-3.56a.923.923 0 0 1 1.07 1.503z"/>
    </g>
</svg>
