<svg xmlns="http://www.w3.org/2000/svg" width="26" height="26" viewBox="0 0 26 26"><path fill="#13C1AC" fill-rule="evenodd" d="M5.604 20.828l2.43-4.307c.608 1.707 2.789 2.939 5.466 2.939 2.663 0 4.834-1.22 5.456-2.912l2.435 4.28H5.604zM13.497 6.96l3 5.267c-.864-.37-1.887-.585-2.997-.585-1.128 0-2.165.222-3.037.602l3.034-5.284zm.003 5.855c2.414 0 4.453 1.253 4.453 2.736 0 1.482-2.039 2.736-4.453 2.736s-4.453-1.254-4.453-2.736c0-1.483 2.04-2.736 4.453-2.736zm.518-7.426l8.906 15.691a.623.623 0 0 1-.518.919H4.594a.595.595 0 0 1-.512-.289.58.58 0 0 1-.007-.583l4.453-7.892 4.455-7.848c.106-.183.303-.388.517-.388h.001c.214 0 .412.206.517.39zm-.518 8.99c.655 0 1.188.525 1.188 1.172 0 .646-.533 1.172-1.188 1.172a1.181 1.181 0 0 1-1.187-1.172c0-.647.532-1.173 1.187-1.173zm0 3.517c1.31 0 2.375-1.052 2.375-2.345 0-1.293-1.065-2.345-2.375-2.345s-2.375 1.052-2.375 2.345c0 1.293 1.065 2.345 2.375 2.345zm5.344-9.38a.596.596 0 0 1-.42-.172.58.58 0 0 1 0-.828l1.781-1.759a.598.598 0 0 1 .84 0 .58.58 0 0 1 0 .829l-1.781 1.758a.596.596 0 0 1-.42.172zm.6 2.931c0-.32.263-.586.587-.586h2.375a.59.59 0 0 1 .588.586.59.59 0 0 1-.588.586h-2.375a.589.589 0 0 1-.587-.586zM7.737 8.345L5.955 6.587a.58.58 0 0 1 0-.829.598.598 0 0 1 .84 0l1.781 1.759a.58.58 0 0 1 0 .828.596.596 0 0 1-.84 0zm-3.143 3.69A.59.59 0 0 1 4 11.447a.59.59 0 0 1 .594-.586h2.375a.59.59 0 0 1 .594.586.59.59 0 0 1-.594.586H4.594z"/></svg>