<svg xmlns="http://www.w3.org/2000/svg" width="26" height="26" viewBox="0 0 26 26">
    <path fill="#13C1AC" fill-rule="evenodd" d="M4.212 8.447c0-.912.888-1.423 1.624-1.423H17.04c1.833 0 3.124.452 3.938 1.443.798.971.81 2.077.81 2.409v5.603c0 .469-.025 1.716-.726 2.693-.745 1.037-1.98 1.614-3.772 1.614H9.403c-5.032 0-5.19-4.231-5.19-4.407V8.447zM9.403 22C4.233 22 3 18.046 3 16.379V8.447C3 7 4.194 6 5.47 5.836A.608.608 0 0 1 6.03 5h2.02a.607.607 0 0 1 .57.81h8.42c5.05 0 5.96 3.339 5.96 5.066v5.603c0 1.71-.641 5.521-5.71 5.521H9.403zm5.894-10.737a3.043 3.043 0 0 1 0 6.086 3.044 3.044 0 0 1 0-6.086zm0 7.3a4.258 4.258 0 0 0 0-8.514 4.258 4.258 0 0 0 0 8.514zM7.09 11.26a1.256 1.256 0 1 0-.003-2.513 1.256 1.256 0 0 0 .003 2.513z"/>
</svg>
