<svg xmlns="http://www.w3.org/2000/svg" width="26" height="26" viewBox="0 0 26 26">
    <path fill="#13C1AC" fill-rule="evenodd" d="M19.869 20.759a.617.617 0 0 1-.62-.615v-.627a.608.608 0 0 0-.042-.21c.875-.07 1.568-.148 2.101-.22.155-.021.301-.066.442-.12v1.177a.631.631 0 0 1-.631.615h-1.25zM4.25 17.154V15.36c1.549.207 4.304.447 8.75.447s7.201-.24 8.75-.447v1.794a.71.71 0 0 1-.611.703c-1.404.191-3.956.419-8.14.419-4.182 0-6.733-.228-8.137-.42a.71.71 0 0 1-.612-.702zm2.5 2.99a.631.631 0 0 1-.631.615h-1.25a.617.617 0 0 1-.619-.615v-1.178c.141.055.287.1.442.121.532.072 1.226.15 2.101.22a.608.608 0 0 0-.043.21v.627zm.845-13.589C7.993 5.37 9.227 5.241 9.74 5.241h6.52c.512 0 1.747.128 2.16 1.352l1.174 2.862c-.21-.069-.482-.18-.812-.313-1.311-.53-3.507-1.418-5.782-1.418-2.274 0-4.47.888-5.782 1.418-.341.138-.624.254-.836.322-.006.002 1.213-2.909 1.213-2.909zm14.155 6.322v1.248c-.029 0-.056-.01-.085-.006-.921.126-2.31.266-4.283.355.076-1.2 1.835-1.346 1.913-1.352.915-.067 1.739-.15 2.455-.245zm-14.954-.992a40.701 40.701 0 0 1-2.461-.249c-.03-.003-.056.005-.085.005v-.154c0-.363.298-.66.664-.66h.68c.402 0 .797-.06 1.174-.182.233-.076.546-.201.922-.353 1.306-.528 3.28-1.326 5.31-1.326s4.004.798 5.31 1.326c.376.152.69.277.922.353a3.83 3.83 0 0 0 1.173.183h.681c.366 0 .664.296.664.66v.153c-.029 0-.056-.009-.085-.005-.71.097-1.537.18-2.457.248-1.06.07-3.059.714-3.081 2.637-.931.028-1.97.044-3.127.044-1.158 0-2.195-.016-3.127-.044-.022-1.923-2.02-2.566-3.077-2.636zm-2.546.992c.716.096 1.54.178 2.459.245.018.002 1.832.14 1.91 1.352-1.974-.089-3.362-.229-4.284-.355-.03-.004-.056.006-.085.006v-1.248zm18.567-4.093a.617.617 0 0 0 0-.878.627.627 0 0 0-.884 0l-1.154 1.147-1.188-2.89C19.143 4.828 17.867 4 16.261 4H9.74c-1.607 0-2.883.829-3.314 2.118L5.194 9.025 4.067 7.906a.627.627 0 0 0-.884 0 .618.618 0 0 0 0 .878l.969.962A1.901 1.901 0 0 0 3 11.487v5.667c0 .117.012.232.032.344-.014.051-.032.101-.032.157v2.49C3 21.167 3.839 22 4.869 22h1.25C7.156 22 8 21.168 8 20.144v-.627c0-.046-.017-.087-.026-.13a87.6 87.6 0 0 0 5.026.13c2.036 0 3.691-.054 5.027-.13-.01.043-.027.084-.027.13v.627c0 1.024.839 1.856 1.869 1.856h1.25c1.037 0 1.88-.832 1.88-1.856v-2.489c0-.056-.017-.106-.031-.157.02-.112.032-.227.032-.344v-5.667c0-.779-.475-1.448-1.151-1.741l.968-.962z"/>
</svg>
