<svg xmlns="http://www.w3.org/2000/svg" width="26" height="26" viewBox="0 0 26 26"><path fill="#13C1AC" fill-rule="evenodd" d="M4.782 22.265a1.017 1.017 0 0 1-.782-.99c0-.344.24-.657.24-.657.761-.876 1.184-1.767 1.184-3.02 0-.441-.061-.868-.168-1.275a9.175 9.175 0 0 1-.554-3.148C4.702 8.107 8.8 4 13.852 4 18.903 4 23 8.107 23 13.175a9.15 9.15 0 0 1-2.068 5.809l.01.007c-.053.06-.11.117-.166.176a9.202 9.202 0 0 1-1.482 1.382C16.93 22.45 14.054 23 10.79 23c-2.106 0-3.648-.094-6.008-.735zm1.765-4.077c-.104 1.11-.514 2.064-1.288 3.01 2.076.55 3.455.648 5.53.648 3.494 0 5.895-.678 7.785-2.197l.017-.014.017-.013c.471-.35.908-.757 1.297-1.21l.014-.016.015-.016.027-.028.08-.1a8.047 8.047 0 0 0 1.808-5.077c0-4.423-3.588-8.02-7.998-8.02s-7.998 3.597-7.998 8.02c0 .208.01.414.025.62l.044.311.068.338c.02.115.05.227.082.34.031.109.058.238.092.33l.118.353c.039.12.085.213.127.32.076.206.187.41.279.607.11.19.202.38.315.545.107.168.21.326.317.464l.15.2.144.172c.09.109.169.202.24.274l.219.23.022.024c.22.231.21.597-.02.817a.575.575 0 0 1-.837-.047l-.236-.28a4.724 4.724 0 0 1-.257-.33l-.154-.207-.044-.068zm4.659-4.67c0 .66-.534 1.195-1.192 1.195a1.194 1.194 0 0 1-1.192-1.195c0-.66.534-1.195 1.192-1.195.658 0 1.192.535 1.192 1.195zm2.645 1.195a1.194 1.194 0 0 1-1.192-1.195c0-.66.534-1.195 1.192-1.195.658 0 1.192.535 1.192 1.195s-.534 1.195-1.192 1.195zm3.836 0a1.194 1.194 0 0 1-1.192-1.195c0-.66.534-1.195 1.192-1.195.658 0 1.192.535 1.192 1.195s-.534 1.195-1.192 1.195z"/></svg>