<svg xmlns="http://www.w3.org/2000/svg" width="26" height="26" viewBox="0 0 26 26"><path fill="#13C1AC" fill-rule="evenodd" d="M11.262 8.152a.544.544 0 1 1-.767-.773l2.222-2.223a.544.544 0 0 1 .766.001l2.22 2.22a.545.545 0 1 1-.764.776l-1.295-1.295v5.7h5.7l-1.292-1.292a.545.545 0 1 1 .765-.775l2.221 2.222a.545.545 0 0 1 0 .773l-2.22 2.222a.544.544 0 1 1-.768-.773l1.294-1.287h-5.7v5.693l1.294-1.293a.544.544 0 1 1 .767.772l-2.222 2.223a.545.545 0 0 1-.766 0l-2.22-2.221a.545.545 0 1 1 .764-.775l1.295 1.294v-5.693h-5.7l1.292 1.286a.545.545 0 1 1-.765.775l-2.221-2.222a.545.545 0 0 1 0-.774l2.22-2.22a.544.544 0 1 1 .768.771l-1.295 1.295h5.7v-5.7l-1.293 1.293z"/></svg>