<svg xmlns="http://www.w3.org/2000/svg" width="26" height="26" viewBox="0 0 26 26"><path fill="#13C1AC" fill-rule="evenodd" d="M13 6c4.94 0 9 3.318 9 7.5S17.94 21 13 21s-9-3.318-9-7.5S8.06 6 13 6zm-3.392 7.331c0 1.923 1.492 3.481 3.331 3.481 1.84 0 3.333-1.558 3.333-3.48 0-.41-.088-.8-.217-1.175a11.542 11.542 0 0 0-3.2-.468c-1.036 0-2.047.154-3.014.42a3.59 3.59 0 0 0-.233 1.222zm3.345 1.383c-.621 0-1.124-.525-1.124-1.174 0-.649.503-1.174 1.124-1.174.62 0 1.124.525 1.124 1.174 0 .649-.503 1.174-1.124 1.174zm.047 4.96c3.71 0 6.769-2.09 7.54-4.827-.648-.732-1.49-1.39-2.486-1.91l.567-1.187c.782.408 1.479.9 2.091 1.443-.202-3.23-3.545-5.867-7.712-5.867-4.057 0-7.339 2.498-7.696 5.612.58-.468 1.224-.893 1.931-1.251a12.493 12.493 0 0 1 5.62-1.324c2.058 0 4.053.492 5.766 1.387l-.567 1.187c-.18-.094-.373-.166-.559-.25.027.213.045.427.045.644 0 2.655-2.06 4.807-4.6 4.807-2.54 0-4.6-2.152-4.6-4.807 0-.241.023-.479.056-.714-.203.088-.412.164-.608.263a9.205 9.205 0 0 0-2.39 1.716c.65 2.86 3.78 5.078 7.602 5.078z"/></svg>