<svg width="24" height="24" viewBox="0 0 24 24" xmlns="http://www.w3.org/2000/svg"><path d="M5.308 4.688a.625.625 0 0 0-.625.625v3.125c0 .345.28.624.625.624h3.125c.345 0 .625-.28.625-.624V5.312a.625.625 0 0 0-.625-.625H5.308zm0-1.25h3.125c1.036 0 1.875.839 1.875 1.874v3.125c0 1.036-.84 1.876-1.875 1.876H5.308a1.875 1.875 0 0 1-1.875-1.876V5.313c0-1.036.84-1.875 1.875-1.875zm0 9.374h3.125c1.036 0 1.875.84 1.875 1.876v3.124c0 1.036-.84 1.875-1.875 1.875H5.308a1.875 1.875 0 0 1-1.875-1.875v-3.125c0-1.035.84-1.874 1.875-1.874zm0 1.25a.625.625 0 0 0-.625.626v3.124c0 .346.28.625.625.625h3.125c.345 0 .625-.28.625-.625v-3.125a.625.625 0 0 0-.625-.624H5.308zm9.393-10.624h3.125c1.035 0 1.875.839 1.875 1.874v3.125c0 1.036-.84 1.876-1.875 1.876H14.7a1.875 1.875 0 0 1-1.875-1.876V5.313c0-1.036.84-1.875 1.875-1.875zm0 1.25a.625.625 0 0 0-.625.625v3.125c0 .345.28.624.625.624h3.125c.345 0 .625-.28.625-.624V5.312a.625.625 0 0 0-.625-.625H14.7zm0 8.125h3.125c1.035 0 1.875.839 1.875 1.874v3.126c0 1.035-.84 1.875-1.875 1.875H14.7a1.875 1.875 0 0 1-1.875-1.875v-3.125c0-1.036.84-1.876 1.875-1.876zm0 1.25a.625.625 0 0 0-.625.624v3.126c0 .345.28.625.625.625h3.125c.345 0 .625-.28.625-.625v-3.125a.625.625 0 0 0-.625-.626H14.7z" fill-rule="nonzero" fill="#13C1AC"/></svg>