<?xml version="1.0" encoding="UTF-8" standalone="no"?>
<svg width="24px" height="24px" viewBox="0 0 24 24" version="1.1" xmlns="http://www.w3.org/2000/svg" xmlns:xlink="http://www.w3.org/1999/xlink">
    <!-- Generator: Sketch 47.1 (45422) - http://www.bohemiancoding.com/sketch -->
    <title>ic_more copy</title>
    <desc>Created with Sketch.</desc>
    <defs></defs>
    <g id="Drafts" stroke="none" stroke-width="1" fill="none" fill-rule="evenodd">
        <g id="Assets-" transform="translate(-168.000000, -86.000000)" fill-rule="nonzero" fill="#13C1AC">
            <g id="Categories_coach-Mark" transform="translate(168.000000, 86.000000)">
                <path d="M5.30812581,4.6875 C4.96294785,4.6875 4.68312581,4.96732203 4.68312581,5.3125 L4.68312581,8.4375 C4.68312581,8.78267797 4.96294785,9.0625 5.30812581,9.0625 L8.43312581,9.0625 C8.77830378,9.0625 9.05812581,8.78267797 9.05812581,8.4375 L9.05812581,5.3125 C9.05812581,4.96732203 8.77830378,4.6875 8.43312581,4.6875 L5.30812581,4.6875 Z M5.30812581,3.4375 L8.43312581,3.4375 C9.46865972,3.4375 10.3081258,4.27696609 10.3081258,5.3125 L10.3081258,8.4375 C10.3081258,9.47303391 9.46865972,10.3125 8.43312581,10.3125 L5.30812581,10.3125 C4.27259191,10.3125 3.43312581,9.47303391 3.43312581,8.4375 L3.43312581,5.3125 C3.43312581,4.27696609 4.27259191,3.4375 5.30812581,3.4375 Z M5.30812581,12.8125 L8.43312581,12.8125 C9.46865972,12.8125 10.3081258,13.6519661 10.3081258,14.6875 L10.3081258,17.8125 C10.3081258,18.8480339 9.46865972,19.6875 8.43312581,19.6875 L5.30812581,19.6875 C4.27259191,19.6875 3.43312581,18.8480339 3.43312581,17.8125 L3.43312581,14.6875 C3.43312581,13.6519661 4.27259191,12.8125 5.30812581,12.8125 Z M5.30812581,14.0625 C4.96294785,14.0625 4.68312581,14.342322 4.68312581,14.6875 L4.68312581,17.8125 C4.68312581,18.157678 4.96294785,18.4375 5.30812581,18.4375 L8.43312581,18.4375 C8.77830378,18.4375 9.05812581,18.157678 9.05812581,17.8125 L9.05812581,14.6875 C9.05812581,14.342322 8.77830378,14.0625 8.43312581,14.0625 L5.30812581,14.0625 Z M14.7006226,3.4375 L17.8256226,3.4375 C18.8611565,3.4375 19.7006226,4.27696609 19.7006226,5.3125 L19.7006226,8.4375 C19.7006226,9.47303391 18.8611565,10.3125 17.8256226,10.3125 L14.7006226,10.3125 C13.6650887,10.3125 12.8256226,9.47303391 12.8256226,8.4375 L12.8256226,5.3125 C12.8256226,4.27696609 13.6650887,3.4375 14.7006226,3.4375 Z M14.7006226,4.6875 C14.3554446,4.6875 14.0756226,4.96732203 14.0756226,5.3125 L14.0756226,8.4375 C14.0756226,8.78267797 14.3554446,9.0625 14.7006226,9.0625 L17.8256226,9.0625 C18.1708005,9.0625 18.4506226,8.78267797 18.4506226,8.4375 L18.4506226,5.3125 C18.4506226,4.96732203 18.1708005,4.6875 17.8256226,4.6875 L14.7006226,4.6875 Z M14.7006226,12.8125 L17.8256226,12.8125 C18.8611565,12.8125 19.7006226,13.6519661 19.7006226,14.6875 L19.7006226,17.8125 C19.7006226,18.8480339 18.8611565,19.6875 17.8256226,19.6875 L14.7006226,19.6875 C13.6650887,19.6875 12.8256226,18.8480339 12.8256226,17.8125 L12.8256226,14.6875 C12.8256226,13.6519661 13.6650887,12.8125 14.7006226,12.8125 Z M14.7006226,14.0625 C14.3554446,14.0625 14.0756226,14.342322 14.0756226,14.6875 L14.0756226,17.8125 C14.0756226,18.157678 14.3554446,18.4375 14.7006226,18.4375 L17.8256226,18.4375 C18.1708005,18.4375 18.4506226,18.157678 18.4506226,17.8125 L18.4506226,14.6875 C18.4506226,14.342322 18.1708005,14.0625 17.8256226,14.0625 L14.7006226,14.0625 Z" id="Combined-Shape"></path>
            </g>
        </g>
    </g>
</svg>