<svg width="26" height="26" viewBox="0 0 26 26" xmlns="http://www.w3.org/2000/svg"><g id="DRAFTS_1" fill="none" fill-rule="evenodd"><g id="Assets" transform="translate(-503 -253)" fill="#13C1AC"><g id="Group-7" transform="translate(503 253)"><path d="M7.927 5.704a7.779 7.779 0 0 1 4.995-1.793c.426 0 .855.034 1.283.103 3.866.622 6.594 4.002 6.349 7.86-.354 5.537-6.324 8.843-7.652 9.512-1.396-.705-7.652-4.192-7.667-9.958-.006-2.204.975-4.29 2.692-5.724m4.447 16.825c-1.402-.7-8.4-4.528-8.417-11.098C3.95 8.858 5.095 6.422 7.099 4.75c2.009-1.678 4.673-2.397 7.313-1.972 4.516.727 7.704 4.672 7.417 9.176-.403 6.288-7.065 9.913-8.397 10.575a1.19 1.19 0 0 1-1.058 0zm.528-14.233c1.762 0 3.195 1.406 3.195 3.134s-1.433 3.134-3.195 3.134c-1.761 0-3.194-1.406-3.194-3.134s1.433-3.134 3.194-3.134zm0 7.521c2.466 0 4.473-1.968 4.473-4.387 0-2.42-2.007-4.387-4.473-4.387-2.466 0-4.472 1.968-4.472 4.387 0 2.42 2.006 4.387 4.472 4.387z" id="Combined-Shape"/></g></g></g></svg>