<svg xmlns="http://www.w3.org/2000/svg" width="26" height="26" viewBox="0 0 26 26"><path fill="#13C1AC" fill-rule="evenodd" d="M14.464 21.741c-.477-.005-.966-.01-1.464-.01s-.986.005-1.464.01c-2.821.031-5.257.057-6.42-1.092-.582-.575-.866-1.468-.866-2.729 0-4.659 3.926-8.45 8.75-8.45 4.825 0 8.75 3.791 8.75 8.45 0 1.26-.283 2.154-.866 2.73-1.163 1.149-3.6 1.121-6.42 1.091zM12.997 4.25c.477 0 .69.186 1.012.47.375.328.888.778 1.835.778h.218A3.129 3.129 0 0 1 13 7.995a3.13 3.13 0 0 1-3.062-2.498h.213c.947 0 1.46-.45 1.836-.779.321-.283.534-.47 1.01-.47zm4.378.624a4.368 4.368 0 0 1-1.967 3.646C19.761 9.569 23 13.379 23 17.92c0 1.611-.404 2.794-1.237 3.617C20.451 22.833 18.303 23 15.77 23c-.43 0-.87-.005-1.318-.01-.946-.01-1.955-.01-2.901 0-3.1.035-5.78.062-7.313-1.453C3.405 20.714 3 19.531 3 17.92c0-4.54 3.24-8.352 7.592-9.401a4.368 4.368 0 0 1-1.967-3.646c0-.345.28-.624.625-.624h.901c.476 0 .689-.186 1.01-.47.375-.328.889-.779 1.836-.779.947 0 1.461.45 1.836.78.322.283.535.469 1.011.469h.906c.345 0 .625.28.625.624zm-3.125 8.741a.625.625 0 1 0 0-1.248h-.625v-.625a.625.625 0 0 0-1.25 0v.731a1.877 1.877 0 0 0-1.25 1.767c0 1.032.841 1.873 1.875 1.873a.625.625 0 0 1 0 1.248h-1.25a.625.625 0 1 0 0 1.25h.625v.623a.625.625 0 0 0 1.25 0v-.73a1.877 1.877 0 0 0 1.25-1.767A1.876 1.876 0 0 0 13 14.863a.626.626 0 0 1-.625-.624c0-.344.28-.625.625-.625h1.25z"/></svg>