<svg xmlns="http://www.w3.org/2000/svg" width="26" height="26" viewBox="0 0 26 26"><path fill="#13C1AC" fill-rule="evenodd" d="M19.886 18.003l-.085.104-.028.03-.016.016-.015.018c-.41.476-.87.905-1.365 1.274l-.018.013-.018.014c-1.99 1.6-4.517 2.313-8.194 2.313-2.185 0-3.637-.104-5.822-.682.815-.995 1.246-1.999 1.356-3.168l.047.071.161.218c.1.138.19.256.271.348l.248.294a.605.605 0 0 0 .88.049.61.61 0 0 0 .023-.86l-.024-.024-.23-.243a4.125 4.125 0 0 1-.253-.288 88.99 88.99 0 0 0-.152-.181l-.157-.211a6.2 6.2 0 0 1-.334-.488c-.119-.174-.216-.374-.332-.574-.096-.207-.213-.422-.294-.639-.043-.112-.092-.21-.133-.336l-.123-.372c-.037-.097-.065-.233-.098-.347a3.87 3.87 0 0 1-.086-.358l-.071-.356-.047-.327a8.559 8.559 0 0 1-.026-.653c0-4.655 3.777-8.443 8.419-8.443s8.418 3.788 8.418 8.443a8.47 8.47 0 0 1-1.902 5.345M13.37 3C18.689 3 23 7.324 23 12.658c0 2.32-.817 4.45-2.177 6.115l.011.007c-.057.063-.117.123-.175.185a9.694 9.694 0 0 1-1.56 1.455c-2.488 2-5.515 2.58-8.952 2.58-2.217 0-3.84-.099-6.323-.774A1.07 1.07 0 0 1 3 21.184c0-.362.252-.691.252-.691.802-.922 1.246-1.86 1.246-3.18 0-.464-.064-.913-.176-1.342a9.662 9.662 0 0 1-.582-3.313C3.74 7.324 8.05 3 13.37 3zm-.427 14.127a.607.607 0 0 0-.606.608v.405a.607.607 0 1 0 1.211 0v-.405a.607.607 0 0 0-.605-.608zm2.521-9.29c-.56-.542-1.3-.79-2.199-.74-.859.049-1.561.36-2.089.925-.502.538-.82 1.226-.946 2.044a.608.608 0 0 0 .507.693c.33.05.64-.177.69-.508.09-.58.297-1.037.634-1.399.311-.334.728-.511 1.272-.542.556-.03.979.1 1.29.4.324.315.497.742.528 1.305.02.344-.02.64-.12.882-.113.276-.264.54-.447.781-.2.263-.418.515-.65.748-.266.27-.519.556-.749.853-.235.302-.428.64-.579 1.004-.014.024-.028.048-.039.075a3.403 3.403 0 0 0-.207 1.442.606.606 0 1 0 1.21-.068c-.02-.338.02-.637.113-.891.006-.013.013-.025.018-.038.111-.284.259-.545.44-.777.2-.258.42-.508.653-.743a8.91 8.91 0 0 0 .754-.869c.247-.326.45-.68.604-1.055.168-.41.238-.885.209-1.412-.049-.87-.35-1.58-.897-2.11z"/></svg>