<svg xmlns="http://www.w3.org/2000/svg" xmlns:xlink="http://www.w3.org/1999/xlink" width="26" height="26" viewBox="0 0 26 26">
    <defs>
        <path id="a" d="M9.724 19.8H0V.542h19.448V19.8H9.724z"/>
    </defs>
    <g fill="none" fill-rule="evenodd" transform="translate(3 3.057)">
        <mask id="b" fill="#fff">
            <use xlink:href="#a"/>
        </mask>
        <path fill="#13C1AC" d="M18.207 16.558l-.016.024-.014.087c-.003.076-.018.081-.023.099a.278.278 0 0 1-.026.072c-.024.072-.042.091-.102.193l-.795 1.206c-.046.068-.063.072-.072.081-.003.01-.046.036-.065.056a.661.661 0 0 1-.358.123h-.374c-2.12-.008-4.38.004-6.64-.003-2.26.009-4.52.046-6.64.046H2.73c-.186 0-.114-.03-.208-.055a.66.66 0 0 1-.31-.237c-.272-.411-.537-.818-.795-1.21-.008-.007-.134-.23-.11-.216a.614.614 0 0 1-.036-.168 2.839 2.839 0 0 1-.008-.289l-.002-.342c-.001-.452-.012-.89-.014-1.309l-.009-.156v-.218h.009l.008.026c.003-.134.023-.096.026-.135a.703.703 0 0 1 .153-.261c.059-.08.16-.13.224-.164.034-.013.1-.041.109-.039.013 0 .024 0 .035-.005.04-.003.087-.016.13-.011a.577.577 0 0 1 .251.046c.04.012.075.035.11.056.034.016.119.078.173.114l.676.459c.088.06.17.117.25.17l.029.028.085.087.053.054a3.107 3.107 0 0 0-.493.3.597.597 0 0 0-.11.841.608.608 0 0 0 .85.11c.678-.518 2.82-1.076 5.917-1.076s5.238.557 5.917 1.075a.612.612 0 0 0 .85-.11.596.596 0 0 0-.11-.84 3.088 3.088 0 0 0-.48-.294l.05-.053c.149-.168.086-.1.358-.288l.675-.458.094-.063.04-.028.02-.012.102-.059c.03-.016.028-.007.042-.014a.598.598 0 0 1 .233-.039c.087 0 .178.017.262.06l.016.006.006.003.033.02c.03.02.099.056.099.065.013.017.04.035.078.081.065.079.12.173.15.28.028.107.03.194.028.442l-.005 1.309.013.342.014.173v.018zM3.982 9.773l.895-2.955a2.076 2.076 0 0 1 2.004-1.476h5.682c.931 0 1.736.593 2.004 1.476l.485 1.602c-1 1.607-2.554 2.953-4.667 4.021-2.424 1.225-4.88 1.703-5.8 1.85a2.604 2.604 0 0 0-.243-.418l-.07-.086a.21.21 0 0 0-.011-.012c0-.011.007-.021.007-.033v-.6a.6.6 0 0 0-.03-.187l-.394-1.18a4.515 4.515 0 0 1 .138-2.002zm2.71-6.498c0-.888.591-1.533 1.406-1.533h3.248c.815 0 1.407.645 1.407 1.533v.277c0 .139-.033.59-.445.59H7.137c-.413 0-.445-.451-.445-.59v-.277zm8.908 8.5l-.393 1.18a.6.6 0 0 0-.03.187v.6c0 .012.006.02.006.032a1.823 1.823 0 0 0-.188.239c-.096.15-.153.26-.193.34-1.159-.34-2.71-.557-4.425-.601 1.833-.853 3.723-2.093 5.11-3.874.171.615.213 1.267.113 1.898zm3.848 4.592l-.002-.342-.004-1.309c0-.17.004-.499-.08-.78a2.008 2.008 0 0 0-.41-.747 1.853 1.853 0 0 0-.337-.306c-.07-.053-.089-.056-.135-.086l-.059-.036-.048-.027-.011-.004-.024-.011-.047-.02a1.83 1.83 0 0 0-.769-.167 1.807 1.807 0 0 0-.74.146c-.06.026-.137.06-.176.083l-.072.042.232-.696c.01-.03.017-.06.023-.09a5.717 5.717 0 0 0-.166-2.59l-.263-.867c.767-1.388 1.241-3.043 1.241-5.018 0-.33-.271-.6-.606-.6a.603.603 0 0 0-.606.6c0 1.176-.188 2.27-.555 3.28l-.106-.349a3.257 3.257 0 0 0-1.94-2.092c.11-.245.177-.522.177-.829v-.277c0-1.558-1.126-2.733-2.619-2.733H8.098C6.605.542 5.48 1.717 5.48 3.275v.277c0 .307.067.584.177.83a3.257 3.257 0 0 0-1.94 2.091L2.82 9.428a5.714 5.714 0 0 0-.165 2.59c.005.03.012.06.022.089l.237.71a1.822 1.822 0 0 0-.993-.28 1.923 1.923 0 0 0-.39.04c-.074.02-.15.04-.223.064-.078.026-.093.038-.143.058a1.878 1.878 0 0 0-.67.493 2.011 2.011 0 0 0-.409.745 2.171 2.171 0 0 0-.071.426l-.006.077-.002.12v.156l-.006 1.309-.001.342c0 .114-.006.216.01.407.02.175.042.32.12.518.098.24.102.225.217.423l.397.616.202.314.102.158c.03.048.068.108.13.191.222.3.538.546.909.674.149.066.482.093.558.09l.14-.016h.099l.198.021c2.119.009 4.38.028 6.64.037 2.26-.008 4.52-.011 6.639-.02l.416-.001a1.937 1.937 0 0 0 1.09-.382c.077-.064.145-.109.224-.196.08-.082.153-.169.177-.207l.078-.109.052-.08.101-.158.202-.314.397-.616c.064-.103.177-.289.224-.444.061-.127.11-.417.115-.514l.006-.087.003-.044.001-.088v-.173z" mask="url(#b)"/>
    </g>
</svg>
