<svg xmlns="http://www.w3.org/2000/svg" width="26" height="26" viewBox="0 0 26 26">
    <path fill="#13C1AC" fill-rule="evenodd" d="M19.414 16.295a.166.166 0 0 1-.14.083l-8.915-.136a.573.573 0 0 0-.363.113l-2.77 1.97c-.255.178-.541.272-.83.272-.469 0-.91-.241-1.21-.661l-.665-.933a1.516 1.516 0 0 1-.289-1.106c.057-.375.263-.696.6-.932l2.184-1.554.611.799a.61.61 0 0 0 .853.115.6.6 0 0 0 .116-.845l-.719-.94 2.777-8.223c.018-.05.079-.1.133-.108a.211.211 0 0 1 .03-.003c.053 0 .106.021.127.051l8.476 11.874c.023.032.027.102-.006.164zm-8.435 5.499L8.92 18.6l.835-.594 2.4 3.788h-1.175zm.958-18.234l8.476 11.874c.29.407.32.958.077 1.416-.235.442-.712.72-1.215.72h-.02l-8.417-.12 2.931 4.626a.6.6 0 0 1 .017.613.61.61 0 0 1-.532.311h-2.608a.61.61 0 0 1-.512-.278L7.93 19.305a2.666 2.666 0 0 1-1.534.499c-.869 0-1.671-.427-2.203-1.171l-.665-.933c-.425-.595-.603-1.3-.5-1.982a2.588 2.588 0 0 1 1.097-1.736l2.609-1.854L9.5 3.934a1.39 1.39 0 0 1 1.11-.92 1.393 1.393 0 0 1 1.326.546zm4.55 3.694a.604.604 0 0 1-.54-.664.607.607 0 0 1 .67-.535c2.063.22 3.56 2.065 3.337 4.11l-.007.062a.607.607 0 0 1-.677.526.605.605 0 0 1-.53-.672l.005-.046c.15-1.383-.862-2.631-2.258-2.78zm5.137-1.842a6.093 6.093 0 0 1 1.34 4.532l-.013.104a.607.607 0 0 1-.679.524.604.604 0 0 1-.528-.673l.01-.087a4.9 4.9 0 0 0-1.078-3.643 4.982 4.982 0 0 0-3.36-1.822.604.604 0 0 1-.54-.665.608.608 0 0 1 .67-.535 6.194 6.194 0 0 1 4.178 2.265z"/>
</svg>
