<svg id="Capa_1" data-name="Capa 1" xmlns="http://www.w3.org/2000/svg" viewBox="0 0 26 26"><defs><style>.cls-1{fill:#13c1ac;}</style></defs><title>Mesa de trabajo 1 copia</title><path class="cls-1" d="M21.43,8.33,13.79,3.76a.6.6,0,0,0-.59,0L5.51,7.92a.6.6,0,0,0-.31.52l-.05,8.75a.6.6,0,0,0,.29.52l7.64,4.58a.6.6,0,0,0,.31.08.59.59,0,0,0,.29-.07l7.69-4.17a.6.6,0,0,0,.31-.52l.05-8.75A.6.6,0,0,0,21.43,8.33ZM13.47,5l6.44,3.86-2.75,1.49,0,0L11,6.29Zm-.32,7.53a.57.57,0,0,0-.09.08L6.69,8.64l3.13-1.7L16,11ZM6.39,9.86l6.12,3.78v6.91l-6.17-3.7Zm7.32,11V13.55h0l6.8-3.69,0,7.38Z"/></svg>