<svg xmlns="http://www.w3.org/2000/svg" width="19" height="19" viewBox="0 0 19 19">
    <path fill="#13C1AC" fill-rule="nonzero" d="M13.603 9.794l-4.633 6.38a.307.307 0 0 1-.252.132c-.184 0-.363-.16-.314-.384l.955-4.386a.316.316 0 0 0-.31-.382H6.29c-.726 0-1.241-.71-1.014-1.399l2.11-6.365c.138-.416.528-.696.968-.696h3.68c.789 0 1.278.854.877 1.53L11.226 7.07h-.872a.648.648 0 1 0 0 1.297h2.555c.714.03 1.12.842.694 1.428m1.23-1.528a2.188 2.188 0 0 0-1.808-1.192c-.008 0-.016-.005-.025-.005h-.049c-.028-.001-.054-.006-.082-.006h-.133l1.29-2.177c.421-.713.428-1.602.02-2.32a2.32 2.32 0 0 0-2.013-1.169h-3.68c-1 0-1.884.637-2.199 1.585L4.045 9.348a2.366 2.366 0 0 0 .327 2.123c.443.613 1.16.98 1.918.98h1.543l-.696 3.195c-.104.482.011.974.316 1.352a1.64 1.64 0 0 0 1.265.605c.52 0 .994-.243 1.301-.667l4.634-6.38c.488-.673.557-1.55.18-2.29"/>
</svg>
