<svg xmlns="http://www.w3.org/2000/svg" width="12" height="12" viewBox="0 0 12 12">
    <path fill="#000" fill-rule="nonzero" d="M4.126 6c0 2.834 1.594 5.077 3.445 5.077 1.85 0 3.445-2.243 3.445-5.077S9.42.923 7.57.923C5.72.923 4.126 3.166 4.126 6zM5.195.923h-.846c-.961 0-1.854.637-2.478 1.662h2.05A5.39 5.39 0 0 1 5.195.923zM7.377.006C7.44.002 7.506 0 7.57 0 10.069 0 12 2.717 12 6s-1.931 6-4.43 6H4.35C1.892 12 0 9.283 0 6s1.892-6 4.35-6h3.027v.006zm-2.182 11.07a5.205 5.205 0 0 1-1.07-1.291H2.12c.602.806 1.39 1.292 2.23 1.292h.845zM1.578 8.863h2.094a7.573 7.573 0 0 1-.489-2.031H1.03c.082.746.274 1.435.548 2.03zM.985 5.908h2.157c.01-.853.15-1.665.395-2.4H1.423a7.03 7.03 0 0 0-.438 2.4zm8.47 2.185a.5.5 0 0 1-.62.296c-.258-.078-.4-.338-.316-.58.013-.04.063-.178.072-.203.03-.083.053-.155.076-.232.127-.434.199-.962.199-1.72 0-.845-.243-1.596-.533-2.064a.446.446 0 0 1 .178-.631.51.51 0 0 1 .673.167c.373.602.666 1.51.666 2.528 0 .838-.083 1.449-.234 1.965-.028.093-.056.18-.09.277-.011.03-.06.165-.07.197z"/>
</svg>
