<svg xmlns="http://www.w3.org/2000/svg" width="151" height="87" viewBox="0 0 151 87"><g fill="none" fill-rule="evenodd"><path fill="#B0BEC5" fill-rule="nonzero" d="M25.865 47.1c-5.744 9.124-8.453 18.437-8.115 27.927a.75.75 0 1 0 1.5-.054c-.328-9.177 2.296-18.197 7.885-27.073a.75.75 0 1 0-1.27-.8zm102.242 0c5.744 9.124 8.454 18.437 8.115 27.927a.75.75 0 1 1-1.5-.054c.329-9.177-2.295-18.197-7.884-27.073a.75.75 0 0 1 1.269-.8z"/><path fill="#CFD8DC" fill-rule="nonzero" d="M128.365 10.6c-7.154 11.383-19.005 15.442-35.72 12.164a.75.75 0 1 0-.29 1.472c17.285 3.39 29.768-.886 37.28-12.837a.75.75 0 1 0-1.27-.798z"/><path d="M39.5 50.5c12.15 0 22-9.85 22-22s-9.85-22-22-22-22 9.85-22 22 9.85 22 22 22zm0 1.5C26.521 52 16 41.479 16 28.5S26.521 5 39.5 5 63 15.521 63 28.5 52.479 52 39.5 52zm75-1.5c12.15 0 22-9.85 22-22s-9.85-22-22-22-22 9.85-22 22 9.85 22 22 22zm0 1.5C101.521 52 91 41.479 91 28.5S101.521 5 114.5 5 138 15.521 138 28.5 127.479 52 114.5 52z" fill="#B0BEC5" fill-rule="nonzero"/><path fill="#B0BEC5" fill-rule="nonzero" d="M44.084 34.624c2.252 1.501 4.58 1.501 6.832 0a.75.75 0 1 0-.832-1.248c-1.748 1.165-3.42 1.165-5.168 0a.75.75 0 1 0-.832 1.248z"/><circle cx="116.5" cy="32.5" r="1.5" fill="#B0BEC5"/><circle cx="97.5" cy="32.5" r="1.5" fill="#B0BEC5"/><path fill="#B0BEC5" fill-rule="nonzero" d="M103.084 34.624c2.252 1.501 4.58 1.501 6.832 0a.75.75 0 1 0-.832-1.248c-1.748 1.165-3.42 1.165-5.168 0a.75.75 0 0 0-.832 1.248zM25.79 47.256C17.98 70.011 22.71 81.75 40 81.75c17.309 0 21.692-11.922 13.204-35.009l-1.408.518C59.975 69.505 56.024 80.25 40 80.25c-16.043 0-20.313-10.595-12.79-32.506l-1.42-.488zm75 0C92.98 70.011 97.71 81.75 115 81.75c17.309 0 21.692-11.922 13.204-35.009l-1.408.518C134.975 69.505 131.024 80.25 115 80.25c-16.043 0-20.313-10.595-12.79-32.506l-1.42-.488z"/><path fill="#B0BEC5" fill-rule="nonzero" d="M28.25 78.5V86a.75.75 0 1 0 1.5 0v-7.5a.75.75 0 1 0-1.5 0zm22 0V86a.75.75 0 1 0 1.5 0v-7.5a.75.75 0 1 0-1.5 0zm52 0V86a.75.75 0 1 0 1.5 0v-7.5a.75.75 0 1 0-1.5 0zm22 1V86a.75.75 0 1 0 1.5 0v-6.5a.75.75 0 1 0-1.5 0z"/><path fill="#CFD8DC" fill-rule="nonzero" d="M15 86.75h42a.75.75 0 1 0 0-1.5H15a.75.75 0 1 0 0 1.5zm81 0h42a.75.75 0 1 0 0-1.5H96a.75.75 0 1 0 0 1.5z"/><path fill="#B0BEC5" fill-rule="nonzero" d="M101.612 48.434c-5.776 8.154-13.936 13.424-24.447 15.798a.75.75 0 0 1-.33-1.464c10.156-2.293 17.996-7.356 23.553-15.202a.75.75 0 0 1 1.224.868z"/><path fill="#B0BEC5" fill-rule="nonzero" d="M52.376 48.416c5.443 8.165 13.443 13.44 23.959 15.816a.75.75 0 0 0 .33-1.464c-10.15-2.292-17.817-7.349-23.041-15.184a.75.75 0 1 0-1.248.832z"/><path fill="#CFD8DC" fill-rule="nonzero" d="M69 86.75h18.5a.75.75 0 1 0 0-1.5H69a.75.75 0 1 0 0 1.5z"/><path fill="#FD6C67" d="M14.433 2.476l-.66-.228a2.132 2.132 0 0 1-1.321-1.32l-.228-.661a.395.395 0 0 0-.748 0l-.228.66a2.134 2.134 0 0 1-1.321 1.321l-.66.228a.396.396 0 0 0 0 .748l.66.228c.62.215 1.107.701 1.32 1.321l.23.66a.396.396 0 0 0 .747 0l.228-.66a2.13 2.13 0 0 1 1.32-1.32l.661-.229a.396.396 0 0 0 0-.748" opacity=".5"/><path fill="#FFC615" d="M144.766 8.172l-.58-.2a1.872 1.872 0 0 1-1.158-1.159l-.2-.58a.346.346 0 1 0-.656 0l-.2.58a1.87 1.87 0 0 1-1.16 1.158l-.579.2a.346.346 0 0 0 0 .656l.58.2a1.87 1.87 0 0 1 1.158 1.16l.2.579a.347.347 0 0 0 .656 0l.2-.58c.189-.544.615-.97 1.159-1.158l.58-.2a.346.346 0 0 0 0-.656"/><path fill="#C1F5E6" d="M7.94 46.618l-.965-.333a3.118 3.118 0 0 1-1.93-1.931l-.333-.964a.58.58 0 0 0-1.093 0l-.334.964a3.117 3.117 0 0 1-1.93 1.93l-.965.334a.578.578 0 0 0 0 1.093l.965.333a3.12 3.12 0 0 1 1.93 1.93l.334.965a.579.579 0 0 0 1.093 0l.333-.964a3.121 3.121 0 0 1 1.93-1.931l.965-.333a.577.577 0 0 0 0-1.093"/><path fill="#4ACDE8" d="M150.678 58.043l-.812-.28a2.626 2.626 0 0 1-1.624-1.624l-.279-.811a.487.487 0 0 0-.92 0l-.28.811a2.624 2.624 0 0 1-1.624 1.624l-.812.28a.487.487 0 0 0 0 .919l.812.281a2.622 2.622 0 0 1 1.624 1.623l.28.812a.487.487 0 0 0 .92 0l.279-.812a2.625 2.625 0 0 1 1.624-1.623l.812-.281a.486.486 0 0 0 0-.919" opacity=".5"/><circle cx="38.5" cy="32.5" r="1.5" fill="#B0BEC5"/><circle cx="56.5" cy="32.5" r="1.5" fill="#B0BEC5"/></g></svg>