<svg xmlns="http://www.w3.org/2000/svg" xmlns:xlink="http://www.w3.org/1999/xlink" width="194" height="351" viewBox="0 0 194 351">
    <defs>
        <path id="a" d="M0 11.877V.552h11.326v11.325H0z"/>
    </defs>
    <g fill="none" fill-rule="evenodd">
        <path stroke="#ECEFF1" stroke-linecap="round" stroke-width="3" d="M60.26 204.291l.446-64.842"/>
        <g stroke="#ECEFF1" stroke-linecap="round" stroke-width="3">
            <path d="M89.03 102.301L61.043 204.957M26.376 120.752l33.885 83.54"/>
        </g>
        <path stroke="#F2F2F2" stroke-linecap="round" stroke-width="3" d="M53.293 58.465l2.25 70.66"/>
        <path stroke="#CFD8DC" stroke-width="3" d="M98.81 268.858c17.954 0 32.51-14.555 32.51-32.509 0-17.953-14.556-32.508-32.51-32.508s-32.508 14.554-32.508 32.508 14.554 32.51 32.508 32.51"/>
        <path stroke="#CFD8DC" stroke-linejoin="round" stroke-width="3" d="M90.82 232.662a7.573 7.573 0 0 0 15.145 0H90.82z"/>
        <path fill="#FFF" d="M63.695 137.887c0 .863-1.338 1.562-2.99 1.562-1.65 0-2.987-.7-2.987-1.562 0-2.231 1.338-2.752 2.988-2.752s2.989.452 2.989 2.752"/>
        <path stroke="#B5D7F8" stroke-width="3" d="M63.695 137.887c0 .863-1.338 1.562-2.99 1.562-1.65 0-2.987-.7-2.987-1.562 0-2.231 1.338-2.752 2.988-2.752s2.989.452 2.989 2.752z"/>
        <path stroke="#CFD8DC" stroke-linecap="round" stroke-linejoin="round" stroke-width="3" d="M114.51 267.148c2.63 8.252 2.786 18.422-.166 28.731l-.001.005c-3.47 12.111-16.095 19.112-28.207 15.644l-10.391-2.975c-12.11-3.468-19.117-16.094-15.651-28.203v-.005c2.653-9.258 7.37-17.093 13.084-22.658M114.203 265.853s8.978 16.144 1.941 43.957M72.622 307.512v12.418M90.303 313.457v13.639"/>
        <path fill="#FD6C67" d="M130.296 130.766l-1.472-.508a4.748 4.748 0 0 1-2.942-2.942l-.508-1.472a.88.88 0 0 0-1.666 0l-.509 1.472a4.748 4.748 0 0 1-2.943 2.942l-1.47.508a.882.882 0 0 0 0 1.667l1.47.508a4.75 4.75 0 0 1 2.943 2.943l.51 1.47a.881.881 0 0 0 1.665 0l.508-1.47a4.75 4.75 0 0 1 2.942-2.943l1.472-.508a.882.882 0 0 0 0-1.667" opacity=".5"/>
        <path fill="#13C1AC" d="M10.11 198.976l-1.137-.393A3.671 3.671 0 0 1 6.7 196.31l-.392-1.137a.682.682 0 0 0-1.288 0l-.393 1.137a3.669 3.669 0 0 1-2.274 2.273l-1.137.393a.682.682 0 0 0 0 1.288l1.137.392a3.672 3.672 0 0 1 2.274 2.275l.393 1.136a.68.68 0 0 0 1.288 0l.392-1.136a3.674 3.674 0 0 1 2.274-2.275l1.137-.392a.68.68 0 1 0 0-1.288"/>
        <path fill="#FFC615" d="M20.619 168.414l-.666-.229a2.151 2.151 0 0 1-1.33-1.33l-.23-.667a.399.399 0 0 0-.753 0l-.23.666a2.15 2.15 0 0 1-1.332 1.331l-.664.23a.4.4 0 0 0 0 .753l.664.23a2.148 2.148 0 0 1 1.332 1.33l.23.665a.398.398 0 0 0 .752 0l.23-.665a2.149 2.149 0 0 1 1.33-1.33l.666-.23a.4.4 0 0 0 0-.754" opacity=".5"/>
        <path fill="#FFC615" d="M160.114 180.482l-.927-.32a2.995 2.995 0 0 1-1.853-1.854l-.32-.928a.553.553 0 1 0-1.05 0l-.32.928a2.99 2.99 0 0 1-1.855 1.853l-.926.32a.553.553 0 0 0 0 1.05l.926.32c.87.301 1.555.984 1.855 1.855l.32.926a.555.555 0 0 0 1.05 0l.32-.926c.3-.871.983-1.554 1.853-1.855l.927-.32a.554.554 0 0 0 0-1.05"/>
        <g transform="translate(0 8.998)">
            <mask id="b" fill="#fff">
                <use xlink:href="#a"/>
            </mask>
            <path fill="#FFDAD9" d="M10.796 5.47l-1.312-.452a4.24 4.24 0 0 1-2.625-2.625l-.452-1.311a.788.788 0 0 0-1.487 0l-.453 1.31a4.238 4.238 0 0 1-2.624 2.626L.53 5.47a.786.786 0 0 0 0 1.486l1.313.453a4.242 4.242 0 0 1 2.624 2.625l.453 1.312a.787.787 0 0 0 1.487 0l.452-1.312A4.244 4.244 0 0 1 9.484 7.41l1.312-.453a.785.785 0 0 0 0-1.486" mask="url(#b)"/>
        </g>
        <path fill="#13C1AC" d="M120.669 20.465l-1.313-.454a4.238 4.238 0 0 1-2.624-2.624l-.453-1.312a.786.786 0 0 0-1.486 0l-.453 1.312a4.238 4.238 0 0 1-2.624 2.624l-1.313.454a.786.786 0 0 0 0 1.486l1.313.453a4.243 4.243 0 0 1 2.624 2.624l.453 1.313a.785.785 0 0 0 1.486 0l.453-1.313a4.243 4.243 0 0 1 2.624-2.624l1.313-.453a.788.788 0 0 0 0-1.486"/>
        <path fill="#13C1AC" d="M119.335 344.592l-1.312-.453a4.241 4.241 0 0 1-2.625-2.625l-.453-1.312a.786.786 0 0 0-1.486 0l-.453 1.312a4.24 4.24 0 0 1-2.624 2.625l-1.313.453a.785.785 0 0 0 0 1.486l1.313.453a4.24 4.24 0 0 1 2.624 2.624l.453 1.313a.786.786 0 0 0 1.486 0l.453-1.313a4.242 4.242 0 0 1 2.625-2.624l1.312-.453a.786.786 0 0 0 0-1.486" opacity=".3"/>
        <path fill="#FD6C67" d="M113.412 175.558l-.812-.28a2.626 2.626 0 0 1-1.624-1.624l-.279-.811a.487.487 0 0 0-.92 0l-.28.81a2.624 2.624 0 0 1-1.624 1.625l-.812.28a.487.487 0 0 0 0 .919l.812.28a2.622 2.622 0 0 1 1.624 1.624l.28.812a.487.487 0 0 0 .92 0l.28-.812a2.625 2.625 0 0 1 1.623-1.623l.812-.281a.486.486 0 0 0 0-.92" opacity=".5"/>
        <path fill="#FFC615" d="M33.373 195.658l-.812-.281a2.622 2.622 0 0 1-1.624-1.623l-.28-.811a.485.485 0 0 0-.919 0l-.28.81a2.622 2.622 0 0 1-1.624 1.624l-.812.28a.487.487 0 0 0 0 .92l.812.28c.762.263 1.36.862 1.624 1.624l.28.812a.486.486 0 0 0 .92 0l.28-.812a2.622 2.622 0 0 1 1.623-1.623l.812-.281a.486.486 0 0 0 0-.92" opacity=".5"/>
        <path fill="#13C1AC" d="M31.102 319.638l-1.127-.39a3.637 3.637 0 0 1-2.253-2.253l-.39-1.127a.675.675 0 0 0-1.275 0l-.39 1.127a3.637 3.637 0 0 1-2.252 2.253l-1.127.39a.674.674 0 0 0 0 1.275l1.127.39a3.639 3.639 0 0 1 2.253 2.253l.389 1.127a.676.676 0 0 0 1.276 0l.389-1.127a3.639 3.639 0 0 1 2.253-2.253l1.127-.39a.673.673 0 0 0 0-1.275" opacity=".3"/>
        <path fill="#13C1AC" d="M29.743 51.677l-1.127-.389a3.636 3.636 0 0 1-2.253-2.254l-.389-1.126a.676.676 0 0 0-1.277 0l-.388 1.126a3.64 3.64 0 0 1-2.253 2.254l-1.127.39a.676.676 0 0 0 0 1.276l1.127.39a3.64 3.64 0 0 1 2.253 2.251l.388 1.128a.678.678 0 0 0 1.277 0l.389-1.128a3.635 3.635 0 0 1 2.253-2.252l1.127-.39a.676.676 0 0 0 0-1.276M98.207 153.171l-.808-.279a2.612 2.612 0 0 1-1.617-1.617l-.28-.808a.485.485 0 0 0-.914 0l-.28.808a2.613 2.613 0 0 1-1.615 1.617l-.81.28a.484.484 0 0 0 0 .915l.81.279a2.615 2.615 0 0 1 1.616 1.616l.279.808a.484.484 0 0 0 .915 0l.279-.808a2.614 2.614 0 0 1 1.617-1.617l.808-.278a.486.486 0 0 0 0-.916"/>
        <path fill="#FFF" d="M28.43 117.705c0 .898-1.385 1.626-3.094 1.626-1.71 0-3.095-.728-3.095-1.626 0-2.323 1.385-2.865 3.095-2.865 1.709 0 3.094.47 3.094 2.865"/>
        <path stroke="#C6EDF6" stroke-width="3" d="M28.43 117.705c0 .898-1.385 1.626-3.094 1.626-1.71 0-3.095-.728-3.095-1.626 0-2.323 1.385-2.865 3.095-2.865 1.709 0 3.094.47 3.094 2.865z"/>
        <path fill="#FFF" d="M92.008 101.37c0 1.046-1.333 1.893-2.98 1.893-1.644 0-2.977-.847-2.977-1.892 0-2.703 1.333-3.333 2.978-3.333 1.646 0 2.979.548 2.979 3.333"/>
        <path stroke="#FFCBD9" stroke-width="3" d="M92.008 101.37c0 1.046-1.333 1.893-2.98 1.893-1.644 0-2.977-.847-2.977-1.892 0-2.703 1.333-3.333 2.978-3.333 1.646 0 2.979.548 2.979 3.333z"/>
        <path fill="#FFF" d="M56.033 63.949c0 1.026-1.227 1.858-2.74 1.858-1.513 0-2.74-.832-2.74-1.858 0-2.654 1.227-3.273 2.74-3.273 1.513 0 2.74.538 2.74 3.273"/>
        <path stroke="#C1F5E6" stroke-width="3" d="M56.033 63.949c0 1.026-1.227 1.858-2.74 1.858-1.513 0-2.74-.832-2.74-1.858 0-2.654 1.227-3.273 2.74-3.273 1.513 0 2.74.538 2.74 3.273z"/>
        <path stroke="#ECEFF1" stroke-linecap="round" stroke-width="3" d="M147.157 290.259c12.325-2.208 33.692-3.305 44.417 12.234M124.54 295.013c8.074-1.246 13.264-2.511 13.264-2.511M48.25 285.696a44.834 44.834 0 0 0 4.888 3.12M60.342 219.298s-42.11 8.333-24.299 51.002a35.607 35.607 0 0 0 6.457 10.216"/>
        <path stroke="#CFD8DC" stroke-linecap="round" stroke-linejoin="round" stroke-width="3" d="M73.182 256.933S58.363 239.42 60.253 203.84"/>
        <path fill="#FFF" d="M106.821 69.537c0-12.559-7.966-22.74-17.792-22.74s-17.79 10.181-17.79 22.74c0 12.56 12.496 28.646 17.79 28.646 5.294 0 17.792-16.087 17.792-28.646"/>
        <path stroke="#FFCBD9" stroke-width="3" d="M106.821 69.537c0-12.559-7.966-22.74-17.792-22.74s-17.79 10.181-17.79 22.74c0 12.56 12.496 28.646 17.79 28.646 5.294 0 17.792-16.087 17.792-28.646z"/>
        <path fill="#FFF" d="M84.85 54.47c1.3-.769 2.712-1.195 4.18-1.195"/>
        <path stroke="#FFCBD9" stroke-width="3" d="M84.85 54.47c1.3-.769 2.712-1.195 4.18-1.195"/>
        <path fill="#FFF" d="M77.716 69.538c0-4.231 1.193-8.146 3.112-11.075"/>
        <path stroke="#FFCBD9" stroke-width="3" d="M77.716 69.538c0-4.231 1.193-8.146 3.112-11.075"/>
        <path fill="#FFF" d="M73.877 27.81c0-14.53-9.216-26.31-20.584-26.31-11.369 0-20.585 11.78-20.585 26.31s14.46 33.142 20.585 33.142S73.877 42.34 73.877 27.81"/>
        <path stroke="#C1F5E6" stroke-width="3" d="M73.877 27.81c0-14.53-9.216-26.31-20.584-26.31-11.369 0-20.585 11.78-20.585 26.31s14.46 33.142 20.585 33.142S73.877 42.34 73.877 27.81z"/>
        <path fill="#FFF" d="M48.24 9.346c1.576-.881 3.283-1.368 5.053-1.368"/>
        <path stroke="#C2FFF5" stroke-linecap="round" stroke-linejoin="round" stroke-width="3" d="M48.24 9.346c1.576-.881 3.283-1.368 5.053-1.368"/>
        <path fill="#FFF" d="M39.186 27.81c0-5.337 1.592-10.263 4.131-13.87"/>
        <path stroke="#C2FFF5" stroke-linecap="round" stroke-linejoin="round" stroke-width="3" d="M39.186 27.81c0-5.337 1.592-10.263 4.131-13.87"/>
        <path fill="#FFF" d="M45.008 82.766c0-13.887-8.808-25.144-19.672-25.144-10.866 0-19.673 11.257-19.673 25.144 0 13.886 13.82 31.674 19.673 31.674 5.853 0 19.672-17.788 19.672-31.674"/>
        <path stroke="#C6EDF6" stroke-width="3" d="M45.008 82.766c0-13.887-8.808-25.144-19.672-25.144-10.866 0-19.673 11.257-19.673 25.144 0 13.886 13.82 31.674 19.673 31.674 5.853 0 19.672-17.788 19.672-31.674z"/>
        <path fill="#FFF" d="M18.016 67.34c2.11-2.037 4.637-3.24 7.32-3.24"/>
        <path stroke="#C6EDF6" stroke-linecap="round" stroke-linejoin="round" stroke-width="3" d="M18.016 67.34c2.11-2.037 4.637-3.24 7.32-3.24"/>
        <path fill="#FFF" d="M12.14 82.766c0-4.54 1.216-8.761 3.203-12.04"/>
        <path stroke="#C6EDF6" stroke-linecap="round" stroke-linejoin="round" stroke-width="3" d="M12.14 82.766c0-4.54 1.216-8.761 3.203-12.04"/>
        <path stroke="#CFD8DC" stroke-linecap="round" stroke-linejoin="round" stroke-width="3" d="M110.344 226.193a4.85 4.85 0 0 1 5.578 0M80.169 226.193a4.85 4.85 0 0 1 5.578 0"/>
        <path fill="#FFF" d="M83.202 97.566c0-16.194-10.271-29.32-22.941-29.32-12.671 0-22.942 13.126-22.942 29.32 0 16.194 16.115 36.938 22.942 36.938 6.826 0 22.941-20.744 22.941-36.938"/>
        <path stroke="#B5D7F8" stroke-width="3" d="M83.202 97.566c0-16.194-10.271-29.32-22.941-29.32-12.671 0-22.942 13.126-22.942 29.32 0 16.194 16.115 36.938 22.942 36.938 6.826 0 22.941-20.744 22.941-36.938z"/>
        <g>
            <path fill="#FFF" d="M54.925 76.005c1.682-.83 3.479-1.282 5.336-1.282"/>
            <path stroke="#B5D7F8" stroke-linecap="round" stroke-linejoin="round" stroke-width="3" d="M54.925 76.005c1.682-.83 3.479-1.282 5.336-1.282"/>
        </g>
        <g>
            <path fill="#FFF" d="M43.797 97.566c0-6.17 1.873-11.865 4.856-16.025"/>
            <path stroke="#B5D7F8" stroke-linecap="round" stroke-linejoin="round" stroke-width="3" d="M43.797 97.566c0-6.17 1.873-11.865 4.856-16.025"/>
        </g>
        <path stroke="#ECEFF1" stroke-linecap="round" stroke-width="3" d="M57.567 210.062s3.734 0 5.55 3.21"/>
    </g>
</svg>
