<svg xmlns="http://www.w3.org/2000/svg" width="26" height="13" viewBox="0 0 26 13"><path fill="#13C1AC" fill-rule="evenodd" d="M24.375 7.85c0 .648-.555 1.175-1.236 1.175h-.322a2.456 2.456 0 0 0-2.098-1.158c-.898 0-1.676.47-2.099 1.158H8.192a2.456 2.456 0 0 0-2.098-1.158c-.901 0-1.68.472-2.102 1.165-.012 0-.022-.007-.034-.007H2.86c-.681 0-1.236-.527-1.236-1.175 0-.393.206-.759.55-.977a8.15 8.15 0 0 1 2.86-1.126l2.029-.473c.08-.015.16-.11.242-.11H23.63c.41 0 .744.492.744.882V7.85zm-3.656 3.106c-.448 0-.813-.346-.813-.773 0-.425.365-.772.813-.772.447 0 .812.347.812.772 0 .427-.365.773-.812.773zm-14.625 0c-.448 0-.813-.346-.813-.773 0-.425.365-.772.813-.772.447 0 .812.347.812.772 0 .427-.365.773-.812.773zM23.63 3.619h-1.283l.317-.513c.2-.382.037-.802-.364-.993-.402-.191-.89-.1-1.09.28l-.68 1.226h-3.058l.317-.513c.2-.382.037-.802-.364-.993-.402-.191-.89-.1-1.09.28l-.68 1.226H9.4l2.484-1.8c.35-.266.407-.709.127-1.042-.28-.333-.793-.366-1.143-.098l-4.062 3.1c-.021.016-.031.044-.05.062-.004 0-.007.003-.01.003l-2.028.387a9.843 9.843 0 0 0-3.443 1.356C.476 6.093 0 6.938 0 7.85c0 1.5 1.284 2.72 2.86 2.72h.838c.194 1.093 1.19 1.93 2.396 1.93 1.205 0 2.202-.837 2.396-1.93h9.833c.194 1.093 1.19 1.93 2.396 1.93 1.205 0 2.202-.837 2.396-1.93h.024C24.716 10.57 26 9.35 26 7.85V6.046c0-1.242-1.063-2.427-2.37-2.427z"/></svg>