<svg width="26" height="11" viewBox="0 0 26 11" xmlns="http://www.w3.org/2000/svg"><g id="Page-1" fill="none" fill-rule="evenodd"><path d="M20.335 7.626a.753.753 0 1 0 0 1.505.753.753 0 0 0 0-1.505zm-13.047-.24h11.019a2.26 2.26 0 0 1 2.028-1.265c.89 0 1.66.517 2.028 1.267l.608.003c.453.004.92.015 1.25-.064.143-.035.253-.198.253-.38v-.192c.002-.308.002-.784 0-.852.002-.436-.04-.696-.081-.801-.06-.072-.604-.54-1.138-.58-.303-.022-1.317-.113-1.704-.35-.463-.287-.708-.545-.925-.773-.301-.32-.587-.622-1.73-1.14-3.001-1.363-6.497-.58-7.631-.013l-.383.19H11.9a.753.753 0 0 1 0 1.506H7.918a.754.754 0 0 1-.178-.022c-.621.166-1.704.389-3.228.698-1.1.223-2.14.434-2.627.562l-.063.051a.712.712 0 0 0-.317.594v1.073c0 .167.136.303.303.303h1.527a2.259 2.259 0 0 1 3.953.186zm.171 1.506a2.262 2.262 0 0 1-2.199 1.744 2.261 2.261 0 0 1-2.234-1.93H1.808A1.81 1.81 0 0 1 0 6.898V5.825c0-.743.37-1.433.987-1.846l.105-.07c.131-.087.265-.147.411-.186.529-.138 1.588-.353 2.71-.58 1.29-.262 3.056-.62 3.415-.76L10.592.9C12.36.015 16.299-.573 19.517.888c1.412.64 1.832 1.084 2.203 1.475.189.2.325.344.62.527.101.028.749.11 1.026.131 1.143.085 2.223.988 2.435 1.547.121.319.18.761.178 1.317.025.666.036 1.056-.016 1.31-.1.768-.655 1.418-1.392 1.595-.382.092-.792.11-1.202.11-.14 0-.282-.002-.422-.004l-.414-.003a2.262 2.262 0 0 1-2.198 1.743 2.262 2.262 0 0 1-2.199-1.744H7.46zM5.26 7.626a.753.753 0 1 0 .002 1.506.753.753 0 0 0-.002-1.506z" id="Combined-Shape" fill="#13C1AC" fill-rule="nonzero"/></g></svg>