<?xml version="1.0" encoding="UTF-8"?>
<svg width="18px" height="18px" viewBox="0 0 18 18" version="1.1" xmlns="http://www.w3.org/2000/svg" xmlns:xlink="http://www.w3.org/1999/xlink">
    <!-- Generator: Sketch 42 (36781) - http://www.bohemiancoding.com/sketch -->
    <title>close</title>
    <desc>Created with Sketch.</desc>
    <defs></defs>
    <g id="Styleguide" stroke="none" stroke-width="1" fill="none" fill-rule="evenodd">
        <g id="ICONS" transform="translate(-146.000000, -443.000000)" fill="#ffffff">
            <path d="M146.218153,460.59004 C146.363589,460.735459 146.554194,460.808169 146.74455,460.808169 C146.935155,460.808169 147.125512,460.735459 147.270947,460.59004 L154.992677,452.869163 L162.714655,460.59004 C162.860091,460.735459 163.050448,460.808169 163.241052,460.808169 C163.431409,460.808169 163.622014,460.735459 163.767449,460.59004 C164.05832,460.299449 164.05832,459.827953 163.767449,459.537362 L156.045719,451.816485 L163.591984,444.270807 C163.882855,443.980216 163.882855,443.50872 163.591984,443.218129 C163.301113,442.92729 162.830061,442.92729 162.53919,443.218129 L154.992677,450.76356 L147.446413,443.218129 C147.155542,442.92729 146.68449,442.92729 146.393619,443.218129 C146.102748,443.50872 146.102748,443.980216 146.393619,444.270807 L153.939883,451.816485 L146.218153,459.537362 C145.927282,459.827953 145.927282,460.299449 146.218153,460.59004" id="close"></path>
        </g>
    </g>
</svg>
