<svg width="28" height="32" fill="none" xmlns="http://www.w3.org/2000/svg"><path fill-rule="evenodd" clip-rule="evenodd" d="M10.832 17.612a1 1 0 00-1.387-.277L7.638 18.54l-1.327-2.654a1 1 0 00-1.789.895l1.439 2.877-2.016 1.344a1 1 0 101.11 1.664l1.807-1.204 1.326 2.653a1 1 0 101.79-.895l-1.439-2.877L10.555 19a1 1 0 00.277-1.387zM15 29.417V16.572l10.966-6.449L26 23l-11 6.417zM2 23V10.158l11 6.416v12.843L2 23zm11.998-8.159L2.992 8.421l4.456-2.599c.019.012.029.032.048.042l10.927 6.374-4.425 2.603zM14 2l10.971 6.387-4.571 2.688L9.422 4.671 14 2zm13.963 6.959a2.004 2.004 0 00-.994-1.724L15.006.271a2.007 2.007 0 00-2.014.001l-12 7A2.003 2.003 0 000 9v14c0 .711.378 1.369.992 1.728l12 7a2.008 2.008 0 002.016 0l12-7A2 2 0 0028 22.995l-.037-14.036z" fill="#253238"/></svg>