<svg width="29" height="24" viewBox="0 0 29 24" xmlns="http://www.w3.org/2000/svg"><path d="M26.735 20.71c0 .814-.66 1.474-1.474 1.474H3.18c-.814 0-1.474-.66-1.474-1.473v-.467c0-.813.66-1.473 1.474-1.473h22.081c.814 0 1.474.66 1.474 1.473v.467zM5.404 14.84c0-.813.66-1.473 1.473-1.473h14.687c.814 0 1.473.66 1.473 1.474v.466c0 .814-.66 1.473-1.473 1.473H6.877c-.814 0-1.473-.66-1.473-1.473v-.466zm2.864-6.107l.163-.542c.176-.582.644-.887.902-1.015.285-.138.601-.208.942-.208.182 0 .37.02.577.063l.377.071c.263.047.62.106 1.03.143.497.05.983.064 1.443.039a7.096 7.096 0 0 0 1.556-.236c.955-.262 1.79-.791 2.34-1.48.08-.097.15-.198.216-.294.024-.035.047-.07.071-.102a.908.908 0 0 0 .06-.093l.176-.314a.83.83 0 0 0 .034-.068l.137-.308c.305-.702.575-1.228.827-1.61l.016-.025c.144-.234.268-.364.365-.448a.427.427 0 0 1 .067-.05l.259-.014c.007.004.017.01.027.018.046.042.168.17.312.473.136.32.407 1.149.15 2.232-.004.013-.045.19-.132.49l-.21.587-.05.114c-.09.198-.182.403-.302.618a6.742 6.742 0 0 1-1.267 1.625 7.561 7.561 0 0 1-1.959 1.325c-.645.305-1.378.548-2.18.72-.614.134-1.242.22-1.926.261a14.099 14.099 0 0 1-1.339.028l-.52-.016c-.767-.036-1.46-.322-1.863-.772-.317-.348-.427-.789-.299-1.212zm12.844 1.185c0 .9-.732 1.656-1.633 1.656-.114 0-.223.087-.323.087H16.29c.288-.284.569-.244.835-.37a9.32 9.32 0 0 0 2.404-1.642c.339-.321.649-.675.924-1.034.408.304.66.78.66 1.303zm4.21 7.147c1.754 0 3.12 1.32 3.12 3.074v.495c0 1.753-1.366 3.257-3.12 3.257H3.245C1.49 23.89 0 22.387 0 20.634v-.495c0-1.754 1.49-3.074 3.244-3.074h.988c-.302-.57-.535-1.164-.535-1.778v-.495c0-1.753 1.482-3.131 3.235-3.131h.958c-.218-.284-.416-.354-.589-.548a2.982 2.982 0 0 1-.666-2.873l.162-.542c.27-.89.903-1.618 1.785-2.054.784-.381 1.684-.48 2.604-.286l.352.066c.22.04.528.09.882.122.423.043.803.055 1.192.033a5.5 5.5 0 0 0 1.19-.176c.828-.226 1.277-.668 1.472-.912.055-.067.094-.125.131-.18l.075-.108.133-.237.118-.265c.341-.788.647-1.38.957-1.85.206-.335.436-.612.684-.825.317-.289.689-.454 1.086-.474l.318-.016.077-.002c.275 0 .692.077 1.123.442.29.262.532.606.738 1.04l.012.027c.425.985.516 2.191.25 3.31 0 0-.05.22-.161.602l-.016.049-.231.644a.705.705 0 0 1-.029.068l-.065.14c-.04.09-.09.19-.138.291a3.327 3.327 0 0 1 1.465 2.768 3.33 3.33 0 0 1-.53 1.77c1.432.31 2.473 1.584 2.473 3.107v.495c0 .614-.107 1.209-.41 1.778h.989zM2.845 4.55a.853.853 0 1 1 0-1.707h.853a.853.853 0 1 1 0 1.707h-.853zm5.688-2.845a.853.853 0 1 1 0-1.706h.854a.853.853 0 1 1 0 1.706h-.854zm17.065 8.817a.853.853 0 1 1 0-1.706h.853a.853.853 0 1 1 0 1.706h-.853z" fill="#333" fill-rule="evenodd"/></svg>