<svg width="14" height="16" viewBox="0 0 14 16" xmlns="http://www.w3.org/2000/svg"><path d="M13.022 3.63v.03a.643.643 0 0 1-.621.615H1.576c-.319 0-.598-.289-.598-.618 0-.346.294-.649.629-.649h10.794c.325 0 .621.296.621.621zm-1.605 10.475c-.021.208-1.173.945-4.588.945-3.468 0-4.273-.749-4.287-.937l-.691-8.73h10.115l-.549 8.722zM4.384 1.987c0-.64.379-1.037.989-1.037h2.989c.632 0 1.074.427 1.074 1.037v.071H4.384v-.07zM8.362 0c1.17 0 2.052.855 2.052 1.987v.071h1.987c.867 0 1.599.72 1.599 1.571v.03c0 .657-.438 1.232-1.038 1.46l-.568 9.042C12.327 15.31 10.246 16 6.829 16c-4.463 0-5.212-1.138-5.262-1.817L.843 5.038A1.587 1.587 0 0 1 0 3.657c0-.867.736-1.599 1.607-1.599h1.799v-.07C3.406.817 4.215 0 5.373 0h2.989zM6.725 12.84c.27 0 .49-.212.49-.474V7.14a.482.482 0 0 0-.49-.475.482.482 0 0 0-.489.475v5.226c0 .262.22.475.49.475zm2.451 0c.27 0 .489-.212.489-.474V7.14a.482.482 0 0 0-.489-.475.482.482 0 0 0-.489.475v5.226c0 .262.219.475.489.475zm-4.766 0c.27 0 .49-.212.49-.474V7.14a.482.482 0 0 0-.49-.475.482.482 0 0 0-.489.475v5.226c0 .262.22.475.49.475z" fill="#607d8b" fill-rule="evenodd"/></svg>