<svg xmlns="http://www.w3.org/2000/svg" width="26" height="27" viewBox="0 0 26 27">
    <defs>
        <linearGradient id="a" x1="100%" x2="0%" y1="50%" y2="50%">
            <stop offset="0%" stop-color="#B76BF9"/>
            <stop offset="100%" stop-color="#5F69FB"/>
        </linearGradient>
    </defs>
    <g fill="none" fill-rule="evenodd">
        <path fill="#FFF" d="M3.5 8.5h19l2.5 2V20l-1.5 4-5.5 2-11.5.5L2 23l-1-7.5.5-6z"/>
        <path fill="url(#a)" fill-rule="nonzero" d="M14 17.733V20a1 1 0 0 1-2 0v-2.267a2 2 0 1 1 2 0zM23.895 20H21a1 1 0 0 1 0-2h3v-3h-3a1 1 0 0 1 0-2h3v-1.065c0-1.395-1.224-2.613-2.607-2.613l-17.238.104C2.871 9.426 2 10.433 2 11.936v6.838C2 22.436 4.487 25 8.042 25h9.742c3.178 0 5.59-2.033 6.111-5zM19 7.337V5c0-1.597-1.254-3-2.791-3h-6.21C8.409 2 7 3.463 7 5v2.409l12-.072zM5 7.42V5c0-2.626 2.288-5 4.999-5h6.21C18.903 0 21 2.345 21 5v2.325l.387-.003c2.491 0 4.613 2.112 4.613 4.613v6.84C26 23.497 22.486 27 17.784 27H8.042C3.368 27 0 23.527 0 18.774v-6.839c0-2.548 1.697-4.509 4.149-4.509L5 7.421z"/>
    </g>
</svg>
