<svg width="25" height="29" viewBox="0 0 25 29" fill="none" xmlns="http://www.w3.org/2000/svg">
<path d="M5.0023 22.3541C5.0023 23.0791 5.50253 23.5625 6.25287 23.5625H7.50345V27.7916C7.50345 28.7583 8.37885 29.6041 9.37931 29.6041C10.3798 29.6041 11.2552 28.7583 11.2552 27.7916V23.5625H13.7563V27.7916C13.7563 28.7583 14.6317 29.6041 15.6322 29.6041C16.6326 29.6041 17.508 28.7583 17.508 27.7916V23.5625H18.7586C19.509 23.5625 20.0092 23.0791 20.0092 22.3541V10.2708H5.0023V22.3541ZM1.87586 10.2708C0.875402 10.2708 0 11.1167 0 12.0833V20.5416C0 21.5083 0.875402 22.3541 1.87586 22.3541C2.87632 22.3541 3.75172 21.5083 3.75172 20.5416V12.0833C3.75172 11.1167 2.87632 10.2708 1.87586 10.2708ZM23.1356 10.2708C22.1352 10.2708 21.2598 11.1167 21.2598 12.0833V20.5416C21.2598 21.5083 22.1352 22.3541 23.1356 22.3541C24.1361 22.3541 25.0115 21.5083 25.0115 20.5416V12.0833C25.0115 11.1167 24.1361 10.2708 23.1356 10.2708ZM16.8828 3.2625L18.5085 1.69166C18.7586 1.45 18.7586 1.0875 18.5085 0.845813C18.2584 0.604128 17.8832 0.604156 17.6331 0.845813L15.7572 2.65831C14.8818 2.05416 13.7563 1.81247 12.5057 1.81247C11.2552 1.81247 10.1297 2.05413 9.1292 2.53747L7.37839 0.72497C7.12828 0.604128 6.62805 0.604128 6.37793 0.72497C6.25287 0.966628 6.25287 1.44997 6.37793 1.69163L8.00368 3.26247C6.25287 4.59163 5.0023 6.64581 5.0023 9.06247H20.0092C20.0092 6.64581 18.7586 4.47081 16.8828 3.26247V3.2625ZM10.0046 6.64581H8.75402V5.43747H10.0046V6.64581ZM16.2575 6.64581H15.0069V5.43747H16.2575V6.64581Z" fill="#90A4AE"/>
</svg>
