<svg width="10" height="6" viewBox="0 0 10 6" fill="none" xmlns="http://www.w3.org/2000/svg">
<path opacity="1" fill-rule="evenodd" clip-rule="evenodd" d="M1.19363 0.727264C1.38363 0.727264 1.57454 0.786355 1.73818 0.909083L4.82908 3.22726L7.91999 0.909083C8.0155 0.837453 8.12418 0.785335 8.23983 0.755707C8.35548 0.726078 8.47583 0.719518 8.59401 0.736401C8.7122 0.753285 8.8259 0.793281 8.92862 0.854106C9.03135 0.914931 9.12109 0.995394 9.19272 1.0909C9.26435 1.18641 9.31647 1.29509 9.3461 1.41074C9.37573 1.52638 9.38229 1.64674 9.3654 1.76492C9.34852 1.8831 9.30852 1.9968 9.2477 2.09953C9.18687 2.20226 9.10641 2.292 9.0109 2.36363L5.37454 5.0909C5.21706 5.20864 5.02571 5.27227 4.82908 5.27227C4.63246 5.27227 4.44111 5.20864 4.28363 5.0909L0.647267 2.36363C0.494625 2.24915 0.381873 2.08954 0.324982 1.90742C0.268091 1.72529 0.269945 1.52989 0.330282 1.34888C0.390619 1.16786 0.50638 1.01043 0.661166 0.898862C0.815953 0.787298 1.00192 0.727264 1.19272 0.727264" fill="black"/>
</svg>
