<svg xmlns="http://www.w3.org/2000/svg" width="28" height="28" viewBox="0 0 28 28"><path fill-rule="evenodd" d="M24.246 12.242l-5.563 5.564c-1.878-5.927-6.352-7.921-8.44-8.536l5.515-5.515A5.982 5.982 0 0 1 20.002 2c1.536 0 3.074.585 4.244 1.755a6.01 6.01 0 0 1 0 8.487zM12.243 24.246a6.011 6.011 0 0 1-8.488 0 6.01 6.01 0 0 1 0-8.487l4.856-4.857c.08.034.156.074.246.087.064.01 6.358.99 8.174 8.255.014.055.044.099.065.149l-4.853 4.853zM25.66 2.34c3.12 3.12 3.12 8.196 0 11.316L13.657 25.66A7.975 7.975 0 0 1 8 28c-2.05 0-4.1-.78-5.658-2.34-3.121-3.12-3.121-8.196 0-11.316L14.343 2.341c3.12-3.121 8.197-3.121 11.317 0zm-8.366 1.95l-3 3a1 1 0 1 0 1.414 1.415l3-3.001a1 1 0 1 0-1.414-1.414z"/></svg>