<?xml version="1.0" encoding="UTF-8"?>
<svg width="29px" height="27px" viewBox="0 0 29 27" version="1.1" xmlns="http://www.w3.org/2000/svg" xmlns:xlink="http://www.w3.org/1999/xlink">
    <!-- Generator: sketchtool 41.2 (35397) - http://www.bohemiancoding.com/sketch -->
    <title>CB73BB95-E204-4D23-8028-610078F8D380</title>
    <desc>Created with sketchtool.</desc>
    <defs></defs>
    <g id="Report" stroke="none" stroke-width="1" fill="none" fill-rule="evenodd">
        <g id="MVP-1.3---Report--Listing" transform="translate(-724.000000, -715.000000)" fill="#333333">
            <g id="Overlay-Report-Listing" transform="translate(97.000000, 186.000000)">
                <path d="M645.498965,553.405608 C640.752143,553.367497 637.473166,551.49209 637.38898,549.769127 C637.38898,549.766283 637.387843,549.746658 637.386136,549.715373 C639.154889,551.035041 642.009524,551.889981 645.294189,551.916147 L645.448909,551.916716 C648.968782,551.916716 651.942301,550.996361 653.645639,549.552121 C653.655309,549.723621 653.662704,549.852175 653.665832,549.91247 C653.534719,552.012847 649.270826,553.443151 645.498965,553.405608 M637.202122,546.50494 C637.201838,546.494985 637.198994,546.485315 637.198425,546.475361 C637.249619,544.380104 641.457198,542.921928 645.225646,542.921928 L645.36643,542.922496 C649.990387,542.95947 653.247748,544.769463 653.465323,546.443507 C653.467598,546.486453 653.471295,546.552152 653.476699,546.648567 C653.436881,548.748375 649.222477,550.210249 645.448909,550.210249 L645.308125,550.20968 C640.705784,550.172991 637.458377,548.379778 637.213499,546.71256 C637.207526,546.605621 637.20326,546.529968 637.202122,546.50494 M655.247728,547.710559 C655.221562,547.256923 655.197102,546.839123 655.182029,546.577465 C655.141073,543.609349 650.860116,541.259829 645.380366,541.216029 L645.225646,541.21546 C639.699537,541.21546 635.514426,543.481933 635.490251,546.487306 C635.489114,546.607612 635.497646,546.726496 635.510444,546.844527 C635.528078,547.174728 635.567327,547.866132 635.654641,549.355877 L635.684788,549.86924 C635.828985,552.818584 640.042252,555.075955 645.485029,555.11947 C645.539352,555.119755 645.592821,555.120039 645.646859,555.120039 C651.081104,555.120039 655.250287,552.913008 655.372584,549.954847 C655.375144,549.896827 655.375144,549.896827 655.247728,547.710559 Z M643.645116,537.142152 C643.646823,537.09238 643.646823,537.09238 643.562068,535.40184 C643.541022,534.982618 643.521397,534.588708 643.509737,534.352647 C643.488406,531.789533 639.993561,529.809178 635.328649,529.734378 C630.64781,529.65389 627.041476,531.587317 627.000236,534.156688 C626.998814,534.254525 627.003933,534.351509 627.012466,534.448209 C627.023558,534.68427 627.049724,535.202752 627.10945,536.380783 L627.13846,536.950459 C627.240848,539.459819 630.757592,541.407751 635.318694,541.481129 C635.407715,541.482551 635.495598,541.482835 635.583766,541.482835 C640.075756,541.482835 643.521397,539.644117 643.645116,537.142152 Z M628.901525,537.174859 C629.113696,537.315927 629.340656,537.451307 629.585818,537.579007 C631.088078,538.360285 633.075828,538.80937 635.18303,538.843215 C635.268069,538.844637 635.353393,538.845206 635.438147,538.845206 C638.157971,538.845206 640.489005,538.169161 641.937512,537.088967 C641.937512,537.091527 641.937796,537.096077 641.93808,537.098637 C641.82972,538.419727 639.119566,539.839792 635.345998,539.774093 C631.857979,539.718348 629.301976,538.414892 628.901525,537.174859 Z M635.073532,531.438854 C635.14947,531.438854 635.225123,531.439423 635.30163,531.440845 C638.289938,531.488626 641.601053,532.680025 641.79559,534.231772 C641.797012,534.266755 641.799572,534.31994 641.803838,534.402988 C641.770847,535.69905 639.155686,537.138739 635.438147,537.138739 C635.362494,537.138739 635.286556,537.13817 635.210049,537.136748 C633.362799,537.107454 631.64524,536.726627 630.373637,536.065087 C629.303967,535.508778 628.696464,534.822779 628.706703,534.183707 C628.727465,532.885654 631.347177,531.438854 635.073532,531.438854 Z M650.025881,534.997379 L650.179748,534.998516 C653.071072,534.998516 655.189366,533.771851 655.216954,532.081595 C655.244258,530.372568 653.053723,529.04835 650.121728,529.001138 L649.967861,529 C647.076253,529 644.957674,530.226665 644.930655,531.916921 C644.903351,533.625948 647.094171,534.950166 650.025881,534.997379 Z M649.967861,530.706467 L650.094424,530.707605 C652.226371,530.741734 653.517882,531.598949 653.510487,532.054007 C653.503946,532.474367 652.321933,533.292049 650.179748,533.292049 L650.053185,533.290912 C647.921238,533.256782 646.629727,532.399567 646.637122,531.944225 C646.643663,531.524149 647.825392,530.706467 649.967861,530.706467 Z M645.364524,547.89389 C645.992788,547.89389 646.502169,547.38451 646.502169,546.756245 L646.502169,545.618601 C646.502169,544.990336 645.992788,544.480956 645.364524,544.480956 C644.73626,544.480956 644.226879,544.990336 644.226879,545.618601 L644.226879,546.756245 C644.226879,547.38451 644.73626,547.89389 645.364524,547.89389 Z" id="report_drugs"></path>
            </g>
        </g>
    </g>
</svg>