<svg xmlns="http://www.w3.org/2000/svg" width="28" height="32" viewBox="0 0 28 32"><path fill="#1D1D1B" fill-rule="evenodd" d="M26 15h-8V7.979A3.98 3.98 0 0 0 14.021 4H12v-.021C12 2.888 12.888 2 13.979 2h10.042C25.112 2 26 2.888 26 3.979V15zm0 9.021A1.982 1.982 0 0 1 24.021 26H18v-2h3a1 1 0 1 0 0-2h-3v-1h5a1 1 0 1 0 0-2h-5v-2h8v7.021zM16 19H2V7.979C2 6.888 2.888 6 3.979 6h10.042C15.112 6 16 6.888 16 7.979V19zm0 9.021A1.982 1.982 0 0 1 14.021 30H3.979A1.982 1.982 0 0 1 2 28.021V21h14v7.021zM24.021 0A3.98 3.98 0 0 1 28 3.979v20.042A3.98 3.98 0 0 1 24.021 28H18v.021A3.98 3.98 0 0 1 14.021 32H3.979A3.98 3.98 0 0 1 0 28.021V7.979A3.98 3.98 0 0 1 3.979 4H10v-.021A3.98 3.98 0 0 1 13.979 0h10.042zM11 26H7a1 1 0 1 0 0 2h4a1 1 0 1 0 0-2zm-6-1h8a1 1 0 1 0 0-2H5a1 1 0 1 0 0 2z"/></svg>