<svg xmlns="http://www.w3.org/2000/svg" width="26" height="26" viewBox="0 0 26 26"><path fill="#607D8B" fill-rule="evenodd" d="M24.375 22.737a1.64 1.64 0 0 1-1.638 1.638H3.263a1.64 1.64 0 0 1-1.638-1.638V3.262a1.64 1.64 0 0 1 1.638-1.637h19.474a1.64 1.64 0 0 1 1.638 1.637v19.475zM22.737 0A3.262 3.262 0 0 1 26 3.262v19.475A3.263 3.263 0 0 1 22.737 26H3.263A3.263 3.263 0 0 1 0 22.737V3.262A3.262 3.262 0 0 1 3.263 0h19.474zm-8.924 18.813a.813.813 0 0 0-1.626 0v1.451c-3.65-.406-6.5-3.507-6.5-7.264s2.85-6.859 6.5-7.265v1.452a.813.813 0 0 0 1.626 0V5.736c3.65.406 6.5 3.508 6.5 7.265 0 3.757-2.85 6.858-6.5 7.264v-1.451zM13 4.063c-4.928 0-8.938 4.009-8.938 8.937 0 4.927 4.01 8.937 8.938 8.937 4.928 0 8.938-4.01 8.938-8.937 0-4.928-4.01-8.938-8.938-8.938zm-3.25 6.5a.813.813 0 0 0-.813.812v3.25a.813.813 0 0 0 1.626 0v-3.25a.813.813 0 0 0-.813-.813zm6.5 0a.813.813 0 0 0-.813.812v3.25a.813.813 0 0 0 1.626 0v-3.25a.813.813 0 0 0-.813-.813z"/></svg>