<svg xmlns="http://www.w3.org/2000/svg" width="48" height="48" viewBox="0 0 48 48">
  <path fill="#90A4AE" fill-rule="evenodd" d="M32.5,30.000375 L36.5,30.000375 L36.5,23.000375 L32.5,23.000375 L32.5,30.000375 Z M23.5,38.000375 L23.5,15.000375 L30.5,15.000375 L30.5,22.000375 L30.5,31.000375 L30.5,38.000375 L23.5,38.000375 Z M14.5,38.000375 L21.5,38.000375 L21.5,15.000375 L14.5,15.000375 L14.5,38.000375 Z M37.5,21.000375 C38.053,21.000375 38.5,21.447375 38.5,22.000375 L38.5,31.000375 C38.5,31.553375 38.053,32.000375 37.5,32.000375 L32.5,32.000375 L32.5,38.000375 L35.5,38.000375 C36.053,38.000375 36.5,38.447375 36.5,39.000375 C36.5,39.553375 36.053,40.000375 35.5,40.000375 L31.5,40.000375 L13.5,40.000375 L10.5,40.000375 C9.947,40.000375 9.5,39.553375 9.5,39.000375 C9.5,38.447375 9.947,38.000375 10.5,38.000375 L12.5,38.000375 L12.5,14.000375 C12.5,13.447375 12.947,13.000375 13.5,13.000375 L31.5,13.000375 C32.053,13.000375 32.5,13.447375 32.5,14.000375 L32.5,21.000375 L37.5,21.000375 Z M26.0547,10.832375 C25.5927,11.138375 24.9737,11.014375 24.6677,10.555375 C24.3617,10.095375 24.4857,9.475375 24.9457,9.168375 L26.4457,8.168375 C26.7817,7.943375 27.2187,7.943375 27.5547,8.168375 L29.0547,9.168375 C29.5147,9.475375 29.6387,10.095375 29.3317,10.555375 C29.1397,10.844375 28.8227,11.000375 28.4987,11.000375 C28.3087,11.000375 28.1167,10.945375 27.9457,10.832375 L26.9997,10.202375 L26.0547,10.832375 Z M17.4453,10.832375 L15.9453,9.832375 C15.4853,9.525375 15.3613,8.905375 15.6683,8.445375 C15.9733,7.985375 16.5923,7.861375 17.0543,8.168375 L18.0003,8.798375 L18.9453,8.168375 C19.4063,7.861375 20.0263,7.985375 20.3323,8.445375 C20.6383,8.905375 20.5143,9.525375 20.0543,9.832375 L18.5543,10.832375 C18.3863,10.944375 18.1933,11.000375 18.0003,11.000375 C17.8063,11.000375 17.6133,10.944375 17.4453,10.832375 Z M34.5,26.000375 C34.63,26.000375 34.76,25.979375 34.88,25.920375 C35,25.870375 35.109,25.800375 35.21,25.700375 C35.399,25.520375 35.5,25.270375 35.5,25.000375 C35.5,24.740375 35.39,24.479375 35.21,24.290375 C35.16,24.250375 35.109,24.200375 35.06,24.170375 C35,24.130375 34.939,24.100375 34.88,24.080375 C34.819,24.050375 34.76,24.030375 34.7,24.020375 C34.569,23.990375 34.43,23.990375 34.31,24.020375 C34.24,24.030375 34.18,24.050375 34.12,24.080375 C34.06,24.100375 34,24.130375 33.939,24.170375 C33.89,24.200375 33.84,24.250375 33.79,24.290375 C33.609,24.479375 33.5,24.740375 33.5,25.000375 C33.5,25.270375 33.6,25.520375 33.79,25.700375 C33.979,25.899375 34.229,26.000375 34.5,26.000375 Z M34.1201,28.920275 C34.2401,28.970275 34.3701,29.000275 34.5001,29.000275 C34.7691,29.000275 35.0191,28.899275 35.2101,28.710275 C35.3991,28.520275 35.5001,28.270275 35.5001,28.000275 C35.5001,27.930275 35.4901,27.870275 35.4791,27.800275 C35.4701,27.740275 35.4501,27.680275 35.4201,27.620275 C35.3991,27.560275 35.3701,27.500275 35.3301,27.440275 L35.2101,27.290275 C35.1601,27.250275 35.1091,27.210275 35.0591,27.170275 C35.0001,27.130275 34.9391,27.100275 34.8801,27.080275 C34.8191,27.050275 34.7601,27.030275 34.7001,27.020275 C34.5691,26.990275 34.4301,26.990275 34.3091,27.020275 C34.2401,27.030275 34.1801,27.050275 34.1201,27.080275 C34.0591,27.100275 34.0001,27.130275 33.9391,27.170275 L33.7901,27.290275 C33.7501,27.340275 33.7001,27.390275 33.6701,27.440275 C33.6301,27.500275 33.5991,27.560275 33.5801,27.620275 C33.5501,27.680275 33.5301,27.740275 33.5191,27.800275 C33.5101,27.870275 33.5001,27.930275 33.5001,28.000275 C33.5001,28.270275 33.5991,28.520275 33.7901,28.710275 C33.8901,28.800275 34.0001,28.870275 34.1201,28.920275 Z"/>
</svg>
