<svg width="36" height="36" viewBox="0 0 32 27" fill="none" xmlns="http://www.w3.org/2000/svg">
  <path
    d="M16.1149 8.00672L16.5341 8.9146L16.636 8.86754L16.7249 8.79906L16.1149 8.00672ZM15.8233 7.96928L15.2011 8.75215L15.8233 7.96928ZM15.781 7.93804L15.1922 8.74636L15.2044 8.7552L15.2168 8.76367L15.781 7.93804ZM12.9397 7.00786L12.941 8.00786H12.941L12.9397 7.00786ZM8 12.1511L7 12.1521L7 12.1523L8 12.1511ZM11.2613 18.6152L10.5905 19.3569L11.2613 18.6152ZM15.482 21.3911L15.0602 22.2978L15.0859 22.3098L15.1123 22.3203L15.482 21.3911ZM16.5472 21.3863L16.9533 22.3001L16.9583 22.2979L16.5472 21.3863ZM16.6776 21.3247L16.2566 20.4175L16.2441 20.4235L16.6776 21.3247ZM16.7007 21.3135L16.2735 20.4093L16.2589 20.4162L16.2445 20.4236L16.7007 21.3135ZM16.7058 21.3111L17.1415 22.2111L16.7058 21.3111ZM20.9314 18.4398L20.2461 17.7116L20.9314 18.4398ZM24 12.1298L23 12.1309V12.1311L24 12.1298ZM19.0483 7L19.049 8L19.0496 8L19.0483 7ZM15.6956 7.09885C15.787 7.05667 15.892 7.03192 16.0018 7.03192V9.03192C16.1896 9.03192 16.3699 8.9904 16.5341 8.9146L15.6956 7.09885ZM16.0018 7.03192C16.1663 7.03192 16.3233 7.08929 16.4455 7.18641L15.2011 8.75215C15.4258 8.93072 15.7056 9.03192 16.0018 9.03192V7.03192ZM16.4455 7.18641C16.413 7.16062 16.3796 7.13593 16.3452 7.11242L15.2168 8.76367C15.2107 8.75952 15.2055 8.75563 15.2011 8.75215L16.4455 7.18641ZM16.3697 7.12973C15.3754 6.40551 14.1858 6.00625 12.9384 6.00786L12.941 8.00786C13.7535 8.00681 14.5319 8.26537 15.1922 8.74636L16.3697 7.12973ZM12.9384 6.00786C9.6164 6.01203 6.99683 8.80304 7 12.1521L9 12.1502C8.99781 9.83129 10.796 8.01055 12.941 8.00786L12.9384 6.00786ZM7 12.1523C7.00329 14.9721 8.40287 17.3785 10.5905 19.3569L11.932 17.8736C10.0241 16.1481 9.00244 14.2418 9 12.1499L7 12.1523ZM10.5905 19.3569C12.022 20.6515 13.6218 21.6287 15.0602 22.2978L15.9038 20.4844C14.6162 19.8855 13.1918 19.0129 11.932 17.8736L10.5905 19.3569ZM15.1123 22.3203C15.4103 22.4388 15.7047 22.5 16.0154 22.5V20.5C15.9821 20.5 15.938 20.4963 15.8518 20.462L15.1123 22.3203ZM16.0154 22.5C16.355 22.5 16.6472 22.4361 16.9532 22.3001L16.1412 20.4724C16.1018 20.4899 16.0841 20.4941 16.0776 20.4955C16.0714 20.4968 16.0551 20.5 16.0154 20.5V22.5ZM16.9583 22.2979C17.0071 22.2759 17.0563 22.2522 17.1111 22.2258L16.2441 20.4235C16.1848 20.4521 16.1583 20.4647 16.1362 20.4747L16.9583 22.2979ZM17.0986 22.2318C17.1129 22.2251 17.1302 22.2171 17.1569 22.2034L16.2445 20.4236C16.2443 20.4237 16.2454 20.4232 16.2474 20.4221C16.2497 20.421 16.2523 20.4197 16.2551 20.4184C16.2577 20.4171 16.2596 20.4163 16.2599 20.4161C16.26 20.4161 16.2599 20.4161 16.2593 20.4164C16.2586 20.4167 16.2579 20.417 16.2566 20.4176L17.0986 22.2318ZM17.1279 22.2177C17.1323 22.2156 17.1369 22.2134 17.1415 22.2111L16.27 20.411C16.2713 20.4104 16.2725 20.4098 16.2735 20.4093L17.1279 22.2177ZM17.1415 22.2111C18.6326 21.4892 20.2244 20.4783 21.6168 19.168L20.2461 17.7116C19.0278 18.8581 17.6135 19.7605 16.27 20.411L17.1415 22.2111ZM21.6168 19.168C23.6922 17.2148 25.0036 14.8616 25 12.1284L23 12.1311C23.0027 14.1598 22.0453 16.0183 20.2461 17.7116L21.6168 19.168ZM25 12.1286C24.996 8.77902 22.37 5.99596 19.0471 6L19.0496 8C21.1959 7.99739 22.9972 9.81266 23 12.1309L25 12.1286ZM19.0477 6C17.751 6.00085 16.5179 6.43425 15.5048 7.21439L16.7249 8.79906C17.3972 8.2814 18.2039 8.00056 19.049 8L19.0477 6Z"
    fill="#253238"/>
</svg>
