<svg width="1180" height="360" viewBox="0 0 1180 360" xmlns="http://www.w3.org/2000/svg"><g fill="none" fill-rule="evenodd"><rect fill="#36474F" opacity=".4" x="29" y="11" width="50" height="50" rx="25"/><rect fill="#36474F" opacity=".3" x="29" y="83" width="50" height="50" rx="25"/><rect fill="#36474F" opacity=".25" x="29" y="155" width="50" height="50" rx="25"/><rect fill="#36474F" opacity=".2" x="29" y="227" width="50" height="50" rx="25"/><rect fill="#36474F" opacity=".15" x="29" y="299" width="50" height="50" rx="25"/><path fill="#253238" opacity=".4" d="M0 0h1180v1H0z"/><path fill="#253238" opacity=".3" d="M0 71h1180v1H0z"/><path fill="#253238" opacity=".25" d="M0 143h1180v1H0z"/><path fill="#253238" opacity=".2" d="M0 215h1180v1H0z"/><path fill="#253238" opacity=".15" d="M0 287h1180v1H0zm0 72h1180v1H0z"/><circle fill="#36474F" opacity=".4" cx="1153" cy="36" r="15"/><circle fill="#36474F" opacity=".3" cx="1152" cy="107" r="15"/><path d="M12.538 110.052a1 1 0 1 0 1.524 1.296l3.4-4a1 1 0 0 0 0-1.296l-3.4-4a1 1 0 1 0-1.524 1.296l2.85 3.352-2.85 3.352z" fill="#455A64" fill-rule="nonzero" opacity=".3"/><path d="M12.538 39.052a1 1 0 1 0 1.524 1.296l3.4-4a1 1 0 0 0 0-1.296l-3.4-4a1 1 0 1 0-1.524 1.296l2.85 3.352-2.85 3.352z" fill="#455A64" fill-rule="nonzero" opacity=".4"/><path d="M12.538 184.052a1 1 0 1 0 1.524 1.296l3.4-4a1 1 0 0 0 0-1.296l-3.4-4a1 1 0 1 0-1.524 1.296l2.85 3.352-2.85 3.352z" fill="#455A64" fill-rule="nonzero" opacity=".25"/><path d="M12.538 255.052a1 1 0 1 0 1.524 1.296l3.4-4a1 1 0 0 0 0-1.296l-3.4-4a1 1 0 1 0-1.524 1.296l2.85 3.352-2.85 3.352z" fill="#455A64" fill-rule="nonzero" opacity=".2"/><path d="M12.538 328.052a1 1 0 1 0 1.524 1.296l3.4-4a1 1 0 0 0 0-1.296l-3.4-4a1 1 0 1 0-1.524 1.296l2.85 3.352-2.85 3.352z" fill="#455A64" fill-rule="nonzero" opacity=".15"/><rect fill="#36474F" opacity=".4" x="97" y="31" width="85" height="13" rx="6.5"/><rect fill="#36474F" opacity=".4" x="297" y="31" width="235" height="13" rx="6.5"/><rect fill="#36474F" opacity=".4" x="630" y="31" width="85" height="13" rx="6.5"/><rect fill="#36474F" opacity=".4" x="797" y="31" width="85" height="13" rx="6.5"/><rect fill="#36474F" opacity=".4" x="984" y="31" width="85" height="13" rx="6.5"/><circle fill="#36474F" opacity=".4" cx="609" cy="37" r="11"/><rect fill="#36474F" opacity=".3" x="97" y="102" width="124" height="13" rx="6.5"/><rect fill="#36474F" opacity=".3" x="297" y="102" width="206" height="13" rx="6.5"/><rect fill="#36474F" opacity=".3" x="630" y="102" width="85" height="13" rx="6.5"/><rect fill="#36474F" opacity=".3" x="797" y="102" width="85" height="13" rx="6.5"/><rect fill="#36474F" opacity=".3" x="984" y="102" width="85" height="13" rx="6.5"/><circle fill="#36474F" opacity=".3" cx="609" cy="108" r="11"/><circle fill="#36474F" opacity=".25" cx="1152" cy="178" r="15"/><rect fill="#36474F" opacity=".25" x="97" y="173" width="84" height="13" rx="6.5"/><rect fill="#36474F" opacity=".25" x="297" y="173" width="226" height="13" rx="6.5"/><rect fill="#36474F" opacity=".25" x="630" y="173" width="85" height="13" rx="6.5"/><rect fill="#36474F" opacity=".25" x="797" y="173" width="85" height="13" rx="6.5"/><rect fill="#36474F" opacity=".25" x="984" y="173" width="85" height="13" rx="6.5"/><circle fill="#36474F" opacity=".25" cx="609" cy="179" r="11"/><circle fill="#36474F" opacity=".15" cx="1152" cy="323" r="15"/><rect fill="#36474F" opacity=".15" x="97" y="318" width="84" height="13" rx="6.5"/><rect fill="#36474F" opacity=".15" x="297" y="318" width="226" height="13" rx="6.5"/><rect fill="#36474F" opacity=".15" x="630" y="318" width="85" height="13" rx="6.5"/><rect fill="#36474F" opacity=".15" x="797" y="318" width="85" height="13" rx="6.5"/><rect fill="#36474F" opacity=".15" x="984" y="318" width="85" height="13" rx="6.5"/><circle fill="#36474F" opacity=".15" cx="609" cy="324" r="11"/><circle fill="#36474F" opacity=".2" cx="1152" cy="251" r="15"/><rect fill="#36474F" opacity=".2" x="97" y="246" width="104" height="13" rx="6.5"/><rect fill="#36474F" opacity=".2" x="297" y="246" width="206" height="13" rx="6.5"/><rect fill="#36474F" opacity=".2" x="630" y="246" width="85" height="13" rx="6.5"/><rect fill="#36474F" opacity=".2" x="797" y="246" width="85" height="13" rx="6.5"/><rect fill="#36474F" opacity=".2" x="984" y="246" width="85" height="13" rx="6.5"/><circle fill="#36474F" opacity=".2" cx="609" cy="252" r="11"/></g></svg>