<svg width="25" height="29" viewBox="0 0 25 29" xmlns="http://www.w3.org/2000/svg"><path d="M19.553 26.105c-1.463.732-4.505.894-5.553.895-1.242 0-4.77-.459-6.168-2.555-2.085-3.128-4.054-6.083-5.125-7.153-.662-.662-.705-1.281-.707-1.281C2.012 15.55 2.195 15 3 15c2.791 0 3.775 1.707 4 2.196V18a1 1 0 0 0 2 0v-8c0-.539.55-1 1-1a1 1 0 0 1 1 1v5a1 1 0 0 0 2 0V3a1.001 1.001 0 0 1 2 0v12a1 1 0 0 0 2 0v-5a1.001 1.001 0 0 1 2 0v5a1 1 0 0 0 2 0v-3c0-.552.449-1 .972-1.001.171.011 1.028.16 1.028 2.001 0 7.552-1.16 11.961-3.447 13.105M22 9c-.395 0-.77.081-1.115.22A2.997 2.997 0 0 0 18 7a2.97 2.97 0 0 0-1 .184V3c0-1.655-1.345-3-3-3-1.654 0-3 1.345-3 3v4.184A2.962 2.962 0 0 0 10 7c-1.597 0-3 1.401-3 3v4.187C6.093 13.53 4.806 13 3 13c-2.201 0-3 1.793-3 3 0 .144.036 1.45 1.293 2.707.93.93 2.936 3.938 4.875 6.847C8.439 28.96 13.775 29 14 29c.173 0 4.261-.013 6.448-1.106C24.529 25.854 25 18.416 25 13c0-3.165-1.962-4-3-4" fill="#253238" fill-rule="evenodd" opacity=".97"/></svg>