<?xml version="1.0" encoding="UTF-8"?>
<svg width="29px" height="29px" viewBox="0 0 29 29" version="1.1" xmlns="http://www.w3.org/2000/svg" xmlns:xlink="http://www.w3.org/1999/xlink">
    <!-- Generator: sketchtool 41.2 (35397) - http://www.bohemiancoding.com/sketch -->
    <title>C98B5D91-51F0-4F7A-9D06-D3470B02AB7D</title>
    <desc>Created with sketchtool.</desc>
    <defs></defs>
    <g id="Report" stroke="none" stroke-width="1" fill="none" fill-rule="evenodd">
        <g id="MVP-1.3---Report--Listing" transform="translate(-724.000000, -589.000000)" fill="#333333">
            <g id="Overlay-Report-Listing" transform="translate(97.000000, 186.000000)">
                <g id="Group" transform="translate(461.000000, 262.000000)">
                    <path d="M180.344278,141 C172.422005,141 166,147.422289 166,155.344563 C166,163.266552 172.422005,169.688841 180.344278,169.688841 C188.266552,169.688841 194.688556,163.266552 194.688556,155.344563 C194.688556,147.422289 188.266552,141 180.344278,141 Z M180.344278,167.982374 C173.375635,167.982374 167.706467,162.312921 167.706467,155.344563 C167.706467,148.37592 173.375635,142.706467 180.344278,142.706467 C187.312921,142.706467 192.982089,148.37592 192.982089,155.344563 C192.982089,162.312921 187.312921,167.982374 180.344278,167.982374 Z M180.306053,161.02013 C179.834784,161.02013 179.45282,161.402094 179.45282,161.873364 L179.45282,162.442186 C179.45282,162.913455 179.834784,163.295419 180.306053,163.295419 C180.777323,163.295419 181.159287,162.913455 181.159287,162.442186 L181.159287,161.873364 C181.159287,161.402094 180.777323,161.02013 180.306053,161.02013 Z M180.306053,147.368393 C179.834784,147.368393 179.45282,147.750357 179.45282,148.221627 L179.45282,158.460429 C179.45282,158.931699 179.834784,159.313663 180.306053,159.313663 C180.777323,159.313663 181.159287,158.931699 181.159287,158.460429 L181.159287,148.221627 C181.159287,147.750357 180.777323,147.368393 180.306053,147.368393 Z" id="report_explicit"></path>
                </g>
            </g>
        </g>
    </g>
</svg>