<svg width="25" height="29" viewBox="0 0 25 29" xmlns="http://www.w3.org/2000/svg"><g id="Report" fill="none" fill-rule="evenodd" opacity=".97"><g id="MVP-1.3---Report--Listing" transform="translate(-564 -643)" fill="#253238"><g id="Overlay-Report-Listing" transform="translate(97 186)"><g id="Group" transform="translate(450 202)"><path d="M36.553 281.105c-1.463.732-4.505.894-5.553.895-1.242 0-4.77-.459-6.168-2.555-2.085-3.128-4.054-6.083-5.125-7.153-.662-.662-.705-1.281-.707-1.281.012-.461.195-1.011 1-1.011 2.791 0 3.775 1.707 4 2.196V273a1 1 0 0 0 2 0v-8c0-.539.55-1 1-1a1 1 0 0 1 1 1v5a1 1 0 0 0 2 0v-12a1.001 1.001 0 0 1 2 0v12a1 1 0 0 0 2 0v-5a1.001 1.001 0 0 1 2 0v5a1 1 0 0 0 2 0v-3c0-.552.449-1 .972-1.001.171.011 1.028.16 1.028 2.001 0 7.552-1.16 11.961-3.447 13.105M39 264c-.395 0-.77.081-1.115.22A2.997 2.997 0 0 0 35 262a2.97 2.97 0 0 0-1 .184V258c0-1.655-1.345-3-3-3-1.654 0-3 1.345-3 3v4.184a2.962 2.962 0 0 0-1-.184c-1.597 0-3 1.401-3 3v4.187c-.907-.657-2.194-1.187-4-1.187-2.201 0-3 1.793-3 3 0 .144.036 1.45 1.293 2.707.93.93 2.936 3.938 4.875 6.847C25.439 283.96 30.775 284 31 284c.173 0 4.261-.013 6.448-1.106C41.529 280.854 42 273.416 42 268c0-3.165-1.962-4-3-4" id="report_explicito"/></g></g></g></g></svg>