<svg xmlns="http://www.w3.org/2000/svg" width="28" height="32" viewBox="0 0 28 32"><path fill-rule="evenodd" d="M27.963 8.959L28 22.995a2 2 0 0 1-.992 1.733l-12 7a2.008 2.008 0 0 1-2.016 0l-12-7A2.001 2.001 0 0 1 0 23V9a2 2 0 0 1 .992-1.727l12-7a1.999 1.999 0 0 1 2.014-.001l11.963 6.964a2 2 0 0 1 .994 1.723zM15 29.417L26 23l-.034-12.877L15 16.572v12.845zm8.485-15.29a1 1 0 0 1 .39 1.36l-2.03 3.653 1.67 1.003a1 1 0 1 1-1.03 1.714l-1.613-.968-1.998 3.597a1.002 1.002 0 0 1-1.36.388 1 1 0 0 1-.388-1.36l2.03-3.654-1.67-1.003a1 1 0 1 1 1.028-1.714l1.614.968 1.998-3.597a1 1 0 0 1 1.36-.388zm-9.487.714l4.426-2.602L7.496 5.864c-.019-.011-.029-.03-.047-.042L2.992 8.421l11.006 6.42zM13 29.417V16.575L2 10.158V23l11 6.417zM14 2L9.421 4.671 20.4 11.076l4.572-2.688L14 2z"/></svg>