<?xml version="1.0" encoding="UTF-8"?>
<svg width="29px" height="27px" viewBox="0 0 29 27" version="1.1" xmlns="http://www.w3.org/2000/svg" xmlns:xlink="http://www.w3.org/1999/xlink">
    <!-- Generator: sketchtool 41.2 (35397) - http://www.bohemiancoding.com/sketch -->
    <title>EC3F36D5-467B-4A7F-A04D-5AD7D090AA84</title>
    <desc>Created with sketchtool.</desc>
    <defs></defs>
    <g id="Report" stroke="none" stroke-width="1" fill="none" fill-rule="evenodd">
        <g id="MVP-1.3---Report--Listing" transform="translate(-574.000000, -590.000000)" fill="#333333">
            <g id="Overlay-Report-Listing" transform="translate(97.000000, 186.000000)">
                <g id="Group" transform="translate(461.000000, 262.000000)">
                    <path d="M27.3608333,147.254184 C26.0912217,147.254184 25.1253613,147.075005 24.4715,146.874779 C25.1253613,146.674554 26.0912217,146.495375 27.3608333,146.495375 C28.6304448,146.495375 29.5963052,146.674554 30.2501665,146.874779 C29.5963052,147.075005 28.6304448,147.254184 27.3608333,147.254184 M43.1823147,154.678197 C43.1823147,154.300499 43.3066024,154.150899 43.5543245,153.852267 C43.8774156,153.462908 44.3199594,152.929922 44.3199594,151.936474 C44.3199594,150.94331 43.8774156,150.410323 43.5543245,150.021249 C43.3066024,149.722617 43.1823147,149.572732 43.1823147,149.195603 C43.1823147,148.976891 43.2269673,148.855447 43.2610966,148.782354 C43.5858942,148.084124 43.5378287,147.275543 43.1325427,146.619975 C42.7278256,145.964692 42.0264676,145.559975 41.256851,145.537791 L38.2662673,145.450477 C36.8140638,143.199931 31.9674128,142 27.3608048,142 C21.8622834,142 16.0182023,143.708458 16.0182023,146.874808 C16.0182023,147.015876 16.0338449,147.152962 16.0563134,147.288057 L16,163.765135 C16,166.931485 21.8349799,168.639658 27.324969,168.639658 C32.7276439,168.639658 38.4608046,166.978981 38.6237722,163.899093 L41.2574198,163.822301 C42.0284585,163.800117 42.7301009,163.395116 43.1345336,162.739833 C43.5392507,162.08398 43.5867474,161.275115 43.261381,160.576601 C43.2275361,160.503792 43.1823147,160.381211 43.1823147,160.161645 C43.1823147,159.783947 43.3066024,159.633778 43.5543245,159.335146 C43.8774156,158.945787 44.3199594,158.412516 44.3199594,157.418784 C44.3199594,156.42562 43.8774156,155.892633 43.5543245,155.503559 C43.3066024,155.204927 43.1823147,155.055327 43.1823147,154.678197 Z M42.2411981,156.593422 C42.4889202,156.892054 42.6134923,157.041654 42.6134923,157.418784 C42.6134923,157.796766 42.4889202,157.946935 42.2409137,158.245851 C41.918107,158.634926 41.4758476,159.168197 41.4758476,160.161645 C41.4758476,160.580867 41.5537762,160.952024 41.7141842,161.297015 C41.7966634,161.473634 41.7847181,161.677841 41.6823301,161.843653 C41.5805109,162.008896 41.4030383,162.110715 41.2076478,162.116403 L38.6317357,162.191772 L38.6317357,147.468089 C38.6556263,147.370252 38.674113,147.270993 38.6860583,147.170027 L41.207079,147.243689 C41.4016163,147.249377 41.57852,147.351481 41.680908,147.517008 C41.7832961,147.682535 41.7955258,147.886743 41.7138997,148.062509 C41.5534918,148.406646 41.4758476,148.777234 41.4758476,149.195603 C41.4758476,150.188767 41.918107,150.721753 42.2411981,151.111112 C42.4889202,151.40946 42.6134923,151.559344 42.6134923,151.936474 C42.6134923,152.313887 42.4889202,152.463772 42.2411981,152.762404 C41.918107,153.151763 41.4758476,153.684749 41.4758476,154.678197 C41.4758476,155.671361 41.918107,156.204348 42.2411981,156.593422 Z M36.9252686,147.194201 C36.6781153,147.780942 35.7867706,148.417738 34.4727909,148.921715 C32.586576,149.644688 30.1136207,150.043148 27.4137053,150.043148 C21.8722378,150.043148 18.1541303,148.377921 17.8697191,147.104896 L17.8697191,147.143007 L17.7587988,147.143007 C17.7374679,147.143007 17.7246694,146.972076 17.7246694,146.902964 C17.7246694,146.237158 18.6919519,145.424595 20.2491031,144.8279 C22.1353181,144.104927 24.6608894,143.706467 27.3608048,143.706467 C32.7791223,143.706467 36.3888691,145.298317 36.9252686,146.559111 L36.9252686,147.194201 Z M27.3608333,144.788908 C24.3560291,144.788908 21.9203317,145.722914 21.9203317,146.874779 C21.9203317,148.026929 24.3560291,148.960651 27.3608333,148.960651 C30.3656374,148.960651 32.8013348,148.026929 32.8013348,146.874779 C32.8013348,145.722914 30.3656374,144.788908 27.3608333,144.788908 Z M36.9252686,163.765135 C36.9252686,165.087931 33.2728602,166.933191 27.324969,166.933191 C21.3657014,166.933191 17.7064671,165.087931 17.7064671,163.767979 L17.7551014,149.555668 C19.8970021,150.993082 23.7041302,151.749615 27.3608048,151.749615 C30.9935889,151.749615 34.7756889,151.003321 36.9252686,149.584109 L36.9252686,163.765135 Z" id="report_fake"></path>
                </g>
            </g>
        </g>
    </g>
</svg>