<svg xmlns="http://www.w3.org/2000/svg" width="26" height="12" viewBox="0 0 26 12"><path fill="#13C1AC" fill-rule="evenodd" d="M23.666 8.914a.835.835 0 0 1-.67.314h-.69c-.196-1.09-1.192-1.842-2.398-1.842-1.144 0-2.1.304-2.36 1.842h-8.28c-.26-1.538-1.216-1.995-2.361-1.995-1.027 0-1.904.457-2.262 1.226h-1.89c-.626 0-1.13-.176-1.13-.77V6.98c0-.252.063-1.092.901-1.314l1.25-.338c.09.032.184.055.287.055H9.75c.45 0 .812-.345.812-.77 0-.424-.363-.768-.812-.768H8.265c1.741-.72 4.282-1.786 5.125-2.22a.788.788 0 0 1 .362-.087h7.612c.251 0 .503.056.728.162l1.383.655c.556.263.9.792.9 1.381l-.002.878h-.808c-.449 0-.813.344-.813.769 0 .424.364.769.813.769h.812v.769c0 .504-.273 1.409-.71 1.993m-3.759 1.467c-.448 0-.812-.345-.812-.769 0-.424.364-.769.812-.769.449 0 .813.345.813.77 0 .423-.364.768-.813.768m-13.001 0c-.448 0-.813-.345-.813-.769 0-.424.365-.769.813-.769.448 0 .812.345.812.77 0 .423-.364.768-.812.768M24.2.98L22.819.325A3.427 3.427 0 0 0 21.364 0h-7.612a2.5 2.5 0 0 0-1.14.274c-1.23.633-6.66 2.843-6.687 2.855l-3.84 1.057C.816 4.522 0 5.62 0 6.98v.71c0 1.44 1.233 2.307 2.755 2.307h1.838c.313 1.538 1.226 1.85 2.314 1.85.968 0 1.798-.312 2.192-1.081h8.618C18.11 11.535 18.94 12 19.908 12c.899 0 1.676-.548 2.099-1.234h.99c.797 0 1.542-.36 1.993-.964.583-.78 1.007-1.991 1.007-2.881L26 3.74c.002-1.177-.687-2.235-1.8-2.761"/></svg>