<svg xmlns="http://www.w3.org/2000/svg" width="60" height="40" viewBox="0 0 60 40">
    <g fill="none" fill-rule="evenodd">
        <path fill="#13C1AC" d="M23.75 27h-2.5c-.69 0-1.25.448-1.25 1s.56 1 1.25 1h2.5c.69 0 1.25-.448 1.25-1s-.56-1-1.25-1M38.75 27h-2.5c-.69 0-1.25.448-1.25 1s.56 1 1.25 1h2.5c.69 0 1.25-.448 1.25-1s-.56-1-1.25-1"/>
        <path fill="#13C1AC" d="M35.877 31.838H18.093v-4.996c0-.222.218-.607.394-.917l.678-1.208c.412-.74 1.275-1.298 2.006-1.298H38.03c.706 0 1.472.522 1.905 1.298l.72 1.015c.165.296.454.83.454 1.11v4.996h-5.231zm3.666 3.157c-.677-.002-1.44-.536-1.558-1.052h3.107c-.117.516-.877 1.05-1.55 1.052zm-19.877 0c-.677-.002-1.44-.536-1.558-1.052h3.107c-.117.516-.877 1.05-1.55 1.052zm2.474-16.602c.267-.806 1.02-1.288 2.017-1.288h10.886c.996 0 1.75.482 2.021 1.3l1.005 2.91H21.13l1.009-2.922zm21.06 3.974a1.05 1.05 0 0 0-1.046-1.053h-1.872l-1.236-3.586C38.496 16.07 36.926 15 35.043 15H24.157c-1.882 0-3.453 1.07-3.999 2.715l-1.24 3.6h-1.872A1.05 1.05 0 0 0 16 22.366c0 .58.469 1.052 1.046 1.052h.468c-.058.088-.12.174-.173.265l-.673 1.199c-.298.526-.668 1.18-.668 1.96V33.942h.017c.092 1.81 1.958 3.153 3.645 3.157h.008c1.683-.004 3.544-1.348 3.636-3.157h12.588c.092 1.81 1.958 3.153 3.644 3.157h.009c1.683-.004 3.544-1.348 3.636-3.157h.017v-7.101c0-.781-.37-1.512-.75-2.193l-.723-1.017c-.043-.074-.094-.141-.14-.213h.567a1.05 1.05 0 0 0 1.046-1.052zM9.733 20.667v-1.134h1.134a1.134 1.134 0 0 0 0-2.266H9.733v-1.134a1.134 1.134 0 0 0-2.266 0v1.134H6.333a1.134 1.134 0 0 0 0 2.266h1.134v1.134a1.134 1.134 0 0 0 2.266 0"/>
        <path fill="#C1F5E6" d="M17.133 7.533h1.134v1.134a1.134 1.134 0 0 0 2.266 0V7.533h1.134a1.134 1.134 0 0 0 0-2.266h-1.134V4.133a1.134 1.134 0 0 0-2.266 0v1.134h-1.134a1.134 1.134 0 0 0 0 2.266M27.733 10.933h1.134v1.134a1.134 1.134 0 0 0 2.266 0v-1.134h1.134a1.134 1.134 0 0 0 0-2.266h-1.134V7.533a1.134 1.134 0 0 0-2.266 0v1.134h-1.134a1.134 1.134 0 0 0 0 2.266"/>
        <path fill="#13C1AC" d="M40.133 7.533h1.134v1.134a1.134 1.134 0 0 0 2.266 0V7.533h1.134a1.134 1.134 0 0 0 0-2.266h-1.134V4.133a1.134 1.134 0 0 0-2.266 0v1.134h-1.134a1.134 1.134 0 0 0 0 2.266"/>
        <path fill="#C1F5E6" d="M53.667 15.267h-1.134v-1.134a1.134 1.134 0 0 0-2.266 0v1.134h-1.134a1.134 1.134 0 0 0 0 2.266h1.134v1.134a1.134 1.134 0 0 0 2.266 0v-1.134h1.134a1.134 1.134 0 0 0 0-2.266M21.973 18.818l-.873 2.577h17l-.885-2.577C35.535 19.94 32.997 20.5 29.6 20.5c-3.397 0-5.94-.56-7.627-1.682z"/>
    </g>
</svg>
