<svg xmlns="http://www.w3.org/2000/svg" width="60" height="40" viewBox="0 0 60 40">
    <g fill="none" fill-rule="evenodd">
        <g stroke-linecap="round" stroke-width="2">
            <path stroke="#C1F5E6" d="M9 27H8"/>
            <path stroke="#13C1AC" d="M16 27h-4"/>
            <path stroke="#BBF2E2" d="M16 19h-6"/>
            <path stroke="#13C1AC" d="M16 23H5"/>
        </g>
        <g transform="translate(23 9)">
            <rect width="28" height="18" x="2" y="2" fill="#FFF" rx="2"/>
            <rect width="28" height="18" x="2" y="2" fill="#C1F5E6" rx="2"/>
            <rect width="28" height="17" x="2" fill="#FFF" rx="2"/>
            <path fill="#13C1AC" d="M4.012 2A2.014 2.014 0 0 0 2 4.012v13.976C2 19.098 2.903 20 4.012 20h23.977a2.013 2.013 0 0 0 2.01-2.012V4.012C30 2.902 29.099 2 27.99 2H4.012zm23.977 20H4.012A4.017 4.017 0 0 1 0 17.988V4.012C0 1.8 1.8 0 4.012 0h23.977c2.21 0 4.01 1.8 4.01 4.012v13.976C32 20.2 30.2 22 27.99 22z"/>
            <path fill="#13C1AC" d="M24.65 15.07a5.045 5.045 0 0 1-5.039-5.039 5.045 5.045 0 0 1 5.04-5.039 1 1 0 1 1 0 2 3.042 3.042 0 0 0-3.04 3.04 3.042 3.042 0 0 0 3.04 3.038 1 1 0 1 1 0 2"/>
            <path fill="#13C1AC" d="M23 11.031h-4a1 1 0 1 1 0-2h4a1 1 0 1 1 0 2M14 8.031H5a1 1 0 1 1 0-2h9a1 1 0 1 1 0 2M8 13.031H5a1 1 0 1 1 0-2h3a1 1 0 1 1 0 2"/>
        </g>
    </g>
</svg>
