<svg xmlns="http://www.w3.org/2000/svg" width="60" height="40" viewBox="0 0 60 40">
    <g fill="none" fill-rule="evenodd">
        <path fill="#C1F5E6" fill-rule="nonzero" d="M1.2 7.194a1.523 1.523 0 0 1 2.24-.992L18.7 14.956l-.135.239.135-.24c4.08 2.343 5.509 7.58 3.19 11.7-2.316 4.122-7.502 5.564-11.581 3.224a8.567 8.567 0 0 1-4.213-6.247l-.837-.481c-2.094-1.2-2.926-3.794-1.983-6.007a4.769 4.769 0 0 1-.931-5.019C1.081 10.949.73 9.228 1.2 7.194zm9.995 21.108c3.217 1.846 7.306.708 9.134-2.542l.237.136-.237-.136c1.827-3.25.7-7.381-2.517-9.226L2.878 7.954c-.264 1.51.13 2.606 1.238 3.243l11.836 6.79a.913.913 0 0 1 .337 1.237.894.894 0 0 1-1.224.34L3.885 13.15a2.946 2.946 0 0 0 1.368 3.306l7.457 4.279c.433.246.584.8.339 1.235a.893.893 0 0 1-1.225.342l-7.047-4.044a2.944 2.944 0 0 0 1.368 3.306l3.852 2.21a.912.912 0 0 1 .337 1.237.894.894 0 0 1-1.224.34l-.838-.48a6.705 6.705 0 0 0 2.923 3.421zM59.8 6.194a1.523 1.523 0 0 0-2.24-.992L42.3 13.956l.135.239-.135-.24c-4.08 2.343-5.509 7.58-3.19 11.7 2.316 4.122 7.502 5.564 11.581 3.224a8.567 8.567 0 0 0 4.213-6.247l.837-.481c2.094-1.2 2.926-3.794 1.983-6.007a4.769 4.769 0 0 0 .931-5.019c1.263-1.176 1.614-2.897 1.144-4.931zm-9.995 21.108c-3.217 1.846-7.306.708-9.134-2.542l-.237.136.237-.136c-1.827-3.25-.7-7.381 2.517-9.226l14.934-8.58c.264 1.51-.13 2.606-1.238 3.243l-11.836 6.79a.913.913 0 0 0-.337 1.237.894.894 0 0 0 1.224.34l11.18-6.414a2.946 2.946 0 0 1-1.368 3.306l-7.457 4.279a.909.909 0 0 0-.339 1.235.893.893 0 0 0 1.225.342l7.047-4.044a2.944 2.944 0 0 1-1.368 3.306l-3.852 2.21a.912.912 0 0 0-.337 1.237.894.894 0 0 0 1.224.34l.838-.48a6.705 6.705 0 0 1-2.923 3.421z"/>
        <g transform="translate(17 8)">
            <rect width="25" height="23" x="1" y="3" fill="#FFF" stroke="#13C1AC" stroke-width="2" rx="2"/>
            <path stroke="#13C1AC" stroke-linecap="round" stroke-width="2" d="M7 0v5M20 0v5"/>
            <rect width="2" height="2" x="17.5" y="10.5" fill="#13C1AC" stroke="#13C1AC" rx="1"/>
            <rect width="2" height="2" x="17.5" y="15.5" fill="#13C1AC" stroke="#13C1AC" rx="1"/>
            <rect width="2" height="2" x="12.5" y="10.5" fill="#13C1AC" stroke="#13C1AC" rx="1"/>
            <rect width="2" height="2" x="12.5" y="15.5" fill="#13C1AC" stroke="#13C1AC" rx="1"/>
            <rect width="2" height="2" x="7.5" y="10.5" fill="#13C1AC" stroke="#13C1AC" rx="1"/>
            <rect width="2" height="2" x="7.5" y="15.5" fill="#13C1AC" stroke="#13C1AC" rx="1"/>
            <path fill="#C1F5E6" d="M2 20v5h23v-4.811c-3.24 1.767-6.957 2.65-11.155 2.65C9.647 22.84 5.699 21.894 2 20z"/>
        </g>
    </g>
</svg>
