<svg xmlns="http://www.w3.org/2000/svg" width="938" height="851" viewBox="0 0 938 851">
    <defs>
        <path id="a" d="M2 6.995v240.677a6 6 0 0 0 6 6h200a6 6 0 0 0 6-6V6.995a6 6 0 0 0-6-6H8a6 6 0 0 0-6 6z"/>
    </defs>
    <g fill="none" fill-rule="evenodd">
        <path fill="#ECEFF1" d="M2 6.995v240.677a6 6 0 0 0 6 6h200a6 6 0 0 0 6-6V6.995a6 6 0 0 0-6-6H8a6 6 0 0 0-6 6z"/>
        <path fill="#ECEFF1" d="M2 348.846v240.677a6 6 0 0 0 6 6h200a6 6 0 0 0 6-6V348.846a6 6 0 0 0-6-6H8a6 6 0 0 0-6 6z" opacity=".5"/>
        <path fill="#ECEFF1" fill-rule="nonzero" d="M7 283.5h148.258a4.5 4.5 0 0 0 0-9H7a4.5 4.5 0 0 0 0 9zM246 165.5h85.501a4.5 4.5 0 0 0 0-9H246a4.5 4.5 0 0 0 0 9z"/>
        <path fill="#ECEFF1" fill-rule="nonzero" d="M246 392.5h130.501a4.5 4.5 0 0 0 0-9H246a4.5 4.5 0 0 0 0 9zM6 622.5h36.503a4.5 4.5 0 0 0 0-9H6a4.5 4.5 0 0 0 0 9zM726 441.5h46.5a4.5 4.5 0 0 0 0-9H726a4.5 4.5 0 0 0 0 9zM487 603.5h130.501a4.5 4.5 0 0 0 0-9H487a4.5 4.5 0 0 0 0 9z" opacity=".5"/>
        <path fill="#ECEFF1" fill-rule="nonzero" d="M487 283.5h120.501a4.5 4.5 0 1 0 0-9H487a4.5 4.5 0 0 0 0 9zM632.397 283.5h19.29a4.5 4.5 0 1 0 0-9h-19.29a4.5 4.5 0 0 0 0 9zM7 309.5h52.693a4.5 4.5 0 0 0 0-9H7a4.5 4.5 0 0 0 0 9zM246 191.5h52.693a4.5 4.5 0 1 0 0-9H246a4.5 4.5 0 0 0 0 9z"/>
        <path fill="#ECEFF1" fill-rule="nonzero" d="M246 418.5h65.502a4.5 4.5 0 1 0 0-9H246a4.5 4.5 0 0 0 0 9zM6 648.5h65.502a4.5 4.5 0 0 0 0-9H6a4.5 4.5 0 0 0 0 9zM726 467.5h65.502a4.5 4.5 0 1 0 0-9H726a4.5 4.5 0 0 0 0 9zM487 629.5h26.5a4.5 4.5 0 0 0 0-9H487a4.5 4.5 0 0 0 0 9zM339.147 418.5H368.5a4.5 4.5 0 0 0 0-9h-29.353a4.5 4.5 0 0 0 0 9zM99.147 648.5H128.5a4.5 4.5 0 0 0 0-9H99.147a4.5 4.5 0 0 0 0 9zM61.498 622.5h123.003a4.5 4.5 0 1 0 0-9H61.498a4.5 4.5 0 0 0 0 9zM819.147 467.5H848.5a4.5 4.5 0 0 0 0-9h-29.353a4.5 4.5 0 0 0 0 9zM799.307 440.5h109.625a4.5 4.5 0 0 0 0-9H799.307a4.5 4.5 0 0 0 0 9z" opacity=".5"/>
        <path fill="#ECEFF1" fill-rule="nonzero" d="M729.939 744.5h109.624a4.5 4.5 0 0 0 0-9H729.94a4.5 4.5 0 0 0 0 9zM483.728 803.5h109.625a4.5 4.5 0 0 0 0-9H483.728a4.5 4.5 0 1 0 0 9zM5.228 850.5h109.625a4.5 4.5 0 0 0 0-9H5.228a4.5 4.5 0 0 0 0 9zM244.728 651.5h109.625a4.5 4.5 0 0 0 0-9H244.728a4.5 4.5 0 1 0 0 9z" opacity=".25"/>
        <path fill="#ECEFF1" fill-rule="nonzero" d="M537.5 629.5h72a4.5 4.5 0 0 0 0-9h-72a4.5 4.5 0 0 0 0 9z" opacity=".5"/>
        <path fill="#ECEFF1" fill-rule="nonzero" d="M487 309.5h52.693a4.5 4.5 0 1 0 0-9H487a4.5 4.5 0 0 0 0 9zM726 181.041h52.693a4.5 4.5 0 1 0 0-9H726a4.5 4.5 0 1 0 0 9zM726 207.5h128.509a4.5 4.5 0 0 0 0-9H726a4.5 4.5 0 0 0 0 9zM799.942 181.041H818.5a4.5 4.5 0 1 0 0-9h-18.558a4.5 4.5 0 1 0 0 9zM84.147 309.5h17.36a4.5 4.5 0 0 0 0-9h-17.36a4.5 4.5 0 0 0 0 9zM321.147 191.5h17.36a4.5 4.5 0 0 0 0-9h-17.36a4.5 4.5 0 0 0 0 9zM562.147 309.5h17.36a4.5 4.5 0 0 0 0-9h-17.36a4.5 4.5 0 0 0 0 9z"/>
        <path fill="#ECEFF1" d="M241 6.995v126a6 6 0 0 0 6 6h200a6 6 0 0 0 6-6v-126a6 6 0 0 0-6-6H247a6 6 0 0 0-6 6z"/>
        <path fill="#ECEFF1" d="M241 230.5v126a6 6 0 0 0 6 6h200a6 6 0 0 0 6-6v-126a6 6 0 0 0-6-6H247a6 6 0 0 0-6 6z" opacity=".5"/>
        <path fill="#ECEFF1" d="M723 6.995v138.15a6 6 0 0 0 6 6h200a6 6 0 0 0 6-6V6.995a6 6 0 0 0-6-6H729a6 6 0 0 0-6 6z"/>
        <path fill="#ECEFF1" d="M723 246.32V406a6 6 0 0 0 6 6h200a6 6 0 0 0 6-6V246.32a6 6 0 0 0-6-6H729a6 6 0 0 0-6 6z" opacity=".5"/>
        <path fill="#ECEFF1" d="M483 6.995v240.677a6 6 0 0 0 6 6h200a6 6 0 0 0 6-6V6.995a6 6 0 0 0-6-6H489a6 6 0 0 0-6 6z"/>
        <path fill="#ECEFF1" d="M483 348.846v219.025a6 6 0 0 0 6 6h200a6 6 0 0 0 6-6V348.846a6 6 0 0 0-6-6H489a6 6 0 0 0-6 6z" opacity=".5"/>
        <path fill="#ECEFF1" d="M244 457v159.68a6 6 0 0 0 6 6h200a6 6 0 0 0 6-6V457a6 6 0 0 0-6-6H250a6 6 0 0 0-6 6zM482 668v100.383a6 6 0 0 0 6 6h200a6 6 0 0 0 6-6V668a6 6 0 0 0-6-6H488a6 6 0 0 0-6 6zM726 506v203.191a6 6 0 0 0 6 6h200a6 6 0 0 0 6-6V506a6 6 0 0 0-6-6H732a6 6 0 0 0-6 6zM2 687v126a6 6 0 0 0 6 6h200a6 6 0 0 0 6-6V687a6 6 0 0 0-6-6H8a6 6 0 0 0-6 6z" opacity=".25"/>
    </g>
</svg>
