<svg xmlns="http://www.w3.org/2000/svg" width="304" height="547" viewBox="0 0 304 547"><g fill="#ECEFF1" fill-rule="evenodd"><path d="M.417 4.595v160.64a4.005 4.005 0 0 0 4.005 4.004h133.49a4.005 4.005 0 0 0 4.004-4.004V4.595A4.005 4.005 0 0 0 137.912.59H4.422A4.005 4.005 0 0 0 .417 4.595z"/><path d="M.417 232.763v160.64a4.005 4.005 0 0 0 4.005 4.005h133.49a4.005 4.005 0 0 0 4.004-4.005v-160.64a4.005 4.005 0 0 0-4.004-4.005H4.422a4.005 4.005 0 0 0-4.005 4.005z" opacity=".5"/><path d="M3.754 189.148h98.954a3.004 3.004 0 0 0 0-6.007H3.754a3.004 3.004 0 1 0 0 6.007zm159.52-78.76h57.068a3.004 3.004 0 0 0 0-6.006h-57.067a3.004 3.004 0 0 0 0 6.007z"/><path d="M163.275 261.9h87.102a3.004 3.004 0 1 0 0-6.007h-87.102a3.004 3.004 0 0 0 0 6.007zM3.087 415.414H27.45a3.004 3.004 0 0 0 0-6.007H3.087a3.004 3.004 0 1 0 0 6.007z" opacity=".5"/><path d="M3.754 206.502h35.17a3.004 3.004 0 1 0 0-6.007H3.754a3.004 3.004 0 1 0 0 6.007zm159.52-78.76h35.17a3.004 3.004 0 0 0 0-6.006h-35.17a3.004 3.004 0 0 0 0 6.007z"/><path d="M163.275 279.254h43.72a3.004 3.004 0 0 0 0-6.007h-43.72a3.004 3.004 0 0 0 0 6.007zM3.087 432.767h43.72a3.004 3.004 0 0 0 0-6.007H3.086a3.004 3.004 0 0 0 0 6.007zm222.359-153.513h19.591a3.004 3.004 0 0 0 0-6.007h-19.591a3.004 3.004 0 0 0 0 6.007zM65.258 432.767h19.591a3.004 3.004 0 0 0 0-6.007H65.258a3.004 3.004 0 0 0 0 6.007zm-25.13-17.353h82.1a3.004 3.004 0 0 0 0-6.007h-82.1a3.004 3.004 0 1 0 0 6.007z" opacity=".5"/><path d="M2.57 567.592h73.17a3.004 3.004 0 1 0 0-6.007H2.57a3.004 3.004 0 0 0 0 6.007zM162.426 434.77h73.17a3.004 3.004 0 0 0 0-6.007h-73.17a3.004 3.004 0 0 0 0 6.007z" opacity=".25"/><path d="M55.246 206.502h11.587a3.004 3.004 0 1 0 0-6.007H55.246a3.004 3.004 0 1 0 0 6.007zm158.186-78.76h11.587a3.004 3.004 0 1 0 0-6.006h-11.587a3.004 3.004 0 0 0 0 6.007zM159.938 4.596v84.098a4.005 4.005 0 0 0 4.004 4.005h133.49a4.005 4.005 0 0 0 4.005-4.005V4.595A4.005 4.005 0 0 0 297.432.59h-133.49a4.005 4.005 0 0 0-4.004 4.005z"/><path d="M159.938 153.773v84.099a4.005 4.005 0 0 0 4.004 4.005h133.49a4.005 4.005 0 0 0 4.005-4.005v-84.099a4.005 4.005 0 0 0-4.005-4.005h-133.49a4.005 4.005 0 0 0-4.004 4.005z" opacity=".5"/><path d="M161.94 304.95V411.53a4.005 4.005 0 0 0 4.005 4.005h133.49a4.005 4.005 0 0 0 4.004-4.005V304.951a4.005 4.005 0 0 0-4.004-4.005h-133.49a4.005 4.005 0 0 0-4.005 4.005zM.417 458.465v84.099a4.005 4.005 0 0 0 4.005 4.005h133.49a4.005 4.005 0 0 0 4.004-4.005v-84.099a4.005 4.005 0 0 0-4.004-4.005H4.422a4.005 4.005 0 0 0-4.005 4.005z" opacity=".25"/></g></svg>