<svg width="457" height="851" xmlns="http://www.w3.org/2000/svg"><g fill="#ECEFF1" fill-rule="evenodd"><path d="M2.123 6.884v240.677a6 6 0 0 0 6 6h200a6 6 0 0 0 6-6V6.884a6 6 0 0 0-6-6h-200a6 6 0 0 0-6 6z"/><path d="M2.123 348.735v240.677a6 6 0 0 0 6 6h200a6 6 0 0 0 6-6V348.735a6 6 0 0 0-6-6h-200a6 6 0 0 0-6 6z" opacity=".5"/><path d="M7.123 283.389H155.38a4.5 4.5 0 0 0 0-9H7.123a4.5 4.5 0 0 0 0 9zm239-118h85.5a4.5 4.5 0 0 0 0-9h-85.5a4.5 4.5 0 0 0 0 9z"/><path d="M246.123 392.389h130.5a4.5 4.5 0 0 0 0-9h-130.5a4.5 4.5 0 0 0 0 9zm-240 230h36.503a4.5 4.5 0 0 0 0-9H6.123a4.5 4.5 0 0 0 0 9z" opacity=".5"/><path d="M7.123 309.389h52.693a4.5 4.5 0 0 0 0-9H7.123a4.5 4.5 0 0 0 0 9zm239-118h52.693a4.5 4.5 0 0 0 0-9h-52.693a4.5 4.5 0 0 0 0 9z"/><path d="M246.123 418.389h65.502a4.5 4.5 0 0 0 0-9h-65.502a4.5 4.5 0 0 0 0 9zm-240 230h65.502a4.5 4.5 0 0 0 0-9H6.123a4.5 4.5 0 0 0 0 9zm333.147-230h29.353a4.5 4.5 0 0 0 0-9H339.27a4.5 4.5 0 0 0 0 9zm-240 230h29.353a4.5 4.5 0 0 0 0-9H99.27a4.5 4.5 0 0 0 0 9zm-37.65-26h123.004a4.5 4.5 0 0 0 0-9H61.62a4.5 4.5 0 0 0 0 9z" opacity=".5"/><path d="M5.35 850.389h109.626a4.5 4.5 0 0 0 0-9H5.35a4.5 4.5 0 0 0 0 9zm239.5-199h109.626a4.5 4.5 0 0 0 0-9H244.85a4.5 4.5 0 0 0 0 9z" opacity=".25"/><path d="M84.27 309.389h17.36a4.5 4.5 0 0 0 0-9H84.27a4.5 4.5 0 0 0 0 9zm237-118h17.36a4.5 4.5 0 0 0 0-9h-17.36a4.5 4.5 0 0 0 0 9zM241.123 6.884v126a6 6 0 0 0 6 6h200a6 6 0 0 0 6-6v-126a6 6 0 0 0-6-6h-200a6 6 0 0 0-6 6z"/><path d="M241.123 230.389v126a6 6 0 0 0 6 6h200a6 6 0 0 0 6-6v-126a6 6 0 0 0-6-6h-200a6 6 0 0 0-6 6z" opacity=".5"/><path d="M244.123 456.889v159.68a6 6 0 0 0 6 6h200a6 6 0 0 0 6-6v-159.68a6 6 0 0 0-6-6h-200a6 6 0 0 0-6 6zm-242 230v126a6 6 0 0 0 6 6h200a6 6 0 0 0 6-6v-126a6 6 0 0 0-6-6h-200a6 6 0 0 0-6 6z" opacity=".25"/></g></svg>