<svg xmlns="http://www.w3.org/2000/svg" width="19" height="22" viewBox="0 0 19 22"><path fill="#FFF" d="M.642 1.574A1.286 1.286 0 0 1 2.529.747l12.85 7.298-.114.2.113-.2a7.153 7.153 0 0 1 2.687 9.754 7.153 7.153 0 0 1-13.3-2.52l-.705-.402A3.953 3.953 0 0 1 2.39 9.87a3.946 3.946 0 0 1-.784-4.185C.542 4.705.246 3.27.642 1.574zm8.417 17.598a5.642 5.642 0 0 0 7.692-2.12l.2.114-.2-.114a5.641 5.641 0 0 0-2.12-7.691L2.055 2.209c-.222 1.258.109 2.172 1.043 2.702l9.967 5.661a.757.757 0 0 1-.747 1.316L2.903 6.539a2.446 2.446 0 0 0 1.153 2.757l6.28 3.567a.756.756 0 1 1-.746 1.315l-5.936-3.371a2.444 2.444 0 0 0 1.153 2.756l3.243 1.842a.756.756 0 1 1-.747 1.315l-.705-.4a5.606 5.606 0 0 0 2.461 2.852z"/></svg>