<svg xmlns="http://www.w3.org/2000/svg" width="42" height="42" viewBox="0 0 42 42"><path fill="#CFD8DC" fill-rule="evenodd" d="M12 12.148c0-5.025 4.037-9.111 9-9.111s9 4.086 9 9.111-4.037 9.111-9 9.111-9-4.086-9-9.11m21 0C33 5.45 27.616 0 21 0 14.383 0 9 5.45 9 12.148c0 6.184 4.591 11.292 10.5 12.044v9.215h-3c-.83 0-1.5.68-1.5 1.519 0 .84.67 1.518 1.5 1.518h3v3.037c0 .84.67 1.519 1.5 1.519s1.5-.679 1.5-1.519v-3.037h3c.83 0 1.5-.678 1.5-1.518s-.67-1.519-1.5-1.519h-3v-9.215c5.909-.752 10.5-5.86 10.5-12.044"/></svg>