<svg xmlns="http://www.w3.org/2000/svg" width="26" height="25" viewBox="0 0 26 25"><path fill="#607D8B" fill-rule="evenodd" d="M19.091 7.713a.862.862 0 0 1-.864-.857c0-.472.387-.857.864-.857s.865.385.865.857a.862.862 0 0 1-.865.857zm5.151 2.59a1.009 1.009 0 0 1-.314.723l-3.972 3.73V9.428c0-.053-.021-.098-.03-.148 1.019-.347 1.759-1.296 1.759-2.423 0-1.417-1.164-2.57-2.594-2.57s-2.594 1.153-2.594 2.57c0 1.127.74 2.076 1.76 2.423-.01.05-.03.095-.03.148v6.955l-7.051 6.623c-.4.375-1.02.368-1.41-.019l-7.74-7.673a.994.994 0 0 1 .019-1.435L14.757 1.964c.19-.178.436-.249.696-.249h.005l7.808.016a.995.995 0 0 1 1.004.992l-.029 7.581zm-2.557 11.98a.862.862 0 0 1-.865.856.862.862 0 0 1-.864-.857v-5.164l1.729-1.624v6.788zM23.277.015C24.784.025 26.006 1.234 26 2.73l-.029 7.582a2.713 2.713 0 0 1-.855 1.959l-1.702 1.6v8.412c0 1.418-1.164 2.571-2.594 2.571s-2.593-1.153-2.593-2.57v-3.54l-5.862 5.506a2.738 2.738 0 0 1-3.82-.05L.802 16.53A2.674 2.674 0 0 1 0 14.573c.01-.738.314-1.418.855-1.926L13.57.718C14.082.237 14.75 0 15.454 0h.015l7.808.016zM11.31 11.141h1.729a.86.86 0 0 0 .865-.857.86.86 0 0 0-.865-.857h-.865V8.57a.86.86 0 0 0-.864-.857.86.86 0 0 0-.865.857v1.004a2.578 2.578 0 0 0-1.729 2.424c0 1.418 1.164 2.571 2.594 2.571.477 0 .864.385.864.857a.862.862 0 0 1-.864.857H9.58a.86.86 0 0 0-.864.857.86.86 0 0 0 .865.857h.864v.857a.86.86 0 0 0 .865.857.86.86 0 0 0 .864-.857v-1.003a2.578 2.578 0 0 0 1.73-2.425c0-1.417-1.164-2.57-2.594-2.57a.862.862 0 0 1-.865-.858c0-.472.388-.857.865-.857z"/></svg>