<svg xmlns="http://www.w3.org/2000/svg" width="28" height="30" viewBox="0 0 28 30"><path fill="#1D1D1B" fill-rule="evenodd" d="M26 26.69c-.323.383-1.375 1.31-4 1.31-1.678 0-2.71-.379-3.321-.749C19.647 26.132 20 24.894 20 24c0-.015-.004-.03-.004-.044C21.535 22.808 22 21.342 22 20c0-1.671-.916-3.065-2.543-4.09A5.911 5.911 0 0 0 18 14.083v-1.082c.002-1.087.248-2.835.707-3.294.214-.214.435-.375.668-.547C20.1 8.63 21 7.971 21 6V2.176c.096-.059.368-.176 1-.176s.904.117 1 .176V6c0 1.971.9 2.63 1.625 3.16.233.172.454.333.668.547.459.459.705 2.207.707 3.293v13.69zM4.272 25.104C5.887 25.656 8.065 26 11 26c2.935 0 5.112-.344 6.728-.896C17.105 26.449 15.266 28 11 28s-6.106-1.551-6.728-2.896zM2.214 19.09C2.838 20.591 5.015 22 11 22c5.995 0 8.17-1.414 8.79-2.918.133.292.21.597.21.918 0 3.48-5.639 4-9 4-3.361 0-9-.52-9-4 0-.319.083-.62.214-.91zM11 14c5.537 0 7 2.616 7 4 0 .922-1.833 2-7 2s-7-1.078-7-2c0-1.384 1.463-4 7-4zm15.707-5.707c-.322-.323-.63-.548-.901-.747C25.203 7.105 25 6.957 25 6V2c0-.082-.034-2-3-2s-3 1.918-3 2v4c0 .957-.203 1.105-.806 1.546-.271.199-.579.424-.901.747-1.172 1.171-1.283 3.838-1.291 4.586C14.728 12.345 13.096 12 11 12c-5.103 0-7.506 2.015-8.463 3.922C.918 16.946 0 18.334 0 20c0 1.341.465 2.807 2.003 3.955L2 24c0 2.075 1.881 6 9 6 2.751 0 4.712-.589 6.093-1.428C17.946 29.259 19.445 30 22 30c4.488 0 5.764-2.292 5.895-2.553.069-.139.105-.292.105-.447V13c0-.571-.063-3.477-1.293-4.707z"/></svg>