<?xml version="1.0" encoding="UTF-8"?>
<svg width="29px" height="28px" viewBox="0 0 29 28" version="1.1" xmlns="http://www.w3.org/2000/svg" xmlns:xlink="http://www.w3.org/1999/xlink">
    <!-- Generator: sketchtool 41.2 (35397) - http://www.bohemiancoding.com/sketch -->
    <title>84E53742-D4C3-44D6-B8AC-E04774E46308</title>
    <desc>Created with sketchtool.</desc>
    <defs></defs>
    <g id="Report" stroke="none" stroke-width="1" fill="none" fill-rule="evenodd">
        <g id="MVP-1.3---Report--Listing" transform="translate(-574.000000, -714.000000)" fill="#333333">
            <g id="Overlay-Report-Listing" transform="translate(97.000000, 186.000000)">
                <g id="Group" transform="translate(461.000000, 262.000000)">
                    <path d="M42.8293604,291.183302 C42.8293604,291.627553 42.4678738,291.989039 42.0236235,291.989039 L18.8913241,291.989039 C18.4470738,291.989039 18.0855872,291.627553 18.0855872,291.183302 L18.0855872,291.088309 C18.0855872,290.644059 18.4470738,290.282572 18.8913241,290.282572 L42.0236235,290.282572 C42.4678738,290.282572 42.8293604,290.644059 42.8293604,291.088309 L42.8293604,291.183302 Z M42.0236235,288.576105 L18.8913241,288.576105 C17.5062416,288.576105 16.3791201,289.703226 16.3791201,291.088309 L16.3791201,291.183302 C16.3791201,292.568385 17.5062416,293.695506 18.8913241,293.695506 L42.0236235,293.695506 C43.408706,293.695506 44.5358275,292.568385 44.5358275,291.183302 L44.5358275,291.088309 C44.5358275,289.703226 43.408706,288.576105 42.0236235,288.576105 Z M18.1322591,274.639843 L42.8436094,274.639843 C43.5168107,274.639843 44.1410932,274.270393 44.4894969,273.693891 C44.8376162,273.117674 44.8595159,272.391857 44.545526,271.7963 C42.3643766,267.657264 36.147148,266 30.4879343,266 C24.8287205,266 18.6112075,267.648447 16.4300582,271.787768 C16.1157838,272.383893 16.1365458,273.118243 16.4849495,273.695029 C16.8333532,274.271815 17.4582046,274.639843 18.1322591,274.639843 Z M17.9397127,272.591798 C19.8367353,268.99229 25.8847392,267.706467 30.4879343,267.706467 C35.0908449,267.706467 41.1388488,268.983473 43.0361558,272.583266 C43.0705695,272.648965 43.0677254,272.747087 43.0287611,272.811648 C42.9897968,272.876209 42.918694,272.933376 42.8436094,272.933376 L18.1322591,272.933376 C18.0546148,272.933376 17.9849341,272.877631 17.9456854,272.812786 C17.9070054,272.748509 17.9044457,272.658635 17.9397127,272.591798 Z M43.8247996,279.463002 C42.7207153,279.463002 42.2173075,279.148443 41.5793733,278.749698 C40.850143,278.294072 40.0233597,277.777297 38.4298038,277.777297 C36.8365323,277.777297 36.0094646,278.294072 35.2802343,278.749698 C34.6425844,279.148443 34.1388922,279.463002 33.034808,279.463002 C31.9312926,279.463002 31.4276004,279.148443 30.7902349,278.749983 C30.0607202,278.294072 29.2342213,277.777297 27.6409498,277.777297 C26.0476784,277.777297 25.2211795,278.294072 24.4916648,278.749698 C23.8542993,279.148443 23.3508915,279.463002 22.2470917,279.463002 C21.1432919,279.463002 20.6395997,279.148443 20.0022342,278.749698 C19.2730039,278.294072 18.446505,277.777297 16.8532336,277.777297 C16.3819642,277.777297 16,278.159261 16,278.63053 C16,279.101799 16.3819642,279.483764 16.8532336,279.483764 C17.9570334,279.483764 18.4604412,279.798607 19.098091,280.197067 C19.8273213,280.652978 20.6538202,281.169469 22.2470917,281.169469 C23.8400788,281.169469 24.6668621,280.652978 25.3960924,280.197067 C26.0334578,279.798607 26.53715,279.483764 27.6409498,279.483764 C28.7450341,279.483764 29.2484419,279.798607 29.8858073,280.197067 C30.615322,280.652978 31.4418209,281.169469 33.034808,281.169469 C34.6283639,281.169469 35.4551472,280.652978 36.1846619,280.197067 C36.8223118,279.798607 37.3257196,279.483764 38.4298038,279.483764 C39.533888,279.483764 40.0375802,279.798607 40.6752301,280.197067 C41.4044604,280.652978 42.2312437,281.169469 43.8247996,281.169469 C44.2960689,281.169469 44.6780331,280.787505 44.6780331,280.316235 C44.6780331,279.844966 44.2960689,279.463002 43.8247996,279.463002 Z M43.682594,283.456704 L17.2323537,283.456704 C16.7610843,283.456704 16.3791201,283.838668 16.3791201,284.309937 C16.3791201,284.781206 16.7610843,285.163171 17.2323537,285.163171 L43.682594,285.163171 C44.1538633,285.163171 44.5358275,284.781206 44.5358275,284.309937 C44.5358275,283.838668 44.1538633,283.456704 43.682594,283.456704 Z M24.6270445,271.795845 C25.0983138,271.795845 25.4802781,271.413881 25.4802781,270.942611 L25.4802781,270.373789 C25.4802781,269.90252 25.0983138,269.520555 24.6270445,269.520555 C24.1557752,269.520555 23.7738109,269.90252 23.7738109,270.373789 L23.7738109,270.942611 C23.7738109,271.413881 24.1557752,271.795845 24.6270445,271.795845 Z M28.3243899,271.795845 C28.7956593,271.795845 29.1776235,271.413881 29.1776235,270.942611 L29.1776235,270.373789 C29.1776235,269.90252 28.7956593,269.520555 28.3243899,269.520555 C27.8531206,269.520555 27.4711564,269.90252 27.4711564,270.373789 L27.4711564,270.942611 C27.4711564,271.413881 27.8531206,271.795845 28.3243899,271.795845 Z M32.3061465,271.795845 C32.7774159,271.795845 33.1593801,271.413881 33.1593801,270.942611 L33.1593801,270.373789 C33.1593801,269.90252 32.7774159,269.520555 32.3061465,269.520555 C31.8348772,269.520555 31.452913,269.90252 31.452913,270.373789 L31.452913,270.942611 C31.452913,271.413881 31.8348772,271.795845 32.3061465,271.795845 Z M36.0034919,271.795845 C36.4747613,271.795845 36.8567255,271.413881 36.8567255,270.942611 L36.8567255,270.373789 C36.8567255,269.90252 36.4747613,269.520555 36.0034919,269.520555 C35.5322226,269.520555 35.1502584,269.90252 35.1502584,270.373789 L35.1502584,270.942611 C35.1502584,271.413881 35.5322226,271.795845 36.0034919,271.795845 Z" id="report_food"></path>
                </g>
            </g>
        </g>
    </g>
</svg>