<svg xmlns="http://www.w3.org/2000/svg" width="24" height="32" viewBox="0 0 24 32"><path fill="#1D1D1B" fill-rule="evenodd" d="M17.5 11a4.5 4.5 0 1 1 0-9 4.5 4.5 0 0 1 0 9zM2 19V7.979C2 6.888 2.888 6 3.979 6h7.046c-.012.166-.025.331-.025.5 0 3.067 2.138 5.638 5 6.318V19H2zm14 9.021A1.982 1.982 0 0 1 14.021 30H3.979A1.982 1.982 0 0 1 2 28.021V21h14v7.021zM24 6.5c0 3.415-2.649 6.218-6 6.475v15.046A3.98 3.98 0 0 1 14.021 32H3.979A3.98 3.98 0 0 1 0 28.021V7.979A3.98 3.98 0 0 1 3.979 4h7.522A6.511 6.511 0 0 1 17.5 0C21.084 0 24 2.916 24 6.5zm-4.293-2.207a.999.999 0 0 0-1.414 0l-.793.793-.793-.793a.999.999 0 1 0-1.414 1.414l.793.793-.793.793a.999.999 0 1 0 1.414 1.414l.793-.793.793.793a.997.997 0 0 0 1.414 0 .999.999 0 0 0 0-1.414l-.793-.793.793-.793a.999.999 0 0 0 0-1.414z"/></svg>