<svg width="32" height="32" viewBox="0 0 32 32" fill="none" xmlns="http://www.w3.org/2000/svg">
<g clip-path="url(#clip0)">
<path d="M10.1 17.5L13.6 20.5L21.9 11.3" stroke="white" stroke-width="2" stroke-miterlimit="10" stroke-linecap="round" stroke-linejoin="round"/>
<path fill-rule="evenodd" clip-rule="evenodd" d="M16.9 1.4L20.2 4.7C20.4 4.9 20.7 5 21.1 5H25.7C26.4 5 27 5.6 27 6.3V10.9C27 11.2 27.1 11.6 27.4 11.8L30.7 15C31.2 15.5 31.2 16.3 30.7 16.8L27.4 20C27.1 20.3 27 20.6 27 21V25.6C27 26.3 26.4 26.9 25.7 26.9H21.1C20.8 26.9 20.4 27 20.2 27.3L16.9 30.6C16.4 31.1 15.6 31.1 15.1 30.6L11.8 27.3C11.6 27.1 11.2 26.9 10.9 26.9H6.29999C5.59999 26.9 4.99999 26.3 4.99999 25.6V21C4.99999 20.7 4.89999 20.3 4.59999 20.1L1.29999 16.9C0.799988 16.4 0.799988 15.6 1.29999 15.1L4.59999 11.9C4.89999 11.5 4.99999 11.2 4.99999 10.9V6.3C4.99999 5.6 5.59999 5 6.29999 5H10.9C11.2 5 11.6 4.9 11.8 4.6L15.1 1.3C15.6 0.900003 16.4 0.900003 16.9 1.4Z" stroke="white" stroke-width="2" stroke-miterlimit="10"/>
</g>
<defs>
<clipPath id="clip0">
<rect width="32" height="31.8" fill="white"/>
</clipPath>
</defs>
</svg>
