<svg width="36" height="36" viewBox="0 0 48 48" fill="none" xmlns="http://www.w3.org/2000/svg">
<path d="M23.8342 15.3886C23.7811 15.4118 23.7262 15.4233 23.6693 15.4233C23.5732 15.4233 23.4837 15.3931 23.409 15.3369C23.3885 15.3216 23.3679 15.3072 23.3473 15.2939C22.1407 14.4627 20.7057 14.009 19.2037 14.0108C15.2174 14.0156 11.9961 17.1961 12 21.105C12.0042 24.4924 13.7697 27.4666 16.756 30.021C18.7185 31.6996 20.9235 32.9753 22.9113 33.8498C23.1914 33.9553 23.4382 34 23.6891 34C23.9761 34 24.2008 33.954 24.4647 33.8431C24.5164 33.8211 24.5716 33.7961 24.6549 33.7582C24.6687 33.7521 24.6743 33.7496 24.6885 33.7428C24.691 33.7417 24.6935 33.7406 24.6959 33.7394C26.7629 32.7929 28.9547 31.4734 30.8583 29.779C33.6837 27.2642 35.3379 24.3596 35.3333 21.0755C35.3284 17.1667 32.1001 13.9954 28.1122 14C26.5505 14.001 25.0631 14.4936 23.8342 15.3886Z" fill="#FD6C67"/>
<path d="M23.8342 15.3886L24.2344 16.305L24.3345 16.2613L24.4229 16.1969L23.8342 15.3886ZM23.409 15.3369L24.0098 14.5376L23.409 15.3369ZM23.3473 15.2939L22.78 16.1174L22.7921 16.1257L22.8044 16.1337L23.3473 15.2939ZM19.2037 14.0108L19.2049 15.0108H19.2049L19.2037 14.0108ZM12 21.105L11 21.106L11 21.1062L12 21.105ZM16.756 30.021L17.406 29.2611L16.756 30.021ZM22.9113 33.8498L22.5086 34.7651L22.5335 34.7761L22.559 34.7857L22.9113 33.8498ZM24.4647 33.8431L24.8521 34.7651L24.8571 34.7629L24.4647 33.8431ZM24.6549 33.7582L24.2529 32.8425L24.2407 32.848L24.6549 33.7582ZM24.6885 33.7428L24.2806 32.8298L24.2663 32.8361L24.2523 32.843L24.6885 33.7428ZM24.6959 33.7394L25.1123 34.6486L24.6959 33.7394ZM30.8583 29.779L30.1935 29.032L30.8583 29.779ZM35.3333 21.0755L34.3333 21.0768V21.0769L35.3333 21.0755ZM28.1122 14L28.1128 15L28.1133 15L28.1122 14ZM23.4339 14.4722C23.5048 14.4412 23.586 14.4233 23.6693 14.4233V16.4233C23.8664 16.4233 24.0574 16.3823 24.2344 16.305L23.4339 14.4722ZM23.6693 14.4233C23.7893 14.4233 23.9108 14.4631 24.0098 14.5376L22.8081 16.1363C23.0566 16.3231 23.3572 16.4233 23.6693 16.4233V14.4233ZM24.0098 14.5376C23.9708 14.5083 23.9309 14.4804 23.8901 14.454L22.8044 16.1337C22.805 16.134 22.8062 16.1349 22.8081 16.1363L24.0098 14.5376ZM23.9146 14.4703C22.5417 13.5246 20.9087 13.0088 19.2025 13.0108L19.2049 15.0108C20.5028 15.0093 21.7397 15.4007 22.78 16.1174L23.9146 14.4703ZM19.2025 13.0108C14.6798 13.0162 10.9955 16.6292 11 21.106L13 21.104C12.9967 17.763 15.7549 15.0149 19.2049 15.0108L19.2025 13.0108ZM11 21.1062C11.0047 24.8796 12.9811 28.108 16.106 30.7809L17.406 29.2611C14.5582 26.8252 13.0037 24.1051 13 21.1037L11 21.1062ZM16.106 30.7809C18.1554 32.5339 20.4478 33.8585 22.5086 34.7651L23.314 32.9345C21.3992 32.0921 19.2815 30.8652 17.406 29.2611L16.106 30.7809ZM22.559 34.7857C22.9414 34.9296 23.3073 35 23.6891 35V33C23.5692 33 23.4414 32.9809 23.2635 32.9139L22.559 34.7857ZM23.6891 35C24.1108 35 24.467 34.9269 24.8521 34.765L24.0773 32.9212C23.9345 32.9812 23.8415 33 23.6891 33V35ZM24.8571 34.7629C24.9217 34.7354 24.9879 34.7053 25.069 34.6684L24.2407 32.848C24.1553 32.8869 24.1112 32.9068 24.0724 32.9233L24.8571 34.7629ZM25.0568 34.6739C25.0753 34.6657 25.094 34.6575 25.1248 34.6426L24.2523 32.843L24.2529 32.8425L25.0568 34.6739ZM25.0965 34.6558C25.1015 34.6535 25.1068 34.6511 25.1123 34.6486L24.2795 32.8302C24.2801 32.83 24.2804 32.8298 24.2806 32.8298L25.0965 34.6558ZM25.1123 34.6486C27.2507 33.6694 29.5312 32.2991 31.5232 30.526L30.1935 29.032C28.3783 30.6477 26.275 31.9164 24.2795 32.8302L25.1123 34.6486ZM31.5232 30.526C34.4863 27.8885 36.3385 24.7319 36.3333 21.0741L34.3333 21.0769C34.3374 23.9873 32.881 26.6398 30.1935 29.032L31.5232 30.526ZM36.3333 21.0743C36.3277 16.5971 32.635 12.9948 28.111 13L28.1133 15C31.5653 14.996 34.3291 17.7363 34.3333 21.0768L36.3333 21.0743ZM28.1115 13C26.338 13.0011 24.6449 13.5611 23.2455 14.5802L24.4229 16.1969C25.4814 15.426 26.7629 15.0008 28.1128 15L28.1115 13Z" fill="#FD6C67"/>
</svg>
