<svg xmlns="http://www.w3.org/2000/svg" width="48" height="48" viewBox="0 0 48 48">
  <path fill="#90A4AE" fill-rule="evenodd" d="M29.2285,33.002 C29.2245,33.002 29.2215,33 29.2185,33 L19.2185,33 C19.1815,33 19.1505,33.021 19.1135,33.024 L18.2185,33.026 C18.2185,32.46 18.6785,32 19.2455,32 L29.1925,32 C29.7495,32 30.2045,32.446 30.2185,33 L29.2285,33.002 Z M27.1515,38 L21.2865,38 L20.5095,35 L27.9275,35 L27.1515,38 Z M18.5615,22.172 C17.3625,20.972 16.9495,19.08 16.8075,17.947 C18.1725,17.95 20.2565,18.21 21.3905,19.344 C22.5935,20.547 23.0045,22.655 23.1455,23.931 C21.7555,23.773 19.7005,23.31 18.5615,22.172 Z M26.6095,11.829 C27.8125,10.626 29.9215,10.214 31.1975,10.073 C31.0405,11.464 30.5765,13.519 29.4385,14.657 C28.2405,15.855 26.3515,16.269 25.2185,16.41 L25.2185,16.226 C25.2435,14.864 25.5245,12.914 26.6095,11.829 Z M29.1925,30 L25.2185,30 L25.2185,28.618 L28.6665,26.895 C29.1605,26.648 29.3605,26.047 29.1135,25.553 C28.8655,25.059 28.2645,24.861 27.7715,25.106 L25.2185,26.382 L25.2185,18.424 C26.5905,18.279 29.1405,17.783 30.8525,16.071 C33.2395,13.685 33.2665,9.19 33.2665,9 C33.2665,8.447 32.8195,8 32.2665,8 C32.0775,8 27.6125,8.028 25.2185,10.394 L25.2185,9 C25.2185,8.447 24.7715,8 24.2185,8 C23.6665,8 23.2185,8.447 23.2185,9 L23.2185,18.394 C23.0885,18.231 22.9515,18.077 22.8045,17.93 C20.3695,15.494 15.8085,15.983 15.6205,16.007 C15.1145,16.065 14.7335,16.491 14.7335,17 C14.7335,17.17 14.7605,21.199 17.1475,23.586 C18.8805,25.319 21.7175,25.806 23.2185,25.944 L23.2185,30 L19.2455,30 C17.5765,30 16.2185,31.357 16.2185,33.026 C16.2185,34.114 17.1045,35 18.1925,35 L18.4455,35 L19.5435,39.25 C19.6575,39.691 20.0555,40 20.5115,40 L27.9255,40 C28.3815,40 28.7805,39.691 28.8935,39.25 L29.9925,35 L30.2455,35 C31.3325,35 32.2185,34.114 32.2185,33.026 C32.2185,31.357 30.8615,30 29.1925,30 Z"/>
</svg>
