<svg xmlns="http://www.w3.org/2000/svg" width="26" height="26" viewBox="0 0 26 26"><path fill="#607D8B" fill-rule="evenodd" d="M24.272 24.103a.168.168 0 0 1-.169.169H5.431a.168.168 0 0 1-.168-.169V8.004l-.507-.507-.735-.735c.018-.016.04-.02.057-.038l2.578-2.578c.041-.04.06-.092.092-.138l.75.749.506.506h16.099c.094 0 .169.075.169.168v18.672zM1.728 4.4a.16.16 0 0 1 .05-.12l2.501-2.502a.162.162 0 0 1 .12-.049c.046 0 .086.017.119.05l1.055 1.054c-.047.031-.098.051-.138.092L2.856 5.502c-.017.018-.022.04-.038.057l-1.04-1.04a.162.162 0 0 1-.05-.12zM16.79 1.807h5.834c.431 0 .783.35.783.783v.945h-8.191l1.574-1.728zm8.345 2.036c.52.339.864.922.864 1.588v18.672A1.896 1.896 0 0 1 24.103 26H5.431a1.897 1.897 0 0 1-1.896-1.897V8.72L.555 5.74a1.897 1.897 0 0 1 0-2.681L3.058.556A1.89 1.89 0 0 1 4.398 0c.486 0 .971.185 1.342.556l2.979 2.979h4.166c.006-.007.008-.016.013-.022L15.535.617A1.746 1.746 0 0 1 16.79.079h5.834a2.514 2.514 0 0 1 2.51 2.51v1.254zM13.072 16.528V13.07h3.456v3.457h-3.456zm6.804-5.438c.337-.338.265-.884-.073-1.222-.337-.337-.92-.48-1.258-.144l-1.8 1.62h-3.892l-1.762-1.62c-.338-.337-.885-.265-1.222.073-.338.337-.482.92-.144 1.257l1.619 1.799v3.893l-1.62 1.763c-.337.338-.265.884.072 1.222.17.168.426.253.648.253.22 0 .46.06.629-.11l1.78-1.618h3.893l1.763 1.619c.169.168.39.18.611.18.222 0 .443-.12.611-.288.337-.338.482-.903.145-1.24l-1.62-1.78v-3.894l1.62-1.763z"/></svg>