<svg xmlns="http://www.w3.org/2000/svg" width="26" height="26" viewBox="0 0 26 26"><path fill="#607D8B" fill-rule="evenodd" d="M13 24.256c-7.441 0-11.267-1.866-11.267-2.661v-4.157c.867.592 2.068 1.107 3.61 1.525a.866.866 0 0 0 1.057-.616.874.874 0 0 0-.612-1.07c-2.748-.743-3.994-1.753-3.994-2.376 0-.117-.06-.228-.06-.33v-2.222c.866.59 2.07 1.107 3.614 1.525a.866.866 0 0 0 1.058-.616.874.874 0 0 0-.612-1.07c-2.752-.743-4-1.754-4-2.377 0-.117-.06-.229-.06-.33V6.212c2.6 1.29 6.41 2.163 11.266 2.163s8.667-.874 11.267-2.163V9.48c0 .102-.061.214-.061.331 0 .623-1.25 1.634-4.001 2.378a.873.873 0 0 0 .446 1.685c1.544-.418 2.749-.934 3.616-1.525v2.222c0 .102-.061.213-.061.33 0 .623-1.249 1.633-3.997 2.377a.872.872 0 0 0 .447 1.685c1.542-.418 2.744-.933 3.61-1.525v4.157c0 .795-3.825 2.66-11.266 2.66m0-22.51c6.701 0 10.478 1.658 11.104 2.443C23.478 4.972 19.7 6.632 13 6.632S2.522 4.972 1.896 4.188C2.522 3.403 6.3 1.744 13 1.744M13 0c6.663 0 12.138 1.643 12.811 3.75a.848.848 0 0 1 .189.53v17.316C26 24.622 19.267 26 13 26S0 24.622 0 21.595V4.279a.85.85 0 0 1 .189-.529C.862 1.643 6.337 0 13 0zm-.289 18.292a1.451 1.451 0 0 1-1.444-1.454c0-.466.664-1.78 1.444-3.055.781 1.273 1.445 2.588 1.445 3.055a1.45 1.45 0 0 1-1.445 1.454zm-.713-6.6c-.578.841-2.465 3.702-2.465 5.146 0 1.763 1.427 3.198 3.178 3.198 1.752 0 3.178-1.435 3.178-3.198 0-1.444-1.886-4.305-2.464-5.146-.324-.472-1.104-.472-1.427 0zm-3.765-6.46c1.197 0 2.167-.39 2.167-.871 0-.482-.97-.872-2.167-.872-1.197 0-2.166.39-2.166.872 0 .481.97.872 2.166.872z"/></svg>