<svg width="24" height="26" viewBox="0 0 24 26" xmlns="http://www.w3.org/2000/svg"><path d="M21.868 25.059l-.07-.002c-1.018-.017-1.517-.823-1.849-1.359-.295-.477-.43-.646-.602-.646-.171 0-.306.17-.601.646-.335.541-.84 1.36-1.88 1.36s-1.546-.819-1.88-1.36c-.296-.477-.431-.646-.602-.646-.17 0-.306.17-.601.646-.335.541-.841 1.36-1.88 1.36-1.04 0-1.545-.819-1.88-1.36-.295-.477-.43-.646-.6-.646-.171 0-.306.17-.601.646-.335.541-.841 1.36-1.88 1.36-1.04 0-1.546-.819-1.88-1.36-.295-.477-.43-.646-.601-.646-.17 0-.306.17-.601.646-.335.541-.84 1.36-1.88 1.36-.11 0-.672-.027-1.184-.54C.268 23.992 0 23.162 0 22.05V11.913C0 5.344 5.34 0 11.906 0c6.565 0 11.906 5.344 11.906 11.913v10.136c0 2.865-1.62 3.01-1.944 3.01zm-.64-2.152c.296.477.43.646.602.646h.046c.151-.039.432-.435.432-1.504V11.913c0-5.74-4.667-10.41-10.402-10.41-5.736 0-10.402 4.67-10.402 10.41v10.136c0 .949.248 1.3.355 1.406.04.04.12.098.12.098.172 0 .307-.17.602-.646.335-.541.84-1.359 1.88-1.359 1.039 0 1.545.818 1.88 1.36.295.476.43.645.6.645.171 0 .307-.17.601-.646.335-.541.841-1.359 1.88-1.359 1.04 0 1.545.818 1.88 1.36.295.476.43.645.6.645.172 0 .307-.17.602-.646.335-.541.84-1.359 1.88-1.359s1.545.818 1.88 1.359c.295.477.43.646.602.646.17 0 .306-.17.601-.646.335-.541.84-1.359 1.88-1.359s1.546.818 1.881 1.359zM16.853 8.639a1.557 1.557 0 1 1 0 3.115 1.557 1.557 0 0 1 0-3.115zm-10.026 0a1.557 1.557 0 1 1 0 3.115 1.557 1.557 0 0 1 0-3.115zm6.708 3.635a.752.752 0 1 1 0 1.504h-3.258a.752.752 0 1 1 0-1.504h3.258z" fill="#000" fill-rule="evenodd"/></svg>