<svg xmlns="http://www.w3.org/2000/svg" width="46" height="45"><g fill="none" fill-rule="evenodd"><path fill="#ECEFF1" d="M35.895 27.486l1.184-.904-1.145.88a2.148 2.148 0 0 0-.757 2.31l2.833 8.719a4.415 4.415 0 0 1-6.793 4.936l-7.432-5.402a2.126 2.126 0 0 0-2.388-.008l-7.448 5.41a4.413 4.413 0 0 1-6.793-4.936l2.836-8.721c.061-.21.092-.41.092-.603 0-.71-.35-1.363-.955-1.785l-7.31-5.31C.271 20.946-.374 19.064.217 17.248c.59-1.816 2.277-2.939 4.198-2.939h9.486l-.513.08c1.216-.39 1.894-.898 2.117-1.477l2.88-8.917c.592-1.82 2.288-3.076 4.2-3.076a4.403 4.403 0 0 1 4.199 3.041l2.849 8.878c.251.656.926 1.159 2.147 1.551l-.513-.08h9.485c1.922 0 3.608 1.123 4.2 2.94.59 1.816-.055 3.698-1.605 4.824l-7.452 5.413z"/><path fill="#FFD300" d="M22.59 37.653s-.862.135-1.193.364l-7.448 5.41a4.413 4.413 0 0 1-6.793-4.936l2.836-8.721c.061-.21.092-.41.092-.603 0-.71-.35-1.363-.955-1.785l-7.31-5.31C.271 20.946-.374 19.064.217 17.248c.59-1.816 2.277-2.939 4.198-2.939h9.486l-.513.08c1.216-.39 1.894-.898 2.117-1.477l2.88-8.917c1.285-2.591 2.285-2.591 4.2-3.076l.004 36.734h.001z"/></g></svg>