<?xml version="1.0" encoding="UTF-8"?>
<svg width="46px" height="45px" viewBox="0 0 46 45" version="1.1" xmlns="http://www.w3.org/2000/svg" xmlns:xlink="http://www.w3.org/1999/xlink">
  <!-- Generator: Sketch 45.2 (43514) - http://www.bohemiancoding.com/sketch -->
  <title>half star</title>
  <desc>Created with Sketch.</desc>
  <defs>
    <linearGradient x1="50%" y1="0%" x2="50%" y2="119.702199%" id="linearGradient-1">
      <stop stop-color="#FFD300" offset="0%"></stop>
      <stop stop-color="#FCBB27" offset="100%"></stop>
    </linearGradient>
  </defs>
  <g id="Styleguide" stroke="none" stroke-width="1" fill="none" fill-rule="evenodd">
    <g id="images" transform="translate(-164.000000, -706.000000)" fill-rule="nonzero">
      <g id="profile_place_holders" transform="translate(94.000000, 561.000000)">
        <g id="placeholder_1" transform="translate(0.000000, 0.918590)">
          <g id="half-star" transform="translate(70.000000, 145.000000)">
            <path d="M35.8950278,26.5668065 L37.0790705,25.6630106 L35.9341871,26.5435353 C35.4044751,26.9509345 35.0897096,27.5748513 35.0897096,28.2508547 C35.0897096,28.4635967 35.1219537,28.6738305 35.1767921,28.8525094 L38.0104046,37.5718699 C38.6019912,39.3910213 37.9546376,41.3835343 36.4043004,42.510236 C35.6446755,43.0595159 34.7376883,43.3501181 33.812474,43.3501181 C32.8855821,43.3501181 31.9792198,43.060046 31.2170482,42.5079686 L23.7847735,37.1063037 C23.4238058,36.8631164 23.0149366,36.7338096 22.5892831,36.7338096 C22.1491496,36.7338096 21.728448,36.8687989 21.397121,37.0982328 L13.9489912,42.5085111 C13.1894937,43.0597301 12.2817047,43.3505892 11.3547837,43.3505892 C10.4279082,43.3505892 9.52057035,43.0597486 8.76049188,42.5081078 C7.21302777,41.3840402 6.56531378,39.3917627 7.15630114,37.5721182 L9.99181806,28.8505679 C10.0531502,28.6408711 10.0836735,28.4408707 10.0836735,28.2475571 C10.0836735,27.5382237 9.73382427,26.8854255 9.12893977,26.4631332 L1.81963386,21.1535375 C0.270636552,20.0270428 -0.374423312,18.1453757 0.216874714,16.3286294 C0.807879398,14.5127843 2.49358974,13.3899573 4.41514908,13.3899573 L13.9010754,13.3899573 L13.3883415,13.4702967 C14.6036115,13.0798746 15.2817874,12.571593 15.5052221,11.9931668 L18.3848195,3.07642304 C18.9769498,1.25635986 20.6727988,0 22.5841,0 C24.4971803,0 26.1913966,1.21736579 26.7839063,3.04096742 L29.6325341,11.9185934 C29.8842321,12.5750982 30.5589594,13.0779401 31.780008,13.4703447 L31.2671246,13.3899573 L40.7521086,13.3899573 C42.6737067,13.3899573 44.3598489,14.5127825 44.9510501,16.3292317 C45.5416346,18.1461182 44.8966458,20.027578 43.3473072,21.1537677 L35.8950278,26.5668065 Z" id="Shape-Copy-8" fill="#F3F3F3"></path>
            <path d="M22.5892831,36.7338096 C22.5892831,36.7338096 21.728448,36.8687989 21.397121,37.0982328 L13.9489912,42.5085111 C13.1894937,43.0597301 12.2817047,43.3505892 11.3547837,43.3505892 C10.4279082,43.3505892 9.52057035,43.0597486 8.76049188,42.5081078 C7.21302777,41.3840402 6.56531378,39.3917627 7.15630114,37.5721182 L9.99181806,28.8505679 C10.0531502,28.6408711 10.0836735,28.4408707 10.0836735,28.2475571 C10.0836735,27.5382237 9.73382427,26.8854255 9.12893977,26.4631332 L1.81963386,21.1535375 C0.270636552,20.0270428 -0.374423312,18.1453757 0.216874714,16.3286294 C0.807879398,14.5127843 2.49358974,13.3899573 4.41514908,13.3899573 L13.9010754,13.3899573 L13.3883415,13.4702967 C14.6036115,13.0798746 15.2817874,12.571593 15.5052221,11.9931668 L18.3848195,3.07642304 C19.6703892,0.484815097 20.6703892,0.484815101 22.5841,0 C22.5841007,0.484815091 22.5892831,36.7338096 22.5892831,36.7338096 Z" id="Shape-Copy-7" fill="url(#linearGradient-1)"></path>
          </g>
        </g>
      </g>
    </g>
  </g>
</svg>
