<svg width="50" height="51" viewBox="0 0 50 51" xmlns="http://www.w3.org/2000/svg" xmlns:xlink="http://www.w3.org/1999/xlink"><defs><path d="M37.895 29.567l1.184-.904-1.145.88a2.148 2.148 0 0 0-.757 2.31l2.833 8.719a4.415 4.415 0 0 1-6.793 4.936l-7.432-5.402a2.126 2.126 0 0 0-1.196-.372c-.44 0-.86.135-1.192.364l-7.448 5.41a4.413 4.413 0 0 1-5.189 0 4.415 4.415 0 0 1-1.604-4.936l2.836-8.721c.061-.21.092-.41.092-.603 0-.71-.35-1.363-.955-1.785l-7.31-5.31c-1.548-1.126-2.193-3.008-1.602-4.824.59-1.816 2.277-2.939 4.198-2.939h9.486l-.513.08c1.216-.39 1.894-.898 2.117-1.477l2.88-8.917C20.977 4.256 22.673 3 24.585 3a4.403 4.403 0 0 1 4.199 3.041l2.849 8.878c.251.656.926 1.159 2.147 1.551l-.513-.08h9.485c1.922 0 3.608 1.123 4.2 2.94.59 1.816-.055 3.698-1.605 4.824l-7.452 5.413z" id="a"/><filter x="-50%" y="-50%" width="200%" height="200%" filterUnits="objectBoundingBox" id="b"><feGaussianBlur stdDeviation="1" in="SourceAlpha" result="shadowBlurInner1"/><feOffset dy="1" in="shadowBlurInner1" result="shadowOffsetInner1"/><feComposite in="shadowOffsetInner1" in2="SourceAlpha" operator="arithmetic" k2="-1" k3="1" result="shadowInnerInner1"/><feColorMatrix values="0 0 0 0 0 0 0 0 0 0 0 0 0 0 0 0 0 0 0.1 0" in="shadowInnerInner1"/></filter><linearGradient x1="50%" y1="0%" x2="50%" y2="119.702%" id="c"><stop stop-color="#FFD300" offset="0%"/><stop stop-color="#FCBB27" offset="100%"/></linearGradient></defs><g fill="none" fill-rule="evenodd"><g transform="translate(0 .919)"><use fill="#ECEFF1" xlink:href="#a"/><use fill="#000" filter="url(#b)" xlink:href="#a"/></g><path d="M24.59 39.734s-.862.135-1.193.364l-7.448 5.41a4.413 4.413 0 0 1-5.189 0 4.415 4.415 0 0 1-1.604-4.936l2.836-8.721c.061-.21.092-.41.092-.603 0-.71-.35-1.363-.955-1.785l-7.31-5.31c-1.548-1.126-2.193-3.008-1.602-4.824.59-1.816 2.277-2.939 4.198-2.939h9.486l-.513.08c1.216-.39 1.894-.898 2.117-1.477l2.88-8.917C21.67 3.485 22.67 3.485 24.585 3l.004 36.734z" fill="url(#c)" transform="translate(0 .919)"/></g></svg>