<svg xmlns="http://www.w3.org/2000/svg" viewBox="0 0 16 14"><g id="Capa_2" data-name="Capa 2"><g id="Capa_1-2" data-name="Capa 1"><path d="M11.3,1A3.74,3.74,0,0,1,15,4.77c0,4.55-5.31,7.42-7,8.2H8c-1.4-.65-7-3.55-7-8.19A3.75,3.75,0,0,1,4.7,1a3.63,3.63,0,0,1,2.13.69A2,2,0,0,0,8,2.09a1.89,1.89,0,0,0,1-.26l.12-.07A3.57,3.57,0,0,1,11.29,1h0m0-1h0A4.64,4.64,0,0,0,8.47,1,1,1,0,0,1,8,1.09a1,1,0,0,1-.58-.2h0A4.6,4.6,0,0,0,4.7,0h0A4.74,4.74,0,0,0,0,4.79c0,5.35,6.24,8.49,7.71,9.15A.78.78,0,0,0,8,14a.74.74,0,0,0,.32-.07l.12-.06h0C10.21,13.05,16,9.93,16,4.77A4.74,4.74,0,0,0,11.3,0Z"/></g></g></svg>