<svg width="18" height="16" viewBox="0 0 18 16" xmlns="http://www.w3.org/2000/svg"><g id="Styleguide" fill="none" fill-rule="evenodd"><g id="ICONS" transform="translate(-80 -484)" stroke="#B4C2C8"><path d="M89.47 485.958a.948.948 0 0 1-1.054-.076 4.65 4.65 0 0 0-2.72-.874c-2.597.003-4.699 2.134-4.696 4.757.006 5.32 6.243 8.448 7.706 9.109a.87.87 0 0 0 .31.056.715.715 0 0 0 .32-.066 6.64 6.64 0 0 0 .126-.058c1.746-.821 7.545-3.928 7.538-9.062-.004-2.624-2.11-4.747-4.707-4.744-1.06 0-2.038.357-2.824.958z" id="Heart"/></g></g></svg>