<svg xmlns="http://www.w3.org/2000/svg" width="20" height="20" viewBox="0 0 20 20">
    <path fill="#13C1AC" fill-rule="evenodd" d="M16.886 14.96l-.085.104-.028.029-.016.017-.015.017c-.41.475-.87.903-1.365 1.27l-.018.014-.018.014c-1.99 1.595-4.517 2.306-8.194 2.306-2.185 0-3.637-.103-5.822-.68.815-.992 1.246-1.993 1.356-3.16l.047.072.161.218c.1.137.19.255.271.346l.248.294a.606.606 0 1 0 .903-.809l-.024-.024-.23-.242a4.117 4.117 0 0 1-.253-.288 87.922 87.922 0 0 0-.152-.18l-.157-.21a6.179 6.179 0 0 1-.334-.487c-.119-.174-.216-.373-.332-.572-.096-.206-.213-.421-.294-.638-.043-.111-.092-.21-.133-.335l-.123-.371c-.037-.096-.065-.232-.098-.346a3.85 3.85 0 0 1-.086-.356l-.071-.355-.047-.327a8.509 8.509 0 0 1-.026-.65c0-4.643 3.777-8.42 8.419-8.42s8.418 3.777 8.418 8.42a8.43 8.43 0 0 1-1.902 5.329M10.37 0a9.63 9.63 0 0 1 7.453 15.727l.011.008c-.057.062-.117.122-.175.184a9.683 9.683 0 0 1-1.56 1.452c-2.488 1.993-5.515 2.572-8.952 2.572-2.217 0-3.84-.099-6.323-.772A1.068 1.068 0 0 1 0 18.132c0-.36.252-.69.252-.69.802-.919 1.246-1.854 1.246-3.17 0-.463-.064-.91-.176-1.338A9.63 9.63 0 0 1 10.37 0zm-.427 14.087a.606.606 0 0 0-.606.606v.404a.606.606 0 1 0 1.211 0v-.404a.606.606 0 0 0-.605-.606zm2.521-9.264c-.56-.54-1.3-.788-2.199-.738-.859.049-1.561.359-2.089.922-.502.537-.82 1.223-.946 2.04a.606.606 0 0 0 1.198.183c.088-.578.296-1.034.633-1.395.311-.333.728-.51 1.272-.54.556-.03.979.1 1.29.4.324.313.497.739.528 1.3.02.343-.02.639-.12.879a3.49 3.49 0 0 1-.447.78c-.2.261-.418.512-.65.745a9.46 9.46 0 0 0-.749.85 4.287 4.287 0 0 0-.579 1.001c-.014.025-.028.049-.039.076a3.385 3.385 0 0 0-.207 1.437.606.606 0 1 0 1.21-.067 2.22 2.22 0 0 1 .113-.889c.006-.013.013-.025.018-.038.111-.283.259-.544.44-.775.2-.257.42-.507.653-.74a8.84 8.84 0 0 0 .754-.867 4.7 4.7 0 0 0 .604-1.052c.168-.41.238-.883.209-1.408-.049-.868-.35-1.575-.897-2.104z"/>
</svg>
