<svg xmlns="http://www.w3.org/2000/svg" width="60" height="60" viewBox="0 0 60 60">
    <g fill="none" fill-rule="evenodd">
        <g fill-rule="nonzero">
            <path fill="#13C1AC" d="M19.874 41.608h18.739v.627c0 1.255-1 2.26-2.249 2.26H22.123a2.244 2.244 0 0 1-2.25-2.26v-.627z" opacity=".2"/>
            <path fill="#333" d="M36.426 46H22.31a3.928 3.928 0 0 1-3.935-3.953V17.953A3.928 3.928 0 0 1 22.31 14h14.179a3.928 3.928 0 0 1 3.935 3.953v24.031A3.994 3.994 0 0 1 36.426 46zM22.31 16.51c-.812 0-1.437.627-1.437 1.443v24.031c0 .816.625 1.443 1.437 1.443h14.179c.812 0 1.437-.627 1.437-1.443V17.953c0-.816-.625-1.443-1.437-1.443h-14.18z"/>
            <path fill="#C1F5E6" d="M22.997 20.275h12.492v16.314H22.997z"/>
            <path fill="#333" d="M34.428 37.53h-10.12a1.256 1.256 0 0 1 0-2.51h10.12a1.256 1.256 0 0 1 0 2.51zM34.428 21.718h-10.12a1.256 1.256 0 0 1 0-2.51h10.12a1.256 1.256 0 0 1 0 2.51zM29.68 41.169h-.999a1.256 1.256 0 0 1 0-2.51h1a1.256 1.256 0 0 1 0 2.51zM40.174 23.412c-.687 0-1.25-.565-1.25-1.255v-1.004c0-.69.563-1.255 1.25-1.255s1.25.565 1.25 1.255v1.004c0 .69-.563 1.255-1.25 1.255z"/>
            <g fill="#333">
                <path d="M40.174 28.306c-.687 0-1.25-.565-1.25-1.255v-1.004c0-.69.563-1.255 1.25-1.255s1.25.565 1.25 1.255v1.004c0 .69-.563 1.255-1.25 1.255z"/>
            </g>
        </g>
    </g>
</svg>
