<svg xmlns="http://www.w3.org/2000/svg" width="40" height="44" viewBox="0 0 40 44">
    <g fill="none" fill-rule="nonzero">
        <g class="green" fill="#13C1AC" opacity=".2">
            <path d="M16.826 30.55c-1.276 0-2.298 1.054-2.298 2.37v2.019h10.213V32.92c0-1.316-1.021-2.37-2.298-2.37h-5.617zM3.89 17.388H34.53v4.388H3.89z"/>
        </g>
        <g class="black" fill="#333">
            <path d="M39.04 15.37L32.996 4.838c-.511-.878-1.447-1.405-2.554-1.405H19.805c0-1.491-1.191-2.72-2.638-2.72h-2.468c-1.447 0-2.639 1.229-2.639 2.72H9.252c-1.021 0-2.043.527-2.553 1.405L.656 15.369c-.51.79-.51 1.843 0 2.633a2.908 2.908 0 0 0 2.298 1.492v18.34c0 3.247 2.553 5.88 5.702 5.88H31.21c3.15 0 5.702-2.633 5.702-5.88v-18.34c.937-.088 1.788-.615 2.298-1.492.34-.79.256-1.843-.17-2.633zM15.89 41.08v-7.459c0-.35.256-.614.681-.614h6.638c.34 0 .681.263.681.614v7.46h-8zm18.383-3.247c0 1.756-1.447 3.247-3.149 3.247h-4.766v-7.459a3.209 3.209 0 0 0-3.234-3.247h-6.638c-1.787 0-3.234 1.492-3.234 3.247v7.46H8.486c-1.702 0-3.149-1.492-3.149-3.248v-18.34h28.766v18.34h.17zm2.213-20.973H3.209c-.255 0-.34-.088-.34-.176L8.91 6.155c0-.088.17-.176.34-.176h2.81v1.404c0 .702.595 1.317 1.276 1.317.68 0 1.277-.615 1.277-1.317V3.434c0-.087.085-.087.085-.087h2.468c.085 0 .085.087.085.087v3.95c0 .701.596 1.316 1.276 1.316.681 0 1.277-.615 1.277-1.317V5.98h10.638c.17 0 .34.088.34.176l6.043 10.53c0 .088-.085.176-.34.176z"/>
            <path d="M11.975 27.567c.681 0 1.277-.614 1.277-1.316v-1.317c0-.702-.596-1.316-1.277-1.316-.68 0-1.276.614-1.276 1.316v1.317c0 .702.595 1.316 1.276 1.316zM17.252 27.567c.68 0 1.276-.614 1.276-1.316v-1.317c0-.702-.595-1.316-1.276-1.316s-1.277.614-1.277 1.316v1.317c0 .702.596 1.316 1.277 1.316zM22.443 27.567c.681 0 1.277-.614 1.277-1.316v-1.317c0-.702-.596-1.316-1.277-1.316-.68 0-1.276.614-1.276 1.316v1.317c0 .702.596 1.316 1.276 1.316zM27.72 27.567c.68 0 1.277-.614 1.277-1.316v-1.317c0-.702-.596-1.316-1.277-1.316-.68 0-1.277.527-1.277 1.316v1.317c0 .702.511 1.316 1.277 1.316z"/>
        </g>
    </g>
</svg>
