<svg xmlns="http://www.w3.org/2000/svg" width="60" height="60" viewBox="0 0 60 60">
    <g fill="none" fill-rule="evenodd">
        <g fill-rule="nonzero">
            <path fill="#13C1AC" d="M15.561 31.496h28.878v.91c0 1.301-1.1 2.342-2.475 2.342H18.036c-1.375 0-2.475-1.04-2.475-2.341v-.911zM15.561 41.63h28.878c0 1.248-1.1 2.247-2.475 2.247H18.036c-1.375 0-2.475-.999-2.475-2.248z" opacity=".5"/>
            <path fill="#333" d="M42.522 35.992H17.478a3.113 3.113 0 0 1-3.13-3.122v-8.533c0-2.428 2.017-4.44 4.452-4.44h22.4c2.435 0 4.452 2.012 4.452 4.44v8.533a3.113 3.113 0 0 1-3.13 3.122zM18.8 21.978a2.343 2.343 0 0 0-2.365 2.36v8.532c0 .555.487 1.041 1.043 1.041h25.044c.556 0 1.043-.486 1.043-1.04v-8.534a2.343 2.343 0 0 0-2.365-2.359H18.8z"/>
            <path fill="#333" d="M41.826 45.22H18.174c-2.087 0-3.826-1.735-3.826-3.816v-5.065c0-1.318 1.113-2.428 2.435-2.428h26.434c1.322 0 2.435 1.11 2.435 2.428v5.065c0 2.081-1.739 3.816-3.826 3.816zm-25.043-9.228c-.21 0-.348.14-.348.347v5.065a1.72 1.72 0 0 0 1.739 1.734h23.652a1.72 1.72 0 0 0 1.74-1.734v-5.065c0-.208-.14-.347-.349-.347H16.783zM35.843 21.978a1.068 1.068 0 0 1-1.043-1.04V18.37c0-1.249-.835-2.29-1.878-2.29h-5.844c-1.043 0-1.878 1.041-1.878 2.29v2.567c0 .555-.487 1.04-1.043 1.04a1.068 1.068 0 0 1-1.044-1.04V18.37c0-2.428 1.809-4.371 3.965-4.371h5.844c2.226 0 3.965 1.943 3.965 4.37v2.568c0 .555-.487 1.04-1.044 1.04z"/>
            <path fill="#333" d="M22.209 37.519a1.068 1.068 0 0 1-1.044-1.041v-5.897c0-.555.487-1.04 1.044-1.04.556 0 1.043.485 1.043 1.04v5.897c0 .555-.487 1.04-1.043 1.04zM37.791 37.519a1.068 1.068 0 0 1-1.043-1.041v-5.897c0-.555.487-1.04 1.043-1.04.557 0 1.044.485 1.044 1.04v5.897c0 .555-.487 1.04-1.044 1.04zM22.209 41.89a1.068 1.068 0 0 1-1.044-1.041v-1.11c0-.555.487-1.04 1.044-1.04.556 0 1.043.485 1.043 1.04v1.11c0 .624-.487 1.04-1.043 1.04zM37.791 41.89a1.068 1.068 0 0 1-1.043-1.041v-1.11c0-.555.487-1.04 1.043-1.04.557 0 1.044.485 1.044 1.04v1.11c0 .624-.487 1.04-1.044 1.04z"/>
        </g>
    </g>
</svg>
