<svg xmlns="http://www.w3.org/2000/svg" width="265" height="56" viewBox="0 0 265 56"><g fill="none" transform="translate(.44 .232)"><path class="black" fill="#000" d="M218.4 3.248a10.444 10.444 0 0 0-14.784 0 10.444 10.444 0 0 0 0 14.784c1.96 1.988 4.592 3.052 7.392 3.052 2.8 0 5.404-1.092 7.392-3.052 4.088-4.06 4.088-10.696 0-14.784zm-.644.644a9.513 9.513 0 0 1 2.8 6.748v.392a7.131 7.131 0 0 0-7.14 1.344l-1.736-1.736 4.872-4.872c.168-.168.168-.448 0-.644-.168-.168-.448-.168-.644 0l-4.872 4.872L209.3 8.26a7.118 7.118 0 0 0 1.344-7.168h.364a9.513 9.513 0 0 1 6.748 2.8zm-5.432 16.128a6.25 6.25 0 0 1 1.092-6.356l3.92 3.92c.028.028.084.084.14.084a9.626 9.626 0 0 1-5.124 2.436c0-.028 0-.056-.028-.084zm-7.56-16.296a.451.451 0 0 0-.196-.112c1.456-1.344 3.248-2.156 5.18-2.436 0 .028 0 .056.028.112a6.25 6.25 0 0 1-1.092 6.356l-3.92-3.92zm-.756.448c.028.056.056.14.112.196l3.92 3.92c-1.736 1.512-4.172 1.932-6.356 1.092-.028-.028-.084-.028-.14-.028a9.63 9.63 0 0 1 2.464-5.18zm.252 13.244a9.513 9.513 0 0 1-2.8-6.748v-.392a6.993 6.993 0 0 0 2.492.448 7.052 7.052 0 0 0 4.704-1.792l1.736 1.736-4.872 4.872c-.168.168-.168.448 0 .644a.45.45 0 0 0 .308.14.45.45 0 0 0 .308-.14l4.872-4.872 1.736 1.736a7.118 7.118 0 0 0-1.344 7.168h-.42a9.666 9.666 0 0 1-6.72-2.8zm13.804-.336a.612.612 0 0 0-.084-.14l-3.92-3.92c1.736-1.512 4.172-1.932 6.356-1.092.028 0 .056.028.084.028a9.626 9.626 0 0 1-2.436 5.124z"/><g class="black" fill="#000"><path d="M220.136 44.24c.504-.308.812-.868.812-1.512 0-4.676-3.808-8.456-8.456-8.456-.98 0-1.792.812-1.792 1.792v7.56h-4.396c-.168 0-.308-.112-.392-.252a3.11 3.11 0 0 0-3.528-1.652 3.051 3.051 0 0 0-2.296 2.296c-.336 1.512.392 2.996 1.82 3.612.112.056.224.14.224.252.448 2.072 2.184 3.64 4.256 3.948a1.769 1.769 0 0 0-1.036 1.624c0 .98.812 1.792 1.792 1.792s1.792-.812 1.792-1.792c0-.672-.364-1.232-.896-1.54h6.916a1.8 1.8 0 0 0-.896 1.54c0 .98.812 1.792 1.792 1.792s1.792-.812 1.792-1.792c0-.7-.42-1.316-1.036-1.624a5.128 5.128 0 0 0 4.368-5.068v-.7a2.54 2.54 0 0 0-.84-1.82zm-.812-4.76c-.028 0-.028 0 0 0l-6.86 3.444 4.256-6.468c1.092.728 1.988 1.792 2.604 3.024zm-7.728-3.444c0-.476.392-.896.896-.896 1.232 0 2.408.308 3.416.812l-4.312 6.608v-6.524zm-3.584 17.388a.902.902 0 0 1-.896.896.902.902 0 0 1-.896-.896c0-.504.392-.896.896-.896s.896.392.896.896zm8.708 0a.902.902 0 0 1-.896.896.902.902 0 0 1-.896-.896c0-.504.392-.896.896-.896.476 0 .896.392.896.896zm3.332-6.664a4.242 4.242 0 0 1-4.228 4.228h-8.708c-1.96 0-3.696-1.4-4.116-3.304a1.277 1.277 0 0 0-.756-.896c-1.008-.42-1.54-1.484-1.288-2.576a2.182 2.182 0 0 1 1.624-1.624 3.43 3.43 0 0 1 .532-.056c.84 0 1.596.448 1.988 1.232.224.476.7.756 1.204.756h12.208c.84 0 1.54.7 1.54 1.54v.7zm-.896-3.136h-6.104l6.608-3.304c.252.756.392 1.568.392 2.436 0 .448-.392.868-.896.868z"/><path d="M203.392 44.352c-.028-.028-.056-.028-.084-.028-.028 0-.056-.028-.084-.028a.472.472 0 0 0-.392.112.45.45 0 0 0-.14.308c0 .056 0 .112.028.168.028.056.056.112.112.14.028.028.084.084.14.084a.355.355 0 0 0 .168.028.45.45 0 0 0 .308-.14c.056-.056.084-.084.112-.14.028-.056.028-.112.028-.168a.45.45 0 0 0-.14-.308c-.028.028-.028 0-.056-.028z"/></g><path class="black" fill="#000" d="M263.788 13.048c-.028-1.456-.868-2.548-2.464-3.192l-12.012-4.844a2.503 2.503 0 0 0-2.1.084l-1.596.784c-2.268 1.12-4.956 1.092-7.168-.14a1.32 1.32 0 0 0-.42-.168l-.504-.14a2.247 2.247 0 0 0-2.52.952 2.204 2.204 0 0 0-.336 1.176v7.588c0 .728.588 1.344 1.344 1.344h25.62c1.204 0 2.156-.98 2.156-2.156v-1.288zm-2.8-2.352c1.26.504 1.876 1.288 1.904 2.352h-9.408l1.736-4.676 5.768 2.324zm-6.636-2.66l-1.876 5.04H250.6l2.1-5.684 1.652.644zm-2.464-1.008l-2.24 6.02h-1.904l2.492-6.692 1.652.672zm-16.296.532a1.303 1.303 0 0 1 1.68-1.26l.504.14a.995.995 0 0 1 .252.112 8.617 8.617 0 0 0 8.008.168l1.596-.784c.42-.224.924-.224 1.372-.056l.42.168-2.604 7.028h-11.2V7.56h-.028zm27.3 6.748c0 .7-.56 1.26-1.26 1.26h-25.62a.412.412 0 0 1-.42-.42v-1.176h27.3v.336z"/><path d="M103.684.728l-2.744.196c-.224.028-.448.14-.56.336a.718.718 0 0 0-.672-.42h-2.744a.753.753 0 0 0-.756.756v18.116c0 .42.336.756.756.756h2.744c.42 0 .756-.336.756-.756V4.564l1.12 15.232c.028.196.112.392.252.504a.76.76 0 0 0 .476.168h.056l2.744-.196a.755.755 0 0 0 .7-.812L104.468 1.4c-.028-.392-.392-.672-.784-.672zM99.54 19.572h-2.436V1.764h2.436v17.808zm2.94 0L101.164 1.82l2.436-.168 1.316 17.752-2.436.168zm13.972-.868l-2.996-8.932a.776.776 0 0 0-.952-.476l-2.548.868-.812-6.16c-.028-.196-.14-.364-.28-.504a.805.805 0 0 0-.56-.14l-2.716.364c-.196.028-.364.14-.504.28a.805.805 0 0 0-.14.56l2.016 15.316a.75.75 0 0 0 .728.644h.084l2.716-.364c.42-.056.7-.42.644-.84l-.644-5.012 1.932 5.74a.749.749 0 0 0 .7.504c.084 0 .168 0 .224-.028l2.604-.868a.681.681 0 0 0 .42-.364c.084-.168.168-.392.084-.588zm-8.624.896l-1.96-14.98 2.408-.308 1.96 14.98-2.408.308zm5.404.028l-2.884-8.624 2.324-.784 2.884 8.624-2.324.784z" class="black" fill="#000"/><g class="black" fill="#000"><path d="M105.168 35.504c-6.356 0-10.472 3.472-10.472 8.82 0 3.556 1.68 7.224 4.172 9.156.42.336.868.448 1.344.448.784 0 1.624-.392 2.408-.784.84-.392 1.68-.812 2.52-.812.84 0 1.708.42 2.52.812 1.26.616 2.548 1.232 3.752.308 2.492-1.904 4.172-5.6 4.172-9.156.056-5.32-4.032-8.792-10.416-8.792zm5.74 17.276c-.728.56-1.54.196-2.828-.42a13.115 13.115 0 0 0-1.26-.56c-.028-.056-.084-.084-.14-.112l-2.66-1.344a.46.46 0 0 0-.616.196.46.46 0 0 0 .196.616l.756.364c-.756.168-1.484.504-2.128.812-1.288.616-2.1.98-2.828.42-2.296-1.764-3.836-5.152-3.836-8.428 0-5.852 4.956-7.924 9.576-7.924s9.576 2.072 9.576 7.924c.028 3.304-1.512 6.692-3.808 8.456z"/><path d="M101.836 43.624h-.896v-.896a.442.442 0 0 0-.448-.448.442.442 0 0 0-.448.448v.896h-.896a.442.442 0 0 0-.448.448c0 .252.196.448.448.448h.896v.896c0 .252.196.448.448.448a.442.442 0 0 0 .448-.448v-.896h.896a.442.442 0 0 0 .448-.448.442.442 0 0 0-.448-.448zm7.756 2.296c0-.028-.028-.056-.028-.084-.028-.028-.028-.056-.056-.056l-.056-.056c-.028-.028-.056-.028-.084-.028-.028 0-.056-.028-.084-.028h-.168c-.028 0-.056.028-.084.028-.028 0-.056.028-.084.028-.028.028-.056.028-.056.056l-.056.056c-.028.028-.028.056-.028.084 0 .028-.028.056-.028.084v.084c0 .056 0 .112.028.168.028.056.056.112.112.14a.45.45 0 0 0 .308.14.45.45 0 0 0 .308-.14.45.45 0 0 0 .14-.308v-.084c-.056-.028-.056-.056-.084-.084zm-1.988-2.016c0-.028-.028-.056-.028-.084-.028-.028-.028-.056-.056-.056l-.056-.056c-.028-.028-.056-.028-.084-.028-.028 0-.056-.028-.084-.028h-.168c-.028 0-.056.028-.084.028-.028 0-.056.028-.084.028-.028.028-.056.028-.056.056-.028.028-.028.056-.056.056-.028.028-.028.056-.028.084 0 .028-.028.056-.028.084v.084a.45.45 0 0 0 .14.308c.056.056.084.084.14.112a.355.355 0 0 0 .168.028.45.45 0 0 0 .308-.14.45.45 0 0 0 .14-.308v-.084c-.056-.028-.084-.056-.084-.084zm4.004 0c0-.028-.028-.056-.028-.084-.028-.028-.028-.056-.056-.056l-.056-.056c-.028-.028-.056-.028-.084-.028-.028 0-.056-.028-.084-.028h-.168c-.028 0-.056.028-.084.028-.028 0-.056.028-.084.028-.028.028-.056.028-.056.056l-.056.056c-.028.028-.028.056-.028.084 0 .028-.028.056-.028.084v.084a.45.45 0 0 0 .14.308c.028.028.084.084.14.084a.355.355 0 0 0 .168.028.45.45 0 0 0 .308-.14.45.45 0 0 0 .14-.308v-.084c-.056 0-.084-.028-.084-.056zm-2.016-1.988c0-.028-.028-.056-.028-.084-.028-.028-.028-.056-.056-.056-.028-.028-.056-.028-.056-.056-.028-.028-.056-.028-.084-.028-.028 0-.056-.028-.084-.028a.472.472 0 0 0-.392.112c-.028.028-.028.056-.056.056-.028.028-.028.056-.028.084 0 .028-.028.056-.028.084v.084c0 .056 0 .112.028.168.028.056.056.112.112.14a.45.45 0 0 0 .308.14.45.45 0 0 0 .308-.14.45.45 0 0 0 .14-.308V42c-.056-.028-.056-.056-.084-.084z"/></g><g class="black" fill="#000"><path d="M185.164 34.272h-14.812c-.588 0-1.064.476-1.064 1.064V53.48c0 .588.476 1.064 1.064 1.064h1.008a.527.527 0 0 0-.056.224c0 .252.196.448.448.448h1.344a.442.442 0 0 0 .448-.448c0-.084-.028-.14-.056-.224h8.568a.527.527 0 0 0-.056.224c0 .252.196.448.448.448h1.344a.442.442 0 0 0 .448-.448c0-.084-.028-.14-.056-.224h1.008c.588 0 1.064-.476 1.064-1.064V35.336a1.107 1.107 0 0 0-1.092-1.064zm.168 19.208a.18.18 0 0 1-.168.168h-14.812a.18.18 0 0 1-.168-.168V35.336a.18.18 0 0 1 .168-.168h14.812a.18.18 0 0 1 .168.168V53.48z"/><path d="M183.54 37.212c0-.028-.028-.056-.028-.084-.028-.028-.028-.056-.056-.056-.028-.028-.056-.028-.056-.056-.028-.028-.056-.028-.084-.028-.028 0-.056-.028-.084-.028h-.168c-.028 0-.056.028-.084.028-.028 0-.056.028-.084.028-.028.028-.056.028-.056.056-.028.028-.028.056-.056.056-.028.028-.028.056-.028.084 0 .028-.028.056-.028.084v.084c0 .056 0 .112.028.168.028.056.056.112.112.14a.45.45 0 0 0 .308.14c.056 0 .112 0 .168-.028.056-.028.112-.056.14-.112.028-.056.084-.084.084-.14.028-.056.028-.112.028-.168v-.084c-.056-.028-.056-.056-.056-.084zm-2.604.588c.056.028.112.028.168.028a.45.45 0 0 0 .308-.14.45.45 0 0 0 .14-.308.45.45 0 0 0-.14-.308.474.474 0 0 0-.644 0c-.028.028-.028.056-.056.056-.028.028-.028.056-.028.084 0 .028-.028.056-.028.084v.084a.45.45 0 0 0 .14.308c.028.056.084.084.14.112zm-1.82.028a.45.45 0 0 0 .308-.14.45.45 0 0 0 .14-.308v-.084c0-.028-.028-.056-.028-.084 0-.028-.028-.056-.028-.084-.028-.028-.028-.056-.056-.056a.474.474 0 0 0-.644 0c-.028.028-.028.056-.056.056-.028.028-.028.056-.028.084 0 .028-.028.056-.028.084v.084a.45.45 0 0 0 .14.308c.028.112.14.14.28.14zm-6.692 0h3.332a.442.442 0 0 0 .448-.448.442.442 0 0 0-.448-.448h-3.332a.442.442 0 0 0-.448.448c0 .252.196.448.448.448zm5.348 2.436a5.808 5.808 0 0 0-5.796 5.796 5.808 5.808 0 0 0 5.796 5.796 5.808 5.808 0 0 0 5.796-5.796 5.808 5.808 0 0 0-5.796-5.796zm0 10.696a4.905 4.905 0 0 1-4.9-4.9c0-2.688 2.184-4.9 4.9-4.9 2.688 0 4.9 2.184 4.9 4.9s-2.212 4.9-4.9 4.9z"/><path d="M177.772 42.952a3.149 3.149 0 0 0-3.136 3.136c0 .252.196.448.448.448a.442.442 0 0 0 .448-.448 2.217 2.217 0 0 1 2.212-2.212.442.442 0 0 0 .448-.448c0-.252-.168-.476-.42-.476z"/></g><g class="black" fill="#000"><path d="M255.108 34.272H239.68a.753.753 0 0 0-.756.756v18.788c0 .42.336.756.756.756h1.26v.224c0 .252.196.448.448.448a.442.442 0 0 0 .448-.448v-.224h11.116v.224c0 .252.196.448.448.448a.442.442 0 0 0 .448-.448v-.224h1.26c.42 0 .756-.336.756-.756V35c0-.392-.336-.728-.756-.728zm-15.26 19.376v-18.48H245a.527.527 0 0 0-.056.224v18.032c0 .084.028.14.056.224h-5.152zm15.12 0h-9.184a.527.527 0 0 0 .056-.224V35.392c0-.084-.028-.14-.056-.224h9.184v18.48z"/><path d="M242.732 42.28a.442.442 0 0 0-.448.448v3.332c0 .252.196.448.448.448a.442.442 0 0 0 .448-.448v-3.332a.442.442 0 0 0-.448-.448zm5.348 4.228a.442.442 0 0 0 .448-.448v-3.332a.442.442 0 0 0-.448-.448.442.442 0 0 0-.448.448v3.332c0 .252.196.448.448.448z"/></g><path class="black" fill="#000" d="M187.572 3.5l-5.32-2.66a1.159 1.159 0 0 0-1.008-.028c-.336.14-.588.448-.7.784-.364 1.204-1.512 2.044-2.772 2.044-1.26 0-2.408-.84-2.772-2.044a1.223 1.223 0 0 0-.7-.784c-.336-.14-.7-.14-1.008.028l-5.32 2.66c-.42.196-.672.616-.672 1.092v5.264c0 .364.168.7.448.952.28.224.644.336 1.008.252l1.512-.308c.14-.028.224.028.252.056.056.028.112.112.112.252v8.316c0 .672.532 1.204 1.204 1.204h11.844c.672 0 1.204-.532 1.204-1.204V11.06c0-.14.084-.196.112-.252.056-.028.14-.084.252-.056l1.512.308c.364.084.728-.028 1.008-.252s.448-.588.448-.952V4.592a1.113 1.113 0 0 0-.644-1.092zm-3.892 16.184h-11.844a.31.31 0 0 1-.308-.308v-2.128h12.46v2.128a.31.31 0 0 1-.308.308zm3.668-9.828c0 .14-.084.196-.112.252-.056.028-.14.084-.252.056l-1.512-.308a1.265 1.265 0 0 0-.56.028V8.12a.442.442 0 0 0-.448-.448.442.442 0 0 0-.448.448v8.232h-12.46V8.12a.442.442 0 0 0-.448-.448.442.442 0 0 0-.448.448v1.764c-.112-.028-.196-.056-.308-.056-.084 0-.168 0-.252.028l-1.512.308c-.14.028-.224-.028-.252-.056-.056-.028-.112-.112-.112-.252V4.592c0-.112.056-.224.168-.28l5.32-2.66a.262.262 0 0 1 .252 0 .32.32 0 0 1 .196.224c.476 1.596 1.96 2.688 3.64 2.688 1.652 0 3.164-1.12 3.64-2.688a.32.32 0 0 1 .196-.224.262.262 0 0 1 .252 0l5.32 2.66a.308.308 0 0 1 .168.28v5.264h-.028z"/><g class="black" fill="#000"><path d="M152.124 35.028h-22.652a2.127 2.127 0 0 0-2.128 2.128v13.3c0 1.176.952 2.128 2.128 2.128h.7v.812c0 .588.476 1.036 1.036 1.036h1.148c.588 0 1.036-.476 1.036-1.036v-.812h13.72v.812c0 .588.476 1.036 1.036 1.036h1.148c.588 0 1.036-.476 1.036-1.036v-.812h1.792a2.127 2.127 0 0 0 2.128-2.128v-13.3a2.127 2.127 0 0 0-2.128-2.128zm-19.628 18.368c0 .084-.056.14-.14.14h-1.148c-.084 0-.14-.056-.14-.14v-.812h1.428v.812zm16.94 0c0 .084-.056.14-.14.14h-1.148c-.084 0-.14-.056-.14-.14v-.812h1.428v.812zm3.92-2.94c0 .672-.56 1.232-1.232 1.232h-22.652c-.672 0-1.232-.56-1.232-1.232v-13.3c0-.672.56-1.232 1.232-1.232h22.652c.672 0 1.232.56 1.232 1.232v13.3z"/><path d="M144.088 37.856h-12.32c-.896 0-1.624.728-1.624 1.624v8.68c0 .896.728 1.624 1.624 1.624h12.32c.896 0 1.624-.728 1.624-1.624v-8.68c0-.896-.728-1.624-1.624-1.624zm.728 10.304a.741.741 0 0 1-.728.728h-12.32a.741.741 0 0 1-.728-.728v-8.68c0-.392.336-.728.728-.728h12.32c.392 0 .728.336.728.728v8.68zm4.648-10.304c-.98 0-1.764.784-1.764 1.764s.784 1.764 1.764 1.764 1.764-.784 1.764-1.764-.784-1.764-1.764-1.764zm0 2.66a.872.872 0 0 1-.868-.868c0-.476.392-.868.868-.868s.868.392.868.868a.872.872 0 0 1-.868.868zm0 1.988c-.98 0-1.764.784-1.764 1.764s.784 1.764 1.764 1.764 1.764-.784 1.764-1.764-.784-1.764-1.764-1.764zm0 2.632a.872.872 0 0 1-.868-.868c0-.476.392-.868.868-.868s.868.392.868.868a.872.872 0 0 1-.868.868zm1.008 3.304h-2.044a.442.442 0 0 0-.448.448c0 .252.196.448.448.448h2.044a.442.442 0 0 0 .448-.448.442.442 0 0 0-.448-.448z"/></g><g class="black" fill="#000"><path d="M55.832 18.312c-.168-.42-.588-.7-1.036-.7H31.752l-1.68-4.536c.336.028.7.028 1.036.056h.056c.756 0 1.4-.476 1.596-1.204a1.604 1.604 0 0 0-.784-1.848L25.48 6.44a1.575 1.575 0 0 0-1.708.084c-.504.336-.784.952-.728 1.568l.308 2.548a2.085 2.085 0 0 0 1.624 1.792c1.036.224 2.492.476 4.116.616l1.708 4.62a1.624 1.624 0 0 0-1.26.476l-7.448 7.98c-2.324-1.792-5.208-2.884-8.372-2.884C6.216 23.24.084 29.344.084 36.876c0 7.532 6.104 13.636 13.636 13.636 7.14 0 13.02-5.544 13.58-12.544l9.632-.252c.196 0 .392-.028.588-.112a.401.401 0 0 0 .28.112c.112 0 .224-.056.336-.14L55.58 19.6c.336-.392.448-.868.252-1.288zm-30.66-6.804a1.159 1.159 0 0 1-.924-1.008l-.308-2.548a.724.724 0 0 1 .336-.7.677.677 0 0 1 .756-.028l6.496 3.612c.364.196.42.56.364.84-.084.28-.308.56-.728.56-2.38-.084-4.592-.448-5.992-.728zM13.72 49.532c-7.028 0-12.712-5.712-12.712-12.712S6.72 24.08 13.72 24.08c2.912 0 5.6.98 7.756 2.632l-1.96 2.1a9.882 9.882 0 0 0-5.796-1.876 9.882 9.882 0 0 0-9.884 9.884 9.882 9.882 0 0 0 9.884 9.884c5.04 0 9.212-3.808 9.8-8.708l2.856-.084c-.532 6.496-5.992 11.62-12.656 11.62zm-.7-12.292a1.59 1.59 0 0 0 1.428.98l8.176-.196a8.978 8.978 0 0 1-8.904 7.784c-4.956 0-8.988-4.032-8.988-8.988 0-4.956 4.032-8.988 8.988-8.988 1.932 0 3.696.616 5.18 1.652l-5.572 5.964a1.626 1.626 0 0 0-.308 1.792zm1.428.084c-.252 0-.476-.168-.588-.42-.084-.224-.112-.56.14-.84l5.628-6.02c1.904 1.652 3.108 4.06 3.108 6.776v.28l-8.288.224zm12.012-.308l-2.856.084v-.28a9.787 9.787 0 0 0-3.388-7.42l1.932-2.072a12.677 12.677 0 0 1 4.284 9.52c.028.028.028.112.028.168zm11.032-.56a.654.654 0 0 1-.56.28l-9.576.252v-.168c0-4.032-1.764-7.672-4.564-10.164l7.42-7.924c.168-.168.364-.252.588-.196.224.056.42.196.504.448l1.148 3.08.028.112 5.096 13.552c.112.252.084.532-.084.728zM54.964 18.9L38.528 35.812c-.028-.14-.056-.28-.084-.392l-5.096-13.552-1.232-3.332h22.708c.14 0 .196.084.196.14 0 .028.028.112-.056.224z"/><path d="M63.084 23.408c-1.484 0-2.912.252-4.256.7l-5.04-14.952c-.644-1.876-2.38-3.164-4.368-3.192l-1.764-.028a.442.442 0 0 0-.448.448c0 .252.196.448.448.448l1.764.028a3.798 3.798 0 0 1 3.528 2.576l5.068 14.952c-4.984 2.016-8.512 6.916-8.512 12.628 0 7.504 6.104 13.636 13.636 13.636 7.532 0 13.636-6.104 13.636-13.636 0-7.532-6.188-13.608-13.692-13.608zm0 26.348c-7.028 0-12.712-5.712-12.712-12.712 0-5.32 3.276-9.884 7.896-11.788l.924 2.716a9.882 9.882 0 0 0 3.92 18.956 9.882 9.882 0 0 0 9.884-9.884c0-5.46-4.48-9.884-9.912-9.884-1.064 0-2.1.168-3.052.476l-.924-2.688c1.26-.42 2.576-.644 3.976-.644 7.028 0 12.712 5.712 12.712 12.712s-5.684 12.74-12.712 12.74zm.112-12.712l-2.884-8.568a8.983 8.983 0 0 1 2.772-.448c4.956 0 8.988 4.032 8.988 8.988 0 4.956-4.032 8.988-8.988 8.988-4.956 0-8.988-4.032-8.988-8.988a8.963 8.963 0 0 1 5.348-8.204l2.884 8.512a.445.445 0 0 0 .42.308c.056 0 .084 0 .14-.028a.423.423 0 0 0 .308-.56zM44.52 7.224c.056 0 .112 0 .168-.028.056-.028.112-.056.14-.112.056-.028.084-.084.112-.14.028-.056.028-.112.028-.168a.45.45 0 0 0-.14-.308l-.056-.056c-.028-.028-.056-.028-.084-.056-.028 0-.056-.028-.084-.028h-.168c-.028 0-.056.028-.084.028-.028 0-.056.028-.084.056-.028.028-.056.028-.056.056-.028.028-.028.056-.056.056-.028.028-.028.056-.028.084 0 .028-.028.056-.028.084v.084a.45.45 0 0 0 .14.308c.056.084.168.14.28.14z"/></g><g class="black" fill="#000"><path d="M144.564 3.08h-8.008a.442.442 0 0 0-.448.448c0 .252.196.448.448.448h8.008a.442.442 0 0 0 .448-.448.442.442 0 0 0-.448-.448zm0 13.188h-8.008a.442.442 0 0 0-.448.448c0 .252.196.448.448.448h8.008a.442.442 0 0 0 .448-.448.442.442 0 0 0-.448-.448z"/><path d="M147.952 8.288c-.112 0-.196.028-.252.084V5.964c.056.028.14.056.224.056a.442.442 0 0 0 .448-.448V4.9a.442.442 0 0 0-.448-.448c-.084 0-.14.028-.224.056V1.54c0-.756-.616-1.344-1.344-1.344h-11.564c-.756 0-1.344.616-1.344 1.344v18.228c0 .756.616 1.344 1.344 1.344h11.564c.756 0 1.344-.616 1.344-1.344V9.772a.442.442 0 0 0 .7-.364v-.672a.46.46 0 0 0-.448-.448zm-1.176 11.48a.442.442 0 0 1-.448.448h-11.564a.442.442 0 0 1-.448-.448V1.54c0-.252.196-.448.448-.448h11.564c.252 0 .448.196.448.448v18.228z"/></g><ellipse class="green" cx="149.52" cy="44.212" fill="#13C1AC" opacity=".2" rx="1" ry="1"/><ellipse class="green" cx="149.52" cy="39.564" fill="#13C1AC" opacity=".2" rx="1" ry="1.036"/><path class="green" fill="#13C1AC" d="M134.876 39.424l-3.192 2.128v1.456l5.376-3.584zm8.82.924l-11.34 7.588h2.156l9.184-6.132zm-2.184-.924h-2.856l-6.972 4.676v2.324l10.024-6.692zM136.22 3.36h8.708v13.216h-8.708zm41.552 47.6a4.905 4.905 0 0 1-4.9-4.9c0-2.688 2.184-4.9 4.9-4.9 2.688 0 4.9 2.184 4.9 4.9s-2.212 4.9-4.9 4.9zm85.12-36.652c0 .7-.56 1.26-1.26 1.26h-25.62a.412.412 0 0 1-.42-.42v-1.176h27.3v.336zm-79.212 5.376h-11.844a.31.31 0 0 1-.308-.308v-2.128h12.46v2.128a.31.31 0 0 1-.308.308zm35.644 19.796c-.028 0-.028 0 0 0l-6.86 3.444 4.256-6.468c1.092.728 1.988 1.792 2.604 3.024z" opacity=".2"/><circle class="green" cx="207.144" cy="53.424" r="1" fill="#13C1AC" opacity=".2"/><circle class="green" cx="215.824" cy="53.424" r="1" fill="#13C1AC" opacity=".2"/><path class="green" fill="#13C1AC" d="M25.172 11.508a1.159 1.159 0 0 1-.924-1.008l-.308-2.548a.724.724 0 0 1 .336-.7.677.677 0 0 1 .756-.028l6.496 3.612c.364.196.42.56.364.84-.084.28-.308.56-.728.56-2.38-.084-4.592-.448-5.992-.728zM13.72 49.532c-7.028 0-12.712-5.712-12.712-12.712S6.72 24.08 13.72 24.08c2.912 0 5.6.98 7.756 2.632l-1.96 2.1a9.882 9.882 0 0 0-5.796-1.876 9.882 9.882 0 0 0-9.884 9.884 9.882 9.882 0 0 0 9.884 9.884c5.04 0 9.212-3.808 9.8-8.708l2.856-.084c-.532 6.496-5.992 11.62-12.656 11.62z" opacity=".2"/><path class="green" fill="#13C1AC" d="M26.46 37.016l-2.856.084v-.28a9.787 9.787 0 0 0-3.388-7.42l1.932-2.072a12.677 12.677 0 0 1 4.284 9.52c.028.028.028.112.028.168zm36.624 12.74c-7.028 0-12.712-5.712-12.712-12.712 0-5.32 3.276-9.884 7.896-11.788l.924 2.716a9.882 9.882 0 0 0 3.92 18.956 9.882 9.882 0 0 0 9.884-9.884c0-5.46-4.48-9.884-9.912-9.884-1.064 0-2.1.168-3.052.476l-.924-2.688c1.26-.42 2.576-.644 3.976-.644 7.028 0 12.712 5.712 12.712 12.712s-5.684 12.74-12.712 12.74zm38.062-47.934l2.43-.18 1.32 17.757-2.43.18zm9.194 9.163l2.309-.774 2.892 8.628-2.31.774zm144.012-2.949l-1.848 5.012H250.6l2.128-5.684zm-2.464-1.008l-2.24 6.02h-1.904l2.492-6.692zM212.324 20.02a6.25 6.25 0 0 1 1.092-6.356l3.92 3.92c.028.028.084.084.14.084a9.626 9.626 0 0 1-5.124 2.436c0-.028 0-.056-.028-.084zm-7.56-16.296a.451.451 0 0 0-.196-.112c1.456-1.344 3.248-2.156 5.18-2.436 0 .028 0 .056.028.112a6.25 6.25 0 0 1-1.092 6.356l-3.92-3.92zm-.756.448c.028.056.056.14.112.196l3.92 3.92c-1.736 1.512-4.172 1.932-6.356 1.092-.028-.028-.084-.028-.14-.028a9.63 9.63 0 0 1 2.464-5.18zm14.056 12.908a.612.612 0 0 0-.084-.14l-3.92-3.92c1.736-1.512 4.172-1.932 6.356-1.092.028 0 .056.028.084.028a9.626 9.626 0 0 1-2.436 5.124zm21.784 36.568v-18.48H245a.527.527 0 0 0-.056.224v18.032c0 .084.028.14.056.224h-5.152z" opacity=".2"/></g></svg>
