<svg width="218" height="90" viewBox="0 0 218 90" xmlns="http://www.w3.org/2000/svg"><g id="Upload" fill="none" fill-rule="evenodd"><g id="Artboard" transform="translate(-24 -24)" fill-rule="nonzero"><g id="Group-2" transform="translate(38 41)"><g id="ilustration" transform="translate(.38 .518)"><g id="Group" class="black" transform="translate(96.04 .56)" fill="#000"><path d="M7.644.168L4.9.364c-.224.028-.448.14-.56.336a.718.718 0 0 0-.672-.42H.924a.753.753 0 0 0-.756.756v18.116c0 .42.336.756.756.756h2.744c.42 0 .756-.336.756-.756V4.004l1.12 15.232c.028.196.112.392.252.504a.76.76 0 0 0 .476.168h.056l2.744-.196a.755.755 0 0 0 .7-.812L8.428.84C8.4.448 8.036.168 7.644.168zM3.5 19.012H1.064V1.204H3.5v17.808zm2.94 0L5.124 1.26l2.436-.168 1.316 17.752-2.436.168zM20.412 18.144l-2.996-8.932a.776.776 0 0 0-.952-.476l-2.548.868-.812-6.16c-.028-.196-.14-.364-.28-.504a.805.805 0 0 0-.56-.14l-2.716.364c-.196.028-.364.14-.504.28a.805.805 0 0 0-.14.56L10.92 19.32a.75.75 0 0 0 .728.644h.084l2.716-.364c.42-.056.7-.42.644-.84l-.644-5.012 1.932 5.74a.749.749 0 0 0 .7.504c.084 0 .168 0 .224-.028l2.604-.868a.681.681 0 0 0 .42-.364c.084-.168.168-.392.084-.588zm-8.624.896L9.828 4.06l2.408-.308 1.96 14.98-2.408.308zm5.404.028l-2.884-8.624 2.324-.784 2.884 8.624-2.324.784z" id="Shape"/></g><g id="Group" class="black" transform="translate(94.64 35.28)" fill="#000"><path d="M10.528.224C4.172.224.056 3.696.056 9.044c0 3.556 1.68 7.224 4.172 9.156.42.336.868.448 1.344.448.784 0 1.624-.392 2.408-.784.84-.392 1.68-.812 2.52-.812.84 0 1.708.42 2.52.812 1.26.616 2.548 1.232 3.752.308 2.492-1.904 4.172-5.6 4.172-9.156C21 3.696 16.912.224 10.528.224zm5.74 17.276c-.728.56-1.54.196-2.828-.42a13.115 13.115 0 0 0-1.26-.56c-.028-.056-.084-.084-.14-.112l-2.66-1.344a.46.46 0 0 0-.616.196.46.46 0 0 0 .196.616l.756.364c-.756.168-1.484.504-2.128.812-1.288.616-2.1.98-2.828.42C2.464 15.708.924 12.32.924 9.044.924 3.192 5.88 1.12 10.5 1.12s9.576 2.072 9.576 7.924c.028 3.304-1.512 6.692-3.808 8.456z" id="Shape"/><path d="M7.196 8.344H6.3v-.896A.442.442 0 0 0 5.852 7a.442.442 0 0 0-.448.448v.896h-.896a.442.442 0 0 0-.448.448c0 .252.196.448.448.448h.896v.896c0 .252.196.448.448.448a.442.442 0 0 0 .448-.448V9.24h.896a.442.442 0 0 0 .448-.448.442.442 0 0 0-.448-.448zM14.952 10.64c0-.028-.028-.056-.028-.084-.028-.028-.028-.056-.056-.056l-.056-.056c-.028-.028-.056-.028-.084-.028-.028 0-.056-.028-.084-.028h-.168c-.028 0-.056.028-.084.028-.028 0-.056.028-.084.028-.028.028-.056.028-.056.056l-.056.056c-.028.028-.028.056-.028.084 0 .028-.028.056-.028.084v.084c0 .056 0 .112.028.168.028.056.056.112.112.14a.45.45 0 0 0 .308.14.45.45 0 0 0 .308-.14.45.45 0 0 0 .14-.308v-.084c-.056-.028-.056-.056-.084-.084zM12.964 8.624c0-.028-.028-.056-.028-.084-.028-.028-.028-.056-.056-.056l-.056-.056c-.028-.028-.056-.028-.084-.028-.028 0-.056-.028-.084-.028h-.168c-.028 0-.056.028-.084.028-.028 0-.056.028-.084.028-.028.028-.056.028-.056.056-.028.028-.028.056-.056.056-.028.028-.028.056-.028.084 0 .028-.028.056-.028.084v.084a.45.45 0 0 0 .14.308c.056.056.084.084.14.112a.355.355 0 0 0 .168.028.45.45 0 0 0 .308-.14.45.45 0 0 0 .14-.308v-.084c-.056-.028-.084-.056-.084-.084zM16.968 8.624c0-.028-.028-.056-.028-.084-.028-.028-.028-.056-.056-.056l-.056-.056c-.028-.028-.056-.028-.084-.028-.028 0-.056-.028-.084-.028h-.168c-.028 0-.056.028-.084.028-.028 0-.056.028-.084.028-.028.028-.056.028-.056.056l-.056.056c-.028.028-.028.056-.028.084 0 .028-.028.056-.028.084v.084a.45.45 0 0 0 .14.308c.028.028.084.084.14.084a.355.355 0 0 0 .168.028.45.45 0 0 0 .308-.14.45.45 0 0 0 .14-.308V8.68c-.056 0-.084-.028-.084-.056zM14.952 6.636c0-.028-.028-.056-.028-.084-.028-.028-.028-.056-.056-.056-.028-.028-.056-.028-.056-.056-.028-.028-.056-.028-.084-.028-.028 0-.056-.028-.084-.028a.472.472 0 0 0-.392.112c-.028.028-.028.056-.056.056-.028.028-.028.056-.028.084 0 .028-.028.056-.028.084v.084c0 .056 0 .112.028.168.028.056.056.112.112.14a.45.45 0 0 0 .308.14.45.45 0 0 0 .308-.14.45.45 0 0 0 .14-.308V6.72c-.056-.028-.056-.056-.084-.084z" id="Shape"/></g><g id="Group" class="black" transform="translate(169.12 34.16)" fill="#000"><path d="M16.044.112H1.232C.644.112.168.588.168 1.176V19.32c0 .588.476 1.064 1.064 1.064H2.24a.527.527 0 0 0-.056.224c0 .252.196.448.448.448h1.344a.442.442 0 0 0 .448-.448c0-.084-.028-.14-.056-.224h8.568a.527.527 0 0 0-.056.224c0 .252.196.448.448.448h1.344a.442.442 0 0 0 .448-.448c0-.084-.028-.14-.056-.224h1.008c.588 0 1.064-.476 1.064-1.064V1.176A1.107 1.107 0 0 0 16.044.112zm.168 19.208a.18.18 0 0 1-.168.168H1.232a.18.18 0 0 1-.168-.168V1.176a.18.18 0 0 1 .168-.168h14.812a.18.18 0 0 1 .168.168V19.32z" id="Shape"/><path d="M14.42 3.052c0-.028-.028-.056-.028-.084-.028-.028-.028-.056-.056-.056-.028-.028-.056-.028-.056-.056-.028-.028-.056-.028-.084-.028-.028 0-.056-.028-.084-.028h-.168c-.028 0-.056.028-.084.028-.028 0-.056.028-.084.028-.028.028-.056.028-.056.056-.028.028-.028.056-.056.056-.028.028-.028.056-.028.084 0 .028-.028.056-.028.084v.084c0 .056 0 .112.028.168.028.056.056.112.112.14a.45.45 0 0 0 .308.14c.056 0 .112 0 .168-.028.056-.028.112-.056.14-.112.028-.056.084-.084.084-.14.028-.056.028-.112.028-.168v-.084c-.056-.028-.056-.056-.056-.084zM11.816 3.64c.056.028.112.028.168.028a.45.45 0 0 0 .308-.14.45.45 0 0 0 .14-.308.45.45 0 0 0-.14-.308.474.474 0 0 0-.644 0c-.028.028-.028.056-.056.056-.028.028-.028.056-.028.084 0 .028-.028.056-.028.084v.084a.45.45 0 0 0 .14.308c.028.056.084.084.14.112zM9.996 3.668a.45.45 0 0 0 .308-.14.45.45 0 0 0 .14-.308v-.084c0-.028-.028-.056-.028-.084 0-.028-.028-.056-.028-.084-.028-.028-.028-.056-.056-.056a.474.474 0 0 0-.644 0c-.028.028-.028.056-.056.056-.028.028-.028.056-.028.084 0 .028-.028.056-.028.084v.084a.45.45 0 0 0 .14.308c.028.112.14.14.28.14zM3.304 3.668h3.332a.442.442 0 0 0 .448-.448.442.442 0 0 0-.448-.448H3.304a.442.442 0 0 0-.448.448c0 .252.196.448.448.448zM8.652 6.104A5.808 5.808 0 0 0 2.856 11.9a5.808 5.808 0 0 0 5.796 5.796 5.808 5.808 0 0 0 5.796-5.796 5.808 5.808 0 0 0-5.796-5.796zm0 10.696a4.905 4.905 0 0 1-4.9-4.9c0-2.688 2.184-4.9 4.9-4.9 2.688 0 4.9 2.184 4.9 4.9s-2.212 4.9-4.9 4.9z" id="Shape"/><path d="M8.652 8.792a3.149 3.149 0 0 0-3.136 3.136c0 .252.196.448.448.448a.442.442 0 0 0 .448-.448 2.217 2.217 0 0 1 2.212-2.212.442.442 0 0 0 .448-.448c0-.252-.168-.476-.42-.476z" id="Shape"/></g><path d="M187.572 3.5l-5.32-2.66a1.159 1.159 0 0 0-1.008-.028c-.336.14-.588.448-.7.784-.364 1.204-1.512 2.044-2.772 2.044-1.26 0-2.408-.84-2.772-2.044a1.223 1.223 0 0 0-.7-.784c-.336-.14-.7-.14-1.008.028l-5.32 2.66c-.42.196-.672.616-.672 1.092v5.264c0 .364.168.7.448.952.28.224.644.336 1.008.252l1.512-.308c.14-.028.224.028.252.056.056.028.112.112.112.252V19.376c0 .672.532 1.204 1.204 1.204h11.844c.672 0 1.204-.532 1.204-1.204V11.06c0-.14.084-.196.112-.252.056-.028.14-.084.252-.056l1.512.308c.364.084.728-.028 1.008-.252s.448-.588.448-.952V4.592a1.113 1.113 0 0 0-.644-1.092zm-3.892 16.184h-11.844a.31.31 0 0 1-.308-.308v-2.128h12.46v2.128a.31.31 0 0 1-.308.308zm3.668-9.828c0 .14-.084.196-.112.252-.056.028-.14.084-.252.056l-1.512-.308a1.265 1.265 0 0 0-.56.028V8.12a.442.442 0 0 0-.448-.448.442.442 0 0 0-.448.448v8.232h-12.46V8.12a.442.442 0 0 0-.448-.448.442.442 0 0 0-.448.448v1.764c-.112-.028-.196-.056-.308-.056-.084 0-.168 0-.252.028l-1.512.308c-.14.028-.224-.028-.252-.056-.056-.028-.112-.112-.112-.252V4.592c0-.112.056-.224.168-.28l5.32-2.66a.262.262 0 0 1 .252 0 .32.32 0 0 1 .196.224c.476 1.596 1.96 2.688 3.64 2.688 1.652 0 3.164-1.12 3.64-2.688a.32.32 0 0 1 .196-.224.262.262 0 0 1 .252 0l5.32 2.66a.308.308 0 0 1 .168.28v5.264h-.028z" id="Shape" class="black" fill="#000"/><g id="Group" class="black" transform="translate(127.12 35)" fill="#000"><path d="M25.004.028H2.352A2.127 2.127 0 0 0 .224 2.156v13.3c0 1.176.952 2.128 2.128 2.128h.7v.812c0 .588.476 1.036 1.036 1.036h1.148c.588 0 1.036-.476 1.036-1.036v-.812h13.72v.812c0 .588.476 1.036 1.036 1.036h1.148c.588 0 1.036-.476 1.036-1.036v-.812h1.792a2.127 2.127 0 0 0 2.128-2.128v-13.3A2.127 2.127 0 0 0 25.004.028zM5.376 18.396c0 .084-.056.14-.14.14H4.088c-.084 0-.14-.056-.14-.14v-.812h1.428v.812zm16.94 0c0 .084-.056.14-.14.14h-1.148c-.084 0-.14-.056-.14-.14v-.812h1.428v.812zm3.92-2.94c0 .672-.56 1.232-1.232 1.232H2.352c-.672 0-1.232-.56-1.232-1.232v-13.3c0-.672.56-1.232 1.232-1.232h22.652c.672 0 1.232.56 1.232 1.232v13.3z" id="Shape"/><path d="M16.968 2.856H4.648c-.896 0-1.624.728-1.624 1.624v8.68c0 .896.728 1.624 1.624 1.624h12.32c.896 0 1.624-.728 1.624-1.624V4.48c0-.896-.728-1.624-1.624-1.624zm.728 10.304a.741.741 0 0 1-.728.728H4.648a.741.741 0 0 1-.728-.728V4.48c0-.392.336-.728.728-.728h12.32c.392 0 .728.336.728.728v8.68zM22.344 2.856c-.98 0-1.764.784-1.764 1.764s.784 1.764 1.764 1.764 1.764-.784 1.764-1.764-.784-1.764-1.764-1.764zm0 2.66a.872.872 0 0 1-.868-.868c0-.476.392-.868.868-.868s.868.392.868.868a.872.872 0 0 1-.868.868zM22.344 7.504c-.98 0-1.764.784-1.764 1.764s.784 1.764 1.764 1.764 1.764-.784 1.764-1.764-.784-1.764-1.764-1.764zm0 2.632a.872.872 0 0 1-.868-.868c0-.476.392-.868.868-.868s.868.392.868.868a.872.872 0 0 1-.868.868zM23.352 13.44h-2.044a.442.442 0 0 0-.448.448c0 .252.196.448.448.448h2.044a.442.442 0 0 0 .448-.448.442.442 0 0 0-.448-.448z" id="Shape"/></g><g id="Group" class="black" transform="translate(0 5.88)" fill="#000"><path d="M55.832 12.432c-.168-.42-.588-.7-1.036-.7H31.752l-1.68-4.536c.336.028.7.028 1.036.056h.056c.756 0 1.4-.476 1.596-1.204a1.604 1.604 0 0 0-.784-1.848L25.48.56a1.575 1.575 0 0 0-1.708.084c-.504.336-.784.952-.728 1.568l.308 2.548a2.085 2.085 0 0 0 1.624 1.792c1.036.224 2.492.476 4.116.616l1.708 4.62a1.624 1.624 0 0 0-1.26.476l-7.448 7.98c-2.324-1.792-5.208-2.884-8.372-2.884C6.216 17.36.084 23.464.084 30.996c0 7.532 6.104 13.636 13.636 13.636 7.14 0 13.02-5.544 13.58-12.544l9.632-.252c.196 0 .392-.028.588-.112a.401.401 0 0 0 .28.112c.112 0 .224-.056.336-.14L55.58 13.72c.336-.392.448-.868.252-1.288zm-30.66-6.804a1.159 1.159 0 0 1-.924-1.008l-.308-2.548a.724.724 0 0 1 .336-.7.677.677 0 0 1 .756-.028l6.496 3.612c.364.196.42.56.364.84-.084.28-.308.56-.728.56-2.38-.084-4.592-.448-5.992-.728zM13.72 43.652c-7.028 0-12.712-5.712-12.712-12.712S6.72 18.2 13.72 18.2c2.912 0 5.6.98 7.756 2.632l-1.96 2.1a9.882 9.882 0 0 0-5.796-1.876 9.882 9.882 0 0 0-9.884 9.884 9.882 9.882 0 0 0 9.884 9.884c5.04 0 9.212-3.808 9.8-8.708l2.856-.084c-.532 6.496-5.992 11.62-12.656 11.62zm-.7-12.292a1.59 1.59 0 0 0 1.428.98l8.176-.196a8.978 8.978 0 0 1-8.904 7.784c-4.956 0-8.988-4.032-8.988-8.988 0-4.956 4.032-8.988 8.988-8.988 1.932 0 3.696.616 5.18 1.652l-5.572 5.964a1.626 1.626 0 0 0-.308 1.792zm1.428.084c-.252 0-.476-.168-.588-.42-.084-.224-.112-.56.14-.84l5.628-6.02c1.904 1.652 3.108 4.06 3.108 6.776v.28l-8.288.224zm12.012-.308l-2.856.084v-.28a9.787 9.787 0 0 0-3.388-7.42l1.932-2.072a12.677 12.677 0 0 1 4.284 9.52c.028.028.028.112.028.168zm11.032-.56a.654.654 0 0 1-.56.28l-9.576.252v-.168c0-4.032-1.764-7.672-4.564-10.164l7.42-7.924c.168-.168.364-.252.588-.196.224.056.42.196.504.448l1.148 3.08.028.112 5.096 13.552c.112.252.084.532-.084.728zM54.964 13.02L38.528 29.932c-.028-.14-.056-.28-.084-.392l-5.096-13.552-1.232-3.332h22.708c.14 0 .196.084.196.14 0 .028.028.112-.056.224z" id="Shape"/><path d="M63.084 17.528c-1.484 0-2.912.252-4.256.7l-5.04-14.952C53.144 1.4 51.408.112 49.42.084L47.656.056a.442.442 0 0 0-.448.448c0 .252.196.448.448.448L49.42.98a3.798 3.798 0 0 1 3.528 2.576l5.068 14.952c-4.984 2.016-8.512 6.916-8.512 12.628 0 7.504 6.104 13.636 13.636 13.636 7.532 0 13.636-6.104 13.636-13.636 0-7.532-6.188-13.608-13.692-13.608zm0 26.348c-7.028 0-12.712-5.712-12.712-12.712 0-5.32 3.276-9.884 7.896-11.788l.924 2.716a9.882 9.882 0 0 0 3.92 18.956 9.882 9.882 0 0 0 9.884-9.884c0-5.46-4.48-9.884-9.912-9.884-1.064 0-2.1.168-3.052.476l-.924-2.688c1.26-.42 2.576-.644 3.976-.644 7.028 0 12.712 5.712 12.712 12.712s-5.684 12.74-12.712 12.74zm.112-12.712l-2.884-8.568a8.983 8.983 0 0 1 2.772-.448c4.956 0 8.988 4.032 8.988 8.988 0 4.956-4.032 8.988-8.988 8.988-4.956 0-8.988-4.032-8.988-8.988a8.963 8.963 0 0 1 5.348-8.204l2.884 8.512a.445.445 0 0 0 .42.308c.056 0 .084 0 .14-.028a.423.423 0 0 0 .308-.56zM44.52 1.344c.056 0 .112 0 .168-.028.056-.028.112-.056.14-.112.056-.028.084-.084.112-.14.028-.056.028-.112.028-.168a.45.45 0 0 0-.14-.308l-.056-.056c-.028-.028-.056-.028-.084-.056-.028 0-.056-.028-.084-.028h-.168c-.028 0-.056.028-.084.028-.028 0-.056.028-.084.056-.028.028-.056.028-.056.056-.028.028-.028.056-.056.056-.028.028-.028.056-.028.084 0 .028-.028.056-.028.084v.084a.45.45 0 0 0 .14.308c.056.084.168.14.28.14z" id="Shape"/></g><g id="Group" class="black" transform="translate(133.28)" fill="#000"><path d="M11.284 3.08H3.276a.442.442 0 0 0-.448.448c0 .252.196.448.448.448h8.008a.442.442 0 0 0 .448-.448.442.442 0 0 0-.448-.448zM11.284 16.268H3.276a.442.442 0 0 0-.448.448c0 .252.196.448.448.448h8.008a.442.442 0 0 0 .448-.448.442.442 0 0 0-.448-.448z" id="Shape"/><path d="M14.672 8.288c-.112 0-.196.028-.252.084V5.964c.056.028.14.056.224.056a.442.442 0 0 0 .448-.448V4.9a.442.442 0 0 0-.448-.448c-.084 0-.14.028-.224.056V1.54c0-.756-.616-1.344-1.344-1.344H1.512C.756.196.168.812.168 1.54v18.228c0 .756.616 1.344 1.344 1.344h11.564c.756 0 1.344-.616 1.344-1.344V9.772a.442.442 0 0 0 .7-.364v-.672a.46.46 0 0 0-.448-.448zm-1.176 11.48a.442.442 0 0 1-.448.448H1.484a.442.442 0 0 1-.448-.448V1.54c0-.252.196-.448.448-.448h11.564c.252 0 .448.196.448.448v18.228z" id="Shape"/></g><ellipse id="Oval" class="green" fill="#13C1AC" opacity=".2" cx="149.52" cy="44.212" rx="1" ry="1"/><ellipse id="Oval" class="green" fill="#13C1AC" opacity=".2" cx="149.52" cy="39.564" rx="1" ry="1.036"/><path id="Shape" class="green" fill="#13C1AC" opacity=".2" d="M134.876 39.424l-3.192 2.128v1.456l5.376-3.584zM143.696 40.348l-11.34 7.588h2.156l9.184-6.132zM141.512 39.424h-2.856l-6.972 4.676v2.324l10.024-6.692z"/><path id="Rectangle-path" class="green" fill="#13C1AC" opacity=".2" d="M136.22 3.36h8.708v13.216h-8.708z"/><path d="M177.772 50.96a4.905 4.905 0 0 1-4.9-4.9c0-2.688 2.184-4.9 4.9-4.9 2.688 0 4.9 2.184 4.9 4.9s-2.212 4.9-4.9 4.9zM183.68 19.684h-11.844a.31.31 0 0 1-.308-.308v-2.128h12.46v2.128a.31.31 0 0 1-.308.308zM25.172 11.508a1.159 1.159 0 0 1-.924-1.008l-.308-2.548a.724.724 0 0 1 .336-.7.677.677 0 0 1 .756-.028l6.496 3.612c.364.196.42.56.364.84-.084.28-.308.56-.728.56-2.38-.084-4.592-.448-5.992-.728zM13.72 49.532c-7.028 0-12.712-5.712-12.712-12.712S6.72 24.08 13.72 24.08c2.912 0 5.6.98 7.756 2.632l-1.96 2.1a9.882 9.882 0 0 0-5.796-1.876 9.882 9.882 0 0 0-9.884 9.884 9.882 9.882 0 0 0 9.884 9.884c5.04 0 9.212-3.808 9.8-8.708l2.856-.084c-.532 6.496-5.992 11.62-12.656 11.62z" id="Shape" class="green" fill="#13C1AC" opacity=".2"/><path d="M26.46 37.016l-2.856.084v-.28a9.787 9.787 0 0 0-3.388-7.42l1.932-2.072a12.677 12.677 0 0 1 4.284 9.52c.028.028.028.112.028.168zM63.084 49.756c-7.028 0-12.712-5.712-12.712-12.712 0-5.32 3.276-9.884 7.896-11.788l.924 2.716a9.882 9.882 0 0 0 3.92 18.956 9.882 9.882 0 0 0 9.884-9.884c0-5.46-4.48-9.884-9.912-9.884-1.064 0-2.1.168-3.052.476l-.924-2.688c1.26-.42 2.576-.644 3.976-.644 7.028 0 12.712 5.712 12.712 12.712s-5.684 12.74-12.712 12.74z" id="Shape" fill="#13C1AC" class="green" opacity=".2"/><path id="Rectangle-path" class="green" fill="#13C1AC" opacity=".2" transform="rotate(-4.255 103.02 10.611)" d="M101.803 1.707h2.436v17.807h-2.436z"/><path id="Rectangle-path" class="green" fill="#13C1AC" opacity=".2" transform="rotate(-18.529 112.94 14.912)" d="M111.722 10.362h2.436v9.1h-2.436z"/></g></g></g></g></svg>