<svg xmlns="http://www.w3.org/2000/svg" width="60" height="60" viewBox="0 0 60 60">
    <g fill="none" fill-rule="evenodd">
        <path fill="#13C1AC" fill-rule="nonzero" d="M44.915 42.547H14.814c-.434 0-.814-.393-.814-.843 0-.449.38-.842.814-.842h30.101c.434 0 .814.393.814.842 0 .45-.38.843-.814.843z" opacity=".5"/>
        <path fill="#D7D7D7" fill-rule="nonzero" d="M17.634 36.483v3.48c0 .955.76 1.741 1.681 1.741h1.682c.922 0 1.681-.786 1.681-1.74v-1.46M42.908 36.483v3.48c0 .955-.759 1.741-1.68 1.741h-1.682c-.922 0-1.682-.786-1.682-1.74v-1.46"/>
        <path fill="#333" fill-rule="nonzero" d="M20.997 42.547h-1.682c-1.356 0-2.495-1.18-2.495-2.583v-3.481c0-.45.38-.842.814-.842.434 0 .813.393.813.842v3.48c0 .506.38.9.868.9h1.682c.488 0 .867-.394.867-.9v-1.459c0-.45.38-.842.814-.842.434 0 .814.393.814.842v1.46c0 1.403-1.14 2.583-2.495 2.583zM41.227 42.547h-1.681c-1.356 0-2.495-1.18-2.495-2.583v-1.46c0-.45.38-.842.813-.842.434 0 .814.393.814.842v1.46c0 .505.38.898.868.898h1.681c.488 0 .868-.393.868-.898v-3.481c0-.45.38-.842.813-.842.434 0 .814.393.814.842v3.48c0 1.404-1.085 2.584-2.495 2.584z"/>
        <path fill="#333" fill-rule="nonzero" d="M30.271 39.065c-5.749 0-9.274-.336-11.227-.617-1.302-.169-2.278-1.348-2.278-2.695V27.78c0-1.46 1.14-2.639 2.55-2.639h.921c.38 0 .705-.056 1.085-.168.271-.113.65-.281 1.139-.45 1.79-.73 4.719-1.965 7.81-1.965 3.092 0 6.02 1.236 7.81 1.966.434.168.868.336 1.14.449.325.112.704.168 1.084.168h.922c1.41 0 2.55 1.18 2.55 2.64v7.972c0 1.347-.977 2.526-2.279 2.695-1.952.28-5.478.617-11.227.617zM19.37 26.825c-.488 0-.922.45-.922.955v7.973c0 .505.38.954.868 1.01 1.899.281 5.316.618 11.01.618 5.695 0 9.112-.337 11.01-.618.489-.056.868-.505.868-1.01V27.78c0-.505-.434-.954-.922-.954h-.922a4.885 4.885 0 0 1-1.573-.281c-.325-.112-.705-.28-1.247-.505-1.681-.674-4.447-1.853-7.16-1.853-2.711 0-5.532 1.179-7.159 1.853-.488.224-.922.393-1.247.505-.488.168-1.03.28-1.573.28h-1.03z"/>
        <path fill="#333" fill-rule="nonzero" d="M30.271 33.844c-6.129 0-9.871-.337-11.932-.618-.434-.056-.76-.505-.705-.954.054-.45.488-.786.922-.73 2.007.28 5.695.617 11.715.617s9.709-.336 11.715-.617c.434-.056.868.28.922.73.055.449-.27.898-.705.954-2.06.281-5.803.618-11.932.618z"/>
        <path fill="#333" fill-rule="nonzero" d="M25.227 32.946c-.434 0-.813-.393-.813-.843 0-1.852-2.604-2.02-2.604-2.02-1.302-.113-2.44-.225-3.417-.338-.434-.056-.76-.505-.705-.954.054-.45.488-.786.922-.73.976.112 2.061.28 3.309.337 1.41.112 4.122 1.01 4.122 3.705 0 .45-.38.843-.814.843zM35.315 32.946c-.434 0-.813-.393-.813-.843 0-2.695 2.712-3.65 4.122-3.705 1.247-.113 2.332-.225 3.308-.337.434-.056.868.28.922.73.054.449-.27.898-.705.954-.976.169-2.17.28-3.417.337-.108 0-2.603.225-2.603 2.021 0 .45-.326.843-.814.843z"/>
        <path fill="#13C1AC" fill-rule="nonzero" d="M30.271 36.427h-2.549c-.434 0-.814-.393-.814-.843 0-.449.38-.842.814-.842h5.098c.434 0 .814.393.814.842 0 .45-.38.843-.814.843h-2.549z" opacity=".5"/>
        <path fill="#333" fill-rule="nonzero" d="M40.305 26.376c-.325 0-.65-.224-.76-.505l-1.952-4.94c-.542-1.741-2.224-1.91-2.929-1.91h-8.786c-.705 0-2.386.169-2.929 1.853v.056l-1.952 4.773c-.163.449-.651.617-1.085.449-.434-.169-.597-.674-.434-1.123l1.953-4.773c.596-1.852 2.277-2.975 4.447-2.975h8.786c2.17 0 3.851 1.123 4.448 3.032l1.952 4.884c.163.45-.054.899-.433 1.123-.109 0-.217.056-.326.056z"/>
        <path fill="#13C1AC" fill-rule="nonzero" d="M31.139 31.205h-1.681c-.434 0-.814-.393-.814-.842 0-.45.38-.842.814-.842h1.681c.434 0 .814.393.814.842 0 .449-.38.842-.814.842z" opacity=".5"/>
        <path fill="#333" fill-rule="nonzero" d="M40.414 26.826c-.217 0-.434-.057-.597-.225a.834.834 0 0 1 0-1.18l2.55-2.638a.768.768 0 0 1 1.138 0 .834.834 0 0 1 0 1.18l-2.55 2.638a.684.684 0 0 1-.541.225zM20.129 26.826c-.217 0-.434-.057-.597-.225l-2.549-2.639a.834.834 0 0 1 0-1.179.768.768 0 0 1 1.139 0l2.55 2.639a.834.834 0 0 1 0 1.179c-.11.168-.326.225-.543.225z"/>
    </g>
</svg>
