<svg xmlns="http://www.w3.org/2000/svg" width="43" height="40" viewBox="0 0 43 40"><g fill="none"><path d="M33.944 36.323c.946.348 1.634.87 2.064 1.565 1.376-.26 2.752-.174 4.128-.783.258-.087.688-.347 1.204-.608.172-.348.344-.783.344-1.218v-5.391l-8.084 3.13v2.261c0 .348.086.696.258 1.044h.086zm-32.336.347c1.032.61 2.064 1.044 3.182 1.218 1.204.174 2.494.26 3.698.348h.086c0-.087 0-.087.086-.174.258-.522.688-.87 1.118-1.304.086-.087.172-.087.172-.174h-.86c.258-.435.43-.87.43-1.392v-2.26l-7.998-3.218v5.391c0 .522.172.957.43 1.392h-.344v.174zm15.91-6.869h8.084c.688 0 1.29-.609 1.29-1.304 0-.696-.602-1.305-1.29-1.305h-8.084c-.688 0-1.29.609-1.29 1.305 0 .695.602 1.304 1.29 1.304zm2.666-8.087h2.666c.688 0 1.29-.609 1.29-1.304 0-.696-.602-1.305-1.29-1.305h-2.666c-.688 0-1.29.61-1.29 1.305s.602 1.304 1.29 1.304zm20.124.522v-2.783c-1.548.174-3.354.435-5.332.522-.172 0-4.042.348-4.128 3.043a99.666 99.666 0 0 0 9.202-.782c.172-.087.172-.087.258 0zm-28.036.782c-.086-2.695-4.128-3.043-4.128-3.043a227.66 227.66 0 0 1-5.332-.522v2.783h.258c1.892.26 4.902.522 9.202.782z" fill="#13C1AC" opacity=".2"/><path class="black" fill="#333" d="M40.394 12.67l2.15-2.173a1.27 1.27 0 0 0 0-1.826c-.516-.522-1.29-.522-1.806 0l-2.494 2.521-2.58-6.347C34.718 1.888 32.052.149 28.612.149H14.594c-3.44 0-6.106 1.739-7.052 4.609l-2.666 6.347-2.494-2.521c-.516-.522-1.29-.522-1.806 0a1.27 1.27 0 0 0 0 1.826l2.15 2.174a4.087 4.087 0 0 0-2.494 3.739V28.67c0 .26 0 .434.086.695 0 .087-.086.261-.086.348v5.391c0 2.174 1.806 4 3.956 4h2.666c2.236 0 3.956-1.826 3.956-4v-1.739c2.838.174 6.364.261 10.75.261s7.912-.087 10.75-.26v1.738c0 2.174 1.806 4 3.956 4h2.666c2.236 0 3.956-1.826 3.956-4v-5.39c0-.175 0-.262-.086-.349 0-.26.086-.435.086-.695V16.41a4.087 4.087 0 0 0-2.494-3.74zm-.086 9.566h-.258c-1.978.26-4.988.609-9.202.782.086-2.695 3.956-3.043 4.128-3.043a227.66 227.66 0 0 0 5.332-.522v2.783zM9.95 5.714v-.087c.86-2.609 3.526-2.87 4.644-2.87h13.932c1.118 0 3.784.261 4.644 2.957l2.58 6.348h-.086c-.43-.174-1.032-.435-1.806-.696-2.838-1.13-7.482-3.043-12.384-3.043s-9.546 1.913-12.384 3.043c-.688.261-1.376.522-1.806.696h-.172L9.95 5.714zM2.812 16.41c0-.783.688-1.479 1.462-1.479h1.462c.86 0 1.72-.173 2.494-.434.516-.174 1.118-.435 1.978-.783 2.666-1.043 7.052-2.87 11.352-2.87 4.3 0 8.772 1.827 11.352 2.87.774.348 1.462.609 1.978.783.774.26 1.634.434 2.494.434h1.462c.774 0 1.462.696 1.462 1.479v.348h-.258c-1.548.173-3.268.434-5.246.521-2.236.174-6.536 1.566-6.536 5.74-1.978.086-4.214.173-6.708.173-2.494 0-4.73 0-6.708-.087 0-4.174-4.3-5.565-6.536-5.739a180.456 180.456 0 0 1-5.246-.521h-.258v-.435zm0 2.956c1.548.174 3.354.435 5.332.522 0 0 4.042.348 4.128 3.043a99.666 99.666 0 0 1-9.202-.782h-.258v-2.783zM8.23 35.28c0 .783-.602 1.392-1.376 1.392H4.188a1.366 1.366 0 0 1-1.376-1.392v-2.608c.344.174.688.26 1.032.26 1.118.174 2.58.348 4.472.435v1.913H8.23zm-4.128-4.956c-.774-.087-1.376-.783-1.376-1.565v-4c3.354.521 9.288 1.043 18.834 1.043s15.48-.522 18.748-.956v4c0 .782-.602 1.478-1.376 1.565-3.01.435-8.514.956-17.458.956-8.944 0-14.362-.608-17.372-1.043zm34.83 6.348h-2.666a1.366 1.366 0 0 1-1.376-1.392v-1.913c1.806-.174 3.354-.348 4.472-.435l1.032-.26v2.608c-.086.783-.688 1.392-1.462 1.392z"/></g></svg>