<svg xmlns="http://www.w3.org/2000/svg" width="60" height="60" viewBox="0 0 60 60">
    <g fill="none" fill-rule="evenodd">
        <g fill-rule="nonzero">
            <path fill="#13C1AC" d="M33.858 38.38h-7.326v-1.438c0-.938.732-1.688 1.648-1.688h3.968c.916 0 1.649.75 1.649 1.688v1.438h.06zM18.9 25.877h21.979v3.126H18.9z" opacity=".5"/>
            <g fill="#333">
                <path d="M42.283 27.377H18.412c-.794 0-1.466-.375-1.832-1.062-.305-.625-.305-1.313 0-1.876l4.335-7.501c.366-.625 1.038-1 1.831-1h2.26v1.875h-2.26c-.122 0-.244.063-.244.125l-4.335 7.502s.061.125.245.125h23.871c.183 0 .244-.063.244-.125l-4.334-7.502c0-.062-.122-.125-.245-.125h-8.67v-1.875h8.67c.733 0 1.466.375 1.832 1l4.335 7.501a1.738 1.738 0 0 1 0 1.876c-.367.687-1.038 1.062-1.832 1.062z"/>
                <path d="M29.401 19.689c-.488 0-.916-.438-.916-.938v-2.813c0-.063-.06-.063-.06-.063h-1.771c-.061 0-.061.063-.061.063v2.813c0 .5-.428.938-.916.938-.489 0-.916-.438-.916-.938v-2.813c0-1.063.855-1.938 1.893-1.938h1.77c1.038 0 1.893.875 1.893 1.938v2.813a.91.91 0 0 1-.916.938zM35.018 44.63h-9.341v-7.188a2.294 2.294 0 0 1 2.32-2.313h4.762a2.334 2.334 0 0 1 2.32 2.313v7.189h-.061zm-7.51-1.875h5.678v-5.313c0-.25-.183-.438-.488-.438h-4.762c-.244 0-.489.188-.489.438v5.313h.061zM24.7 33.129c-.488 0-.916-.438-.916-.938v-.938c0-.5.428-.937.916-.937.488 0 .916.437.916.937v.938c0 .5-.367.938-.916.938zM28.485 33.129c-.488 0-.916-.438-.916-.938v-.938c0-.5.428-.937.916-.937.489 0 .916.437.916.937v.938c0 .5-.427.938-.916.938zM32.21 33.129c-.489 0-.916-.438-.916-.938v-.938c0-.5.427-.937.915-.937.489 0 .916.437.916.937v.938c0 .5-.427.938-.916.938zM35.995 33.129c-.489 0-.916-.438-.916-.938v-.938c0-.5.427-.937.916-.937.488 0 .916.437.916.937v.938c0 .5-.428.938-.916.938z"/>
                <path d="M38.376 44.63H22.319c-2.259 0-4.09-1.875-4.09-4.188v-14.94h24.298v14.94c0 2.313-1.892 4.189-4.151 4.189zM19.999 27.378v13.065c0 1.25 1.038 2.313 2.259 2.313h16.118c1.22 0 2.259-1.062 2.259-2.313V27.377H19.999z"/>
            </g>
            <g fill="#13C1AC" opacity=".5">
                <path d="M20.121 24.314h-.305c-.183 0-.305-.125-.305-.312 0-.188.122-.313.305-.313h.305c.183 0 .305.125.305.313 0 .187-.122.312-.305.312zM40.879 24.314h-.61c-.184 0-.306-.125-.306-.312 0-.188.122-.313.305-.313h.61c.184 0 .306.125.306.313 0 .187-.122.312-.305.312zm-3.053 0h-.61c-.183 0-.305-.125-.305-.312 0-.188.122-.313.305-.313h.61c.183 0 .306.125.306.313 0 .187-.123.312-.306.312zm-3.052 0h-.61c-.184 0-.306-.125-.306-.312 0-.188.122-.313.305-.313h.61c.184 0 .306.125.306.313 0 .187-.122.312-.305.312zm-3.053 0h-.61c-.184 0-.306-.125-.306-.312 0-.188.122-.313.306-.313h.61c.183 0 .305.125.305.313 0 .187-.122.312-.305.312zm-3.053 0h-.61c-.183 0-.305-.125-.305-.312 0-.188.122-.313.305-.313h.61c.184 0 .306.125.306.313 0 .187-.122.312-.306.312zm-3.052 0h-.61c-.184 0-.306-.125-.306-.312 0-.188.122-.313.305-.313h.61c.184 0 .306.125.306.313 0 .187-.122.312-.305.312zm-3.053 0h-.61c-.184 0-.306-.125-.306-.312 0-.188.122-.313.306-.313h.61c.183 0 .305.125.305.313 0 .187-.122.312-.305.312z"/>
            </g>
            <g opacity=".5">
                <path fill="#333" d="M19.51 21.814h-.305c-.183 0-.305-.125-.305-.313 0-.187.122-.312.305-.312h.306c.183 0 .305.125.305.312 0 .188-.122.313-.305.313z"/>
                <path fill="#13C1AC" d="M37.216 21.814h-.61c-.184 0-.306-.125-.306-.313 0-.187.122-.312.305-.312h.61c.184 0 .306.125.306.312 0 .188-.122.313-.305.313zm-2.442 0h-.61c-.184 0-.306-.125-.306-.313 0-.187.122-.312.305-.312h.61c.184 0 .306.125.306.312 0 .188-.122.313-.305.313zm-3.053 0h-.61c-.184 0-.306-.125-.306-.313 0-.187.122-.312.306-.312h.61c.183 0 .305.125.305.312 0 .188-.122.313-.305.313zm-3.053 0h-.61c-.183 0-.305-.125-.305-.313 0-.187.122-.312.305-.312h.61c.184 0 .306.125.306.312 0 .188-.122.313-.306.313zm-3.052 0h-.61c-.184 0-.306-.125-.306-.313 0-.187.122-.312.305-.312h.61c.184 0 .306.125.306.312 0 .188-.122.313-.305.313zm-3.053 0h-.61c-.184 0-.306-.125-.306-.313 0-.187.122-.312.306-.312h.61c.183 0 .305.125.305.312 0 .188-.122.313-.305.313z"/>
            </g>
            <path fill="#13C1AC" d="M37.826 19.313h-.61c-.183 0-.305-.125-.305-.312 0-.188.122-.313.305-.313h.61c.183 0 .306.125.306.313 0 .187-.123.312-.306.312zm-3.052 0h-.61c-.184 0-.306-.125-.306-.312 0-.188.122-.313.305-.313h.61c.184 0 .306.125.306.313 0 .187-.122.312-.305.312zm-3.053 0h-.61c-.184 0-.306-.125-.306-.312 0-.188.122-.313.306-.313h.61c.183 0 .305.125.305.313 0 .187-.122.312-.305.312z" opacity=".5"/>
            <g opacity=".5">
                <path fill="#333" d="M18.29 23.064h-.306c-.183 0-.305-.125-.305-.312 0-.188.122-.313.305-.313h.305c.184 0 .306.125.306.313 0 .187-.122.312-.306.312z"/>
                <path fill="#13C1AC" d="M39.658 23.064h-.61c-.184 0-.306-.125-.306-.312 0-.188.122-.313.305-.313h.61c.184 0 .306.125.306.313 0 .187-.122.312-.305.312zm-3.053 0h-.61c-.183 0-.306-.125-.306-.312 0-.188.123-.313.306-.313h.61c.183 0 .306.125.306.313 0 .187-.123.312-.306.312zm-3.052 0h-.61c-.184 0-.306-.125-.306-.312 0-.188.122-.313.305-.313h.61c.184 0 .306.125.306.313 0 .187-.122.312-.305.312zm-3.053 0h-.61c-.184 0-.306-.125-.306-.312 0-.188.122-.313.305-.313h.611c.183 0 .305.125.305.313 0 .187-.122.312-.305.312zm-3.053 0h-.61c-.183 0-.305-.125-.305-.312 0-.188.122-.313.305-.313h.61c.184 0 .306.125.306.313 0 .187-.122.312-.306.312zm-3.052 0h-.61c-.184 0-.306-.125-.306-.312 0-.188.122-.313.305-.313h.61c.184 0 .306.125.306.313 0 .187-.122.312-.305.312zm-3.053 0h-.61c-.184 0-.306-.125-.306-.312 0-.188.122-.313.306-.313h.61c.183 0 .305.125.305.313 0 .187-.122.312-.305.312z"/>
                <path fill="#333" d="M42.405 23.064H42.1c-.183 0-.305-.125-.305-.312 0-.188.122-.313.305-.313h.305c.183 0 .306.125.306.313 0 .187-.123.312-.306.312z"/>
            </g>
            <path fill="#13C1AC" d="M36.605 20.564h-.61c-.183 0-.306-.125-.306-.313 0-.187.123-.312.306-.312h.61c.183 0 .306.125.306.312 0 .188-.123.313-.306.313zm-3.052 0h-.61c-.184 0-.306-.125-.306-.313 0-.187.122-.312.305-.312h.61c.184 0 .306.125.306.312 0 .188-.122.313-.305.313zm-3.053 0h-.61c-.184 0-.306-.125-.306-.313 0-.187.122-.312.305-.312h.611c.183 0 .305.125.305.312 0 .188-.122.313-.305.313zm-3.053 0h-.61c-.183 0-.305-.125-.305-.313 0-.187.122-.312.305-.312h.61c.184 0 .306.125.306.312 0 .188-.122.313-.306.313zm-3.052 0h-.61c-.184 0-.306-.125-.306-.313 0-.187.122-.312.305-.312h.61c.184 0 .306.125.306.312 0 .188-.122.313-.305.313zM23.174 19.313h-.306c-.183 0-.305-.125-.305-.312 0-.188.122-.313.305-.313h.306c.183 0 .305.125.305.313 0 .187-.122.312-.305.312zM22.563 20.564h-.305c-.183 0-.305-.125-.305-.313 0-.187.122-.312.305-.312h.305c.183 0 .305.125.305.312 0 .188-.122.313-.305.313zM38.437 20.564h-.305c-.184 0-.306-.125-.306-.313 0-.187.122-.312.306-.312h.305c.183 0 .305.125.305.312 0 .188-.122.313-.305.313zM39.047 21.814h-.305c-.183 0-.305-.125-.305-.313 0-.187.122-.312.305-.312h.305c.184 0 .306.125.306.312 0 .188-.122.313-.306.313z" opacity=".5"/>
        </g>
    </g>
</svg>
