<svg xmlns="http://www.w3.org/2000/svg" width="42" height="43" viewBox="0 0 42 43">
    <g fill="none" fill-rule="nonzero">
        <path class="green" fill="#13C1AC" d="M24.746 24.461c-.343 0-.6-.088-.857-.351l-5.743-5.529a1.38 1.38 0 0 1-.086-1.842 1.303 1.303 0 0 1 1.8-.088l5.743 5.528a1.38 1.38 0 0 1 .086 1.843c-.257.263-.6.439-.943.439zM21.06 28.234c-.342 0-.6-.087-.857-.35l-5.743-5.53a1.38 1.38 0 0 1-.085-1.842 1.303 1.303 0 0 1 1.8-.088l5.743 5.529a1.38 1.38 0 0 1 .085 1.843c-.257.35-.6.438-.943.438zM17.375 32.008c-.343 0-.6-.088-.857-.351l-5.743-5.529a1.38 1.38 0 0 1-.086-1.843c.429-.526 1.286-.526 1.8-.087l5.743 5.528a1.38 1.38 0 0 1 .086 1.843c-.258.351-.6.439-.943.439z" opacity=".3"/>
        <path class="black" fill="#333" d="M5.718 42.188h-.172c-1.457 0-2.743-.703-3.771-1.756-1.886-2.106-1.715-5.44.343-7.547l17.657-18.077c-1.2-4.037-.172-8.425 2.743-11.408C25.26.592 29.375-.55 33.146.416c.686.176 1.2.702 1.457 1.404.172.702 0 1.492-.514 2.019l-4.714 4.826L30.06 12l3.086.614 4.714-4.826c.515-.527 1.286-.703 1.972-.527.686.176 1.2.79 1.371 1.492.943 3.861-.171 8.073-2.914 10.881a10.965 10.965 0 0 1-11.143 2.809L9.403 40.696c-.943.965-2.314 1.492-3.685 1.492zM30.489 2.785a8.527 8.527 0 0 0-6.086 2.545 8.819 8.819 0 0 0-1.885 9.39l.342.79L4.003 34.816c-1.028 1.053-1.2 2.808-.257 3.861.514.527 1.2.878 1.886.878.771 0 1.457-.263 1.971-.79l18.943-19.394.772.351c3.171 1.229 6.771.527 9.171-1.93 1.886-1.931 2.743-4.651 2.4-7.284l-4.029 4.124c-.514.527-1.285.79-1.971.615l-3.514-.702c-.857-.176-1.543-.878-1.715-1.755l-.685-3.598c-.172-.702.085-1.492.6-2.019l4.114-4.212c-.514-.176-.857-.176-1.2-.176z"/>
        <path class="black" fill="#333" d="M5.889 37.975c-.343 0-.686-.175-.943-.35l-.171-.176c-.086-.088-.086-.176-.086-.264 0-.087-.086-.175-.086-.263v-.263-.263c0-.088 0-.176.086-.264.086-.087.086-.175.086-.263.085-.088.085-.175.171-.175.257-.264.772-.44 1.2-.351.086 0 .172 0 .257.087.086.088.172.088.257.088.086 0 .172.088.172.176.257.263.343.614.343.965v.263c0 .088 0 .176-.086.263 0 .088-.086.176-.086.264 0 .088-.085.175-.171.175l-.172.176c-.085.088-.171.088-.257.088-.085 0-.171.087-.257.087H5.89z"/>
    </g>
</svg>
