<svg xmlns="http://www.w3.org/2000/svg" width="38" height="38" viewBox="0 0 38 38"><g fill="none" fill-rule="evenodd"><text fill="#333" font-family="Wallie-Fit, Wallie" font-size="14"><tspan x="37.852" y="25">Inicio</tspan></text><path fill="#253238" d="M23.515 27.93h-1.192v-3.156a2.16 2.16 0 0 0-2.158-2.16h-2.326c-1.19 0-2.159.97-2.159 2.16v3.155h-1.19c-1.525 0-2.795-1.27-2.795-2.794V17.3H26.31v7.835c0 1.525-1.27 2.794-2.794 2.794zm-2.52 0h-3.986v-3.156c0-.458.373-.83.83-.83h2.326a.83.83 0 0 1 .83.83v3.155zm-7.518-17.206a.16.16 0 0 1 .127-.067h1.412v.665a.665.665 0 0 0 1.329 0l.041-1.993 1.287.041v1.952a.665.665 0 0 0 1.329 0v-.665H24.4c.074 0 .119.055.126.068l3.072 5.168c-.005.009-.043.079-.128.079H10.533c-.063 0-.099-.051-.116-.047l3.06-5.2zm12.27-.677c-.27-.457-.787-.718-1.347-.718h-5.407C18.947 8.664 18.357 8 17.632 8h-1.246c-.726 0-1.316.664-1.361 1.329h-1.42c-.561 0-1.077.261-1.348.718L9.186 15.22c-.254.429-.243.937.003 1.369.236.414.513.671 1.177.731v7.815a4.106 4.106 0 0 0 4.123 4.123h9.026a4.106 4.106 0 0 0 4.123-4.123V17.32c.664-.06.941-.323 1.177-.736.246-.432.25-.935-.005-1.364l-3.063-5.173z"/></g></svg>