<svg xmlns="http://www.w3.org/2000/svg" width="48" height="48" viewBox="0 0 48 48">
  <path fill="#90A4AE" fill-rule="evenodd" d="M15,38.00025 L15,25.41425 L24,16.41425 L33,25.41425 L33,38.00025 L15,38.00025 Z M13,21.41425 L15.707,18.70725 L18.707,15.70725 L24,10.41425 L35,21.41425 L35,24.58625 L34.708,24.29425 L34.706,24.29225 L24.707,14.29325 C24.512,14.09825 24.256,14.00025 24,14.00025 C23.744,14.00025 23.488,14.09825 23.293,14.29325 L13.294,24.29225 C13.293,24.29325 13.293,24.29325 13.292,24.29425 L13,24.58625 L13,21.41425 Z M16,13.00025 L17,13.00025 L17,14.58625 L16,15.58625 L16,13.00025 Z M39,38.00025 C39.553,38.00025 40,38.44725 40,39.00025 C40,39.55325 39.553,40.00025 39,40.00025 L34,40.00025 L14,40.00025 L9,40.00025 C8.448,40.00025 8,39.55325 8,39.00025 C8,38.44725 8.448,38.00025 9,38.00025 L13,38.00025 L13,27.41425 L12.707,27.70725 C12.42,27.99325 11.99,28.08025 11.617,27.92425 C11.244,27.77025 11,27.40425 11,27.00025 L11,21.00025 C11,20.73425 11.105,20.48025 11.293,20.29325 L14,17.58625 L14,12.00025 C14,11.44725 14.448,11.00025 15,11.00025 L18,11.00025 C18.552,11.00025 19,11.44725 19,12.00025 L19,12.58625 L23.293,8.29325 C23.684,7.90225 24.316,7.90225 24.707,8.29325 L36.707,20.29325 C36.895,20.48025 37,20.73425 37,21.00025 L37,27.00025 C37,27.40425 36.757,27.77025 36.383,27.92425 C36.259,27.97625 36.129,28.00025 36,28.00025 C35.74,28.00025 35.484,27.89825 35.293,27.70725 L35,27.41425 L35,38.00025 L39,38.00025 Z M25.0001,32.00025 L25.0001,30.00025 L27.0001,30.00025 L27.0001,32.00025 L25.0001,32.00025 Z M21.0001,32.00025 L21.0001,30.00025 L23.0001,30.00025 L23.0001,32.00025 L21.0001,32.00025 Z M21.0001,28.00025 L21.0001,26.00025 L23.0001,26.00025 L23.0001,28.00025 L21.0001,28.00025 Z M25.0001,28.00025 L25.0001,26.00025 L27.0001,26.00025 L27.0001,28.00025 L25.0001,28.00025 Z M27.0001,24.00025 L21.0001,24.00025 C19.8971,24.00025 19.0001,24.89725 19.0001,26.00025 L19.0001,32.00025 C19.0001,33.10325 19.8971,34.00025 21.0001,34.00025 L27.0001,34.00025 C28.1021,34.00025 29.0001,33.10325 29.0001,32.00025 L29.0001,26.00025 C29.0001,24.89725 28.1021,24.00025 27.0001,24.00025 Z"/>
</svg>
