<?xml version="1.0" encoding="UTF-8"?>
<svg width="16px" height="16px" viewBox="0 0 16 16" version="1.1" xmlns="http://www.w3.org/2000/svg" xmlns:xlink="http://www.w3.org/1999/xlink">
    <!-- Generator: Sketch 49.3 (51167) - http://www.bohemiancoding.com/sketch -->
    <title>Group 22</title>
    <desc>Created with Sketch.</desc>
    <defs></defs>
    <g id="Components" stroke="none" stroke-width="1" fill="none" fill-rule="evenodd">
        <g id="Icons" transform="translate(-173.000000, -3141.000000)">
            <g id="Group-22" transform="translate(174.000000, 3142.000000)">
                <path d="M7.18331666,0 C10.8911361,0 13.9076934,3.0165574 13.9076934,6.72489536 C13.9076934,8.27388228 13.3678557,9.7860503 12.3882654,10.9824055 L12.3270734,11.0581176 L12.2995888,11.0871578 L12.2861059,11.101678 L12.2731415,11.1161981 C11.9459199,11.4957958 11.578768,11.8375375 11.1825758,12.1310516 L11.1670186,12.1424603 L11.1519798,12.1543875 C9.55995111,13.4306034 7.53439271,14 4.58576879,14 C2.86098455,14 1.70455977,13.9201393 0,13.4772753 C0.738452421,12.5521354 1.07034115,11.6124755 1.07034115,10.4669408 C1.07034115,10.0204467 1.01122347,9.56824832 0.894025262,9.12382857 L0.881579435,9.07715672 L0.864984998,9.0320406 C0.595325407,8.29462533 0.458939882,7.51831685 0.458939882,6.72489536 C0.458939882,3.0165574 3.47549728,0 7.18331666,0" id="Fill-1" stroke="#B4C2C8" stroke-linecap="round" stroke-linejoin="round"></path>
                <circle id="Oval-2" fill="#B4C2C8" cx="4" cy="7" r="1"></circle>
                <circle id="Oval-2-Copy" fill="#B4C2C8" cx="7" cy="7" r="1"></circle>
                <circle id="Oval-2-Copy-2" fill="#B4C2C8" cx="10" cy="7" r="1"></circle>
                <path d="M0.512786865,5.9335022 C0.378860049,6.94639209 0.506794648,7.98951343 0.896590663,9.06286621 C1.28638668,10.136219 1.82341467,10.8761685 2.50767465,11.2827148" id="Path-4" stroke="#B4C2C8" stroke-linecap="round"></path>
            </g>
        </g>
    </g>
</svg>