<svg xmlns="http://www.w3.org/2000/svg" viewBox="0 0 15 15"><g id="Capa_2" data-name="Capa 2"><g id="Capa_1-2" data-name="Capa 1"><path d="M7.88,0H7.52A7.5,7.5,0,0,0,1,11.12L.07,13.56a1.06,1.06,0,0,0,1,1.44H7.52A7.5,7.5,0,0,0,7.88,0Zm4.36,12a6.47,6.47,0,0,1-4.72,2H1.06A.13.13,0,0,1,1,14a.13.13,0,0,1,0-.12l.77-2.06c.13.1.38.33.52.41a.53.53,0,0,0,.23.06.45.45,0,0,0,.41-.23.47.47,0,0,0-.17-.64,3.72,3.72,0,0,1-1-.9A6.53,6.53,0,0,1,7.52.94h.31a6.61,6.61,0,0,1,6.23,6.25A6.51,6.51,0,0,1,12.24,12Z"/><circle cx="4.5" cy="7.5" r="1"/><circle cx="7.5" cy="7.5" r="1"/><circle cx="10.5" cy="7.5" r="1"/></g></g></svg>