<svg width="16" height="16" xmlns="http://www.w3.org/2000/svg"><g transform="translate(1 1)" stroke="#B4C2C8" fill="none" fill-rule="evenodd"><path d="M7.231 0C10.963 0 14 3.017 14 6.725a6.71 6.71 0 0 1-1.53 4.257l-.061.076-.028.03-.013.014-.013.014c-.33.38-.7.722-1.098 1.015l-.016.011-.015.012C9.623 13.431 7.584 14 4.616 14c-1.736 0-2.9-.08-4.616-.523.743-.925 1.077-1.865 1.077-3.01 0-.447-.06-.899-.177-1.343l-.013-.047-.016-.045a6.657 6.657 0 0 1-.409-2.307C.462 3.017 3.499 0 7.231 0" stroke-linecap="round" stroke-linejoin="round"/><circle cx="4" cy="7" r="1"/><circle cx="7" cy="7" r="1"/><circle cx="10" cy="7" r="1"/><path d="M.513 5.934C.379 6.946.507 7.99.897 9.063s.926 1.813 1.61 2.22" stroke-linecap="round"/></g></svg>