<svg width="27" height="27" viewBox="0 0 27 27" xmlns="http://www.w3.org/2000/svg"><g id="Designs" fill="none" fill-rule="evenodd" stroke-linecap="round" stroke-linejoin="round"><g id="04.-Catalog-Upload-Car-type" transform="translate(-581 -330)" stroke="#36474F" stroke-width="2"><g id="Page-1" transform="translate(582 331)"><path d="M25 20c0 2.762-2.18 5-5 5H5c-3.102 0-5-2.238-5-5V5c0-2.762 2.18-5 5-5h15c3.102 0 5 2.238 5 5v15z" id="Stroke-1"/><path d="M25 19H0v-5l5-6c1-1 2-1 3 0l4 5c.659.79 1.272.728 2 0l3-3c1.1-1.1 2.9-1.1 4 0l4 4v5z" id="Stroke-3"/></g></g></g></svg>