<?xml version="1.0" encoding="UTF-8"?>
<svg width="27px" height="27px" viewBox="0 0 27 27" version="1.1" xmlns="http://www.w3.org/2000/svg" xmlns:xlink="http://www.w3.org/1999/xlink">
    <!-- Generator: Sketch 43.2 (39069) - http://www.bohemiancoding.com/sketch -->
    <title>Page 1</title>
    <desc>Created with Sketch.</desc>
    <defs></defs>
    <g id="Designs" stroke="none" stroke-width="1" fill="none" fill-rule="evenodd" stroke-linecap="round" stroke-linejoin="round">
        <g id="04.-Catalog-Upload-Car-type" transform="translate(-581.000000, -330.000000)" stroke="#36474F" stroke-width="2">
            <g id="Page-1" transform="translate(582.000000, 331.000000)">
                <path d="M25,20 C25,22.762 22.82,25 20,25 L5,25 C1.898,25 0,22.762 0,20 L0,5 C0,2.238 2.18,0 5,0 L20,0 C23.102,0 25,2.238 25,5 L25,20 Z" id="Stroke-1"></path>
                <path d="M25,19 L0,19 L0,14 L5,8 C6,7 7,7 8,8 L12,13 C12.659,13.79 13.272,13.728 14,13 L17,10 C18.1,8.9 19.9,8.9 21,10 L25,14 L25,19 Z" id="Stroke-3"></path>
            </g>
        </g>
    </g>
</svg>