<svg xmlns="http://www.w3.org/2000/svg" width="16" height="20" viewBox="0 0 16 20">
    <path fill="#13C1AC" fill-rule="evenodd" d="M12.908 10.821c.025 2.969 2.517 3.95 2.547 3.96-.015.07-.39 1.418-1.325 2.784-.78 1.205-1.598 2.383-2.896 2.403-1.262.03-1.686-.765-3.133-.765-1.46 0-1.912.745-3.122.796-1.237.047-2.182-1.285-2.99-2.48C.372 15.084-.886 10.654.8 7.64c.818-1.48 2.308-2.431 3.902-2.457 1.238-.026 2.387.863 3.148.863.746 0 2.167-1.063 3.631-.904.613.018 2.357.25 3.482 1.942-.091.056-2.078 1.261-2.056 3.738zm-2.413-7.679c-.68.827-1.766 1.46-2.824 1.378-.138-1.116.398-2.302.998-3.026C9.347.672 10.525.043 11.467 0c.124 1.16-.322 2.302-.972 3.142z"/>
</svg>
