<svg width="1182" height="591" viewBox="0 0 1182 591" xmlns="http://www.w3.org/2000/svg" xmlns:xlink="http://www.w3.org/1999/xlink"><defs><path d="M10 0h1160c5.523 0 10 4.477 10 10v68c0 5.522-4.477 10-10 10H10C4.477 88 0 83.521 0 78V10C0 4.477 4.477 0 10 0z" id="a"/><path d="M10 0h1160c5.523 0 10 4.477 10 10v68c0 5.522-4.477 10-10 10H10C4.477 88 0 83.521 0 78V10C0 4.477 4.477 0 10 0z" id="b"/><path d="M10 0h1160c5.523 0 10 4.477 10 10v68c0 5.522-4.477 10-10 10H10C4.477 88 0 83.521 0 78V10C0 4.477 4.477 0 10 0z" id="c"/><path d="M10 0h1160c5.523 0 10 4.477 10 10v68c0 5.522-4.477 10-10 10H10C4.477 88 0 83.521 0 78V10C0 4.477 4.477 0 10 0z" id="d"/><path d="M10 0h1160c5.523 0 10 4.477 10 10v68c0 5.522-4.477 10-10 10H10C4.477 88 0 83.521 0 78V10C0 4.477 4.477 0 10 0z" id="e"/><path d="M10 0h1160c5.523 0 10 4.477 10 10v68c0 5.522-4.477 10-10 10H10C4.477 88 0 83.521 0 78V10C0 4.477 4.477 0 10 0z" id="f"/><linearGradient x1="50%" y1="100%" x2="50%" y2="-46.811%" id="g"><stop stop-color="#F4F5F7" offset="0%"/><stop stop-color="#F4F5F7" stop-opacity="0" offset="100%"/></linearGradient></defs><g fill="none" fill-rule="evenodd"><g transform="translate(1 1)"><use fill="#FFF" xlink:href="#a"/><path stroke="#ECEFF1" d="M10-.5h1160c5.799 0 10.5 4.701 10.5 10.5v68c0 5.798-4.701 10.5-10.5 10.5H10C4.201 88.5-.5 83.797-.5 78V10C-.5 4.201 4.201-.5 10-.5z"/><rect fill="#ECEFF1" x="4" y="4" width="80" height="80" rx="6"/><rect fill="#ECEFF1" x="1111" y="24" width="40" height="40" rx="8"/><rect fill="#ECEFF1" x="1011" y="24" width="40" height="40" rx="8"/><rect fill="#ECEFF1" x="959" y="24" width="40" height="40" rx="8"/><path d="M790 24h149a8 8 0 0 1 8 8v24a8 8 0 0 1-8 8H790a8 8 0 0 1-8-8V32a8 8 0 0 1 8-8z" fill="#ECEFF1"/><rect fill="#ECEFF1" x="1061" y="24" width="40" height="40" rx="8"/><rect fill="#ECEFF1" x="104" y="36" width="74" height="16" rx="4"/><path d="M213 36h236a4 4 0 0 1 4 4v8a4 4 0 0 1-4 4H213a4 4 0 0 1-4-4v-8a4 4 0 0 1 4-4z" fill="#ECEFF1"/><circle fill="#ECEFF1" cx="589" cy="44" r="15"/><rect fill="#ECEFF1" x="613" y="36" width="30" height="16" rx="4"/><circle fill="#ECEFF1" cx="678" cy="44" r="15"/><rect fill="#ECEFF1" x="702" y="36" width="30" height="16" rx="4"/></g><g transform="translate(1 101)"><use fill="#FFF" xlink:href="#b"/><path stroke="#ECEFF1" d="M10-.5h1160c5.799 0 10.5 4.701 10.5 10.5v68c0 5.798-4.701 10.5-10.5 10.5H10C4.201 88.5-.5 83.797-.5 78V10C-.5 4.201 4.201-.5 10-.5z"/><rect fill="#ECEFF1" x="4" y="4" width="80" height="80" rx="6"/><rect fill="#ECEFF1" x="1111" y="24" width="40" height="40" rx="8"/><rect fill="#ECEFF1" x="1011" y="24" width="40" height="40" rx="8"/><rect fill="#ECEFF1" x="959" y="24" width="40" height="40" rx="8"/><path d="M790 24h149a8 8 0 0 1 8 8v24a8 8 0 0 1-8 8H790a8 8 0 0 1-8-8V32a8 8 0 0 1 8-8z" fill="#ECEFF1"/><rect fill="#ECEFF1" x="1061" y="24" width="40" height="40" rx="8"/><rect fill="#ECEFF1" x="104" y="36" width="74" height="16" rx="4"/><path d="M213 36h236a4 4 0 0 1 4 4v8a4 4 0 0 1-4 4H213a4 4 0 0 1-4-4v-8a4 4 0 0 1 4-4z" fill="#ECEFF1"/><circle fill="#ECEFF1" cx="589" cy="44" r="15"/><rect fill="#ECEFF1" x="613" y="36" width="30" height="16" rx="4"/><circle fill="#ECEFF1" cx="678" cy="44" r="15"/><rect fill="#ECEFF1" x="702" y="36" width="30" height="16" rx="4"/></g><g transform="translate(1 201)"><use fill="#FFF" xlink:href="#c"/><path stroke="#ECEFF1" d="M10-.5h1160c5.799 0 10.5 4.701 10.5 10.5v68c0 5.798-4.701 10.5-10.5 10.5H10C4.201 88.5-.5 83.797-.5 78V10C-.5 4.201 4.201-.5 10-.5z"/><rect fill="#ECEFF1" x="4" y="4" width="80" height="80" rx="6"/><rect fill="#ECEFF1" x="1111" y="24" width="40" height="40" rx="8"/><rect fill="#ECEFF1" x="1011" y="24" width="40" height="40" rx="8"/><rect fill="#ECEFF1" x="959" y="24" width="40" height="40" rx="8"/><path d="M790 24h149a8 8 0 0 1 8 8v24a8 8 0 0 1-8 8H790a8 8 0 0 1-8-8V32a8 8 0 0 1 8-8z" fill="#ECEFF1"/><rect fill="#ECEFF1" x="1061" y="24" width="40" height="40" rx="8"/><rect fill="#ECEFF1" x="104" y="36" width="74" height="16" rx="4"/><path d="M213 36h236a4 4 0 0 1 4 4v8a4 4 0 0 1-4 4H213a4 4 0 0 1-4-4v-8a4 4 0 0 1 4-4z" fill="#ECEFF1"/><circle fill="#ECEFF1" cx="589" cy="44" r="15"/><rect fill="#ECEFF1" x="613" y="36" width="30" height="16" rx="4"/><circle fill="#ECEFF1" cx="678" cy="44" r="15"/><rect fill="#ECEFF1" x="702" y="36" width="30" height="16" rx="4"/></g><g transform="translate(1 301)"><use fill="#FFF" xlink:href="#d"/><path stroke="#ECEFF1" d="M10-.5h1160c5.799 0 10.5 4.701 10.5 10.5v68c0 5.798-4.701 10.5-10.5 10.5H10C4.201 88.5-.5 83.797-.5 78V10C-.5 4.201 4.201-.5 10-.5z"/><rect fill="#ECEFF1" x="4" y="4" width="80" height="80" rx="6"/><rect fill="#ECEFF1" x="1111" y="24" width="40" height="40" rx="8"/><rect fill="#ECEFF1" x="1011" y="24" width="40" height="40" rx="8"/><rect fill="#ECEFF1" x="959" y="24" width="40" height="40" rx="8"/><path d="M790 24h149a8 8 0 0 1 8 8v24a8 8 0 0 1-8 8H790a8 8 0 0 1-8-8V32a8 8 0 0 1 8-8z" fill="#ECEFF1"/><rect fill="#ECEFF1" x="1061" y="24" width="40" height="40" rx="8"/><rect fill="#ECEFF1" x="104" y="36" width="74" height="16" rx="4"/><path d="M213 36h236a4 4 0 0 1 4 4v8a4 4 0 0 1-4 4H213a4 4 0 0 1-4-4v-8a4 4 0 0 1 4-4z" fill="#ECEFF1"/><circle fill="#ECEFF1" cx="589" cy="44" r="15"/><rect fill="#ECEFF1" x="613" y="36" width="30" height="16" rx="4"/><circle fill="#ECEFF1" cx="678" cy="44" r="15"/><rect fill="#ECEFF1" x="702" y="36" width="30" height="16" rx="4"/></g><g transform="translate(1 401)"><use fill="#FFF" xlink:href="#e"/><path stroke="#ECEFF1" d="M10-.5h1160c5.799 0 10.5 4.701 10.5 10.5v68c0 5.798-4.701 10.5-10.5 10.5H10C4.201 88.5-.5 83.797-.5 78V10C-.5 4.201 4.201-.5 10-.5z"/><rect fill="#ECEFF1" x="4" y="4" width="80" height="80" rx="6"/><rect fill="#ECEFF1" x="1111" y="24" width="40" height="40" rx="8"/><rect fill="#ECEFF1" x="1011" y="24" width="40" height="40" rx="8"/><rect fill="#ECEFF1" x="959" y="24" width="40" height="40" rx="8"/><path d="M790 24h149a8 8 0 0 1 8 8v24a8 8 0 0 1-8 8H790a8 8 0 0 1-8-8V32a8 8 0 0 1 8-8z" fill="#ECEFF1"/><rect fill="#ECEFF1" x="1061" y="24" width="40" height="40" rx="8"/><rect fill="#ECEFF1" x="104" y="36" width="74" height="16" rx="4"/><path d="M213 36h236a4 4 0 0 1 4 4v8a4 4 0 0 1-4 4H213a4 4 0 0 1-4-4v-8a4 4 0 0 1 4-4z" fill="#ECEFF1"/><circle fill="#ECEFF1" cx="589" cy="44" r="15"/><rect fill="#ECEFF1" x="613" y="36" width="30" height="16" rx="4"/><circle fill="#ECEFF1" cx="678" cy="44" r="15"/><rect fill="#ECEFF1" x="702" y="36" width="30" height="16" rx="4"/></g><g transform="translate(1 501)"><use fill="#FFF" xlink:href="#f"/><path stroke="#ECEFF1" d="M10-.5h1160c5.799 0 10.5 4.701 10.5 10.5v68c0 5.798-4.701 10.5-10.5 10.5H10C4.201 88.5-.5 83.797-.5 78V10C-.5 4.201 4.201-.5 10-.5z"/><rect fill="#ECEFF1" x="4" y="4" width="80" height="80" rx="6"/><rect fill="#ECEFF1" x="1111" y="24" width="40" height="40" rx="8"/><rect fill="#ECEFF1" x="1011" y="24" width="40" height="40" rx="8"/><rect fill="#ECEFF1" x="959" y="24" width="40" height="40" rx="8"/><path d="M790 24h149a8 8 0 0 1 8 8v24a8 8 0 0 1-8 8H790a8 8 0 0 1-8-8V32a8 8 0 0 1 8-8z" fill="#ECEFF1"/><rect fill="#ECEFF1" x="1061" y="24" width="40" height="40" rx="8"/><rect fill="#ECEFF1" x="104" y="36" width="74" height="16" rx="4"/><path d="M213 36h236a4 4 0 0 1 4 4v8a4 4 0 0 1-4 4H213a4 4 0 0 1-4-4v-8a4 4 0 0 1 4-4z" fill="#ECEFF1"/><circle fill="#ECEFF1" cx="589" cy="44" r="15"/><rect fill="#ECEFF1" x="613" y="36" width="30" height="16" rx="4"/><circle fill="#ECEFF1" cx="678" cy="44" r="15"/><rect fill="#ECEFF1" x="702" y="36" width="30" height="16" rx="4"/></g><path fill="url(#g)" d="M0 1h1180v589H0z" transform="translate(0 1)"/></g></svg>