<?xml version="1.0" encoding="UTF-8"?>
<svg width="1182px" height="591px" viewBox="0 0 1182 591" version="1.1" xmlns="http://www.w3.org/2000/svg" xmlns:xlink="http://www.w3.org/1999/xlink">
    <!-- Generator: Sketch 46.2 (44496) - http://www.bohemiancoding.com/sketch -->
    <title>Empty_state</title>
    <desc>Created with Sketch.</desc>
    <defs>
        <path d="M10,-1.80659524e-14 L1170,-1.4056898e-14 L1170,-1.42108547e-14 C1175.52285,-1.52253427e-14 1180,4.4771525 1180,10 L1180,77.9994543 L1180,77.9994543 C1180,83.5223018 1175.52285,87.9994543 1170,87.9994543 L10,87.9994543 L10,87.9994543 C4.4771525,87.9994543 -1.10000309e-15,83.5223018 -1.77635684e-15,77.9994543 L0,10 L1.77635684e-15,10 C1.10000309e-15,4.4771525 4.4771525,-1.85254373e-14 10,-1.95399252e-14 Z" id="path-1"></path>
        <path d="M10,-1.80659524e-14 L1170,-1.4056898e-14 L1170,-1.42108547e-14 C1175.52285,-1.52253427e-14 1180,4.4771525 1180,10 L1180,77.9994543 L1180,77.9994543 C1180,83.5223018 1175.52285,87.9994543 1170,87.9994543 L10,87.9994543 L10,87.9994543 C4.4771525,87.9994543 -1.10000309e-15,83.5223018 -1.77635684e-15,77.9994543 L0,10 L1.77635684e-15,10 C1.10000309e-15,4.4771525 4.4771525,-1.85254373e-14 10,-1.95399252e-14 Z" id="path-2"></path>
        <path d="M10,-1.80659524e-14 L1170,-1.4056898e-14 L1170,-1.42108547e-14 C1175.52285,-1.52253427e-14 1180,4.4771525 1180,10 L1180,77.9994543 L1180,77.9994543 C1180,83.5223018 1175.52285,87.9994543 1170,87.9994543 L10,87.9994543 L10,87.9994543 C4.4771525,87.9994543 -1.10000309e-15,83.5223018 -1.77635684e-15,77.9994543 L0,10 L1.77635684e-15,10 C1.10000309e-15,4.4771525 4.4771525,-1.85254373e-14 10,-1.95399252e-14 Z" id="path-3"></path>
        <path d="M10,-1.80659524e-14 L1170,-1.4056898e-14 L1170,-1.42108547e-14 C1175.52285,-1.52253427e-14 1180,4.4771525 1180,10 L1180,77.9994543 L1180,77.9994543 C1180,83.5223018 1175.52285,87.9994543 1170,87.9994543 L10,87.9994543 L10,87.9994543 C4.4771525,87.9994543 -1.10000309e-15,83.5223018 -1.77635684e-15,77.9994543 L0,10 L1.77635684e-15,10 C1.10000309e-15,4.4771525 4.4771525,-1.85254373e-14 10,-1.95399252e-14 Z" id="path-4"></path>
        <path d="M10,-1.80659524e-14 L1170,-1.4056898e-14 L1170,-1.42108547e-14 C1175.52285,-1.52253427e-14 1180,4.4771525 1180,10 L1180,77.9994543 L1180,77.9994543 C1180,83.5223018 1175.52285,87.9994543 1170,87.9994543 L10,87.9994543 L10,87.9994543 C4.4771525,87.9994543 -1.10000309e-15,83.5223018 -1.77635684e-15,77.9994543 L0,10 L1.77635684e-15,10 C1.10000309e-15,4.4771525 4.4771525,-1.85254373e-14 10,-1.95399252e-14 Z" id="path-5"></path>
        <path d="M10,-1.80659524e-14 L1170,-1.4056898e-14 L1170,-1.42108547e-14 C1175.52285,-1.52253427e-14 1180,4.4771525 1180,10 L1180,77.9994543 L1180,77.9994543 C1180,83.5223018 1175.52285,87.9994543 1170,87.9994543 L10,87.9994543 L10,87.9994543 C4.4771525,87.9994543 -1.10000309e-15,83.5223018 -1.77635684e-15,77.9994543 L0,10 L1.77635684e-15,10 C1.10000309e-15,4.4771525 4.4771525,-1.85254373e-14 10,-1.95399252e-14 Z" id="path-6"></path>
        <linearGradient x1="50%" y1="100%" x2="50%" y2="-46.8107076%" id="linearGradient-7">
            <stop stop-color="#F4F5F7" offset="0%"></stop>
            <stop stop-color="#F4F5F7" stop-opacity="0" offset="100%"></stop>
        </linearGradient>
    </defs>
    <g id="Final-Designs" stroke="none" stroke-width="1" fill="none" fill-rule="evenodd">
        <g id="Webapp---Catalog---Empty-State-v1" transform="translate(-131.000000, -144.000000)">
            <g id="Empty_state" transform="translate(131.000000, 145.000000)">
                <g id="catalog_empty_product" transform="translate(1.000000, 0.000000)">
                    <g id="Product-1">
                        <g id="Rectangle-4">
                            <use fill="#FFFFFF" fill-rule="evenodd" xlink:href="#path-1"></use>
                            <path stroke="#ECEFF1" stroke-width="1" d="M10,-0.5 L1170,-0.5 C1175.79899,-0.5 1180.5,4.20101013 1180.5,10 L1180.5,77.9994543 C1180.5,83.7984442 1175.79899,88.4994543 1170,88.4994543 L10,88.4994543 C4.20101013,88.4994543 -0.5,83.7984442 -0.5,77.9994543 L-0.5,10 C-0.5,4.20101013 4.20101013,-0.5 10,-0.5 Z"></path>
                        </g>
                        <rect id="Rectangle-16" fill="#ECEFF1" x="4" y="4" width="80" height="80" rx="6"></rect>
                        <rect id="Rectangle-19" fill="#ECEFF1" x="1111" y="24" width="40" height="40" rx="8"></rect>
                        <rect id="Rectangle-19" fill="#ECEFF1" x="1011" y="24" width="40" height="40" rx="8"></rect>
                        <rect id="Rectangle-19" fill="#ECEFF1" x="959" y="24" width="40" height="40" rx="8"></rect>
                        <path d="M790,24 L939,24 L939,24 C943.418278,24 947,27.581722 947,32 L947,56 L947,56 C947,60.418278 943.418278,64 939,64 L790,64 L790,64 C785.581722,64 782,60.418278 782,56 L782,32 L782,32 C782,27.581722 785.581722,24 790,24 Z" id="Rectangle-3" fill="#ECEFF1"></path>
                        <rect id="Rectangle-19" fill="#ECEFF1" x="1061" y="24" width="40" height="40" rx="8"></rect>
                        <rect id="Rectangle-41" fill="#ECEFF1" x="104" y="36" width="74" height="16" rx="4"></rect>
                        <path d="M213,36 L449,36 L449,36 C451.209139,36 453,37.790861 453,40 L453,48 L453,48 C453,50.209139 451.209139,52 449,52 L213,52 L213,52 C210.790861,52 209,50.209139 209,48 L209,40 L209,40 C209,37.790861 210.790861,36 213,36 Z" id="Rectangle-41" fill="#ECEFF1"></path>
                        <circle id="Oval-9" fill="#ECEFF1" cx="589" cy="44" r="15"></circle>
                        <rect id="Rectangle-57" fill="#ECEFF1" x="613" y="36" width="30" height="16" rx="4"></rect>
                        <circle id="Oval-9" fill="#ECEFF1" cx="678" cy="44" r="15"></circle>
                        <rect id="Rectangle-57" fill="#ECEFF1" x="702" y="36" width="30" height="16" rx="4"></rect>
                    </g>
                </g>
                <g id="catalog_empty_product" transform="translate(1.000000, 100.000000)">
                    <g id="Product-1">
                        <g id="Rectangle-4">
                            <use fill="#FFFFFF" fill-rule="evenodd" xlink:href="#path-2"></use>
                            <path stroke="#ECEFF1" stroke-width="1" d="M10,-0.5 L1170,-0.5 C1175.79899,-0.5 1180.5,4.20101013 1180.5,10 L1180.5,77.9994543 C1180.5,83.7984442 1175.79899,88.4994543 1170,88.4994543 L10,88.4994543 C4.20101013,88.4994543 -0.5,83.7984442 -0.5,77.9994543 L-0.5,10 C-0.5,4.20101013 4.20101013,-0.5 10,-0.5 Z"></path>
                        </g>
                        <rect id="Rectangle-16" fill="#ECEFF1" x="4" y="4" width="80" height="80" rx="6"></rect>
                        <rect id="Rectangle-19" fill="#ECEFF1" x="1111" y="24" width="40" height="40" rx="8"></rect>
                        <rect id="Rectangle-19" fill="#ECEFF1" x="1011" y="24" width="40" height="40" rx="8"></rect>
                        <rect id="Rectangle-19" fill="#ECEFF1" x="959" y="24" width="40" height="40" rx="8"></rect>
                        <path d="M790,24 L939,24 L939,24 C943.418278,24 947,27.581722 947,32 L947,56 L947,56 C947,60.418278 943.418278,64 939,64 L790,64 L790,64 C785.581722,64 782,60.418278 782,56 L782,32 L782,32 C782,27.581722 785.581722,24 790,24 Z" id="Rectangle-3" fill="#ECEFF1"></path>
                        <rect id="Rectangle-19" fill="#ECEFF1" x="1061" y="24" width="40" height="40" rx="8"></rect>
                        <rect id="Rectangle-41" fill="#ECEFF1" x="104" y="36" width="74" height="16" rx="4"></rect>
                        <path d="M213,36 L449,36 L449,36 C451.209139,36 453,37.790861 453,40 L453,48 L453,48 C453,50.209139 451.209139,52 449,52 L213,52 L213,52 C210.790861,52 209,50.209139 209,48 L209,40 L209,40 C209,37.790861 210.790861,36 213,36 Z" id="Rectangle-41" fill="#ECEFF1"></path>
                        <circle id="Oval-9" fill="#ECEFF1" cx="589" cy="44" r="15"></circle>
                        <rect id="Rectangle-57" fill="#ECEFF1" x="613" y="36" width="30" height="16" rx="4"></rect>
                        <circle id="Oval-9" fill="#ECEFF1" cx="678" cy="44" r="15"></circle>
                        <rect id="Rectangle-57" fill="#ECEFF1" x="702" y="36" width="30" height="16" rx="4"></rect>
                    </g>
                </g>
                <g id="catalog_empty_product" transform="translate(1.000000, 200.000000)">
                    <g id="Product-1">
                        <g id="Rectangle-4">
                            <use fill="#FFFFFF" fill-rule="evenodd" xlink:href="#path-3"></use>
                            <path stroke="#ECEFF1" stroke-width="1" d="M10,-0.5 L1170,-0.5 C1175.79899,-0.5 1180.5,4.20101013 1180.5,10 L1180.5,77.9994543 C1180.5,83.7984442 1175.79899,88.4994543 1170,88.4994543 L10,88.4994543 C4.20101013,88.4994543 -0.5,83.7984442 -0.5,77.9994543 L-0.5,10 C-0.5,4.20101013 4.20101013,-0.5 10,-0.5 Z"></path>
                        </g>
                        <rect id="Rectangle-16" fill="#ECEFF1" x="4" y="4" width="80" height="80" rx="6"></rect>
                        <rect id="Rectangle-19" fill="#ECEFF1" x="1111" y="24" width="40" height="40" rx="8"></rect>
                        <rect id="Rectangle-19" fill="#ECEFF1" x="1011" y="24" width="40" height="40" rx="8"></rect>
                        <rect id="Rectangle-19" fill="#ECEFF1" x="959" y="24" width="40" height="40" rx="8"></rect>
                        <path d="M790,24 L939,24 L939,24 C943.418278,24 947,27.581722 947,32 L947,56 L947,56 C947,60.418278 943.418278,64 939,64 L790,64 L790,64 C785.581722,64 782,60.418278 782,56 L782,32 L782,32 C782,27.581722 785.581722,24 790,24 Z" id="Rectangle-3" fill="#ECEFF1"></path>
                        <rect id="Rectangle-19" fill="#ECEFF1" x="1061" y="24" width="40" height="40" rx="8"></rect>
                        <rect id="Rectangle-41" fill="#ECEFF1" x="104" y="36" width="74" height="16" rx="4"></rect>
                        <path d="M213,36 L449,36 L449,36 C451.209139,36 453,37.790861 453,40 L453,48 L453,48 C453,50.209139 451.209139,52 449,52 L213,52 L213,52 C210.790861,52 209,50.209139 209,48 L209,40 L209,40 C209,37.790861 210.790861,36 213,36 Z" id="Rectangle-41" fill="#ECEFF1"></path>
                        <circle id="Oval-9" fill="#ECEFF1" cx="589" cy="44" r="15"></circle>
                        <rect id="Rectangle-57" fill="#ECEFF1" x="613" y="36" width="30" height="16" rx="4"></rect>
                        <circle id="Oval-9" fill="#ECEFF1" cx="678" cy="44" r="15"></circle>
                        <rect id="Rectangle-57" fill="#ECEFF1" x="702" y="36" width="30" height="16" rx="4"></rect>
                    </g>
                </g>
                <g id="catalog_empty_product" transform="translate(1.000000, 300.000000)">
                    <g id="Product-1">
                        <g id="Rectangle-4">
                            <use fill="#FFFFFF" fill-rule="evenodd" xlink:href="#path-4"></use>
                            <path stroke="#ECEFF1" stroke-width="1" d="M10,-0.5 L1170,-0.5 C1175.79899,-0.5 1180.5,4.20101013 1180.5,10 L1180.5,77.9994543 C1180.5,83.7984442 1175.79899,88.4994543 1170,88.4994543 L10,88.4994543 C4.20101013,88.4994543 -0.5,83.7984442 -0.5,77.9994543 L-0.5,10 C-0.5,4.20101013 4.20101013,-0.5 10,-0.5 Z"></path>
                        </g>
                        <rect id="Rectangle-16" fill="#ECEFF1" x="4" y="4" width="80" height="80" rx="6"></rect>
                        <rect id="Rectangle-19" fill="#ECEFF1" x="1111" y="24" width="40" height="40" rx="8"></rect>
                        <rect id="Rectangle-19" fill="#ECEFF1" x="1011" y="24" width="40" height="40" rx="8"></rect>
                        <rect id="Rectangle-19" fill="#ECEFF1" x="959" y="24" width="40" height="40" rx="8"></rect>
                        <path d="M790,24 L939,24 L939,24 C943.418278,24 947,27.581722 947,32 L947,56 L947,56 C947,60.418278 943.418278,64 939,64 L790,64 L790,64 C785.581722,64 782,60.418278 782,56 L782,32 L782,32 C782,27.581722 785.581722,24 790,24 Z" id="Rectangle-3" fill="#ECEFF1"></path>
                        <rect id="Rectangle-19" fill="#ECEFF1" x="1061" y="24" width="40" height="40" rx="8"></rect>
                        <rect id="Rectangle-41" fill="#ECEFF1" x="104" y="36" width="74" height="16" rx="4"></rect>
                        <path d="M213,36 L449,36 L449,36 C451.209139,36 453,37.790861 453,40 L453,48 L453,48 C453,50.209139 451.209139,52 449,52 L213,52 L213,52 C210.790861,52 209,50.209139 209,48 L209,40 L209,40 C209,37.790861 210.790861,36 213,36 Z" id="Rectangle-41" fill="#ECEFF1"></path>
                        <circle id="Oval-9" fill="#ECEFF1" cx="589" cy="44" r="15"></circle>
                        <rect id="Rectangle-57" fill="#ECEFF1" x="613" y="36" width="30" height="16" rx="4"></rect>
                        <circle id="Oval-9" fill="#ECEFF1" cx="678" cy="44" r="15"></circle>
                        <rect id="Rectangle-57" fill="#ECEFF1" x="702" y="36" width="30" height="16" rx="4"></rect>
                    </g>
                </g>
                <g id="catalog_empty_product" transform="translate(1.000000, 400.000000)">
                    <g id="Product-1">
                        <g id="Rectangle-4">
                            <use fill="#FFFFFF" fill-rule="evenodd" xlink:href="#path-5"></use>
                            <path stroke="#ECEFF1" stroke-width="1" d="M10,-0.5 L1170,-0.5 C1175.79899,-0.5 1180.5,4.20101013 1180.5,10 L1180.5,77.9994543 C1180.5,83.7984442 1175.79899,88.4994543 1170,88.4994543 L10,88.4994543 C4.20101013,88.4994543 -0.5,83.7984442 -0.5,77.9994543 L-0.5,10 C-0.5,4.20101013 4.20101013,-0.5 10,-0.5 Z"></path>
                        </g>
                        <rect id="Rectangle-16" fill="#ECEFF1" x="4" y="4" width="80" height="80" rx="6"></rect>
                        <rect id="Rectangle-19" fill="#ECEFF1" x="1111" y="24" width="40" height="40" rx="8"></rect>
                        <rect id="Rectangle-19" fill="#ECEFF1" x="1011" y="24" width="40" height="40" rx="8"></rect>
                        <rect id="Rectangle-19" fill="#ECEFF1" x="959" y="24" width="40" height="40" rx="8"></rect>
                        <path d="M790,24 L939,24 L939,24 C943.418278,24 947,27.581722 947,32 L947,56 L947,56 C947,60.418278 943.418278,64 939,64 L790,64 L790,64 C785.581722,64 782,60.418278 782,56 L782,32 L782,32 C782,27.581722 785.581722,24 790,24 Z" id="Rectangle-3" fill="#ECEFF1"></path>
                        <rect id="Rectangle-19" fill="#ECEFF1" x="1061" y="24" width="40" height="40" rx="8"></rect>
                        <rect id="Rectangle-41" fill="#ECEFF1" x="104" y="36" width="74" height="16" rx="4"></rect>
                        <path d="M213,36 L449,36 L449,36 C451.209139,36 453,37.790861 453,40 L453,48 L453,48 C453,50.209139 451.209139,52 449,52 L213,52 L213,52 C210.790861,52 209,50.209139 209,48 L209,40 L209,40 C209,37.790861 210.790861,36 213,36 Z" id="Rectangle-41" fill="#ECEFF1"></path>
                        <circle id="Oval-9" fill="#ECEFF1" cx="589" cy="44" r="15"></circle>
                        <rect id="Rectangle-57" fill="#ECEFF1" x="613" y="36" width="30" height="16" rx="4"></rect>
                        <circle id="Oval-9" fill="#ECEFF1" cx="678" cy="44" r="15"></circle>
                        <rect id="Rectangle-57" fill="#ECEFF1" x="702" y="36" width="30" height="16" rx="4"></rect>
                    </g>
                </g>
                <g id="catalog_empty_product" transform="translate(1.000000, 500.000000)">
                    <g id="Product-1">
                        <g id="Rectangle-4">
                            <use fill="#FFFFFF" fill-rule="evenodd" xlink:href="#path-6"></use>
                            <path stroke="#ECEFF1" stroke-width="1" d="M10,-0.5 L1170,-0.5 C1175.79899,-0.5 1180.5,4.20101013 1180.5,10 L1180.5,77.9994543 C1180.5,83.7984442 1175.79899,88.4994543 1170,88.4994543 L10,88.4994543 C4.20101013,88.4994543 -0.5,83.7984442 -0.5,77.9994543 L-0.5,10 C-0.5,4.20101013 4.20101013,-0.5 10,-0.5 Z"></path>
                        </g>
                        <rect id="Rectangle-16" fill="#ECEFF1" x="4" y="4" width="80" height="80" rx="6"></rect>
                        <rect id="Rectangle-19" fill="#ECEFF1" x="1111" y="24" width="40" height="40" rx="8"></rect>
                        <rect id="Rectangle-19" fill="#ECEFF1" x="1011" y="24" width="40" height="40" rx="8"></rect>
                        <rect id="Rectangle-19" fill="#ECEFF1" x="959" y="24" width="40" height="40" rx="8"></rect>
                        <path d="M790,24 L939,24 L939,24 C943.418278,24 947,27.581722 947,32 L947,56 L947,56 C947,60.418278 943.418278,64 939,64 L790,64 L790,64 C785.581722,64 782,60.418278 782,56 L782,32 L782,32 C782,27.581722 785.581722,24 790,24 Z" id="Rectangle-3" fill="#ECEFF1"></path>
                        <rect id="Rectangle-19" fill="#ECEFF1" x="1061" y="24" width="40" height="40" rx="8"></rect>
                        <rect id="Rectangle-41" fill="#ECEFF1" x="104" y="36" width="74" height="16" rx="4"></rect>
                        <path d="M213,36 L449,36 L449,36 C451.209139,36 453,37.790861 453,40 L453,48 L453,48 C453,50.209139 451.209139,52 449,52 L213,52 L213,52 C210.790861,52 209,50.209139 209,48 L209,40 L209,40 C209,37.790861 210.790861,36 213,36 Z" id="Rectangle-41" fill="#ECEFF1"></path>
                        <circle id="Oval-9" fill="#ECEFF1" cx="589" cy="44" r="15"></circle>
                        <rect id="Rectangle-57" fill="#ECEFF1" x="613" y="36" width="30" height="16" rx="4"></rect>
                        <circle id="Oval-9" fill="#ECEFF1" cx="678" cy="44" r="15"></circle>
                        <rect id="Rectangle-57" fill="#ECEFF1" x="702" y="36" width="30" height="16" rx="4"></rect>
                    </g>
                </g>
                <rect id="Overlay" fill="url(#linearGradient-7)" x="0" y="1" width="1180" height="589"></rect>
            </g>
        </g>
    </g>
</svg>