<svg width="29" height="29" viewBox="0 0 29 29" xmlns="http://www.w3.org/2000/svg"><path d="M14.339 19.49a5.045 5.045 0 0 1-4.918-3.994c-.002-.01 0-.02.007-.028a.036.036 0 0 1 .027-.013h9.768c.01 0 .02.005.027.013a.034.034 0 0 1 .007.028 5.045 5.045 0 0 1-4.918 3.994M14.199 0C6.357 0 0 6.357 0 14.2c0 7.841 6.357 14.198 14.2 14.198 7.841 0 14.198-6.357 14.198-14.199S22.041 0 14.2 0zm0 26.692c-6.888 0-12.493-5.604-12.493-12.493 0-6.888 5.605-12.493 12.493-12.493 6.889 0 12.493 5.605 12.493 12.493 0 6.889-5.604 12.493-12.493 12.493zm5.024-12.943H9.455c-.526 0-1.019.234-1.351.643-.333.409-.461.939-.354 1.454.649 3.1 3.42 5.35 6.589 5.35 3.169 0 5.94-2.25 6.588-5.35a1.735 1.735 0 0 0-.353-1.455 1.736 1.736 0 0 0-1.351-.642zm2.742-3.413H20.61l.957-.957a.853.853 0 1 0-1.206-1.207l-2.412 2.413a.869.869 0 0 0-.108.131c-.013.02-.022.041-.034.062-.015.028-.032.055-.045.085-.01.027-.017.056-.026.084-.007.025-.017.05-.022.075a.857.857 0 0 0 0 .334c.005.026.015.05.022.075.009.028.015.057.026.084.013.03.03.057.045.085.012.021.02.042.034.062a.855.855 0 0 0 .237.237c.019.012.04.02.059.032.029.016.057.033.088.046.026.011.055.018.082.026.026.007.05.017.077.022.055.011.11.017.167.017h3.413a.853.853 0 1 0 0-1.706zm-12.063 1.69c.026-.006.05-.016.076-.023.028-.008.056-.015.083-.026.03-.013.059-.03.087-.046.02-.01.04-.02.06-.032a.855.855 0 0 0 .237-.237c.013-.02.022-.041.033-.062.016-.028.032-.055.045-.085.011-.027.018-.056.026-.084.008-.025.017-.05.022-.075a.857.857 0 0 0 0-.334c-.005-.026-.014-.05-.022-.075-.008-.028-.015-.057-.026-.084-.013-.03-.03-.057-.045-.085-.011-.02-.02-.042-.033-.062a.869.869 0 0 0-.108-.131L7.925 8.172A.853.853 0 1 0 6.718 9.38l.957.957H6.322a.853.853 0 1 0 0 1.706h3.413a.846.846 0 0 0 .167-.017z" fill="#333" fill-rule="evenodd"/></svg>