<svg xmlns="http://www.w3.org/2000/svg" width="48" height="48" viewBox="0 0 48 48">
  <path fill="#90A4AE" fill-rule="evenodd" d="M34.25,24.845125 C34.242,24.841125 34.237,24.833125 34.229,24.829125 L31.271,23.406125 L33.756,22.105125 L36.763,23.492125 L34.25,24.845125 Z M24,30.365125 L21.031,28.766125 L24.15,27.133125 L27.161,28.662125 L24,30.365125 Z M14.246,22.104125 L17.021,23.512125 L14.107,25.037125 L11.237,23.492125 L14.246,22.104125 Z M24,17.602125 L26.291,18.659125 L23.952,19.884125 L21.555,18.731125 L24,17.602125 Z M26.198,20.965125 L28.583,19.717125 L31.465,21.047125 L29.024,22.324125 L26.198,20.965125 Z M19.199,19.818125 L21.742,21.041125 L19.196,22.373125 L16.561,21.035125 L19.199,19.818125 Z M16.232,26.182125 L19.209,24.624125 L21.962,26.022125 L18.906,27.621125 L16.232,26.182125 Z M24.137,24.883125 L21.385,23.486125 L23.989,22.122125 L26.814,23.482125 L24.137,24.883125 Z M29.305,27.508125 L26.325,25.994125 L29.062,24.563125 L32.079,26.014125 L29.305,27.508125 Z M39.419,22.515125 L24.419,15.592125 C24.153,15.469125 23.847,15.469125 23.581,15.592125 L8.581,22.515125 C8.237,22.674125 8.012,23.014125 8,23.392125 C7.989,23.771125 8.192,24.124125 8.526,24.304125 L23.526,32.381125 C23.674,32.460125 23.837,32.500125 24,32.500125 C24.163,32.500125 24.326,32.460125 24.474,32.381125 L39.474,24.304125 C39.808,24.124125 40.011,23.771125 40,23.392125 C39.988,23.014125 39.763,22.674125 39.419,22.515125 Z"/>
</svg>
