<svg width="94" height="58" xmlns="http://www.w3.org/2000/svg"><path d="M0 58v-2h94v2H0zm73-10v4.615C73 53.96 73.909 55 74.957 55h4.086C80.092 55 81 53.96 81 52.615V48h-8zm10 4.615C83 55.009 81.261 57 79.043 57h-4.086C72.74 57 71 55.009 71 52.615V46h12v6.615zM13 48v4.615C13 53.96 13.909 55 14.957 55h4.086C20.092 55 21 53.96 21 52.615V48h-8zm10 4.615C23 55.009 21.261 57 19.043 57h-4.086C12.74 57 11 55.009 11 52.615V46h12v6.615zM7.322 46h79.356c.73 0 1.322-.591 1.322-1.32V21.987A5.99 5.99 0 0 0 82.006 16H11.994A5.991 5.991 0 0 0 6 21.987V44.68c0 .729.592 1.32 1.322 1.32zm0 2A3.321 3.321 0 0 1 4 44.68V21.987C4 17.577 7.58 14 11.994 14h70.012C86.421 14 90 17.576 90 21.987V44.68A3.321 3.321 0 0 1 86.678 48H7.322zm5.923-7.333a1 1 0 0 1 0-2h8.83a1 1 0 0 1 0 2h-8.83zm60.609 0v-2h8.83v2h-8.83zm0-2h8.83v2h-8.83v-2zM9 27h2v7H9v-7zm2 0v7H9v-7h2zm72 0h2v7h-2v-7zm2 0v7h-2v-7h2zM6 27v-2h82v2H6zm0-2h82v2H6v-2zm0 10v-2h82v2H6zm0-2h82v2H6v-2zm12.279-6.307l1.442-1.386 7.687 8-1.442 1.386-7.687-8zm57.687-1.386l1.442 1.386-7.687 8-1.442-1.386 7.687-8zm1.442 1.386l-7.687 8-1.442-1.386 7.687-8 1.442 1.386zM18.4 14h57.2l-3.34-9.735C71.792 2.901 70.56 2 69.186 2H24.814c-1.374 0-2.607.902-3.075 2.265L18.4 14zm-2.346.676l3.793-11.06C20.59 1.453 22.577 0 24.814 0h44.372c2.238 0 4.223 1.453 4.966 3.616L78.4 16H15.6l.454-1.324zM14.861 14c.644 0 1.139-.463 1.139-1 0-.537-.495-1-1.139-1h-4.722C9.495 12 9 12.463 9 13c0 .537.495 1 1.139 1h4.722zm0 2h-4.722C8.419 16 7 14.673 7 13s1.42-3 3.139-3h4.722C16.581 10 18 11.327 18 13s-1.42 3-3.139 3zm69-2c.644 0 1.139-.463 1.139-1 0-.537-.495-1-1.139-1h-4.722c-.644 0-1.139.463-1.139 1 0 .537.495 1 1.139 1h4.722zm0 2h-4.722C77.419 16 76 14.673 76 13s1.42-3 3.139-3h4.722C85.581 10 87 11.327 87 13s-1.42 3-3.139 3zM40.447 9.395a1 1 0 1 1 1.053 1.7l-7.761 4.802a1 1 0 0 1-1.053-1.7l7.761-4.802zm5.597-3.938a1 1 0 0 1 1.074 1.687l-1.164.74a1 1 0 0 1-1.074-1.687l1.164-.74zM41.271.603a1 1 0 0 1 1.052 1.7L20.35 15.898a1 1 0 1 1-1.052-1.7L41.27.602l.001.001z" fill="#607D8B" fill-rule="nonzero"/></svg>