<svg width="190" height="138" xmlns="http://www.w3.org/2000/svg"><g fill="none" fill-rule="evenodd"><path d="M68.958 93.988c-.392 0-.753.13-1.043.35a.358.358 0 0 1-.39-.028v.001a1.737 1.737 0 0 0-2.74 1.418c.004 1.943 2.308 3.087 2.848 3.328.036.013.074.02.115.02a.27.27 0 0 0 .117-.024 1.837 1.837 0 0 1 .056-.025c.637-.296 2.779-1.43 2.776-3.307a1.736 1.736 0 0 0-1.74-1.733" fill="#90A4AE"/><path d="M140.329 15.702a3.212 3.212 0 0 0-2.048-.036.658.658 0 0 1-.666-.29 3.235 3.235 0 0 0-5.691.784c-1.207 3.41 2.123 6.85 2.921 7.61a.6.6 0 0 0 .41.139l.096-.009c.005 0 .012 0 .019-.002 1.3-.122 5.765-.78 6.93-4.073a3.23 3.23 0 0 0-1.971-4.123" fill="#C6EDF6"/><path d="M73.556.14a3.072 3.072 0 0 0-1.836.676.626.626 0 0 1-.694-.028 3.089 3.089 0 0 0-4.797 2.665c.106 3.457 4.262 5.37 5.236 5.77a.577.577 0 0 0 .205.03.478.478 0 0 0 .208-.049c.026-.011.053-.025.082-.04l.016-.008h.001c1.115-.559 4.865-2.689 4.761-6.024A3.088 3.088 0 0 0 73.556.14" fill="#C1F5E6"/><path d="M47.534 36.474l-.978-.495a3.35 3.35 0 0 1-1.773-2.334l-.214-1.074a.62.62 0 0 0-1.164-.16l-.494.978a3.352 3.352 0 0 1-2.335 1.772l-1.076.214a.621.621 0 0 0-.16 1.162l.98.495a3.346 3.346 0 0 1 1.772 2.333l.213 1.076a.623.623 0 0 0 1.164.16l.495-.98a3.349 3.349 0 0 1 2.335-1.77l1.076-.215a.62.62 0 0 0 .159-1.162" fill="#90A4AE"/><path d="M129.188 96.594l-.962-.486a3.292 3.292 0 0 1-1.743-2.295l-.21-1.056a.61.61 0 0 0-1.143-.158l-.487.963a3.292 3.292 0 0 1-2.296 1.741l-1.058.21a.61.61 0 0 0-.156 1.143l.962.487a3.293 3.293 0 0 1 1.743 2.294l.21 1.057a.611.611 0 0 0 1.143.156l.487-.96a3.293 3.293 0 0 1 2.296-1.742l1.058-.21a.612.612 0 0 0 .156-1.144" fill="#C6EDF6"/><g stroke="#13C1AC" stroke-linecap="round" stroke-linejoin="round" stroke-width="2"><path d="M46.775 51.104s-2.212-7.165-12.32-2.98c-10.11 4.186-24.69 7.503-33.263 2.314 0 0 3.06 12.6 18.636 7.631M9.118 59.69s4.106 8.874 14.897 4.415M17.327 66.052s2.75 6.275 12.835 1.986M27.072 69.871s2.438 4.942 8.516 1.3c6.077-3.643 6.855-5.784 6.855-5.784M37.063 55.536s9.126-3.867 10.617 2.613M34.861 62.994l2.3-.61"/></g><g stroke="#13C1AC" stroke-linecap="round" stroke-linejoin="round" stroke-width="2"><path d="M145.54 50.799c-.77-10.484 8.071-12.189 8.071-12.189 15.7-2.31 28.373-10.396 33.491-20.171 0 0 9.88 15.099-20.745 24.123M187.291 31.52s7.876 10.025-16.746 15.938M185.703 41.722s1.25 7.89-11.72 10.801M180.791 50.43s.6 7.893-11.877 6.292"/><path d="M174.015 57.147a17.34 17.34 0 0 1-9.226 3.383 20.423 20.423 0 0 1-4.4-.19c-3.723-.55-8.061-2.131-13.05-5.301M154.1 51.001s2.768.717 4.197.359M157.582 45.81s2.323 0 3.127-.27"/></g><path d="M122.065 49.164s2.454.633 3.721.317M125.153 44.575s2.058 0 2.77-.237" fill="#FFF"/><path d="M54.884 82.599l-.496-.565a2.29 2.29 0 0 1-.531-1.936l.139-.738a.427.427 0 0 0-.7-.398l-.565.495c-.53.465-1.245.661-1.938.531l-.739-.138a.426.426 0 0 0-.398.7l.496.563c.466.53.661 1.244.531 1.937l-.138.738a.427.427 0 0 0 .7.399l.564-.496a2.293 2.293 0 0 1 1.938-.531l.739.138a.426.426 0 0 0 .398-.699M131.066 5.376l-.496-.564a2.291 2.291 0 0 1-.532-1.937l.139-.738a.426.426 0 0 0-.7-.398l-.564.495a2.297 2.297 0 0 1-1.938.531l-.74-.138a.426.426 0 0 0-.398.7l.496.564c.466.529.661 1.243.532 1.936l-.14.739a.428.428 0 0 0 .7.398l.565-.496a2.297 2.297 0 0 1 1.938-.531l.74.138a.426.426 0 0 0 .398-.699" fill="#C2FFF5"/><path d="M144.84 85.976l-.52-.592a2.404 2.404 0 0 1-.557-2.032l.145-.775a.447.447 0 0 0-.734-.417l-.592.52a2.41 2.41 0 0 1-2.034.557l-.775-.145a.447.447 0 0 0-.418.733l.52.592c.49.556.694 1.306.558 2.032l-.145.776a.448.448 0 0 0 .734.417l.592-.52a2.41 2.41 0 0 1 2.033-.557l.776.145a.447.447 0 0 0 .418-.734" fill="#C1F5E6"/><path d="M78.295 37.532c-.932.543-.752.883-1.748.775M99.893 25.183c-.564-2.62 1.663-1.004-.959-.44-1.146.245.218-.97-.457-.119" fill="#F3F3F3"/><g stroke="#CFD8DC" stroke-linecap="round" stroke-width="2"><path d="M84.262 94l.11 22.152M109.56 98.946l.11 14.557M97.317 88v48.734" stroke-linejoin="round"/><path d="M109.317 118v9.494M84.317 120v2.532"/></g><g stroke="#607D8B" stroke-width="2"><path d="M91.25 28L70.333 40.823M90.475 37.118l-5.795 3.553M95.79 32.56l-1.109.698M62 51v6M132 51v6" stroke-linecap="round"/><path d="M59 50h76M59 58h76" stroke-linecap="round" stroke-linejoin="round"/><path d="M69.174 50l8.455 8M124.536 50l-7.927 8"/><path d="M68.014 41l3.663-10.307C72.261 29.078 73.817 28 75.56 28h42.848c1.743 0 3.297 1.078 3.881 2.693L125.953 41H68.014zM60.157 71C58.966 71 58 69.987 58 68.8V48c0-3.573 2.908-7 6.495-7h65.01c3.588 0 6.495 3.427 6.495 7v20.8c0 1.187-.966 2.2-2.157 2.2H60.157zM65 64h8.406M123 64h8.406M66 41c1.16 0 2-.86 2-2 0-1.142-.84-2-2-2h-4c-1.16 0-2 .858-2 2 0 1.14.84 2 2 2h4zM132 41c1.16 0 2-.86 2-2 0-1.142-.84-2-2-2h-4c-1.16 0-2 .858-2 2 0 1.14.84 2 2 2h4zM131 72v4.991c0 1.662-1.323 3.009-2.957 3.009h-4.086c-1.632 0-2.957-1.347-2.957-3.009V72M73 72v4.991C73 78.653 71.677 80 70.043 80h-4.086C64.325 80 63 78.653 63 76.991V72" stroke-linecap="round" stroke-linejoin="round"/></g></g></svg>