<svg width="16" height="18" viewBox="0 0 16 18" xmlns="http://www.w3.org/2000/svg"><g id="Styleguide" fill="none" fill-rule="evenodd"><g id="ICONS" transform="translate(-81 -220)" fill="#B0BEC5"><path d="M95.928 227.976c0 .232-.012.468-.036.7l-.002.026-.002.027c-.063 1.238-.613 3.172-2.875 5.351-1.359 1.309-2.84 2.233-3.685 2.671l-.316.155c-.665-.32-2.316-1.257-3.845-2.674-2.405-2.228-2.989-4.218-3.055-5.495l-.001-.027-.003-.026a7.016 7.016 0 0 1-.036-.708c0-3.809 3.108-6.907 6.928-6.907s6.928 3.098 6.928 6.907m-14.928 0c0 .275.014.547.041.816.261 5.028 6.24 8.516 7.666 9.152.096.036.201.056.31.056a.72.72 0 0 0 .317-.065c.04-.017.081-.037.126-.058.009-.004.017-.007.025-.012 1.676-.777 7.227-4.239 7.474-9.082.027-.265.041-.535.041-.807 0-4.405-3.582-7.976-8-7.976s-8 3.57-8 7.976zm11.017-.073A3.016 3.016 0 0 1 89 230.91a3.016 3.016 0 0 1-3.017-3.008A3.016 3.016 0 0 1 89 224.895a3.016 3.016 0 0 1 3.017 3.008zm-7.106 0A4.083 4.083 0 0 0 89 231.98a4.083 4.083 0 0 0 4.089-4.077A4.083 4.083 0 0 0 89 223.826a4.083 4.083 0 0 0-4.09 4.077z" id="Location"/></g></g></svg>