<svg xmlns="http://www.w3.org/2000/svg" width="56" height="56" viewBox="0 0 56 56">
    <path fill="#000" fill-rule="nonzero" d="M38.08 35.84v-9.52c0-5.567-4.513-10.08-10.08-10.08s-10.08 4.513-10.08 10.08v9.52c0 .31.25.56.56.56h2.24c.31 0 .56-.25.56-.56v-9.52a6.72 6.72 0 0 1 13.44 0v9.52c0 .31.25.56.56.56h2.24c.31 0 .56-.25.56-.56zm0 2.24h-3.36a1.68 1.68 0 0 1-1.68-1.68V26.32a5.04 5.04 0 0 0-10.08 0V36.4a1.68 1.68 0 0 1-1.68 1.68h-3.36a1.68 1.68 0 0 1-1.68-1.68V26.32c0-6.495 5.265-11.76 11.76-11.76s11.76 5.265 11.76 11.76V36.4a1.68 1.68 0 0 1-1.68 1.68zm-20.16-6.16h3.36v1.68h-3.36v-1.68zm16.8 0h3.36v1.68h-3.36v-1.68zm-7.44 8.248l1.31-2.183-2.808-2.34a.84.84 0 0 1-.182-1.077l1.68-2.8a.84.84 0 0 1 1.44.864l-1.31 2.183 2.808 2.34a.84.84 0 0 1 .182 1.077l-1.68 2.8a.84.84 0 0 1-1.44-.864z"/>
</svg>
