<svg xmlns="http://www.w3.org/2000/svg" width="42" height="42" viewBox="0 0 42 42"><path fill="#CFD8DC" fill-rule="evenodd" d="M23.072 31.659c-3.512 3.51-9.22 3.508-12.728 0-3.508-3.51-3.508-9.219 0-12.727a8.971 8.971 0 0 1 6.365-2.633 8.97 8.97 0 0 1 6.363 2.633c3.508 3.508 3.508 9.217 0 12.727M37.235 5.875c-.012-.061-.012-.122-.035-.183a1.468 1.468 0 0 0-.34-.55 1.47 1.47 0 0 0-.46-.306c-.022-.009-.04-.021-.06-.027a1.489 1.489 0 0 0-.5-.099c-.032 0-.062.002-.093.003-.053.002-.105-.003-.16.005l-7.424 1.06a1.5 1.5 0 0 0 .424 2.971l2.97-.426-7.498 7.499c-4.704-3.651-11.517-3.33-15.836.989-4.68 4.678-4.68 12.29 0 16.969a11.958 11.958 0 0 0 8.484 3.51c3.074 0 6.146-1.17 8.486-3.51 4.318-4.319 4.642-11.133.987-15.837l7.498-7.499-.424 2.972a1.5 1.5 0 0 0 2.971.425l1.06-7.425c.005-.034-.011-.062-.008-.095a1.402 1.402 0 0 0-.042-.446"/></svg>