<svg xmlns="http://www.w3.org/2000/svg" width="30" height="30" viewBox="0 0 30 30"><path fill="#607D8B" fill-rule="evenodd" d="M15 0c8.285 0 15 6.715 15 15s-6.715 15-15 15S0 23.285 0 15 6.715 0 15 0zm0 28.125c7.237 0 13.125-5.888 13.125-13.125S22.237 1.875 15 1.875 1.875 7.763 1.875 15 7.763 28.125 15 28.125zm6.563-16.875c.517 0 .937.42.937.938v.937a2.816 2.816 0 0 1-2.813 2.813h-3.75v1.874a.937.937 0 1 1-1.874 0v-1.875H9.375v1.876a.937.937 0 1 1-1.875 0v-5.625a.937.937 0 1 1 1.875 0v1.874h4.688v-1.874a.937.937 0 1 1 1.874 0v1.874h3.75c.517 0 .938-.42.938-.937v-.938c0-.518.42-.937.938-.937zM15 10.312a.937.937 0 0 1-.938-.937v-.938a.937.937 0 1 1 1.876 0v.938c0 .518-.42.938-.938.938zm-6.563 0a.937.937 0 0 1-.937-.937v-.938a.937.937 0 1 1 1.875 0v.938c0 .518-.42.938-.938.938zM21.563 7.5c.517 0 .937.42.937.938v.937a.937.937 0 1 1-1.875 0v-.938c0-.518.42-.937.938-.937zM15 19.688c.518 0 .938.419.938.937v.938a.937.937 0 1 1-1.876 0v-.938c0-.518.42-.938.938-.938zm-6.563 0c.518 0 .938.419.938.937v.938a.937.937 0 1 1-1.875 0v-.938c0-.518.42-.938.938-.938z"/></svg>