<svg xmlns="http://www.w3.org/2000/svg" width="56" height="56" viewBox="0 0 56 56">
    <path fill="#000" fill-rule="nonzero" d="M26.392 33.06l2.687 2.926a2.67 2.67 0 0 1 0 3.778c-1.043 1.044-2.734 1.044-3.802-.025l-2.993-3.253-.16.134c-.858.715-2.134.6-2.85-.258l-2.686-3.224a2.025 2.025 0 0 1 .26-2.848l4.658-3.885 4.907-8.413a2.022 2.022 0 0 1 3.365-.194l7.812 10.416c.923 1.229.19 2.999-1.331 3.215l-9.547 1.365-.32.266zm-1.291 1.077l-1.525 1.272 2.913 3.167a.99.99 0 0 0 1.402 0c.388-.387.388-1.014-.025-1.427l-2.765-3.012zm-3.028-6.018l-4.15 3.46a.344.344 0 0 0-.044.485l2.685 3.222a.344.344 0 0 0 .483.044l4.772-3.98a.84.84 0 0 1 .42-.186l9.782-1.398a.343.343 0 0 0 .225-.544l-7.812-10.416a.342.342 0 0 0-.57.033l-4.673 8.01 1.712 1.906a.84.84 0 1 1-1.25 1.123l-1.58-1.759zm20.18-6.442a.84.84 0 0 1-1.68 0c0-2.772-1.872-4.877-4.877-4.877a.84.84 0 1 1 0-1.68c3.98 0 6.556 2.899 6.556 6.557zm-3.625.173a.84.84 0 0 1-1.68 0c0-.837-.533-1.437-1.436-1.437a.84.84 0 1 1 0-1.68c1.878 0 3.116 1.393 3.116 3.117z"/>
</svg>
