<svg xmlns="http://www.w3.org/2000/svg" xmlns:xlink="http://www.w3.org/1999/xlink" width="38" height="38" viewBox="0 0 38 38">
    <defs>
        <path id="a" d="M56 447h618v66H56z"/>
    </defs>
    <g fill="none" fill-rule="evenodd">
        <g fill="#333">
            <path d="M9.823 28.17A1.068 1.068 0 0 1 9 27.133c0-.36.252-.689.252-.689.802-.92 1.246-1.855 1.246-3.17 0-.463-.064-.91-.176-1.339A9.63 9.63 0 0 1 19.37 9a9.63 9.63 0 0 1 7.453 15.727l.011.008c-.057.062-.117.122-.175.184a9.676 9.676 0 0 1-1.56 1.452c-2.488 1.994-5.515 2.572-8.952 2.572-2.217 0-3.84-.099-6.324-.772zm1.858-4.278c-.11 1.166-.54 2.167-1.356 3.159 2.185.577 3.637.68 5.822.68 3.677 0 6.204-.71 8.194-2.306l.018-.014.018-.013a8.487 8.487 0 0 0 1.365-1.27l.015-.018.016-.017.028-.03.085-.103a8.432 8.432 0 0 0 1.902-5.33c0-4.642-3.776-8.418-8.418-8.418-4.642 0-8.419 3.776-8.419 8.418 0 .218.01.435.026.65l.047.328.07.355c.022.12.054.238.087.357.033.113.061.249.097.345l.124.371c.04.125.09.224.133.336.081.216.198.43.294.637.115.199.213.398.332.572.113.177.221.342.334.487l.157.21.152.18c.094.115.178.213.254.288l.23.242.023.025a.606.606 0 1 1-.903.808l-.248-.293a4.96 4.96 0 0 1-.271-.347l-.161-.217-.047-.072zm4.904-4.902a1.255 1.255 0 1 1-2.51 0 1.255 1.255 0 0 1 2.51 0zm2.784 1.255a1.255 1.255 0 1 1 0-2.51 1.255 1.255 0 0 1 0 2.51zm4.039 0a1.255 1.255 0 1 1 0-2.51 1.255 1.255 0 0 1 0 2.51z"/>
        </g>
    </g>
</svg>
