<svg xmlns="http://www.w3.org/2000/svg" width="26" height="18" viewBox="0 0 26 18"><path fill="#13C1AC" fill-rule="evenodd" d="M24.375 13.71a.88.88 0 0 1-.869.888h-1.204c-.194-1.175-1.19-2.074-2.396-2.074-1.205 0-2.202.9-2.396 2.074H7.677c-.194-1.175-1.19-2.074-2.396-2.074-1.205 0-2.202.9-2.396 2.074h-.391a.879.879 0 0 1-.869-.888V9.954c0-.364.215-.688.546-.823l2.684-1.096c.048-.02.09-.05.135-.072h4.76a.82.82 0 0 0 .813-.829.82.82 0 0 0-.813-.83H6.836l.059-.059C9.477 3.61 12.91 2.16 16.56 2.16h2.956c2.678 0 4.858 2.224 4.858 4.958v6.593zm-4.469 2.131a.822.822 0 0 1-.812-.829c0-.457.364-.83.812-.83.449 0 .813.373.813.83 0 .457-.364.83-.813.83zm-14.625 0a.822.822 0 0 1-.812-.829c0-.457.364-.83.812-.83.449 0 .813.373.813.83 0 .457-.364.83-.813.83zM19.517.5h-2.956C12.475.5 8.635 2.124 5.746 5.072l-1.2 1.226a.848.848 0 0 1-.293.197L1.567 7.59A2.534 2.534 0 0 0 0 9.954v3.756c0 1.404 1.119 2.546 2.494 2.546h.689c.423.74 1.2 1.244 2.098 1.244.898 0 1.676-.504 2.099-1.244h10.428c.423.74 1.2 1.244 2.098 1.244.898 0 1.676-.504 2.099-1.244h1.501c1.375 0 2.494-1.142 2.494-2.546V7.117C26 3.468 23.091.5 19.517.5z"/></svg>