<svg xmlns="http://www.w3.org/2000/svg" width="48" height="48" viewBox="0 0 48 48">
  <path fill="#333" fill-rule="evenodd" d="M25.8543704,14.9910444 L25.8563704,14.9910444 L25.8543704,14.9910444 Z M25.8563704,14.9910444 C25.8573704,14.9920444 25.8583704,14.9920444 25.8583704,14.9920444 C25.8583704,14.9920444 25.8573704,14.9920444 25.8563704,14.9910444 Z M25.8593704,14.9920444 L25.8603704,14.9920444 L25.8593704,14.9920444 Z M25.8613704,14.9920444 L25.8623704,14.9920444 L25.8613704,14.9920444 Z M26.0273704,15.0020444 C25.9283704,15.0540444 25.6853704,15.2650444 25.4123704,15.8020444 C24.7083704,17.1800444 20.3393704,20.1010444 19.0173704,20.9640444 C18.4983704,21.3030444 17.8643704,22.6890444 17.6223704,25.0200444 C17.3473704,27.6680444 17.7603704,29.8770444 18.1783704,30.2950444 C19.8993704,32.0150444 24.1253704,32.8200444 27.5073704,33.0000444 C28.0863704,33.0420444 28.5663704,32.4480444 28.8863704,31.9550444 C30.4003704,29.6210444 30.9823704,24.4970444 29.9603704,22.5020444 C29.7013704,21.9960444 29.4793704,21.9840444 29.4063704,21.9810444 L25.6713704,21.9970444 C25.6073704,22.0030444 25.5423704,22.0050444 25.4793704,21.9980444 L24.4753704,22.0020444 L24.4713704,22.0020444 C23.9203704,22.0020444 23.4733704,21.5560444 23.4713704,21.0060444 C23.4693704,20.4530444 23.9153704,20.0040444 24.4673704,20.0020444 L25.0993704,19.9990444 C25.5563704,19.3860444 26.4713704,17.9160444 26.4713704,16.0020444 C26.4713704,15.3150444 26.2943704,15.1050444 26.2403704,15.0570444 C26.1963704,15.0180444 26.1223704,14.9940444 26.1223704,14.9940444 C26.0893704,14.9980444 26.0583704,15.0010444 26.0273704,15.0020444 Z M27.5533704,35.0020444 C27.5013704,35.0020444 27.4513704,35.0000444 27.4023704,34.9980444 C25.0683704,34.8740444 19.3603704,34.3040444 16.7643704,31.7090444 C15.4433704,30.3870444 15.4313704,26.7530444 15.6323704,24.8130444 C15.8003704,23.1990444 16.3213704,20.3350444 17.9243704,19.2890444 C20.9863704,17.2920444 23.3463704,15.4020444 23.6313704,14.8890444 C24.4953704,13.2000444 25.5303704,13.0010444 25.9713704,13.0010444 L25.9763704,13.0010444 C26.2563704,12.9850444 26.9463704,13.0120444 27.5653704,13.5590444 C28.1673704,14.0920444 28.4713704,14.9130444 28.4713704,16.0020444 C28.4713704,17.6370444 27.9773704,19.0050444 27.4603704,19.9900444 L29.4513704,19.9820444 C30.4393704,20.0290444 31.2333704,20.5990444 31.7413704,21.5900444 C33.0813704,24.2070444 32.4763704,30.0950444 30.5643704,33.0430444 C29.5293704,34.6390444 28.3813704,35.0020444 27.5533704,35.0020444 Z"/>
</svg>
