<svg width="29" height="26" viewBox="0 0 29 26" xmlns="http://www.w3.org/2000/svg"><g id="Report" fill="none" fill-rule="evenodd"><g id="MVP-1.3---Report--Listing" transform="translate(-574 -465)" fill="#333"><g id="Overlay-Report-Listing" transform="translate(97 186)"><g id="Group" transform="translate(461 262)"><path d="M41.988 20.697H28.546l-1.018-2.262c-.373-.83-1.29-1.4-2.142-1.4V17h-6.933C17.177 17 16 18.035 16 19.31v20.905c0 1.276 1.177 2.382 2.453 2.382h23.535c1.276 0 2.169-1.106 2.169-2.382V22.866c0-1.276-.893-2.169-2.169-2.169zm.462 19.518c0 .333-.129.676-.462.676H18.453c-.333 0-.747-.343-.747-.676V19.311c0-.333.414-.605.747-.605h6.967a.63.63 0 0 1 .569.357l.717 1.634h-.752a.853.853 0 1 0 0 1.707H41.99c.332 0 .461.129.461.462v17.35zm-11.023-8.43l3.612-3.611a.853.853 0 1 0-1.207-1.207l-3.611 3.612-3.612-3.612a.853.853 0 1 0-1.206 1.207l3.611 3.611-3.703 3.703a.853.853 0 1 0 1.207 1.207l3.703-3.703 3.702 3.703a.85.85 0 0 0 1.207 0 .853.853 0 0 0 0-1.207l-3.703-3.703z" id="report_wrong_category"/></g></g></g></g></svg>