<svg xmlns="http://www.w3.org/2000/svg" width="16" height="17" viewBox="0 0 16 17">
    <path fill="#546E7A" fill-rule="nonzero" d="M7.951.218a.444.444 0 0 0-.264.125L5.465 2.566a.445.445 0 1 0 .625.632l1.466-1.466v6.042H1.514L2.979 6.31a.445.445 0 1 0-.625-.632L.132 7.899a.445.445 0 0 0 0 .632l2.222 2.222a.444.444 0 1 0 .625-.631L1.514 8.663h6.042v6.035L6.09 13.233a.444.444 0 1 0-.625.632l2.222 2.222a.444.444 0 0 0 .626 0l2.222-2.222a.445.445 0 1 0-.625-.632l-1.466 1.465V8.663h6.042l-1.465 1.459a.445.445 0 1 0 .625.631l2.222-2.222a.445.445 0 0 0 0-.632l-2.222-2.222a.444.444 0 1 0-.625.632l1.465 1.465H8.444V1.732L9.91 3.198a.444.444 0 1 0 .625-.632L8.313.343A.444.444 0 0 0 7.95.218z"/>
</svg>
