<svg xmlns="http://www.w3.org/2000/svg" width="34" height="34" viewBox="0 0 34 34"><path fill="#FFF" fill-rule="evenodd" d="M10.75 25.653a.434.434 0 0 1-.43.437H9.305a.434.434 0 0 1-.429-.437V24.62c0-.241.193-.438.43-.438h1.016c.236 0 .429.197.429.438v1.034zm-.43-3.38c1.271 0 2.305 1.052 2.305 2.346v1.034c0 1.294-1.034 2.347-2.304 2.347H9.304C8.034 28 7 26.947 7 25.653V24.62c0-1.294 1.034-2.346 2.304-2.346h1.017zm15.742 1.909c.518 0 .938.427.938.954 0 .527-.42.955-.938.955H15.438a.946.946 0 0 1-.937-.955c0-.527.42-.954.938-.954h10.624zM10.322 7c1.27 0 2.304 1.053 2.304 2.346v1.034c0 1.294-1.034 2.347-2.304 2.347H9.304C8.034 12.727 7 11.674 7 10.38V9.346C7 8.053 8.034 7 9.304 7h1.017zm.429 3.38V9.346a.435.435 0 0 0-.43-.438H9.305a.435.435 0 0 0-.429.438v1.034c0 .242.193.438.43.438h1.016a.434.434 0 0 0 .429-.438zm4.688.438a.946.946 0 0 1-.938-.955c0-.527.42-.954.938-.954h10.624c.518 0 .938.427.938.954 0 .527-.42.955-.938.955H15.438zm-5.117 3.818c1.27 0 2.304 1.053 2.304 2.347v1.034c0 1.293-1.034 2.347-2.304 2.347H9.304C8.034 20.364 7 19.31 7 18.017v-1.034c0-1.294 1.034-2.347 2.304-2.347h1.017zm.429 3.38v-1.033a.435.435 0 0 0-.43-.438H9.305a.435.435 0 0 0-.429.438v1.034c0 .24.193.437.43.437h1.016a.434.434 0 0 0 .429-.437zm15.313-1.47c.517 0 .937.427.937.954 0 .527-.42.954-.938.954H15.438a.946.946 0 0 1-.937-.954c0-.527.42-.955.938-.955h10.624z"/></svg>