<svg xmlns="http://www.w3.org/2000/svg" width="34" height="34" viewBox="0 0 34 34"><path fill="#FFF" fill-rule="evenodd" d="M17 17.625c-.534 0-.968-.42-.968-.938v-8.75c0-.517.434-.937.968-.937s.968.42.968.938v8.75c0 .517-.434.937-.968.937zM17 27c-5.514 0-10-4.346-10-9.688 0-2.985 1.39-5.76 3.813-7.61a.99.99 0 0 1 1.36.155.919.919 0 0 1-.161 1.317c-1.956 1.493-3.077 3.73-3.077 6.139 0 4.308 3.618 7.812 8.065 7.812 4.447 0 8.065-3.504 8.065-7.813 0-2.408-1.122-4.646-3.077-6.139a.919.919 0 0 1-.16-1.317.99.99 0 0 1 1.358-.155C25.61 11.55 27 14.326 27 17.312 27 22.654 22.514 27 17 27z"/></svg>