<svg width="34" height="34" viewBox="0 0 34 34" fill="none" xmlns="http://www.w3.org/2000/svg"><path fill-rule="evenodd" clip-rule="evenodd" d="M27.929 24.018V35.66l10.214-5.815-.032-11.67-10.182 5.844zm-12.072-5.812v11.638l10.215 5.815V24.02l-10.215-5.814zm.921-1.575l10.22-5.819 4.109 2.36-10.146 5.776c-.01.005-.017.012-.024.02a.112.112 0 01-.021.018l-4.138-2.355zm20.41.03L27 22.45l-4.25-2.42 10.193-5.804 4.244 2.436zm1.855-1.104c.569.324.92.919.923 1.562L40 29.84a1.805 1.805 0 01-.921 1.57l-11.143 6.345a1.9 1.9 0 01-1.872 0L14.921 31.41A1.807 1.807 0 0114 29.844V17.156c0-.644.351-1.24.921-1.566l11.143-6.344a1.9 1.9 0 011.87 0l11.109 6.31zM12 24a1 1 0 00-1-1H9l-.117.007A1 1 0 009 25h2l.116-.007A1 1 0 0012 24zm-1-6a1 1 0 01.116 1.993L11 20h-1a1 1 0 01-.117-1.993L10 18h1zm1 11a1 1 0 00-1-1h-1l-.117.007A1 1 0 0010 30h1l.116-.007A1 1 0 0012 29z" fill="#253238" transform="translate(-5 -5)"/></svg>