<svg width="34" height="34" viewBox="0 0 34 34" fill="none" xmlns="http://www.w3.org/2000/svg"><g clip-path="url(#clip0)" fill-rule="evenodd" clip-rule="evenodd" fill="#253238"><path d="M22.806 10.668a1.01 1.01 0 01.074 1.427l-8.387 9.297a1.01 1.01 0 01-1.408.09l-3.537-3.031a1.01 1.01 0 111.316-1.535l2.788 2.39 7.727-8.564a1.01 1.01 0 011.427-.074z"/><path d="M15.918 2.083l-3.223 3.223c-.49.638-1.271.757-1.68.757H6.365a.302.302 0 00-.208.095.302.302 0 00-.095.208v4.648c0 .582-.213 1.093-.606 1.617l-.048.064-3.384 3.281a.27.27 0 000 .383l3.274 3.175c.644.49.764 1.275.764 1.686v4.648c0 .062.027.14.095.208a.301.301 0 00.208.095h4.648c.35 0 .677.11.916.22.245.113.504.276.708.48l3.335 3.335c.11.11.279.11.39 0l3.278-3.278c.49-.638 1.27-.757 1.68-.757h4.648c.062 0 .14-.027.208-.095a.302.302 0 00.096-.208V21.22c0-.286.035-.594.155-.906a2.34 2.34 0 01.545-.819l.005-.005 3.333-3.232a.27.27 0 000-.383L27.036 12.7c-.644-.49-.764-1.275-.764-1.686V6.366a.302.302 0 00-.095-.208.302.302 0 00-.208-.095h-4.648c-.56 0-1.165-.14-1.624-.6L16.363 2.13a.342.342 0 00-.234-.096.387.387 0 00-.211.05zM14.627.525c.883-.707 2.274-.716 3.165.175l3.317 3.318h.001c.026.008.09.024.211.024h4.648a2.348 2.348 0 012.324 2.324v4.648a.445.445 0 00.015.109l.016.011 3.407 3.303.005.006c.9.9.9 2.348 0 3.248l-.005.005-3.334 3.233a.33.33 0 00-.082.11.51.51 0 00-.022.181v4.648a2.348 2.348 0 01-2.324 2.324h-4.648a.445.445 0 00-.109.015l-.015.023-3.405 3.405c-.9.9-2.348.9-3.248 0l-3.333-3.333s-.01-.009-.033-.024a.712.712 0 00-.185-.086H6.366a2.348 2.348 0 01-2.324-2.324V21.22a.442.442 0 00-.014-.109l-.017-.01-3.406-3.304-.006-.005c-.9-.9-.9-2.348 0-3.248l.006-.006 3.278-3.179c.082-.116.12-.194.138-.24a.265.265 0 00.02-.105V6.366a2.348 2.348 0 012.325-2.324h4.648a.444.444 0 00.109-.014l.015-.024L14.583.56l.044-.035z"/></g><defs><clipPath id="clip0"><path fill="#fff" d="M0 0h32.335v32.133H0z"/></clipPath></defs></svg>