<?xml version="1.0" encoding="UTF-8"?>
<svg width="24px" height="24px" viewBox="0 0 24 24" version="1.1" xmlns="http://www.w3.org/2000/svg" xmlns:xlink="http://www.w3.org/1999/xlink">
    <!-- Generator: Sketch 42 (36781) - http://www.bohemiancoding.com/sketch -->
    <title>navigation_catalog</title>
    <desc>Created with Sketch.</desc>
    <defs></defs>
    <g id="Styleguide" stroke="none" stroke-width="1" fill="none" fill-rule="evenodd" opacity="0.5">
        <g id="//-Navigation" transform="translate(-33.000000, -303.000000)" fill-rule="nonzero" fill="#FFFFFF">
            <g id="/-Catalog" transform="translate(20.000000, 290.000000)">
                <g id="navigation_catalog" transform="translate(13.000000, 13.000000)">
                    <path d="M22,15.2806271 L22,8.66531522 C22,4.57449828 19.1652654,2 15.7319614,2 L8.27054837,2 C4.83598946,2 2,4.57449828 2,8.66531522 L2,15.2806271 C2,19.3700926 4.83598946,22 8.27054837,22 L15.7319614,22 C19.1652654,22 22,19.3700926 22,15.2806271 Z M23.5,15.2806271 C23.5,20.0488857 20.1398793,23.5 15.7319614,23.5 L8.27054837,23.5 C3.86142043,23.5 0.5,20.048978 0.5,15.2806271 L0.5,8.66531522 C0.5,3.90240844 3.85333188,0.5 8.27054837,0.5 L15.7319614,0.5 C20.1479611,0.5 23.5,3.90250313 23.5,8.66531522 L23.5,15.2806271 Z M12,9 C12,9.55613518 12.4435864,10 12.990778,10 L17.009222,10 C17.5490248,10 18,9.55228475 18,9 C18,8.44386482 17.5564136,8 17.009222,8 L12.990778,8 C12.4509752,8 12,8.44771525 12,9 Z M6,9 C6,10.1122704 6.8954305,11 8,11 C9.11227036,11 10,10.1045695 10,9 C10,7.88772964 9.1045695,7 8,7 C6.88772964,7 6,7.8954305 6,9 Z M12,15 C12,15.5561352 12.4435864,16 12.990778,16 L17.009222,16 C17.5490248,16 18,15.5522847 18,15 C18,14.4438648 17.5564136,14 17.009222,14 L12.990778,14 C12.4509752,14 12,14.4477153 12,15 Z M6,15 C6,16.1122704 6.8954305,17 8,17 C9.11227036,17 10,16.1045695 10,15 C10,13.8877296 9.1045695,13 8,13 C6.88772964,13 6,13.8954305 6,15 Z" id="Combined-Shape"></path>
                </g>
            </g>
        </g>
    </g>
</svg>