<?xml version="1.0" encoding="UTF-8" standalone="no"?>
<svg width="34px" height="34px" viewBox="0 0 34 34" version="1.1" xmlns="http://www.w3.org/2000/svg" xmlns:xlink="http://www.w3.org/1999/xlink">
    <!-- Generator: Sketch 47.1 (45422) - http://www.bohemiancoding.com/sketch -->
    <title>IC_MESSAGES</title>
    <desc>Created with Sketch.</desc>
    <defs></defs>
    <g id="DRAFTS_1" stroke="none" stroke-width="1" fill="none" fill-rule="evenodd">
        <g id="Assets" transform="translate(-583.000000, -72.000000)" fill="#FFFFFF">
            <g id="Group-6" transform="translate(583.000000, 72.000000)">
                <path d="M17.4987595,7.00933213 C22.6020918,7.24374536 26.7833987,11.4250523 27.0178119,16.5290097 C27.1453327,19.2919603 26.1664231,21.9123877 24.2611124,23.9064629 C22.3551765,25.9030385 19.7860075,27.0013427 17.0274326,27.0013427 L9.19615537,27.0013427 C8.4666614,27.0013427 7.78342496,26.6437844 7.36773217,26.0436865 C6.95203937,25.4442137 6.85639877,24.6784638 7.11269057,23.9952274 L8.07097186,21.4404357 C7.39148604,20.0702123 7.0258014,18.5530898 7.0258014,16.9997115 C7.0258014,14.2411366 8.12410553,11.6719676 10.1206812,9.76603173 C12.1153815,7.86072098 14.7351837,6.88431174 17.4987595,7.00933213 Z M22.9052662,22.6118768 C24.4530186,20.9909874 25.2481483,18.8612651 25.1450065,16.6152738 C24.9537253,12.4695977 21.5575464,9.07341877 17.4118703,8.88213757 C15.165879,8.78712207 13.0361566,9.57475053 11.4152673,11.1218779 C9.79375283,12.6708805 8.90110725,14.758721 8.90110725,16.9997115 C8.90110725,18.9562806 9.60622225,20.8465889 10.8858059,22.3218295 C11.2252363,22.7131433 11.1833545,23.3051148 10.7926657,23.6445452 C10.6151368,23.7983203 10.395726,23.8745827 10.1788156,23.8745827 C9.91627282,23.8745827 9.6556053,23.7651899 9.46995002,23.551405 C9.42494268,23.4995216 9.38618636,23.4426373 9.34242923,23.3901287 L8.86860195,24.6534598 C8.81234277,24.8028591 8.86985215,24.9191281 8.90860847,24.9753873 C8.9479899,25.0316464 9.03675437,25.1260368 9.19615537,25.1260368 L17.0274326,25.1260368 C19.2690482,25.1260368 21.3562636,24.2333912 22.9052662,22.6118768 Z M17.0272451,16.3749221 C17.5448295,16.3749221 17.964898,16.7949906 17.964898,17.312575 C17.964898,17.8301594 17.5448295,18.2502279 17.0272451,18.2502279 C16.5096606,18.2502279 16.0895921,17.8301594 16.0895921,17.312575 C16.0895921,16.7949906 16.5096606,16.3749221 17.0272451,16.3749221 Z M12.6515314,16.3749221 C13.1691158,16.3749221 13.5891843,16.7949906 13.5891843,17.312575 C13.5891843,17.8301594 13.1691158,18.2502279 12.6515314,18.2502279 C12.133947,18.2502279 11.7138785,17.8301594 11.7138785,17.312575 C11.7138785,16.7949906 12.133947,16.3749221 12.6515314,16.3749221 Z M21.4029587,16.3749221 C21.9205431,16.3749221 22.3406116,16.7949906 22.3406116,17.312575 C22.3406116,17.8301594 21.9205431,18.2502279 21.4029587,18.2502279 C20.8853743,18.2502279 20.4653058,17.8301594 20.4653058,17.312575 C20.4653058,16.7949906 20.8853743,16.3749221 21.4029587,16.3749221 Z" id="Combined-Shape"></path>
            </g>
        </g>
    </g>
</svg>