<svg width="18" height="19" viewBox="0 0 22 25" xmlns="http://www.w3.org/2000/svg"><defs><path id="a" d="M0 23.132V.637h21.843v22.495z"/></defs><path d="M6.288 4.845h-.004a.62.62 0 0 0-.449.195l-1.9 1.986c-.416.513-.504 1.1.26 2.791.02.044 1.471 3.386 4.165 6.133 2.706 2.759 6.532 4.496 6.57 4.513 1.259.585 1.739.607 2.149.107l1.969-2.01a.607.607 0 0 0 .173-.45.606.606 0 0 0-.204-.436l-2.49-2.222c-.17-.152-.38-.34-.863.16l-1.688 1.711a.555.555 0 0 1-.648.107c-.049-.025-1.23-.64-3.516-2.97-2.314-2.36-2.918-4.157-2.944-4.233a.582.582 0 0 1 .152-.6l1.637-1.554c.481-.587.374-.697.211-.864L6.734 5.034a.62.62 0 0 0-.446-.189m10.11 17.23c-.708 0-1.417-.33-1.928-.567-.157-.071-4.05-1.838-6.905-4.747-2.85-2.907-4.332-6.331-4.394-6.475-.738-1.63-1.01-2.878-.071-4.027l1.933-2.02A1.728 1.728 0 0 1 6.278 3.7h.01c.469 0 .909.186 1.24.524l2.134 2.175c1.006 1.027.12 2.09-.17 2.439a.608.608 0 0 1-.046.048l-1.374 1.307c.27.58.983 1.876 2.534 3.457 1.45 1.478 2.417 2.22 2.89 2.544l1.371-1.389c.774-.804 1.65-.883 2.398-.216l2.492 2.222a1.776 1.776 0 0 1 .084 2.558l-1.935 1.972c-.446.55-.978.735-1.508.735" fill="#FFF" fill-rule="nonzero"/></svg>