<svg xmlns="http://www.w3.org/2000/svg" width="34" height="34" viewBox="0 0 34 34">
    <path fill="#FFF" fill-rule="nonzero" d="M11.68 17c0 6.121 3.724 11 8.183 11s8.183-4.879 8.183-11-3.724-11-8.183-11c-4.46 0-8.184 4.879-8.184 11zm2.765-11h-.605c-2.282 0-4.37 1.382-5.824 3.6h3.505c.774-1.436 1.769-2.663 2.924-3.6zm5.036-1.991c.127-.006.254-.009.382-.009C25.52 4 30 9.867 30 17s-4.479 13-10.137 13c-.128 0-.255-.003-.382-.009V30h-5.64C8.336 30 4 24.128 4 17S8.337 4 13.84 4h5.64v.009zM14.445 28a11.515 11.515 0 0 1-2.456-2.8H8.597C10 26.945 11.847 28 13.84 28h.605zm-7.112-4.8h3.614a15.622 15.622 0 0 1-1.126-4.4H6.06c.191 1.616.636 3.108 1.273 4.4zm-1.378-6.4h3.771c.022-1.849.345-3.61.91-5.2H6.974c-.626 1.536-.994 3.306-1.019 5.2zm18.754 7.137a.964.964 0 0 1-1.35.306 1.014 1.014 0 0 1-.299-1.38c.358-.575.5-.825.719-1.32.612-1.383.929-3.029.806-5.04-.144-2.352-1.097-4.367-1.948-5.166a1.017 1.017 0 0 1-.06-1.413.961.961 0 0 1 1.381-.06c1.22 1.145 2.401 3.642 2.577 6.514.144 2.347-.236 4.317-.976 5.99a10.73 10.73 0 0 1-.49.971c-.116.205-.123.217-.36.598z"/>
</svg>
