<svg xmlns="http://www.w3.org/2000/svg" width="34" height="34" viewBox="0 0 34 34">
  <path fill="#9AA3A7" fill-rule="evenodd" d="M18.4427175,18.1182884 C16.6222287,20.0306752 14.1673881,21.0838006 11.5313041,21.0838006 L2.44899796,21.0838006 C2.19525726,21.0838006 2.05630401,20.9212376 2.00797245,20.8515678 C1.95964089,20.7818979 1.85794323,20.5940923 1.94655109,20.3547915 L2.57687522,18.6675695 C2.67353834,18.7897442 2.76315312,18.9159577 2.86485078,19.0340935 C3.0541494,19.2521904 3.31997299,19.364268 3.5878104,19.364268 C3.81033697,19.364268 4.03286354,19.2865205 4.2141069,19.1300157 C4.6138492,18.7826762 4.65613932,18.1778611 4.31077003,17.7780168 C2.80544323,16.0362706 1.9747445,13.8078452 1.9747445,11.5006625 C1.9747445,8.85825679 3.02595599,6.39557911 4.93303889,4.57002714 C6.83911489,2.74447517 9.34128016,1.80948561 11.9844125,1.92863115 C16.858852,2.15379602 20.8532542,6.15829774 21.0777946,11.0473036 C21.1986235,13.6957676 20.2632064,16.2069112 18.4427175,18.1182884 Z M12.0720134,0.014224883 C8.90025465,-0.134202185 5.89967014,0.99364159 3.61096928,3.18268842 C1.32428222,5.37476438 0.0636339677,8.32816012 0.0636339677,11.5006625 C0.0636339677,13.3050106 0.493583493,15.066951 1.28803355,16.6552216 L0.15727637,19.6813163 C-0.125664652,20.4355681 -0.0219531743,21.2806937 0.436189762,21.9430621 C0.893325791,22.6054305 1.64548573,23.001236 2.44899796,23.001236 L11.5313041,23.001236 C14.6940007,23.001236 17.6402122,21.7370817 19.8252016,19.4430252 C22.010191,17.1499785 23.1328929,14.1370099 22.9878982,10.9584493 C22.718047,5.09002673 17.9231532,0.282807197 12.0720134,0.014224883 Z M11.3495603,4.00883866 C12.5208998,3.94577347 13.4875009,4.27511393 14.2208185,4.99485798 C14.9344496,5.6965834 15.3281772,6.63255097 15.3911736,7.77473172 C15.4305463,8.46444472 15.3380204,9.0900915 15.1175329,9.63465445 C14.9226378,10.1171532 14.6627776,10.5756272 14.3477956,10.9980639 C14.0584058,11.3844633 13.7424395,11.7548462 13.4058024,12.0992022 C13.1311775,12.380493 12.8683643,12.6828055 12.6262219,12.9971305 C12.4195149,13.2664088 12.2511964,13.5687214 12.1242193,13.8970608 C12.0011794,14.2254002 11.959838,14.562749 11.981493,14.9431422 C11.9952735,15.2114195 11.9066848,15.4686855 11.731476,15.6678914 C11.5562673,15.8680984 11.3141248,15.9862205 11.0503274,16.001236 L11.0473744,16.001236 C10.4705636,16.001236 10.0404162,15.5858066 10.0108867,15.0562591 C9.97446686,14.3605399 10.0640399,13.7238818 10.2815743,13.1643033 C10.2943705,13.128266 10.3130726,13.0932298 10.3327589,13.0591946 C10.5266697,12.5857051 10.7766867,12.1472519 11.0709981,11.7638555 C11.3594035,11.3884675 11.6734012,11.0250918 12.006101,10.68474 C12.2767887,10.4074533 12.5376332,10.1041398 12.7787913,9.7828076 C12.9884512,9.50251785 13.1616914,9.19520015 13.2935901,8.87086487 C13.3998965,8.6075927 13.4432066,8.27725121 13.4215515,7.88784866 C13.3871004,7.25719671 13.2000798,6.7827062 12.8496623,6.43734918 C12.5228684,6.11701803 12.0828779,5.98087729 11.4588197,6.01090834 C10.8603538,6.04594456 10.4065828,6.24014531 10.0709301,6.60452199 C9.69295166,7.01394524 9.46163673,7.53648543 9.36123621,8.20317463 C9.27855342,8.74873862 8.77458216,9.13313599 8.23812838,9.04304286 C7.69970596,8.95995697 7.32960206,8.4464261 7.41130053,7.89986107 C7.5717445,6.83576104 7.98220547,5.93783279 8.63087161,5.23310427 C9.31891049,4.48533124 10.234327,4.07290489 11.3495603,4.00883866 Z M11,17.0008 C11.5518962,17.0008 12,17.3600814 12,17.8008 L12,18.2008 C12,18.642317 11.5518962,19.0008 11,19.0008 C10.4481038,19.0008 10,18.642317 10,18.2008 L10,17.8008 C10,17.3600814 10.4481038,17.0008 11,17.0008 Z" transform="translate(5 5)"/>
</svg>
