<svg width="24" height="24" xmlns="http://www.w3.org/2000/svg" fill="none"><defs><clipPath id="a"><path fill="#fff" d="M0 0h32.335v32.133H0z"/></clipPath></defs><g stroke="null" clip-path="url(#a)" fill="#253238" clip-rule="evenodd" fill-rule="evenodd"><path d="M16.923 7.905a.75.75 0 01.055 1.057l-6.204 6.886a.747.747 0 01-1.042.067l-2.616-2.246a.75.75 0 01.973-1.136l2.063 1.77 5.716-6.344a.747.747 0 011.055-.054z"/><path d="M11.828 1.546L9.444 3.933c-.363.473-.94.56-1.243.56H4.762a.223.223 0 00-.153.072.224.224 0 00-.07.153v3.443c0 .431-.159.81-.45 1.198l-.035.047-2.503 2.43a.2.2 0 000 .284l2.422 2.352c.477.363.565.944.565 1.249v3.443c0 .045.02.103.07.153.052.051.11.071.154.071h3.439c.259 0 .5.08.677.163.181.083.373.204.524.356l2.466 2.47a.2.2 0 00.289 0l2.425-2.429c.362-.472.94-.56 1.243-.56h3.438c.045 0 .103-.02.153-.07.05-.051.071-.109.071-.154V15.72c0-.212.027-.44.115-.671.09-.235.23-.433.403-.607l.004-.004 2.465-2.394a.2.2 0 000-.283L20.052 9.41c-.476-.363-.565-.944-.565-1.249V4.718a.224.224 0 00-.07-.153.223.223 0 00-.154-.071h-3.438c-.415 0-.863-.104-1.202-.444l-2.466-2.47a.253.253 0 00-.173-.071.286.286 0 00-.156.037zM10.873.392c.653-.524 1.682-.53 2.34.13l2.455 2.457s0 0 0 0a.518.518 0 00.157.018h3.438c.936 0 1.719.784 1.719 1.721v3.443a.33.33 0 00.01.08l.013.009 2.52 2.447.003.004c.666.666.666 1.739 0 2.405l-.004.004-2.465 2.395a.245.245 0 00-.062.082.379.379 0 00-.015.134v3.443c0 .937-.783 1.721-1.72 1.721h-3.437a.329.329 0 00-.08.01l-.012.018-2.52 2.522a1.693 1.693 0 01-2.402 0l-2.465-2.468s-.007-.007-.024-.018a.525.525 0 00-.137-.064H4.762c-.936 0-1.719-.784-1.719-1.721V15.72a.328.328 0 00-.01-.08l-.013-.01L.5 13.186l-.003-.004a1.699 1.699 0 010-2.406l.004-.004 2.425-2.354a.853.853 0 00.102-.178.196.196 0 00.015-.078V4.718c0-.937.783-1.721 1.72-1.721H8.2a.327.327 0 00.08-.01l.012-.018L10.84.417l.032-.025z"/></g></svg>