<svg xmlns="http://www.w3.org/2000/svg" width="34" height="34" viewBox="0 0 34 34"><path fill="#FFF" fill-rule="evenodd" d="M20.429 8.931h.006-.006zm-7.868.94h-.003c-2.565.003-4.651 2.057-4.649 4.58.007 5.64 7.192 9.072 8.632 9.702l.07-.055a.498.498 0 0 1 .066-.031c1.976-.9 8.422-4.258 8.414-9.64-.004-2.518-2.092-4.565-4.655-4.565h-.006a4.655 4.655 0 0 0-2.792.92 1.027 1.027 0 0 1-.11.07 2.167 2.167 0 0 1-2.282-.143 4.68 4.68 0 0 0-2.685-.838zM16.52 26c-.245 0-.484-.043-.711-.127-2.338-1.023-9.8-4.806-9.809-11.42-.004-3.55 2.937-6.44 6.556-6.444h.004a6.615 6.615 0 0 1 3.825 1.206.186.186 0 0 0 .174.029A6.578 6.578 0 0 1 20.428 8h.008c3.615 0 6.559 2.88 6.564 6.425.01 6.48-7.28 10.31-9.514 11.33l-.075.033-.126.056a1.847 1.847 0 0 1-.765.156z"/></svg>