<svg width="34" height="35" viewBox="0 0 34 35" xmlns="http://www.w3.org/2000/svg"><g id="DRAFTS_1" fill="none" fill-rule="evenodd"><g id="Assets" transform="translate(-583 -112)" fill="#FFF"><g id="Group-8-Copy" transform="translate(583 112.963)"><path d="M17.568 5.623c5.812.267 10.573 5.028 10.84 10.84a11.303 11.303 0 0 1-3.14 8.402 11.292 11.292 0 0 1-8.237 3.525h-9.02a2.433 2.433 0 0 1-2.276-3.288l1.123-2.997A11.393 11.393 0 0 1 5.642 17c0-3.142 1.252-6.067 3.524-8.238a11.292 11.292 0 0 1 8.402-3.139zm6.328 17.93a9.426 9.426 0 0 0 2.616-7.003c-.223-4.841-4.19-8.808-9.03-9.03a9.43 9.43 0 0 0-7.004 2.616A9.408 9.408 0 0 0 7.541 17a9.49 9.49 0 0 0 2.319 6.216.95.95 0 0 1-1.435 1.244c-.102-.117-.19-.242-.287-.362l-.626 1.671a.532.532 0 0 0 .5.722h9.02a9.408 9.408 0 0 0 6.864-2.937zm-6.868-7.186a.95.95 0 1 1-.001 1.9.95.95 0 0 1 0-1.9zm-5.064 0a.95.95 0 1 1 0 1.9.95.95 0 0 1 0-1.9zm10.127 0a.95.95 0 1 1 0 1.9.95.95 0 0 1 0-1.9z" id="Combined-Shape"/></g></g></g></svg>