<svg xmlns="http://www.w3.org/2000/svg" width="34" height="34" viewBox="0 0 34 34"><path fill="#FFF" fill-rule="evenodd" d="M25.634 15.959l-3.307 2.335-.005.005a1.92 1.92 0 0 0-.69 2.099l1.263 3.779a.876.876 0 0 1-.342.997.992.992 0 0 1-.572.178.996.996 0 0 1-.575-.18l-3.297-2.33a1.957 1.957 0 0 0-2.196-.016l-3.322 2.346a.997.997 0 0 1-1.148 0 .876.876 0 0 1-.34-.995l1.258-3.764c.063-.21.091-.393.091-.578a1.93 1.93 0 0 0-.86-1.597l-3.228-2.28c-.336-.238-.46-.594-.34-.947.117-.352.466-.586.914-.586h4.208l.071-.011c.783-.245 1.333-.624 1.57-1.223l1.298-3.902A.965.965 0 0 1 17 8.646a.95.95 0 0 1 .915.63l1.263 3.828c.266.677.809 1.062 1.604 1.31l.07.01h4.21c.447 0 .796.235.914.587.118.354-.004.71-.34.948m2.236-1.583c-.4-1.194-1.528-1.951-2.81-1.951h-3.92c-.07-.026-.092-.03-.087-.01l-1.242-3.768c-.401-1.203-1.536-2-2.813-2-1.273 0-2.41.813-2.81 2.01l-1.234 3.71c-.03.018-.069.037-.114.057H8.938c-1.283 0-2.411.758-2.81 1.952-.404 1.204.034 2.476 1.081 3.216l3.225 2.277-1.228 3.674a2.877 2.877 0 0 0 1.083 3.264 3.004 3.004 0 0 0 3.455 0l3.256-2.3 3.253 2.298a3 3 0 0 0 3.453.003 2.877 2.877 0 0 0 1.085-3.267l-1.227-3.672 3.224-2.277c1.047-.74 1.486-2.012 1.083-3.216"/></svg>