<svg xmlns="http://www.w3.org/2000/svg" width="48" height="48" viewBox="0 0 48 48">
  <path fill="#333" fill-rule="evenodd" d="M24,10 C24.553,10 25,10.447 25,11 L25,19 C25,19.553 24.553,20 24,20 C23.447,20 23,19.553 23,19 L23,11 C23,10.447 23.447,10 24,10 Z M30.4882,18.5118 C30.2322,18.5118 29.9762,18.4138 29.7812,18.2188 C29.3902,17.8278 29.3902,17.1958 29.7812,16.8048 L32.4852,14.1008 C32.8762,13.7098 33.5092,13.7098 33.8992,14.1008 C34.2902,14.4908 34.2902,15.1238 33.8992,15.5148 L31.1952,18.2188 C31.0002,18.4138 30.7442,18.5118 30.4882,18.5118 Z M37,23 C37.553,23 38,23.447 38,24 C38,24.553 37.553,25 37,25 L29,25 C28.447,25 28,24.553 28,24 C28,23.447 28.447,23 29,23 L37,23 Z M31.1953,29.7813 L33.8993,32.4853 C34.2903,32.8763 34.2903,33.5093 33.8993,33.8993 C33.7043,34.0943 33.4483,34.1923 33.1923,34.1923 C32.9363,34.1923 32.6803,34.0943 32.4853,33.8993 L29.7813,31.1953 C29.3903,30.8043 29.3903,30.1723 29.7813,29.7813 C30.1723,29.3903 30.8043,29.3903 31.1953,29.7813 Z M24,28 C24.553,28 25,28.447 25,29 L25,37 C25,37.553 24.553,38 24,38 C23.447,38 23,37.553 23,37 L23,29 C23,28.447 23.447,28 24,28 Z M16.8046,29.7813 C17.1956,29.3903 17.8276,29.3903 18.2186,29.7813 C18.6096,30.1723 18.6096,30.8043 18.2186,31.1953 L15.5146,33.8993 C15.3196,34.0943 15.0636,34.1923 14.8076,34.1923 C14.5516,34.1923 14.2956,34.0943 14.1006,33.8993 C13.7096,33.5093 13.7096,32.8763 14.1006,32.4853 L16.8046,29.7813 Z M19,23 C19.553,23 20,23.447 20,24 C20,24.553 19.553,25 19,25 L11,25 C10.447,25 10,24.553 10,24 C10,23.447 10.447,23 11,23 L19,23 Z M16.8046,18.2188 L14.1006,15.5148 C13.7096,15.1238 13.7096,14.4908 14.1006,14.1008 C14.4916,13.7098 15.1236,13.7098 15.5146,14.1008 L18.2186,16.8048 C18.6096,17.1958 18.6096,17.8278 18.2186,18.2188 C18.0236,18.4138 17.7676,18.5118 17.5116,18.5118 C17.2556,18.5118 16.9996,18.4138 16.8046,18.2188 Z"/>
</svg>
