<svg width="29" height="28" viewBox="0 0 29 28" xmlns="http://www.w3.org/2000/svg"><g fill="#333" fill-rule="evenodd"><path d="M14.485 26.324c-6.683 0-12.12-5.438-12.12-12.12 0-6.685 5.437-12.122 12.12-12.122 6.684 0 12.12 5.437 12.12 12.121 0 6.683-5.436 12.12-12.12 12.12m0-25.896c7.609 0 13.777 6.168 13.777 13.776 0 7.609-6.168 13.776-13.777 13.776C6.877 27.98.71 21.812.71 14.203.709 6.595 6.877.427 14.485.427zm-.994 22.305h2.223a.834.834 0 1 0 0-1.667H13.49a.834.834 0 1 0 0 1.667zm7.225-3.728c-.598 0-1.083.492-1.083 1.099s.485 1.099 1.083 1.099 1.083-.492 1.083-1.099-.485-1.099-1.083-1.099zm-11.07 1.099c0-.607-.484-1.099-1.082-1.099-.598 0-1.083.492-1.083 1.099s.485 1.099 1.083 1.099 1.083-.492 1.083-1.1z"/><path d="M20.167 11.524v-1.69a.834.834 0 0 0-1.667 0v1.69a.834.834 0 0 0 1.667 0z"/></g></svg>