<svg xmlns="http://www.w3.org/2000/svg" width="48" height="48" viewBox="0 0 48 48">
  <path fill="#90A4AE" fill-rule="evenodd" d="M30,37.9999 L38,37.9999 L38,24.9999 L30,24.9999 L30,37.9999 Z M12,25.9999 L28,25.9999 L28,24.9999 L12,24.9999 L12,25.9999 Z M16,17.9999 L28,17.9999 L28,9.9999 L16,9.9999 L16,17.9999 Z M11.0226089,37.9996505 C11.0783929,38.0010578 11.134007,38.0075248 11.1887,38.0191 C11.2597,38.0301 11.3187,38.0501 11.3797,38.0801 C11.4387,38.1001 11.4997,38.1301 11.5597,38.1701 C11.6087,38.2001 11.6597,38.2501 11.7097,38.2901 C11.7997,38.3901 11.8697,38.4901 11.9197,38.6201 C11.9697,38.7401 11.9997,38.8701 11.9997,39.0001 C11.9997,39.1301 11.9697,39.2601 11.9197,39.3801 C11.8697,39.5001 11.7997,39.6091 11.7097,39.7101 C11.5197,39.8991 11.2697,40.0001 10.9997,40.0001 C10.8697,40.0001 10.7397,39.9701 10.6197,39.9201 C10.4897,39.8701 10.3897,39.8001 10.2897,39.7101 C10.1997,39.6091 10.1297,39.5001 10.0797,39.3801 C10.0197,39.2601 9.9997,39.1301 9.9997,39.0001 C9.9997,38.8701 10.0197,38.7401 10.0797,38.6201 C10.1297,38.4901 10.1997,38.3901 10.2897,38.2901 C10.3897,38.2001 10.4897,38.1301 10.6197,38.0801 C10.7333169,38.0296036 10.8549021,38.002614 10.9766598,37.9996341 C10.4344768,37.9872667 10,37.5450985 10,36.9999 L10,24.9999 L9,24.9999 C8.447,24.9999 8,24.5529 8,23.9999 C8,23.4469 8.447,22.9999 9,22.9999 L18,22.9999 C18,22.4469 18.447,21.9999 19,21.9999 L21,21.9999 L21,19.9999 L15,19.9999 C14.447,19.9999 14,19.5529 14,18.9999 L14,8.9999 C14,8.4469 14.447,7.9999 15,7.9999 L29,7.9999 C29.553,7.9999 30,8.4469 30,8.9999 L30,18.9999 C30,19.5529 29.553,19.9999 29,19.9999 L23,19.9999 L23,21.9999 L25,21.9999 C25.553,21.9999 26,22.4469 26,22.9999 L29,22.9999 L32,22.9999 C32,22.4469 32.447,21.9999 33,21.9999 L34,21.9999 C34.553,21.9999 35,22.4469 35,22.9999 L39,22.9999 C39.553,22.9999 40,23.4469 40,23.9999 L40,38.9999 C40,39.5529 39.553,39.9999 39,39.9999 L29,39.9999 C28.447,39.9999 28,39.5529 28,38.9999 L28,27.9999 L12,27.9999 L12,36.9999 C12,37.5453436 11.5651324,37.9876643 11.0226089,37.9996505 Z M31.9998,28 L35.9998,28 C36.5528,28 36.9998,27.553 36.9998,27 C36.9998,26.447 36.5528,26 35.9998,26 L31.9998,26 C31.4468,26 30.9998,26.447 30.9998,27 C30.9998,27.553 31.4468,28 31.9998,28 Z M31.9998,32 L35.9998,32 C36.5528,32 36.9998,31.553 36.9998,31 C36.9998,30.447 36.5528,30 35.9998,30 L31.9998,30 C31.4468,30 30.9998,30.447 30.9998,31 C30.9998,31.553 31.4468,32 31.9998,32 Z M31.9998,36 L35.9998,36 C36.5528,36 36.9998,35.553 36.9998,35 C36.9998,34.447 36.5528,34 35.9998,34 L31.9998,34 C31.4468,34 30.9998,34.447 30.9998,35 C30.9998,35.553 31.4468,36 31.9998,36 Z M11.0226089,37.9996505 C11.0073001,37.9992643 10.9919786,37.9992592 10.9766598,37.9996341 C10.9844181,37.999811 10.9921985,37.9999 11,37.9999 C11.0075564,37.9999 11.015093,37.9998165 11.0226089,37.9996505 Z"/>
</svg>
