<svg width="24" height="26" viewBox="0 0 24 26" xmlns="http://www.w3.org/2000/svg"><path d="M21.868 25.059c.325 0 1.944-.145 1.944-3.01V11.913C23.812 5.344 18.47 0 11.906 0S0 5.344 0 11.913v10.136c0 1.112.268 1.942.796 2.47.512.512 1.074.538 1.183.538 1.04 0 1.546-.818 1.881-1.359.295-.477.43-.646.6-.646.172 0 .307.17.602.646.334.541.84 1.36 1.88 1.36 1.039 0 1.545-.819 1.88-1.36.295-.477.43-.646.6-.646.17 0 .306.17.601.646.335.541.84 1.36 1.88 1.36 1.039 0 1.545-.819 1.88-1.36.295-.477.43-.646.6-.646.172 0 .307.17.603.646.334.541.84 1.36 1.88 1.36s1.545-.819 1.88-1.36c.295-.477.43-.646.601-.646.172 0 .307.17.602.646.332.536.831 1.342 1.848 1.359l.07.002zm-.64-2.152c-.335-.541-.841-1.359-1.88-1.359-1.04 0-1.546.818-1.881 1.36-.295.476-.43.645-.601.645-.171 0-.307-.17-.602-.646-.335-.541-.84-1.359-1.88-1.359s-1.545.818-1.88 1.36c-.295.476-.43.645-.601.645-.17 0-.306-.17-.601-.646-.335-.541-.84-1.359-1.88-1.359-1.039 0-1.545.818-1.88 1.36-.294.476-.43.645-.6.645-.171 0-.306-.17-.602-.646-.334-.541-.84-1.359-1.88-1.359-1.038 0-1.544.818-1.88 1.36-.294.476-.43.645-.601.645 0 0-.08-.058-.12-.098-.107-.107-.355-.457-.355-1.406V11.913c0-5.74 4.666-10.41 10.402-10.41 5.735 0 10.402 4.67 10.402 10.41v10.136c0 1.069-.28 1.465-.432 1.503l-.046.001c-.171 0-.306-.17-.602-.646zM16.853 8.639a1.557 1.557 0 1 0 0 3.115 1.557 1.557 0 0 0 0-3.115zm-10.026 0a1.557 1.557 0 1 0 0 3.115 1.557 1.557 0 0 0 0-3.115zm6.708 3.635h-3.258a.752.752 0 1 0 0 1.504h3.258a.752.752 0 1 0 0-1.504z" fill="#333" fill-rule="evenodd"/></svg>