<svg xmlns="http://www.w3.org/2000/svg" width="26" height="7" viewBox="0 0 26 7"><path d="M3.183 0C1.425 0 0 1.543 0 3.445 0 5.348 1.425 6.89 3.183 6.89c1.758 0 3.183-1.542 3.183-3.445C6.366 1.543 4.94 0 3.183 0m0 1.723c.878 0 1.591.772 1.591 1.722s-.713 1.723-1.591 1.723S1.59 4.395 1.59 3.445c0-.95.714-1.722 1.592-1.722M12.731 0C10.974 0 9.55 1.543 9.55 3.445c0 1.903 1.425 3.445 3.182 3.445 1.758 0 3.183-1.542 3.183-3.445C15.914 1.543 14.49 0 12.731 0m0 1.723c.878 0 1.592.772 1.592 1.722s-.714 1.723-1.592 1.723c-.877 0-1.591-.773-1.591-1.723 0-.95.714-1.722 1.591-1.722M22.28 0c-1.758 0-3.183 1.543-3.183 3.445 0 1.903 1.425 3.445 3.183 3.445 1.758 0 3.183-1.542 3.183-3.445C25.463 1.543 24.038 0 22.28 0m0 1.723c.878 0 1.591.772 1.591 1.722s-.713 1.723-1.591 1.723-1.592-.773-1.592-1.723c0-.95.714-1.722 1.592-1.722" fill="#607D8B" fill-rule="evenodd"/></svg>