<svg xmlns="http://www.w3.org/2000/svg" width="8" height="9"><path fill="#90A4AE" d="M2.633 3.53h2.698c.168-.253.266-.557.266-.885 0-.892-.726-1.61-1.615-1.61a1.612 1.612 0 0 0-1.349 2.496zm3.886 0h.639c.465 0 .842.373.842.833v3.805c0 .46-.377.832-.842.832H.842A.837.837 0 0 1 0 8.168V4.363c0-.46.377-.832.842-.832h.603a2.6 2.6 0 0 1-.155-.886C1.29 1.187 2.49 0 3.982 0c1.49 0 2.692 1.187 2.692 2.645 0 .31-.054.609-.155.886zM4.54 6.336a.875.875 0 0 0 .37-.711.896.896 0 0 0-.91-.883.896.896 0 0 0-.907.883c0 .29.145.55.37.712v.723c0 .286.24.518.538.518a.528.528 0 0 0 .539-.518v-.724z"/></svg>
