<svg xmlns="http://www.w3.org/2000/svg" width="56" height="56" viewBox="0 0 56 56">
    <path fill="#000" fill-rule="evenodd" d="M29.486 29.519c.881-.789 1.796-1.64 2.697-2.527 5.632-5.545 6.311-8.158 6.341-9.024.018-.486-.137-.72-.376-.919-.208-.174-.4-.249-.645-.249-2.442.001-6.766 5.546-10.141 10.936l2.124 1.783zM28.21 30.64l-1.734-1.455a73.237 73.237 0 0 0-2.093 3.727l.528.442a89.845 89.845 0 0 0 3.3-2.714zm-2.6 4.299c.74 2.571-1.253 5.87-6.084 5.87-.814 0-1.71-.096-2.686-.302-.308-.065-2.862-.766.77-2.885.21-.122.077-.456.073-.708-.044-2.923 2.001-4.798 4.168-4.799.33 0 .664.044.993.134 2.352-4.455 9.735-17.127 14.66-17.129.619 0 1.199.2 1.725.643 4.798 4.025-9.4 15.93-13.62 19.176zm-2.302-.58c-.438-.369-.942-.564-1.457-.564-.598 0-1.179.255-1.633.716-.558.567-.861 1.397-.855 2.34l.006.045c.178 1.25-.393 1.871-.905 2.173.366.038.721.06 1.062.06 2.236 0 3.883-.857 4.405-2.291.336-.925.098-1.874-.623-2.48z"/>
</svg>
