<svg xmlns="http://www.w3.org/2000/svg" width="29" height="32" viewBox="0 0 29 32">
    <path fill="#1D1D1B" fill-rule="evenodd" d="M22.5 11a4.5 4.5 0 1 1 0-9 4.5 4.5 0 0 1 0 9zm2.5 6.586l-2.293-2.293c-1.441-1.442-3.973-1.442-5.414 0l-3 3c-.188.187-.3.25-.312.273a.911.911 0 0 1-.2-.191l-4-5a1.14 1.14 0 0 0-.074-.082c-1.381-1.382-3.031-1.382-4.476.067L2 17.238V11c0-2.243 1.757-4 4-4h10.025c.257 3.351 3.06 6 6.475 6 .886 0 1.73-.179 2.5-.501v5.087zM21 30H6c-2.763 0-4-2.009-4-4h23c0 2.243-1.757 4-4 4zm4-6H2v-3.638l4.707-5.655c.596-.595.963-.607 1.549-.037l3.976 4.971c.491.588 1.042.9 1.639.927.637.019 1.23-.254 1.836-.861l3-3c.686-.686 1.9-.686 2.586 0L25 20.414V24zm4-17.5c0 1.838-.77 3.496-2 4.68V26c0 3.364-2.636 6-6 6H6c-3.477 0-6-2.523-6-6V11c0-3.364 2.636-6 6-6h10.182c.68-2.862 3.251-5 6.318-5C26.084 0 29 2.916 29 6.5zm-4.293-2.207a.999.999 0 0 0-1.414 0l-.793.793-.793-.793a.999.999 0 1 0-1.414 1.414l.793.793-.793.793a.999.999 0 1 0 1.414 1.414l.793-.793.793.793a.997.997 0 0 0 1.414 0 .999.999 0 0 0 0-1.414l-.793-.793.793-.793a.999.999 0 0 0 0-1.414z"/>
</svg>
