<svg xmlns="http://www.w3.org/2000/svg" width="48" height="48" viewBox="0 0 48 48">
  <path fill="#90A4AE" fill-rule="evenodd" d="M14.5001,16.99995 L19.5001,16.99995 L19.5001,14.99995 L14.5001,14.99995 L14.5001,16.99995 Z M10.5001,10.99995 C10.5001,11.55295 10.0531,11.99995 9.5001,11.99995 C8.9471,11.99995 8.5001,11.55295 8.5001,10.99995 C8.5001,9.34595 9.8451,7.99995 11.5001,7.99995 C13.1541,7.99995 14.5001,9.34595 14.5001,10.99995 L14.5001,12.99995 L19.5001,12.99995 L19.5001,10.99995 C19.5001,10.44795 19.0521,9.99995 18.5001,9.99995 C17.9481,9.99995 17.5001,10.44795 17.5001,10.99995 C17.5001,11.55295 17.0531,11.99995 16.5001,11.99995 C15.9471,11.99995 15.5001,11.55295 15.5001,10.99995 C15.5001,9.34595 16.8451,7.99995 18.5001,7.99995 C20.1541,7.99995 21.5001,9.34595 21.5001,10.99995 L21.5001,20.99995 C21.5001,21.55295 21.0531,21.99995 20.5001,21.99995 C19.9471,21.99995 19.5001,21.55295 19.5001,20.99995 L19.5001,18.99995 L14.5001,18.99995 L14.5001,20.99995 C14.5001,21.55295 14.0531,21.99995 13.5001,21.99995 C12.9471,21.99995 12.5001,21.55295 12.5001,20.99995 L12.5001,10.99995 C12.5001,10.44795 12.0521,9.99995 11.5001,9.99995 C10.9481,9.99995 10.5001,10.44795 10.5001,10.99995 Z M16.8446,25.24135 C17.4896,24.68835 18.2916,24.00035 19.8266,24.00035 C21.3636,24.00035 22.1656,24.68835 22.8106,25.24135 C23.3426,25.69835 23.6956,26.00035 24.4906,26.00035 C25.2876,26.00035 25.6396,25.69835 26.1736,25.24135 C26.8186,24.68835 27.6206,24.00035 29.1576,24.00035 C30.6966,24.00035 31.4986,24.68735 32.1446,25.24035 C32.6786,25.69835 33.0316,26.00035 33.8286,26.00035 C34.6276,26.00035 34.9806,25.69835 35.5146,25.24035 C36.1596,24.68735 36.9626,24.00035 38.4996,24.00035 C39.0526,24.00035 39.4996,24.44735 39.4996,25.00035 C39.4996,25.55335 39.0526,26.00035 38.4996,26.00035 C37.7016,26.00035 37.3496,26.30235 36.8156,26.76035 C36.1696,27.31235 35.3666,28.00035 33.8286,28.00035 C32.2916,28.00035 31.4896,27.31235 30.8436,26.76035 C30.3096,26.30235 29.9566,26.00035 29.1576,26.00035 C28.3616,26.00035 28.0086,26.30235 27.4746,26.76035 C26.8296,27.31235 26.0276,28.00035 24.4906,28.00035 C22.9546,28.00035 22.1526,27.31135 21.5076,26.75935 C20.9756,26.30235 20.6226,26.00035 19.8266,26.00035 C19.0326,26.00035 18.6796,26.30235 18.1476,26.75935 C17.5026,27.31135 16.6996,28.00035 15.1636,28.00035 C13.6276,28.00035 12.8246,27.31135 12.1806,26.75935 C11.6486,26.30235 11.2956,26.00035 10.4996,26.00035 C9.9476,26.00035 9.4996,25.55335 9.4996,25.00035 C9.4996,24.44735 9.9476,24.00035 10.4996,24.00035 C12.0356,24.00035 12.8386,24.68835 13.4836,25.24135 C14.0156,25.69835 14.3676,26.00035 15.1636,26.00035 C15.9596,26.00035 16.3126,25.69835 16.8446,25.24135 Z M38.4999,30.00005 C39.0529,30.00005 39.4999,30.44705 39.4999,31.00005 C39.4999,31.55305 39.0529,32.00005 38.4999,32.00005 C37.7019,32.00005 37.3499,32.30205 36.8149,32.76005 C36.1699,33.31305 35.3669,34.00005 33.8289,34.00005 C32.2919,34.00005 31.4889,33.31305 30.8439,32.76005 C30.3099,32.30205 29.9569,32.00005 29.1579,32.00005 C28.3609,32.00005 28.0089,32.30205 27.4749,32.76005 C26.8299,33.31305 26.0269,34.00005 24.4909,34.00005 C22.9549,34.00005 22.1519,33.31205 21.5079,32.75905 C20.9759,32.30205 20.6229,32.00005 19.8269,32.00005 C19.0319,32.00005 18.6799,32.30205 18.1469,32.75905 C17.5029,33.31205 16.6999,34.00005 15.1639,34.00005 C13.6279,34.00005 12.8249,33.31205 12.1809,32.75905 C11.6479,32.30205 11.2959,32.00005 10.4999,32.00005 C9.9469,32.00005 9.4999,31.55305 9.4999,31.00005 C9.4999,30.44705 9.9469,30.00005 10.4999,30.00005 C12.0359,30.00005 12.8389,30.68805 13.4829,31.24105 C14.0159,31.69805 14.3679,32.00005 15.1639,32.00005 C15.9599,32.00005 16.3129,31.69805 16.8449,31.24105 C17.4889,30.68805 18.2919,30.00005 19.8269,30.00005 C21.3629,30.00005 22.1659,30.68805 22.8109,31.24105 C23.3429,31.69805 23.6949,32.00005 24.4909,32.00005 C25.2879,32.00005 25.6399,31.69805 26.1739,31.24105 C26.8179,30.68805 27.6209,30.00005 29.1579,30.00005 C30.6959,30.00005 31.4989,30.68705 32.1449,31.24005 C32.6789,31.69805 33.0309,32.00005 33.8289,32.00005 C34.6279,32.00005 34.9799,31.69805 35.5149,31.24005 C36.1599,30.68705 36.9629,30.00005 38.4999,30.00005 Z M38.4999,36.00005 C39.0529,36.00005 39.4999,36.44705 39.4999,37.00005 C39.4999,37.55305 39.0529,38.00005 38.4999,38.00005 C37.7019,38.00005 37.3499,38.30205 36.8149,38.76005 C36.1699,39.31305 35.3669,40.00005 33.8289,40.00005 C32.2919,40.00005 31.4889,39.31305 30.8439,38.76005 C30.3099,38.30205 29.9569,38.00005 29.1579,38.00005 C28.3609,38.00005 28.0089,38.30205 27.4749,38.76005 C26.8299,39.31305 26.0269,40.00005 24.4909,40.00005 C22.9549,40.00005 22.1519,39.31205 21.5079,38.75905 C20.9759,38.30205 20.6229,38.00005 19.8269,38.00005 C19.0319,38.00005 18.6799,38.30205 18.1469,38.75905 C17.5029,39.31205 16.6999,40.00005 15.1639,40.00005 C13.6279,40.00005 12.8249,39.31205 12.1809,38.75905 C11.6479,38.30205 11.2959,38.00005 10.4999,38.00005 C9.9469,38.00005 9.4999,37.55305 9.4999,37.00005 C9.4999,36.44705 9.9469,36.00005 10.4999,36.00005 C12.0359,36.00005 12.8389,36.68805 13.4829,37.24105 C14.0159,37.69805 14.3679,38.00005 15.1639,38.00005 C15.9599,38.00005 16.3129,37.69805 16.8449,37.24105 C17.4889,36.68805 18.2919,36.00005 19.8269,36.00005 C21.3629,36.00005 22.1659,36.68805 22.8109,37.24105 C23.3429,37.69805 23.6949,38.00005 24.4909,38.00005 C25.2879,38.00005 25.6399,37.69805 26.1739,37.24105 C26.8179,36.68805 27.6209,36.00005 29.1579,36.00005 C30.6959,36.00005 31.4989,36.68705 32.1449,37.24005 C32.6789,37.69805 33.0309,38.00005 33.8289,38.00005 C34.6279,38.00005 34.9799,37.69805 35.5149,37.24005 C36.1599,36.68705 36.9629,36.00005 38.4999,36.00005 Z"/>
</svg>
