<svg xmlns="http://www.w3.org/2000/svg" width="106" height="17" fill="none" viewBox="0 0 106 17">
    <path fill="#CFD8DC" d="M2.129 4.86v2.86h1.48c.513 0 .903-.123 1.17-.37.266-.247.4-.6.4-1.06 0-.46-.134-.813-.4-1.06-.267-.247-.657-.37-1.17-.37h-1.48zm3.89 1.43c0 .673-.21 1.203-.63 1.59-.42.387-.98.58-1.68.58h-1.58V11h-.8V4.12h2.38c.7 0 1.26.193 1.68.58.42.387.63.917.63 1.59zm5.237 2.21c0-.56-.163-1.013-.49-1.36-.326-.353-.756-.53-1.29-.53-.533 0-.963.177-1.29.53-.326.347-.49.8-.49 1.36s.164 1.017.49 1.37c.327.347.757.52 1.29.52.534 0 .964-.173 1.29-.52.327-.353.49-.81.49-1.37zm.84 0c0 .747-.25 1.37-.75 1.87s-1.123.75-1.87.75c-.746 0-1.37-.25-1.87-.75s-.75-1.123-.75-1.87c0-.747.25-1.37.75-1.87s1.124-.75 1.87-.75c.747 0 1.37.25 1.87.75s.75 1.123.75 1.87zm4.359-.09l-.92 2.59h-.83l-1.85-5h.85l.91 2.61c.053.14.123.34.21.6a97 97 0 0 1 .31.95h.01c.126-.38.233-.697.32-.95l.2-.6.91-2.61h.83l.91 2.61c.053.14.123.34.21.6a97 97 0 0 1 .31.95h.01c.126-.38.233-.697.32-.95l.2-.6.91-2.61h.81l-1.85 5h-.83l-.92-2.59-.25-.71c-.08-.253-.167-.517-.26-.79h-.02c-.074.24-.154.487-.24.74-.08.247-.167.5-.26.76zm7.772-1.83c-.407 0-.754.14-1.04.42-.287.28-.457.64-.51 1.08h3.07v-.05c0-.42-.14-.767-.42-1.04-.28-.273-.647-.41-1.1-.41zm1.67 3.16l.47.49a1.71 1.71 0 0 1-.36.37 2.348 2.348 0 0 1-.53.3 2.325 2.325 0 0 1-.53.16c-.18.04-.37.06-.57.06-.76 0-1.374-.24-1.84-.72-.46-.48-.69-1.113-.69-1.9 0-.747.23-1.37.69-1.87.46-.5 1.03-.75 1.71-.75.693 0 1.253.223 1.68.67.433.44.65 1.02.65 1.74 0 .093-.004.177-.01.25a.788.788 0 0 1-.02.19h-3.88c.033.5.213.907.54 1.22.326.313.736.47 1.23.47.14 0 .276-.013.41-.04a2.17 2.17 0 0 0 .77-.36c.113-.087.206-.18.28-.28zm2.85-1.44V11h-.78V6h.78v.88h.01a1.69 1.69 0 0 1 .64-.66c.28-.173.588-.26.92-.26h.12a.42.42 0 0 1 .1.01v.75a.42.42 0 0 0-.1-.01h-.14c-.46 0-.832.15-1.12.45-.286.293-.43.673-.43 1.14zM33.7 6.58c-.406 0-.753.14-1.04.42-.286.28-.456.64-.51 1.08h3.07v-.05c0-.42-.14-.767-.42-1.04-.28-.273-.646-.41-1.1-.41zm1.67 3.16l.47.49a1.71 1.71 0 0 1-.36.37 2.35 2.35 0 0 1-.53.3 2.326 2.326 0 0 1-.53.16c-.18.04-.37.06-.57.06-.76 0-1.373-.24-1.84-.72-.46-.48-.69-1.113-.69-1.9 0-.747.23-1.37.69-1.87.46-.5 1.03-.75 1.71-.75.694 0 1.254.223 1.68.67.434.44.65 1.02.65 1.74 0 .093-.003.177-.01.25a.793.793 0 0 1-.02.19h-3.88c.034.5.214.907.54 1.22.327.313.737.47 1.23.47.14 0 .277-.013.41-.04a2.173 2.173 0 0 0 .77-.36c.114-.087.207-.18.28-.28zm2.572-1.24c0 .56.163 1.017.49 1.37.326.347.756.52 1.29.52.533 0 .963-.173 1.29-.52.326-.353.49-.81.49-1.37s-.164-1.013-.49-1.36c-.327-.353-.757-.53-1.29-.53-.534 0-.964.177-1.29.53-.327.347-.49.8-.49 1.36zm3.57 1.6h-.01c-.2.333-.467.587-.8.76-.327.173-.704.26-1.13.26-.714 0-1.304-.25-1.77-.75-.467-.5-.7-1.123-.7-1.87 0-.747.233-1.37.7-1.87.466-.5 1.056-.75 1.77-.75.426 0 .803.087 1.13.26.333.173.6.427.8.76h.01c0-.153-.004-.287-.01-.4V3.44h.78V11h-.77v-.9zm10.494-1.6c0 .747-.233 1.37-.7 1.87-.466.5-1.056.75-1.77.75-.426 0-.806-.087-1.14-.26a2.01 2.01 0 0 1-.79-.76h-.01v.9h-.77V3.44h.78V6.5c0 .113-.003.247-.01.4h.01c.2-.333.464-.587.79-.76.334-.173.714-.26 1.14-.26.714 0 1.304.25 1.77.75.467.5.7 1.123.7 1.87zm-.84 0c0-.56-.163-1.013-.49-1.36-.326-.353-.756-.53-1.29-.53-.533 0-.963.177-1.29.53-.326.347-.49.8-.49 1.36s.164 1.017.49 1.37c.327.347.757.52 1.29.52.534 0 .964-.173 1.29-.52.327-.353.49-.81.49-1.37zm4.132 4.76c-.293 0-.553-.023-.78-.07a2.72 2.72 0 0 1-.62-.21l.3-.68c.153.073.33.13.53.17.207.04.423.06.65.06.54 0 .936-.147 1.19-.44.253-.293.38-.767.38-1.42 0-.073-.004-.143-.01-.21v-.22a1.61 1.61 0 0 1-.66.6c-.287.153-.614.23-.98.23-.593 0-1.067-.187-1.42-.56-.354-.373-.53-.867-.53-1.48V6h.78v2.9c0 .48.116.847.35 1.1.233.247.573.37 1.02.37.44 0 .79-.137 1.05-.41.267-.28.4-.65.4-1.11V6h.78v4.67c0 .827-.207 1.463-.62 1.91-.413.453-1.017.68-1.81.68z"/>
    <path fill="#CFD8DC" fill-rule="evenodd" d="M105.023 9.8h-5.547c.127 1.327 1.1 1.718 2.204 1.718 1.125 0 2.011-.237 2.783-.626v2.282c-.769.427-1.786.734-3.14.734-2.76 0-4.694-1.728-4.694-5.145 0-2.885 1.64-5.176 4.336-5.176 2.691 0 4.096 2.29 4.096 5.191 0 .275-.025.868-.038 1.021zm-4.076-3.903c-.709 0-1.496.535-1.496 1.81h2.93c0-1.274-.739-1.81-1.434-1.81zm-8.903 8.01c-.992 0-1.598-.417-2.005-.716l-.006 3.206-2.832.603L87.2 3.776h2.494l.148.699a3.173 3.173 0 0 1 2.219-.888c1.99 0 3.863 1.792 3.863 5.09 0 3.6-1.854 5.23-3.88 5.23zm-.66-7.81c-.65 0-1.058.237-1.354.561l.017 4.21c.276.298.672.537 1.336.537 1.048 0 1.75-1.14 1.75-2.666 0-1.481-.713-2.643-1.75-2.643zm-8.28-2.321h2.844v9.93h-2.843v-9.93zm0-3.171L85.949 0v2.308l-2.843.604V.605zm-3.032 6.368v6.732h-2.831v-9.93h2.45l.177.838c.663-1.22 1.987-.972 2.365-.836V6.38c-.36-.117-1.491-.287-2.16.592zM74 10.223c0 1.668 1.788 1.149 2.15 1.004v2.306c-.377.207-1.062.375-1.987.375-1.682 0-2.944-1.238-2.944-2.916l.013-9.088 2.766-.589.002 2.46h2.151v2.416H74v4.031zm-3.531.482c0 2.04-1.623 3.203-3.98 3.203-.976 0-2.044-.19-3.097-.643V10.56c.95.517 2.162.905 3.1.905.632 0 1.087-.17 1.087-.693 0-1.352-4.306-.843-4.306-3.98 0-2.005 1.532-3.205 3.83-3.205.938 0 1.876.144 2.815.518v2.669c-.862-.466-1.957-.73-2.818-.73-.593 0-.962.172-.962.614 0 1.275 4.33.669 4.33 4.047z" clip-rule="evenodd" opacity=".502"/>
</svg>
