<svg width="48" height="48" fill="none" xmlns="http://www.w3.org/2000/svg"><path fill-rule="evenodd" clip-rule="evenodd" d="M22 10c-6.822 0-12 4.5-12 9.659 0 2.44 1.13 4.7 3.06 6.435a1 1 0 01.308.958l-.728 3.326 4.302-1.705a1 1 0 01.67-.024c1.357.43 2.837.668 4.388.668 6.822 0 12-4.5 12-9.659C34 14.502 28.822 10 22 10zM8 19.659C8 13.043 14.463 8 22 8s14 5.043 14 11.659c0 6.615-6.463 11.658-14 11.658-1.626 0-3.19-.23-4.646-.656l-5.725 2.269a1 1 0 01-1.345-1.144l1.01-4.609C9.26 25.17 8 22.552 8 19.659z" fill="#253238"/><path fill-rule="evenodd" clip-rule="evenodd" d="M22 16.714h2c.552 0 1-.416 1-.928 0-.513-.448-.929-1-.929h-1v-.928c0-.513-.448-.929-1-.929s-1 .416-1 .929v1.087c-1.164.383-2 1.416-2 2.627 0 1.536 1.346 2.786 3 2.786.551 0 1 .417 1 .928 0 .512-.449.929-1 .929h-2c-.552 0-1 .416-1 .928 0 .513.448.929 1 .929h1v.928c0 .513.448.929 1 .929s1-.416 1-.929v-1.087c1.164-.383 2-1.416 2-2.627 0-1.536-1.346-2.786-3-2.786-.551 0-1-.417-1-.928 0-.512.449-.929 1-.929zM37.747 23.608a1 1 0 00-.44 1.344c.45.888.693 1.85.693 2.853 0 1.95-.925 3.77-2.53 5.18a1 1 0 00-.337.82l.228 3.25-2.843-1.87a1 1 0 00-.846-.12A12.422 12.422 0 0128 35.61c-2.536 0-4.832-.74-6.58-1.935a1 1 0 00-1.13 1.65c2.098 1.435 4.792 2.285 7.71 2.285 1.327 0 2.607-.176 3.804-.501l4.146 2.727a1 1 0 001.547-.906l-.335-4.785c1.745-1.683 2.838-3.89 2.838-6.34a8.279 8.279 0 00-.909-3.756 1 1 0 00-1.344-.441z" fill="#253238"/></svg>