<svg xmlns="http://www.w3.org/2000/svg" xmlns:xlink="http://www.w3.org/1999/xlink" width="1180" height="104"><defs><rect id="a" width="96" height="96" rx="10"/></defs><g fill="none" fill-rule="evenodd"><path fill="#FFF" stroke="#ECEFF1" stroke-dasharray="7" stroke-linecap="round" stroke-width="2" d="M11 1h1158c5.523 0 10 4.477 10 10v82c0 5.523-4.477 10-10 10H11c-5.523 0-10-4.477-10-10V11C1 5.477 5.477 1 11 1z"/><g fill="#ECEFF1" opacity=".4" transform="translate(4 4)"><rect width="80" height="16" x="121" y="28" rx="4"/><rect width="63" height="16" x="573" y="28" rx="4"/><rect width="63" height="16" x="723" y="28" rx="4"/><rect width="107" height="16" x="573" y="52" rx="4"/><rect width="107" height="16" x="723" y="52" rx="4"/><rect width="40" height="40" x="1041" y="28" rx="4"/><rect width="40" height="40" x="1091" y="28" rx="4"/><rect width="332" height="16" x="121" y="52" rx="4"/><circle cx="907" cy="38" r="10"/><rect width="31" height="16" x="891" y="52" rx="4"/><rect width="31" height="16" x="930" y="52" rx="4"/><rect width="31" height="16" x="969" y="52" rx="4"/><circle cx="946" cy="38" r="10"/><circle cx="985" cy="38" r="10"/><use xlink:href="#a"/></g></g></svg>