<svg width="1181" height="88" viewBox="0 0 1181 88" xmlns="http://www.w3.org/2000/svg"><g transform="translate(2 1)" fill="none" fill-rule="evenodd"><path d="M10.152.612h1157.001c5.523 0 10 4.477 10 10v64.885c0 5.523-4.477 10-10 10h-1157c-5.524 0-10-4.477-10-10V10.613c0-5.523 4.476-10 10-10l-.001-.001z" fill="#FFF" fill-rule="nonzero"/><rect fill="#ECEFF1" fill-rule="nonzero" opacity=".507" x="6.668" y="7.023" width="72" height="72" rx="10"/><path d="M10.152.612h1157.001c5.523 0 10 4.477 10 10v64.885c0 5.523-4.477 10-10 10h-1157c-5.524 0-10-4.477-10-10V10.613c0-5.523 4.476-10 10-10l-.001-.001z" stroke="#ECEFF1" stroke-width="3" opacity=".5" stroke-linecap="round" stroke-dasharray="7"/><rect fill="#ECEFF1" fill-rule="nonzero" opacity=".413" x="1109.668" y="23.023" width="40" height="40" rx="8"/><rect fill="#ECEFF1" fill-rule="nonzero" opacity=".413" x="1009.668" y="23.023" width="40" height="40" rx="8"/><rect fill="#ECEFF1" fill-rule="nonzero" opacity=".413" x="1059.668" y="23.023" width="40" height="40" rx="8"/><rect fill="#ECEFF1" fill-rule="nonzero" opacity=".413" x="932" y="28" width="30" height="30" rx="15"/><rect fill="#ECEFF1" fill-rule="nonzero" opacity=".413" x="886" y="28" width="30" height="30" rx="15"/><rect fill="#ECEFF1" fill-rule="nonzero" opacity=".413" x="840" y="28" width="30" height="30" rx="15"/><rect fill="#ECEFF1" fill-rule="nonzero" opacity=".413" x="104.668" y="35.023" width="74" height="16" rx="4"/><path d="M198 35h138.143a4 4 0 0 1 4 4v8a4 4 0 0 1-4 4H198a4 4 0 0 1-4-4v-8a4 4 0 0 1 4-4z" fill="#ECEFF1" fill-rule="nonzero" opacity=".413"/><path d="M412 35h138.143a4 4 0 0 1 4 4v8a4 4 0 0 1-4 4H412a4 4 0 0 1-4-4v-8a4 4 0 0 1 4-4z" fill="#ECEFF1" fill-rule="nonzero" opacity=".413"/><path d="M594 35h138.143a4 4 0 0 1 4 4v8a4 4 0 0 1-4 4H594a4 4 0 0 1-4-4v-8a4 4 0 0 1 4-4z" fill="#ECEFF1" fill-rule="nonzero" opacity=".413"/></g></svg>