<svg width="14px" height="14px" viewBox="0 0 14 14" version="1.1" xmlns="http://www.w3.org/2000/svg" xmlns:xlink="http://www.w3.org/1999/xlink">
    <!-- Generator: Sketch 53.2 (72643) - https://sketchapp.com -->
    <title>check</title>
    <desc>Created with Sketch.</desc>
    <g id="Phase-2:-profile-+++" stroke="none" stroke-width="1" fill="none" fill-rule="evenodd">
        <g id="Badges" transform="translate(-44.000000, -12.000000)" fill="#253238">
            <g id="check" transform="translate(44.000000, 12.000000)">
                <g id="Badge">
                    <path d="M12.293522,3.72868834 C12.6407408,4.2894314 12.9013604,4.90944866 13.0567074,5.57006546 C13.757278,5.86916254 14.1494784,6.645518 13.9466169,7.40260725 C13.8182522,7.88167074 13.4796899,8.24828407 13.0567343,8.42981982 C12.9013996,9.09044079 12.6407914,9.71046335 12.293583,10.2712129 C12.5779133,10.9782341 12.306318,11.8049306 11.6273135,12.196954 C11.1976108,12.445043 10.6987301,12.4647876 10.2711668,12.2938388 C9.71053989,12.6410461 9.09065712,12.9016711 8.43018467,13.0570463 C8.19238224,13.6115718 7.64154906,13.9999997 7,13.9999997 C6.35845094,13.9999997 5.80761776,13.6115718 5.56981533,13.0570463 C4.90938164,12.9016802 4.28953288,12.6410767 3.72893196,12.2939 C3.02193784,12.5781495 2.19531437,12.3065463 1.80331365,11.6275811 C1.55520087,11.1978372 1.53547618,10.6989021 1.70647796,10.2713114 C1.35925916,9.7105683 1.09863958,9.09055105 0.943292593,8.42993425 C0.24272201,8.13083716 -0.149478369,7.3544817 0.0533830823,6.59739246 C0.181747758,6.11832897 0.520310128,5.75171563 0.943265686,5.57017988 C1.0986004,4.90955892 1.3592086,4.28953635 1.706417,3.7287868 C1.4220867,3.02176561 1.69368204,2.19506915 2.37268649,1.80304575 C2.80238923,1.55495675 3.30126985,1.53521206 3.72883325,1.70616087 C4.28946011,1.35895359 4.90934288,1.09832861 5.56981533,0.942953429 C5.80761776,0.388427915 6.35845094,0 7,0 C7.64154906,0 8.19238224,0.388427915 8.43018467,0.942953429 C9.09061835,1.09831949 9.71046712,1.358923 10.271068,1.70609974 C10.9780622,1.42185023 11.8046856,1.69345343 12.1966863,2.37241859 C12.4447991,2.80216253 12.4645238,3.30109762 12.293522,3.72868834 Z M4.69006632,6.97647206 C4.4620961,6.74848598 4.09323625,6.74848598 3.86526603,6.97647206 C3.63729581,7.20445813 3.63729581,7.57334364 3.86526603,7.80132971 L5.42066476,9.35683663 C5.53136094,9.46754051 5.67958972,9.52772897 5.8330649,9.52772897 C5.98654009,9.52772897 6.13476886,9.46754051 6.24546505,9.35683663 L10.1339619,5.46806934 C10.3619321,5.24008327 10.3619321,4.87119776 10.1339619,4.64321169 C9.90599164,4.41522561 9.5371318,4.41522561 9.30916157,4.64321169 C9.6901368,4.26220996 9.43089558,4.52146922 8.53143791,5.42098945 C7.63198024,6.32050968 6.73252257,7.22002991 5.8330649,8.11955014 L4.69006632,6.97647206 Z" id="Combined-Shape"></path>
                </g>
            </g>
        </g>
    </g>
</svg>