<svg width="24" height="13" viewBox="0 0 24 13" xmlns="http://www.w3.org/2000/svg"><g fill="#607D8B" fill-rule="evenodd"><path d="M2.32 7.113a1.048 1.048 0 0 0-1.51-.01A1.094 1.094 0 0 0 .8 8.618l3.399 3.556a1.047 1.047 0 0 0 1.516.002l9.482-9.841A1.092 1.092 0 0 0 15.193.82a1.046 1.046 0 0 0-1.51.004L4.96 9.877 2.32 7.113z" fill-rule="nonzero"/><rect x="17.503" y="2" width="6.503" height="2" rx="1"/><rect x="14.251" y="6" width="9.754" height="2" rx="1"/><rect x="11" y="10" width="13.005" height="2" rx="1"/></g></svg>