<svg width="48" height="48" viewBox="0 0 48 48" fill="none" xmlns="http://www.w3.org/2000/svg">
<g opacity="0.5">
<g clip-path="url(#clip0)">
<path d="M18.1 25.5L21.6 28.5L29.9 19.3" stroke="white" stroke-width="2" stroke-miterlimit="10" stroke-linecap="round" stroke-linejoin="round"/>
<path fill-rule="evenodd" clip-rule="evenodd" d="M24.9 9.4L28.2 12.7C28.4 12.9 28.7 13 29.1 13H33.7C34.4 13 35 13.6 35 14.3V18.9C35 19.2 35.1 19.6 35.4 19.8L38.7 23C39.2 23.5 39.2 24.3 38.7 24.8L35.4 28C35.1 28.3 35 28.6 35 29V33.6C35 34.3 34.4 34.9 33.7 34.9H29.1C28.8 34.9 28.4 35 28.2 35.3L24.9 38.6C24.4 39.1 23.6 39.1 23.1 38.6L19.8 35.3C19.6 35.1 19.2 34.9 18.9 34.9H14.3C13.6 34.9 13 34.3 13 33.6V29C13 28.7 12.9 28.3 12.6 28.1L9.29999 24.9C8.79999 24.4 8.79999 23.6 9.29999 23.1L12.6 19.9C12.9 19.5 13 19.2 13 18.9V14.3C13 13.6 13.6 13 14.3 13H18.9C19.2 13 19.6 12.9 19.8 12.6L23.1 9.3C23.6 8.9 24.4 8.9 24.9 9.4Z" stroke="white" stroke-width="2" stroke-miterlimit="10"/>
</g>
</g>
<defs>
<clipPath id="clip0">
<rect width="32" height="31.8" fill="white" transform="translate(8 8)"/>
</clipPath>
</defs>
</svg>
