<svg xmlns="http://www.w3.org/2000/svg" width="48" height="48" viewBox="0 0 48 48">
  <path fill="#90A4AE" fill-rule="evenodd" d="M17.7471815,21.8194172 C15.6711815,21.8194172 13.6241815,22.6254172 12.0931815,24.1554172 C8.97418153,27.2744172 8.97418153,32.3504172 12.0931815,35.4694172 C15.2121815,38.5894172 20.2881815,38.5894172 23.4071815,35.4694172 C25.9251815,32.9514172 26.4681815,29.0204172 24.7261815,25.9104172 C24.6141815,25.7094172 24.5741815,25.4744172 24.6141815,25.2474172 L25.0551815,22.7624172 C25.1281815,22.3494172 25.4521815,22.0254172 25.8661815,21.9534172 L28.6111815,21.4674172 L29.0941815,18.7234172 C29.1671815,18.3094172 29.4921815,17.9854172 29.9061815,17.9134172 L32.6491815,17.4294172 L33.1311815,14.6884172 C33.2041815,14.2744172 33.5281815,13.9494172 33.9421815,13.8774172 L36.6341815,13.4014172 L37.0681815,10.4954172 L33.8081815,10.9814172 L22.3681815,22.4224172 C22.0671815,22.7224172 21.6101815,22.8014172 21.2261815,22.6154172 C20.1161815,22.0794172 18.9271815,21.8194172 17.7471815,21.8194172 M17.7501815,39.8084172 C15.1891815,39.8084172 12.6281815,38.8334172 10.6791815,36.8834172 C6.78018153,32.9844172 6.78018153,26.6404172 10.6791815,22.7414172 C13.5111815,19.9114172 17.7521815,19.0624172 21.4361815,20.5244172 L32.6271815,9.33441719 C32.7781815,9.18241719 32.9751815,9.08441719 33.1861815,9.05141719 L38.1091815,8.31741719 C38.4221815,8.27541719 38.7401815,8.37541719 38.9631815,8.59941719 C39.1881815,8.82341719 39.2921815,9.14041719 39.2461815,9.45441719 L38.5331815,14.2294172 C38.5361815,14.3354172 38.5221815,14.4404172 38.4901815,14.5434172 C38.3771815,14.8984172 38.0901815,15.1754172 37.7231815,15.2404172 L34.9791815,15.7244172 L34.4971815,18.4654172 C34.4241815,18.8814172 34.1011815,19.2054172 33.6861815,19.2774172 L30.9421815,19.7604172 L30.4591815,22.5054172 C30.3861815,22.9194172 30.0621815,23.2434172 29.6481815,23.3154172 L26.9021815,23.8004172 L26.6441815,25.2554172 C28.6091815,29.0894172 27.8841815,33.8214172 24.8211815,36.8834172 C22.8721815,38.8334172 20.3111815,39.8084172 17.7501815,39.8084172 Z M15.7505815,28.8126172 C16.8535815,28.8126172 17.7505815,29.7096172 17.7505815,30.8126172 C17.7505815,31.9156172 16.8535815,32.8126172 15.7505815,32.8126172 C14.6475815,32.8126172 13.7505815,31.9156172 13.7505815,30.8126172 C13.7505815,29.7096172 14.6475815,28.8126172 15.7505815,28.8126172 Z M15.7505815,34.8126172 C17.9565815,34.8126172 19.7505815,33.0186172 19.7505815,30.8126172 C19.7505815,28.6066172 17.9565815,26.8126172 15.7505815,26.8126172 C13.5445815,26.8126172 11.7505815,28.6066172 11.7505815,30.8126172 C11.7505815,33.0186172 13.5445815,34.8126172 15.7505815,34.8126172 Z"/>
</svg>
