<svg width="16" height="16" viewBox="0 0 16 16" xmlns="http://www.w3.org/2000/svg"><g id="Styleguide" fill="none" fill-rule="evenodd"><g id="ICONS" transform="translate(-81 -262)" fill="#B0BEC5"><path d="M94.131 272.636a.133.133 0 0 1-.112.067l-7.131-.109a.459.459 0 0 0-.291.09l-2.217 1.576a1.155 1.155 0 0 1-.663.218c-.375 0-.728-.193-.968-.53l-.532-.746a1.213 1.213 0 0 1-.231-.884c.045-.3.21-.557.479-.746l1.748-1.243.489.639a.488.488 0 0 0 .682.092.48.48 0 0 0 .093-.676l-.575-.751 2.222-6.58a.146.146 0 0 1 .106-.086.169.169 0 0 1 .023-.002c.043 0 .085.017.102.04l6.781 9.5c.018.025.021.081-.005.13zm-6.748 4.399l-1.648-2.555.668-.475 1.92 3.03h-.94zm.767-14.587a1.114 1.114 0 0 0-1.062-.436c-.408.06-.757.348-.887.735l-2.214 6.555-2.087 1.484a2.07 2.07 0 0 0-.877 1.389 2.165 2.165 0 0 0 .4 1.585l.532.746c.425.595 1.067.937 1.762.937.433 0 .856-.14 1.227-.4l1.763 2.735c.09.138.244.222.41.222h2.086c.177 0 .34-.095.426-.25a.48.48 0 0 0-.014-.49l-2.345-3.7 6.733.097h.017c.403 0 .784-.223.972-.577.195-.366.17-.807-.061-1.133l-6.781-9.499zm3.64 2.956a2.026 2.026 0 0 1 1.806 2.224l-.005.037a.484.484 0 0 0 .484.541c.243 0 .453-.18.483-.424l.006-.05c.178-1.636-1.02-3.111-2.67-3.288a.484.484 0 0 0-.105.96zm4.11-1.474a4.955 4.955 0 0 0-3.343-1.812.484.484 0 0 0-.104.96 3.986 3.986 0 0 1 2.688 1.457 3.92 3.92 0 0 1 .862 2.915l-.008.07a.484.484 0 0 0 .483.542.486.486 0 0 0 .483-.423l.01-.084a4.875 4.875 0 0 0-1.072-3.625z" id="Reports"/></g></g></svg>