<svg xmlns="http://www.w3.org/2000/svg" width="30" height="31" viewBox="0 0 30 31">
    <path fill="#1D1D1B" fill-rule="evenodd" d="M27.293 11.177l-3.707 3.707H6.414L9.5 11.798l1.793 1.793a.997.997 0 0 0 1.414 0 .999.999 0 0 0 0-1.414l-1.793-1.793 7.793-7.793c1.181-1.18 2.282-.293 2.586 0l.376.377a3.687 3.687 0 0 0-.548 1.916c0 .99.416 1.952 1.172 2.707 1.321 1.32 3.145 1.529 4.625.625l.375.375c1.18 1.18.294 2.282 0 2.586zM26 19.01a4.008 4.008 0 0 0-3 3.874 4.008 4.008 0 0 0 3 3.874v1.126c0 .805-.55.988-1 1H11v-1a1 1 0 1 0-2 0v1H3c-.806 0-.988-.55-1-1v-1.126a4.008 4.008 0 0 0 3-3.874 4.008 4.008 0 0 0-3-3.874v-1.126c0-.805.55-.988 1-1h6v1a1 1 0 1 0 2 0v-1h14c.806 0 .988.55 1 1v1.126zm2.708-11.833c1.985 1.986 1.087 4.326-.001 5.414l-2.52 2.52c1.3.51 1.813 1.819 1.813 2.773v2a1 1 0 0 1-1 1c-1.103 0-2 .897-2 2s.897 2 2 2a1 1 0 0 1 1 1v2c0 2.2-1.794 3-3 3H3c-2.201 0-3-1.794-3-3v-2a1 1 0 0 1 1-1c1.103 0 2-.897 2-2s-.897-2-2-2a1 1 0 0 1-1-1v-2c0-2.201 1.794-3 3-3h.586L17.293 1.177c1.985-1.987 4.325-1.088 5.414 0l1 1a.997.997 0 0 1 0 1.414c-.384.383-.586.83-.586 1.293 0 .462.202.91.586 1.293.785.785 1.801.785 2.586 0a1 1 0 0 1 1.414 0l1.001 1zm-8.88 3.116l-2.535 2.536a.999.999 0 1 0 1.414 1.414l2.535-2.536a.999.999 0 1 0-1.414-1.414zm-.172-4a.999.999 0 0 0-1.414 0l-3.949 3.95a.999.999 0 1 0 1.414 1.414l3.95-3.95a.999.999 0 0 0 0-1.414zM10 21a1 1 0 0 0-1 1v2a1 1 0 1 0 2 0v-2a1 1 0 0 0-1-1zm9 2h-5a1 1 0 1 0 0 2h5a1 1 0 1 0 0-2zm2-4h-7a1 1 0 1 0 0 2h7a1 1 0 1 0 0-2z"/>
</svg>
