<?xml version="1.0" encoding="UTF-8"?>
<svg width="12px" height="14px" viewBox="0 0 12 14" version="1.1" xmlns="http://www.w3.org/2000/svg" xmlns:xlink="http://www.w3.org/1999/xlink">
    <!-- Generator: Sketch 42 (36781) - http://www.bohemiancoding.com/sketch -->
    <title>reserved</title>
    <desc>Created with Sketch.</desc>
    <defs></defs>
    <g id="Styleguide" stroke="none" stroke-width="1" fill="none" fill-rule="evenodd">
        <g id="ICONS" transform="translate(-237.000000, -259.000000)" fill="#547ff1">
            <g id="Group-3" transform="translate(228.000000, 251.000000)">
                <g id="reserved" transform="translate(9.000000, 8.000000)">
                    <path d="M11.0912409,12.4180183 C11.1003252,12.6535142 10.9740539,12.8734928 10.7669325,12.9830258 C10.5598112,13.0925587 10.3072685,13.0733905 10.1192242,12.9319104 L6.97061658,10.5687371 C6.93791321,10.545005 6.89975928,10.5358772 6.86705591,10.5148834 L5.37451054,9.49075041 C5.16738921,9.34835758 4.88396002,9.40221128 4.74315385,9.61032387 C4.60143926,9.81843646 4.65503644,10.1023093 4.86215777,10.2447022 L5.25550662,10.5148834 C5.22825381,10.5322261 5.19645887,10.5386156 5.16920606,10.5586966 L1.87434175,12.9702469 C1.68629738,13.1080759 1.43557156,13.1254186 1.23026708,13.0149729 C1.02405418,12.9045272 0.899599698,12.6854613 0.908683967,12.451791 L1.34018674,1.50123491 C1.34654573,1.3332844 1.42194516,1.1753744 1.54912492,1.06401591 C1.67539626,0.953570192 1.84163838,0.899716494 2.00697207,0.916146436 C3.83200169,1.09505024 5.3427156,1.21279816 6.14122283,1.21279816 C6.897034,1.21279816 8.29782826,1.09870134 9.99113597,0.922535857 C10.1582865,0.905193141 10.3254371,0.959046839 10.4517084,1.06949256 C10.5788882,1.17993828 10.6542876,1.33876104 10.6606466,1.50762433 L11.0912409,12.4180183 Z M11.0476364,0.380347784 C10.7315039,0.103777101 10.3145359,-0.0276624323 9.897568,0.0152379708 C8.23878051,0.186839583 6.85433794,0.300023625 6.14122283,0.300023625 C5.38450323,0.300023625 3.88741573,0.183188485 2.09599791,0.00702299999 C1.68084682,-0.0331390795 1.26660416,0.100126002 0.95138003,0.376696686 C0.637064328,0.652354595 0.449019962,1.04576042 0.432668278,1.46472393 L0.00116550763,12.41528 C-0.0215451645,12.9994557 0.28913683,13.5452949 0.802398021,13.82004 C1.31565921,14.0956979 1.93974848,14.0518848 2.40940518,13.7077688 L5.70517792,11.2962184 C5.88595488,11.1629534 6.11942058,11.1501745 6.31745765,11.2432775 L6.70263065,11.5070694 L9.57598489,13.6630428 C10.0447332,14.0153738 10.6724561,14.0646636 11.189351,13.7908312 C11.7071544,13.5169989 12.0223785,12.9693342 11.9987594,12.3815074 L11.5690735,1.47202613 C11.5527218,1.05123707 11.363769,0.656005694 11.0476364,0.380347784 L11.0476364,0.380347784 Z" id="Reserved"></path>
                    <path d="M9.897568,0.0152379708 C8.23878051,0.186839583 6.85433794,0.300023625 6.14122283,0.300023625 C5.38450323,0.300023625 3.88741573,0.183188485 2.09599791,0.00702299999 C1.68084682,-0.0331390795 1.26660416,0.100126002 0.95138003,0.376696686 C0.637064328,0.652354595 0.449019962,1.04576042 0.432668278,1.46472393 L0.00116550763,12.41528 C-0.0215451645,12.9994557 0.28913683,13.5452949 0.802398021,13.82004 C1.31565921,14.0956979 1.93974848,14.0518848 2.40940518,13.7077688 L5.70517792,11.2962184 C5.88595488,11.1629534 6.11942058,11.1501745 6.31745765,11.2432775 L6.70263065,11.5070694 L9.57598489,13.6630428 C10.0447332,14.0153738 10.6724561,14.0646636 11.189351,13.7908312 C11.7071544,13.5169989 12.0223785,12.9693342 11.9987594,12.3815074 L11.5690735,1.47202613 C11.5527218,1.05123707 11.363769,0.656005694 11.0476364,0.380347784 C10.7315039,0.103777101 10.3145359,-0.0276624323 9.897568,0.0152379708 Z" id="is-this-working" opacity="0.246886322"></path>
                </g>
            </g>
        </g>
    </g>
</svg>
