<svg xmlns="http://www.w3.org/2000/svg" width="13" height="15" viewBox="0 0 13 15"><path fill="#385EF9" d="M12 13.285l-.466-11.65a.66.66 0 0 0-.723-.625c-1.829.188-3.342.31-4.158.31-.863 0-2.495-.126-4.466-.317a.66.66 0 0 0-.72.625L1 13.321a.66.66 0 0 0 1.043.554l3.56-2.575c.03-.022.063-.028.093-.047l-.425-.288a.485.485 0 0 1-.129-.678.493.493 0 0 1 .682-.128l1.613 1.094c.035.022.076.032.111.058l3.402 2.523a.661.661 0 0 0 .7.055.653.653 0 0 0 .35-.604zm-4.91-1.089l-.004-.002a1.784 1.784 0 0 1 .004.002zm-1.05 0l-.003.001a.231.231 0 0 0 .003-.001zm.835-.115l-.297-.202-.35.22-.104.058-3.494 2.528a1.66 1.66 0 0 1-2.629-1.403L.467 1.59A1.659 1.659 0 0 1 2.283.008c2.09.202 3.6.312 4.37.312.727 0 2.136-.107 4.056-.305a1.657 1.657 0 0 1 1.825 1.58l.465 11.65a1.653 1.653 0 0 1-.887 1.53 1.66 1.66 0 0 1-1.758-.138l-3.332-2.472a1.56 1.56 0 0 1-.147-.084z"/></svg>