<svg xmlns="http://www.w3.org/2000/svg" width="592" height="655" viewBox="0 0 592 655"><g fill="#ECEFF1" fill-rule="evenodd"><path d="M74 40.858a27.168 27.168 0 0 0-6.717-.839c-14.975 0-27.115 12.14-27.115 27.116 0 2.68.389 5.27 1.114 7.717H10c-5.523 0-10-4.478-10-10v-54c0-5.523 4.477-10 10-10h54c5.523 0 10 4.477 10 10v30.006zm-7 45.994c-11.046 0-20-8.955-20-20 0-11.046 8.954-20 20-20s20 8.954 20 20c0 11.045-8.954 20-20 20zm37.484-50.96a4.5 4.5 0 0 1 0-9h148.259a4.5 4.5 0 0 1 0 9H104.484zm0 63.766a4.5 4.5 0 0 1 0-9h41.024a4.5 4.5 0 1 1 0 9h-41.024zm0 23.694a4.5 4.5 0 0 1 0-9h19.075a4.5 4.5 0 1 1 0 9h-19.075zm40.479 0a4.5 4.5 0 1 1 0-9h98.6a4.5 4.5 0 1 1 0 9h-98.6zm20-23.694a4.5 4.5 0 1 1 0-9H183.5a4.5 4.5 0 1 1 0 9h-18.538zm131.265 0a4.5 4.5 0 0 1 0-9h18.538a4.5 4.5 0 0 1 0 9h-18.538zm221.772 0a4.5 4.5 0 0 1 0-9h69.5a4.5 4.5 0 0 1 0 9H518zm-174.463 0a4.5 4.5 0 0 1 0-9h148.98a4.5 4.5 0 0 1 0 9h-148.98zm-138.135 0a4.5 4.5 0 1 1 0-9H267.5a4.5 4.5 0 0 1 0 9h-62.098zM104.484 11.741a4.5 4.5 0 0 1 0-9h30.03a4.5 4.5 0 1 1 0 9h-30.03zm0 50.95a4.5 4.5 0 0 1 0-9h2.022a4.5 4.5 0 1 1 0 9h-2.022zm23.72 0a4.5 4.5 0 1 1 0-9h2.023a4.5 4.5 0 1 1 0 9h-2.022zm23 0a4.5 4.5 0 1 1 0-9h2.023a4.5 4.5 0 1 1 0 9h-2.022zm23 0a4.5 4.5 0 1 1 0-9h2.023a4.5 4.5 0 1 1 0 9h-2.022zm23 0a4.5 4.5 0 1 1 0-9h2.023a4.5 4.5 0 1 1 0 9h-2.022zm73.79-26.798a4.5 4.5 0 0 1 0-9h41.52a4.5 4.5 0 0 1 0 9h-41.52zm61.543 0a4.5 4.5 0 0 1 0-9H343.5a4.5 4.5 0 0 1 0 9h-10.963z"/><path d="M74 217.928a27.168 27.168 0 0 0-6.717-.838c-14.975 0-27.115 12.14-27.115 27.115 0 2.681.389 5.271 1.114 7.717H10c-5.523 0-10-4.477-10-10v-54c0-5.523 4.477-10 10-10h54c5.523 0 10 4.477 10 10v30.006zm-7 45.994c-11.046 0-20-8.954-20-20s8.954-20 20-20 20 8.954 20 20-8.954 20-20 20zm37.484-50.96a4.5 4.5 0 0 1 0-9h148.259a4.5 4.5 0 1 1 0 9H104.484zm0 63.767a4.5 4.5 0 0 1 0-9h41.024a4.5 4.5 0 1 1 0 9h-41.024zm0 23.693a4.5 4.5 0 0 1 0-9h19.075a4.5 4.5 0 0 1 0 9h-19.075zm40.479 0a4.5 4.5 0 1 1 0-9h98.6a4.5 4.5 0 0 1 0 9h-98.6zm20-23.693a4.5 4.5 0 1 1 0-9H183.5a4.5 4.5 0 1 1 0 9h-18.538zm40.44 0a4.5 4.5 0 1 1 0-9H267.5a4.5 4.5 0 1 1 0 9h-62.098zm-100.919-87.917a4.5 4.5 0 1 1 0-9h30.03a4.5 4.5 0 1 1 0 9h-30.03zm0 50.949a4.5 4.5 0 1 1 0-9h2.022a4.5 4.5 0 1 1 0 9h-2.022zm23.72 0a4.5 4.5 0 1 1 0-9h2.023a4.5 4.5 0 1 1 0 9h-2.022zm23 0a4.5 4.5 0 1 1 0-9h2.023a4.5 4.5 0 1 1 0 9h-2.022zm23 0a4.5 4.5 0 1 1 0-9h2.023a4.5 4.5 0 1 1 0 9h-2.022zm23 0a4.5 4.5 0 1 1 0-9h2.023a4.5 4.5 0 1 1 0 9h-2.022zm73.79-26.798a4.5 4.5 0 0 1 0-9h41.52a4.5 4.5 0 1 1 0 9h-41.52zm61.543 0a4.5 4.5 0 0 1 0-9H343.5a4.5 4.5 0 1 1 0 9h-10.963z" opacity=".7"/><path d="M74 394.928a27.168 27.168 0 0 0-6.717-.838c-14.975 0-27.115 12.14-27.115 27.115 0 2.681.389 5.271 1.114 7.717H10c-5.523 0-10-4.477-10-10v-54c0-5.523 4.477-10 10-10h54c5.523 0 10 4.477 10 10v30.006zm-7 45.994c-11.046 0-20-8.954-20-20s8.954-20 20-20 20 8.954 20 20-8.954 20-20 20zm37.484-50.96a4.5 4.5 0 0 1 0-9h148.259a4.5 4.5 0 1 1 0 9H104.484zm0 63.767a4.5 4.5 0 0 1 0-9h41.024a4.5 4.5 0 1 1 0 9h-41.024zm0 23.693a4.5 4.5 0 0 1 0-9h19.075a4.5 4.5 0 0 1 0 9h-19.075zm40.479 0a4.5 4.5 0 1 1 0-9h98.6a4.5 4.5 0 0 1 0 9h-98.6zm20-23.693a4.5 4.5 0 1 1 0-9H183.5a4.5 4.5 0 1 1 0 9h-18.538zm131.265 0a4.5 4.5 0 0 1 0-9h18.538a4.5 4.5 0 1 1 0 9h-18.538zm221.772 0a4.5 4.5 0 0 1 0-9h69.5a4.5 4.5 0 1 1 0 9H518zm-174.463 0a4.5 4.5 0 0 1 0-9h148.98a4.5 4.5 0 1 1 0 9h-148.98zm-138.135 0a4.5 4.5 0 1 1 0-9H267.5a4.5 4.5 0 1 1 0 9h-62.098zm-100.918-87.917a4.5 4.5 0 1 1 0-9h30.03a4.5 4.5 0 1 1 0 9h-30.03zm0 50.949a4.5 4.5 0 1 1 0-9h2.022a4.5 4.5 0 1 1 0 9h-2.022zm23.72 0a4.5 4.5 0 1 1 0-9h2.023a4.5 4.5 0 1 1 0 9h-2.022zm23 0a4.5 4.5 0 1 1 0-9h2.023a4.5 4.5 0 1 1 0 9h-2.022zm23 0a4.5 4.5 0 1 1 0-9h2.023a4.5 4.5 0 1 1 0 9h-2.022zm23 0a4.5 4.5 0 1 1 0-9h2.023a4.5 4.5 0 1 1 0 9h-2.022zm73.79-26.798a4.5 4.5 0 0 1 0-9h41.52a4.5 4.5 0 1 1 0 9h-41.52zm61.543 0a4.5 4.5 0 0 1 0-9H343.5a4.5 4.5 0 1 1 0 9h-10.963z" opacity=".4"/><path d="M74 571.928a27.168 27.168 0 0 0-6.717-.838c-14.975 0-27.115 12.14-27.115 27.115 0 2.681.389 5.271 1.114 7.717H10c-5.523 0-10-4.477-10-10v-54c0-5.523 4.477-10 10-10h54c5.523 0 10 4.477 10 10v30.006zm-7 45.994c-11.046 0-20-8.954-20-20s8.954-20 20-20 20 8.954 20 20-8.954 20-20 20zm37.484-50.96a4.5 4.5 0 0 1 0-9h148.259a4.5 4.5 0 1 1 0 9H104.484zm0 63.767a4.5 4.5 0 0 1 0-9h41.024a4.5 4.5 0 1 1 0 9h-41.024zm0 23.693a4.5 4.5 0 0 1 0-9h19.075a4.5 4.5 0 0 1 0 9h-19.075zm40.479 0a4.5 4.5 0 1 1 0-9h98.6a4.5 4.5 0 0 1 0 9h-98.6zm20-23.693a4.5 4.5 0 1 1 0-9H183.5a4.5 4.5 0 1 1 0 9h-18.538zm131.265 0a4.5 4.5 0 0 1 0-9h18.538a4.5 4.5 0 1 1 0 9h-18.538zm221.772 0a4.5 4.5 0 0 1 0-9h69.5a4.5 4.5 0 1 1 0 9H518zm-174.463 0a4.5 4.5 0 0 1 0-9h148.98a4.5 4.5 0 1 1 0 9h-148.98zm-138.135 0a4.5 4.5 0 1 1 0-9H267.5a4.5 4.5 0 1 1 0 9h-62.098zm-100.918-87.917a4.5 4.5 0 1 1 0-9h30.03a4.5 4.5 0 1 1 0 9h-30.03zm0 50.949a4.5 4.5 0 1 1 0-9h2.022a4.5 4.5 0 1 1 0 9h-2.022zm23.72 0a4.5 4.5 0 1 1 0-9h2.023a4.5 4.5 0 1 1 0 9h-2.022zm23 0a4.5 4.5 0 1 1 0-9h2.023a4.5 4.5 0 1 1 0 9h-2.022zm23 0a4.5 4.5 0 1 1 0-9h2.023a4.5 4.5 0 1 1 0 9h-2.022zm23 0a4.5 4.5 0 1 1 0-9h2.023a4.5 4.5 0 1 1 0 9h-2.022zm73.79-26.798a4.5 4.5 0 0 1 0-9h41.52a4.5 4.5 0 1 1 0 9h-41.52zm61.543 0a4.5 4.5 0 0 1 0-9H343.5a4.5 4.5 0 1 1 0 9h-10.963z" opacity=".2"/></g></svg>