<svg xmlns="http://www.w3.org/2000/svg" xmlns:xlink="http://www.w3.org/1999/xlink" width="28" height="28"><defs><circle id="a" cx="14" cy="14" r="14"/></defs><g fill="none" fill-rule="evenodd"><mask id="b" fill="#fff"><use xlink:href="#a"/></mask><use fill="#FFF" xlink:href="#a"/><path fill="#3DAABF" fill-rule="nonzero" d="M15.613 20.385c2.494 0 4.516 2.009 4.516 4.487v3.846c0 .708-.578 1.282-1.29 1.282H9.16c-.712 0-1.29-.574-1.29-1.282v-3.846c0-2.478 2.022-4.487 4.516-4.487v-.666H8.492a2.548 2.548 0 0 1-2.557-2.54v-1.282A1.93 1.93 0 0 1 4 13.974a1.93 1.93 0 0 1 1.935-1.923v-1.947a2.548 2.548 0 0 1 2.557-2.54h3.895v-.961C12.387 5.717 13.11 5 14 5s1.613.717 1.613 1.603v.961h3.87a2.548 2.548 0 0 1 2.557 2.54v1.948h.025A1.93 1.93 0 0 1 24 13.973a1.93 1.93 0 0 1-1.96 1.923v1.282a2.548 2.548 0 0 1-2.556 2.54h-3.871v.666zm-.645 1.282h-2.581c-1.781 0-3.226 1.435-3.226 3.205v3.846h9.678v-3.846c0-1.77-1.445-3.205-3.226-3.205h-.645zm-.645-1.282v-.641h-.646v.64h.646zm-.646-12.821h.646v-.961a.321.321 0 0 0-.323-.32.321.321 0 0 0-.323.32v.961zm1.3 1.282H8.492c-.7 0-1.266.563-1.266 1.258v7.075c0 .695.566 1.258 1.266 1.258h10.992c.699 0 1.266-.563 1.266-1.258v-7.075c0-.695-.567-1.258-1.266-1.258h-4.507zm-2.59 7.051h3.226c0-.354.289-.64.645-.64h.645c.357 0 .645.286.645.64a.643.643 0 0 1-.645.641h-.645a.643.643 0 0 1-.645.641h-3.226a.643.643 0 0 1-.645-.64h-.645a.643.643 0 0 1-.645-.642c0-.354.288-.64.645-.64h.645c.356 0 .645.286.645.64zm-6.452-2.564a.644.644 0 0 0-.645.641c0 .354.29.641.645.641v-1.282zm16.105 0v1.283a.644.644 0 0 0 .67-.641.644.644 0 0 0-.67-.642zm-9.33-.961a2.25 2.25 0 0 1-2.258 2.243 2.25 2.25 0 0 1-2.258-2.243 2.25 2.25 0 0 1 2.258-2.244 2.25 2.25 0 0 1 2.258 2.244zm-1.29 0a.964.964 0 0 0-.968-.962.964.964 0 0 0-.968.962c0 .531.433.961.968.961.534 0 .967-.43.967-.961zm8.386 0a2.25 2.25 0 0 1-2.258 2.243 2.25 2.25 0 0 1-2.258-2.243 2.25 2.25 0 0 1 2.258-2.244 2.25 2.25 0 0 1 2.258 2.244zm-1.29 0a.964.964 0 0 0-.968-.962.964.964 0 0 0-.967.962c0 .531.433.961.967.961.535 0 .968-.43.968-.961zm-6.129 13.782a.643.643 0 0 1-.645.64.643.643 0 0 1-.645-.64V24.23c0-.354.289-.641.645-.641.356 0 .645.287.645.64v1.924zm4.516 0a.643.643 0 0 1-.645.64.643.643 0 0 1-.645-.64V24.23c0-.354.289-.641.645-.641.356 0 .645.287.645.64v1.924z" mask="url(#b)"/></g></svg>