<svg xmlns="http://www.w3.org/2000/svg" viewBox="0 0 28 28"><circle fill="#fff" cx="14" cy="14" r="14"/><path d="M16.9 25.65a.65.65 0 0 1-1.29 0v-1.92a.65.65 0 0 1 1.29 0zm-4.51 0a.65.65 0 0 1-1.29 0v-1.92a.65.65 0 0 1 1.29 0zm6.13-13.78a1 1 0 1 0-1 1 1 1 0 0 0 1-1zm1.29 0a2.26 2.26 0 1 1-2.26-2.24 2.26 2.26 0 0 1 2.26 2.24zm-8.39 0a1 1 0 1 0-1 1 1 1 0 0 0 1-1zm1.29 0a2.26 2.26 0 1 1-2.26-2.24 2.26 2.26 0 0 1 2.26 2.24zm9.33 1v1.29a.65.65 0 1 0 0-1.29zm-16.1 0a.65.65 0 1 0 0 1.29zm6.45 2.57h3.22a.64.64 0 0 1 .65-.64h.64a.64.64 0 1 1 0 1.28h-.64a.65.65 0 0 1-.65.64h-3.22a.65.65 0 0 1-.65-.64h-.64a.64.64 0 1 1 0-1.28h.64a.64.64 0 0 1 .65.6zm2.59-7H8.49a1.25 1.25 0 0 0-1.26 1.25v7.08a1.26 1.26 0 0 0 1.26 1.26h11a1.27 1.27 0 0 0 1.27-1.26V9.6a1.26 1.26 0 0 0-1.27-1.25zm-1.3-1.29h.64v-1a.32.32 0 0 0-.64 0zm.64 12.82v-.64h-.64v.64zm5.81 6.21c-.42.2-.85.39-1.29.55v-2.27a3.22 3.22 0 0 0-3.23-3.2h-3.22a3.22 3.22 0 0 0-3.23 3.2v2.27c-.44-.16-.87-.35-1.29-.55v-1.72a4.5 4.5 0 0 1 4.52-4.49v-.66h-3.9a2.55 2.55 0 0 1-2.55-2.54V15.4a1.93 1.93 0 1 1 0-3.85V9.6a2.55 2.55 0 0 1 2.55-2.54h3.9v-1a1.61 1.61 0 0 1 3.22 0v1h3.87A2.55 2.55 0 0 1 22 9.6v1.95a1.93 1.93 0 1 1 0 3.85v1.28a2.55 2.55 0 0 1-2.56 2.54h-3.87v.66a4.5 4.5 0 0 1 4.52 4.49z" fill="#3daabf"/></svg>