<svg xmlns="http://www.w3.org/2000/svg" width="56" height="56" viewBox="0 0 56 56">
    <path fill="#000" fill-rule="nonzero" d="M21.045 28.302a11.53 11.53 0 0 1-.125-1.73c0-5.18 2.177-9.53 5.152-12.346 1.107-1.048 3.019-1.048 4.126 0 2.95 2.794 5.115 7.159 5.115 12.346 0 .59-.057 1.164-.166 1.72 1.877 1.934 2.645 4.199 2.569 6.567a9.944 9.944 0 0 1-.363 2.358c-.124.442-.247.77-.334.963a.84.84 0 0 1-1.516.028c-.78-1.557-2.2-2.491-3.967-2.943a8.424 8.424 0 0 0-1.19-.215 5.016 5.016 0 0 0-.46-.031H26.28c-.076.002-.223.01-.427.031-.37.04-.772.11-1.189.215-1.768.452-3.188 1.386-3.966 2.943a.84.84 0 0 1-1.516-.028 7.049 7.049 0 0 1-.335-.963 9.944 9.944 0 0 1-.363-2.358c-.076-2.364.69-4.626 2.56-6.557zm.508 1.99c-1.024 1.38-1.44 2.907-1.389 4.513.012.373.05.735.108 1.084.97-1.057 2.244-1.761 3.692-2.174a8.134 8.134 0 0 1-2.411-3.423zm13.002-.123c-.61 1.387-1.51 2.545-2.548 3.483 1.543.403 2.9 1.124 3.922 2.237.058-.349.096-.711.108-1.084.053-1.654-.39-3.224-1.482-4.636zm-1.453-.877c.346-.851.53-1.756.531-2.72 0-4.69-1.955-8.63-4.59-11.125-.46-.436-1.357-.436-1.816-.001-2.661 2.52-4.628 6.447-4.627 11.126 0 .2.005.398.016.592.17 2.981 1.551 4.873 3.409 5.95.178.103.325.177.43.225h3.22c.086-.056.193-.128.316-.217 1.295-.93 2.455-2.217 3.11-3.83zm-5.841 8.54a.84.84 0 0 1 1.68 0v2.718a.84.84 0 1 1-1.68 0v-2.717zm4.53 1.812a.84.84 0 0 1 1.68 0v1.812a.84.84 0 0 1-1.68 0v-1.812zm-9.06 0a.84.84 0 0 1 1.68 0v1.812a.84.84 0 0 1-1.68 0v-1.812zm5.37-19.862a2.65 2.65 0 0 1 2.651 2.65 2.65 2.65 0 0 1-2.65 2.653 2.65 2.65 0 0 1-2.653-2.652 2.65 2.65 0 0 1 2.651-2.651zm-.972 2.65a.97.97 0 1 0 1.942.003.97.97 0 0 0-1.942-.002z"/>
</svg>
