<svg xmlns="http://www.w3.org/2000/svg" width="48" height="48" viewBox="0 0 48 48">
  <path fill="#90A4AE" fill-rule="evenodd" d="M23,33.803257 L23,30.209257 L38,21.795257 L38,24.361257 L38,25.361257 L38,25.389257 L23,33.803257 Z M10,28.361257 L10,27.361257 L10,24.923257 L21,29.991257 L21,33.677257 L10,28.607257 L10,28.361257 Z M21.535,18.229257 C21.566,18.245257 21.589,18.273257 21.622,18.286257 L32.357,22.667257 L22.222,28.353257 L11.312,23.325257 L21.535,18.229257 Z M26.987,14.424257 C26.988,14.402257 27,14.383257 27,14.361257 L27,12.452257 L38,16.667257 L38,18.643257 L26.987,14.424257 Z M25.791,16.107257 L29.511,17.532257 L27.883,18.445257 C27.809,18.487257 27.756,18.549257 27.696,18.605257 L23.893,17.053257 L25.791,16.107257 Z M34.587,21.417257 L30.005,19.547257 L31.939,18.462257 L36.643,20.264257 L34.587,21.417257 Z M39.962,16.171257 C40.054,15.702257 39.818,15.222257 39.357,15.046257 L26.357,10.066257 C25.844,9.86925702 25.264,10.126257 25.066,10.642257 C24.997,10.824257 25.001,11.007257 25.035,11.185257 C25.024,11.244257 25,11.298257 25,11.361257 L25,14.267257 L8.554,22.466257 C8.461,22.512257 8.38,22.574257 8.308,22.644257 C8.29,22.660257 8.278,22.681257 8.263,22.699257 C8.2,22.767257 8.149,22.843257 8.109,22.926257 C8.094,22.956257 8.081,22.987257 8.069,23.019257 C8.032,23.119257 8.009,23.224257 8.006,23.334257 C8.005,23.343257 8,23.351257 8,23.361257 L8,27.361257 L8,28.361257 L8,32.361257 C8,32.913257 8.447,33.361257 9,33.361257 C9.553,33.361257 10,32.913257 10,32.361257 L10,30.810257 L21,35.878257 L21,37.361257 C21,37.913257 21.447,38.361257 22,38.361257 C22.553,38.361257 23,37.913257 23,37.361257 L23,36.096257 L38,27.682257 L38,29.361257 C38,29.913257 38.447,30.361257 39,30.361257 C39.553,30.361257 40,29.913257 40,29.361257 L40,25.361257 L40,24.361257 L40,20.361257 L40,16.361257 C40,16.293257 39.975,16.235257 39.962,16.171257 Z"/>
</svg>
