<svg width="16" height="13" fill="none" xmlns="http://www.w3.org/2000/svg"><path d="m9.403 10.551.651 1.307c.11.222.34.362.586.362h1.595c.467 0 .79-.467.611-.896l-.205-.493a1.206 1.206 0 0 1-.057-.734c.044-.184.14-.354.262-.499a5.142 5.142 0 0 0 1.058-2.053.518.518 0 0 1 .363-.376.971.971 0 0 0 .703-.944.974.974 0 0 0-.686-.94.463.463 0 0 1-.337-.353c-.563-2.605-2.91-4.4-5.724-4.4a6.21 6.21 0 0 0-1.376.152c-.066.013-.127.03-.188.044-.026.004-.048.013-.074.017-.07.018-.136.04-.202.057-.026.009-.052.018-.083.026-.31.1-.576.206-.821.328a.903.903 0 0 1-.813.004 4.334 4.334 0 0 0-.598-.257A2.45 2.45 0 0 0 3.775.82C3.679.793 3.583.78 3.49.763 3.399.745 3.307.74 3.224.733 3.15.718 3.071.718 3.001.718S2.866.715 2.81.724c-.061.004-.11.008-.149.013L2.534.75a.362.362 0 0 0-.162.655l.044.03s.03.023.087.062c.026.017.061.044.096.07.035.026.075.061.118.096.04.035.088.07.127.118.044.044.087.087.131.14.04.052.088.1.122.157.04.057.08.11.11.17v.005a.54.54 0 0 1 .078.258.88.88 0 0 1 .005.1c-.005.49-.341 1.39-.372 1.447-.126.244-.367.738-.633.738h-.42a.86.86 0 0 0-.865.86V7.86c0 .477.389.865.865.865h.463c.263 0 .503-.1.625.14.227.446.516.721.857 1.08.126.135.175.266.118.445l-.363.896a.682.682 0 0 0 .634.935h1.638a.685.685 0 0 0 .612-.38l.669-1.368M6.244 10.473h3.932M4.496 4.792v.437" stroke="#13C1AC" stroke-miterlimit="10" stroke-linecap="round"/><path d="M9.282 2.76a7.123 7.123 0 0 0-1.844-.009" stroke="#13C1AC" stroke-miterlimit="10" stroke-linecap="round"/></svg>