<svg width="32" height="30" viewBox="0 0 32 30" xmlns="http://www.w3.org/2000/svg"><path d="M30.93 4.843c.397.23.661.639.707 1.094.049.488-.165.96-.6 1.26l-4.332 2.637a13.948 13.948 0 0 1 1.308 5.91c0 7.735-6.27 14.006-14.007 14.006C6.271 29.75 0 23.48 0 15.744 0 8.008 6.27 1.737 14.006 1.737c2.8 0 5.407.825 7.596 2.24L26.3.232c.387-.269.9-.306 1.335-.096.407.195.7.576.785 1.02l.483 2.518 2.027 1.17zm-5.028 3.509L29.67 6.06l-1.708-.988a1.428 1.428 0 0 1-.69-.97l-.414-2.164-3.853 3.074a14.077 14.077 0 0 1 2.898 3.34zm-.285 11.518c.46-1.29.713-2.68.713-4.126a12.26 12.26 0 0 0-2.688-7.67l-7.86 1.774a8.52 8.52 0 0 1-3.65.02L4.284 8.183a12.258 12.258 0 0 0-2.602 7.56c0 1.416.244 2.777.685 4.044l10.45-1.483c.79-.112 1.59-.11 2.378.009l10.42 1.556zm-11.61 8.197c4.73 0 8.843-2.68 10.908-6.6l-9.968-1.488a6.582 6.582 0 0 0-1.892-.007L3.059 21.39c2.052 3.96 6.187 6.676 10.947 6.676zm2.578-5.545a.842.842 0 0 1 .924 1.407 6.475 6.475 0 0 1-7.115 0 .842.842 0 0 1 .924-1.407 4.791 4.791 0 0 0 5.267 0zm5.727-15.873a12.276 12.276 0 0 0-8.306-3.229A12.275 12.275 0 0 0 5.6 6.745l6.884 1.476c.959.206 1.97.2 2.927-.015l6.901-1.557zm-11.866 7.816a.841.841 0 1 1-.704 1.529l-.98-.452v.319a.842.842 0 1 1-1.684 0v-1.094l-1.64-.755a.842.842 0 0 1 .704-1.529l4.304 1.982zm11.354-1.57a.841.841 0 0 1-.413 1.117l-1.685.776v1.072a.841.841 0 1 1-1.683 0v-.298l-.936.432a.839.839 0 0 1-1.116-.413.841.841 0 0 1 .412-1.116l4.304-1.982a.84.84 0 0 1 1.117.412z" fill="#333" fill-rule="evenodd"/></svg>