<svg width="20" height="10" viewBox="0 0 20 10" fill="none" xmlns="http://www.w3.org/2000/svg">
<path d="M10.0054 7.66692L18.3253 0.273376C18.4228 0.183484 18.5372 0.113921 18.6619 0.0687532C18.7867 0.0235856 18.9191 0.00371917 19.0516 0.0103149C19.184 0.0169106 19.3139 0.0498362 19.4335 0.107167C19.5531 0.164499 19.66 0.245086 19.7481 0.344218C19.8362 0.443351 19.9036 0.559042 19.9465 0.684528C19.9893 0.810015 20.0067 0.942781 19.9977 1.07507C19.9886 1.20735 19.9533 1.33651 19.8937 1.45498C19.8341 1.57345 19.7515 1.67886 19.6507 1.76506L10.6781 9.73931C10.4942 9.90702 10.2543 10 10.0054 10C9.75648 10 9.51656 9.90702 9.33269 9.73931L0.360036 1.76506C0.257109 1.67952 0.172444 1.57415 0.111078 1.45524C0.0497115 1.33632 0.0128985 1.20628 0.00282863 1.07285C-0.0072412 0.939415 0.00963792 0.805323 0.0524618 0.678547C0.0952856 0.551771 0.163179 0.434901 0.252103 0.334891C0.341027 0.23488 0.449165 0.153773 0.570083 0.0963932C0.691 0.0390137 0.822227 0.00653474 0.955957 0.000888668C1.08969 -0.00475741 1.22319 0.0165448 1.34851 0.0635278C1.47384 0.110511 1.58843 0.182215 1.68547 0.274374L10.0054 7.66792V7.66692V7.66692Z" fill="#13C1AC"/>
</svg>
