<svg xmlns="http://www.w3.org/2000/svg" width="26" height="13" viewBox="0 0 26 13">
    <path fill="#13C1AC" fill-rule="evenodd" d="M24.375 8.845a.753.753 0 0 1-.745.758h-1.328c-.194-1.171-1.19-2.069-2.396-2.069-1.205 0-2.202.898-2.396 2.07H7.677c-.194-1.172-1.19-2.07-2.396-2.07-1.205 0-2.202.898-2.396 2.07h-.482a.788.788 0 0 1-.778-.794V7.726c0-.62.302-1.195.81-1.54l.75-.51a1.81 1.81 0 0 1 .782-.296l5.437-.692c.098-.013.192-.042.288-.062.02.001.038.012.058.012h4.875a.82.82 0 0 0 .813-.828.82.82 0 0 0-.813-.827h-1.432l1.24-.633c.251-.128.532-.195.813-.195h2.82c.281 0 .562.067.813.195l4.492 2.288c.619.315 1.004.95 1.004 1.655h-.813a.82.82 0 0 0-.812.828.82.82 0 0 0 .813.827h.812v.897zm-4.469 2a.822.822 0 0 1-.812-.828c0-.457.365-.827.812-.827.448 0 .813.37.813.827a.822.822 0 0 1-.813.828zm-14.625 0a.822.822 0 0 1-.812-.828c0-.457.365-.827.812-.827.448 0 .813.37.813.827a.822.822 0 0 1-.813.828zm18.816-7.688L19.606.87a3.402 3.402 0 0 0-1.54-.37h-2.82c-.532 0-1.064.127-1.54.37L9.79 2.864a1.774 1.774 0 0 1-.587.182l-5.438.692a3.415 3.415 0 0 0-1.48.561l-.752.51A3.516 3.516 0 0 0 0 7.726V8.81c0 1.35 1.078 2.449 2.403 2.449h.78c.423.738 1.2 1.241 2.098 1.241.898 0 1.676-.503 2.099-1.241h10.428c.423.738 1.2 1.241 2.098 1.241.898 0 1.676-.503 2.099-1.241h1.625c1.307 0 2.37-1.084 2.37-2.414V6.293a3.495 3.495 0 0 0-1.903-3.136z"/>
</svg>
