<svg width="20" height="20" viewBox="0 0 12 12" fill="none" xmlns="http://www.w3.org/2000/svg"><path fill-rule="evenodd" clip-rule="evenodd" d="M6 12A6 6 0 106 0a6 6 0 000 12zm2.817-6.494a.48.48 0 00-.444.048L6.196 7.078a.407.407 0 01-.444.002L3.558 5.553a.48.48 0 00-.444-.046c-.146.058-.239.183-.239.32v2.194c0 .195.187.354.418.354h5.346c.23 0 .418-.159.418-.354V5.827c0-.137-.093-.262-.24-.32zm-2.845.74a.417.417 0 01-.241-.077L3.212 4.392a.42.42 0 01.24-.761H8.48a.418.418 0 01.241.76L6.213 6.17a.417.417 0 01-.241.077z" fill="#D45B57"/></svg>