<svg width="20" height="20" viewBox="0 0 12 12" fill="none" xmlns="http://www.w3.org/2000/svg"><path fill-rule="evenodd" clip-rule="evenodd" d="M6 12A6 6 0 106 0a6 6 0 000 12zm1.4-9.652h-.365c-.323 0-.59.035-.88.146-.42.165-1.122.62-1.122 1.902v.334a.169.169 0 01-.169.168h-.027c-.318 0-.602.233-.633.55a.61.61 0 00.607.67h.052a.17.17 0 01.17.17v3.223c0 .318.233.603.55.633a.61.61 0 00.67-.607V6.336c0-.12.097-.218.218-.218h.088c.319 0 .603-.233.633-.55a.61.61 0 00-.607-.67H6.47a.217.217 0 01-.217-.217v-.285c0-.642.242-.725.343-.765.145-.055.265-.063.44-.063h.39a.61.61 0 00.608-.67c-.03-.317-.315-.55-.634-.55z" fill="#3B5998"/></svg>