<svg width="30" height="33" fill="none" xmlns="http://www.w3.org/2000/svg"><path fill-rule="evenodd" clip-rule="evenodd" d="M14.707 0c-.764 0-1.459.293-1.969.834C11.395 2.25 9.362 3.15 6.904 3.605a19.784 19.784 0 01-4.186.314A2.702 2.702 0 000 6.617v9.618c0 4.39 2.433 8.857 6.353 11.719l6.765 4.588c.443.3.96.458 1.492.458H14.712c.53 0 1.042-.156 1.483-.451l6.836-4.604c3.952-2.884 6.393-7.345 6.393-11.71V6.617c0-1.48-1.191-2.692-2.665-2.699a19.998 19.998 0 01-4.265-.311C20.02 3.151 17.976 2.25 16.63.835A2.637 2.637 0 0014.706 0zm6.596 11.794a1.078 1.078 0 00-1.492.003l-7.003 6.837-2.031-1.999a1.073 1.073 0 00-1.491-.008 1.01 1.01 0 00-.008 1.457l2.778 2.733a1.072 1.072 0 001.497.004l7.753-7.57a1.012 1.012 0 00-.003-1.457z" fill="#253238"/></svg>