<svg xmlns="http://www.w3.org/2000/svg" width="38" height="43" viewBox="0 0 38 43"><g fill="none" fill-rule="evenodd"><path fill="#CFD8DC" d="M5.878 15.768L5.32 15.4v19.851l4.147 2.467V18.126l-.5-.328 1.27.702L28.778 7.75l-4.837-2.49L5.878 15.768z" opacity=".5"/><path fill="#78909C" d="M35.88 31.62l-16.63 9.036-.005-18.155c.01-.005.02-.006.03-.012l16.714-9.081-.109 18.213zM18.319 20.73c-.085.047-.149.115-.215.18L2.422 11.215l8.164-4.435c.005.003.008.008.013.012l15.514 9.705-7.794 4.234zM2.004 30.716l.105-17.344 15.136 9.36.005 17.125-15.246-9.141zM19.1 2.153l15.883 9.523-6.85 3.722-15.531-9.715 6.498-3.53zm18.892 9.507c.001.022.008.043.008.065l-.124 20.5c-.002.363-.202.7-.522.874l-18 9.78c-.15.08-.314.121-.478.121-.178 0-.355-.049-.514-.142L.486 32.139A1.002 1.002 0 0 1 0 31.274l.124-20.5a1 1 0 0 1 .523-.873l18-9.78c.311-.168.687-.16.991.02l17.876 10.72c.025.015.045.037.068.054a1.004 1.004 0 0 1 .293.321c0 .002.003.003.004.005.004.008.004.016.008.024.049.096.078.2.094.308.004.03.009.057.011.087zm-14.576 14.6a4.93 4.93 0 0 0 .532-.543l.113 6.045-1.244.505.022 1.764 4.156-1.615-.059-1.82-1.256.51-.22-8.2-1.377.672c-.09.15-.21.32-.358.507-.149.19-.323.393-.522.613-.145.166-.3.33-.467.49a12.6 12.6 0 0 1-.503.46l.424 1.243c.273-.211.526-.422.76-.63zm6.26-2.87c.2-.694.538-1.153 1.013-1.377.473-.224.84-.094 1.106.395.265.488.434 1.344.506 2.568.073 1.223.009 2.18-.192 2.874-.204.691-.552 1.135-1.042 1.333-.493.198-.872.053-1.137-.437-.264-.487-.423-1.328-.478-2.525-.055-1.197.02-2.14.224-2.832zm1.489 7.684c1.009-.39 1.76-1.17 2.252-2.35.486-1.187.667-2.682.548-4.476-.12-1.794-.478-3.052-1.068-3.768-.586-.709-1.354-.826-2.308-.359-.954.47-1.672 1.3-2.157 2.488-.492 1.179-.707 2.624-.642 4.339.065 1.714.388 2.924.974 3.633.592.716 1.392.882 2.4.493z"/></g></svg>