<svg xmlns="http://www.w3.org/2000/svg" width="38" height="42" viewBox="0 0 38 42"><g fill="none" fill-rule="evenodd"><path fill="#CFD8DC" d="M6.656 15.688l-.576-.376v19.735l4.147 2.453V18.021l-.735-.48 1.553.863L29.477 7.718l-4.823-2.499L6.656 15.69z" opacity=".5"/><path fill="#78909C" d="M35.88 30.886L19.25 39.71l-.005-17.733c.01-.004.02-.005.03-.011l16.714-8.872-.109 17.79zM18.319 20.249c-.085.045-.149.111-.215.176L2.422 10.953l8.164-4.332 15.527 9.49-7.794 4.138zM2.004 30.001l.105-16.94 15.136 9.142.005 16.728-15.246-8.93zM19.1 2.103l15.883 9.302-6.85 3.635-15.531-9.49L19.1 2.104zm18.787 8.9c.049.094.078.196.113.45l-.124 20.022a.975.975 0 0 1-.522.854l-18 9.553a1.022 1.022 0 0 1-.992-.02L.486 31.391A.974.974 0 0 1 0 30.546l.124-20.023a.974.974 0 0 1 .523-.853l18-9.553c.311-.164.687-.157.991.02l17.876 10.47c.025.015.045.036.139.109.088.074.165.16.234.286zM27.369 30.826a2.477 2.477 0 0 1-.655.222 1.673 1.673 0 0 1-.575.004 1.263 1.263 0 0 1-.489-.222 1.044 1.044 0 0 1-.312-.391l-1.615 1.829c.074.18.185.338.335.47.15.134.331.251.543.351.194.08.398.127.617.144.218.016.45.006.696-.029a3.88 3.88 0 0 0 .728-.176 7.708 7.708 0 0 0 3.703-2.843c.767-1.084 1.151-2.138 1.151-3.166 0-1.038-.338-1.723-1.015-2.057-.676-.34-1.57-.26-2.679.243a5.304 5.304 0 0 0-.865.49 3.569 3.569 0 0 0-.656.587l.305-2.48L31 21.848v-1.952l-6.063 2.615-.75 6.284c.105-.017.223-.03.351-.042l.575-.049.481-.055a9.96 9.96 0 0 1 .288-.03c.15-.284.368-.563.656-.836.288-.272.581-.479.88-.618.564-.262 1.028-.31 1.391-.147s.544.506.544 1.032c0 .548-.184 1.076-.55 1.583a3.75 3.75 0 0 1-1.434 1.193z"/></g></svg>