<svg xmlns="http://www.w3.org/2000/svg" width="26" height="24" viewBox="0 0 26 24"><path fill="#607D8B" fill-rule="evenodd" d="M2.438 7.086c.449 0 .812.367.812.82a.815.815 0 0 1-.812.818h-.813a.815.815 0 0 1-.812-.819c0-.452.363-.819.812-.819h.813zm0 4.095c.449 0 .812.367.812.819a.815.815 0 0 1-.812.819H.813a.815.815 0 0 1-.813-.82c0-.451.363-.818.813-.818h1.625zm0 4.094c.449 0 .812.367.812.82a.815.815 0 0 1-.812.818h-.813a.815.815 0 0 1-.812-.819c0-.452.363-.819.812-.819h.813zm23.167-9.312A.82.82 0 0 1 26 6.67l-.067 11.181a.82.82 0 0 1-.424.715L15.76 23.9a.803.803 0 0 1-.806-.017L5.27 18.037a.821.821 0 0 1-.395-.708l.067-11.18a.818.818 0 0 1 .424-.716L15.116.1a.808.808 0 0 1 .806.017l9.683 5.847zM15.844 21.99l8.468-4.633.055-9.311-8.526 4.665.003 9.28zM6.555 8.054l-.053 8.818 7.717 4.66-.003-8.707-7.66-4.771zm8.495 3.226l3.504-1.918-7.69-5.073-3.867 2.116 7.958 4.955c.033-.026.057-.06.095-.08zm.435-9.519l-2.999 1.64 7.46 4.921a.792.792 0 0 1 .18.18L23.55 6.63l-8.065-4.87z"/></svg>