<svg xmlns="http://www.w3.org/2000/svg" width="48" height="48"><g fill="#253238" fill-rule="evenodd"><path fill-opacity=".5" d="M18 36.753l-4-2.203V16.568l14.884-8.505 3.845 2.41L18 18.89z"/><path d="M18.906 9.91L31.66 17.2l5.094-2.911L24 7l-5.094 2.91zm-1.999 1.143l-5.662 3.236L24 21.577l5.645-3.226L17.06 11.16a1.006 1.006 0 01-.152-.106zM23 38.429v-15.12l-13-7.428V31l13 7.429zm2 0L38 31V15.88l-13 7.43v15.119zm4-12.155c.187-1.318 1.089-2.916 2.629-3.805 1.717-.991 2.63-.308 2.63 1.095 0 1.198-.616 2.329-1.926 3.956l-.836 1.027c-.715.873-.803 1.274-.825 1.517l3.707-2.141v1.5l-5.269 3.043c0-.024-.011-.356-.011-.55.011-1.398.363-2.533 1.694-4.21l.638-.803c.881-1.113 1.277-1.681 1.287-2.413 0-.665-.484-.858-1.122-.49-.77.445-1.144 1.17-1.254 1.874l-1.342.4zM24 5c.342 0 .685.088.992.264l14 8A2 2 0 0140 15v16a2 2 0 01-1.008 1.736l-14 8a1.995 1.995 0 01-1.984 0l-14-8A2 2 0 018 31V15a2 2 0 011.008-1.736l14-8c.307-.176.65-.264.992-.264z"/></g></svg>