<svg xmlns="http://www.w3.org/2000/svg" width="48" height="48"><g fill="#253238" fill-rule="evenodd"><path fill-opacity=".5" d="M18 36.753l-4-2.203V16.568l14.884-8.505 3.845 2.41L18 18.89z"/><path d="M18.906 9.91L31.66 17.2l5.094-2.911L24 7l-5.094 2.91zm-1.999 1.143l-5.662 3.236L24 21.577l5.645-3.226L17.06 11.16a1.006 1.006 0 01-.152-.106zM23 38.429v-15.12l-13-7.428V31l13 7.429zm2 0L38 31V15.88l-13 7.43v15.119zm6.206-6.74c-2.002 1.155-2.553-.209-2.553-.209l1.112-1.428s.352.826 1.397.221c.77-.444 1.364-1.306 1.364-2.178 0-.846-.594-1.024-1.331-.598-.363.209-.836.675-1.056 1.166-.385.076-.77.13-1.166.212l.517-4.738 4.169-2.407v1.511l-3.036 1.753-.21 1.889s.375-.508 1.046-.895c1.562-.901 2.54-.33 2.54 1.242 0 1.502-1.077 3.468-2.793 4.459zM24 5c.342 0 .685.088.992.264l14 8A2 2 0 0140 15v16a2 2 0 01-1.008 1.736l-14 8a1.995 1.995 0 01-1.984 0l-14-8A2 2 0 018 31V15a2 2 0 011.008-1.736l14-8c.307-.176.65-.264.992-.264z"/></g></svg>