<svg xmlns="http://www.w3.org/2000/svg" width="38" height="43" viewBox="0 0 38 43"><g fill="none" fill-rule="evenodd"><path fill="#CFD8DC" d="M6.638 15.768L6.08 15.4v19.851l4.147 2.467V18.126l-.5-.328 1.27.702L29.538 7.75 24.7 5.261 6.638 15.768z" opacity=".5"/><path fill="#78909C" d="M35.88 31.622l-16.63 9.035-.005-18.155.03-.012 16.714-9.082-.109 18.214zM18.319 20.73c-.085.047-.149.114-.214.18L2.423 11.214l8.163-4.435c.005.004.008.009.013.012l15.514 9.705-7.794 4.235zM2.004 30.716l.105-17.343 15.136 9.36.005 17.124-15.246-9.141zM19.1 2.153l15.883 9.523-6.85 3.723-15.531-9.715 6.498-3.53zm18.892 9.508c.001.021.008.042.008.064l-.124 20.5c-.002.364-.202.7-.522.874l-18 9.78a1.003 1.003 0 0 1-.992-.021L.486 32.139A1.002 1.002 0 0 1 0 31.274l.124-20.499a1 1 0 0 1 .523-.873l18-9.781a1 1 0 0 1 .991.022L37.514 10.86c.025.015.045.038.068.055a.99.99 0 0 1 .293.321l.004.005c.004.007.004.016.008.024.049.096.078.199.095.308.003.03.008.057.01.087zM23.272 26.46a1.92 1.92 0 0 1 .824-.771c.328-.164.613-.173.853-.03.24.148.379.417.415.81.026.357-.03.706-.17 1.046-.14.34-.466.86-.983 1.555l-.62.819c-.59.767-1 1.492-1.23 2.177-.233.68-.321 1.47-.264 2.369l.015.21c.007.083.018.197.038.343l.006.084 5.637-2.362-.185-1.8-3.925 1.708c.005-.235.069-.481.192-.736.124-.255.315-.543.576-.865l.82-1.037c.685-.89 1.15-1.666 1.4-2.327a4.372 4.372 0 0 0 .27-1.994c-.094-.918-.414-1.548-.96-1.885-.54-.333-1.21-.293-2.008.12-.701.36-1.272.913-1.716 1.652a5.04 5.04 0 0 0-.741 2.352l1.409-.233c.034-.467.15-.867.348-1.205zm6.734-2.796c.152-.688.456-1.144.912-1.37.455-.227.83-.104 1.126.373.297.478.524 1.318.68 2.521.155 1.205.157 2.15.005 2.835-.155.687-.469 1.13-.944 1.335-.474.206-.86.07-1.157-.41-.296-.474-.512-1.301-.648-2.484-.137-1.182-.128-2.114.026-2.8zm-.408 7.12c.636.697 1.442.844 2.417.438.974-.405 1.666-1.193 2.072-2.365.401-1.177.48-2.65.238-4.413-.242-1.76-.683-2.993-1.319-3.69-.63-.69-1.4-.796-2.316-.323-.916.471-1.573 1.3-1.974 2.477-.406 1.172-.52 2.605-.337 4.3.183 1.695.587 2.886 1.219 3.576z"/></g></svg>