<svg xmlns="http://www.w3.org/2000/svg" width="48" height="48" viewBox="0 0 48 48">
    <g fill="#253238" fill-rule="evenodd">
        <path fill-opacity=".5" d="M18 36.753l-4-2.203V16.568l14.884-8.505 3.845 2.41L18 18.89z"/>
        <path d="M18.906 9.91L31.66 17.2l5.094-2.911L24 7l-5.094 2.91zm-1.999 1.143l-5.662 3.236L24 21.577l5.645-3.226L17.06 11.16a1.006 1.006 0 0 1-.152-.106zM23 38.429v-15.12l-13-7.428V31l13 7.429zm2 0L38 31V15.88l-13 7.43v15.119zm1-5.252l1.078-1.421s.374.813 1.419.209c.803-.463 1.386-1.345 1.386-2.167 0-.823-.583-1.02-1.386-.556-.528.305-.814.81-.814.81l-.748-.404c1.122-2.245 2.2-3.641 2.2-3.641l-2.86 1.65v-1.512l4.851-2.801v1.477s-.979 1.206-1.969 2.794c1.299-.604 2.2-.108 2.2 1.319 0 1.5-1.088 3.449-2.816 4.446-1.98 1.143-2.541-.203-2.541-.203zm7.249-6.896c0 2.118.506 2.575 1.32 2.105.814-.47 1.321-1.512 1.321-3.63 0-2.117-.507-2.575-1.321-2.105-.814.47-1.32 1.513-1.32 3.63zm-1.54.89c0-2.917 1.122-5.029 2.86-6.033 1.739-1.003 2.861-.187 2.861 2.73 0 2.915-1.122 5.027-2.861 6.031-1.738 1.004-2.86.187-2.86-2.729zM24 5c.342 0 .685.088.992.264l14 8A2 2 0 0 1 40 15v16a2 2 0 0 1-1.008 1.736l-14 8a1.995 1.995 0 0 1-1.984 0l-14-8A2 2 0 0 1 8 31V15a2 2 0 0 1 1.008-1.736l14-8c.307-.176.65-.264.992-.264z"/>
    </g>
</svg>
