<svg xmlns="http://www.w3.org/2000/svg" width="48" height="48"><g fill="#253238" fill-rule="evenodd"><path fill-opacity=".5" d="M18 36.753l-4-2.203V16.568l14.884-8.505 3.845 2.41L18 18.89z"/><path d="M18.906 9.91L31.66 17.2l5.094-2.911L24 7l-5.094 2.91zm-1.999 1.143l-5.662 3.236L24 21.577l5.645-3.226L17.06 11.16a1.006 1.006 0 01-.152-.106zM23 38.429v-15.12l-13-7.428V31l13 7.429zm2 0L38 31V15.88l-13 7.43v15.119zm2.352-4.7v-1.5l1.133-.655V26.48c-.198.248-.638.695-1.22 1.189l-.386-1c1.2-1.116 1.771-2.015 1.771-2.015l1.31-.756v6.825l1.143-.661v1.501l-3.75 2.166zm5.467-7.32c0 2.119.506 2.577 1.32 2.106.814-.47 1.321-1.512 1.321-3.63 0-2.117-.507-2.575-1.32-2.105-.815.47-1.32 1.513-1.32 3.63zm-1.54.89c0-2.916 1.122-5.028 2.86-6.032C35.88 20.264 37 21.08 37 23.996c0 2.917-1.122 5.029-2.86 6.032-1.739 1.004-2.86.188-2.86-2.73zM24 5c.342 0 .685.088.992.264l14 8A2 2 0 0140 15v16a2 2 0 01-1.008 1.736l-14 8a1.995 1.995 0 01-1.984 0l-14-8A2 2 0 018 31V15a2 2 0 011.008-1.736l14-8c.307-.176.65-.264.992-.264z"/></g></svg>