<svg xmlns="http://www.w3.org/2000/svg" width="26" height="15" viewBox="0 0 26 15">
    <path fill="#13C1AC" fill-rule="evenodd" d="M24.375 10.582a.321.321 0 0 1-.323.318h-1.235a2.438 2.438 0 0 0-2.098-1.2c-.898 0-1.676.486-2.099 1.2H8.192a2.438 2.438 0 0 0-2.098-1.2c-.898 0-1.676.486-2.099 1.2H2.23a.6.6 0 0 1-.604-.594V7.502c0-.258.166-.487.343-.548l3.68-.862c.014 0 .025.008.04.008H9.75a.806.806 0 0 0 .813-.8c0-.442-.364-.8-.813-.8H7.6c.543-.52 1.264-1.217 2.242-2.166a.833.833 0 0 1 .583-.234h6.658c.257 0 .497.114.659.31l2.58 3.136.16.148c.18.128.379.226.587.294l2.893.95c.247.08.413.308.413.564v3.08zM20.719 12.9a.807.807 0 0 1-.813-.8c0-.44.365-.8.813-.8.447 0 .812.36.812.8 0 .442-.365.8-.812.8zm-14.625 0a.807.807 0 0 1-.813-.8c0-.44.365-.8.813-.8.447 0 .812.36.812.8 0 .442-.365.8-.812.8zm18.383-7.48l-2.896-.951a.555.555 0 0 1-.081-.033l-2.495-3.033A2.478 2.478 0 0 0 17.083.5h-6.658c-.65 0-1.262.247-1.724.695-2.123 2.06-3.18 3.062-3.516 3.364l-3.662.858A2.197 2.197 0 0 0 0 7.502v2.804c0 1.21 1 2.194 2.229 2.194h1.469a2.424 2.424 0 0 0 2.396 2 2.424 2.424 0 0 0 2.396-2h9.833a2.424 2.424 0 0 0 2.396 2 2.424 2.424 0 0 0 2.396-2h.937c1.074 0 1.948-.86 1.948-1.918v-3.08c0-.947-.613-1.783-1.523-2.082z"/>
</svg>
