<svg width="22" height="19" viewBox="0 0 22 19" xmlns="http://www.w3.org/2000/svg"><path d="M19.93 9.95l-3.758-3.026-2.225-1.836-.003-.003c-.866-.714-1.754-.631-2.462-.066a2.178 2.178 0 0 0-.42.432C9.857 6.857 8.56 7.416 7.417 7.291a1.957 1.957 0 0 1-.794-.257 6.664 6.664 0 0 0 1.813-2.496 4.568 4.568 0 0 1 2.48-2.488c1.036-.428 2.282-.403 3.55.014l.246.088c.712.25 1.156.383 1.644.462l.03.004c2.454.383 4.18 2.292 4.18 4.727 0 1.078-.195 1.87-.635 2.605m-.11 2.278l-.296.349c-.242.283-.72.3-1.07.001l-.236-.264a2.035 2.035 0 0 0-.229-.256l-.032-.037-.002.002c-.018-.017-.032-.037-.051-.053-.534-.456-1.253.283-.782.804l.12.132c.278.3.321.715.099.976l-.298.349c-.242.283-.72.3-1.07.002l-.236-.265a2.035 2.035 0 0 0-.229-.257l-.032-.037-.001.002c-.018-.017-.033-.037-.05-.052-.536-.457-1.254.283-.784.803l.12.134c.278.298.321.715.099.975l-.297.348c-.243.283-.722.3-1.071.002 0 0-.617-.44-.7-.52 0 0-.068-.073-.086-.089-.535-.456-1.134.283-.664.805l.18.133c.277.299.35.715.128.974l-.282.349c-.242.283-.713.3-1.064.002-.138-.1-.135-.1-.423-.302l-.134-.096a3.139 3.139 0 0 0-.846-3.462L5.256 9.813c-.843-.751-2.06-.956-3.13-.659-.204-.587-.338-1.197-.338-1.809a5.09 5.09 0 0 1 5.092-5.09c.53 0 1.04.107 1.534.264A5.706 5.706 0 0 0 7.397 4.11a5.53 5.53 0 0 1-1.773 2.308c-.536.41-.333 1.023.162 1.422.366.293.906.502 1.507.568 1.528.168 3.184-.547 4.655-2.267.06-.08.132-.162.235-.244.324-.258.63-.286 1.044.054 0 0 .002.001.002.003l2.232 1.84 4.208 3.388c.336.288.395.763.153 1.046m-10.799 5.15l-.021.025a.645.645 0 0 1-.906.058L1.502 11.74a.648.648 0 0 1-.06-.917l.011-.013c.732-.822 2.218-.903 3.057-.157l4.347 3.867c.835.743.91 2.024.166 2.86M21.691 7.344c0-3.002-2.143-5.372-5.132-5.837l-.023-.004c-.404-.065-.797-.182-1.448-.412-.13-.046-.246-.046-.376-.092l-.131-.003V.995c-1.124-.493-2.905-.524-4.212.015-.404.166-.715.389-1.065.64A6.056 6.056 0 0 0 6.85 1.13a6.202 6.202 0 0 0-6.2 6.214c0 .777.158 1.557.43 2.293-.175.126-.334.271-.479.434l-.01.014a1.767 1.767 0 0 0 .173 2.502l6.81 5.723c.696.604 1.495.561 2.54-.067.154.112.16.128.238.183.763.655 1.94.615 2.599-.159l.291-.348c.195-.228.308-.494.365-.769.67.169 1.363-.01 1.813-.537l.296-.348c.195-.228.312-.493.37-.769.669.17 1.363-.01 1.813-.537l.298-.348c.194-.227.31-.493.369-.768.669.168 1.364-.01 1.813-.537l.298-.349c.54-.632.533-1.531.077-2.216.65-.976.937-2.023.937-3.397" fill="#f75883" fill-rule="evenodd"/></svg>