<svg width="15" height="14" viewBox="0 0 15 14" xmlns="http://www.w3.org/2000/svg"><path d="M11.338 9.142a.107.107 0 0 1-.09.054l-5.746-.088a.367.367 0 0 0-.235.073l-1.785 1.28a.925.925 0 0 1-.535.177c-.302 0-.586-.157-.78-.43l-.429-.606a.991.991 0 0 1-.186-.719.896.896 0 0 1 .387-.606l1.408-1.01.394.52a.392.392 0 1 0 .624-.475l-.463-.61 1.79-5.346a.118.118 0 0 1 .086-.07.135.135 0 0 1 .019-.002c.034 0 .068.014.082.033l5.463 7.718c.015.021.017.066-.004.107zM5.9 12.716L4.574 10.64l.537-.386 1.547 2.462h-.757zM6.52.864a.898.898 0 0 0-1.57.243L3.164 6.433 1.483 7.638a1.684 1.684 0 0 0-.706 1.129 1.77 1.77 0 0 0 .321 1.288l.43.606c.342.484.86.761 1.42.761.348 0 .69-.113.988-.324l1.42 2.221c.073.113.197.181.33.181h1.682a.392.392 0 0 0 .332-.6L5.81 9.891l5.425.079h.014a.891.891 0 0 0 .783-.468.885.885 0 0 0-.05-.92L6.52.863zM9.45 3.265c.9.098 1.553.909 1.456 1.807l-.004.03a.392.392 0 0 0 .779.096l.004-.04a2.428 2.428 0 0 0-2.15-2.672.392.392 0 0 0-.085.78zm3.312-1.197A3.983 3.983 0 0 0 10.07.596a.393.393 0 0 0-.085.78 3.204 3.204 0 0 1 2.167 1.184c.54.671.787 1.512.694 2.368l-.006.057a.392.392 0 0 0 .778.096l.008-.068a3.984 3.984 0 0 0-.863-2.945z" fill="#000" fill-rule="evenodd"/></svg>