<svg width="50" height="51" viewBox="0 0 50 51" xmlns="http://www.w3.org/2000/svg" xmlns:xlink="http://www.w3.org/1999/xlink"><defs><path d="M37.895 29.567l1.184-.904-1.145.88a2.148 2.148 0 0 0-.757 2.31l2.833 8.719a4.415 4.415 0 0 1-6.793 4.936l-7.432-5.402a2.126 2.126 0 0 0-1.196-.372c-.44 0-.86.135-1.192.364l-7.448 5.41a4.413 4.413 0 0 1-5.189 0 4.415 4.415 0 0 1-1.604-4.936l2.836-8.721c.061-.21.092-.41.092-.603 0-.71-.35-1.363-.955-1.785l-7.31-5.31c-1.548-1.126-2.193-3.008-1.602-4.824.59-1.816 2.277-2.939 4.198-2.939h9.486l-.513.08c1.216-.39 1.894-.898 2.117-1.477l2.88-8.917C20.977 4.256 22.673 3 24.585 3a4.403 4.403 0 0 1 4.199 3.041l2.849 8.878c.251.656.926 1.159 2.147 1.551l-.513-.08h9.485c1.922 0 3.608 1.123 4.2 2.94.59 1.816-.055 3.698-1.605 4.824l-7.452 5.413z" id="path-1"/><filter x="-50%" y="-50%" width="200%" height="200%" filterUnits="objectBoundingBox" id="filter-2"><feGaussianBlur stdDeviation="1" in="SourceAlpha" result="shadowBlurInner1"/><feOffset dy="1" in="shadowBlurInner1" result="shadowOffsetInner1"/><feComposite in="shadowOffsetInner1" in2="SourceAlpha" operator="arithmetic" k2="-1" k3="1" result="shadowInnerInner1"/><feColorMatrix values="0 0 0 0 0 0 0 0 0 0 0 0 0 0 0 0 0 0 0.1 0" in="shadowInnerInner1"/></filter></defs><g id="Page-1" fill="none" fill-rule="evenodd"><g id="images" transform="translate(-215 -701)"><g id="placeholder_1" transform="translate(94 559.919)"><g transform="translate(121 142)" id="scoring_star_empty"><use fill="#ECEFF1" xlink:href="#path-1"/><use fill="#000" filter="url(#filter-2)" xlink:href="#path-1"/></g></g></g></g></svg>