<?xml version="1.0" encoding="UTF-8"?>
<svg width="46px" height="45px" viewBox="0 0 46 45" version="1.1" xmlns="http://www.w3.org/2000/svg" xmlns:xlink="http://www.w3.org/1999/xlink">
  <!-- Generator: Sketch 45.2 (43514) - http://www.bohemiancoding.com/sketch -->
  <title>scoring_star_full</title>
  <desc>Created with Sketch.</desc>
  <defs></defs>
  <g id="Styleguide" stroke="none" stroke-width="1" fill="none" fill-rule="evenodd">
    <g id="images" transform="translate(-97.000000, -706.000000)" fill-rule="nonzero" fill="#FFB238">
      <g id="profile_place_holders" transform="translate(94.000000, 561.000000)">
        <g id="placeholder_1" transform="translate(0.000000, 0.918590)">
          <path d="M38.8950278,171.566807 L40.0790705,170.663011 L38.9341871,171.543535 C38.4044751,171.950934 38.0897096,172.574851 38.0897096,173.250855 C38.0897096,173.463597 38.1219537,173.673831 38.1767921,173.852509 L41.0104046,182.57187 C41.6019912,184.391021 40.9546376,186.383534 39.4043004,187.510236 C38.6446755,188.059516 37.7376883,188.350118 36.812474,188.350118 C35.8855821,188.350118 34.9792198,188.060046 34.2170482,187.507969 L26.7847735,182.106304 C26.4238058,181.863116 26.0149366,181.73381 25.5892831,181.73381 C25.1491496,181.73381 24.728448,181.868799 24.397121,182.098233 L16.9489912,187.508511 C16.1894937,188.05973 15.2817047,188.350589 14.3547837,188.350589 C13.4279082,188.350589 12.5205704,188.059749 11.7604919,187.508108 C10.2130278,186.38404 9.56531378,184.391763 10.1563011,182.572118 L12.9918181,173.850568 C13.0531502,173.640871 13.0836735,173.440871 13.0836735,173.247557 C13.0836735,172.538224 12.7338243,171.885425 12.1289398,171.463133 L4.81963386,166.153537 C3.27063655,165.027043 2.62557669,163.145376 3.21687471,161.328629 C3.8078794,159.512784 5.49358974,158.389957 7.41514908,158.389957 L16.9010754,158.389957 L16.3883415,158.470297 C17.6036115,158.079875 18.2817874,157.571593 18.5052221,156.993167 L21.3848195,148.076423 C21.9769498,146.25636 23.6727988,145 25.5841,145 C27.4971803,145 29.1913966,146.217366 29.7839063,148.040967 L32.6325341,156.918593 C32.8842321,157.575098 33.5589594,158.07794 34.780008,158.470345 L34.2671246,158.389957 L43.7521086,158.389957 C45.6737067,158.389957 47.3598489,159.512782 47.9510501,161.329232 C48.5416346,163.146118 47.8966458,165.027578 46.3473072,166.153768 L38.8950278,171.566807 Z" id="scoring_star_full"></path>
        </g>
      </g>
    </g>
  </g>
</svg>
