<?xml version="1.0" encoding="UTF-8"?>
<svg width="15px" height="15px" viewBox="0 0 15 15" version="1.1" xmlns="http://www.w3.org/2000/svg" xmlns:xlink="http://www.w3.org/1999/xlink">
    <!-- Generator: Sketch 41 (35326) - http://www.bohemiancoding.com/sketch -->
    <title>profile_star_empty</title>
    <desc>Created with Sketch.</desc>
    <defs>
        <path d="M93.9206324,425.822758 L94.3138495,425.52261 L93.9336371,425.815029 C93.7577213,425.950325 93.6531886,426.157526 93.6531886,426.382025 C93.6531886,426.452676 93.6638967,426.522494 93.6821084,426.581833 L94.6231427,429.477507 C94.8196069,430.081641 94.6046227,430.743349 94.0897603,431.117523 C93.8374911,431.299938 93.5362833,431.396446 93.2290224,431.396446 C92.9212044,431.396446 92.6202041,431.300114 92.3670892,431.11677 L89.8988528,429.322894 C89.7789765,429.242132 89.6431922,429.199189 89.501834,429.199189 C89.355667,429.199189 89.2159532,429.244019 89.1059205,429.320213 L86.6324187,431.116951 C86.3801918,431.300009 86.0787177,431.396602 85.77089,431.396602 C85.4630774,431.396602 85.1617532,431.300015 84.9093334,431.116817 C84.3954252,430.743517 84.1803213,430.081888 84.3765864,429.477589 L85.3182532,426.581188 C85.3386214,426.511548 85.3487581,426.445129 85.3487581,426.38093 C85.3487581,426.145362 85.2325742,425.92857 85.0316938,425.788328 L82.604295,424.025027 C82.0898776,423.650922 81.8756551,423.026025 82.0720234,422.422689 C82.2682944,421.819653 82.8281138,421.446765 83.4662579,421.446765 L86.616506,421.446765 L86.4462285,421.473446 C86.8498161,421.343788 87.0750363,421.174989 87.1492383,420.982895 L88.1055441,418.021671 C88.3021888,417.417233 88.8653752,417 89.5001127,417 C90.135441,417 90.6980852,417.404284 90.8948559,418.009896 L91.8408768,420.95813 C91.9244649,421.176153 92.1485399,421.343145 92.5540465,421.473462 L92.3837194,421.446765 L95.5336545,421.446765 C96.1718115,421.446765 96.7317744,421.819652 96.9281105,422.422889 C97.1242419,423.026272 96.9100431,423.651099 96.3955123,424.025104 L93.9206324,425.822758 Z" id="path-1"></path>
        <filter x="-50%" y="-50%" width="200%" height="200%" filterUnits="objectBoundingBox" id="filter-2">
            <feGaussianBlur stdDeviation="0.5" in="SourceAlpha" result="shadowBlurInner1"></feGaussianBlur>
            <feOffset dx="0" dy="1" in="shadowBlurInner1" result="shadowOffsetInner1"></feOffset>
            <feComposite in="shadowOffsetInner1" in2="SourceAlpha" operator="arithmetic" k2="-1" k3="1" result="shadowInnerInner1"></feComposite>
            <feColorMatrix values="0 0 0 0 0   0 0 0 0 0   0 0 0 0 0  0 0 0 0.1 0" type="matrix" in="shadowInnerInner1"></feColorMatrix>
        </filter>
    </defs>
    <g id="Styleguide" stroke="none" stroke-width="1" fill="none" fill-rule="evenodd">
        <g id="ICONS" transform="translate(-82.000000, -417.000000)">
            <g id="profile_star_empty">
                <use fill="#455A64" fill-rule="evenodd" xlink:href="#path-1"></use>
                <use fill="black" fill-opacity="1" filter="url(#filter-2)" xlink:href="#path-1"></use>
            </g>
        </g>
    </g>
</svg>
