<svg width="28" height="28" viewBox="0 0 28 28" xmlns="http://www.w3.org/2000/svg"><path d="M13.98 26.279c-6.782 0-12.3-5.518-12.3-12.3 0-6.781 5.518-12.299 12.3-12.299 6.781 0 12.299 5.518 12.299 12.3 0 6.781-5.518 12.299-12.3 12.299M13.98 0C21.7 0 27.96 6.259 27.96 13.98c0 7.72-6.259 13.979-13.98 13.979C6.26 27.959 0 21.7 0 13.979 0 6.26 6.259 0 13.98 0zm2.064 16h-2.234a.843.843 0 0 0-.838.845c0 .463.375.844.838.844h2.234a.843.843 0 0 0 .838-.844.843.843 0 0 0-.838-.845zm-9.034-5.488a2.475 2.475 0 0 1 3.5 0 .894.894 0 0 0 1.264-1.264 4.262 4.262 0 0 0-6.028 0 .894.894 0 1 0 1.264 1.264zm16.038 2.022h-5.016a.89.89 0 1 0 0 1.778h2.592v.71a.89.89 0 1 0 1.778 0v-.71h.646a.89.89 0 1 0 0-1.778zm-11.803 0H6.227a.89.89 0 1 0 0 1.778H8.8v.71a.89.89 0 1 0 1.778 0v-.71h.666a.89.89 0 1 0 0-1.778z" fill="#333" fill-rule="evenodd"/></svg>