<svg width="28" height="28" viewBox="0 0 28 28" xmlns="http://www.w3.org/2000/svg"><g id="Report" fill="none" fill-rule="evenodd"><g id="MVP-1.1---Report-User" transform="translate(-574 -464)" fill="#333"><g id="Overlay-Report-User" transform="translate(97 186)"><path d="M490.98 304.279c-6.782 0-12.3-5.518-12.3-12.3 0-6.781 5.518-12.299 12.3-12.299 6.781 0 12.299 5.518 12.299 12.3 0 6.781-5.518 12.299-12.3 12.299m0-26.279c7.721 0 13.98 6.259 13.98 13.98 0 7.72-6.259 13.979-13.98 13.979-7.72 0-13.979-6.259-13.979-13.98 0-7.72 6.259-13.979 13.98-13.979zm2.064 16h-2.234a.843.843 0 0 0-.838.845c0 .463.375.844.838.844h2.234a.843.843 0 0 0 .838-.844.843.843 0 0 0-.838-.845zm-9.034-5.488a2.475 2.475 0 0 1 3.5 0 .894.894 0 0 0 1.264-1.264 4.262 4.262 0 0 0-6.028 0 .894.894 0 1 0 1.264 1.264zm16.038 2.022h-5.016a.89.89 0 1 0 0 1.778h2.592v.71a.89.89 0 1 0 1.778 0v-.71h.646a.89.89 0 1 0 0-1.778zm-11.803 0h-5.017a.89.89 0 1 0 0 1.778h2.573v.71a.89.89 0 1 0 1.778 0v-.71h.666a.89.89 0 1 0 0-1.778z" id="report_suspicious"/></g></g></g></svg>