<svg width="100" height="101" xmlns="http://www.w3.org/2000/svg" xmlns:xlink="http://www.w3.org/1999/xlink"><defs><path id="a" d="M0 .15h99.85V100H0z"/></defs><g transform="translate(0 -1)" fill="none" fill-rule="evenodd"><circle stroke="#979797" fill="#FF6B63" cx="49" cy="51" r="45"/><g transform="translate(0 .85)"><mask id="b" fill="#fff"><use xlink:href="#a"/></mask><path d="M49.925.15C22.352.15 0 22.503 0 50.075 0 77.648 22.352 100 49.925 100c27.573 0 49.925-22.353 49.925-49.926C99.85 22.503 77.498.15 49.925.15M49.5 7C73.486 7 93 26.515 93 50.5 93 74.487 73.486 94 49.5 94S6 74.488 6 50.5C6 26.514 25.514 7 49.5 7" fill="#B33D39" mask="url(#b)"/></g><path d="M32.502 52.958a3.105 3.105 0 1 1-4.618.042H20a3 3 0 0 1 0-6h12a3 3 0 0 1 .502 5.958zm44.185-.037a3.105 3.105 0 1 1-4.583.079H64a3 3 0 0 1 0-6h12a3 3 0 0 1 .687 5.921zM44 64a3 3 0 0 1 0-6h12a3 3 0 0 1 0 6H44zm21-21a3 3 0 0 1 0-6h8.28a3 3 0 0 1 0 6H65zm-42.495-3.106a3 3 0 1 1-3.99-4.481c4.063-3.618 10.875-3.77 14.899-.073a3 3 0 0 1-4.06 4.419c-1.695-1.558-5.031-1.484-6.85.135z" fill="#B33D39" fill-rule="nonzero"/></g></svg>