<svg xmlns="http://www.w3.org/2000/svg" width="48" height="48" viewBox="0 0 48 48">
  <path fill="#90A4AE" fill-rule="evenodd" d="M32.8064117,34.591 L29.5064117,31.591 L32.9194117,31.591 L33.0334117,31.591 L36.3324117,34.591 L32.8064117,34.591 Z M31.0734117,25.591 L31.7394117,29.591 L27.9104117,29.591 L27.1324117,25.591 L31.0734117,25.591 Z M39.9074117,35.533 C39.9094117,35.553 39.9194117,35.57 39.9194117,35.591 L39.9194117,37.591 C39.9194117,38.144 39.4724117,38.591 38.9194117,38.591 C38.3674117,38.591 37.9194117,38.144 37.9194117,37.591 L37.9194117,36.591 L33.4194117,36.591 L33.4194117,37.591 C33.4194117,38.144 32.9724117,38.591 32.4194117,38.591 C31.8674117,38.591 31.4194117,38.144 31.4194117,37.591 L31.4194117,36.034 L27.9194117,32.852 L27.9194117,33.591 C27.9194117,34.144 27.4724117,34.591 26.9194117,34.591 C26.3674117,34.591 25.9194117,34.144 25.9194117,33.591 L25.9194117,30.591 C25.9194117,30.581 25.9244117,30.574 25.9244117,30.566 C25.9274117,30.452 25.9454117,30.34 25.9874117,30.231 C25.9894117,30.226 25.9934117,30.222 25.9944117,30.216 L24.9384117,24.782 C24.8804117,24.488 24.9574117,24.186 25.1484117,23.955 C25.3374117,23.725 25.6204117,23.591 25.9194117,23.591 L31.9194117,23.591 C32.4094117,23.591 32.8264117,23.945 32.9064117,24.427 L33.7784117,29.657 C33.8924117,29.702 33.9994117,29.767 34.0924117,29.851 L39.5924117,34.851 C39.6874117,34.937 39.7544117,35.041 39.8094117,35.152 C39.8244117,35.183 39.8344117,35.213 39.8464117,35.244 C39.8814117,35.338 39.9014117,35.434 39.9074117,35.533 Z M21.9787117,33.686 C24.2277117,34.075 25.9197117,35.676 25.9197117,37.591 C25.9197117,38.144 25.4727117,38.591 24.9197117,38.591 L16.9197117,38.591 C16.3667117,38.591 15.9197117,38.144 15.9197117,37.591 C15.9197117,35.634 17.6887117,34.007 20.0127117,33.664 C20.0107117,33.639 19.9977117,33.617 19.9977117,33.591 L19.9977117,19.773 L15.7727117,19.773 L15.7717117,19.773 L15.7707117,19.773 L9.08371173,19.773 L9.08071173,19.773 C8.74271173,19.773 8.42771173,19.602 8.24271173,19.319 C8.05771173,19.034 8.02871173,18.675 8.16771173,18.365 C10.6307117,12.841 15.5467117,9.409 20.9977117,9.409 C21.0107117,9.409 21.0227117,9.411 21.0347117,9.411 C21.0397117,9.411 21.0447117,9.409 21.0497117,9.409 C21.0617117,9.409 21.0727117,9.412 21.0847117,9.413 C26.4997117,9.449 31.3777117,12.87 33.8277117,18.364 C33.9657117,18.674 33.9387117,19.031 33.7537117,19.316 C33.5687117,19.6 33.2537117,19.772 32.9147117,19.772 L26.2287117,19.772 C26.2267117,19.772 26.2257117,19.773 26.2247117,19.773 C26.2237117,19.773 26.2227117,19.772 26.2207117,19.772 L21.9977117,19.773 L21.9977117,33.591 C21.9977117,33.624 21.9817117,33.653 21.9787117,33.686 Z M18.3357117,36.591 L23.5037117,36.591 C22.9767117,35.998 22.0037117,35.591 20.9197117,35.591 C19.8357117,35.591 18.8627117,35.998 18.3357117,36.591 Z M16.8627117,12.248 C14.3757117,13.267 12.2087117,15.175 10.7107117,17.772 L14.8217117,17.772 C15.0187117,15.678 15.8107117,13.734 16.8627117,12.248 Z M31.2847117,17.772 C29.7957117,15.191 27.6467117,13.288 25.1787117,12.265 C26.2077117,13.748 26.9817117,15.685 27.1747117,17.772 L31.2847117,17.772 Z M21.0317117,11.411 C19.8507117,11.436 17.2477117,14.059 16.8337117,17.772 L25.1637117,17.772 C24.7637117,14.094 22.2697117,11.489 21.1027117,11.417 C21.0777117,11.416 21.0557117,11.411 21.0317117,11.411 Z"/>
</svg>
