<svg xmlns="http://www.w3.org/2000/svg" width="48" height="48" viewBox="0 0 48 48">
  <path fill="#333" d="M23.54705,34.540134 L22.28805,34.550134 L22.27805,30.021134 L22.89405,30.017134 C22.90305,30.017134 22.91005,30.021134 22.91805,30.021134 C22.92705,30.021134 22.93405,30.017134 22.94305,30.017134 L23.54705,30.012134 L23.54705,34.540134 Z M30.88105,17.253134 C30.88105,17.800134 30.43605,18.244134 29.89005,18.244134 L15.94505,18.244134 C15.39905,18.244134 14.95405,17.800134 14.95405,17.253134 L14.95405,15.530134 C14.95405,14.984134 15.39905,14.540134 15.94505,14.540134 L29.89005,14.540134 C30.43605,14.540134 30.88105,14.984134 30.88105,15.530134 L30.88105,17.253134 Z M35.87105,15.799134 L32.88105,15.799134 L32.88105,15.530134 C32.88105,13.882134 31.53905,12.540134 29.89005,12.540134 L15.94505,12.540134 C14.39405,12.540134 13.13005,13.731134 12.98305,15.244134 C12.80705,15.087134 12.58005,14.984134 12.32505,14.984134 C11.77305,14.984134 11.32505,15.432134 11.32505,15.984134 L11.32505,16.799134 C11.32505,17.352134 11.77305,17.799134 12.32505,17.799134 C12.58005,17.799134 12.80705,17.696134 12.98305,17.539134 C13.13005,19.053134 14.39405,20.244134 15.94505,20.244134 L29.89005,20.244134 C31.35205,20.244134 32.56805,19.187134 32.82605,17.799134 L35.76905,17.799134 L35.76905,20.896134 L23.38105,23.811134 C22.51905,24.014134 21.91805,24.774134 21.91805,25.659134 L21.91805,28.058134 C20.99205,28.228134 20.28805,29.037134 20.28805,30.012134 L20.28805,34.550134 C20.28805,35.647134 21.18105,36.540134 22.27805,36.540134 L23.55705,36.540134 C24.65505,36.540134 25.54705,35.647134 25.54705,34.550134 L25.54705,30.012134 C25.54705,29.038134 24.84305,28.228134 23.91805,28.058134 L23.91805,25.739134 L36.30705,22.825134 C37.16805,22.622134 37.76905,21.861134 37.76905,20.977134 L37.76905,17.697134 C37.76905,16.650134 36.91805,15.799134 35.87105,15.799134 Z"/>
</svg>
