<svg xmlns="http://www.w3.org/2000/svg" width="48" height="48" viewBox="0 0 48 48">
  <path fill="#333" fill-rule="evenodd" d="M23,36.5 L21,36.51 L20.99,30.5 L21.977,30.495 C21.984,30.495 21.991,30.5 22,30.5 C22.009,30.5 22.016,30.495 22.025,30.495 L23,30.49 L23,36.5 Z M32,15.51 C32,16.056 31.556,16.5 31.01,16.5 L12.99,16.5 C12.444,16.5 12,16.056 12,15.51 L12,12.49 C12,11.944 12.444,11.5 12.99,11.5 L31.01,11.5 C31.556,11.5 32,11.944 32,12.49 L32,15.51 Z M37.897,13.5 L34,13.5 L34,12.49 C34,10.842 32.658,9.5 31.01,9.5 L12.99,9.5 C11.342,9.5 10,10.842 10,12.49 L10,13.5 C10,12.947 9.553,12.5 9,12.5 C8.447,12.5 8,12.947 8,13.5 L8,14.5 C8,15.053 8.447,15.5 9,15.5 C9.553,15.5 10,15.053 10,14.5 L10,15.51 C10,17.158 11.342,18.5 12.99,18.5 L31.01,18.5 C32.658,18.5 34,17.158 34,15.51 L34,15.5 L37.897,15.5 C37.955,15.5 38,15.545 38,15.603 L38,19.627 C38,19.675 37.968,19.716 37.922,19.727 L22.62,23.326 C21.666,23.551 21,24.393 21,25.373 L21,28.5 L20.99,28.5 C19.893,28.5 19,29.393 19,30.49 L19,36.51 C19,37.607 19.893,38.5 20.99,38.5 L23.01,38.5 C24.107,38.5 25,37.607 25,36.51 L25,30.49 C25,29.393 24.107,28.5 23.01,28.5 L23,28.5 L23,25.373 C23,25.325 23.032,25.284 23.078,25.273 L38.38,21.674 C39.334,21.449 40,20.607 40,19.627 L40,15.603 C40,14.443 39.057,13.5 37.897,13.5 Z"/>
</svg>
