<svg xmlns="http://www.w3.org/2000/svg" width="56" height="56" viewBox="0 0 56 56">
    <path fill="#000" fill-rule="evenodd" d="M20.84 24.468v-3.974c0-3.275 2.756-5.934 6.16-5.934 3.404 0 6.16 2.659 6.16 5.934v.818a.88.88 0 0 1-1.76 0v-.818c0-2.351-1.972-4.254-4.4-4.254-2.428 0-4.4 1.903-4.4 4.254v3.976h12.607c1.344 0 2.433 1.1 2.433 2.457v10.235c0 2.359-1.9 4.278-4.235 4.278h-12.81a4.232 4.232 0 0 1-4.235-4.243V26.962c0-1.357 1.09-2.492 2.433-2.492H20.84v-.002l-.245.002.245-.002zm15.12 12.694V26.926c0-.42-.337-.76-.753-.76H18.793a.756.756 0 0 0-.753.76v10.236c0 1.423 1.146 2.581 2.555 2.581h12.81c1.41 0 2.555-1.158 2.555-2.581zM30.115 24.47l-6.16-.01 6.16.01zm3.29.009h-1.68 1.68zM28.3 32.313c.25-.307.38-.675.38-1.062 0-.502-.218-.976-.6-1.3a1.648 1.648 0 0 0-1.078-.398c-.102 0-.206.009-.31.027-.662.117-1.228.69-1.345 1.365a1.67 1.67 0 0 0 .298 1.297c.336.461.515.99.515 1.53v1.729a.84.84 0 1 0 1.68 0v-1.695c0-.533.126-1.08.46-1.493zm-3.09-3.962c1.319-.777 2.88-.613 3.951.3a3.4 3.4 0 0 1 1.199 2.6c0 .74-.234 1.443-.679 2.035a.753.753 0 0 0-.161.454v1.725c0 1.091-.658 2.117-1.688 2.446a2.536 2.536 0 0 1-3.352-2.41v-1.729a.904.904 0 0 0-.187-.522c-.733-1.005-.867-2.315-.31-3.528a3.102 3.102 0 0 1 1.227-1.371zm10.688-7.042l1.622.435a.84.84 0 1 1-.434 1.622l-1.623-.434a.84.84 0 0 1 .435-1.623zm-.573-3.16l1.523-.71a.84.84 0 1 1 .71 1.522l-1.523.71a.84.84 0 1 1-.71-1.522z"/>
</svg>
