<svg width="32" height="32" viewBox="0 0 32 32" xmlns="http://www.w3.org/2000/svg"><title>Ic_urge</title><path d="M20.318 16.89l-5.733 7.895a.38.38 0 0 1-.312.163c-.227 0-.449-.199-.389-.475l1.182-5.427a.39.39 0 0 0-.383-.474H11.27c-.9 0-1.537-.877-1.256-1.73l2.61-7.876a1.26 1.26 0 0 1 1.198-.862h4.554A1.256 1.256 0 0 1 19.46 10l-2.084 3.52h-1.08a.802.802 0 1 0 0 1.604h3.162c.883.038 1.386 1.042.859 1.767m1.52-1.89a2.708 2.708 0 0 0-2.235-1.475c-.01 0-.02-.007-.032-.007h-.06c-.034-.001-.067-.007-.102-.007h-.164l1.595-2.694a2.864 2.864 0 0 0 .025-2.87 2.871 2.871 0 0 0-2.49-1.447H13.82a2.86 2.86 0 0 0-2.72 1.961l-2.61 7.877a2.928 2.928 0 0 0 .405 2.627 2.935 2.935 0 0 0 2.373 1.212h1.909l-.861 3.954c-.13.596.014 1.205.39 1.673a2.03 2.03 0 0 0 1.566.749c.643 0 1.23-.301 1.61-.826l5.734-7.895A2.708 2.708 0 0 0 21.839 15" fill="#FFF"/></svg>