<svg xmlns="http://www.w3.org/2000/svg" width="73" height="84" viewBox="0 0 73 84">
    <g fill="none" fill-rule="evenodd">
        <path fill="#FFF" fill-opacity=".6" d="M36.21 58.078c-11.818 0-21.398-9.677-21.398-21.616 0-11.938 9.58-21.616 21.398-21.616 11.819 0 21.4 9.678 21.4 21.616 0 11.939-9.581 21.616-21.4 21.616z"/>
        <path fill="#13C1AC" fill-opacity=".6" d="M36 80c-.69 0-1.377-.16-2.006-.475C28.664 76.826 2.066 62.088 2 36.788c-.027-9.91 4.328-19.29 11.944-25.734 7.635-6.461 17.762-9.23 27.797-7.593 17.165 2.8 29.283 17.991 28.19 35.336-1.53 24.216-26.854 38.174-31.915 40.725A4.475 4.475 0 0 1 36 80zm-.263-21.858c11.819 0 21.4-9.678 21.4-21.616 0-11.938-9.581-21.616-21.4-21.616-11.818 0-21.398 9.678-21.398 21.616 0 11.938 9.58 21.616 21.398 21.616z"/>
        <path fill="#333" fill-rule="nonzero" d="M31.365 35.991c.251-.313.63-.495 1.029-.495h7.055c.399 0 .777.182 1.03.495.251.313.35.724.269 1.12-.475 2.292-2.48 3.959-4.827 3.959-2.346 0-4.351-1.667-4.826-3.96a1.35 1.35 0 0 1 .27-1.119zm8.084.89h-7.055a.044.044 0 0 0 .034-.016.045.045 0 0 0 .009-.038c.343 1.654 1.79 2.858 3.484 2.858s3.142-1.204 3.485-2.858a.045.045 0 0 0 .009.037c.008.01.02.017.034.017zm-11.222-.805c0 .915-.734 1.656-1.639 1.656a1.648 1.648 0 0 1-1.639-1.656c0-.914.734-1.655 1.639-1.655s1.639.741 1.639 1.655zm16.752-1.655c.905 0 1.64.741 1.64 1.656 0 .914-.735 1.655-1.64 1.655a1.648 1.648 0 0 1-1.639-1.655c0-.915.734-1.656 1.64-1.656z"/>
        <path fill="#333" fill-rule="nonzero" d="M36.34 80c.58 0 1.151-.134 1.668-.394 5.37-2.703 11.625-6.81 17.334-12.255 8.604-8.206 13.916-17.654 14.59-28.303C71.014 21.91 59.022 6.902 42.03 4.136c-9.94-1.618-19.968 1.117-27.529 7.504-7.54 6.37-11.847 15.635-11.82 25.425.028 11.12 5.172 21.012 13.976 29.633 5.842 5.722 12.362 10.048 18.024 12.91A3.696 3.696 0 0 0 36.34 80zm0 1.68a5.379 5.379 0 0 1-2.414-.572c-5.806-2.934-12.462-7.35-18.445-13.21-9.098-8.91-14.45-19.202-14.48-30.829-.029-10.286 4.498-20.024 12.416-26.712C21.355 3.65 31.88.78 42.3 2.477 60.143 5.384 72.745 21.154 71.61 39.155c-.704 11.124-6.223 20.939-15.108 29.412-5.845 5.575-12.232 9.77-17.738 12.54a5.387 5.387 0 0 1-2.423.574zm-.266-22.142c-12.458 0-22.554-10.18-22.554-22.736 0-12.556 10.096-22.737 22.554-22.737 12.457 0 22.553 10.18 22.553 22.737 0 12.555-10.096 22.736-22.553 22.736zm0-1.68c11.526 0 20.873-9.425 20.873-21.056S47.6 15.745 36.074 15.745c-11.527 0-20.874 9.426-20.874 21.057 0 11.63 9.347 21.056 20.874 21.056z"/>
    </g>
</svg>
