<svg width="16" height="17" viewBox="0 0 16 17" xmlns="http://www.w3.org/2000/svg"><path d="M7.855 1.025c1.964 0 3.216 1.21 3.216 3.083v.061c0 1.802-1.415 3.103-3.207 3.103-1.544 0-2.747-.983-3.095-2.424l-.102-.791c.022-1.872 1.237-3.032 3.188-3.032M3.682 4.132c.076 2.456 1.914 4.165 4.199 4.165s4.13-1.706 4.205-4.163h-.019v-.026C12.067 1.592 10.259 0 7.814 0 5.37 0 3.601 1.592 3.601 4.108v.024h.082zM7.917 17C13.873 17 16 15.897 16 14.114c0-2.617-3.186-4.738-8.108-4.738C2.971 9.376 0 11.497 0 14.114 0 15.897 1.962 17 7.917 17zm-.025-6.6c2.156 0 4.071.443 5.394 1.246.641.39 1.718 1.23 1.718 2.468 0 .209 0 .698-1.165 1.153-1.202.47-3.195.708-5.922.708-2.71 0-4.672-.237-5.828-.704C.996 14.83.996 14.346.996 14.114c0-2.152 2.9-3.713 6.896-3.713z" fill="#B0BEC5" fill-rule="evenodd"/></svg>