<svg width="16" height="17" viewBox="0 0 16 17" xmlns="http://www.w3.org/2000/svg"><g id="Styleguide" fill="none" fill-rule="evenodd"><g id="ICONS" transform="translate(-81 -301)" fill="#B0BEC5"><path d="M88.855 302.025c1.964 0 3.216 1.21 3.216 3.083v.061c0 1.802-1.415 3.103-3.207 3.103-1.544 0-2.747-.983-3.095-2.424l-.102-.791c.022-1.872 1.237-3.032 3.188-3.032m-4.173 3.107c.076 2.456 1.914 4.165 4.199 4.165s4.13-1.706 4.205-4.163h-.019v-.026c0-2.516-1.808-4.108-4.253-4.108-2.444 0-4.213 1.592-4.213 4.108v.024h.082zM88.917 318c5.956 0 8.083-1.103 8.083-2.886 0-2.617-3.186-4.738-8.108-4.738-4.921 0-7.892 2.121-7.892 4.738 0 1.783 1.962 2.886 7.917 2.886zm-.025-6.6c2.156 0 4.071.443 5.394 1.246.641.39 1.718 1.23 1.718 2.468 0 .209 0 .698-1.165 1.153-1.202.47-3.195.708-5.922.708-2.71 0-4.672-.237-5.828-.704-1.093-.441-1.093-.925-1.093-1.157 0-2.152 2.9-3.713 6.896-3.713z" id="User"/></g></g></svg>