<svg xmlns="http://www.w3.org/2000/svg" width="57" height="64" viewBox="0 0 57 64">
    <g fill="none" fill-rule="evenodd">
        <path fill="#FFF" d="M28.805 45.172c-9.39 0-17.002-7.72-17.002-17.241 0-9.523 7.612-17.242 17.002-17.242 9.39 0 17.002 7.72 17.002 17.242 0 9.522-7.612 17.241-17.002 17.241z"/>
        <path fill="#13C1AC" fill-opacity=".6" d="M28.638 62.657a3.536 3.536 0 0 1-1.594-.38C22.809 60.127 1.676 48.37 1.624 28.192c-.02-7.905 3.439-15.386 9.49-20.526C17.18 2.51 25.226.303 33.199 1.608c13.638 2.233 23.267 14.35 22.398 28.185C54.382 49.108 34.26 60.24 30.24 62.276a3.545 3.545 0 0 1-1.601.381zm-.209-17.434c9.39 0 17.002-7.72 17.002-17.241 0-9.523-7.612-17.242-17.002-17.242-9.39 0-17.001 7.72-17.001 17.242 0 9.522 7.612 17.241 17.001 17.241z"/>
        <path fill="#333" fill-rule="nonzero" d="M24.955 27.555c.2-.25.5-.395.818-.395h5.605c.317 0 .618.145.818.394.2.25.279.578.214.893-.377 1.83-1.97 3.159-3.835 3.159-1.864 0-3.457-1.33-3.834-3.159a1.08 1.08 0 0 1 .214-.892zm6.423.71h-5.605c.01 0 .02-.005.027-.013a.036.036 0 0 0 .007-.03c.272 1.319 1.423 2.279 2.768 2.279 1.346 0 2.497-.96 2.769-2.28-.002.011 0 .022.007.03a.035.035 0 0 0 .027.014zm-8.916-.642c0 .73-.583 1.32-1.302 1.32-.72 0-1.302-.59-1.302-1.32 0-.73.583-1.32 1.302-1.32.719 0 1.302.59 1.302 1.32zm13.31-1.32c.72 0 1.302.59 1.302 1.32 0 .73-.583 1.32-1.302 1.32-.719 0-1.302-.59-1.302-1.32 0-.73.583-1.32 1.302-1.32z"/>
        <path fill="#333" fill-rule="nonzero" d="M28.908 62.657c.46 0 .915-.107 1.325-.314 4.267-2.156 9.236-5.432 13.772-9.775 6.837-6.545 11.057-14.081 11.593-22.575.86-13.67-8.67-25.64-22.169-27.847-7.897-1.29-15.865.892-21.872 5.986-5.99 5.08-9.413 12.471-9.392 20.28.023 8.869 4.11 16.76 11.104 23.635 4.642 4.564 9.822 8.015 14.321 10.297.41.207.86.313 1.318.313zm0 1.34a4.26 4.26 0 0 1-1.918-.456c-4.613-2.34-9.901-5.863-14.655-10.536C5.106 45.898.854 37.688.83 28.415.808 20.21 4.405 12.443 10.695 7.109 17.002 1.76 25.363-.53 33.644.824 47.82 3.14 57.833 15.719 56.93 30.078c-.56 8.872-4.944 16.7-12.003 23.46-4.644 4.446-9.72 7.791-14.094 10.001a4.267 4.267 0 0 1-1.925.458zm-.212-17.66c-9.897 0-17.919-8.121-17.919-18.136 0-10.014 8.022-18.135 17.92-18.135 9.897 0 17.919 8.12 17.919 18.135 0 10.015-8.022 18.136-17.92 18.136zm0-1.34c9.158 0 16.585-7.519 16.585-16.796s-7.427-16.795-16.585-16.795c-9.158 0-16.584 7.518-16.584 16.795 0 9.277 7.426 16.796 16.584 16.796z"/>
    </g>
</svg>
