<svg xmlns="http://www.w3.org/2000/svg" width="58" height="64" viewBox="0 0 58 64">
    <g fill="none" fill-rule="evenodd" opacity=".5">
        <g fill-opacity=".6">
            <path fill="#FFF" d="M28.865 45.172c-9.39 0-17.001-7.72-17.001-17.241 0-9.523 7.612-17.242 17.001-17.242 9.39 0 17.002 7.72 17.002 17.242 0 9.522-7.612 17.241-17.002 17.241z"/>
            <path fill="#13C1AC" d="M28.698 62.657a3.536 3.536 0 0 1-1.594-.38C22.87 60.127 1.737 48.37 1.684 28.192c-.02-7.905 3.44-15.386 9.49-20.526C17.241 2.51 25.287.303 33.26 1.608c13.638 2.233 23.266 14.35 22.398 28.185C54.442 49.108 34.32 60.24 30.3 62.276a3.545 3.545 0 0 1-1.602.381zm-.208-17.434c9.39 0 17.001-7.72 17.001-17.241 0-9.523-7.611-17.242-17.001-17.242s-17.002 7.72-17.002 17.242c0 9.522 7.612 17.241 17.002 17.241z"/>
        </g>
        <path fill="#333" fill-rule="nonzero" d="M28.968 62.657c.46 0 .915-.107 1.325-.314 4.267-2.156 9.237-5.432 13.773-9.775 6.836-6.545 11.057-14.081 11.592-22.575.86-13.67-8.669-25.64-22.168-27.847-7.898-1.29-15.866.892-21.873 5.986-5.99 5.08-9.413 12.471-9.392 20.28.023 8.869 4.11 16.76 11.105 23.635 4.642 4.564 9.822 8.015 14.32 10.297.41.207.861.313 1.318.313zm0 1.34a4.26 4.26 0 0 1-1.918-.456c-4.613-2.34-9.901-5.863-14.654-10.536C5.166 45.898.914 37.688.89 28.415.868 20.21 4.465 12.443 10.756 7.109 17.062 1.76 25.424-.53 33.704.824 47.881 3.14 57.894 15.719 56.99 30.078c-.559 8.872-4.944 16.7-12.003 23.46-4.644 4.446-9.719 7.791-14.093 10.001a4.267 4.267 0 0 1-1.926.458zm-.211-17.66c-9.898 0-17.92-8.121-17.92-18.136 0-10.014 8.022-18.135 17.92-18.135 9.898 0 17.919 8.12 17.919 18.135 0 10.015-8.021 18.136-17.92 18.136zm0-1.34c9.158 0 16.584-7.519 16.584-16.796s-7.426-16.795-16.584-16.795-16.585 7.518-16.585 16.795c0 9.277 7.427 16.796 16.585 16.796z"/>
        <path fill="#333" fill-rule="nonzero" d="M26.242 29.166a.798.798 0 0 1-.443-1.532 10.695 10.695 0 0 1 5.91-.023l.077.022a.798.798 0 0 1-.431 1.535l-.077-.022a9.112 9.112 0 0 0-5.036.02zm-6.578-3.158a.796.796 0 0 1-.794-.798c0-.44.355-.798.794-.798h3.961c.439 0 .795.357.795.798 0 .44-.356.798-.795.798h-3.96zm14.596-.041a.796.796 0 0 1-.795-.798c0-.44.356-.798.795-.798h3.96c.44 0 .795.358.795.798 0 .44-.355.798-.794.798H34.26z"/>
    </g>
</svg>
