<svg xmlns="http://www.w3.org/2000/svg" width="26" height="17" viewBox="0 0 26 17">
    <path fill="#13C1AC" fill-rule="evenodd" d="M23.506 14.098h-1.204c-.194-1.175-1.19-2.074-2.396-2.074-1.205 0-2.202.9-2.397 2.074H7.677c-.194-1.175-1.19-2.074-2.396-2.074-1.205 0-2.202.9-2.397 2.074h-.39a.879.879 0 0 1-.869-.887V9.454c0-.364.214-.688.546-.823l2.686-1.096c.047-.02.088-.05.133-.072h4.76a.82.82 0 0 0 .813-.829.82.82 0 0 0-.813-.83H6.836l3.809-3.886a.866.866 0 0 1 .614-.26h12.247c.479 0 .869.398.869.887v7.406h-.813a.82.82 0 0 0-.812.83c0 .458.364.829.813.829h.812v1.601c0 .49-.39.887-.87.887m-3.599 1.243a.822.822 0 0 1-.812-.829c0-.458.365-.83.812-.83.448 0 .813.372.813.83 0 .458-.365.83-.813.83m-14.625 0a.822.822 0 0 1-.812-.83c0-.458.365-.83.812-.83.448 0 .813.372.813.83 0 .458-.365.83-.813.83M23.506 0H11.259a2.45 2.45 0 0 0-1.764.746l-4.95 5.052a.848.848 0 0 1-.292.197L1.568 7.09A2.533 2.533 0 0 0 0 9.454v3.757c0 1.403 1.119 2.545 2.494 2.545h.689c.422.74 1.2 1.244 2.098 1.244.898 0 1.676-.504 2.099-1.244h10.428c.422.74 1.2 1.244 2.098 1.244.898 0 1.676-.504 2.099-1.244h1.5c1.376 0 2.495-1.142 2.495-2.545V2.545C26 1.142 24.881 0 23.506 0"/>
</svg>
