<svg xmlns="http://www.w3.org/2000/svg" viewBox="0 0 16 14"><g id="Capa_2" data-name="Capa 2"><g id="Capa_1-2" data-name="Capa 1"><path d="M8,11A4,4,0,0,1,4,7a3.9,3.9,0,0,1,.41-1.74.49.49,0,0,1,.66-.23.5.5,0,0,1,.23.67A3,3,0,0,0,5,7a3,3,0,0,0,6,0,3,3,0,0,0-.3-1.3.5.5,0,0,1,.23-.67.49.49,0,0,1,.66.23A3.9,3.9,0,0,1,12,7,4,4,0,0,1,8,11Z"/><circle cx="8" cy="7" r="1"/><path d="M8,1.08c3.86,0,7,2.65,7,5.92s-3.14,5.92-7,5.92S1,10.27,1,7,4.14,1.08,8,1.08M8,0C3.58,0,0,3.13,0,7s3.58,7,8,7,8-3.13,8-7S12.42,0,8,0Z"/><path d="M13.12,5.18a12.57,12.57,0,0,0-10.51,0A9.35,9.35,0,0,0,0,6.92l.73.71A8.5,8.5,0,0,1,3.06,6a11.5,11.5,0,0,1,9.6,0A8,8,0,0,1,15.21,8L16,7.35A9,9,0,0,0,13.12,5.18Z"/></g></g></svg>