<svg width="17" height="14" viewBox="0 0 17 14" xmlns="http://www.w3.org/2000/svg"><g id="Styleguide" fill="none" fill-rule="evenodd"><g id="ICONS" transform="translate(-81 -451)"><g id="Views" transform="translate(81 451)"><g id="Group-11"><g id="Group-10" transform="translate(.483 .197)"><path d="M4.372 4.987a3.942 3.942 0 0 0-.367 1.669c0 2.1 1.624 3.804 3.627 3.804 2.003 0 3.627-1.703 3.627-3.804 0-.599-.132-1.165-.367-1.67" id="Stroke-1" stroke="#B0BEC5"/><path d="M6.617 6.847c0-.595.46-1.078 1.027-1.078.568 0 1.028.483 1.028 1.078 0 .595-.46 1.078-1.028 1.078-.567 0-1.027-.483-1.027-1.078" id="Fill-3" fill="#B0BEC5"/><path d="M15.338 6.81c0 3.467-3.425 6.277-7.65 6.277-4.226 0-7.651-2.81-7.651-6.277 0-3.466 3.425-6.276 7.65-6.276 4.226 0 7.65 2.81 7.65 6.276z" id="Stroke-7" stroke="#B0BEC5" stroke-linejoin="round"/><path d="M2.668 5.693C1.707 6.181.878 6.795.233 7.475" id="Stroke-9" stroke="#B0BEC5"/><path d="M12.568 5.748a10.847 10.847 0 0 0-5.014-1.21 10.84 10.84 0 0 0-4.886 1.155" id="Stroke-11" stroke="#B0BEC5"/><path d="M15.244 7.9c-.659-.83-1.577-1.575-2.676-2.152" id="Stroke-13" stroke="#B0BEC5"/></g></g></g></g></g></svg>