<svg width="17" height="14" viewBox="0 0 17 14" xmlns="http://www.w3.org/2000/svg"><g fill="none" fill-rule="evenodd"><path d="M4.855 5.184a3.942 3.942 0 0 0-.366 1.669c0 2.1 1.623 3.804 3.626 3.804 2.004 0 3.627-1.703 3.627-3.804 0-.599-.131-1.165-.366-1.67" stroke="#B0BEC5"/><path d="M7.1 7.044c0-.595.46-1.078 1.028-1.078.567 0 1.027.483 1.027 1.078 0 .595-.46 1.078-1.027 1.078-.568 0-1.028-.483-1.028-1.078" fill="#B0BEC5"/><path d="M15.821 7.008c0 3.466-3.425 6.276-7.65 6.276-4.226 0-7.65-2.81-7.65-6.276C.52 3.54 3.944.73 8.17.73c4.225 0 7.65 2.81 7.65 6.277z" stroke="#B0BEC5" stroke-linejoin="round"/><path d="M3.152 5.89C2.19 6.38 1.362 6.993.716 7.673M13.052 5.946a10.847 10.847 0 0 0-5.015-1.21A10.84 10.84 0 0 0 3.152 5.89M15.728 8.097c-.66-.83-1.577-1.575-2.676-2.152" stroke="#B0BEC5"/></g></svg>