<svg width="34" height="34" viewBox="0 0 34 34" fill="none" xmlns="http://www.w3.org/2000/svg"><path d="M26.76 9.973l-1.98-4.919a.802.802 0 00-.54-.527 1.017 1.017 0 00-.72 0L17.67 7.25c0-.088 0-.176-.09-.264l-1.62-2.635A2.806 2.806 0 0015.42 4c-.27 0-.54 0-.72.176L6.15 9.797l-.27.264C4.17 10.676 3 12.257 3 14.189v11.42C3 28.067 4.98 30 7.5 30h18c2.52 0 4.5-1.932 4.5-4.392V14.19c0-2.02-1.35-3.689-3.24-4.216zm-2.07-.176h-8.1l6.84-3.162 1.26 3.162zm-9.81-3.689l1.08 1.845.09.088-3.6 1.668H9.48l5.4-3.6zM25.5 28.243h-18c-1.53 0-2.7-1.23-2.7-2.635V14.19c0-1.493 1.26-2.635 2.7-2.635h18c1.53 0 2.7 1.23 2.7 2.635v3.514h-5.4c-1.98 0-3.6 1.58-3.6 3.513 0 1.933 1.62 3.514 3.6 3.514h5.4v.878c0 1.405-1.26 2.635-2.7 2.635zm2.7-5.27h-5.4c-.99 0-1.8-.79-1.8-1.757 0-.966.81-1.757 1.8-1.757h5.4v3.514z" fill="#fff"/></svg>