<svg xmlns="http://www.w3.org/2000/svg" width="38" height="38" viewBox="0 0 38 38">
    <path fill="#000" fill-rule="nonzero" d="M21.969 9v1.015h-4.85c-3.9 0-7.119 4.222-7.119 9.485 0 5.263 3.22 9.485 7.12 9.485h4.849V30h-4.85C12.604 30 9 25.275 9 19.5S12.603 9 17.12 9h4.849zM15 19.5c0 5.264 3.168 9.485 7 9.485s7-4.221 7-9.485c0-5.264-3.168-9.485-7-9.485s-7 4.221-7 9.485zm-.11-4.822h-4.078v-1.015h4.534C16.775 10.856 19.21 9 22 9c4.452 0 8 4.727 8 10.5S26.452 30 22 30c-2.563 0-4.826-1.566-6.285-3.997h-4.632v-1.015h4.093a12.764 12.764 0 0 1-1.127-4.314H9.5v-1.015H14V19.5c0-1.735.32-3.376.89-4.822zm10.545 10.327c.345-.553.494-.815.719-1.323.623-1.406.943-3.065.821-5.05-.148-2.41-1.137-4.5-2.136-5.437a.495.495 0 0 0-.706.029.513.513 0 0 0 .028.717c.81.76 1.684 2.606 1.816 4.754.111 1.816-.177 3.31-.735 4.571-.2.452-.331.682-.652 1.197a.512.512 0 0 0 .155.7c.234.15.543.08.69-.158z"/>
</svg>
