<svg width="48" height="48" viewBox="0 0 48 48" xmlns="http://www.w3.org/2000/svg"><g id="Components" fill="none" fill-rule="evenodd"><g id="Icons" transform="translate(-866 -516)" fill-rule="nonzero" fill="#000"><g id="Group-10" transform="translate(866 516)"><path d="M17 15.5a.5.5 0 0 0-.5.5v6a.5.5 0 0 0 .5.5h4a.5.5 0 0 0 .5-.5v-6a.5.5 0 0 0-.5-.5h-4zm0-1.5h4a2 2 0 0 1 2 2v6a2 2 0 0 1-2 2h-4a2 2 0 0 1-2-2v-6a2 2 0 0 1 2-2zm10 11.5a.5.5 0 0 0-.5.5v6a.5.5 0 0 0 .5.5h4a.5.5 0 0 0 .5-.5v-6a.5.5 0 0 0-.5-.5h-4zm0-1.5h4a2 2 0 0 1 2 2v6a2 2 0 0 1-2 2h-4a2 2 0 0 1-2-2v-6a2 2 0 0 1 2-2zm-10 3.5a.5.5 0 0 0-.5.5v4a.5.5 0 0 0 .5.5h4a.5.5 0 0 0 .5-.5v-4a.5.5 0 0 0-.5-.5h-4zm0-1.5h4a2 2 0 0 1 2 2v4a2 2 0 0 1-2 2h-4a2 2 0 0 1-2-2v-4a2 2 0 0 1 2-2zm10-10.5a.5.5 0 0 0-.5.5v4a.5.5 0 0 0 .5.5h4a.5.5 0 0 0 .5-.5v-4a.5.5 0 0 0-.5-.5h-4zm0-1.5h4a2 2 0 0 1 2 2v4a2 2 0 0 1-2 2h-4a2 2 0 0 1-2-2v-4a2 2 0 0 1 2-2z" id="Combined-Shape"/></g></g></g></svg>