<svg xmlns="http://www.w3.org/2000/svg" width="56" height="56" viewBox="0 0 56 56">
    <path fill="#000" fill-rule="nonzero" d="M32.992 36.76l-.462 2.77c-.188 1.127-1.268 1.91-2.493 1.91h-4.074c-1.225 0-2.305-.783-2.493-1.91l-.462-2.77A10.076 10.076 0 0 1 17.92 28c0-3.75 2.049-7.023 5.088-8.76l.462-2.77c.188-1.127 1.268-1.91 2.493-1.91h4.074c1.225 0 2.305.783 2.493 1.91l.462 2.77A10.076 10.076 0 0 1 38.08 28c0 3.75-2.049 7.023-5.088 8.76zm-1.84.817A10.07 10.07 0 0 1 28 38.08c-1.1 0-2.16-.176-3.152-.503l.28 1.678c.042.258.383.505.835.505h4.074c.452 0 .793-.247.836-.505l.28-1.678zm0-19.154l-.28-1.678c-.042-.258-.383-.505-.835-.505h-4.074c-.452 0-.793.247-.836.505l-.28 1.678A10.07 10.07 0 0 1 28 17.92c1.1 0 2.16.176 3.152.503zM28.84 28.519V32.2a.84.84 0 1 1-1.68 0V28a.84.84 0 0 1 .464-.751l5.04-2.52a.84.84 0 1 1 .752 1.502L28.84 28.52zM28 36.4a8.4 8.4 0 1 0 0-16.8 8.4 8.4 0 0 0 0 16.8z"/>
</svg>
