<svg width="33" height="35" viewBox="0 0 33 35" xmlns="http://www.w3.org/2000/svg"><g id="Flow-&amp;-UI" fill="none" fill-rule="evenodd"><g id="Group-15" transform="translate(5 5)" fill="#FFF"><path d="M.72 1.377A1.544 1.544 0 0 1 2.987.385l15.426 8.761-.136.24.136-.24a8.588 8.588 0 0 1 3.225 11.71A8.587 8.587 0 0 1 5.67 17.829l-.846-.481c-2.117-1.202-2.96-3.797-2.005-6.011a4.737 4.737 0 0 1-.942-5.024C.6 5.136.245 3.413.721 1.377zm10.106 21.127a6.773 6.773 0 0 0 9.234-2.545l.239.136-.24-.136a6.772 6.772 0 0 0-2.544-9.234L2.417 2.14c-.267 1.511.13 2.608 1.252 3.245l11.965 6.796a.909.909 0 0 1-.896 1.579L3.435 7.339a2.936 2.936 0 0 0 1.384 3.308l7.539 4.283a.907.907 0 1 1-.896 1.578l-7.125-4.047A2.935 2.935 0 0 0 5.72 15.77l3.895 2.212a.908.908 0 1 1-.898 1.579l-.846-.482a6.73 6.73 0 0 0 2.955 3.425z" id="wing" fill-rule="nonzero"/><path d="M10.826 22.504a6.773 6.773 0 0 0 9.234-2.545l.239.136-.24-.136a6.772 6.772 0 0 0-2.544-9.234L2.417 2.14c-.267 1.511.13 2.608 1.252 3.245l11.965 6.796a.909.909 0 0 1-.896 1.579L3.435 7.339a2.936 2.936 0 0 0 1.384 3.308l7.539 4.283a.907.907 0 1 1-.896 1.578l-7.125-4.047A2.935 2.935 0 0 0 5.72 15.77l3.895 2.212a.908.908 0 1 1-.898 1.579l-.846-.482a6.73 6.73 0 0 0 2.955 3.425z" id="Path" opacity=".3"/></g></g></svg>