<svg xmlns="http://www.w3.org/2000/svg" width="40" height="31" viewBox="0 0 40 31"><g fill="#309EBB"><path d="M4.048 6.449a1.256 1.256 0 0 1 1.843-.807l12.545 7.125-.111.194.11-.194a6.984 6.984 0 0 1 2.624 9.523 6.984 6.984 0 0 1-12.986-2.462l-.688-.391a3.86 3.86 0 0 1-1.63-4.889 3.852 3.852 0 0 1-.766-4.085c-1.039-.957-1.327-2.358-.94-4.014zm8.218 17.18a5.508 5.508 0 0 0 7.51-2.068l.194.11-.194-.11a5.508 5.508 0 0 0-2.07-7.51L5.428 7.068c-.217 1.23.106 2.121 1.018 2.64l9.73 5.526a.74.74 0 0 1-.728 1.284l-9.192-5.221a2.388 2.388 0 0 0 1.125 2.69l6.131 3.483a.738.738 0 1 1-.729 1.283l-5.794-3.29a2.387 2.387 0 0 0 1.125 2.69l3.167 1.8a.738.738 0 1 1-.73 1.283l-.688-.39a5.473 5.473 0 0 0 2.403 2.784z"/><path d="M19.1 6.449a1.256 1.256 0 0 1 1.843-.807l12.544 7.125-.11.194.11-.194a6.984 6.984 0 0 1 2.624 9.523 6.984 6.984 0 0 1-12.986-2.462l-.688-.391a3.86 3.86 0 0 1-1.63-4.889 3.852 3.852 0 0 1-.766-4.085c-1.039-.957-1.327-2.358-.94-4.014zm8.218 17.18a5.508 5.508 0 0 0 7.51-2.068l.194.11-.194-.11a5.508 5.508 0 0 0-2.07-7.51L20.48 7.068c-.217 1.23.106 2.121 1.018 2.64l9.73 5.526a.74.74 0 0 1-.728 1.284l-9.192-5.221a2.388 2.388 0 0 0 1.125 2.69l6.13 3.483a.738.738 0 0 1-.729 1.283l-5.793-3.29a2.387 2.387 0 0 0 1.125 2.69l3.167 1.8a.738.738 0 1 1-.73 1.283l-.688-.39a5.473 5.473 0 0 0 2.403 2.784z"/></g></svg>