<svg xmlns="http://www.w3.org/2000/svg" width="30" height="31" viewBox="0 0 30 31"><path fill="#13C1AC" d="M5.107 5.29a1.407 1.407 0 0 1 2.064-.904l14.055 7.983-.124.218.124-.218a7.825 7.825 0 0 1 2.94 10.67 7.825 7.825 0 0 1-14.55-2.759l-.77-.438a4.324 4.324 0 0 1-1.827-5.477 4.316 4.316 0 0 1-.858-4.578C4.997 8.715 4.674 7.146 5.107 5.29zm9.207 19.25a6.171 6.171 0 0 0 8.414-2.319l.218.124-.218-.124a6.17 6.17 0 0 0-2.319-8.414L6.653 5.984c-.243 1.377.119 2.376 1.14 2.957l10.903 6.192a.828.828 0 0 1-.817 1.439L7.58 10.722a2.675 2.675 0 0 0 1.26 3.014l6.87 3.903a.827.827 0 0 1-.816 1.438l-6.492-3.688a2.674 2.674 0 0 0 1.26 3.015l3.549 2.016a.827.827 0 1 1-.818 1.438l-.771-.438a6.132 6.132 0 0 0 2.692 3.12z"/></svg>