<svg width="220" height="200" fill="none" xmlns="http://www.w3.org/2000/svg"><path d="M175.562 37.91h-42.021c-6.777 0-12.354-7.977-9.701-14.3 2.4-5.708 7.401-7.27 11.264-8.28.413-4.386 1.26-8.359 6.111-11.344 3.499-2.148 8.672-1.714 11.093 1.603 1.573 2.158 1.754 5.043 1.381 7.685a11.583 11.583 0 019.782-6.05 10.91 10.91 0 019.076 17.001 8.266 8.266 0 018.471 1.362 7.058 7.058 0 011.946 8.188c-1.281 2.834-4.377 4.135-7.402 4.135z" stroke="#CFD8DC" stroke-width="3" stroke-linecap="round" stroke-linejoin="round"/><path d="M128.357 123.042a48.194 48.194 0 000 21.329c.706 3.025 1.704 6.05 2.531 9.075a85.708 85.708 0 01.333 43.887" stroke="#04413C" stroke-width="3" stroke-linecap="round" stroke-linejoin="round"/><path d="M126.321 119.674a20.896 20.896 0 00-3.308 4.841c-.676 1.391-1.442 5.526-.887 6.978.756 2.017 9.156 1.079 10.971 1.069a3.899 3.899 0 002.501-.656c1.099-.948.888-2.712.373-4.033-1.21-3.177-3.509-5.799-5.758-8.34-1.008.151-2.884-.04-3.892.141z" fill="#13C1AC" stroke="#13C1AC" stroke-width="3" stroke-linecap="round" stroke-linejoin="round"/><path d="M99.98 129.223c-1.916 15.933-13.604 65.921-13.604 65.921" stroke="#CFD8DC" stroke-width="3" stroke-linecap="round" stroke-linejoin="round"/><path d="M81.446 62.425c-2.824-3.448-7.745-4.437-12.192-4.033-4.447.403-8.713 1.865-13.13 2.42a48.84 48.84 0 01-14.229-.555c-4.104-.665-9.076-1.26-11.657 2.017-2.108 2.733-1.2 6.716.302 9.822 4.952 10.226 15.43 17.285 26.633 19.16 9.288 1.533 19.453-.494 26.42-6.817M30.722 71.52c12.403 1.19 25.473 2.269 36.827-2.884M41.824 84.299a49.927 49.927 0 0027.409-7.543M60.651 91.58a36.112 36.112 0 0012.918-8.854M165.356 60.004c2.309-3.822 7.059-5.486 11.506-5.728s8.894.655 13.352.625a48.614 48.614 0 0014.017-2.541c3.963-1.23 8.844-2.521 11.819.383 2.47 2.42 2.138 6.484 1.079 9.772-3.479 10.81-12.868 19.26-23.698 22.659-8.985 2.813-19.332 2.229-27.117-3.025M216.846 61.93c-12.101 2.905-24.908 5.799-36.858 2.28M207.64 76.125a49.94 49.94 0 01-28.176-3.65M190.012 85.96a35.947 35.947 0 01-14.017-6.968" stroke="#04413C" stroke-width="3" stroke-linecap="round" stroke-linejoin="round"/><path d="M124.424 121.126c24.717 0 44.755-20.037 44.755-44.754s-20.038-44.754-44.755-44.754c-24.717 0-44.754 20.037-44.754 44.754s20.037 44.754 44.754 44.754z" fill="#13C1AC" stroke="#13C1AC" stroke-width="3" stroke-linecap="round" stroke-linejoin="round"/><path d="M84.208 119.056c-1.371 9.48-9.076 39.158-9.076 39.158M180.372 99.725c-1.532 14.3-6.252 45.319-10.175 59.074" stroke="#CFD8DC" stroke-width="3" stroke-linecap="round" stroke-linejoin="round"/><path fill-rule="evenodd" clip-rule="evenodd" d="M145.309 66.166a4.032 4.032 0 014.851-3.95 4.038 4.038 0 013.149 3.214 4.035 4.035 0 11-8 .736zM103.238 65.45a4.033 4.033 0 118.066.122 4.033 4.033 0 01-8.066-.122z" fill="#04413C"/><path d="M128.657 83.316a11.332 11.332 0 01-11.141-11.525l.102-6.05 22.667.384-.103 6.05a11.336 11.336 0 01-11.525 11.14z" fill="#04413C" stroke="#04413C" stroke-width="3.41" stroke-linecap="round" stroke-linejoin="round"/><path d="M117.738 74.223a12.425 12.425 0 0119.241 5.648 11.334 11.334 0 01-8.33 3.459 11.337 11.337 0 01-10.911-9.107z" fill="#13C1AC" stroke="#04413C" stroke-width="3.41" stroke-linecap="round" stroke-linejoin="round"/><path opacity=".2" d="M169.178 76.372a44.702 44.702 0 00-2.128-13.715 107.319 107.319 0 01-8.37 12.847c-7.966 10.438-18.353 19.292-30.605 24.021-10.337 4.034-21.581 4.942-32.653 5.496a174.66 174.66 0 01-5.184.202 44.758 44.758 0 0049.566 13.176 44.75 44.75 0 0029.394-42.027h-.02z" fill="#04413C" stroke="#04413C" stroke-width="3" stroke-linecap="round" stroke-linejoin="round"/><path d="M121.329 123.161c2.884.282 10.669.827 13.997-.595" stroke="#04413C" stroke-width="3" stroke-linecap="round" stroke-linejoin="round"/><path d="M48.399 149.623c5.91 0 8.27-5.425 6.05-9.288-2.218-3.862-7.542-2.49-8.067-.423l-.433-6.888c-.293-4.467-.646-9.166-2.915-12.857-2.269-3.691-7.13-5.768-10.377-3.156-2.44 1.956-3.085 5.637-3.54 8.954l-1.008 7.251c-2.198-2.955-4.588-5.93-7.754-7.432-3.167-1.503-7.301-1.089-9.44 1.926-1.915 2.713-1.693 6.545-1.38 9.983a4.277 4.277 0 00-5.546.868 6.107 6.107 0 00-.798 6.272c2.793 6.051 9.822 4.79 18.626 4.79h26.582z" stroke="#CFD8DC" stroke-width="3" stroke-linecap="round" stroke-linejoin="round"/></svg>