<svg width="95" height="130" viewBox="0 0 95 130" fill="none" xmlns="http://www.w3.org/2000/svg">
<path d="M73.221 11.9961V118.215C73.221 119.323 72.7808 120.386 71.9972 121.17C71.2136 121.953 70.1508 122.394 69.0426 122.394H21.7428C20.6346 122.394 19.5719 121.953 18.7883 121.17C18.0047 120.386 17.5645 119.323 17.5645 118.215V11.9961" fill="#CFD8DC"/>
<path d="M50.4404 122.411L56.3148 106.525" stroke="#803700" stroke-width="3" stroke-linecap="round" stroke-linejoin="round"/>
<path d="M63.4441 122.411L62.3232 108.526" stroke="#803700" stroke-width="3" stroke-linecap="round" stroke-linejoin="round"/>
<path d="M71.6136 120.381L68.2568 110.346" stroke="#803700" stroke-width="3" stroke-linecap="round" stroke-linejoin="round"/>
<path d="M62.0831 92.6638L61.373 88.1216" stroke="#803700" stroke-width="3" stroke-linecap="round" stroke-linejoin="round"/>
<path d="M62.2822 92.6929L64.7646 88.5557" stroke="#803700" stroke-width="3" stroke-linecap="round" stroke-linejoin="round"/>
<path d="M72.6347 95.0111L51.2148 91.4901C51.0768 91.4674 50.9357 91.4723 50.7996 91.5043C50.6635 91.5364 50.5351 91.5949 50.4216 91.6767C50.3082 91.7585 50.2121 91.8619 50.1387 91.9809C50.0654 92.0999 50.0162 92.2323 49.9941 92.3703L47.7406 106.179C47.7171 106.316 47.7212 106.457 47.7525 106.593C47.7839 106.73 47.8419 106.858 47.9232 106.972C48.0045 107.085 48.1075 107.181 48.2263 107.255C48.345 107.328 48.4771 107.377 48.615 107.399L72.0361 111.226C72.2349 111.258 72.4389 111.232 72.6229 111.149L72.6347 95.0111Z" fill="#F9FAFA" stroke="#F9FAFA" stroke-width="3" stroke-linecap="round" stroke-linejoin="round"/>
<path d="M72.6348 99.1719L70.6982 111.009" stroke="#ECEFF1" stroke-width="3" stroke-linecap="round" stroke-linejoin="round"/>
<path d="M52.9168 95.0757C51.1179 96.5322 49.9698 98.6426 49.7243 100.944C49.6303 101.471 49.6464 102.011 49.7717 102.531C49.8969 103.052 50.1286 103.54 50.452 103.966C50.7489 104.27 51.107 104.508 51.5026 104.662C51.8983 104.817 52.3223 104.886 52.7466 104.864C53.5979 104.815 54.4232 104.553 55.1468 104.101C56.0975 103.534 56.9099 102.762 57.525 101.841C58.1401 100.92 58.5425 99.8742 58.7031 98.7787C58.8029 98.2388 58.662 97.5522 58.1162 97.3644C57.5705 97.1766 56.9719 97.6989 56.6726 98.2388C56.2394 99.108 55.9826 100.054 55.9171 101.023C55.8516 101.992 55.9788 102.965 56.2912 103.884C56.4819 104.607 56.8129 105.285 57.2653 105.88C57.658 106.372 58.1616 106.765 58.7349 107.026C59.3083 107.287 59.9353 107.409 60.5646 107.381C61.194 107.354 61.808 107.178 62.3565 106.868C62.9049 106.558 63.3724 106.123 63.7206 105.598" stroke="#13C1AC" stroke-width="3" stroke-linecap="round" stroke-linejoin="round"/>
<path d="M62.9043 102.006C64.6233 101.165 66.5561 100.863 68.45 101.138" stroke="#FD6C67" stroke-width="3" stroke-linecap="round" stroke-linejoin="round"/>
<path d="M64.3252 98.5439C64.9018 98.076 65.5252 97.6689 66.1855 97.3291" stroke="#FD6C67" stroke-width="3" stroke-linecap="round" stroke-linejoin="round"/>
<path d="M45.3931 56.7432C44.4593 56.7432 43.5637 56.3723 42.9034 55.7119C42.243 55.0516 41.8721 54.156 41.8721 53.2222H48.9142C48.9142 54.156 48.5433 55.0516 47.8829 55.7119C47.2226 56.3723 46.327 56.7432 45.3931 56.7432Z" fill="#F49709" stroke="#F49709" stroke-width="3" stroke-linecap="round" stroke-linejoin="round"/>
<path d="M45.3926 42.4241V32.4478" stroke="#803700" stroke-width="3" stroke-linecap="round" stroke-linejoin="round"/>
<path d="M45.393 42.4238C42.787 42.4239 40.2693 43.3679 38.3057 45.0812C36.3421 46.7945 35.0656 49.161 34.7124 51.743C34.6873 51.9236 34.7011 52.1076 34.7529 52.2825C34.8047 52.4574 34.8934 52.6192 35.0129 52.757C35.1324 52.8949 35.28 53.0056 35.4457 53.0817C35.6115 53.1578 35.7917 53.1976 35.9741 53.1983H54.8119C54.9943 53.1976 55.1744 53.1578 55.3402 53.0817C55.506 53.0056 55.6536 52.8949 55.7731 52.757C55.8926 52.6192 55.9812 52.4574 56.033 52.2825C56.0849 52.1076 56.0987 51.9236 56.0736 51.743C55.7204 49.161 54.4438 46.7945 52.4803 45.0812C50.5167 43.3679 47.9989 42.4239 45.393 42.4238Z" fill="white" stroke="white" stroke-width="3" stroke-linecap="round" stroke-linejoin="round"/>
<path d="M50.047 122.411L45.54 104.389" stroke="#803700" stroke-width="3" stroke-linecap="round" stroke-linejoin="round"/>
<path d="M33.4688 122.411L34.4312 106.162" stroke="#803700" stroke-width="3" stroke-linecap="round" stroke-linejoin="round"/>
<path d="M20.8164 122.118L25.5875 107.024" stroke="#803700" stroke-width="3" stroke-linecap="round" stroke-linejoin="round"/>
<path d="M34.7422 75.1584L35.6459 69.3662" stroke="#803700" stroke-width="3" stroke-linecap="round" stroke-linejoin="round"/>
<path d="M34.4893 75.1996L31.3262 69.9238" stroke="#803700" stroke-width="3" stroke-linecap="round" stroke-linejoin="round"/>
<path d="M43.1159 73.7859L21.9017 77.256C21.134 77.3816 20.6135 78.1057 20.7391 78.8734L25.2229 106.285C25.3485 107.052 26.0726 107.573 26.8402 107.447L48.0545 103.977C48.8221 103.851 49.3426 103.127 49.2171 102.36L44.7332 74.9485C44.6077 74.1808 43.8836 73.6603 43.1159 73.7859Z" fill="white" stroke="white" stroke-width="3" stroke-linecap="round" stroke-linejoin="round"/>
<path d="M23.5391 76.9893L28.4803 107.177" stroke="#ECEFF1" stroke-width="3" stroke-linecap="round" stroke-linejoin="round"/>
<path d="M41.3024 101.549C43.2762 101.549 44.8763 99.9486 44.8763 97.9748C44.8763 96.001 43.2762 94.4009 41.3024 94.4009C39.3286 94.4009 37.7285 96.001 37.7285 97.9748C37.7285 99.9486 39.3286 101.549 41.3024 101.549Z" stroke="#FD6C67" stroke-width="3" stroke-linecap="round" stroke-linejoin="round"/>
<path d="M30.9212 96.273C30.8883 93.8779 31.4961 91.5175 32.6817 89.4362C32.9216 88.9551 33.289 88.5491 33.7439 88.2625C34.0081 88.155 34.2944 88.1133 34.5782 88.141C34.8621 88.1686 35.1349 88.2648 35.3734 88.4213C35.6118 88.5777 35.8087 88.7898 35.947 89.0391C36.0854 89.2885 36.1611 89.5678 36.1676 89.8529C36.5901 88.7907 36.8718 87.6698 37.3413 86.637C37.769 85.5653 38.5578 84.6768 39.5713 84.1253C40.0799 83.8624 40.6603 83.7723 41.2247 83.8686C41.789 83.965 42.3066 84.2425 42.6992 84.6593C43.421 85.5454 43.0806 87.1534 41.9774 87.4644" stroke="#13C1AC" stroke-width="3" stroke-linecap="round" stroke-linejoin="round"/>
<path d="M30.9561 81.1382L32.7166 82.6522" stroke="#04413C" stroke-width="3" stroke-linecap="round" stroke-linejoin="round"/>
<path d="M36.291 79.5831L36.6196 78.8613" stroke="#04413C" stroke-width="3" stroke-linecap="round" stroke-linejoin="round"/>
<path d="M72.0062 1.58545H18.7851C15.3236 1.58545 12.5176 4.39152 12.5176 7.85297V120.387C12.5176 123.848 15.3236 126.654 18.7851 126.654H72.0062C75.4677 126.654 78.2737 123.848 78.2737 120.387V7.85297C78.2737 4.39152 75.4677 1.58545 72.0062 1.58545Z" stroke="#385EF9" stroke-width="3" stroke-linecap="round" stroke-linejoin="round"/>
<path d="M37.4238 6.79102H47.2183" stroke="#385EF9" stroke-width="3" stroke-linecap="round" stroke-linejoin="round"/>
<path d="M51.3672 6.79102H53.3625" stroke="#385EF9" stroke-width="3" stroke-linecap="round" stroke-linejoin="round"/>
<path d="M9.13184 128.415H92.7692" stroke="#CFD8DC" stroke-width="3" stroke-linecap="round" stroke-linejoin="round"/>
<path d="M73.221 11.9961V118.215C73.221 119.323 72.7808 120.386 71.9972 121.17C71.2136 121.953 70.1508 122.394 69.0426 122.394H21.7428C20.6346 122.394 19.5719 121.953 18.7883 121.17C18.0047 120.386 17.5645 119.323 17.5645 118.215V11.9961" stroke="#385EF9" stroke-width="3" stroke-linecap="round" stroke-linejoin="round"/>
<path d="M72.165 11.4092H18.6211C17.9412 11.4093 17.2851 11.66 16.7784 12.1134L1.58496 25.6637H89.2011L74.0077 12.1134C73.501 11.66 72.8449 11.4093 72.165 11.4092Z" fill="#385EF9" stroke="#385EF9" stroke-width="3" stroke-linecap="round" stroke-linejoin="round"/>
<path d="M1.58496 25.6636H16.1857V28.9851C16.1842 30.9203 15.4143 32.7757 14.0454 34.1435C12.6765 35.5113 10.8205 36.2796 8.88533 36.2796C6.95017 36.2796 5.09418 35.5113 3.72526 34.1435C2.35635 32.7757 1.58652 30.9203 1.58496 28.9851V25.6636Z" fill="#0B175E" stroke="#0B175E" stroke-width="3" stroke-linecap="round" stroke-linejoin="round"/>
<path d="M16.1855 25.6636H30.7863V28.9851C30.7847 30.9193 30.0157 32.7738 28.6481 34.1414C27.2804 35.509 25.4259 36.2781 23.4918 36.2796C21.5556 36.2796 19.6987 35.5105 18.3296 34.1414C16.9606 32.7723 16.1914 30.9154 16.1914 28.9793V25.6636H16.1855Z" fill="#0B175E" stroke="#0B175E" stroke-width="3" stroke-linecap="round" stroke-linejoin="round"/>
<path d="M30.792 25.6636H45.3927V28.9851C45.3912 30.9203 44.6214 32.7757 43.2524 34.1435C41.8835 35.5113 40.0275 36.2796 38.0924 36.2796C36.1562 36.2796 34.2993 35.5105 32.9302 34.1414C31.5611 32.7723 30.792 30.9154 30.792 28.9793V25.6636Z" fill="#0B175E" stroke="#0B175E" stroke-width="3" stroke-linecap="round" stroke-linejoin="round"/>
<path d="M81.9008 36.2915C79.9646 36.2915 78.1077 35.5224 76.7387 34.1533C75.3696 32.7842 74.6004 30.9273 74.6004 28.9911V25.6755H89.2012V28.9911C89.2012 30.9273 88.432 32.7842 87.0629 34.1533C85.6939 35.5224 83.837 36.2915 81.9008 36.2915Z" fill="#0B175E" stroke="#0B175E" stroke-width="3" stroke-linecap="round" stroke-linejoin="round"/>
<path d="M67.3002 36.2915C66.3415 36.2915 65.3922 36.1027 64.5065 35.7358C63.6208 35.3689 62.816 34.8312 62.1381 34.1533C61.4602 33.4754 60.9224 32.6706 60.5556 31.7849C60.1887 30.8991 59.9999 29.9498 59.9999 28.9911V25.6755H74.6006V28.9911C74.6006 30.9273 73.8314 32.7842 72.4624 34.1533C71.0933 35.5224 69.2364 36.2915 67.3002 36.2915Z" fill="#0B175E" stroke="#0B175E" stroke-width="3" stroke-linecap="round" stroke-linejoin="round"/>
<path d="M52.6938 36.2915C50.7576 36.2915 48.9007 35.5224 47.5316 34.1533C46.1625 32.7842 45.3934 30.9273 45.3934 28.9911V25.6755H59.9941V28.9911C59.9941 30.9273 59.225 32.7842 57.8559 34.1533C56.4868 35.5224 54.6299 36.2915 52.6938 36.2915Z" fill="#0B175E" stroke="#0B175E" stroke-width="3" stroke-linecap="round" stroke-linejoin="round"/>
<path d="M26.8427 11.4092L16.1855 25.6637" stroke="#0B175E" stroke-width="3" stroke-linecap="round" stroke-linejoin="round"/>
<path d="M36.1147 11.4092L30.792 25.6637" stroke="#0B175E" stroke-width="3" stroke-linecap="round" stroke-linejoin="round"/>
<path d="M63.9434 11.4092L74.6005 25.6637" stroke="#0B175E" stroke-width="3" stroke-linecap="round" stroke-linejoin="round"/>
<path d="M54.6709 11.4092L59.9936 25.6637" stroke="#0B175E" stroke-width="3" stroke-linecap="round" stroke-linejoin="round"/>
<path d="M45.3926 11.4092V25.6637" stroke="#0B175E" stroke-width="3" stroke-linecap="round" stroke-linejoin="round"/>
<path fill-rule="evenodd" clip-rule="evenodd" d="M44.7119 119.612C44.7119 117.512 45.546 115.499 47.0306 114.014C48.5153 112.529 50.5289 111.695 52.6285 111.695H83.3558C85.4569 111.695 87.472 112.53 88.9578 114.016C90.4435 115.501 91.2782 117.517 91.2782 119.618C91.2782 121.719 90.4435 123.734 88.9578 125.22C87.472 126.705 85.4569 127.54 83.3558 127.54H52.6285C51.5879 127.54 50.5575 127.335 49.5962 126.936C48.635 126.538 47.7618 125.954 47.0265 125.217C46.2912 124.481 45.7083 123.607 45.3112 122.645C44.914 121.683 44.7104 120.652 44.7119 119.612Z" fill="#3E56F1"/>
<path fill-rule="evenodd" clip-rule="evenodd" d="M84.5354 122.458C85.2654 121.694 85.6728 120.678 85.6728 119.621C85.6728 118.564 85.2654 117.548 84.5354 116.783C83.7468 116.062 82.7168 115.662 81.6481 115.662C80.5794 115.662 79.5494 116.062 78.7608 116.783C78.0308 117.548 77.6234 118.564 77.6234 119.621C77.6234 120.678 78.0308 121.694 78.7608 122.458C79.5513 123.176 80.5806 123.573 81.6481 123.573C82.7156 123.573 83.7449 123.176 84.5354 122.458ZM68.6905 120.234C69.1628 119.737 69.426 119.077 69.426 118.391C69.426 117.706 69.1628 117.046 68.6905 116.549C68.1541 116.068 67.4496 115.819 66.7305 115.856H63.585V123.38H65.0521V120.921H66.7657C67.4795 120.953 68.178 120.707 68.714 120.234H68.6905ZM65.011 119.553V117.206H66.5837C66.9362 117.181 67.2852 117.288 67.5638 117.505C67.6805 117.616 67.7715 117.752 67.8303 117.902C67.8891 118.052 67.9143 118.213 67.9042 118.374C67.9151 118.534 67.8902 118.694 67.8313 118.843C67.7724 118.993 67.681 119.127 67.5638 119.236C67.2852 119.454 66.9362 119.56 66.5837 119.536L65.011 119.553ZM76.1611 123.415C75.812 123.421 75.4675 123.334 75.1634 123.162C74.8235 122.936 74.5338 122.643 74.3125 122.3L73.2855 120.821H71.9945V123.38H70.5274V115.856H73.6787C74.4064 115.828 75.1176 116.078 75.6681 116.554C75.9228 116.78 76.1244 117.059 76.2583 117.371C76.3923 117.684 76.4553 118.022 76.4428 118.362C76.4555 118.858 76.314 119.346 76.0378 119.759C75.7498 120.168 75.3386 120.474 74.8642 120.633L75.5332 121.584C75.6268 121.732 75.7533 121.856 75.9029 121.948C76.075 122.029 76.2643 122.067 76.4545 122.059H76.5836V123.391L76.39 123.421L76.1611 123.415ZM71.9945 119.489V117.223H73.6318C73.9761 117.198 74.3175 117.303 74.5883 117.517C74.701 117.625 74.7884 117.757 74.8442 117.903C74.9 118.049 74.9228 118.206 74.9111 118.362C74.9228 118.517 74.8999 118.673 74.844 118.818C74.7882 118.963 74.7009 119.094 74.5883 119.201C74.3166 119.413 73.9754 119.516 73.6318 119.489H71.9945ZM84.1246 119.612C84.1399 119.27 84.0872 118.928 83.9693 118.607C83.8514 118.286 83.6708 117.991 83.438 117.74C82.9484 117.28 82.302 117.024 81.6305 117.024C80.9589 117.024 80.3126 117.28 79.823 117.74C79.3799 118.264 79.1369 118.928 79.1369 119.615C79.1369 120.301 79.3799 120.966 79.823 121.49C80.3126 121.949 80.9589 122.205 81.6305 122.205C82.302 122.205 82.9484 121.949 83.438 121.49C83.6704 121.237 83.8508 120.942 83.9686 120.619C84.0864 120.297 84.1394 119.955 84.1246 119.612Z" fill="white"/>
<path fill-rule="evenodd" clip-rule="evenodd" d="M55.4627 114.917L56.472 115.932C56.547 115.996 56.6439 116.028 56.742 116.02H58.1504C58.2563 116.023 58.3569 116.067 58.4313 116.143C58.5057 116.218 58.548 116.319 58.5495 116.425V117.851C58.5471 117.903 58.5564 117.955 58.5768 118.003C58.5971 118.05 58.6279 118.093 58.6668 118.127L59.6762 119.107C59.7168 119.145 59.7491 119.19 59.7712 119.241C59.7934 119.291 59.8048 119.346 59.8048 119.401C59.8048 119.456 59.7934 119.51 59.7712 119.561C59.7491 119.611 59.7168 119.657 59.6762 119.694L58.6668 120.674C58.627 120.715 58.596 120.764 58.5758 120.817C58.5556 120.871 58.5466 120.928 58.5495 120.985V122.399C58.5465 122.504 58.5035 122.604 58.4293 122.678C58.3551 122.753 58.2553 122.796 58.1504 122.799H56.742C56.6903 122.795 56.6387 122.805 56.5917 122.827C56.5446 122.848 56.5036 122.881 56.472 122.922L55.4627 123.937C55.4266 123.974 55.3837 124.003 55.3363 124.022C55.289 124.042 55.2382 124.052 55.1868 124.052C55.1355 124.052 55.0847 124.042 55.0373 124.022C54.99 124.003 54.9471 123.974 54.911 123.937L53.9016 122.922C53.8277 122.849 53.7297 122.805 53.6258 122.799H52.2233C52.1179 122.797 52.0173 122.754 51.9428 122.68C51.8683 122.605 51.8257 122.505 51.8242 122.399V120.985C51.8277 120.933 51.8183 120.88 51.7968 120.832C51.7754 120.784 51.7425 120.742 51.701 120.709L50.674 119.694C50.6374 119.658 50.6084 119.615 50.5886 119.568C50.5688 119.52 50.5586 119.47 50.5586 119.418C50.5586 119.367 50.5688 119.316 50.5886 119.269C50.6084 119.221 50.6374 119.179 50.674 119.142L51.6775 118.157C51.7696 118.079 51.8301 117.97 51.8477 117.851V116.437C51.8492 116.331 51.8915 116.23 51.9658 116.154C52.0402 116.079 52.1408 116.035 52.2467 116.032H53.6082C53.6608 116.036 53.7134 116.026 53.7614 116.005C53.8095 115.983 53.8516 115.95 53.884 115.909L54.8934 114.9C54.9734 114.831 55.0761 114.795 55.1814 114.798C55.2868 114.801 55.3871 114.844 55.4627 114.917Z" fill="white"/>
<path fill-rule="evenodd" clip-rule="evenodd" d="M57.3 117.623C57.3457 117.663 57.3828 117.713 57.4093 117.768C57.4359 117.823 57.4512 117.883 57.4545 117.944C57.4577 118.005 57.4489 118.066 57.4284 118.124C57.4079 118.181 57.3763 118.234 57.3352 118.28L54.7824 121.108C54.702 121.201 54.5884 121.257 54.4664 121.266C54.3444 121.275 54.2238 121.235 54.131 121.155L53.0629 120.228C52.9894 120.145 52.948 120.039 52.9463 119.928C52.9447 119.817 52.9828 119.709 53.0537 119.624C53.1247 119.539 53.2239 119.482 53.3333 119.463C53.4426 119.445 53.5549 119.467 53.6498 119.524L54.3775 120.152L56.6075 117.658C56.649 117.607 56.7005 117.566 56.7588 117.537C56.8171 117.508 56.8808 117.491 56.946 117.487C57.0111 117.484 57.0763 117.494 57.1372 117.518C57.1982 117.541 57.2536 117.577 57.3 117.623Z" fill="#3E56F1"/>
</svg>
