<svg width="137.532" height="188.745" fill="none" xmlns="http://www.w3.org/2000/svg"><path d="M106.8 17.32v154.411a6.104 6.076 0 01-6.102 6.075H31.623a6.104 6.076 0 01-6.101-6.075V17.321" fill="#cfd8dc"/><path d="M73.53 177.831l8.58-23.093m10.411 23.093l-1.635-20.185m13.566 17.234l-4.902-14.588m-9.016-25.704l-1.037-6.603m1.327 6.645l3.626-6.014" stroke="#803700" stroke-width="4.371" stroke-linecap="round" stroke-linejoin="round"/><path d="M105.943 138l-31.28-5.117a1.55 1.542 0 00-1.782 1.279l-3.292 20.073a1.54 1.532 0 001.277 1.773l34.203 5.563c.29.047.588.01.857-.112z" fill="#f9fafa" stroke="#f9fafa" stroke-width="4.371" stroke-linecap="round" stroke-linejoin="round"/><path d="M105.943 144.048l-2.828 17.208" stroke="#eceff1" stroke-width="4.371" stroke-linecap="round" stroke-linejoin="round"/><path d="M77.148 138.094a12.77 12.711 0 00-4.663 8.53 5.652 5.626 0 001.063 4.394 4.355 4.335 0 003.352 1.305 7.419 7.385 0 003.505-1.11 10.875 10.826 0 005.193-7.736c.146-.785-.06-1.784-.857-2.057-.796-.272-1.671.487-2.108 1.272a10.738 10.69 0 00-.558 8.206 8.261 8.261 0 001.423 2.902 5.846 5.82 0 004.819 2.182 5.827 5.8 0 004.609-2.592" stroke="#13c1ac" stroke-width="4.371" stroke-linecap="round" stroke-linejoin="round"/><path d="M91.733 148.168a13.888 13.825 0 018.099-1.262m-6.024-3.77a15.798 15.798 0 012.716-1.767" stroke="#fd6c67" stroke-width="4.371" stroke-linecap="round" stroke-linejoin="round"/><path d="M66.16 82.37a5.14 5.117 0 01-5.14-5.118h10.282a5.14 5.117 0 01-5.14 5.117z" fill="#f49709" stroke="#f49709" stroke-width="4.371" stroke-linecap="round" stroke-linejoin="round"/><path d="M66.16 61.553V47.051" stroke="#803700" stroke-width="4.371" stroke-linecap="round" stroke-linejoin="round"/><path d="M66.16 61.553a15.743 15.671 0 00-15.596 13.548 1.87 1.86 0 001.841 2.115h27.51A1.866 1.858 0 0081.76 75.1 15.743 15.671 0 0066.16 61.552z" fill="#fff" stroke="#fff" stroke-width="4.371" stroke-linecap="round" stroke-linejoin="round"/><path d="M72.957 177.831l-6.582-26.199m-17.628 26.2l1.405-23.622M30.27 177.405l6.967-21.942m13.37-46.324l1.32-8.42m-1.689 8.481l-4.62-7.67" stroke="#803700" stroke-width="4.371" stroke-linecap="round" stroke-linejoin="round"/><path d="M62.835 107.145l-30.98 5.044a2.056 2.047 0 00-1.698 2.35l6.548 39.85a2.056 2.056 0 002.362 1.689l30.98-5.044a2.058 2.048 0 001.698-2.351l-6.548-39.85a2.056 2.047 0 00-2.362-1.688z" fill="#fff" stroke="#fff" stroke-width="4.371" stroke-linecap="round" stroke-linejoin="round"/><path d="M34.248 111.802l7.214 43.883" stroke="#eceff1" stroke-width="4.371" stroke-linecap="round" stroke-linejoin="round"/><path d="M60.186 147.504a5.22 5.196 0 100-10.391 5.22 5.196 0 000 10.39z" stroke="#fd6c67" stroke-width="4.371" stroke-linecap="round" stroke-linejoin="round"/><path d="M45.026 139.834a19.627 19.538 0 012.57-9.939c.351-.698.888-1.29 1.553-1.707a2.57 2.559 0 013.54 2.312c.616-1.543 1.028-3.172 1.713-4.674a7.224 7.191 0 013.256-3.651 3.848 3.83 0 014.568.776c1.055 1.288.558 3.625-1.054 4.077" stroke="#13c1ac" stroke-width="4.371" stroke-linecap="round" stroke-linejoin="round"/><path d="M45.077 117.832l2.57 2.201m5.221-4.461l.48-1.05" stroke="#04413c" stroke-width="4.371" stroke-linecap="round" stroke-linejoin="round"/><path d="M105.025 2.186h-77.72a9.152 9.11 0 00-9.153 9.111V174.89a9.152 9.11 0 009.152 9.11h77.72a9.152 9.11 0 009.154-9.11V11.297a9.152 9.11 0 00-9.153-9.111zM54.523 9.754h14.303m6.059 0h2.913" stroke="#385ef9" stroke-width="4.371" stroke-linecap="round" stroke-linejoin="round"/><path d="M13.207 186.56h122.139" stroke="#cfd8dc" stroke-width="4.371" stroke-linecap="round" stroke-linejoin="round"/><path d="M106.8 17.32v154.411a6.104 6.076 0 01-6.102 6.075H31.623a6.104 6.076 0 01-6.101-6.075V17.321" stroke="#385ef9" stroke-width="4.371" stroke-linecap="round" stroke-linejoin="round"/><path d="M105.257 16.468H27.064a4.05 4.05 0 00-2.691 1.022L2.186 37.188h127.95L107.948 17.49a4.036 4.018 0 00-2.691-1.023z" fill="#385ef9" stroke="#385ef9" stroke-width="4.371" stroke-linecap="round" stroke-linejoin="round"/><path d="M2.186 37.19h21.32v4.827a10.66 10.612 0 01-21.32 0zm21.322 0H44.83v4.827a10.66 10.612 0 01-10.652 10.605 10.66 10.612 0 01-10.66-10.612v-4.82zm21.33 0h21.321v4.827a10.66 10.612 0 01-21.321-.009zm74.636 15.448a10.66 10.612 0 01-10.661-10.612v-4.82h21.323v4.82a10.66 10.612 0 01-10.661 10.612zm-21.322 0a10.66 10.612 0 01-10.66-10.612v-4.82h21.32v4.82a10.66 10.612 0 01-10.66 10.612zm-21.33 0a10.66 10.612 0 01-10.66-10.612v-4.82h21.321v4.82a10.66 10.612 0 01-10.66 10.612z" fill="#0b175e" stroke="#0b175e" stroke-width="4.371" stroke-linecap="round" stroke-linejoin="round"/><path d="M39.071 16.468l-15.563 20.72m29.103-20.72L44.838 37.19M93.25 16.47l15.563 20.719m-29.105-20.72l7.775 20.721M66.161 16.47v20.72" stroke="#0b175e" stroke-width="4.371" stroke-linecap="round" stroke-linejoin="round"/><path fill-rule="evenodd" clip-rule="evenodd" d="M65.166 173.762a11.562 11.509 0 0111.56-11.509H121.6a11.57 11.517 0 010 23.034H76.728a11.551 11.499 0 01-8.181-3.377 11.548 11.496 0 01-3.381-8.148z" fill="#3e56f1"/><path fill-rule="evenodd" clip-rule="evenodd" d="M123.322 177.9a5.996 5.969 0 000-8.25 6.25 6.222 0 00-8.433 0 6.002 5.975 0 000 8.25 6.27 6.242 0 008.433 0zm-23.138-3.234a3.906 3.889 0 000-5.356 3.98 3.963 0 00-2.863-1.008h-4.594v10.938h2.143v-3.575h2.503a4.028 4.01 0 002.844-.999zm-5.374-.99v-3.411h2.297a2.088 2.079 0 011.43.434 1.614 1.606 0 01.497 1.264 1.571 1.564 0 01-.496 1.253 2.09 2.08 0 01-1.431.436zm16.283 5.615a2.86 2.846 0 01-1.458-.368 4.333 4.313 0 01-1.241-1.253l-1.501-2.15h-1.884v3.72h-2.144v-10.938h4.603a4.197 4.178 0 012.906 1.015 3.375 3.36 0 011.13 2.628 3.48 3.48 0 01-.591 2.03 3.43 3.43 0 01-1.715 1.271l.979 1.383c.136.215.321.395.539.53.251.117.527.172.804.16h.19v1.937l-.283.043zm-6.084-5.708v-3.294h2.39c.503-.036 1 .117 1.396.428a1.545 1.538 0 01.472 1.228 1.533 1.526 0 01-.472 1.22 2.015 2.006 0 01-1.396.418h-2.392zm17.714.18a3.77 3.753 0 00-1.003-2.722 3.855 3.838 0 00-5.28 0 4.24 4.22 0 000 5.451 3.86 3.842 0 005.28 0 3.807 3.79 0 001.003-2.73zm-41.857-6.826l1.474 1.476a.54.538 0 00.394.127h2.056a.599.596 0 01.584.59v2.072a.508.506 0 00.171.401l1.475 1.425a.587.584 0 010 .853l-1.475 1.425a.615.612 0 00-.17.452v2.056a.599.596 0 01-.585.581h-2.056a.456.454 0 00-.394.179l-1.475 1.475a.56.557 0 01-.62.124.539.536 0 01-.185-.124l-1.475-1.475a.625.622 0 00-.401-.179h-2.05a.593.59 0 01-.583-.581v-2.056a.472.47 0 00-.179-.401l-1.5-1.476a.567.564 0 010-.802l1.467-1.432a.726.722 0 00.248-.445v-2.055a.603.6 0 01.583-.59h1.987a.47.468 0 00.403-.178l1.475-1.467a.616.613 0 01.831.025z" fill="#fff"/><path fill-rule="evenodd" clip-rule="evenodd" d="M83.549 170.87a.666.663 0 01.226.467.68.677 0 01-.175.489l-3.728 4.111a.673.67 0 01-.95.068l-1.56-1.347a.676.673 0 01.857-1.024l1.061.913 3.257-3.625a.667.664 0 01.222-.176.676.673 0 01.79.125z" fill="#3e56f1"/></svg>