<svg width="132" height="90" fill="none" xmlns="http://www.w3.org/2000/svg"><path d="M1.864 88.348h127.941" stroke="#CFD8DC" stroke-width="3" stroke-linecap="round" stroke-linejoin="round"/><path d="M122.977 11.013h-51.78a4.328 4.328 0 00-4.328 4.328v33.223a4.328 4.328 0 004.328 4.328h51.78a4.328 4.328 0 004.329-4.328V15.34a4.328 4.328 0 00-4.329-4.328z" stroke="#A3FBFF" stroke-width="3" stroke-linecap="round" stroke-linejoin="round"/><path d="M127.306 20.87H66.869v7.555h60.437v-7.554zM85.996 36.143H78.95a3.375 3.375 0 00-3.375 3.374v3.76a3.375 3.375 0 003.375 3.375h7.046a3.375 3.375 0 003.374-3.375v-3.76a3.375 3.375 0 00-3.374-3.374zM98.56 46.163a7.51 7.51 0 007.791-5.139c.237-.79.272-1.788-.385-2.292a1.482 1.482 0 00-1.759.084c-.49.408-.817.977-.924 1.605a4.988 4.988 0 002.194 5.104 5.85 5.85 0 005.652.242 7.068 7.068 0 003.587-4.476 3.86 3.86 0 000-2.386 1.945 1.945 0 00-1.843-1.305c-.929.074-1.581.988-1.823 1.892a4.8 4.8 0 002.875 5.752 4.803 4.803 0 006.019-2.263" stroke="#A3FBFF" stroke-width="3" stroke-linecap="round" stroke-linejoin="round"/><path d="M15.708 18.239l26.333-.132v-5.256A10.858 10.858 0 0152.898 2h13.17a6.5 6.5 0 110 13.001h-8.263a2.757 2.757 0 00-2.763 2.757v1.73a8.34 8.34 0 014.044 7.202L59 40.76a8.331 8.331 0 01-3.713 6.875l-.244-.068v3.575l9.739-3.945c4.525-1.837 9.62-.125 11.37 3.826 1.75 3.95-.495 8.644-5.001 10.476L49.985 69.98A28.048 28.048 0 0139.547 72H15.04A11.982 11.982 0 013.063 60.018L3 31.046A12.788 12.788 0 0115.708 18.24z" fill="#13C1AC" stroke="#13C1AC" stroke-width="3" stroke-linecap="round" stroke-linejoin="round"/><path d="M56.292 46.772V20.44M23.027 18.22a8.4 8.4 0 00-8.282 8.463M36.071 18.14a8.47 8.47 0 00-8.282 8.544M40.791 26.684v-8.577M22.096 52.523a9.201 9.201 0 008.288.324" stroke="#04413C" stroke-width="3" stroke-linecap="round" stroke-linejoin="round"/><path fill-rule="evenodd" clip-rule="evenodd" d="M36.865 49.178a2.606 2.606 0 112.6 2.6 2.6 2.6 0 01-2.6-2.6zM9.75 48.785a2.599 2.599 0 014.44-1.839 2.6 2.6 0 11-4.44 1.839z" fill="#04413C"/></svg>