<svg width="217" height="148" fill="none" xmlns="http://www.w3.org/2000/svg"><path d="M2.106 146.247H215.34" stroke="#CFD8DC" stroke-width="3" stroke-linecap="round" stroke-linejoin="round"/><path d="M203.962 17.355h-86.3a7.214 7.214 0 00-7.214 7.214v55.37a7.214 7.214 0 007.214 7.214h86.3a7.214 7.214 0 007.214-7.213V24.57a7.214 7.214 0 00-7.214-7.215z" stroke="#A3FBFF" stroke-width="3" stroke-linecap="round" stroke-linejoin="round"/><path d="M211.176 33.784H110.448v12.59h100.728v-12.59zM142.325 59.238h-11.743a5.624 5.624 0 00-5.624 5.624v6.267a5.624 5.624 0 005.624 5.624h11.743a5.624 5.624 0 005.624-5.624v-6.267a5.624 5.624 0 00-5.624-5.624zM163.267 75.938a12.518 12.518 0 0012.986-8.564c.395-1.318.453-2.981-.643-3.821a2.469 2.469 0 00-2.931.14 4.456 4.456 0 00-1.54 2.676 8.328 8.328 0 003.656 8.507 9.75 9.75 0 009.421.403 11.793 11.793 0 005.978-7.46 6.435 6.435 0 000-3.978 3.232 3.232 0 00-3.071-2.174c-1.548.123-2.636 1.647-3.039 3.154a8.001 8.001 0 004.792 9.585 8.006 8.006 0 0010.031-3.771" stroke="#A3FBFF" stroke-width="3" stroke-linecap="round" stroke-linejoin="round"/><path d="M25.179 29.398l43.89-.219v-8.76A18.096 18.096 0 0187.162 2.334h21.95a10.833 10.833 0 110 21.668H95.341a4.595 4.595 0 00-4.604 4.594v2.885a13.9 13.9 0 016.74 12.002l-.146 23.45a13.886 13.886 0 01-6.188 11.459l-.406-.114v5.959l16.23-6.575c7.543-3.062 16.033-.208 18.95 6.376 2.917 6.584-.823 14.407-8.334 17.46l-35.274 14.137A46.753 46.753 0 0164.912 119H24.064a19.971 19.971 0 01-19.96-19.97L4 50.744a21.313 21.313 0 0121.179-21.346z" fill="#13C1AC" stroke="#13C1AC" stroke-width="3" stroke-linecap="round" stroke-linejoin="round"/><path d="M92.82 76.954v-43.89M37.378 29.367a14.001 14.001 0 00-13.803 14.106M59.12 29.232a14.115 14.115 0 00-13.804 14.24M66.984 43.473V29.179M35.826 86.538a15.334 15.334 0 0013.814.541" stroke="#04413C" stroke-width="3" stroke-linecap="round" stroke-linejoin="round"/><path fill-rule="evenodd" clip-rule="evenodd" d="M60.443 80.964a4.343 4.343 0 114.333 4.334 4.333 4.333 0 01-4.333-4.334zM15.252 80.308a4.331 4.331 0 012.675-4.003 4.334 4.334 0 11-2.675 4.003z" fill="#04413C"/></svg>