<svg width="221" height="217" fill="none" xmlns="http://www.w3.org/2000/svg"><path d="M94.384 26.845l-.525 7.447M97.85 30.826l-7.456-.525M120.312 40.313l4.149 1.614M119.173 24.765l3.971-.623M111.963 11.674l2.911-2.892M97.128 5.731l.05-3.793M74.737 12.476L72.033 9.88M67.666 30.222l-4.14-.149M68.864 41.957l-4.278 1.1M77.183 53.514l-2.07 3.09M109.18 51.82l2.327 2.873M94.048 55.822l.168 3.713" stroke="#85FFD3" stroke-width="3" stroke-linecap="round" stroke-linejoin="round"/><path d="M185.713 71.597L183.692 87.8M174.532 58.159l-14.588 6.566M196.18 66.725l5.605 13.32M202.23 57.703l14.42 7.418M203.182 46.106l15.32-3.802M195.655 35.54l6.715-9.616M180.286 37.055l-6.368-8.12M173.264 46.245l-8.735-2.426M177.315 68.141c-18.411 22.134-31.889 73.284-36.771 114.501" stroke="#A3FBFF" stroke-width="3" stroke-linecap="round" stroke-linejoin="round"/><path d="M84.788 150.615c-2.911-11.725-10.685-21.539-18.281-30.927M62.447 115.499h-.466M37.382 93.939l-2.882-1.09M40.849 81.095l-3.229.93M34.847 69.865a2.604 2.604 0 00-2.278 1.198M24.22 66.636l.674-1.891M29.123 99.445l-.92-1.792M7.742 72.499l-2.793-1.862M5.563 81.51l-3.625-.277M7.82 91.671c-.935.412-1.95.611-2.97.585M12.96 97.257l-2.297 1.386M20.705 98.791l-.396 2.447M16.387 67.18l-.584-1.584" stroke="#E9FFB4" stroke-width="3" stroke-linecap="round" stroke-linejoin="round"/><path d="M161.291 139.573c-2.515-16.429-5.566-32.205-13.716-47.803-3.139-6.001-8.695-12.092-13.983-14.112a50.188 50.188 0 00-20.549-2.634c-11.26.743-17.826 6.803-19.084 17.826-1.832 15.904.287 32.849-6.774 47.228a92.688 92.688 0 01-6.833 10.983 283.85 283.85 0 00-9.972 15.845c-4.308 7.338-8.913 15.162-8.913 23.678 0 17.093 8.517 22.698 20.559 22.698h65.262c8.378 0 13.736-14.745 15.548-25.164 1.812-10.418.98-32.116-1.545-48.545z" fill="#13C1AC" stroke="#13C1AC" stroke-width="3" stroke-linecap="round" stroke-linejoin="round"/><path opacity=".2" d="M86.927 180.592c-5.427-2.426-9.487-7.071-14.072-10.894a22.226 22.226 0 00-2.971-2.089c-4.17 7.12-8.447 14.686-8.447 22.896 0 17.093 8.516 22.698 20.559 22.698h65.262c8.378 0 13.735-14.746 15.548-25.164 1.178-6.754 1.238-18.232.445-29.947a55.093 55.093 0 01-7.744 6.07c-6.685 4.18-14.508 6.081-22.183 7.923a27.35 27.35 0 01-7.13 1.04c-2.248-.079-4.457-.713-6.705-.614-5.793.257-10.171 5.14-15.36 7.705a20.55 20.55 0 01-17.202.376z" fill="#04413C" stroke="#04413C" stroke-width="3" stroke-linecap="round" stroke-linejoin="round"/><path d="M53.792 215.154H170.65" stroke="#CFD8DC" stroke-width="3" stroke-linecap="round" stroke-linejoin="round"/><path d="M117.271 107.526l4.219-4.783M119.718 106.18a12.409 12.409 0 0014.26.227" stroke="#04413C" stroke-width="3" stroke-linecap="round" stroke-linejoin="round"/><path fill-rule="evenodd" clip-rule="evenodd" d="M140.593 97.603a3.532 3.532 0 012.182-3.266 3.536 3.536 0 11-2.182 3.266zM103.595 97.603a3.532 3.532 0 012.182-3.266 3.536 3.536 0 11-2.182 3.266z" fill="#04413C"/><path fill-rule="evenodd" clip-rule="evenodd" d="M112.221 190.604a12.454 12.454 0 013.649-8.806 12.455 12.455 0 018.809-3.642h48.357a12.456 12.456 0 0112.107 12.453 12.46 12.46 0 01-12.107 12.453h-48.357a12.455 12.455 0 01-12.458-12.458z" fill="#fff"/><path fill-rule="evenodd" clip-rule="evenodd" d="M174.888 195.071a6.447 6.447 0 000-8.913 6.731 6.731 0 00-9.081 0 6.45 6.45 0 000 8.913 6.735 6.735 0 009.081 0zm-24.886-3.486a4.237 4.237 0 000-5.813 4.36 4.36 0 00-3.09-1.08h-4.981v11.835h2.307v-3.872h2.644a4.39 4.39 0 003.12-1.07zm-5.804-1.079v-3.665h2.476a2.271 2.271 0 011.555.476 1.712 1.712 0 01.525 1.366 1.697 1.697 0 01-.525 1.347 2.271 2.271 0 01-1.555.476h-2.476zm17.539 6.07a2.97 2.97 0 01-1.565-.396c-.541-.35-1-.813-1.346-1.357l-1.615-2.327h-2.03v4.031h-2.307v-11.835h4.951a4.577 4.577 0 013.14 1.09 3.64 3.64 0 011.218 2.852 3.626 3.626 0 01-2.446 3.575l1.049 1.495a1.518 1.518 0 001.446.743h.208v2.1a1.23 1.23 0 01-.297 0l-.406.029zm-6.556-6.169v-3.566h2.595a2.162 2.162 0 011.505.456 1.7 1.7 0 01.515 1.337 1.626 1.626 0 01-.515 1.317 2.211 2.211 0 01-1.505.456h-2.595zm19.064.198a4.1 4.1 0 00-1.08-2.971 4.176 4.176 0 00-5.694 0 4.603 4.603 0 000 5.942 4.159 4.159 0 005.694 0 4.071 4.071 0 001.11-2.971h-.03zM129.135 183.226l1.594 1.594a.552.552 0 00.426.149h2.219a.635.635 0 01.624.624v2.228a.522.522 0 00.043.24.52.52 0 00.145.196l1.584 1.545a.602.602 0 010 .871l-1.584 1.555a.612.612 0 00-.188.485v2.219a.645.645 0 01-.624.633h-2.219a.515.515 0 00-.426.189l-1.594 1.604a.615.615 0 01-.862 0l-1.584-1.604a.763.763 0 00-.436-.189h-2.208a.641.641 0 01-.624-.633v-2.219a.502.502 0 00-.198-.435l-1.585-1.555a.628.628 0 010-.872l1.585-1.545a.778.778 0 00.198-.485v-2.228a.63.63 0 01.624-.624h2.208a.515.515 0 00.436-.198l1.584-1.594a.664.664 0 01.862.049z" fill="#385EF9"/><path fill-rule="evenodd" clip-rule="evenodd" d="M132.027 187.475a.723.723 0 01.06.99l-3.962 4.456a.728.728 0 01-.99.06l-1.684-1.446a.726.726 0 01-.221-.79.73.73 0 01.142-.25.72.72 0 01.99-.069l1.139.99 3.516-3.961a.723.723 0 011.01.02z" fill="#fff"/></svg>