<svg width="190" height="220" fill="none" xmlns="http://www.w3.org/2000/svg"><g clip-path="url(#clip0_7187_4652)"><path fill-rule="evenodd" clip-rule="evenodd" d="M121.469 19.355c3.218-2.066 7.048-2.691 10.703-2.06.06.011.119.025.178.042.23.066.432.114.669.17.139.033.289.069.463.113.429.107.926.246 1.445.47a1.704 1.704 0 01.531 2.768l-2.601 2.609c-.057.057-.118.11-.182.158-1.119.843-1.972 1.871-2.654 3.122-.277.664-.348 1.087-.303 1.403.056.398.218.793.531 1.29.34.279.836.427 1.533.374.772-.06 1.627-.367 2.334-.802 1.074-.757 1.991-1.48 2.788-2.279l.049-.047 2.941-2.723a1.691 1.691 0 012.668.49c.616 1.235 1.161 2.692 1.302 4.225.253 2.434-.13 4.953-.881 7.086a1.22 1.22 0 01-.031.082c-.918 2.237-2.592 4.293-4.516 5.711-2.05 1.541-4.373 2.45-6.827 2.709a13.874 13.874 0 01-6.029-.696c-2.857 3.222-5.735 6.421-8.608 9.615l-.002.002c-3.139 3.49-6.273 6.974-9.377 10.485a1.693 1.693 0 01-1.509.555c-1.228-.176-2.308-.843-3.108-1.512-.975-.815-1.587-1.91-1.893-2.963-.233-.725-.245-1.515-.202-2.189.045-.712.167-1.463.298-2.16.079-.414.171-.86.257-1.275.053-.255.103-.498.146-.714.123-.622.201-1.089.221-1.416.022-.346.148-.676.361-.948 4.438-5.647 9.188-10.99 14.347-16.027-.774-2.04-1.005-4.211-.792-6.348a.865.865 0 01.009-.072c.246-1.73.755-3.593 1.851-5.241.996-1.499 2.276-2.928 3.863-3.99l.027-.017zm1.842 2.858c-1.121.753-2.098 1.817-2.909 3.037-.708 1.065-1.103 2.367-1.31 3.8-.192 1.976.111 3.904.963 5.614a1.705 1.705 0 01-.343 1.99c-5.249 5.046-10.073 10.417-14.578 16.116-.056.43-.14.88-.225 1.31-.055.277-.11.54-.164.802-.079.38-.156.754-.232 1.155-.123.651-.214 1.24-.246 1.744-.034.53.009.817.047.933l.022.07c.15.527.439 1.005.812 1.316.23.193.452.347.657.465 2.869-3.236 5.759-6.448 8.644-9.655l.002-.003c3.139-3.49 6.273-6.973 9.378-10.484a1.692 1.692 0 011.958-.426 10.574 10.574 0 005.467.883c1.84-.194 3.586-.872 5.153-2.051l.015-.011c1.453-1.07 2.708-2.625 3.377-4.228.595-1.712.884-3.71.689-5.568l-.002-.024a6.185 6.185 0 00-.136-.826l-1.071.993c-.997.995-2.095 1.847-3.256 2.662a1.69 1.69 0 01-.074.049c-1.096.687-2.487 1.222-3.907 1.332-1.432.11-3.055-.21-4.299-1.458a1.703 1.703 0 01-.212-.26c-.522-.786-1.009-1.711-1.172-2.859-.18-1.262.194-2.41.572-3.294.02-.046.042-.092.066-.136.876-1.633 2.018-3.053 3.543-4.224l.42-.42c-2.692-.329-5.392.212-7.649 1.656zM27.955 86.45a2.579 2.579 0 00-1.031 0c-.37.074-.688.214-.898.373a4.798 4.798 0 00-.905.908c-.159.212-.299.53-.372.9-.07.348-.07.688 0 1.035.073.37.213.69.372.901.243.325.58.664.905.908.21.159.528.3.898.373h.002l14.59 2.95a1.702 1.702 0 01-.67 3.338l-14.588-2.95h-.001c-.761-.153-1.574-.466-2.267-.988a8.19 8.19 0 01-1.584-1.588c-.52-.696-.832-1.512-.984-2.276a6.02 6.02 0 010-2.37c.152-.764.464-1.58.984-2.275A8.19 8.19 0 0123.99 84.1c.694-.522 1.507-.835 2.268-.988a5.962 5.962 0 012.357-.001h.005l14.014 2.722a1.702 1.702 0 011.343 1.994 1.697 1.697 0 01-1.988 1.348L27.955 86.45z" fill="#0B175E"/><path fill-rule="evenodd" clip-rule="evenodd" d="M20.978 80.834c-1.52 1.22-2.835 3.213-3.49 5.737-.65 2.514-.456 4.913.294 6.736.751 1.825 1.998 2.97 3.442 3.322l.04.01c1.997.54 4.614-.578 6.404-3.271a1.693 1.693 0 012.352-.472c.78.52.99 1.578.47 2.36-2.277 3.428-6.21 5.711-10.088 4.675-2.73-.674-4.7-2.759-5.756-5.325-1.058-2.572-1.26-5.733-.441-8.892.816-3.15 2.498-5.808 4.654-7.538 2.157-1.732 4.876-2.584 7.6-1.848 3.978 1.039 6.18 4.797 6.68 8.929a1.7 1.7 0 01-1.48 1.894 1.698 1.698 0 01-1.889-1.485c-.405-3.353-2.045-5.493-4.17-6.045l-.017-.005c-1.457-.395-3.089.001-4.605 1.218z" fill="#0B175E"/><path d="M148.283 146.39c-10.518-21.671-18.887-44.363-24.881-67.736-1.584-6.127-3.054-12.254-5.994-17.814a32.901 32.901 0 00-8.37-10.211c-3.392-2.837-7.351-4.879-11.535-6.24-5.881-1.703-12.102-1.703-18.209-1.249-10.292.681-21.488 2.95-27.822 11.12-4.976 6.58-7.69 20.196-8.595 28.365-2.375 19.969-4.071 34.719-7.125 54.575-3.054 19.969-9.048 51.625-4.863 61.496 4.184 9.871 11.988 15.204 18.095 15.204h83.805c11.196 0 15.72-4.992 18.774-8.737 3.053-3.744 6.446-11.8 7.69-18.153 2.488-14.07-4.75-27.798-10.97-40.62z" fill="#385EF9"/><path fill-rule="evenodd" clip-rule="evenodd" d="M79.176 41.443c6.167-.458 12.626-.476 18.797 1.31.018.005.035.01.053.017 4.353 1.416 8.507 3.551 12.088 6.543a34.592 34.592 0 018.793 10.731c2.846 5.381 4.357 11.26 5.817 16.942l.32 1.24.001.004c5.965 23.26 14.294 45.845 24.763 67.415v.001l1.032 2.119c2.798 5.736 5.738 11.765 7.802 17.925 2.327 6.946 3.593 14.201 2.282 21.617l-.006.031c-.649 3.314-1.848 7.03-3.27 10.392-1.413 3.342-3.099 6.459-4.772 8.511-1.554 1.906-3.605 4.287-6.787 6.162-3.202 1.887-7.435 3.199-13.3 3.199H48.984c-7.001 0-15.3-5.965-19.656-16.24-1.192-2.81-1.592-6.942-1.57-11.639.021-4.759.482-10.337 1.163-16.186.988-8.477 2.457-17.638 3.768-25.821.496-3.095.97-6.049 1.386-8.774v-.001c2.827-18.381 4.489-32.375 6.61-50.24l.507-4.27c.46-4.155 1.379-9.685 2.818-15.028 1.428-5.301 3.419-10.612 6.111-14.172l.012-.016c6.827-8.806 18.728-11.09 29.043-11.772zm17.83 4.573c-5.581-1.61-11.551-1.627-17.586-1.178h-.014c-10.264.68-20.748 2.934-26.588 10.458-2.281 3.022-4.134 7.805-5.532 12.995-1.387 5.149-2.278 10.507-2.723 14.522l-.001.014-.51 4.285c-2.12 17.859-3.787 31.907-6.623 50.347-.424 2.773-.903 5.758-1.402 8.872-1.308 8.161-2.757 17.202-3.736 25.602-.675 5.795-1.12 11.23-1.14 15.806-.022 4.639.398 8.166 1.3 10.291 4.013 9.468 11.32 14.168 16.533 14.168h83.805c5.331 0 8.958-1.184 11.581-2.73 2.642-1.556 4.38-3.543 5.88-5.382 1.38-1.692 2.917-4.475 4.275-7.686 1.347-3.184 2.465-6.666 3.061-9.703 1.172-6.648.063-13.287-2.16-19.923-1.988-5.934-4.825-11.752-7.635-17.515-.345-.709-.69-1.416-1.033-2.124M121.76 79.08l-.298-1.156c-1.485-5.77-2.902-11.275-5.553-16.286l-.001-.001a31.192 31.192 0 00-7.934-9.683l-.021-.018c-3.195-2.67-6.945-4.615-10.947-5.92" fill="#385EF9"/><path fill-rule="evenodd" clip-rule="evenodd" d="M135.471 160.929a1.706 1.706 0 01.582 2.335l-13.911 23.26a1.693 1.693 0 01-2.328.583 1.705 1.705 0 01-.582-2.335l13.911-23.259a1.694 1.694 0 012.328-.584z" fill="#0B175E"/><path fill-rule="evenodd" clip-rule="evenodd" d="M118.948 176.427a1.695 1.695 0 012.109-1.147l11.423 3.404a1.703 1.703 0 01-.966 3.263l-11.423-3.404a1.703 1.703 0 01-1.143-2.116zM121.323 171.321a1.696 1.696 0 012.109-1.147l11.423 3.404a1.703 1.703 0 01-.966 3.263l-11.423-3.404a1.702 1.702 0 01-1.143-2.116zM123.585 166.215a1.695 1.695 0 012.11-1.146l11.422 3.403a1.704 1.704 0 011.144 2.116 1.696 1.696 0 01-2.11 1.147l-11.422-3.403a1.704 1.704 0 01-1.144-2.117zM33.418 143.225a1.694 1.694 0 012.21.937c1.599 3.959 4.15 7.57 7.409 10.207l.025.021c3.4 2.861 7.123 5.276 11.057 7.14a1.705 1.705 0 01.81 2.266 1.694 1.694 0 01-2.259.812c-4.204-1.992-8.167-4.565-11.776-7.599-3.746-3.036-6.62-7.135-8.41-11.568a1.703 1.703 0 01.934-2.216z" fill="#0B175E"/><path fill-rule="evenodd" clip-rule="evenodd" d="M51.61 155.81c.686.641.724 1.718.086 2.406l-6.107 6.58a1.692 1.692 0 01-2.398.086 1.705 1.705 0 01-.086-2.405l6.107-6.581a1.693 1.693 0 012.398-.086zM46.181 150.704c.686.641.724 1.718.086 2.406l-6.107 6.58a1.692 1.692 0 01-2.398.086 1.705 1.705 0 01-.086-2.405l6.108-6.581a1.693 1.693 0 012.397-.086zM41.556 145.609c.68.647.708 1.724.063 2.406l-6.22 6.581a1.692 1.692 0 01-2.398.064 1.706 1.706 0 01-.064-2.406l6.22-6.581a1.693 1.693 0 012.399-.064z" fill="#0B175E"/><path fill-rule="evenodd" clip-rule="evenodd" d="M181.647 51.31c.937 0 1.696.761 1.696 1.701v11.574c0 .94-.759 1.702-1.696 1.702a1.7 1.7 0 01-1.697-1.702V53.012a1.7 1.7 0 011.697-1.702z" fill="#CFD8DC"/><path fill-rule="evenodd" clip-rule="evenodd" d="M174.295 58.798c0-.94.759-1.702 1.696-1.702h11.536a1.7 1.7 0 011.697 1.702 1.7 1.7 0 01-1.697 1.702h-11.536a1.699 1.699 0 01-1.696-1.702zM7.364 16.817a1.7 1.7 0 011.697 1.702v8.396a1.7 1.7 0 01-1.697 1.702 1.7 1.7 0 01-1.696-1.702V18.52a1.7 1.7 0 011.696-1.702z" fill="#CFD8DC"/><path fill-rule="evenodd" clip-rule="evenodd" d="M1.484 22.558c.025-.94.805-1.68 1.742-1.655l8.369.226a1.7 1.7 0 011.65 1.748 1.699 1.699 0 01-1.742 1.655l-8.369-.227a1.7 1.7 0 01-1.65-1.747zM20.145 1.387a1.7 1.7 0 011.696 1.702v6.24a1.7 1.7 0 01-1.696 1.702 1.7 1.7 0 01-1.697-1.702v-6.24a1.7 1.7 0 011.697-1.702z" fill="#CFD8DC"/><path fill-rule="evenodd" clip-rule="evenodd" d="M15.281 6.12c.018-.939.79-1.687 1.728-1.67l6.22.114a1.7 1.7 0 011.665 1.732 1.699 1.699 0 01-1.727 1.671l-6.22-.113a1.7 1.7 0 01-1.665-1.733z" fill="#CFD8DC"/><path fill-rule="evenodd" clip-rule="evenodd" d="M118.037 98.064c.87.35 1.293 1.34.945 2.212-2.166 5.433-2.941 11.345-3.621 17.483a1.698 1.698 0 01-1.873 1.504 1.702 1.702 0 01-1.499-1.88c.677-6.115 1.485-12.457 3.843-18.37a1.694 1.694 0 012.205-.949z" fill="#0B175E"/><path fill-rule="evenodd" clip-rule="evenodd" d="M114.726 102.034a1.697 1.697 0 011.996-1.336l31.105 6.242c4.566.927 9.51 2.433 13.285 4.028 1.877.792 3.544 1.639 4.742 2.489.593.421 1.154.9 1.562 1.442.396.526.813 1.339.628 2.31l-.006.032c-.198.945-.885 1.515-1.412 1.829-.554.331-1.22.559-1.898.725-1.37.337-3.163.512-5.155.556-4.006.088-9.135-.351-13.999-1.338l-.003-.001-31.322-6.239a1.701 1.701 0 01-1.333-2.001 1.695 1.695 0 011.994-1.337l31.334 6.241c4.635.941 9.514 1.354 13.254 1.272 1.882-.042 3.396-.207 4.423-.459.083-.02.16-.041.232-.061a5.864 5.864 0 00-.259-.192c-.905-.643-2.313-1.377-4.098-2.131-3.546-1.498-8.271-2.941-12.64-3.829h-.002l-31.098-6.24a1.701 1.701 0 01-1.33-2.002zm50.21 14.082a.052.052 0 01.012-.009l-.012.009z" fill="#0B175E"/><path fill-rule="evenodd" clip-rule="evenodd" d="M125.273 101.196c.77.535.961 1.595.428 2.368l-6.899 9.984a1.694 1.694 0 01-2.361.43 1.707 1.707 0 01-.428-2.369l6.899-9.984a1.692 1.692 0 012.361-.429zM137.035 103.805c.77.536.961 1.596.427 2.368l-6.899 9.985a1.692 1.692 0 01-2.36.429 1.705 1.705 0 01-.428-2.368l6.899-9.985a1.694 1.694 0 012.361-.429zM148.91 106.301c.77.536.961 1.596.427 2.369l-6.899 9.984a1.691 1.691 0 01-2.36.429 1.705 1.705 0 01-.428-2.368l6.899-9.985a1.694 1.694 0 012.361-.429zM160.34 109.597c.767.54.953 1.601.415 2.371l-6.107 8.736a1.692 1.692 0 01-2.363.416 1.705 1.705 0 01-.415-2.37l6.107-8.737a1.693 1.693 0 012.363-.416z" fill="#0B175E"/><path fill-rule="evenodd" clip-rule="evenodd" d="M21.049 216.169a1.7 1.7 0 011.696-1.702h142.502c.937 0 1.696.762 1.696 1.702s-.759 1.702-1.696 1.702H22.745a1.7 1.7 0 01-1.696-1.702z" fill="#CFD8DC"/><path fill-rule="evenodd" clip-rule="evenodd" d="M61.537 70.712c0-.795-.226-1.702-.678-2.383a4.422 4.422 0 00-1.923-1.589c-.791-.34-1.583-.453-2.488-.227-.792.114-1.583.568-2.149 1.135-.565.567-1.018 1.362-1.13 2.156-.114.794-.114 1.702.225 2.496a4.43 4.43 0 001.584 1.929c.678.454 1.47.68 2.375.68 1.13 0 2.149-.453 2.94-1.248.792-.794 1.244-1.815 1.244-2.95zM105.646 70.712c0-.795-.226-1.702-.679-2.383a4.421 4.421 0 00-1.922-1.589c-.792-.34-1.584-.453-2.489-.227-.791.114-1.583.568-2.148 1.135-.566.567-1.018 1.362-1.131 2.156-.114.794-.114 1.702.226 2.496a4.43 4.43 0 001.583 1.929c.679.454 1.47.68 2.375.68.566 0 1.131-.113 1.584-.34a4.077 4.077 0 001.357-.907c.339-.34.678-.908.904-1.362.227-.454.34-1.021.34-1.588zM71.042 76.012c2.643-1.389 5.518-2.01 8.365-2.01 2.893 0 5.742.755 8.307 1.98a1.704 1.704 0 01.802 2.269 1.694 1.694 0 01-2.26.805c-2.186-1.044-4.54-1.65-6.849-1.65-2.356 0-4.682.513-6.79 1.62a1.694 1.694 0 01-2.29-.717 1.705 1.705 0 01.715-2.297z" fill="#0B175E"/><path opacity=".2" d="M141.61 131.754c-9.613 2.383-17.191 9.19-21.602 13.956-4.41 4.765-11.536 17.019-18.547 26.209-8.596 11.12-28.275 18.835-41.96 16.112-10.856-2.156-17.416-7.262-29.517-8.283-.679 8.283-.566 15.317 1.017 19.062 4.185 9.871 11.989 15.204 18.096 15.204h83.691c11.197 0 15.721-4.993 18.774-8.737 3.054-3.744 6.447-11.8 7.691-18.154 2.601-14.069-4.637-27.798-10.857-40.733-2.489-4.878-4.751-9.644-6.786-14.636z" fill="#0B175E"/><path opacity=".2" fill-rule="evenodd" clip-rule="evenodd" d="M141.203 130.102a1.695 1.695 0 011.977 1.007c2.012 4.935 4.252 9.655 6.726 14.506l.018.036c.368.765.741 1.536 1.116 2.312 2.771 5.726 5.672 11.72 7.702 17.83 2.313 6.962 3.551 14.221 2.179 21.64l-.003.018c-.649 3.314-1.848 7.03-3.27 10.392-1.413 3.342-3.099 6.46-4.773 8.512-1.554 1.905-3.604 4.286-6.787 6.162-3.201 1.886-7.434 3.198-13.3 3.198H49.097c-7.002 0-15.301-5.965-19.657-16.239v-.002c-.912-2.157-1.347-5.097-1.49-8.419-.146-3.359 0-7.266.343-11.446.037-.451.25-.868.595-1.16.343-.292.789-.435 1.238-.397 6.278.53 11.111 2.123 15.672 3.816.688.255 1.367.512 2.043.767 3.82 1.442 7.52 2.839 11.99 3.726 6.434 1.28 14.438.12 21.949-2.783 7.506-2.902 14.28-7.452 18.337-12.698 3.179-4.167 6.387-8.978 9.382-13.471l.801-1.201c3.179-4.762 6.147-9.152 8.465-11.657 4.481-4.84 12.338-11.946 22.438-14.449zm-.587 3.688c-8.472 2.547-15.248 8.63-19.364 13.078-2.093 2.26-4.893 6.38-8.132 11.234l-.809 1.213c-2.984 4.476-6.253 9.379-9.503 13.639l-.007.008c-4.54 5.873-11.9 10.737-19.801 13.792-7.899 3.053-16.576 4.389-23.828 2.946-4.766-.946-8.749-2.451-12.569-3.895-.664-.251-1.324-.501-1.982-.745-4.015-1.49-8.06-2.83-13.078-3.441-.238 3.428-.321 6.574-.204 9.288.139 3.201.553 5.649 1.224 7.236 4.013 9.468 11.321 14.168 16.534 14.168h83.691c5.331 0 8.959-1.183 11.582-2.729 2.642-1.557 4.38-3.544 5.879-5.383 1.381-1.692 2.918-4.474 4.276-7.685 1.347-3.187 2.466-6.672 3.062-9.71 1.226-6.646.146-13.284-2.064-19.935-1.955-5.883-4.751-11.663-7.532-17.413-.372-.77-.745-1.539-1.115-2.308-2.267-4.448-4.356-8.817-6.26-13.358z" fill="#0B175E"/></g><defs><clipPath id="clip0_7187_4652"><path fill="#fff" d="M0 0h189.603v220H0z"/></clipPath></defs></svg>