<svg width="220" height="163" fill="none" xmlns="http://www.w3.org/2000/svg"><path d="M61.403 33.252H24.627c-4.29 0-5.954-2.802-6.305-4.466-.525-2.014.964-4.203 2.89-5.079.963-.35 2.102-.437 3.152-.35a7.027 7.027 0 012.977.963c-.613-3.502-1.576-8.143-1.138-11.645.438-3.503 2.102-7.18 5.166-9.02 3.065-1.926 7.618-1.488 9.72 1.402 1.4 1.926 1.576 4.465 1.225 6.742.876-1.576 2.102-2.802 3.59-3.765 1.49-.963 3.24-1.401 4.991-1.489 1.752 0 3.415.438 4.904 1.314a9.418 9.418 0 013.502 3.677c.789 1.489 1.226 3.24 1.139 4.991-.088 1.752-.613 3.415-1.664 4.816 1.226-.525 2.54-.7 3.853-.438 1.313.176 2.54.789 3.59 1.664 1.05.876 1.751 2.014 2.014 3.328.35 1.313.175 2.626-.263 3.852-1.226 2.277-3.94 3.503-6.567 3.503zM217.176 158.991H2.824" stroke="#CFD8DC" stroke-width="3" stroke-linecap="round" stroke-linejoin="round"/><path d="M19.723 156.364c-7.968 0-10.157-5.866-11.032-12.871-.876-7.005-.088-15.411 2.802-20.49 2.364-4.028 5.691-7.268 8.93-10.595 8.495-8.669 16.725-18.213 20.753-30.121 1.314-4.028 2.19-8.144 3.765-12.084 1.576-3.94 3.94-7.618 7.443-9.544 2.19-1.051 4.64-1.664 7.093-1.84 9.106-1.05 18.3-.7 27.232 1.14 2.189.35 4.29 1.05 6.304 2.1 3.065 1.752 5.254 4.904 7.005 8.144 4.553 8.493 6.742 18.3 8.493 27.932 1.401 7.531 2.54 15.061 3.503 22.591.7 5.517 1.313 11.121.613 16.637-.788 5.517-3.065 10.945-7.18 14.273-3.503 2.802-8.319 4.816-12.347 4.816l-73.377-.088z" fill="#13C1AC" stroke="#13C1AC" stroke-width="3" stroke-linecap="round" stroke-linejoin="round"/><path d="M103.871 91.656c2.014 2.627 4.203 5.517 7.443 6.392 3.415.963 7.092-.438 10.595-.613.788-.087 1.576.088 2.277.438 1.838 1.138 1.401 3.94.525 5.867-3.327 7.53-9.019 13.66-14.711 19.614" fill="#13C1AC"/><path d="M103.871 91.656c2.014 2.627 4.203 5.517 7.443 6.392 3.415.963 7.092-.438 10.595-.613.788-.087 1.576.088 2.277.438 1.838 1.138 1.401 3.94.525 5.867-3.327 7.53-9.019 13.66-14.711 19.614" stroke="#13C1AC" stroke-width="3" stroke-linecap="round" stroke-linejoin="round"/><path d="M149.578 93.933c-6.129 2.013-12.609 2.364-19.001 3.064-1.313.175-2.889.438-3.502 1.664s.175 2.627.875 3.853c4.816 7.793 9.982 15.936 18.126 20.051" fill="#FD6C67"/><path d="M149.578 93.933c-6.129 2.013-12.609 2.364-19.001 3.064-1.313.175-2.889.438-3.502 1.664s.175 2.627.875 3.853c4.816 7.793 9.982 15.936 18.126 20.051" stroke="#FD6C67" stroke-width="3" stroke-linecap="round" stroke-linejoin="round"/><path d="M143.624 156.364c-4.903 0-5.253-4.903-5.429-7.705-1.751-20.49 3.065-40.979 7.969-61.03 3.415-13.923 6.917-27.933 12.258-41.33a23.826 23.826 0 012.365-4.729c1.751-2.101 4.027-3.765 6.479-4.903 6.217-2.89 13.134-3.765 19.964-2.715 2.802.35 5.429 1.401 7.793 2.978 4.554 3.502 5.604 9.719 5.692 15.323.263 18.125-6.305 36.163-3.94 54.113 1.138 9.019 4.553 17.6 6.304 26.532.963 4.641 1.926 12.171.613 16.724-1.313 4.641-4.028 6.48-9.106 6.48h-50.962v.262z" fill="#FD6C67" stroke="#FD6C67" stroke-width="3" stroke-linecap="round" stroke-linejoin="round"/><path d="M104.921 43.321l-2.539-5.428M121.733 36.755l.176-5.254M139.333 38.505l2.189-4.553" stroke="#90A4AE" stroke-width="3" stroke-linecap="round" stroke-linejoin="round"/><path fill-rule="evenodd" clip-rule="evenodd" d="M165.252 48.224c.088-.525-.088-1.05-.263-1.488-.262-.438-.613-.876-1.05-1.05-.438-.264-.964-.351-1.489-.264-.525.088-1.051.263-1.401.613-.35.35-.701.789-.876 1.314-.175.525-.175 1.05 0 1.488.175.526.438.964.876 1.226.438.35.876.526 1.401.526.7.087 1.401-.175 1.926-.613.526-.438.876-1.139.876-1.752zM192.395 50.589c.088-.526-.087-1.051-.262-1.489-.263-.438-.613-.875-1.051-1.05-.438-.263-.963-.35-1.489-.263-.525.087-1.05.262-1.4.613-.438.35-.701.788-.876 1.313-.175.526-.175 1.05 0 1.489.175.525.438.963.876 1.226.437.35.875.525 1.4.525.701.087 1.401-.175 1.927-.613.525-.438.875-1.05.875-1.751z" fill="#A31745"/><path d="M168.492 48.487l14.623 1.314-.35 3.94a7.405 7.405 0 01-2.627 4.991 7.385 7.385 0 01-5.342 1.664 7.404 7.404 0 01-4.991-2.627 7.387 7.387 0 01-1.663-5.341l.35-3.94z" fill="#A31745" stroke="#A31745" stroke-width="3" stroke-linecap="round" stroke-linejoin="round"/><path d="M182.502 55.23c-.876-.875-2.014-1.488-3.24-1.839-1.226-.35-2.452-.438-3.765-.175-1.226.263-2.452.7-3.415 1.489-1.051.788-1.839 1.751-2.364 2.89.613.787 1.401 1.488 2.276 1.926.876.438 1.839.788 2.89.875 1.664.175 3.327-.262 4.728-1.226 1.314-.963 2.364-2.276 2.89-3.94z" fill="#FD6C67" stroke="#A31745" stroke-width="3" stroke-linecap="round" stroke-linejoin="round"/><path fill-rule="evenodd" clip-rule="evenodd" d="M91.524 73.093c-.087-.526.088-1.051.263-1.489.263-.438.613-.876 1.05-1.05.438-.263.964-.35 1.49-.263.525.087 1.05.262 1.4.613.438.35.7.788.876 1.313.175.525.175 1.05 0 1.489-.175.525-.438.963-.876 1.225-.438.35-.875.526-1.4.526-.701.087-1.402-.175-1.927-.613a3.045 3.045 0 01-.876-1.751zM64.38 75.545c-.088-.526.087-1.051.262-1.489.263-.438.613-.875 1.051-1.05.438-.263.963-.35 1.489-.263.525.087 1.05.263 1.4.613.351.35.701.788.876 1.313.175.526.175 1.05 0 1.489-.175.525-.438.963-.875 1.226-.438.35-.876.525-1.401.525-.7.087-1.401-.175-1.927-.613-.525-.438-.788-1.05-.875-1.751z" fill="#04413C"/><path d="M81.98 85.264a7.383 7.383 0 01-5.34-1.664 7.403 7.403 0 01-2.628-4.99l-.35-3.941 14.623-1.313.35 3.94a7.383 7.383 0 01-1.663 5.341c-1.226 1.576-3.065 2.452-4.991 2.627z" fill="#04413C" stroke="#04413C" stroke-width="3" stroke-linecap="round" stroke-linejoin="round"/><path d="M74.274 80.185c.876-.875 2.014-1.488 3.24-1.839 1.226-.35 2.452-.437 3.765-.175 1.226.263 2.452.7 3.415 1.489 1.051.788 1.84 1.751 2.364 2.89-.612.788-1.4 1.488-2.276 1.926-.876.438-1.839.788-2.89.875-1.663.175-3.327-.262-4.728-1.225a8.162 8.162 0 01-2.89-3.94z" fill="#13C1AC" stroke="#04413C" stroke-width="3" stroke-linecap="round" stroke-linejoin="round"/><path opacity=".2" d="M109.212 137.276c-12.17 4.641-25.13 7.005-38.177 7.18-14.01 0-26.969-6.567-35.988-12.434-2.977-2.014-5.779-4.203-8.756-6.217-3.853-2.539-8.056-4.64-12.346-6.304-.876 1.138-1.752 2.277-2.452 3.502-2.977 5.079-3.678 13.397-2.802 20.49.876 7.093 3.065 12.872 11.033 12.872H93.1c4.028 0 8.844-2.014 12.346-4.816 4.116-3.24 6.48-8.756 7.18-14.273.088-.438.088-.963.175-1.401l-3.59 1.401z" fill="#04413C" stroke="#04413C" stroke-width="3" stroke-linecap="round" stroke-linejoin="round"/><path opacity=".2" d="M201.065 124.491c-4.378 2.452-8.581 8.844-15.148 14.185-4.028 3.328-9.632 4.116-14.798 3.853-4.991-.263-9.895-1.051-14.623-2.452-3.765-1.138-7.443-2.539-11.296-3.327-2.364-.525-4.728-.701-7.18-.613a99.704 99.704 0 00.263 12.521c.263 2.802.525 7.706 5.429 7.706h50.961c5.079 0 7.793-1.927 9.106-6.48 1.314-4.641.351-12.083-.525-16.724-.7-2.977-1.401-5.779-2.189-8.669z" fill="#A31745" stroke="#A31745" stroke-width="3" stroke-linecap="round" stroke-linejoin="round"/></svg>