<svg width="122" height="251" fill="none" xmlns="http://www.w3.org/2000/svg"><path d="M119.382 238.134L96.257 110.037c9.971-7.333 17.423-17.737 21.28-29.712a61.223 61.223 0 00.183-36.916c-3.739-12.015-11.088-22.496-20.987-29.933C86.835 6.039 74.898 2.032 62.645 2.032c-12.254 0-24.19 4.007-34.089 11.444C18.658 20.913 11.31 31.394 7.57 43.409a61.226 61.226 0 00.182 36.916c3.858 11.975 11.31 22.379 21.28 29.712L5.853 238.134a9.38 9.38 0 00.133 3.971 9.216 9.216 0 001.76 3.536 8.886 8.886 0 003.055 2.429 8.634 8.634 0 003.768.861h96.154a8.644 8.644 0 003.75-.879 8.894 8.894 0 003.034-2.433 9.216 9.216 0 001.746-3.528 9.397 9.397 0 00.13-3.957z" fill="#A3FBFF"/><path opacity=".2" d="M23.86 238.135l23.195-128.097c-9.329-6.867-16.465-16.434-20.5-27.486a61.216 61.216 0 01-2.165-34.585C27.015 36.473 32.9 26.042 41.296 18 49.691 9.957 60.22 4.666 71.544 2.8a55.26 55.26 0 00-9.714-.739c-12.184.168-24.005 4.295-33.776 11.791-9.77 7.497-16.991 17.98-20.631 29.953a61.212 61.212 0 00.363 36.72c3.876 11.894 11.302 22.224 21.22 29.514L5.823 238.135a9.38 9.38 0 00.133 3.971 9.227 9.227 0 001.76 3.537 8.898 8.898 0 003.055 2.429 8.663 8.663 0 003.768.861h18.036a8.666 8.666 0 01-3.765-.866 8.91 8.91 0 01-3.051-2.43 9.225 9.225 0 01-1.762-3.533 9.396 9.396 0 01-.138-3.969z" fill="#0B175E" stroke="#0B175E" stroke-width="3" stroke-linecap="round" stroke-linejoin="round"/><path d="M119.381 238.133L96.256 110.036c11.559-8.517 19.674-21.112 22.802-35.39-7.282-10.565-13.777-22.203-24.404-28.745A34.601 34.601 0 0079.84 40.92a34.359 34.359 0 00-15.454 2.071 35.21 35.21 0 00-13.08 8.722 36.542 36.542 0 00-8.16 13.67c-2.811 8.367-2.488 17.37-2.178 26.271 1.883 52.874 4.104 107.269 25.05 155.569.269.595.584 1.166.942 1.708h43.762a8.65 8.65 0 003.749-.879 8.897 8.897 0 003.034-2.433 9.21 9.21 0 001.747-3.528 9.385 9.385 0 00.129-3.958z" fill="#fff" stroke="#fff" stroke-width="3" stroke-linecap="round" stroke-linejoin="round"/><path opacity=".2" d="M119.382 238.133l-11.879-65.713c-.759 2.49-1.546 4.965-2.319 7.426-4.105 12.882-8.617 26.386-18.472 35.36-7.76 7.064-17.811 10.378-28.115 12.651a233.797 233.797 0 007.338 19.366c.268.595.583 1.166.942 1.708h43.761a8.64 8.64 0 003.777-.852 8.869 8.869 0 003.064-2.427 9.21 9.21 0 001.768-3.54c.329-1.3.375-2.658.135-3.979z" fill="#0B175E" stroke="#0B175E" stroke-width="3" stroke-linecap="round" stroke-linejoin="round"/><path d="M119.382 238.134L96.257 110.037c9.971-7.333 17.423-17.737 21.28-29.712a61.223 61.223 0 00.183-36.916c-3.739-12.015-11.088-22.496-20.987-29.933C86.835 6.039 74.898 2.032 62.645 2.032c-12.254 0-24.19 4.007-34.089 11.444C18.658 20.913 11.31 31.394 7.57 43.409a61.226 61.226 0 00.182 36.916c3.858 11.975 11.31 22.379 21.28 29.712L5.853 238.134a9.38 9.38 0 00.133 3.971 9.216 9.216 0 001.76 3.536 8.886 8.886 0 003.055 2.429 8.634 8.634 0 003.768.861h96.154a8.644 8.644 0 003.75-.879 8.894 8.894 0 003.034-2.433 9.216 9.216 0 001.746-3.528 9.397 9.397 0 00.13-3.957z" stroke="#0B175E" stroke-width="3" stroke-linecap="round" stroke-linejoin="round"/><path fill-rule="evenodd" clip-rule="evenodd" d="M59.172 76.645a4.664 4.664 0 00-1.2-2.361 4.449 4.449 0 00-2.268-1.285 4.363 4.363 0 00-2.58.22 4.508 4.508 0 00-2.032 1.652 4.71 4.71 0 00-.806 2.532 4.722 4.722 0 00.686 2.57 4.527 4.527 0 001.951 1.75 4.367 4.367 0 002.566.35 4.488 4.488 0 002.895-1.904 4.74 4.74 0 00.746-3.452M105.422 68.25a4.665 4.665 0 00-1.179-2.389 4.45 4.45 0 00-2.269-1.312 4.362 4.362 0 00-2.594.206 4.507 4.507 0 00-2.047 1.654 4.71 4.71 0 00-.81 2.547 4.72 4.72 0 00.7 2.58 4.523 4.523 0 001.975 1.746c.811.368 1.71.48 2.583.323a4.502 4.502 0 002.89-1.907 4.752 4.752 0 00.751-3.448z" fill="#0B175E"/><path d="M85.292 71.188l.773 4.574a8.888 8.888 0 01-1.407 6.426c-1.27 1.869-3.204 3.148-5.383 3.561v0a8.244 8.244 0 01-6.263-1.442c-1.822-1.312-3.067-3.311-3.464-5.564l-.774-4.559" stroke="#0B175E" stroke-width="3" stroke-linecap="round" stroke-linejoin="round"/><path d="M59.032 143.675a49.375 49.375 0 01-19.694-4.308 50.628 50.628 0 01-16.504-11.874c-3.065-3.344-6.228-7.396-10.684-7.671-5.623-.333-9.714 5.789-10.248 11.579-.787 8.366 3.29 16.37 7.816 23.39 11.668 18.064 28.34 34.116 48.99 38.458 3.36.71 6.931 1.158 9.715 3.214" fill="#fff"/><path d="M59.032 143.675a49.375 49.375 0 01-19.694-4.308 50.628 50.628 0 01-16.504-11.874c-3.065-3.344-6.228-7.396-10.684-7.671-5.623-.333-9.714 5.789-10.248 11.579-.787 8.366 3.29 16.37 7.816 23.39 11.668 18.064 28.34 34.116 48.99 38.458 3.36.71 6.931 1.158 9.715 3.214" stroke="#fff" stroke-width="3" stroke-linecap="round" stroke-linejoin="round"/></svg>