<svg width="135" height="220" fill="none" xmlns="http://www.w3.org/2000/svg"><path d="M96.739 53.285c7.931.964 17.041 5.783 20.793 9.21 5.144 4.82 8.038 11.567 9.324 18.422 1.286 6.854 1.286 13.923 1.179 20.884l-.429 26.133c-.214 6.212 0 12.423.751 18.528 1.393 9.532 5.894 22.813-4.18 35.986-9.218 11.995-24.545 13.816-38.8 8.675-6.323-2.249-15.326-8.889-20.47-17.457-5.145-8.568-9.754-19.064-10.611-35.665-1.072-21.099 0-27.846 5.251-40.591 2.68-6.426 5.788-16.065 9.218-22.063 9.753-16.814 20.042-23.026 27.974-22.062z" fill="#F49709" stroke="#F49709" stroke-width="3" stroke-linecap="round" stroke-linejoin="round"/><path d="M66.836 88.306l-9.54-26.668c-.428-1.5-1.178-2.998-2.036-4.284a4.587 4.587 0 00-1.715-1.5 5.35 5.35 0 00-2.25-.535 4.268 4.268 0 00-2.251.964c-.643.536-1.179 1.178-1.5 1.928-.644 1.5-.965 3.213-.965 4.82-.215 7.282.107 14.672.857 21.955 1.5 17.029 3.216 34.487 6.86 51.194l12.54-47.874z" fill="#F49709" stroke="#F49709" stroke-width="3" stroke-linecap="round" stroke-linejoin="round"/><path d="M98.24 128.898l2.357 7.39c-1.93 4.07-3.43 8.461-4.287 12.959-.536 2.142-.536 4.391-.107 6.533.321 1.071.857 2.035 1.715 2.785.857.749 1.822 1.178 2.894 1.392 2.036.107 3.858-1.178 5.359-2.463 8.788-7.712 14.147-18.422 19.292-28.81" stroke="#803700" stroke-width="3" stroke-linecap="round" stroke-linejoin="round"/><path d="M70.802 217.577h42.228" stroke="#CFD8DC" stroke-width="3" stroke-linecap="round" stroke-linejoin="round"/><path d="M82.27 67.315c.321-.643.857-1.071 1.5-1.392.643-.322 1.286-.429 2.037-.429l.964.321c.322.215.536.429.75.75.215.321.322.643.429.964.107.321 0 .643 0 1.071M109.386 78.56c.536-.535 1.179-.963 1.929-1.07.75-.108 1.5 0 2.144.32.643.322 1.179.965 1.5 1.607.322.643.429 1.5.214 2.25" stroke="#803700" stroke-width="3" stroke-linecap="round" stroke-linejoin="round"/><path d="M87.415 75.668l15.969 6.212c-.536 3.535-1.715 7.176-4.394 9.532-2.68 2.356-7.181 3.213-9.86.75-6.11-5.57-4.073-11.995-1.715-16.494z" fill="#803700" stroke="#803700" stroke-width="3" stroke-linecap="round" stroke-linejoin="round"/><path d="M101.883 87.343c-2.465-1.393-5.251-2.142-8.038-2.142s-5.573.642-8.146 1.928a13.592 13.592 0 003.43 5.033c2.68 2.463 7.181 1.607 9.86-.75 1.179-1.07 2.144-2.463 2.894-4.07z" fill="#F49709" stroke="#803700" stroke-width="3" stroke-linecap="round" stroke-linejoin="round"/><path opacity=".2" d="M128.464 147.747c-2.894 3.106-5.895 6.105-8.896 8.997-9.753 9.21-21.865 17.029-35.262 17.35-7.396.214-14.577-1.821-21.543-4.284.75 1.285 1.393 2.57 2.143 3.855 5.145 8.568 14.148 15.209 20.472 17.458 14.147 5.141 29.688 3.32 38.799-8.675 9.539-12.531 5.787-25.276 4.287-34.701z" fill="#803700" stroke="#803700" stroke-width="3" stroke-linecap="round" stroke-linejoin="round"/><path d="M26.107 81.988l-4.394 4.284" stroke="#FFBAB5" stroke-width="3" stroke-linecap="round" stroke-linejoin="round"/><path d="M12.818 68.6l-6.86 3.856" stroke="#F8D137" stroke-width="3" stroke-linecap="round" stroke-linejoin="round"/><path d="M8.637 50.286l-5.359.107" stroke="#85FFD3" stroke-width="3" stroke-linecap="round" stroke-linejoin="round"/><path d="M10.245 35.613l-6.217-3.427" stroke="#A3FBFF" stroke-width="3" stroke-linecap="round" stroke-linejoin="round"/><path d="M17.641 23.725l-6.752-6.855" stroke="#F8D137" stroke-width="3" stroke-linecap="round" stroke-linejoin="round"/><path d="M33.074 13.979l-2.25-5.784" stroke="#FFBAB5" stroke-width="3" stroke-linecap="round" stroke-linejoin="round"/><path d="M54.94 10.98l1.178-7.818" stroke="#FFCEE6" stroke-width="3" stroke-linecap="round" stroke-linejoin="round"/><path d="M64.906 16.228l2.68-5.462" stroke="#85FFD3" stroke-width="3" stroke-linecap="round" stroke-linejoin="round"/><path d="M73.695 22.761l6.538-5.462" stroke="#FFBAB5" stroke-width="3" stroke-linecap="round" stroke-linejoin="round"/><path d="M81.09 39.255l7.718-2.357" stroke="#F8D137" stroke-width="3" stroke-linecap="round" stroke-linejoin="round"/></svg>