<svg width="152" height="144" fill="none" xmlns="http://www.w3.org/2000/svg"><path d="M85.49 76.613c-.206 0-.41-.018-.613-.055H55.785c.374 1.36.566 2.763.57 4.174v26.732a18.9 18.9 0 0018.898 18.904H87.66a18.893 18.893 0 0018.904-18.898V85.795a26.065 26.065 0 00-1.679-9.195l-19.395.013z" fill="#385EF9" stroke="#385EF9" stroke-width="3" stroke-linecap="round" stroke-linejoin="round"/><path opacity=".2" d="M106.558 107.531a69.379 69.379 0 01-13.951 6.473c-13.7 4.628-19.842 4.904-30.036 4.542a49.947 49.947 0 01-2.734-.183 18.873 18.873 0 0015.416 8.005H87.66a18.892 18.892 0 0018.898-18.837z" fill="#0B175E" stroke="#0B175E" stroke-width="3" stroke-linecap="round" stroke-linejoin="round"/><path d="M85.558 107.899a7.274 7.274 0 01-6.351 1.521" stroke="#0B175E" stroke-width="3" stroke-linecap="round" stroke-linejoin="round"/><path fill-rule="evenodd" clip-rule="evenodd" d="M72.617 103.547a2.046 2.046 0 10-4.092 0 2.046 2.046 0 004.092 0zM93.998 103.547a2.047 2.047 0 10-4.094 0 2.047 2.047 0 004.094 0z" fill="#0B175E"/><path d="M87.078 109.143a4.022 4.022 0 01-2.274-3.218M89.34 92.495a3.68 3.68 0 015.24 0M71.82 96.737a4.026 4.026 0 00-3.481.331M78.09 76.564H38.359a3.878 3.878 0 01-3.88-3.886V42.855a3.872 3.872 0 013.88-3.88h7.14" stroke="#0B175E" stroke-width="3" stroke-linecap="round" stroke-linejoin="round"/><path d="M46.761 55.484c.102.24.154.499.154.76v3.065a1.944 1.944 0 01-1.956 1.93h-3.065a1.943 1.943 0 01-1.943-1.943v-3.065a1.943 1.943 0 011.943-1.937h3.065M67.56 67.64a7.43 7.43 0 01-5.965 3.334c-4.456 0-8.072-4.585-8.072-10.243 0-.506.029-1.012.085-1.514M55.993 67.32c.135-1.839 2.673-2.66 3.12-4.462" stroke="#385EF9" stroke-width="3" stroke-linecap="round" stroke-linejoin="round"/><path d="M66.413 68.914a6.179 6.179 0 00-1.189-1.49L63.348 65.5a2.415 2.415 0 01-.613-.84" stroke="#385EF9" stroke-width="3" stroke-linecap="round" stroke-linejoin="round"/><path d="M75.105 71.63L42.587 52.853a3.88 3.88 0 01-1.422-5.303l14.907-25.824a3.887 3.887 0 015.309-1.404l6.577 3.794" stroke="#0B175E" stroke-width="3" stroke-linecap="round" stroke-linejoin="round"/><path d="M64.96 46.59a3.5 3.5 0 01-.294.612v0a3.837 3.837 0 01-5.24 1.404l-3.33-1.919 3.844-6.65 2.12 1.226M59.94 40.061l-6.755 11.696" stroke="#385EF9" stroke-width="3" stroke-linecap="round" stroke-linejoin="round"/><path d="M62.575 42.948a3.837 3.837 0 01-4.536.515l-3.322-1.919 3.727-6.51M58.316 35.304l-6.51 11.285M74.492 62.815L58.034 34.312a3.88 3.88 0 011.422-5.303l25.825-14.907a3.886 3.886 0 015.308 1.422l3.954 6.847" stroke="#0B175E" stroke-width="3" stroke-linecap="round" stroke-linejoin="round"/><path d="M70.52 40.018a4.714 4.714 0 100-9.427 4.714 4.714 0 000 9.427z" stroke="#0B175E" stroke-width="3" stroke-linecap="round" stroke-linejoin="round"/><path d="M73.377 44.959a4.714 4.714 0 100-9.428 4.714 4.714 0 000 9.428zM80.965 49.427l.404.693M77.532 51.413l4.077 7.062" stroke="#385EF9" stroke-width="3" stroke-linecap="round" stroke-linejoin="round"/><path d="M81.61 60.578V26.25a3.878 3.878 0 013.88-3.886h29.821a3.878 3.878 0 013.88 3.886v46.47a3.873 3.873 0 01-3.88 3.886H92.716" stroke="#0B175E" stroke-width="3" stroke-linecap="round" stroke-linejoin="round"/><path d="M110.352 76.613V22.371h-6.78v54.242h6.78z" stroke="#0B175E" stroke-width="3" stroke-linecap="round" stroke-linejoin="round"/><path d="M96.64 39.54v-6.325a3.028 3.028 0 00-3.028-3.029h-3.378a3.028 3.028 0 00-3.028 3.029v6.325a3.028 3.028 0 003.028 3.029h3.378a3.028 3.028 0 003.028-3.029zM87.653 50.813a6.743 6.743 0 004.603 6.988c.712.215 1.612.251 2.06-.343a1.336 1.336 0 00-.073-1.576 2.415 2.415 0 00-1.441-.833 4.499 4.499 0 00-4.585 1.967 5.278 5.278 0 00-.215 5.076 6.338 6.338 0 004.022 3.218 3.451 3.451 0 002.139 0 1.74 1.74 0 001.17-1.655c-.067-.834-.888-1.416-1.697-1.637a4.29 4.29 0 00-3.133 7.969" stroke="#385EF9" stroke-width="3" stroke-linecap="round" stroke-linejoin="round"/><path d="M80.365 80.739l-6.289-10.9a6.395 6.395 0 012.336-8.734 6.392 6.392 0 018.734 2.341L96.56 83.215" fill="#385EF9"/><path d="M80.365 80.739l-6.289-10.9a6.395 6.395 0 012.336-8.734 6.392 6.392 0 018.734 2.341L96.56 83.215" stroke="#0B175E" stroke-width="3" stroke-linecap="round" stroke-linejoin="round"/><path d="M75.823 89.528a9.668 9.668 0 014.542-8.79" fill="#385EF9"/><path d="M75.823 89.528a9.668 9.668 0 014.542-8.79" stroke="#0B175E" stroke-width="3" stroke-linecap="round" stroke-linejoin="round"/><path d="M12.864 142.349h127.941" stroke="#CFD8DC" stroke-width="3" stroke-linecap="round" stroke-linejoin="round"/></svg>