<svg xmlns="http://www.w3.org/2000/svg" width="76" height="140" viewBox="0 0 76 140"><g fill="none" fill-rule="evenodd"><path fill="#CFD8DC" d="M2.654 124.097c-.75 0-1.359.603-1.359 1.344 0 .742.61 1.344 1.36 1.344h56.458c.753 0 1.36-.602 1.36-1.344 0-.741-.607-1.344-1.36-1.344H2.654zm64.773 0c-.75 0-1.359.603-1.359 1.344 0 .742.609 1.344 1.36 1.344h6.367c.752 0 1.36-.602 1.36-1.344 0-.741-.608-1.344-1.36-1.344h-6.368z"/><path fill="#4ACDE8" d="M15.177 132.83c-.75 0-1.359.603-1.359 1.344 0 .742.609 1.344 1.36 1.344h6.367c.752 0 1.36-.602 1.36-1.344 0-.74-.608-1.343-1.36-1.343h-6.368zm-4.318 3.734c-.75 0-1.359.603-1.359 1.344 0 .742.609 1.344 1.359 1.344h3.777c.752 0 1.36-.602 1.36-1.344 0-.741-.608-1.344-1.36-1.344h-3.777zm37.136-3.734c-.75 0-1.359.603-1.359 1.344 0 .742.61 1.344 1.36 1.344h2.049c.752 0 1.36-.602 1.36-1.344 0-.74-.608-1.343-1.36-1.343h-2.05z"/><path fill="#070308" d="M36.708 73.006c-7.48 0-14.407-2.147-20.364-6.012-.553 1.002-1.108 2.004-1.662 3.15 4.017 4.866 9.975 7.872 16.624 7.872h11.082c6.65 0 12.607-3.006 16.624-7.873-.554-1.145-1.109-2.147-1.662-3.15-6.235 3.866-13.16 6.013-20.642 6.013z" opacity=".05"/><path fill="#4ACDE8" d="M53.177 136.564c-.75 0-1.359.603-1.359 1.344 0 .742.609 1.344 1.36 1.344h4.64c.752 0 1.36-.602 1.36-1.344 0-.741-.608-1.344-1.36-1.344h-4.64zm-31.954 0c-.75 0-1.36.603-1.36 1.344 0 .742.61 1.344 1.36 1.344h1.185c.753 0 1.36-.602 1.36-1.344 0-.741-.607-1.344-1.36-1.344h-1.185z"/><path fill="#90A4AE" d="M18.136 5.51c.057.442 1.47 10.934 8.861 21.436 6.67 9.473 19.613 20.6 43.604 20.6.608 0 1.225-.008 1.847-.02l-.063-2.688c-19.196.467-33.699-6.058-43.096-19.34-7.049-9.96-8.445-20.225-8.458-20.327l-2.695.338z"/><path fill="#607D8B" d="M18.136 113.806v9.642c0 .741.608 1.344 1.358 1.344.751 0 1.359-.603 1.359-1.344v-9.642c0-.74-.608-1.343-1.359-1.343a1.35 1.35 0 00-1.358 1.343zm32.387 0v9.642c0 .741.607 1.344 1.357 1.344a1.35 1.35 0 001.358-1.344v-9.642a1.35 1.35 0 00-1.358-1.343 1.35 1.35 0 00-1.357 1.343z"/><path fill="#607D8B" d="M14.295 66.528c-5.042 7.49-7.818 17.277-7.818 27.557.002 12.927 10.633 23.443 23.7 23.443h10.587c13.065 0 23.697-10.516 23.697-23.447 0-10.275-2.777-20.062-7.817-27.553a1.366 1.366 0 00-1.882-.375 1.333 1.333 0 00-.376 1.863c4.745 7.056 7.36 16.313 7.36 26.07-.002 11.443-9.412 20.756-20.982 20.756H30.176c-11.57 0-20.98-9.313-20.982-20.76 0-9.753 2.614-19.01 7.362-26.066a1.335 1.335 0 00-.378-1.863 1.365 1.365 0 00-1.883.375z"/><path fill="#607D8B" d="M15.364 66.35c-.52.548-12.773 13.742-12.773 41.754a1.35 1.35 0 001.358 1.343 1.35 1.35 0 001.357-1.343c0-26.868 11.917-39.786 12.036-39.914a1.336 1.336 0 00-.058-1.897 1.363 1.363 0 00-.93-.366c-.362 0-.723.142-.99.422zm39.474 1.233a1.335 1.335 0 00-.062 1.899c.12.128 12.036 13.045 12.036 39.914 0 .74.607 1.343 1.356 1.343.751 0 1.359-.603 1.359-1.343 0-28.013-12.251-41.207-12.773-41.755a1.358 1.358 0 00-.987-.422c-.333 0-.667.12-.93.364z"/><path fill="#607D8B" d="M0 36.86c0 20.322 16.711 36.858 37.255 36.858 20.54 0 37.253-16.536 37.253-36.858C74.508 16.535 57.795 0 37.255 0 16.71 0 0 16.535 0 36.86zm2.715 0c0-18.844 15.494-34.173 34.54-34.173 19.043 0 34.536 15.33 34.536 34.173 0 18.84-15.493 34.172-34.536 34.172-19.046 0-34.54-15.333-34.54-34.172z"/><path fill="#4ACDE8" d="M53.657 58.04v3.683a1.35 1.35 0 11-2.702 0V58.04a1.352 1.352 0 112.702 0zm-30.227 0v13.13a1.35 1.35 0 11-2.702 0V58.04a1.352 1.352 0 112.702 0zm30.227 29.202v1.107c0 .746-.605 1.348-1.35 1.348a1.35 1.35 0 01-1.352-1.348v-1.107a1.352 1.352 0 112.702 0zm-30.227 0v6.26a1.35 1.35 0 11-2.702 0v-6.26a1.352 1.352 0 112.702 0z"/><path fill="#607D8B" d="M33.598 58.962a1.34 1.34 0 00-.65 1.789c.318.67 1.128.955 1.806.642a5.697 5.697 0 014.83 0c.188.088.385.128.578.128.51 0 .999-.284 1.23-.77a1.339 1.339 0 00-.65-1.79 8.47 8.47 0 00-7.144 0zm-12.635-3.377a1.35 1.35 0 00-1.358 1.343 1.35 1.35 0 001.358 1.345h5.431c.75 0 1.358-.603 1.358-1.345a1.35 1.35 0 00-1.358-1.343h-5.43zm27.034 0a1.35 1.35 0 00-1.36 1.343c0 .742.607 1.345 1.36 1.345h5.43a1.35 1.35 0 001.356-1.345c0-.742-.606-1.343-1.356-1.343h-5.43z"/></g></svg>