<svg width="30" height="30" fill="none" xmlns="http://www.w3.org/2000/svg"><path d="M26.4 6.8l-2.2-5.6c-.1-.3-.3-.5-.6-.6-.3-.1-.5-.1-.8 0l-6.5 3.1c0-.1 0-.2-.1-.3l-1.8-3c-.1-.1-.4-.3-.6-.4-.3 0-.6 0-.8.2L3.5 6.6l-.3.3C1.3 7.6 0 9.4 0 11.6v13c0 2.8 2.2 5 5 5h20c2.8 0 5-2.2 5-5v-13c0-2.3-1.5-4.2-3.6-4.8zm-2.3-.2h-9L22.7 3l1.4 3.6zM13.2 2.4l1.2 2.1.1.1-4 1.9H7.2l6-4.1zM25 27.6H5c-1.7 0-3-1.4-3-3v-13c0-1.7 1.4-3 3-3h20c1.7 0 3 1.4 3 3v4h-6c-2.2 0-4 1.8-4 4s1.8 4 4 4h6v1c0 1.6-1.4 3-3 3zm3-6h-6c-1.1 0-2-.9-2-2s.9-2 2-2h6v4z" fill="#253238"/></svg>