<svg width="313" height="76" fill="none" xmlns="http://www.w3.org/2000/svg"><path opacity=".56" d="M292.19 12.383a2.104 2.104 0 0 1-1.539-.658l-7.921-8.519c-.728-.781-.621-1.96.23-2.617.85-.67 2.132-.57 2.847.211l7.921 8.52c.729.78.621 1.959-.229 2.616a2.102 2.102 0 0 1-1.309.447Z" fill="#13C1AC"/><path d="M80.395 58.121a2.103 2.103 0 0 1-1.033 1.316l-10.28 5.446c-.943.502-2.053.093-2.468-.898-.426-.995.001-2.207.941-2.696l10.28-5.446c.943-.502 2.053-.093 2.467.898a2.1 2.1 0 0 1 .093 1.38Z" fill="#FAD7D7"/><path opacity=".3" d="M57.261 16.62c-.92.42-2.059.163-2.751-.696-.834-1.032-.716-2.524.258-3.352 2.908-2.464 4.982-5.763 5.995-9.539a2.228 2.228 0 0 1 2.843-1.576c1.235.386 1.954 1.72 1.619 2.983-1.253 4.692-3.836 8.79-7.455 11.856a2.051 2.051 0 0 1-.509.325Z" fill="#56CCF2"/><path opacity=".3" d="M191.515 63.809c-.58-.735-.657-1.745-.125-2.451.64-.85 1.901-.944 2.832-.216 2.772 2.173 6.02 3.522 9.392 3.898 1.127.124 2.028 1.124 2.024 2.233-.005 1.11-.923 1.901-2.05 1.778-4.189-.463-8.226-2.144-11.675-4.848a2.208 2.208 0 0 1-.398-.395Z" fill="#F2C94C"/><path d="M2.665 21.744c.253-.04.512-.04.763-.012 4.338.55 8.12 2.584 10.97 5.886a2.695 2.695 0 0 1-.28 3.803 2.695 2.695 0 0 1-3.803-.28c-1.964-2.284-4.579-3.683-7.564-4.067a2.7 2.7 0 0 1-2.34-3.016 2.708 2.708 0 0 1 2.254-2.314Z" fill="#13C1AC" fill-opacity=".4"/><path d="M298.781 44.794c-1.362.387-2.855-.435-3.363-1.874-.517-1.465.197-3.031 1.581-3.483 3.374-1.09 6.044-3.36 7.727-6.564.697-1.312 2.31-1.74 3.629-.943 1.319.798 1.814 2.504 1.121 3.83-2.307 4.393-5.971 7.515-10.606 9.008l-.089.026Z" fill="#B355ED" fill-opacity=".4" opacity=".8"/><g opacity=".29"><path opacity=".59" d="M229.227 64.525a1.59 1.59 0 0 1 .478-2.118c1.811-1.24 3.473-.765 4.698-.424 1.093.306 1.495.377 2.016.018.528-.363.603-.758.714-1.886.117-1.26.286-2.985 2.09-4.22 1.804-1.236 3.473-.766 4.691-.422 1.093.307 1.495.378 2.017.019a1.599 1.599 0 0 1 2.22.417c.512.719.311 1.723-.416 2.22-1.805 1.236-3.474.766-4.692.421-1.093-.306-1.495-.377-2.016-.018-.528.363-.603.758-.714 1.886-.116 1.26-.286 2.985-2.09 4.22-1.804 1.236-3.473.766-4.691.421-1.093-.306-1.495-.377-2.023-.014a1.6 1.6 0 0 1-2.221-.417 5.585 5.585 0 0 0-.061-.103Z" fill="#13C1AC"/></g><g opacity=".29"><path opacity=".59" d="M121.227 66.525a1.59 1.59 0 0 1 .478-2.118c1.811-1.24 3.473-.765 4.698-.424 1.093.306 1.495.377 2.016.018.528-.363.603-.758.714-1.886.117-1.26.286-2.985 2.09-4.22 1.804-1.236 3.473-.766 4.691-.422 1.093.307 1.495.378 2.017.019a1.599 1.599 0 0 1 2.22.417c.512.719.311 1.723-.416 2.22-1.805 1.236-3.474.766-4.692.421-1.093-.306-1.495-.377-2.016-.018-.528.363-.603.758-.714 1.886-.116 1.26-.286 2.985-2.09 4.22-1.804 1.236-3.473.766-4.691.421-1.093-.306-1.495-.377-2.023-.014a1.6 1.6 0 0 1-2.221-.417 5.585 5.585 0 0 0-.061-.103Z" fill="#13C1AC"/></g><g opacity=".99"><path opacity=".59" d="M49.635 67.277c-.667.565-1.69.504-2.338-.166-1.701-1.74-1.562-3.6-1.47-4.969.086-1.222.074-1.665-.418-2.165-.498-.507-.93-.523-2.145-.458-1.354.08-3.212.181-4.907-1.552-1.696-1.733-1.563-3.6-1.464-4.962.086-1.222.073-1.665-.419-2.165-.683-.699-.702-1.798-.043-2.45.648-.666 1.751-.614 2.434.085 1.695 1.733 1.563 3.6 1.463 4.962-.085 1.222-.073 1.665.42 2.165.497.507.93.523 2.144.458 1.355-.081 3.212-.181 4.907 1.552 1.696 1.733 1.563 3.6 1.464 4.962-.085 1.222-.073 1.665.425 2.172.683.698.702 1.797.043 2.45a37.55 37.55 0 0 1-.096.08Z" fill="#E7C9F9"/></g><path opacity=".29" d="M196.257 9.848a1.74 1.74 0 0 1 1.443-1.89c2.37-.405 3.807.827 4.87 1.727.949.805 1.316 1.06 1.999.94.692-.12.947-.478 1.573-1.55.692-1.2 1.65-2.84 4.011-3.245 2.36-.405 3.807.827 4.861 1.727.948.805 1.316 1.06 1.999.94a1.753 1.753 0 0 1 2.02 1.43c.18.95-.48 1.858-1.431 2.02-2.361.405-3.807-.826-4.862-1.726-.948-.805-1.315-1.06-1.998-.94-.692.119-.947.478-1.573 1.55-.693 1.2-1.65 2.84-4.011 3.245-2.361.404-3.807-.827-4.861-1.727-.949-.805-1.316-1.06-2.008-.94a1.753 1.753 0 0 1-2.02-1.43l-.012-.131Z" fill="#EB5757"/><path fill-rule="evenodd" clip-rule="evenodd" d="m100.533 67.34-1.16-.399a3.732 3.732 0 0 1-2.314-2.313l-.4-1.16a.698.698 0 0 0-.655-.468.698.698 0 0 0-.656.467l-.4 1.16a3.725 3.725 0 0 1-2.32 2.314l-1.16.4a.698.698 0 0 0-.468.655c0 .294.188.558.467.656l1.16.4a3.755 3.755 0 0 1 2.322 2.32l.4 1.16a.698.698 0 0 0 .655.468.698.698 0 0 0 .655-.467l.4-1.16a3.761 3.761 0 0 1 2.313-2.322l1.161-.4a.699.699 0 0 0 .467-.655.679.679 0 0 0-.467-.655Z" fill="#CCF0FB" opacity=".8"/><path opacity=".78" fill-rule="evenodd" clip-rule="evenodd" d="m288.617 29.006-.864-.297a2.825 2.825 0 0 1-1.741-1.74l-.296-.864a.511.511 0 0 0-.5-.351.535.535 0 0 0-.499.35l-.297.864a2.821 2.821 0 0 1-1.741 1.741l-.863.297a.506.506 0 0 0-.351.486c0 .216.135.418.351.499l.863.297a2.79 2.79 0 0 1 1.741 1.74l.297.864a.51.51 0 0 0 .499.351.537.537 0 0 0 .5-.35l.296-.864a2.792 2.792 0 0 1 1.741-1.741l.864-.297a.51.51 0 0 0 .351-.5.506.506 0 0 0-.351-.485Z" fill="#F2C94C"/><path opacity=".69" fill-rule="evenodd" clip-rule="evenodd" d="m305.77 60.655-2.039-.705a6.583 6.583 0 0 1-4.078-4.08l-.705-2.041a1.221 1.221 0 0 0-1.149-.829c-.519 0-.989.334-1.149.829l-.705 2.04a6.584 6.584 0 0 1-4.078 4.081l-2.039.705a1.211 1.211 0 0 0 0 2.3l2.039.705a6.583 6.583 0 0 1 4.078 4.081l.705 2.04c.173.495.63.817 1.149.817s.989-.334 1.149-.816l.705-2.04a6.584 6.584 0 0 1 4.078-4.082l2.039-.705c.494-.173.828-.63.828-1.15 0-.52-.334-.977-.828-1.15Z" fill="#13C1AC"/><g opacity=".67"><path opacity=".82" fill-rule="evenodd" clip-rule="evenodd" d="m11.34 57.792-1.013-.351a3.245 3.245 0 0 1-2.024-2.024l-.35-1.012a.6.6 0 0 0-.58-.405.626.626 0 0 0-.581.405l-.351 1.012a3.245 3.245 0 0 1-2.024 2.024l-1.012.35a.6.6 0 0 0-.405.581c0 .27.162.486.405.58l1.012.351c.958.324 1.7 1.08 2.024 2.024l.35 1.012a.6.6 0 0 0 .581.405.626.626 0 0 0 .58-.405l.351-1.012a3.245 3.245 0 0 1 2.024-2.024l1.012-.35a.6.6 0 0 0 .405-.58.6.6 0 0 0-.405-.581Z" fill="#F2C94C"/></g><path opacity=".54" d="M26.036 75.072a3.036 3.036 0 1 0 0-6.072 3.036 3.036 0 0 0 0 6.072ZM163 68a2 2 0 1 1 0 4 2 2 0 0 1 0-4Z" fill="#13C1AC"/><path opacity=".67" fill-rule="evenodd" clip-rule="evenodd" d="m99.34 6.792-1.013-.351a3.244 3.244 0 0 1-2.024-2.024l-.35-1.012a.6.6 0 0 0-.58-.405.626.626 0 0 0-.581.405l-.351 1.012a3.244 3.244 0 0 1-2.024 2.024l-1.012.35a.6.6 0 0 0-.405.581c0 .27.162.486.405.58l1.012.351c.958.324 1.7 1.08 2.024 2.024l.35 1.012a.6.6 0 0 0 .581.405.626.626 0 0 0 .58-.405l.351-1.012a3.245 3.245 0 0 1 2.024-2.024l1.013-.35a.6.6 0 0 0 .404-.581.6.6 0 0 0-.404-.58Z" fill="#13C1AC"/><g opacity=".41"><path opacity=".41" d="M158.027 15.979a2.027 2.027 0 0 1-1.849-1.201 2.016 2.016 0 0 1 1.026-2.672l6.517-2.928a2.016 2.016 0 0 1 2.672 1.025 2.016 2.016 0 0 1-1.025 2.672l-6.518 2.928a2.01 2.01 0 0 1-.823.176Z" fill="#56CCF2"/><path opacity=".41" d="M23.553 3.789a1.649 1.649 0 0 1 1.094-1.421 1.64 1.64 0 0 1 2.1 1.004l1.952 5.475a1.64 1.64 0 0 1-1.005 2.1 1.64 1.64 0 0 1-2.1-1.004l-1.952-5.475a1.634 1.634 0 0 1-.089-.68Z" fill="#FFC900"/></g><path d="M229.91 41.238a1.012 1.012 0 1 0 0-2.023 1.012 1.012 0 0 0 0 2.023Z" fill="#fff"/><path d="M73.687 23.518a1.687 1.687 0 1 0 0-3.374 1.687 1.687 0 0 0 0 3.374Z" fill="#CE9CE5"/><path opacity=".36" d="M179.687 54.373a1.687 1.687 0 1 0 0-3.374 1.687 1.687 0 0 0 0 3.374Z" fill="#6013C1"/><path opacity=".42" d="M267 69a3 3 0 1 0 0-6 3 3 0 0 0 0 6ZM131.036 11.072a3.036 3.036 0 1 0 0-6.072 3.036 3.036 0 0 0 0 6.072ZM252.087 6.63a3.036 3.036 0 1 0 0-6.07 3.036 3.036 0 0 0 0 6.07Z" fill="#8913C1"/></svg>