<svg width="48" height="48" viewBox="0 0 48 48" fill="none" xmlns="http://www.w3.org/2000/svg"><g fill-rule="evenodd" clip-rule="evenodd" fill="#253238"><path d="M33.06 33.965h-19c-.827 0-1.5-.673-1.5-1.5s.673-1.5 1.5-1.5h19c.827 0 1.5.673 1.5 1.5s-.673 1.5-1.5 1.5zm-7.5 3c0 .55-.45 1-1 1h-2c-.551 0-1-.45-1-1v-1h4v1zm-2-10c1.103 0 2 0 2 2h-4c0-2 .897-2 2-2zm-2-16c0-.551.449-1 1-1h2c.55 0 1 .449 1 1v14.38c-.591-.256-1.268-.38-2-.38s-1.41.124-2 .38v-14.38zm11.5 18h-5.5v-18a3 3 0 00-3-3h-2a3 3 0 00-3 3v18h-5.5c-1.93 0-3.5 1.57-3.5 3.5s1.57 3.5 3.5 3.5h5.5v1a3 3 0 003 3h2a3 3 0 003-3v-1h5.5c1.93 0 3.5-1.57 3.5-3.5s-1.57-3.5-3.5-3.5zM30.56 13.965h4a1 1 0 000-2h-4a1 1 0 000 2z"/><path d="M30.56 17.965h4a1 1 0 000-2h-4a1 1 0 000 2zM30.56 21.965h4a1 1 0 000-2h-4a1 1 0 000 2zM30.56 25.965h4a1 1 0 000-2h-4a1 1 0 000 2z"/></g></svg>