<svg width="39" height="48" fill="none" xmlns="http://www.w3.org/2000/svg"><path fill-rule="evenodd" clip-rule="evenodd" d="M33.75 39H5.25C4.01 39 3 37.99 3 36.75s1.01-2.25 2.25-2.25h28.5c1.24 0 2.25 1.01 2.25 2.25S34.99 39 33.75 39zM22.5 43.5c0 .827-.673 1.5-1.5 1.5h-3c-.826 0-1.5-.673-1.5-1.5V42h6v1.5zm-3-15c1.655 0 3 0 3 3h-6c0-3 1.346-3 3-3zm-3-24c0-.827.674-1.5 1.5-1.5h3c.827 0 1.5.673 1.5 1.5v21.572c-.886-.386-1.902-.572-3-.572s-2.113.186-3 .572V4.5zm17.25 27H25.5v-27A4.5 4.5 0 0021 0h-3a4.5 4.5 0 00-4.5 4.5v27H5.25A5.256 5.256 0 000 36.75 5.256 5.256 0 005.25 42h8.25v1.5A4.5 4.5 0 0018 48h3a4.5 4.5 0 004.5-4.5V42h8.25A5.256 5.256 0 0039 36.75a5.256 5.256 0 00-5.25-5.25zM29.667 9.962h6.666c.92 0 1.667-.896 1.667-2s-.746-2-1.666-2h-6.667c-.92 0-1.667.896-1.667 2s.747 2 1.667 2z" fill="#253238"/><path fill-rule="evenodd" clip-rule="evenodd" d="M29.667 15.962h6.666c.92 0 1.667-.896 1.667-2s-.746-2-1.666-2h-6.667c-.92 0-1.667.896-1.667 2s.747 2 1.667 2zM29.667 21.962h6.666c.92 0 1.667-.896 1.667-2s-.746-2-1.666-2h-6.667c-.92 0-1.667.896-1.667 2s.747 2 1.667 2zM29.667 25.962h6.666c.92 0 1.667-.448 1.667-1s-.746-1-1.666-1h-6.667c-.92 0-1.667.448-1.667 1s.747 1 1.667 1z" fill="#253238"/></svg>