<svg width="48" height="21" fill="none" viewBox="0 0 48 21" xmlns="http://www.w3.org/2000/svg"><path fill-rule="evenodd" clip-rule="evenodd" d="M44.947 10.275h-.098l-1.542-.003c-.825.02-1.502.7-1.48 1.524.022.813.661 1.468 1.47 1.468h.039l1.494-.074.002-.001.04 1.58a1.369 1.369 0 01-1.334 1.405l-1.803.045c-.68-2.554-2.99-4.45-5.755-4.45-2.857 0-5.247 2.018-5.833 4.702-.06-.003-.118-.033-.179-.026l-11.018.22c-.251-.247-.56-.413-.895-.413h-.04l-1.682.37c-.73-2.557-3.077-4.104-5.901-4.007-1.596.042-3.082.777-4.182 1.935-.683.719-1.138 1.642-1.397 2.617l-.345.009c-.342 0-.744-.13-1.022-.395a1.42 1.42 0 01-.446-1l-.05-1.957a3.337 3.337 0 011.416-2.819l1.356-.953a3.332 3.332 0 011.424-.572l9.965-1.508a6.275 6.275 0 002.03-.671l6.075.064c.824-.02 1.477-.436 1.454-1.261-.02-.825-.753-1.55-1.532-1.492l-.978.017 2.09-1.114c.456-.243.97-.378 1.486-.391l5.185-.135a3.325 3.325 0 011.504.316l8.461 3.917c1.154.54 2.02 1.666 2.02 2.94v.113zm-5.986 7.661c-.267.015-.72-.03-1.153-.074a18.514 18.514 0 00-1.828-.115c-.647 0-1.264.06-1.828.115-.431.043-.88.088-1.153.075a2.992 2.992 0 012.981-3.179 2.992 2.992 0 012.981 3.178zm8.78-7.85a6.293 6.293 0 00-3.643-5.57L35.732.595a6.359 6.359 0 00-2.847-.594L27.7.137a6.353 6.353 0 00-2.814.74l-7.11 3.786c-.077.04-.16.067-.238.102a1.595 1.595 0 00-.609.199c-.074.016-.148.041-.224.053L6.74 6.524c-.965.145-1.899.52-2.7 1.083l-1.355.955a6.323 6.323 0 00-2.683 5.34l.051 1.954c.03 1.18.519 2.565 1.373 3.38.83.785 1.906 1.5 3.043 1.5h.117l.47-.3c.27.344.64.3 1.046.3h.04c.826 0 1.477-1.018 1.455-1.843-.02-.798.27-1.868.822-2.446a2.978 2.978 0 012.09-.939c1.625-.009 3.022 1.246 3.064 2.893.02.825.756 1.432 1.532 1.42l2.987-.15c.362-.008.677-.19.93-.44l11.022-.048c.069-.002.127-.023.193-.029.423 1.14 1.414 1.773 2.866 1.773.4 0 .854-.042 1.345-.091a16.91 16.91 0 013.064 0c.492.049.944.09 1.345.09.59 0 1.458-.07 2.167-.703.308-.276.536-.613.692-1.013l1.898-.05a4.335 4.335 0 003.048-1.354 4.33 4.33 0 001.197-3.114l-.118-4.606z" fill="#253238"/><path fill-rule="evenodd" clip-rule="evenodd" d="M9.296 18.284c-.285.182-.435.444-.435.707 0 .272.15.524.435.716.285.192.675.293 1.065.293.39 0 .78-.1 1.05-.293.285-.192.45-.444.45-.716 0-.263-.165-.525-.45-.707-.54-.374-1.56-.384-2.115 0z" fill="#253238"/></svg>