<svg width="48" height="48" viewBox="0 0 48 48" fill="none" xmlns="http://www.w3.org/2000/svg"><g fill-rule="evenodd" clip-rule="evenodd" fill="#253238"><path d="M37.076 22.875h-.065l-1.032-.002c-.552.014-1.005.468-.99 1.02a.992.992 0 00.983.982h.026l1-.05H37l.027 1.057a.916.916 0 01-.893.94l-1.206.03c-.455-1.708-2-2.977-3.85-2.977a4.002 4.002 0 00-3.904 3.146c-.04-.002-.079-.022-.12-.017l-7.373.147c-.168-.165-.374-.276-.599-.276h-.026l-1.126.247c-.489-1.711-2.059-2.746-3.949-2.681-1.068.028-2.062.52-2.798 1.295-.457.48-.762 1.099-.935 1.75l-.23.007c-.23 0-.499-.087-.685-.264a.95.95 0 01-.298-.67L9 25.249a2.233 2.233 0 01.948-1.885l.907-.638c.283-.2.612-.332.953-.383l6.668-1.01a4.2 4.2 0 001.36-.448l4.064.043c.551-.014.988-.292.973-.844-.014-.552-.504-1.037-1.025-.998l-.655.01 1.4-.744c.304-.163.648-.253.993-.262l3.47-.09c.345-.01.694.064 1.006.21l5.662 2.622c.772.36 1.352 1.115 1.352 1.968v.075zm-4.005 5.127c-.179.01-.482-.021-.772-.05a12.39 12.39 0 00-1.223-.077c-.433 0-.846.04-1.223.077-.289.029-.589.059-.772.05a2.002 2.002 0 011.995-2.127 2.002 2.002 0 011.995 2.127zm5.875-5.253a4.211 4.211 0 00-2.438-3.728l-5.598-2.622A4.255 4.255 0 0029.005 16l-3.47.09a4.251 4.251 0 00-1.883.495l-4.758 2.534c-.05.027-.106.045-.159.068a1.068 1.068 0 00-.407.133c-.05.01-.099.028-.15.036l-6.668 1.008a4.257 4.257 0 00-1.807.725l-.907.639a4.231 4.231 0 00-1.795 3.573l.034 1.308c.02.79.347 1.716.92 2.26.554.527 1.274 1.005 2.035 1.005h.078l.315-.2c.181.23.428.2.7.2h.027c.552 0 .988-.681.973-1.233-.013-.534.181-1.25.55-1.637a1.993 1.993 0 011.4-.628c1.086-.006 2.021.834 2.05 1.936.013.552.505.958 1.024.95l2-.1c.241-.006.452-.127.621-.295l7.376-.032c.046-.001.085-.015.13-.02.282.763.945 1.187 1.917 1.187.268 0 .571-.028.9-.061a11.32 11.32 0 012.05 0c.33.033.632.06.9.06.395 0 .976-.047 1.45-.47.206-.185.36-.41.463-.678l1.27-.033a2.901 2.901 0 002.04-.906 2.898 2.898 0 00.801-2.084l-.079-3.082z"/><path d="M13.376 27.685c-.19.18-.29.44-.29.7a.99.99 0 001 1c.26 0 .52-.1.7-.29a.976.976 0 000-1.41c-.36-.37-1.04-.38-1.41 0z"/></g></svg>