<svg width="48" height="48" viewBox="0 0 48 48" fill="none" xmlns="http://www.w3.org/2000/svg"><g fill-rule="evenodd" clip-rule="evenodd" fill="#253238"><path d="M17 28a1 1 0 001-1v-2h5v2a1 1 0 002 0v-2h4c1.654 0 3-1.346 3-3v-1a1 1 0 00-2 0v1c0 .551-.449 1-1 1h-4v-2a1 1 0 00-2 0v2h-5v-2a1 1 0 00-2 0v6a1 1 0 001 1z"/><path d="M24 10c7.72 0 14 6.28 14 14s-6.28 14-14 14-14-6.28-14-14 6.28-14 14-14zm0 30c8.837 0 16-7.163 16-16S32.837 8 24 8 8 15.163 8 24s7.163 16 16 16z"/><path d="M24 18a1 1 0 001-1v-1a1 1 0 00-2 0v1a1 1 0 001 1zM24 30a1 1 0 00-1 1v1a1 1 0 002 0v-1a1 1 0 00-1-1zM17 18a1 1 0 001-1v-1a1 1 0 00-2 0v1a1 1 0 001 1zM31 18a1 1 0 001-1v-1a1 1 0 00-2 0v1a1 1 0 001 1zM17 30a1 1 0 00-1 1v1a1 1 0 002 0v-1a1 1 0 00-1-1z"/></g></svg>