<svg width="48" height="49" fill="none" xmlns="http://www.w3.org/2000/svg"><path fill-rule="evenodd" clip-rule="evenodd" d="M44.937 39.928l-.04.06-.035.216c-.006.189-.045.202-.056.246a.698.698 0 01-.064.18c-.06.18-.103.228-.253.482l-1.962 3.007c-.114.169-.154.178-.177.202-.009.025-.113.088-.161.137-.133.092-.27.174-.422.222-.148.055-.305.079-.46.085l-.925.002c-5.23-.02-10.809.01-16.387-.01-5.578.023-11.157.117-16.386.117h-.874c-.457 0-.281-.078-.513-.137-.303-.096-.57-.331-.767-.593-.669-1.024-1.322-2.038-1.96-3.014-.02-.02-.332-.574-.27-.54-.03-.05-.081-.281-.09-.419-.018-.103-.021-.432-.021-.72L3.11 38.6c-.005-1.127-.03-2.218-.034-3.264l-.023-.39v-.541h.021l.02.062c.008-.332.058-.238.065-.336.077-.266.214-.453.376-.65.146-.201.396-.325.553-.408.085-.033.245-.103.27-.097.03 0 .06 0 .086-.013.097-.008.216-.04.322-.029.218-.012.43.036.619.115.099.032.186.087.272.14.084.041.292.195.427.285l1.667 1.143c.217.15.42.292.615.425l.073.07.211.216c.042.044.089.09.13.134a7.649 7.649 0 00-1.216.75 1.497 1.497 0 00.914 2.68c.319 0 .64-.102.913-.311 1.674-1.291 6.957-2.68 14.603-2.68 7.644 0 12.929 1.388 14.602 2.678a1.496 1.496 0 101.826-2.37 7.61 7.61 0 00-1.18-.732l.12-.132c.368-.418.213-.248.884-.716.504-.344 1.06-.727 1.667-1.143l.23-.157.1-.07.051-.03.25-.147c.073-.039.069-.016.103-.034.112-.046.377-.115.576-.097.214.001.438.041.646.148l.04.016.014.006.08.05c.077.052.246.14.246.163.033.043.099.088.193.203.16.196.295.43.371.697.067.268.072.483.067 1.102l-.012 3.263.033.852.035.433v.045zM9.829 23.012l2.209-7.366a5.13 5.13 0 014.945-3.68h14.025a5.131 5.131 0 014.945 3.68l1.197 3.992c-2.467 4.006-6.304 7.363-11.518 10.025-5.983 3.055-12.043 4.247-14.317 4.612a6.484 6.484 0 00-.6-1.041l-.17-.214c-.007-.009-.02-.021-.028-.03.001-.028.016-.054.016-.082v-1.496c0-.159-.025-.317-.075-.468l-.97-2.94a11.366 11.366 0 01.34-4.992zm6.687-16.199c0-2.215 1.46-3.821 3.47-3.821h8.018c2.01 0 3.47 1.606 3.47 3.821v.69c0 .345-.079 1.472-1.098 1.472H17.614c-1.018 0-1.098-1.127-1.098-1.472v-.69zm21.987 21.192l-.97 2.939c-.05.15-.075.31-.075.468v1.496c0 .028.015.05.015.078a4.54 4.54 0 00-.464.596 8.378 8.378 0 00-.476.85c-2.86-.851-6.69-1.391-10.92-1.5 4.521-2.127 9.187-5.22 12.612-9.657.42 1.533.524 3.157.278 4.73zm9.493 10.593l-.012-3.262c.003-.427.01-1.245-.196-1.947a5.022 5.022 0 00-1.011-1.862 4.587 4.587 0 00-.834-.761c-.173-.132-.218-.14-.332-.216l-.146-.088-.118-.067-.029-.012-.058-.027-.115-.05a4.477 4.477 0 00-1.899-.417 4.42 4.42 0 00-1.827.365 5.862 5.862 0 00-.434.207l-.178.106.574-1.737c.024-.073.042-.148.056-.223a14.391 14.391 0 00-.409-6.456l-.649-2.163c1.892-3.46 3.062-7.586 3.062-12.509a1.496 1.496 0 00-2.992 0c0 2.932-.463 5.657-1.37 8.175l-.26-.868a8.088 8.088 0 00-4.791-5.216 5.04 5.04 0 00.438-2.067v-.69C34.466 2.93 31.688 0 28.004 0h-8.017c-3.684 0-6.462 2.929-6.462 6.813v.69c0 .764.166 1.457.438 2.067a8.088 8.088 0 00-4.791 5.216l-2.21 7.367a14.384 14.384 0 00-.408 6.454c.014.075.032.15.056.223l.585 1.77a4.011 4.011 0 00-.666-.349 4.457 4.457 0 00-1.785-.348c-.318-.01-.628.043-.963.101a8.435 8.435 0 00-.55.159c-.192.064-.23.094-.353.143-.656.303-1.196.687-1.655 1.229a5.03 5.03 0 00-1.008 1.857c-.103.39-.178.881-.176 1.062l-.014.193-.004.298-.002.39-.013 3.263-.003.852c0 .286-.015.539.025 1.015.048.438.103.797.298 1.292.24.6.248.56.534 1.055l.978 1.536.5.782.251.395c.073.118.167.268.323.476a4.74 4.74 0 002.24 1.68c.369.164 1.19.231 1.378.224l.346-.04h.244l.489.053c5.23.021 10.809.069 16.387.091 5.577-.02 11.157-.028 16.386-.047l1.028-.005c.49-.018.976-.105 1.431-.274.458-.158.88-.396 1.261-.677.189-.162.356-.273.55-.49.197-.204.377-.421.437-.517l.193-.27.127-.2.75-1.177.98-1.534c.157-.26.436-.721.553-1.107.15-.317.272-1.04.283-1.282l.022-.326.003-.22-.004-1.285z" fill="#253238"/><path fill-rule="evenodd" clip-rule="evenodd" d="M20.299 19.088c1.059-.66 2.278-1.138 3.53-1.138h.332c1.253 0 2.476.478 3.535 1.14.245.153.519.291.79.291.499 0 .987-.217 1.27-.67.438-.702.225-1.737-.476-2.175-1.534-.959-3.305-1.578-5.119-1.578h-.332c-1.811 0-3.58.634-5.114 1.591a1.497 1.497 0 001.584 2.539z" fill="#253238"/></svg>