<svg width="48" height="48" viewBox="0 0 48 48" fill="none" xmlns="http://www.w3.org/2000/svg"><g fill-rule="evenodd" clip-rule="evenodd" fill="#253238"><path d="M37.042 34.693l-.027.04-.023.145c-.004.126-.03.135-.037.164a.466.466 0 01-.043.12c-.04.12-.07.153-.17.323l-1.311 2.01c-.076.113-.103.119-.118.135-.006.017-.076.059-.108.092a1.088 1.088 0 01-.282.148.987.987 0 01-.308.057h-.618c-3.496-.012-7.226.008-10.955-.005-3.73.015-7.46.078-10.955.078h-.584c-.306 0-.188-.052-.343-.092-.203-.064-.381-.221-.513-.396-.447-.685-.884-1.363-1.31-2.015-.013-.013-.222-.384-.181-.361a1.033 1.033 0 01-.06-.28 4.778 4.778 0 01-.014-.481l-.002-.57c-.003-.754-.02-1.483-.023-2.182l-.015-.261V31h.014l.013.042c.006-.222.039-.16.044-.225.05-.178.143-.303.25-.435.099-.134.266-.217.37-.272.058-.022.165-.07.18-.065.022 0 .04 0 .059-.01.065-.004.144-.026.215-.018a.943.943 0 01.414.077c.066.02.124.058.182.093.056.028.195.13.285.19l1.115.765.41.284.05.047.14.144.088.09a5.117 5.117 0 00-.813.5 1 1 0 001.22 1.585C14.399 32.929 17.93 32 23.043 32c5.11 0 8.643.928 9.762 1.79a1 1 0 101.221-1.584 5.087 5.087 0 00-.79-.49c.027-.028.055-.058.08-.087.247-.28.143-.166.592-.48l1.114-.763.154-.105.067-.047.034-.02.167-.098c.049-.026.046-.011.069-.023a.977.977 0 01.385-.065.96.96 0 01.432.099l.027.01.009.005.054.033c.05.035.164.094.164.109.022.029.066.059.129.136.107.13.197.288.248.466.045.179.048.323.045.737l-.008 2.18.022.57.023.29v.03zM13.57 23.383l1.477-4.923A3.43 3.43 0 0118.354 16h9.376a3.43 3.43 0 013.306 2.46l.8 2.669c-1.65 2.678-4.214 4.922-7.7 6.702-4 2.042-8.051 2.839-9.571 3.083a4.355 4.355 0 00-.401-.696l-.114-.143-.02-.02c.002-.02.012-.036.012-.055v-1a1.01 1.01 0 00-.05-.313l-.65-1.965a7.599 7.599 0 01.229-3.338zm4.47-10.828c0-1.481.977-2.555 2.32-2.555h5.36c1.345 0 2.32 1.074 2.32 2.555v.46c0 .232-.052.985-.733.985h-8.532c-.681 0-.734-.753-.734-.984v-.461zm14.7 14.167l-.65 1.965a1.01 1.01 0 00-.05.313v1c0 .019.01.034.01.052a3.035 3.035 0 00-.31.399 5.61 5.61 0 00-.317.568c-1.912-.57-4.473-.93-7.301-1.003 3.023-1.422 6.142-3.49 8.432-6.456a7.586 7.586 0 01.186 3.162zm6.346 7.082l-.008-2.181c.002-.285.007-.832-.131-1.301a3.357 3.357 0 00-.676-1.245 3.068 3.068 0 00-.557-.51c-.116-.087-.146-.093-.222-.143l-.098-.06-.08-.044-.018-.008-.04-.018-.076-.034a2.993 2.993 0 00-1.27-.278 2.956 2.956 0 00-1.221.244 3.903 3.903 0 00-.29.138l-.12.07.385-1.16c.016-.05.028-.1.037-.15a9.621 9.621 0 00-.273-4.315l-.434-1.446c1.265-2.314 2.047-5.072 2.047-8.363a1 1 0 00-2 0c0 1.96-.31 3.782-.916 5.465l-.174-.58a5.407 5.407 0 00-3.203-3.487 3.37 3.37 0 00.293-1.382v-.461c0-2.597-1.857-4.555-4.32-4.555h-5.36c-2.463 0-4.32 1.958-4.32 4.555v.46c0 .512.11.975.293 1.383a5.407 5.407 0 00-3.203 3.487l-1.477 4.925a9.616 9.616 0 00-.273 4.315c.009.05.02.1.037.149l.39 1.183a2.98 2.98 0 00-1.638-.466 3.142 3.142 0 00-.643.068 5.654 5.654 0 00-.368.106c-.128.043-.154.063-.236.096a3.1 3.1 0 00-1.106.82 3.362 3.362 0 00-.674 1.243c-.07.26-.12.589-.118.71l-.01.129-.002.199-.001.26-.01 2.182-.001.57c0 .19-.01.36.017.678.032.293.069.533.199.864.16.4.166.375.357.705l.654 1.027.334.523.168.264c.049.079.112.179.216.318.365.499.886.91 1.498 1.123.246.11.795.155.92.15l.232-.026h.163l.327.035c3.496.014 7.226.046 10.955.06 3.729-.013 7.459-.018 10.955-.031l.687-.003a3.186 3.186 0 001.8-.636c.126-.108.238-.182.368-.327.13-.137.252-.282.292-.346l.129-.181.085-.133.5-.787.656-1.026c.105-.173.292-.482.37-.74.1-.212.182-.695.189-.857l.015-.218.002-.147-.003-.86z"/><path d="M20.57 20.76c.709-.44 1.523-.76 2.36-.76h.223c.838 0 1.655.32 2.363.762.164.103.347.195.529.195a.98.98 0 00.848-.448c.293-.47.15-1.161-.319-1.454C25.55 18.414 24.366 18 23.152 18h-.222c-1.21 0-2.392.424-3.418 1.064a1 1 0 001.058 1.697z"/></g></svg>