<svg width="48" height="48" fill="none" xmlns="http://www.w3.org/2000/svg"><path fill-rule="evenodd" clip-rule="evenodd" d="M14.5 30a1.5 1.5 0 001.5-1.5v-3h7.5v3a1.5 1.5 0 003 0v-3h6c2.481 0 4.5-2.019 4.5-4.5v-1.5a1.5 1.5 0 00-3 0V21c0 .826-.673 1.5-1.5 1.5h-6v-3a1.5 1.5 0 00-3 0v3H16v-3a1.5 1.5 0 00-3 0v9a1.5 1.5 0 001.5 1.5z" fill="#253238"/><path fill-rule="evenodd" clip-rule="evenodd" d="M24 3c11.58 0 21 9.42 21 21s-9.42 21-21 21S3 35.58 3 24 12.42 3 24 3zm0 45c13.256 0 24-10.745 24-24S37.256 0 24 0C10.745 0 0 10.745 0 24s10.745 24 24 24z" fill="#253238"/><path fill-rule="evenodd" clip-rule="evenodd" d="M24 16c.552 0 1-.896 1-2v-2c0-1.104-.448-2-1-2s-1 .896-1 2v2c0 1.104.448 2 1 2zM24 32c-.552 0-1 .896-1 2v2c0 1.104.448 2 1 2s1-.896 1-2v-2c0-1.104-.448-2-1-2zM14.5 16c.828 0 1.5-.896 1.5-2v-2c0-1.104-.672-2-1.5-2s-1.5.896-1.5 2v2c0 1.104.672 2 1.5 2zM34.5 16c1.38 0 2.5-.896 2.5-2v-2c0-1.104-1.12-2-2.5-2s-2.5.896-2.5 2v2c0 1.104 1.12 2 2.5 2zM14.5 32c-.828 0-1.5.896-1.5 2v2c0 1.104.672 2 1.5 2s1.5-.896 1.5-2v-2c0-1.104-.672-2-1.5-2z" fill="#253238"/></svg>