<svg width="48" height="48" viewBox="0 0 48 48" fill="none" xmlns="http://www.w3.org/2000/svg"><path d="M33.374 26.755a.972.972 0 00-.399.07 1.01 1.01 0 00-.341.227 1.066 1.066 0 00-.23.349 1.106 1.106 0 00.23 1.18c.098.099.214.176.341.227a.972.972 0 00.4.07.993.993 0 00.692-.325 1.09 1.09 0 00.284-.737c0-.275-.102-.539-.284-.737a.993.993 0 00-.693-.324zm-17.563-.339h14.833a3.14 3.14 0 011.122-1.3 2.94 2.94 0 011.608-.484c1.198 0 2.235.73 2.73 1.787l.819.004c.61.006 1.238.022 1.682-.09.193-.05.34-.28.34-.536v-.27c.004-.435.004-1.106 0-1.202.004-.615-.053-.982-.108-1.13-.08-.101-.813-.761-1.532-.818-.408-.03-1.773-.16-2.294-.493-.623-.405-.953-.77-1.245-1.09-.405-.452-.79-.878-2.329-1.608-4.04-1.923-8.746-.818-10.273-.019l-.515.268h1.37c.27 0 .527.112.717.311.19.2.297.47.297.751 0 .282-.107.552-.297.751a.99.99 0 01-.717.311h-5.36a.975.975 0 01-.24-.03c-.836.233-2.294.548-4.345.984-1.48.314-2.88.612-3.536.792l-.085.072a.989.989 0 00-.314.363c-.075.146-.113.31-.113.475v1.513c0 .236.183.427.408.427h2.055a3.104 3.104 0 011.17-1.149 2.927 2.927 0 013.09.152c.455.313.822.748 1.062 1.26v-.002zm.23 2.124a3.21 3.21 0 01-1.072 1.77 2.959 2.959 0 01-1.888.69c-.73 0-1.434-.276-1.986-.776a3.233 3.233 0 01-1.022-1.946h-1.64c-.644 0-1.263-.27-1.72-.748A2.616 2.616 0 016 25.728v-1.513c0-1.048.498-2.021 1.329-2.604l.141-.098c.176-.123.357-.208.553-.263.712-.194 2.138-.498 3.648-.818 1.737-.37 4.114-.874 4.598-1.072l3.99-2.091c2.38-1.248 7.682-2.077 12.014-.017 1.9.903 2.466 1.529 2.966 2.08.254.282.437.485.834.744.136.039 1.008.155 1.381.184 1.539.12 2.993 1.394 3.278 2.182.163.45.243 1.073.24 1.857.033.94.048 1.49-.022 1.848-.134 1.083-.881 2-1.873 2.25-.515.13-1.067.155-1.619.155-.188 0-.38-.003-.568-.006l-.557-.004a3.211 3.211 0 01-1.072 1.767 2.96 2.96 0 01-1.887.691 2.959 2.959 0 01-1.888-.69 3.212 3.212 0 01-1.072-1.77H16.04zm-2.96-1.785a.99.99 0 00-.717.312c-.19.2-.296.47-.296.751 0 .282.108.552.298.75a.99.99 0 00.718.31.99.99 0 00.716-.311c.19-.2.296-.47.296-.752 0-.281-.108-.551-.298-.75a.99.99 0 00-.717-.31z" fill="#253238"/></svg>