<svg width="48" height="48" viewBox="0 0 48 48" fill="none" xmlns="http://www.w3.org/2000/svg"><g fill-rule="evenodd" clip-rule="evenodd" fill="#253238"><path d="M38 31.142c0 .417-.349.858-.678.858h-1.843a3.398 3.398 0 00-3.079-1.98c-1.731 0-3.148 1.306-3.358 2.98H21v-2a1 1 0 00-2 0v2.42c0 .442-.559.8-1 .8-.441 0-1-.358-1-.8v-2.4c0-.552-.348-1-.9-1s-.95.448-.95 1c0 .44-.134.8-.575.8-.441 0-.575-.36-.575-.8V28a1 1 0 00-2 0v4.22c0 .442-.559.8-1 .8-.441 0-1-.358-1-.8v-14.4c0-.441.559-.8 1-.8.441 0 1 .359 1 .8V21a1 1 0 102 0v-1.38c0-.441.059-.8.5-.8s.5.359.5.8v2.4a1 1 0 102 0v-4.2c0-.441.559-.8 1-.8.441 0 1 .359 1 .8V20a1 1 0 102 0v-2h6.03c.372 0 .805.249 1.126.645L30.842 22H30a1 1 0 000 2h2.904c.026.01.047.025.074.034l4.275 1.439c.44.147.747.578.747 1.049v4.62zm-5.6 3.678c-.772 0-1.4-.628-1.4-1.4 0-.772.628-1.4 1.4-1.4.772 0 1.4.628 1.4 1.4 0 .772-.628 1.4-1.4 1.4zm5.489-11.243l-4.277-1.44a.955.955 0 01-.177-.098l-3.721-4.648C29.009 16.52 28.005 16 27.03 16h-6.92a2.782 2.782 0 00-2.11-.98 2.795 2.795 0 00-2.661 1.974 2.764 2.764 0 00-.939-.174c-.331 0-.644.068-.939.174A2.795 2.795 0 0010.8 15.02a2.803 2.803 0 00-2.8 2.8v14.4a2.802 2.802 0 002.8 2.8 2.79 2.79 0 002.442-1.458c.354.162.744.258 1.158.258.29 0 .564-.057.827-.14A2.793 2.793 0 0018 36.22c.958 0 1.803-.484 2.308-1.22h9.1a3.39 3.39 0 002.992 1.82A3.399 3.399 0 0035.741 34h1.581C38.749 34 40 32.664 40 31.142v-4.62c0-1.34-.85-2.525-2.111-2.945zM18 38h-1a1 1 0 000 2h1a1 1 0 000-2zM13 36h-1a1 1 0 000 2h1a1 1 0 000-2zM24 37h-1a1 1 0 000 2h1a1 1 0 000-2zM31.341 15.002c.498.436.66.61.66.998a1 1 0 102 0c0-1.329-.808-2.036-1.343-2.503-.498-.435-.658-.609-.658-.997 0-.389.16-.562.658-.998C33.193 11.035 34 10.328 34 9a1 1 0 10-2 0c0 .388-.16.562-.659.997-.534.467-1.34 1.174-1.34 2.503 0 1.328.806 2.035 1.34 2.502zM38.659 16.498c-.498-.436-.66-.61-.66-.998s.162-.562.66-.997c.534-.467 1.34-1.174 1.34-2.503a1 1 0 10-2 0c0 .389-.16.562-.657.998C36.807 13.465 36 14.172 36 15.5c0 1.329.807 2.036 1.342 2.503.498.435.658.609.658.997a1 1 0 102 0c0-1.328-.807-2.035-1.341-2.502z"/></g></svg>