<svg width="48" height="48" fill="none" xmlns="http://www.w3.org/2000/svg"><path fill-rule="evenodd" clip-rule="evenodd" d="M45 34.712c0 .626-.523 1.287-1.017 1.287H41.22c-.81-1.747-2.57-2.97-4.619-2.97-2.596 0-4.722 1.96-5.037 4.47H19.5v-3a1.5 1.5 0 00-3 0v3.63c0 .663-.838 1.202-1.5 1.202-.661 0-1.5-.539-1.5-1.202v-3.6c0-.828-.522-1.5-1.35-1.5-.828 0-1.425.672-1.425 1.5 0 .662-.2 1.2-.862 1.2-.662 0-.863-.538-.863-1.2V30a1.5 1.5 0 00-3 0v6.332c0 .661-.838 1.198-1.5 1.198-.661 0-1.5-.537-1.5-1.198V14.729c0-.661.839-1.2 1.5-1.2.662 0 1.5.539 1.5 1.2v4.77a1.5 1.5 0 103 0v-2.068c0-.663.089-1.202.75-1.202.662 0 .75.539.75 1.202v3.598a1.5 1.5 0 103 0v-6.3c0-.661.839-1.2 1.5-1.2.662 0 1.5.539 1.5 1.2V18a1.5 1.5 0 103 0v-3h9.045c.558 0 1.208.374 1.69.968l4.028 5.032H33a1.5 1.5 0 000 3h4.356c.04.015.07.038.111.051l6.413 2.159c.66.22 1.12.867 1.12 1.573v6.93zm-8.4 5.517c-1.158 0-2.1-.942-2.1-2.1 0-1.158.942-2.1 2.1-2.1 1.158 0 2.1.942 2.1 2.1 0 1.158-.942 2.1-2.1 2.1zm8.234-16.864l-6.416-2.16a1.433 1.433 0 01-.265-.147l-5.582-6.972c-1.057-1.307-2.563-2.087-4.026-2.087h-10.38c-.77-.892-1.896-1.47-3.165-1.47-1.88 0-3.459 1.253-3.991 2.961a4.147 4.147 0 00-1.409-.26c-.496 0-.966.101-1.408.26-.533-1.708-2.11-2.96-3.992-2.96a4.205 4.205 0 00-4.2 4.2v21.6a4.203 4.203 0 004.2 4.2c1.583 0 2.948-.89 3.663-2.188a4.159 4.159 0 001.737.387c.435 0 .846-.085 1.24-.208.202 2.131 1.978 3.81 4.16 3.81a4.194 4.194 0 003.462-1.832h13.65c.857 1.616 2.537 2.73 4.488 2.73 2.514 0 4.596-1.833 5.012-4.23h2.371C46.123 39 48 36.995 48 34.712v-6.93a4.645 4.645 0 00-3.166-4.417zM15.334 46h-1.667c-.92 0-1.667.448-1.667 1s.747 1 1.667 1h1.667c.92 0 1.666-.448 1.666-1s-.747-1-1.666-1zM7 42H6c-.552 0-1 .896-1 2s.448 2 1 2h1c.552 0 1-.896 1-2s-.448-2-1-2zM23.334 43h-1.667c-.92 0-1.667.896-1.667 2s.747 2 1.667 2h1.666c.92 0 1.667-.896 1.667-2s-.747-2-1.666-2zM36.012 10.114c.747.63.988.88.988 1.442 0 .797.67 1.444 1.5 1.444.828 0 1.5-.647 1.5-1.444 0-1.92-1.21-2.941-2.013-3.616C37.24 7.312 37 7.06 37 6.5c0-.562.24-.812.987-1.442C38.79 4.384 40 3.363 40 1.444 40 .646 39.328 0 38.5 0c-.83 0-1.5.646-1.5 1.444 0 .56-.241.812-.988 1.44C35.21 3.56 34 4.58 34 6.5c0 1.918 1.21 2.94 2.012 3.614zM45.989 12.942c-.747-.63-.989-.88-.989-1.442 0-.56.242-.812.989-1.44.8-.675 2.011-1.696 2.011-3.616C48 5.647 47.33 5 46.5 5c-.828 0-1.5.647-1.5 1.444 0 .562-.24.812-.987 1.442C43.211 8.561 42 9.582 42 11.5c0 1.92 1.21 2.94 2.013 3.615.747.629.987.88.987 1.44 0 .8.672 1.445 1.5 1.445.83 0 1.5-.646 1.5-1.444 0-1.919-1.21-2.94-2.011-3.614z" fill="#253238"/></svg>