<svg width="48" height="48" viewBox="0 0 48 48" fill="none" xmlns="http://www.w3.org/2000/svg"><g fill-rule="evenodd" clip-rule="evenodd" fill="#253238"><path d="M24 18.604c5.594 0 10.461-.999 13-2.473v3.74c0 .116-.07.244-.07.38 0 .714-1.443 1.872-4.617 2.725a1 1 0 00.515 1.932C34.61 24.43 36 23.838 37 23.16v2.548c0 .117-.07.245-.07.38 0 .713-1.441 1.871-4.612 2.724a1.001 1.001 0 00.516 1.931c1.779-.478 3.166-1.07 4.166-1.747v4.767c0 .912-4.414 3.05-13 3.05s-13-2.138-13-3.05v-4.767c1 .677 2.386 1.27 4.166 1.747a.998.998 0 001.22-.706 1 1 0 00-.707-1.225c-3.171-.853-4.609-2.01-4.609-2.725 0-.134-.07-.262-.07-.379V23.16c1 .678 2.389 1.27 4.171 1.75a.994.994 0 001.221-.707 1.002 1.002 0 00-.707-1.226c-3.175-.853-4.615-2.01-4.615-2.726 0-.135-.07-.263-.07-.38v-3.739c2.539 1.474 7.406 2.473 13 2.473zm0-2c-7.732 0-12.09-1.903-12.812-2.802C11.91 12.903 16.268 11 24 11c7.732 0 12.09 1.903 12.812 2.802-.722.9-5.08 2.802-12.812 2.802zM24 9c-7.723 0-14.068 1.901-14.798 4.333a.979.979 0 00-.202.573v19.856c0 3.47 7.769 5.05 15 5.05s15-1.58 15-5.05V13.906a.979.979 0 00-.202-.573C38.068 10.901 31.723 9 24 9z"/><path d="M24 30.406a1.67 1.67 0 01-1.667-1.667c0-.534.766-2.042 1.667-3.502.901 1.46 1.667 2.967 1.667 3.502A1.67 1.67 0 0124 30.406zm0-7.974c-.318 0-.636.135-.823.406-.667.965-2.844 4.245-2.844 5.901A3.672 3.672 0 0024 32.406a3.672 3.672 0 003.667-3.667c0-1.656-2.177-4.936-2.844-5.9-.187-.272-.505-.407-.823-.407zM18.5 12.906c-1.381 0-2.5.448-2.5 1s1.119 1 2.5 1 2.5-.448 2.5-1-1.119-1-2.5-1z"/></g></svg>