<svg width="43" height="49" fill="none" xmlns="http://www.w3.org/2000/svg"><path fill-rule="evenodd" clip-rule="evenodd" d="M29.036 16.577h-15.07a1.508 1.508 0 000 3.014h15.07a1.508 1.508 0 000-3.014zm4.521 25.65c0 .566-.218 1.089-.493 1.54l-2.654-5.259a1.547 1.547 0 00-1.374-.833h-15.07c-.571 0-1.092.322-1.349.833l-2.679 5.258c-.274-.45-.493-.973-.493-1.539V5.997c0-1.62 1.403-2.936 3.014-2.975V4.52a1.508 1.508 0 003.014 0V3.014H27.53v1.507a1.508 1.508 0 003.014 0v-1.5c1.611.04 3.014 1.355 3.014 2.975v36.231zm-20.92 2.983l2.26-4.521h13.208l2.26 4.52H12.637zm23.934-15.785v-10.72l3.85 4.061c.296.308.665.463 1.06.463.377 0 .74-.14 1.032-.42.6-.578.665-1.532.087-2.132l-6.029-6.321v-8.36c0-3.31-2.788-5.996-6.1-5.996H12.53c-3.31 0-6.1 2.685-6.1 5.996v8.36L.408 20.677c-.576.6-.532 1.554.069 2.131.292.28.693.42 1.07.42.395 0 .738-.154 1.034-.462l3.85-4.061v10.72L.408 35.748c-.576.6-.532 1.554.069 2.131.292.28.681.42 1.056.42.397 0 .746-.154 1.042-.462l3.856-4.061v8.452c0 3.313 2.79 5.997 6.1 5.997h17.94c3.312 0 6.1-2.684 6.1-5.997v-8.452l3.85 4.061c.296.308.665.463 1.06.463.377 0 .74-.14 1.032-.42.6-.578.665-1.532.087-2.132l-6.029-6.322z" fill="#253238"/></svg>