<svg width="43" height="48" fill="none" xmlns="http://www.w3.org/2000/svg"><path fill-rule="evenodd" clip-rule="evenodd" d="M28.901 18h-15a1.5 1.5 0 000 3h15a1.5 1.5 0 000-3zm4.5 24.032c0 .562-.217 1.083-.49 1.531l-2.642-5.233a1.54 1.54 0 00-1.368-.83h-15c-.568 0-1.087.321-1.342.83l-2.667 5.233c-.273-.449-.49-.969-.49-1.532V5.968c0-1.612 1.396-2.921 3-2.96V4.5a1.5 1.5 0 003 0V3h12v1.5a1.5 1.5 0 003 0V3.007c1.603.04 3 1.349 3 2.961v36.064zM12.578 45l2.25-4.5h13.146l2.25 4.5H12.578zm29.825-24.522L36.4 14.185V5.97C36.401 2.673 33.626 0 30.33 0H12.473C9.178 0 6.401 2.673 6.401 5.968v8.217L.406 20.478c-.573.597-.53 1.546.069 2.121.29.279.69.418 1.065.418.393 0 .735-.154 1.029-.46L6.4 18.516v23.516c0 3.297 2.777 5.968 6.072 5.968H30.33c3.297 0 6.072-2.672 6.072-5.968V18.516l3.833 4.041c.294.306.661.46 1.054.46.375 0 .737-.139 1.028-.418.597-.575.661-1.524.087-2.121z" fill="#253238"/></svg>