<svg width="48" height="48" viewBox="0 0 48 48" fill="none" xmlns="http://www.w3.org/2000/svg"><path fill-rule="evenodd" clip-rule="evenodd" d="M28.267 20h-10a1 1 0 000 2h10a1 1 0 000-2zm3 16.02c0 .376-.145.723-.326 1.022l-1.761-3.49a1.027 1.027 0 00-.913-.552h-10c-.378 0-.724.214-.895.553l-1.777 3.489c-.183-.3-.328-.646-.328-1.021V11.979c0-1.075.931-1.948 2-1.974V11a1 1 0 002 0v-1h8v1a1 1 0 002 0v-.995c1.07.026 2 .899 2 1.974V36.02zM17.386 38l1.5-3h8.764l1.5 3H17.386zm19.883-16.348l-4.002-4.195v-5.478c0-2.197-1.85-3.98-4.048-3.98H17.316c-2.197 0-4.048 1.783-4.048 3.98v5.478L9.27 21.652a1 1 0 00.046 1.414c.194.186.46.279.71.279.263 0 .49-.103.687-.307l2.555-2.694V36.02c0 2.198 1.85 3.979 4.047 3.979H29.22c2.198 0 4.048-1.781 4.048-3.98V20.345l2.555 2.694a.959.959 0 00.703.307c.25 0 .492-.093.686-.28.398-.382.44-1.015.058-1.413z" fill="#253238"/></svg>