<svg width="48" height="48" viewBox="0 0 48 48" fill="none" xmlns="http://www.w3.org/2000/svg"><path fill-rule="evenodd" clip-rule="evenodd" d="M29.267 20h-10a1 1 0 000 2h10a1 1 0 000-2zm3 16.02c0 1.092-.957 1.98-2.048 1.98H18.316c-1.09 0-2.048-.888-2.048-1.98V11.98c0-1.075.931-1.948 2-1.974V11a1 1 0 002 0v-1h8v1a1 1 0 002 0v-.995c1.07.026 2 .899 2 1.974V36.02zm6.002-14.368l-4.002-4.195v-5.478c0-2.197-1.85-3.98-4.048-3.98H18.316c-2.197 0-4.048 1.783-4.048 3.98v5.478l-3.996 4.195a1 1 0 00.045 1.414c.194.186.46.279.71.279.263 0 .49-.103.687-.307l2.555-2.694V36.02c0 2.198 1.85 3.979 4.047 3.979H30.22c2.198 0 4.048-1.781 4.048-3.98V20.345l2.555 2.694a.959.959 0 00.703.307c.25 0 .492-.093.686-.28.398-.382.44-1.015.058-1.413zM29.267 33h-10a1 1 0 000 2h10a1 1 0 000-2z" fill="#253238"/></svg>