<svg width="43" height="48" fill="none" viewBox="0 0 43 48" xmlns="http://www.w3.org/2000/svg"><path fill-rule="evenodd" clip-rule="evenodd" d="M28.811 17.944H13.858a1.496 1.496 0 000 2.99h14.953a1.496 1.496 0 000-2.99zm0 19.44H13.858a1.496 1.496 0 000 2.99h14.953a1.496 1.496 0 000-2.99zm4.486 4.517c0 1.631-1.43 2.959-3.062 2.959h-17.8c-1.632 0-3.063-1.328-3.063-2.96V5.95c0-1.608 1.392-2.913 2.99-2.952v1.488a1.496 1.496 0 002.992 0V2.991h11.962v1.495a1.496 1.496 0 002.99 0V2.998c1.6.039 2.991 1.344 2.991 2.952V41.9zm2.991-12.703V18.56l3.82 4.03c.294.305.66.459 1.052.459.374 0 .734-.14 1.024-.417.595-.573.66-1.52.087-2.115l-5.983-6.272V5.95c0-3.285-2.766-5.95-6.053-5.95h-17.8C9.149 0 6.382 2.665 6.382 5.95v8.294L.405 20.517c-.572.596-.528 1.542.068 2.115.29.278.688.417 1.062.417.392 0 .733-.154 1.026-.46l3.82-4.029v10.638L.406 35.47c-.572.595-.528 1.541.068 2.114.29.278.676.417 1.049.417.393 0 .74-.154 1.033-.459l3.827-4.03v8.388c0 3.286 2.767 5.95 6.053 5.95h17.8c3.287 0 6.053-2.664 6.053-5.95v-8.388l3.82 4.03c.294.305.66.46 1.052.46.374 0 .734-.14 1.024-.418.595-.573.66-1.52.087-2.114l-5.983-6.273z" fill="#253238"/></svg>