<svg width="48" height="48" viewBox="0 0 48 48" fill="none" xmlns="http://www.w3.org/2000/svg"><path fill-rule="evenodd" clip-rule="evenodd" d="M28.267 20h-10a1 1 0 000 2h10a1 1 0 000-2zm0 13h-10a1 1 0 000 2h10a1 1 0 000-2zm3 3.02c0 1.092-.956 1.98-2.047 1.98H17.316c-1.091 0-2.048-.888-2.048-1.98V11.98c0-1.075.93-1.948 2-1.974V11a1 1 0 002 0v-1h8v1a1 1 0 002 0v-.995c1.069.026 2 .899 2 1.974V36.02zm2-8.494v-7.114l2.555 2.695a.959.959 0 00.703.307c.25 0 .492-.093.686-.28.398-.382.44-1.015.058-1.413l-4.002-4.195v-5.547c0-2.197-1.85-3.98-4.048-3.98H17.316c-2.197 0-4.048 1.783-4.048 3.98v5.547L9.27 21.72a1 1 0 00.046 1.414c.194.186.46.279.71.279.263 0 .49-.103.687-.307l2.555-2.695v7.114L9.27 31.72a1 1 0 00.046 1.414c.194.186.452.279.701.279a.932.932 0 00.692-.307l2.559-2.695v5.609c0 2.198 1.85 3.979 4.047 3.979H29.22c2.198 0 4.048-1.781 4.048-3.98v-5.608l2.555 2.695a.959.959 0 00.703.307c.25 0 .492-.093.686-.28.398-.382.44-1.015.058-1.413l-4.002-4.195z" fill="#253238"/></svg>