<svg width="48" height="24" fill="none" viewBox="0 0 48 24" xmlns="http://www.w3.org/2000/svg"><path fill-rule="evenodd" clip-rule="evenodd" d="M3 13.617c0-.492.115-2.129 1.664-2.564l2.306-.66c.168.065.342.108.531.108h10.501a1.5 1.5 0 000-3H15.26c3.213-1.404 7.904-3.485 9.461-4.331.204-.111.435-.17.668-.17H39.44c.466 0 .93.11 1.345.317l2.551 1.277A2.99 2.99 0 0145 7.289l-.002 1.712h-1.492a1.5 1.5 0 000 3h1.5v1.5c0 .983-.506 2.749-1.313 3.89-.271.383-.738.611-1.236.611h-1.278c-.359-2.124-2.2-3.593-4.424-3.593-2.113 0-3.878.593-4.36 3.593H17.111c-.481-3-2.247-3.891-4.36-3.891-1.897 0-3.514.89-4.176 2.391H5.087c-1.156 0-2.086-.343-2.086-1.5v-1.385zm33.755 6.636c-.827 0-1.5-.674-1.5-1.5 0-.827.673-1.5 1.5-1.5.826 0 1.5.673 1.5 1.5 0 .826-.674 1.5-1.5 1.5zm-24.003 0c-.827 0-1.5-.674-1.5-1.5 0-.827.673-1.5 1.5-1.5.826 0 1.5.673 1.5 1.5 0 .826-.674 1.5-1.5 1.5zm-7.665-.75h3.394c.576 3 2.262 3.609 4.27 3.609 1.787 0 3.32-.61 4.047-2.11h15.91c.727 1.5 2.26 2.408 4.047 2.408 1.657 0 3.093-1.07 3.875-2.407h1.827a4.5 4.5 0 003.678-1.88c1.078-1.521 1.86-3.886 1.86-5.621L48 7.295a5.971 5.971 0 00-3.32-5.385L42.128.633A6.046 6.046 0 0039.441 0H25.388a4.41 4.41 0 00-2.102.534c-2.273 1.238-12.296 5.548-12.347 5.57L3.848 8.167C1.507 8.823 0 10.962 0 13.617v1.385c0 2.811 2.276 4.5 5.087 4.5z" fill="#253238"/></svg>