<svg width="48" height="48" viewBox="0 0 48 48" fill="none" xmlns="http://www.w3.org/2000/svg"><path fill-rule="evenodd" clip-rule="evenodd" d="M10 25.077c0-.328.076-1.419 1.109-1.709l1.537-.44A.977.977 0 0013 23h7a1 1 0 000-2h-1.829c2.142-.936 5.269-2.323 6.307-2.887a.934.934 0 01.445-.113h9.368c.31 0 .62.073.896.211l1.701.851a1.993 1.993 0 011.108 1.797L37.995 22H37a1 1 0 000 2h1v1c0 .655-.337 1.832-.875 2.592a1.006 1.006 0 01-.824.408h-.852c-.239-1.416-1.466-2.395-2.949-2.395-1.408 0-2.585.395-2.906 2.395H19.406c-.321-2-1.498-2.594-2.906-2.594-1.265 0-2.343.594-2.784 1.594h-2.325C10.62 27 10 26.771 10 26v-.923zM32.5 29.5c-.551 0-1-.449-1-1 0-.551.449-1 1-1 .551 0 1 .449 1 1 0 .551-.449 1-1 1zm-16 0c-.551 0-1-.449-1-1 0-.551.449-1 1-1 .551 0 1 .449 1 1 0 .551-.449 1-1 1zm-5.109-.5h2.262c.384 2 1.508 2.406 2.847 2.406 1.191 0 2.213-.406 2.697-1.406h10.606c.484 1 1.506 1.605 2.697 1.605 1.105 0 2.062-.713 2.583-1.605h1.218a3 3 0 002.452-1.253c.718-1.014 1.239-2.59 1.239-3.747l.004-4.137a3.98 3.98 0 00-2.213-3.59l-1.701-.851A4.03 4.03 0 0034.291 16h-9.368a2.94 2.94 0 00-1.401.356c-1.515.825-8.196 3.698-8.23 3.713l-4.728 1.375C9.004 21.881 8 23.307 8 25.077V26c0 1.874 1.517 3 3.391 3z" fill="#253238"/></svg>