<svg width="48" height="48" viewBox="0 0 48 48" fill="none" xmlns="http://www.w3.org/2000/svg"><g fill-rule="evenodd" clip-rule="evenodd" fill="#253238"><path d="M36.65 36.86a.195.195 0 01-.195.196h-21.61a.195.195 0 01-.195-.195V18.228l-1.437-1.437c.021-.018.047-.024.066-.044l2.984-2.984c.047-.047.07-.106.106-.16l1.453 1.453h18.633c.108 0 .195.087.195.195v21.61zM10.56 14.057c0-.054.018-.1.056-.138l2.896-2.896a.188.188 0 01.138-.057c.054 0 .1.019.138.057l1.221 1.22c-.054.037-.113.06-.16.107l-2.984 2.984c-.02.02-.026.045-.044.066l-1.205-1.205a.188.188 0 01-.057-.138zm17.432-3h6.752c.5 0 .906.407.906.906v1.094h-9.48l1.822-2zm9.658 2.357v-1.451a2.91 2.91 0 00-2.906-2.906h-6.752a2.02 2.02 0 00-1.454.623l-3.05 3.352c-.007.007-.009.017-.016.025H18.65l-3.448-3.448a2.187 2.187 0 00-1.552-.643c-.562 0-1.123.214-1.552.643l-2.896 2.896a2.195 2.195 0 000 3.104l3.448 3.448V36.86c0 1.212.983 2.195 2.195 2.195h21.61a2.195 2.195 0 002.195-2.195V15.25a2.19 2.19 0 00-1-1.838z"/><path d="M23.65 28.056h4v-4h-4v4zm7.875-6.293c.39-.391.307-1.023-.084-1.414-.39-.391-1.065-.557-1.456-.167l-2.082 1.874h-4.505l-2.04-1.874c-.391-.39-1.024-.307-1.414.084-.391.39-.558 1.065-.167 1.455l1.874 2.083v4.504l-1.874 2.04c-.391.392-.307 1.024.083 1.415.196.195.493.293.749.293s.533.069.728-.126l2.06-1.874h4.506l2.04 1.874c.196.195.452.209.708.209.256 0 .512-.14.707-.334.39-.391.557-1.045.167-1.435l-1.874-2.062v-4.504l1.874-2.041z"/></g></svg>