<svg width="48" height="48" fill="none" viewBox="0 0 48 48" xmlns="http://www.w3.org/2000/svg"><path fill-rule="evenodd" clip-rule="evenodd" d="M44.81 44.499a.31.31 0 01-.312.31H10.027a.31.31 0 01-.311-.31V14.776l-2.292-2.292c.033-.029.075-.039.105-.07l4.76-4.76c.075-.075.111-.17.169-.254l2.318 2.316h29.722a.31.31 0 01.311.311V44.5zM3.19 8.12a.3.3 0 01.091-.22l4.62-4.62a.3.3 0 01.22-.09.3.3 0 01.22.09l1.948 1.948c-.087.057-.18.094-.256.169l-4.76 4.76c-.032.032-.041.072-.07.105L3.281 8.341a.3.3 0 01-.09-.22zM31 3.335h10.77c.796 0 1.445.65 1.445 1.446v1.745H28.092L31 3.336zm15.406 3.76V4.781A4.642 4.642 0 0041.769.145H31c-.857 0-1.663.334-2.32.994l-4.867 5.347c-.01.011-.012.027-.024.04h-7.692l-5.5-5.5A3.488 3.488 0 008.121 0c-.897 0-1.792.341-2.476 1.026l-4.62 4.62a3.502 3.502 0 000 4.95l5.5 5.5V44.5A3.502 3.502 0 0010.028 48h34.471A3.502 3.502 0 0048 44.5V10.027c0-1.23-.637-2.306-1.595-2.932z" fill="#253238"/><path fill-rule="evenodd" clip-rule="evenodd" d="M24.073 30.453h6.38v-6.38h-6.38v6.38zm12.56-10.038c.622-.624.49-1.632-.134-2.256-.622-.623-1.699-.888-2.323-.266l-3.32 2.99h-7.187l-3.254-2.99c-.624-.622-1.633-.49-2.256.134-.623.622-.89 1.699-.266 2.32l2.99 3.324v7.184l-2.99 3.256c-.624.624-.49 1.632.132 2.256.313.31.787.467 1.195.467.409 0 .85.11 1.161-.201l3.288-2.99h7.186l3.256 2.99c.311.311.72.333 1.128.333.408 0 .817-.221 1.128-.532.622-.624.888-1.667.266-2.29l-2.99-3.289v-7.184l2.99-3.256z" fill="#253238"/></svg>