<svg width="49" height="48" fill="none" xmlns="http://www.w3.org/2000/svg"><path fill-rule="evenodd" clip-rule="evenodd" d="M20.964 12.193l1.228-1.227 5.306 5.306a1.495 1.495 0 002.122 0 1.502 1.502 0 000-2.122l-5.306-5.306 2.122-2.122 10.611 10.611c.294.294.677.44 1.061.44a1.5 1.5 0 001.061-2.562L28.558 4.6l1.227-1.227a1.26 1.26 0 011.79 0L44.642 16.44c.24.238.37.556.37.894 0 .338-.13.656-.37.896l-8.82 8.821c-.48.477-1.313.477-1.79 0L20.964 13.983a1.264 1.264 0 010-1.79zm-2.071 19.05c-1.123 1.121-1.541 2.751-1.123 4.361a7.524 7.524 0 01-1.946 7.198 7.455 7.455 0 01-5.305 2.197c-2.586 0-4.897-1.267-6.342-3.476-1.592-2.434-1.574-5.697.043-8.122C5.666 31.24 7.956 30 10.504 30c.648 0 1.294.083 1.918.248 1.568.413 3.23-.008 4.32-1.099l6.51-6.508 2.123 2.122-6.482 6.481zm3.299-11.786l-7.572 7.57c-.486.486-1.005.429-1.436.316a10.543 10.543 0 00-2.68-.345c-3.516 0-6.798 1.77-8.78 4.738-2.276 3.41-2.301 8.005-.06 11.43 1.98 3.028 5.29 4.835 8.855 4.835 2.805 0 5.443-1.093 7.427-3.077a10.538 10.538 0 002.73-10.077c-.149-.568-.023-1.12.34-1.48l7.542-7.544 3.35 3.35a4.24 4.24 0 003.017 1.25 4.24 4.24 0 003.018-1.25l8.82-8.822a4.234 4.234 0 001.25-3.018c0-1.139-.443-2.21-1.25-3.016L33.698 1.25A4.239 4.239 0 0030.68 0c-1.14 0-2.212.165-3.018.972L25.376 2.98h.15v.561l-6.607 6.531c-.808.806-1.29 1.878-1.29 3.018s.425 2.212 1.232 3.017l3.33 3.35z" fill="#253238"/><path fill-rule="evenodd" clip-rule="evenodd" d="M11.579 38.557c-.566.567-1.555.567-2.122 0a1.49 1.49 0 01-.44-1.061c0-.4.156-.777.441-1.061.282-.284.659-.44 1.06-.44.402 0 .778.156 1.06.44.284.284.44.66.44 1.061 0 .4-.156.777-.44 1.061zm-4.244-4.246a4.475 4.475 0 00-1.32 3.185c0 1.202.469 2.334 1.32 3.183.85.85 1.98 1.32 3.183 1.32a4.477 4.477 0 003.184-1.319 4.48 4.48 0 001.318-3.184 4.474 4.474 0 00-1.318-3.183c-1.702-1.702-4.667-1.7-6.367-.002zM31.742 20.517a1.497 1.497 0 002.122 0 1.5 1.5 0 000-2.122l-1.061-1.061a1.5 1.5 0 00-2.122 0 1.5 1.5 0 000 2.122l1.06 1.06z" fill="#253238"/></svg>