<svg width="48" height="48" viewBox="0 0 48 48" fill="none" xmlns="http://www.w3.org/2000/svg"><g fill-rule="evenodd" clip-rule="evenodd" fill="#253238"><path d="M21.97 16.125l.817-.819 3.536 3.537a.996.996 0 001.414 0 1 1 0 000-1.415l-3.536-3.536 1.414-1.413 7.071 7.07a.995.995 0 00.707.294.999.999 0 00.707-1.707l-7.07-7.071.817-.817a.839.839 0 011.193 0l8.706 8.705c.16.16.247.372.247.596a.838.838 0 01-.247.598l-5.877 5.878a.865.865 0 01-1.193 0l-8.707-8.707a.842.842 0 010-1.193zm-1.38 12.694c-.749.747-1.028 1.832-.749 2.905a5.013 5.013 0 01-1.297 4.796 4.967 4.967 0 01-3.535 1.464c-1.723 0-3.263-.843-4.226-2.316-1.06-1.621-1.049-3.796.03-5.412.962-1.44 2.488-2.267 4.186-2.267a5 5 0 011.278.165c1.045.276 2.153-.005 2.88-.732l4.337-4.337 1.414 1.415-4.319 4.319zm2.197-7.854l-5.045 5.044c-.324.323-.67.285-.957.21A7.028 7.028 0 0015 25.99c-2.343 0-4.53 1.18-5.85 3.157-1.517 2.273-1.534 5.334-.04 7.617 1.32 2.018 3.525 3.221 5.9 3.221a6.954 6.954 0 004.95-2.05 7.022 7.022 0 001.818-6.714c-.099-.378-.015-.746.226-.986l5.026-5.028 2.232 2.233a2.825 2.825 0 002.011.832c.76 0 1.474-.296 2.011-.832l5.877-5.878a2.821 2.821 0 00.833-2.012 2.82 2.82 0 00-.833-2.01l-8.706-8.706A2.825 2.825 0 0028.444 8c-.76 0-1.474.11-2.01.648l-1.525 1.337h.1v.373l-4.403 4.352a2.846 2.846 0 00-.859 2.011c0 .76.283 1.474.821 2.01l2.22 2.233z"/><path d="M15.715 33.692a1.023 1.023 0 01-1.414 0 .993.993 0 01-.293-.707.99.99 0 01.294-.707.99.99 0 01.706-.293.99.99 0 01.707.293c.19.189.293.44.293.707a.993.993 0 01-.293.707zm-2.828-2.83a2.982 2.982 0 00-.879 2.123c0 .8.312 1.555.88 2.12a2.98 2.98 0 002.12.88c.802 0 1.555-.312 2.122-.878a2.985 2.985 0 00.878-2.122c0-.801-.312-1.555-.878-2.121-1.134-1.134-3.11-1.133-4.243-.001zM29.15 21.67a.997.997 0 001.415 0 .999.999 0 000-1.413l-.707-.707a.999.999 0 10-1.414 1.414l.707.707z"/></g></svg>