<svg width="48" height="48" viewBox="0 0 48 48" fill="none" xmlns="http://www.w3.org/2000/svg"><path fill-rule="evenodd" clip-rule="evenodd" d="M18 30h-2a1 1 0 000 2h2a1 1 0 000-2zM32 30h-2a1 1 0 000 2h2a1 1 0 000-2z" fill="#253238"/><path fill-rule="evenodd" clip-rule="evenodd" d="M13 35v-4.747c0-.211.209-.577.377-.872l.648-1.148C14.419 27.53 15.244 27 15.943 27h16.114c.675 0 1.407.496 1.821 1.233l.688.965c.158.281.434.789.434 1.055V35H13zm20.504 3c-.647-.002-1.376-.51-1.489-1h2.97c-.112.49-.838.998-1.481 1zm-19 0c-.647-.002-1.376-.51-1.489-1h2.97c-.112.49-.838.998-1.481 1zm2.365-15.776c.255-.766.976-1.224 1.928-1.224h10.406c.952 0 1.673.458 1.932 1.235l.96 2.765h-16.19l.964-2.776zM37 26a1 1 0 00-1-1h-1.789l-1.182-3.408C32.504 20.017 31.002 19 29.203 19H18.797c-1.799 0-3.301 1.017-3.822 2.58L13.789 25H12a1 1 0 000 2h.447c-.055.084-.115.165-.165.252l-.643 1.139c-.285.5-.639 1.122-.639 1.862V37h.016c.088 1.72 1.872 2.996 3.484 3h.008c1.609-.004 3.388-1.281 3.476-3h12.032c.088 1.72 1.872 2.996 3.484 3h.008c1.609-.004 3.388-1.281 3.476-3H37v-6.747c0-.743-.354-1.437-.717-2.084l-.691-.967c-.041-.07-.09-.134-.134-.202H36a1 1 0 001-1zM12 21v-1h1a1 1 0 000-2h-1v-1a1 1 0 00-2 0v1H9a1 1 0 000 2h1v1a1 1 0 002 0zM14 13h1v1a1 1 0 002 0v-1h1a1 1 0 000-2h-1v-1a1 1 0 00-2 0v1h-1a1 1 0 000 2zM22 15h1v1a1 1 0 002 0v-1h1a1 1 0 000-2h-1v-1a1 1 0 00-2 0v1h-1a1 1 0 000 2zM30 12h1v1a1 1 0 002 0v-1h1a1 1 0 000-2h-1V9a1 1 0 00-2 0v1h-1a1 1 0 000 2zM39 17h-1v-1a1 1 0 00-2 0v1h-1a1 1 0 000 2h1v1a1 1 0 002 0v-1h1a1 1 0 000-2z" fill="#253238"/></svg>