<svg width="48" height="48" fill="none" viewBox="0 0 48 48" xmlns="http://www.w3.org/2000/svg"><path fill-rule="evenodd" clip-rule="evenodd" d="M15.5 34h-3c-.828 0-1.5.448-1.5 1s.672 1 1.5 1h3c.828 0 1.5-.448 1.5-1s-.672-1-1.5-1zM35.5 34h-3c-.828 0-1.5.448-1.5 1s.672 1 1.5 1h3c.828 0 1.5-.448 1.5-1s-.672-1-1.5-1z" fill="#253238"/><path fill-rule="evenodd" clip-rule="evenodd" d="M7.5 40.5v-7.12c0-.317.314-.866.566-1.309l.972-1.721c.59-1.055 1.828-1.85 2.877-1.85h24.17c1.013 0 2.111.744 2.732 1.85l1.032 1.447c.237.421.651 1.183.651 1.582V40.5h-33zM38.256 45c-.97-.003-2.064-.765-2.233-1.5h4.455c-.168.735-1.257 1.497-2.222 1.5zm-28.5 0c-.97-.003-2.064-.765-2.233-1.5h4.455c-.168.735-1.257 1.497-2.222 1.5zm3.548-23.664c.382-1.149 1.464-1.836 2.892-1.836h15.609c1.428 0 2.51.687 2.898 1.852l1.44 4.148H11.858l1.446-4.164zM43.5 27a1.5 1.5 0 00-1.5-1.5h-2.683l-1.773-5.112c-.788-2.363-3.04-3.888-5.74-3.888H16.197c-2.699 0-4.952 1.526-5.733 3.87l-1.78 5.13H6a1.5 1.5 0 000 3h.67c-.082.126-.172.247-.247.378l-.964 1.709c-.428.75-.959 1.683-.959 2.793V43.5h.024c.132 2.58 2.808 4.494 5.226 4.5h.012c2.414-.006 5.082-1.922 5.214-4.5h18.048c.132 2.58 2.808 4.494 5.226 4.5h.012c2.414-.006 5.082-1.922 5.214-4.5h.024V33.38c0-1.115-.53-2.156-1.075-3.127l-1.037-1.45c-.061-.105-.135-.201-.2-.303H42a1.5 1.5 0 001.5-1.5zM6.667 20.333v-1.666h1.666a1.667 1.667 0 000-3.334H6.667v-1.666a1.667 1.667 0 00-3.334 0v1.666H1.667a1.667 1.667 0 000 3.334h1.666v1.666a1.667 1.667 0 003.334 0zM8.667 7.667h1.667v1.666a1.667 1.667 0 003.333 0V7.667h1.667a1.667 1.667 0 000-3.334h-1.667V2.667a1.667 1.667 0 00-3.333 0v1.666H8.667a1.667 1.667 0 000 3.334zM20.667 10.333h1.666v1.334c0 .736.747 1.333 1.667 1.333s1.667-.597 1.667-1.333v-1.334h1.666C28.254 10.333 29 9.736 29 9s-.747-1.333-1.666-1.333h-1.667V6.333C25.667 5.597 24.92 5 24 5s-1.666.597-1.666 1.333v1.334h-1.667C19.747 7.667 19 8.264 19 9s.747 1.333 1.667 1.333zM32.667 6.667h1.666v1.666a1.667 1.667 0 003.334 0V6.667h1.666a1.667 1.667 0 000-3.334h-1.666V1.667a1.667 1.667 0 00-3.334 0v1.666h-1.666a1.667 1.667 0 000 3.334zM46.667 13.667h-1.334v-1.334a1.334 1.334 0 00-2.666 0v1.334h-1.334a1.334 1.334 0 000 2.666h1.334v1.334a1.334 1.334 0 002.666 0v-1.334h1.334a1.334 1.334 0 000-2.666z" fill="#253238"/></svg>