<svg width="48" height="28" fill="none" viewBox="0 0 48 28" xmlns="http://www.w3.org/2000/svg"><path fill-rule="evenodd" clip-rule="evenodd" d="M44.45 20.426c0 .932-.758 1.69-1.69 1.69h-2.34c-.377-2.237-2.316-3.95-4.658-3.95-2.343 0-4.281 1.713-4.659 3.95H15.935c-.378-2.237-2.316-3.95-4.659-3.95-2.342 0-4.28 1.713-4.658 3.95H4.959c-.4-.033-1.314-1.29-1.64-2.118l-.017-.056c-.011-.034-1.052-3.43 2.575-6.02 1.534-1.096 3.869-2.025 6.344-3.001.196.085.41.137.635.137h9.478a1.58 1.58 0 000-3.16H19.12c1.44-.754 2.854-1.614 4.179-2.634C26.03 3.16 28.84 3.16 31.813 3.16h1.58c2.471 0 3.745 1.102 6.756 4.25 2.175 2.275 3.379 5.062 3.927 6.808H41.29a1.58 1.58 0 000 3.159h3.16v3.049zm-8.688 4.06c-.87 0-1.58-.71-1.58-1.58 0-.87.71-1.58 1.58-1.58.87 0 1.58.71 1.58 1.58 0 .87-.71 1.58-1.58 1.58zm-24.486 0c-.87 0-1.58-.71-1.58-1.58 0-.87.71-1.58 1.58-1.58.87 0 1.58.71 1.58 1.58 0 .87-.71 1.58-1.58 1.58zM42.433 5.227C39.333 1.986 37.24 0 33.393 0h-1.58c-3.215 0-6.857 0-10.442 2.76-3.068 2.361-6.858 3.857-10.199 5.178-2.704 1.068-5.259 2.076-7.134 3.414C-1.444 15.27.22 20.682.294 20.909l.024-.006c.41 1.312 2.077 4.372 4.64 4.372h2.238c.823 1.41 2.335 2.37 4.08 2.37 1.746 0 3.258-.96 4.08-2.37h16.325c.823 1.41 2.335 2.37 4.08 2.37 1.746 0 3.258-.96 4.081-2.37h2.918a4.855 4.855 0 004.85-4.85v-4.628c0-1.518-1.49-6.714-5.177-10.57z" fill="#253238"/></svg>