<svg width="48" height="48" viewBox="0 0 48 48" fill="none" xmlns="http://www.w3.org/2000/svg"><path fill-rule="evenodd" clip-rule="evenodd" d="M36.138 27.93c0 .59-.48 1.07-1.07 1.07h-1.481a2.997 2.997 0 00-2.95-2.5A2.997 2.997 0 0027.69 29h-9.602a2.997 2.997 0 00-2.95-2.5A2.997 2.997 0 0012.19 29h-1.05c-.253-.02-.832-.817-1.038-1.34l-.011-.036c-.007-.022-.666-2.17 1.63-3.81.97-.695 2.449-1.283 4.016-1.9.124.053.259.086.402.086h6a1 1 0 000-2h-2.035a18.09 18.09 0 002.645-1.668C24.478 17 26.256 17 28.138 17h1c1.565 0 2.37.698 4.277 2.691 1.377 1.44 2.139 3.204 2.486 4.31h-1.763a1 1 0 000 2h2v1.93zm-5.5 2.57c-.551 0-1-.449-1-1 0-.55.449-1 1-1 .55 0 1 .45 1 1 0 .551-.45 1-1 1zm-15.5 0c-.551 0-1-.449-1-1 0-.55.449-1 1-1 .55 0 1 .45 1 1 0 .551-.45 1-1 1zM34.86 18.31C32.899 16.256 31.574 15 29.138 15h-1c-2.035 0-4.34 0-6.61 1.747-1.942 1.495-4.341 2.442-6.456 3.278-1.712.676-3.33 1.314-4.516 2.161-3.47 2.48-2.417 5.906-2.37 6.05l.015-.004C8.46 29.063 9.516 31 11.138 31h1.417a2.993 2.993 0 002.583 1.5A2.993 2.993 0 0017.72 31h10.334a2.993 2.993 0 002.583 1.5A2.993 2.993 0 0033.22 31h1.847a3.073 3.073 0 003.07-3.07V25c0-.96-.943-4.25-3.277-6.69z" fill="#253238"/></svg>