<svg width="48" height="32" fill="none" viewBox="0 0 48 32" xmlns="http://www.w3.org/2000/svg"><path fill-rule="evenodd" clip-rule="evenodd" d="M36.032 3.073C40.977 3.073 45 7.194 45 12.26v6.179h-1.5c-.828 0-1.5.688-1.5 1.537 0 .848.672 1.536 1.5 1.536H45v2.966c0 .906-.72 1.644-1.605 1.644h-2.221c-.359-2.176-2.2-3.841-4.424-3.841s-4.065 1.665-4.423 3.841H14.174c-.359-2.176-2.2-3.841-4.424-3.841s-4.065 1.665-4.423 3.841h-.722C3.72 26.122 3 25.384 3 24.478v-6.96c0-.675.396-1.275 1.01-1.525l4.956-2.032c.087-.035.163-.09.247-.132H18c.828 0 1.5-.688 1.5-1.536 0-.848-.672-1.537-1.5-1.537h-5.379l.108-.11c4.767-4.884 11.105-7.573 17.846-7.573h5.457zm.718 25.354c-.826 0-1.5-.69-1.5-1.537 0-.846.674-1.536 1.5-1.536.827 0 1.5.69 1.5 1.536 0 .847-.673 1.537-1.5 1.537zm-27 0c-.826 0-1.5-.69-1.5-1.537 0-.846.674-1.536 1.5-1.536.827 0 1.5.69 1.5 1.536 0 .847-.673 1.537-1.5 1.537zm.858-19.954L8.39 10.745c-.155.159-.335.28-.539.363l-4.956 2.031C1.135 13.86 0 15.58 0 17.52v6.959c0 2.601 2.066 4.717 4.605 4.717h1.27c.782 1.37 2.218 2.305 3.875 2.305 1.658 0 3.093-.934 3.875-2.305h19.25c.782 1.37 2.218 2.305 3.875 2.305 1.658 0 3.093-.934 3.875-2.305h2.77c2.54 0 4.605-2.116 4.605-4.717V12.26C48 5.501 42.63 0 36.032 0h-5.457c-7.542 0-14.633 3.009-19.967 8.473z" fill="#253238"/></svg>