<svg width="48" height="48" viewBox="0 0 48 48" fill="none" xmlns="http://www.w3.org/2000/svg"><path fill-rule="evenodd" clip-rule="evenodd" d="M30.021 16.049c3.297 0 5.979 2.747 5.979 6.125v4.119h-1c-.552 0-1 .459-1 1.024 0 .566.448 1.024 1 1.024h1v1.977c0 .605-.48 1.097-1.07 1.097h-1.481c-.239-1.45-1.466-2.561-2.949-2.561-1.483 0-2.71 1.11-2.949 2.56H15.449c-.239-1.45-1.466-2.56-2.949-2.56-1.483 0-2.71 1.11-2.949 2.56H9.07c-.59 0-1.07-.491-1.07-1.096V25.68c0-.45.264-.85.673-1.017l3.304-1.354c.058-.024.109-.06.165-.088H18c.552 0 1-.46 1-1.025s-.448-1.024-1-1.024h-3.586l.072-.074c3.178-3.256 7.403-5.048 11.897-5.048h3.638zM30.5 32.95c-.551 0-1-.46-1-1.024 0-.565.449-1.025 1-1.025.551 0 1 .46 1 1.025 0 .564-.449 1.024-1 1.024zm-18 0c-.551 0-1-.46-1-1.024 0-.565.449-1.025 1-1.025.551 0 1 .46 1 1.025 0 .564-.449 1.024-1 1.024zm.572-13.303l-1.479 1.516a1.05 1.05 0 01-.359.241L7.93 22.76C6.757 23.24 6 24.386 6 25.68v4.639c0 1.734 1.377 3.144 3.07 3.144h.847C10.438 34.377 11.395 35 12.5 35c1.105 0 2.062-.623 2.583-1.537h12.834C28.438 34.377 29.395 35 30.5 35c1.105 0 2.062-.623 2.583-1.537h1.847c1.693 0 3.07-1.41 3.07-3.145v-8.144C38 17.667 34.42 14 30.021 14h-3.638c-5.028 0-9.755 2.006-13.311 5.648z" fill="#253238"/></svg>