<svg width="48" height="48" viewBox="0 0 48 48" fill="none" xmlns="http://www.w3.org/2000/svg"><path fill-rule="evenodd" clip-rule="evenodd" d="M38 31.852c0 .22-.179.148-.398.148h-1.519c-.521-1-1.478-1.375-2.583-1.375-1.006 0-1.892.564-2.437 1.326-.022-.002-.041.049-.063.049h-3V21h1.025c.317 0 .612.267.811.513l3.175 3.982.197.216c.223.16.467.299.723.383l3.561 1.196a.75.75 0 01.508.712v3.85zm-4.5 2.898a1.001 1.001 0 010-2 1.001 1.001 0 010 2zM24 32h2V21h-2v11zm-6 0c-.022 0-.041.012-.063.013-.545-.761-1.431-1.388-2.437-1.388-1.105 0-2.062.375-2.583 1.375h-2.174c-.41 0-.743-.083-.743-.493v-3.505c0-.322.204-.608.422-.684l4.733-1.126c.087-.03.157-.054.331-.192H19a1 1 0 100-2h-1.389c.636-.62 1.445-1.54 2.502-2.582.192-.19.447-.418.718-.418H22v11h-4zm-2.5 2.75a1.001 1.001 0 010-2 1.001 1.001 0 010 2zm2.62-21.967A2.657 2.657 0 0120.009 12a2.66 2.66 0 011.89.783c.667.668 1.142 3.106 1.349 5.129-2.022-.206-4.459-.681-5.128-1.35a2.675 2.675 0 010-3.78zm9.981 0a2.66 2.66 0 011.89-.783 2.675 2.675 0 011.889 4.562c-.667.668-3.106 1.143-5.128 1.349.206-2.021.68-4.46 1.349-5.128zM38.125 25.4l-3.564-1.19a.677.677 0 01-.1-.04l-3.07-3.791a3.018 3.018 0 00-1.404-.955c1.331-.304 2.62-.76 3.307-1.447a4.678 4.678 0 000-6.608 4.641 4.641 0 00-3.303-1.37 4.644 4.644 0 00-3.304 1.37c-.898.898-1.404 2.823-1.687 4.529-.283-1.707-.789-3.631-1.687-4.53A4.644 4.644 0 0020.009 10a4.641 4.641 0 00-3.303 1.369 4.678 4.678 0 000 6.608c.671.67 1.918 1.122 3.217 1.426a2.993 2.993 0 00-1.214.716 321.119 321.119 0 01-4.056 3.952.982.982 0 00-.402.284l-4.376 1.04A2.743 2.743 0 008 28.003v3.505C8 33.02 9.23 34 10.743 34h1.808c.239 2 1.466 2.625 2.949 2.625 1.569 0 2.845-1.09 2.975-2.625h12.05c.13 1.536 1.406 2.625 2.975 2.625 1.483 0 2.71-.625 2.949-2.625h1.153C38.924 34 40 33.174 40 31.852v-3.85a2.74 2.74 0 00-1.875-2.602z" fill="#253238"/></svg>