<svg width="49" height="40" fill="none" viewBox="0 0 49 40" xmlns="http://www.w3.org/2000/svg"><path fill-rule="evenodd" clip-rule="evenodd" d="M45.07 32.83c0 .33-.268.222-.597.222H42.19c-.783-1.503-2.221-2.066-3.881-2.066-1.511 0-2.843.847-3.661 1.992-.033-.003-.062.074-.095.074h-4.507V16.526h1.54c.476 0 .92.401 1.218.77l4.77 5.983.296.324c.335.24.702.45 1.087.576l5.35 1.797c.456.151.763.588.763 1.07v5.783zm-6.76 4.353a1.504 1.504 0 01-1.502-1.502c0-.828.674-1.503 1.502-1.503s1.502.675 1.502 1.503c0 .829-.674 1.502-1.502 1.502zm-14.272-4.131h3.004V16.526h-3.004v16.526zm-9.014 0c-.033 0-.062.018-.095.02-.819-1.144-2.15-2.086-3.661-2.086-1.66 0-3.098.563-3.88 2.066H4.12c-.616 0-1.116-.125-1.116-.741v-5.266c0-.484.306-.913.634-1.027l7.11-1.692c.131-.044.236-.081.498-.288h5.279a1.502 1.502 0 100-3.005h-2.087c.956-.932 2.171-2.314 3.759-3.88.288-.283.672-.627 1.079-.627h1.756v16.526h-6.01zm-3.756 4.131a1.504 1.504 0 01-1.503-1.502c0-.828.675-1.503 1.503-1.503a1.504 1.504 0 010 3.005zm3.936-33.002a3.992 3.992 0 012.838-1.176c1.072 0 2.08.419 2.84 1.176 1.001 1.004 1.715 4.666 2.026 7.706-3.038-.31-6.699-1.024-7.704-2.029a4.019 4.019 0 010-5.677zm14.995 0a3.995 3.995 0 012.84-1.176c1.072 0 2.078.419 2.837 1.176a4.019 4.019 0 010 5.677c-1.002 1.004-4.666 1.718-7.704 2.027.31-3.036 1.022-6.699 2.027-7.704zm15.06 18.955l-5.355-1.786a1.03 1.03 0 01-.15-.062l-4.612-5.695c-.556-.688-1.296-1.162-2.11-1.435 2-.457 3.936-1.142 4.969-2.174a7.027 7.027 0 000-9.927A6.973 6.973 0 0033.038 0a6.977 6.977 0 00-4.963 2.057c-1.35 1.349-2.11 4.24-2.535 6.804-.425-2.565-1.185-5.455-2.534-6.804A6.977 6.977 0 0018.042 0a6.973 6.973 0 00-4.962 2.057 7.027 7.027 0 000 9.927c1.008 1.008 2.881 1.686 4.833 2.143a4.496 4.496 0 00-1.824 1.075c-3.308 3.26-5.203 5.096-6.094 5.938-.239.088-.44.237-.604.426L2.817 23.13A4.12 4.12 0 000 27.045v5.266c0 2.273 1.848 3.745 4.121 3.745h2.716C7.197 39.061 9.04 40 11.267 40c2.358 0 4.275-1.636 4.47-3.944H33.84C34.036 38.364 35.953 40 38.31 40c2.228 0 4.071-.939 4.43-3.944h1.733c1.986 0 3.602-1.24 3.602-3.227v-5.784a4.115 4.115 0 00-2.817-3.909z" fill="#253238"/></svg>