<svg width="48" height="48" viewBox="0 0 48 48" fill="none" xmlns="http://www.w3.org/2000/svg"><g fill-rule="evenodd" clip-rule="evenodd" fill="#253238"><path d="M31.5 29.5c1.103 0 2 .897 2 2s-.897 2-2 2-2-.897-2-2 .897-2 2-2zM28 29h-8a.97.97 0 00-.345.07A3.98 3.98 0 0016.5 27.5c-2.034 0-3.7 1.532-3.949 3.5h-.465A2.089 2.089 0 0110 28.914v-3.438c0-.985.672-1.823 1.634-2.037l2.161-.48c.069.014.132.041.205.041h7a1 1 0 000-2h-2.077c.241-.271.459-.564.624-.894l2.568-5A2.032 2.032 0 0123.928 14H33.1c.774 0 1.493.45 1.832 1.146l1.771 3.636c.194.323.297.695.297 1.073v8.653c0 .95-.663 2.057-1.561 2.386-.295-1.917-1.941-3.394-3.939-3.394a3.98 3.98 0 00-3.155 1.57A.97.97 0 0028 29zm-11.5 4.5c-1.103 0-2-.897-2-2s.897-2 2-2 2 .897 2 2-.897 2-2 2zm18.71-.524c2.246-.186 3.79-2.433 3.79-4.468V28a1 1 0 000-2v-5a1 1 0 000-2h-.098a3.741 3.741 0 00-.443-1.17l-1.729-3.558A4.06 4.06 0 0033.1 12h-9.172c-1.52 0-2.896.84-3.592 2.192l-2.573 5.01c-.291.582-.82 1.008-1.414 1.141L11.2 21.487A4.062 4.062 0 008 25.476v3.438A4.09 4.09 0 0012.086 33h.712a4.001 4.001 0 003.702 2.5c2.206 0 4-1.794 4-4 0-.171-.03-.334-.051-.5h7.102c-.021.166-.051.329-.051.5 0 2.206 1.794 4 4 4a4 4 0 003.71-2.524z"/><path d="M29 23v-5a1 1 0 00-2 0v5a1 1 0 002 0z"/></g></svg>