<svg width="49" height="36" fill="none" xmlns="http://www.w3.org/2000/svg"><path fill-rule="evenodd" clip-rule="evenodd" d="M35.375 26.343c1.66 0 3.01 1.35 3.01 3.01 0 1.661-1.35 3.011-3.01 3.011-1.66 0-3.01-1.35-3.01-3.01 0-1.66 1.35-3.01 3.01-3.01zm-5.268-.753H18.064a1.46 1.46 0 00-.52.106c-1.101-1.427-2.81-2.364-4.749-2.364-3.061 0-5.57 2.307-5.944 5.27h-.7a3.144 3.144 0 01-3.14-3.141v-5.175a3.124 3.124 0 012.46-3.067l3.252-.722c.104.02.2.061.309.061h10.537a1.506 1.506 0 000-3.01h-3.126c.362-.408.69-.85.939-1.346l3.866-7.526a3.058 3.058 0 012.729-1.665h13.807c1.165 0 2.247.677 2.757 1.725l2.666 5.473c.292.486.447 1.046.447 1.615V24.85c0 1.43-.998 3.096-2.35 3.591-.444-2.885-2.921-5.109-5.929-5.109-1.939 0-3.647.937-4.75 2.364a1.459 1.459 0 00-.518-.106zm-17.312 6.774c-1.66 0-3.01-1.35-3.01-3.01 0-1.66 1.35-3.01 3.01-3.01 1.66 0 3.011 1.35 3.011 3.01 0 1.66-1.35 3.01-3.01 3.01zm28.165-.788c3.38-.28 5.705-3.663 5.705-6.726v-.765a1.506 1.506 0 000-3.01v-7.527a1.506 1.506 0 000-3.01h-.148c-.135-.645-.356-1.253-.666-1.762L43.248 3.42A6.111 6.111 0 0037.784 0H23.977a6.059 6.059 0 00-5.407 3.3l-3.873 7.541c-.438.876-1.235 1.518-2.129 1.718l-7.75 1.722A6.115 6.115 0 000 20.286v5.175c0 3.391 2.76 6.15 6.15 6.15h1.073c.895 2.203 3.05 3.764 5.572 3.764 3.321 0 6.022-2.7 6.022-6.021 0-.258-.046-.503-.077-.753h10.69c-.031.25-.076.495-.076.753 0 3.32 2.7 6.021 6.021 6.021 2.534 0 4.697-1.578 5.585-3.8zm-9.348-15.018V9.032a1.506 1.506 0 00-3.01 0v7.526a1.506 1.506 0 003.01 0z" fill="#253238"/></svg>