<svg width="48" height="13" fill="none" viewBox="0 0 48 13" xmlns="http://www.w3.org/2000/svg"><path fill-rule="evenodd" clip-rule="evenodd" d="M6 0C2.687 0 0 2.786 0 6.222c0 3.436 2.687 6.222 6 6.222 3.314 0 6-2.786 6-6.222C12 2.786 9.314 0 6 0zm0 3.111c1.655 0 3 1.395 3 3.111 0 1.716-1.345 3.111-3 3.111-1.654 0-3-1.395-3-3.11C3 4.505 4.346 3.11 6 3.11zM24 0c-3.313 0-6 2.786-6 6.222 0 3.436 2.687 6.222 6 6.222 3.314 0 6-2.786 6-6.222C30 2.786 27.314 0 24 0zm0 3.111c1.655 0 3 1.395 3 3.111 0 1.716-1.345 3.111-3 3.111-1.654 0-3-1.395-3-3.11 0-1.717 1.346-3.112 3-3.112zM42 0c-3.313 0-6 2.786-6 6.222 0 3.436 2.687 6.222 6 6.222 3.314 0 6-2.786 6-6.222C48 2.786 45.314 0 42 0zm0 3.111c1.655 0 3 1.395 3 3.111 0 1.716-1.345 3.111-3 3.111-1.654 0-3-1.395-3-3.11 0-1.717 1.346-3.112 3-3.112z" fill="#253238"/></svg>