<svg width="48" height="48" viewBox="0 0 48 48" fill="none" xmlns="http://www.w3.org/2000/svg"><path fill-rule="evenodd" clip-rule="evenodd" d="M13.375 20C11.511 20 10 21.567 10 23.5s1.511 3.5 3.375 3.5 3.375-1.567 3.375-3.5-1.511-3.5-3.375-3.5zm0 1.75c.93 0 1.688.785 1.688 1.75s-.757 1.75-1.688 1.75c-.93 0-1.688-.785-1.688-1.75s.757-1.75 1.688-1.75zM23.5 20c-1.864 0-3.375 1.567-3.375 3.5S21.636 27 23.5 27s3.375-1.567 3.375-3.5S25.364 20 23.5 20zm0 1.75c.93 0 1.688.785 1.688 1.75s-.757 1.75-1.688 1.75c-.93 0-1.688-.785-1.688-1.75s.757-1.75 1.688-1.75zM33.625 20c-1.864 0-3.375 1.567-3.375 3.5s1.511 3.5 3.375 3.5S37 25.433 37 23.5 35.489 20 33.625 20zm0 1.75c.93 0 1.688.785 1.688 1.75s-.757 1.75-1.688 1.75c-.93 0-1.688-.785-1.688-1.75s.757-1.75 1.688-1.75z" fill="#253238"/></svg>