<svg width="48" height="48" viewBox="0 0 48 48" fill="none" xmlns="http://www.w3.org/2000/svg"><path fill-rule="evenodd" clip-rule="evenodd" d="M20.831 17h8.194c.317 0 .612.141.811.387l3.175 3.92.197.185c.223.159.467.283.723.367l3.561 1.188a.74.74 0 01.508.704v3.851a.399.399 0 01-.398.398h-1.519a2.993 2.993 0 00-2.583-1.5 2.991 2.991 0 00-2.583 1.5H18.083a2.993 2.993 0 00-2.583-1.5 2.991 2.991 0 00-2.583 1.5h-2.174a.743.743 0 01-.743-.743v-3.506c0-.322.204-.607.422-.684l4.528-1.077c.018.001.032.01.05.01h5a1 1 0 000-2h-2.646c.668-.65 1.556-1.521 2.76-2.707.191-.189.446-.293.717-.293zm12.67 13.5c-.552 0-1-.449-1-1 0-.551.448-1 1-1 .55 0 1 .449 1 1 0 .551-.45 1-1 1zm-18 0c-.552 0-1-.449-1-1 0-.551.448-1 1-1 .55 0 1 .449 1 1 0 .551-.45 1-1 1zm-1.12-10.426l-4.506 1.072A2.742 2.742 0 008 23.751v3.506A2.745 2.745 0 0010.743 30h1.807a2.999 2.999 0 002.95 2.5 2.997 2.997 0 002.95-2.5h12.1a2.999 2.999 0 002.95 2.5 2.997 2.997 0 002.95-2.5h1.152A2.401 2.401 0 0040 27.602v-3.851a2.74 2.74 0 00-1.876-2.602l-3.564-1.188a.613.613 0 01-.099-.042l-3.07-3.791A3.032 3.032 0 0029.025 15h-8.194c-.8 0-1.554.309-2.122.869-2.613 2.574-3.913 3.827-4.328 4.205z" fill="#253238"/></svg>