<svg width="48" height="27" fill="none" viewBox="0 0 48 27" xmlns="http://www.w3.org/2000/svg"><path fill-rule="evenodd" clip-rule="evenodd" d="M19.247 3h12.29c.476 0 .919.212 1.217.58l4.763 5.88.295.278c.335.239.7.425 1.085.55l5.341 1.782c.456.152.762.576.762 1.056v5.777a.599.599 0 01-.597.597h-2.278c-.782-1.338-2.217-2.25-3.875-2.25-1.659 0-3.093.912-3.874 2.25H15.125c-.782-1.338-2.217-2.25-3.875-2.25-1.659 0-3.093.912-3.874 2.25H4.115C3.5 19.5 3 19 3 18.386v-5.26c0-.482.306-.91.633-1.025l6.792-1.616c.027.002.048.015.075.015H18a1.5 1.5 0 000-3h-3.969a923.828 923.828 0 004.139-4.06c.288-.284.67-.44 1.077-.44zM38.25 23.25c-.826 0-1.5-.674-1.5-1.5s.674-1.5 1.5-1.5c.827 0 1.5.674 1.5 1.5s-.673 1.5-1.5 1.5zm-27 0c-.826 0-1.5-.674-1.5-1.5s.674-1.5 1.5-1.5c.827 0 1.5.674 1.5 1.5s-.673 1.5-1.5 1.5zM9.572 7.611l-6.76 1.608A4.113 4.113 0 000 13.127v5.258A4.118 4.118 0 004.115 22.5h2.71c.36 2.124 2.2 3.75 4.425 3.75 2.225 0 4.065-1.626 4.424-3.75h18.151c.36 2.124 2.2 3.75 4.425 3.75 2.225 0 4.065-1.626 4.424-3.75h1.73A3.602 3.602 0 0048 18.903v-5.776a4.11 4.11 0 00-2.814-3.904L39.84 7.441a.919.919 0 01-.148-.063l-4.605-5.686A4.548 4.548 0 0031.537 0h-12.29c-1.2 0-2.331.464-3.183 1.304-3.92 3.86-5.87 5.74-6.492 6.307z" fill="#253238"/></svg>