<svg width="48" height="48" fill="none" xmlns="http://www.w3.org/2000/svg"><path fill-rule="evenodd" clip-rule="evenodd" d="M45 41.977A3.028 3.028 0 0141.976 45H6.024A3.028 3.028 0 013 41.977V6.023a3.026 3.026 0 013.024-3.022h35.952A3.026 3.026 0 0145 6.022v35.954zM41.976 0H6.024A6.023 6.023 0 000 6.023v35.953A6.024 6.024 0 006.024 48h35.952A6.024 6.024 0 0048 41.976V6.023A6.023 6.023 0 0041.976 0z" fill="#253238"/><path fill-rule="evenodd" clip-rule="evenodd" d="M25.5 37.411V36a1.5 1.5 0 00-3 0v1.411c-6.74-.75-12-6.475-12-13.411s5.26-12.662 12-13.412V12a1.5 1.5 0 003 0v-1.412c6.74.75 12 6.476 12 13.412 0 6.936-5.26 12.661-12 13.411zM24 7.5C14.903 7.5 7.5 14.902 7.5 24c0 9.097 7.403 16.5 16.5 16.5 9.098 0 16.5-7.403 16.5-16.5 0-9.098-7.402-16.5-16.5-16.5z" fill="#253238"/><path fill-rule="evenodd" clip-rule="evenodd" d="M18 19c-.552 0-1 .747-1 1.667v6.666c0 .92.448 1.667 1 1.667s1-.747 1-1.667v-6.666c0-.92-.448-1.667-1-1.667zM30 19c-.552 0-1 .747-1 1.667v6.666c0 .92.448 1.667 1 1.667s1-.747 1-1.667v-6.666c0-.92-.448-1.667-1-1.667z" fill="#253238"/></svg>