<svg width="48" height="48" viewBox="0 0 48 48" fill="none" xmlns="http://www.w3.org/2000/svg"><path fill-rule="evenodd" clip-rule="evenodd" d="M21.857 16H36.93c.59 0 1.07.48 1.07 1.07V26h-1a1 1 0 100 2h1v1.93c0 .59-.48 1.07-1.07 1.07h-1.48a2.998 2.998 0 00-2.95-2.5 2.998 2.998 0 00-2.95 2.5h-12.1a2.998 2.998 0 00-2.95-2.5 2.998 2.998 0 00-2.95 2.5h-.48c-.59 0-1.07-.48-1.07-1.07v-4.529c0-.44.264-.83.672-.993l3.304-1.322c.06-.023.11-.059.166-.086H20a1 1 0 000-2h-3.586l4.686-4.687c.2-.199.475-.313.757-.313zM32.5 32.5a1.001 1.001 0 010-2c.551 0 1 .449 1 1 0 .551-.449 1-1 1zm-18 0a1.001 1.001 0 010-2c.551 0 1 .449 1 1 0 .551-.449 1-1 1zm-.907-11.507a1.057 1.057 0 01-.36.236L9.93 22.551A3.055 3.055 0 008 25.401v4.529A3.073 3.073 0 0011.07 33h.847a2.99 2.99 0 002.583 1.5 2.99 2.99 0 002.582-1.5h12.835a2.99 2.99 0 002.583 1.5 2.99 2.99 0 002.582-1.5h1.848A3.073 3.073 0 0040 29.93V17.07A3.073 3.073 0 0036.93 14H21.857c-.808 0-1.6.328-2.17.899l-6.094 6.094z" fill="#253238"/></svg>