<svg width="48" height="31" fill="none" viewBox="0 0 48 31" xmlns="http://www.w3.org/2000/svg"><path fill-rule="evenodd" clip-rule="evenodd" d="M20.786 3h22.61C44.28 3 45 3.72 45 4.605V18h-1.5a1.5 1.5 0 100 3H45v2.895c0 .885-.72 1.605-1.605 1.605h-2.221c-.36-2.124-2.2-3.75-4.424-3.75-2.226 0-4.065 1.626-4.425 3.75H14.174c-.36-2.124-2.2-3.75-4.424-3.75-2.226 0-4.065 1.626-4.425 3.75h-.721C3.72 25.5 3 24.78 3 23.895v-6.793c0-.66.396-1.245 1.008-1.49l4.956-1.983c.089-.034.164-.088.25-.129H18a1.5 1.5 0 000-3h-5.379l7.03-7.03c.298-.299.712-.47 1.135-.47zM36.75 27.75c-.828 0-1.5-.674-1.5-1.5s.672-1.5 1.5-1.5c.827 0 1.5.674 1.5 1.5s-.673 1.5-1.5 1.5zm-27 0c-.828 0-1.5-.674-1.5-1.5s.672-1.5 1.5-1.5c.827 0 1.5.674 1.5 1.5s-.673 1.5-1.5 1.5zM8.39 10.49a1.585 1.585 0 01-.54.354l-4.956 1.982A4.583 4.583 0 000 17.102v6.793A4.61 4.61 0 004.604 28.5h1.272c.78 1.338 2.215 2.25 3.874 2.25 1.658 0 3.093-.912 3.873-2.25h19.253c.78 1.338 2.215 2.25 3.874 2.25 1.658 0 3.093-.912 3.873-2.25h2.772A4.61 4.61 0 0048 23.895V4.605A4.61 4.61 0 0043.395 0h-22.61a4.64 4.64 0 00-3.256 1.349l-9.14 9.14z" fill="#253238"/></svg>