<svg width="158" height="167" fill="none" xmlns="http://www.w3.org/2000/svg"><path d="M109.1 25.7c0-13.1 10.6-23.7 23.7-23.7s23.7 10.6 23.7 23.7c0 25.7-17 39.5-23.7 39.5-8.8 0-23.7-11.8-23.7-39.5zM132.6 71.5a3 3 0 100-6 3 3 0 000 6zM131.1 72c-9.6 18.2 7.8 27.4-1.8 45.6-9.6 18.2-27.1 8.9-36.7 27.1" stroke="#CFD8DC" stroke-width="3" stroke-miterlimit="10" stroke-linecap="round" stroke-linejoin="round"/><path d="M2 165h102.6" stroke="#F9FAFA" stroke-width="3" stroke-miterlimit="10" stroke-linecap="round" stroke-linejoin="round"/><path d="M37.7 152.2V163M74.5 152.6v10.8" stroke="#B0BEC5" stroke-width="3" stroke-miterlimit="10" stroke-linecap="round" stroke-linejoin="round"/><path d="M40.5 66.7c1.3 0 2.3 1 2.3 2.3 0 1.3-1.1 2.3-2.3 2.3-1.2 0-2.3-1.1-2.3-2.3-.1-1.2 1-2.3 2.3-2.3zM70.6 69c0-1.3 1-2.3 2.3-2.3 1.3 0 2.3 1.1 2.3 2.3 0 1.3-1 2.3-2.3 2.3-1.2.1-2.3-1-2.3-2.3z" fill="#B0BEC5" stroke="#B0BEC5"/><path d="M29.7 106.7c-10.2 11.3-32 8.2-26.9-18M56.1 106.7c22.4 0 40.5-18.1 40.5-40.5S78.5 25.7 56.1 25.7 15.6 43.8 15.6 66.2s18.1 40.5 40.5 40.5z" stroke="#B0BEC5" stroke-width="3" stroke-miterlimit="10" stroke-linecap="round" stroke-linejoin="round"/><path d="M33.5 99.9c-5.3 8-8.6 18.7-8.6 30.5 0 13.9 11.2 25.2 25.2 25.2h12.5c14 0 25.2-11.3 25.2-25.2 0-11.8-3.3-22.6-8.6-30.5M53.3 74.8c2 1.1 5.2 1.1 7.2 0M79.2 99.9s13.6 14.3 13.6 45" stroke="#B0BEC5" stroke-width="3" stroke-miterlimit="10" stroke-linecap="round" stroke-linejoin="round"/><path d="M144.7 25.9c-.2-.7-.8-1.1-1.5-1.1h-5.5c-.8-.1-1.6-.6-1.9-1.4l-1.7-5.1c-.2-.7-.8-1.1-1.5-1.1s-1.3.4-1.5 1.1l-1.7 5.1c-.3.8-1 1.3-1.9 1.4H122c-.7 0-1.3.4-1.5 1.1-.2.7 0 1.4.6 1.8l4.2 3.1c.6.4 1 1.1 1 1.8 0 .2 0 .4-.1.6l-1.6 5.1c-.2.7 0 1.4.6 1.8.6.4 1.3.4 1.9 0l4.3-3.1c.4-.2.8-.4 1.3-.4s.9.1 1.2.4l4.3 3.1c.3.2.6.3.9.3.3 0 .7-.1.9-.3.6-.4.8-1.1.6-1.8l-1.6-5c-.1-.2-.1-.4-.1-.6 0-.7.3-1.4.9-1.8l4.3-3.1c.6-.5.9-1.2.6-1.9z" stroke="#FFE37F" stroke-width="3" stroke-miterlimit="10" stroke-linecap="round"/><path d="M117.1 165h38.1" stroke="#F9FAFA" stroke-width="3" stroke-miterlimit="10" stroke-linecap="round" stroke-linejoin="round"/></svg>