<svg width="300" height="260" fill="none" xmlns="http://www.w3.org/2000/svg">
  <path
    d="M86.002 191.9s-2-1.88-2-3.48a4.14 4.14 0 0 1 7.1-2.74 5.005 5.005 0 0 1 3.52-4.06 4.675 4.675 0 0 1 5 1.94 8.776 8.776 0 0 1 .91 4.52c0 1.46.08 3.37.08 3.37"
    stroke="#FD6C67" stroke-width="3" stroke-linecap="round" stroke-linejoin="round"/>
  <path
    d="M72.342 191.631a5.489 5.489 0 0 1 1-3.79 5.626 5.626 0 0 1 1.96-1.84 4.237 4.237 0 0 1 4.32.17 7.068 7.068 0 0 1 2.92-3.82 5.226 5.226 0 0 1 4.69-.44c1.5.65 2.43 2.85 2.43 2.85m6.498-3.311a8.838 8.838 0 0 1 6-3.77c2.42-.23 5.05 1.2 5.68 3.55a9.641 9.641 0 0 1 4.4-2 5.144 5.144 0 0 1 4.48 1.44 3.552 3.552 0 0 1 .27 4.48 5.71 5.71 0 0 1 9.5 5.48"
    stroke="#FD6C67" stroke-width="3" stroke-linecap="round" stroke-linejoin="round"/>
  <path
    d="M130.521 192.201a6.068 6.068 0 0 0-3.89-6.41 5.517 5.517 0 0 0-5.7 1.25c-1 .85-2 3-1.47 4.59m-8.04.269s-4.86-3.78-6.71-5.05l5.77-3a7.25 7.25 0 0 1 2.92-1 2.467 2.467 0 0 1 2.5 1.47 2.38 2.38 0 0 1-.37 2 6.142 6.142 0 0 1-1.5 1.47 2.683 2.683 0 0 1 .871 3.486 2.68 2.68 0 0 1-.871.964"
    stroke="#FD6C67" stroke-width="3" stroke-linecap="round" stroke-linejoin="round"/>
  <path
    d="M135.841 204.25v35.17a2.507 2.507 0 0 1-2.51 2.51h-63.62a2.495 2.495 0 0 1-1.775-.735 2.505 2.505 0 0 1-.735-1.775v-35.17m45.57 37.68v-38.28m-10.29.6h-40.31a1.481 1.481 0 0 1-1.456-1.512c.006-.26.08-.515.216-.738l5-7.81a4.284 4.284 0 0 1 3.6-2h43.23l-6.34 9.89a4.683 4.683 0 0 1-3.94 2.17v0Z"
    stroke="#CFD8DC" stroke-width="3" stroke-linecap="round" stroke-linejoin="round"/>
  <path
    d="M122.541 204.25h17.8a1.474 1.474 0 0 0 1.29-.735 1.47 1.47 0 0 0-.01-1.485l-4.54-7.72a4.3 4.3 0 0 0-3.68-2.11h-20.63l5.73 9.74a4.697 4.697 0 0 0 4.04 2.31Z"
    stroke="#CFD8DC" stroke-width="3" stroke-linecap="round" stroke-linejoin="round"/>
  <path
    d="M152.731 111.45c1.38-5.3 2.68-11.38 6.94-14.83 2.73-2.21 6.25-3.18 9.71-3.74a51.412 51.412 0 0 1 24.22 1.94c3.89 1.28 7.72 3.11 10.45 6.16a23.681 23.681 0 0 1 4.47 8.24c4.18 12.1 3.69 25.24 5.41 37.93a109.22 109.22 0 0 0 12.13 37.14c3.24 6 7 11.66 10 17.8 3 6.14 5 12.9 4.4 19.68-.6 6.78-3 12.95-9 16.08-4.52 2.34-8.79 3.08-16.09 3.08h-56.6c-7.79 0-13.39-1.73-18.39-6.33-4.26-3.92-6.44-10-7.54-15.66-1.8-9.21.13-18.69 2.1-27.86 5.71-26.66 10.93-53.31 17.79-79.63Z"
    fill="#385EF9" stroke="#385EF9" stroke-width="3" stroke-linecap="round" stroke-linejoin="round"/>
  <path opacity=".2"
        d="M240.43 221.77C241 215 239 208.23 236 202.09c-1.54-3.23-3.32-6.32-5.13-9.4a158.538 158.538 0 0 1-90 31.75c-2.21.07-4.43.07-6.64 0a24.005 24.005 0 0 0 6.11 10.2c5 4.6 10.6 6.33 18.39 6.33h56.6c7.3 0 11.57-.74 16.09-3.08 6.06-3.17 8.44-9.35 9.01-16.12Z"
        fill="#0B175E" stroke="#0B175E" stroke-width="3" stroke-linecap="round" stroke-linejoin="round"/>
  <path d="M59.47 241.93h181.061" stroke="#CFD8DC" stroke-width="3" stroke-linecap="round" stroke-linejoin="round"/>
  <path
    d="m185.281 118.87-7 .06a5.82 5.82 0 0 0-1.78.3c0 .32.05.64.05 1a18.447 18.447 0 0 1-2.25 8.84 5.836 5.836 0 0 0 4.09 1.61l7-.06a5.86 5.86 0 0 0-.11-11.71v-.04Z"
    fill="#0B175E" stroke="#0B175E" stroke-width="3" stroke-linecap="round" stroke-linejoin="round"/>
  <path fill-rule="evenodd" clip-rule="evenodd" d="M203.6 118.11a3.84 3.84 0 1 0-3.8 3.87 3.848 3.848 0 0 0 3.8-3.87Z"
        fill="#0B175E"/>
  <path
    d="M186.831 124.58c-2.39.14-4.91.32-6.9 1.63a8.814 8.814 0 0 0-3.21 4.2 5.455 5.455 0 0 0 1.68.23l7-.06a5.859 5.859 0 0 0 5.8-5.91.565.565 0 0 0 0-.13 31.709 31.709 0 0 0-4.37.04Z"
    fill="#385EF9" stroke="#0B175E" stroke-width="3" stroke-linecap="round" stroke-linejoin="round"/>
  <path
    d="M164.32 99a4.89 4.89 0 0 1 5.16.39m28.44 8.55a8.435 8.435 0 0 1 3.93-.09m-68.759 38.61 12.83-12.28a18.658 18.658 0 0 1-3.06-3.4l-12.34 11.8"
    stroke="#0B175E" stroke-width="3" stroke-linecap="round" stroke-linejoin="round"/>
  <path
    d="M158.041 138.71c10.229 0 18.52-8.291 18.52-18.52 0-10.228-8.291-18.52-18.52-18.52-10.228 0-18.52 8.292-18.52 18.52 0 10.229 8.292 18.52 18.52 18.52Z"
    fill="#385EF9" stroke="#0B175E" stroke-width="3" stroke-linecap="round" stroke-linejoin="round"/>
  <path fill-rule="evenodd" clip-rule="evenodd"
        d="M163.15 120.14a5.123 5.123 0 0 0-6.162-4.972 5.121 5.121 0 0 0-1.762 9.297 5.126 5.126 0 0 0 2.854.835 5.113 5.113 0 0 0 4.699-3.198c.252-.623.378-1.29.371-1.962Z"
        fill="#0B175E"/>
  <path
    d="M133.112 152.31s-2.79.15-3.69.13a2.83 2.83 0 0 1-2.38-1c-.71-1.12.11-2.57 1-3.56 1.81-2 4.39-3.74 7.05-3.24a9.438 9.438 0 0 1 3.6 1.85 119.232 119.232 0 0 1 9.07 7.2l-9.17 33.67c-.83-1.38-1.72-2.73-2.67-4s-1.94-2.56-2.95-3.82l-14.44-18.18a32.09 32.09 0 0 1-4.48-8.49c-1.21-3.78-.08-7.51 2.25-10.73a15.216 15.216 0 0 1 4.64-4.44 7.993 7.993 0 0 1 6.25-.86c.833.293 1.634.671 2.39 1.13 1.44.8 3 1.73 3.54 3.29s-.08 3.23-.77 4.71a53.018 53.018 0 0 1-6.35 10.24 3.359 3.359 0 0 1-4.36.79 40.935 40.935 0 0 1-5-3.33"
    fill="#385EF9"/>
  <path
    d="M133.112 152.31s-2.79.15-3.69.13a2.83 2.83 0 0 1-2.38-1c-.71-1.12.11-2.57 1-3.56 1.81-2 4.39-3.74 7.05-3.24a9.438 9.438 0 0 1 3.6 1.85 119.232 119.232 0 0 1 9.07 7.2l-9.17 33.67c-.83-1.38-1.72-2.73-2.67-4s-1.94-2.56-2.95-3.82l-14.44-18.18a32.09 32.09 0 0 1-4.48-8.49c-1.21-3.78-.08-7.51 2.25-10.73a15.216 15.216 0 0 1 4.64-4.44 7.993 7.993 0 0 1 6.25-.86c.833.293 1.634.671 2.39 1.13 1.44.8 3 1.73 3.54 3.29s-.08 3.23-.77 4.71a53.018 53.018 0 0 1-6.35 10.24 3.359 3.359 0 0 1-4.36.79 40.935 40.935 0 0 1-5-3.33"
    stroke="#385EF9" stroke-width="3" stroke-linecap="round" stroke-linejoin="round"/>
  <path d="m118.001 154.61-5.82 5.58a2.283 2.283 0 0 0 1.531 3.934 2.286 2.286 0 0 0 1.629-.634l6.65-6.36"
        stroke="#0B175E" stroke-width="3" stroke-linecap="round" stroke-linejoin="round"/>
  <path
    d="M128.742 152.44a42.437 42.437 0 0 1-2.7 3.77 3.36 3.36 0 0 1-4.36.79 40.935 40.935 0 0 1-5-3.33m16.428-1.36s-2.79.15-3.69.13a2.926 2.926 0 0 1-1.307-.222 2.928 2.928 0 0 1-1.073-.778c-1.21-1.78-1-3.24.25-5a9.7 9.7 0 0 1 6.49-4.39"
    stroke="#0B175E" stroke-width="3" stroke-linecap="round" stroke-linejoin="round"/>
  <path
    d="M94.211 76.64a4.61 4.61 0 0 0-5.84 1.85l-1.78 2.89-2.88-1.78a4.62 4.62 0 0 0-6 1 4.44 4.44 0 0 0 1.2 6.5l7.48 4.6a3.73 3.73 0 0 0 5.13-1.22l4.55-7.48a4.449 4.449 0 0 0-1.86-6.34v-.02Zm57.95-28.4a5.308 5.308 0 0 0-7-.73l-3.16 2.22-2.23-3.21a5.31 5.31 0 0 0-6.82-1.76 5.132 5.132 0 0 0-1.74 7.42l5.76 8.29a4.29 4.29 0 0 0 6 1.08l8.3-5.76a5.115 5.115 0 0 0 2.183-3.552 5.121 5.121 0 0 0-1.183-3.998h-.11ZM247.62 90a4 4 0 0 0-5.2.72l-1.92 2.18-2.18-1.9a4 4 0 0 0-5.25-.06 3.818 3.818 0 0 0-.88 4.399c.224.486.547.919.95 1.271l5.64 5a3.134 3.134 0 0 0 2.32.79 3.171 3.171 0 0 0 2.2-1.07l5-5.65a3.807 3.807 0 0 0 .424-4.463 3.805 3.805 0 0 0-1.074-1.167l-.03-.05Z"
    stroke="#CFD8DC" stroke-width="3" stroke-linecap="round" stroke-linejoin="round"/>
</svg>
