<svg width="383" height="233" viewBox="0 0 383 233" fill="none" xmlns="http://www.w3.org/2000/svg"><path fill-rule="evenodd" clip-rule="evenodd" d="M120.463 230.471a2.53 2.53 0 012.532-2.529h98.395a2.53 2.53 0 110 5.058h-98.395a2.53 2.53 0 01-2.532-2.529zM54.81 230.471a2.53 2.53 0 012.531-2.529H107.3a2.53 2.53 0 110 5.058H57.341a2.53 2.53 0 01-2.531-2.529zM30 230.471a2.53 2.53 0 012.532-2.529h9.957a2.53 2.53 0 110 5.058h-9.957A2.53 2.53 0 0130 230.471zM237.592 230.471a2.53 2.53 0 012.532-2.529h94.344a2.53 2.53 0 012.532 2.529 2.53 2.53 0 01-2.532 2.529h-94.344a2.53 2.53 0 01-2.532-2.529z" fill="#F9FAFA"/><path fill-rule="evenodd" clip-rule="evenodd" d="M147.129 67.439c0-2.698-2.194-4.721-4.726-4.721-2.7 0-4.725 2.191-4.725 4.72 0 2.698 2.194 4.721 4.725 4.721 2.532 0 4.726-2.192 4.726-4.72z" fill="#B0BEC5"/><path fill-rule="evenodd" clip-rule="evenodd" d="M145.441 67.439a3.028 3.028 0 00-3.038-3.035 3.028 3.028 0 00-3.038 3.035 3.028 3.028 0 003.038 3.034c1.6 0 3.038-1.437 3.038-3.034zm-3.038-4.721c2.532 0 4.726 2.023 4.726 4.72 0 2.53-2.194 4.721-4.726 4.721-2.531 0-4.725-2.023-4.725-4.72 0-2.53 2.025-4.721 4.725-4.721zM200.631 67.439c0-2.698-2.195-4.721-4.726-4.721-2.701 0-4.726 2.191-4.726 4.72 0 2.698 2.194 4.721 4.726 4.721 2.531 0 4.726-2.192 4.726-4.72z" fill="#B0BEC5"/><path fill-rule="evenodd" clip-rule="evenodd" d="M198.943 67.439a3.028 3.028 0 00-3.038-3.035 3.028 3.028 0 00-3.038 3.035 3.028 3.028 0 003.038 3.034c1.599 0 3.038-1.437 3.038-3.034zm-3.038-4.721c2.531 0 4.726 2.023 4.726 4.72 0 2.53-2.195 4.721-4.726 4.721-2.532 0-4.726-2.023-4.726-4.72 0-2.53 2.025-4.721 4.726-4.721zM135.146 208.048a2.53 2.53 0 012.532 2.529v15.848a2.531 2.531 0 01-5.063 0v-15.848a2.53 2.53 0 012.531-2.529zM197.593 208.722a2.53 2.53 0 012.531 2.529v15.848a2.53 2.53 0 01-2.531 2.529 2.53 2.53 0 01-2.532-2.529v-15.848a2.53 2.53 0 012.532-2.529z" fill="#B0BEC5"/><path fill-rule="evenodd" clip-rule="evenodd" d="M204.633 121.81a2.533 2.533 0 013.509.712c8.908 13.436 14.429 31.634 14.429 51.469v.019c-.179 24.132-19.688 43.816-44.05 43.816h-19.578c-24.344 0-44.05-19.671-44.05-43.835 0-19.817 5.344-38.03 14.442-51.488a2.534 2.534 0 013.515-.68 2.526 2.526 0 01.681 3.511c-8.454 12.505-13.574 29.698-13.574 48.657 0 21.358 17.425 38.778 38.986 38.778h19.578c21.542 0 38.823-17.402 38.987-38.787-.002-18.938-5.282-36.141-13.587-48.667a2.528 2.528 0 01.712-3.505z" fill="#B0BEC5"/><path fill-rule="evenodd" clip-rule="evenodd" d="M99.535 68.787C99.535 30.788 130.727 0 168.732 0c38.014 0 69.029 30.797 69.029 68.787 0 38.172-31.196 68.788-69.197 68.788-38.014 0-69.029-30.797-69.029-68.788zm69.197-63.73c-35.242 0-64.134 28.558-64.134 63.73 0 35.181 28.731 63.73 63.966 63.73 35.246 0 64.134-28.393 64.134-63.73 0-35.18-28.731-63.73-63.966-63.73z" fill="#B0BEC5"/><path fill-rule="evenodd" clip-rule="evenodd" d="M34.786 121.312a2.533 2.533 0 013.561-.368c1.854 1.505 3.067 2.037 3.86 2.218.73.166 1.318.088 2.128-.14.145-.04.32-.095.52-.157.771-.241 1.91-.595 3.06-.699 1.651-.149 3.427.143 5.495 1.176.384.192.713.478.956.832 11.452 16.682 21.673 24.537 30.324 27.335 8.518 2.756 15.918.734 22.174-3.344 6.33-4.127 11.394-10.315 14.912-15.593a78.88 78.88 0 003.985-6.67c.449-.847.787-1.526 1.011-1.989a30.82 30.82 0 00.308-.653l.013-.029.002-.004v-.001h.001a2.531 2.531 0 014.625 2.058l-2.313-1.029c2.313 1.029 2.312 1.03 2.312 1.032l-.002.004-.007.014-.02.045-.075.164c-.066.14-.161.342-.285.6-.249.514-.616 1.25-1.097 2.157a83.578 83.578 0 01-4.244 7.104c-3.691 5.539-9.208 12.364-16.359 17.025-7.224 4.71-16.206 7.251-26.5 3.921-10.048-3.25-20.938-11.966-32.544-28.711-.996-.414-1.683-.455-2.216-.406-.57.051-.99.181-1.628.378-.29.09-.623.193-1.037.309-1.215.342-2.736.632-4.623.203-1.822-.415-3.732-1.442-5.928-3.225a2.526 2.526 0 01-.369-3.557z" fill="#D5D5D5"/><path fill-rule="evenodd" clip-rule="evenodd" d="M205.32 122.891a2.532 2.532 0 013.427-1.033l-1.197 2.229a188.612 188.612 0 011.2-2.227l.004.002.009.005.023.013.069.038a20.862 20.862 0 011 .617c.655.43 1.576 1.078 2.703 1.984 2.255 1.813 5.33 4.656 8.748 8.844 6.842 8.386 15.017 22.116 20.758 43.688a2.531 2.531 0 01-4.893 1.299c-5.567-20.915-13.425-33.991-19.79-41.791-3.185-3.904-6.007-6.499-7.998-8.1a30.048 30.048 0 00-2.309-1.698 15.323 15.323 0 00-.709-.439l-.02-.011a2.527 2.527 0 01-1.025-3.42z" fill="#B0BEC5"/><path d="M176.158 81.6c-4.05-3.709-10.126-3.54-13.839.506z" fill="#B0BEC5"/><path fill-rule="evenodd" clip-rule="evenodd" d="M160.453 80.397c4.688-5.109 12.368-5.282 17.416-.66a2.527 2.527 0 01.155 3.573 2.532 2.532 0 01-3.576.155c-3.054-2.797-7.526-2.633-10.263.35a2.534 2.534 0 01-3.577.156 2.527 2.527 0 01-.155-3.574zM278.098 151.568a3.024 3.024 0 00-3.038-3.035 3.024 3.024 0 00-3.038 3.035 3.024 3.024 0 003.038 3.035 3.024 3.024 0 003.038-3.035zM312.021 151.568a3.024 3.024 0 00-3.038-3.035 3.024 3.024 0 00-3.037 3.035 3.024 3.024 0 003.037 3.035 3.024 3.024 0 003.038-3.035zM271.853 215.803a2.53 2.53 0 012.532 2.529v10.116a2.53 2.53 0 01-2.532 2.529 2.53 2.53 0 01-2.531-2.529v-10.116a2.53 2.53 0 012.531-2.529zM310.671 216.14a2.531 2.531 0 012.532 2.529v10.116a2.53 2.53 0 01-2.532 2.529 2.53 2.53 0 01-2.531-2.529v-10.116a2.53 2.53 0 012.531-2.529z" fill="#B0BEC5"/><path fill-rule="evenodd" clip-rule="evenodd" d="M270.23 161.272a2.528 2.528 0 01.685 3.51c-5.256 7.797-8.513 18.42-8.513 30.284 0 13.092 10.67 23.603 23.628 23.603h12.49c13.116 0 23.628-10.501 23.628-23.603 0-11.864-3.257-22.487-8.513-30.284a2.528 2.528 0 01.685-3.51 2.534 2.534 0 013.514.685c5.883 8.726 9.377 20.358 9.377 33.109 0 15.896-12.779 28.661-28.691 28.661h-12.49c-15.733 0-28.691-12.755-28.691-28.661 0-12.751 3.494-24.383 9.377-33.109a2.534 2.534 0 013.514-.685z" fill="#B0BEC5"/><path fill-rule="evenodd" clip-rule="evenodd" d="M247.887 128.47c0-24.494 20.036-44.51 44.557-44.51 24.513 0 44.556 19.841 44.556 44.51 0 24.67-20.043 44.51-44.556 44.51-24.514 0-44.557-19.84-44.557-44.51zm44.557-39.451c-21.724 0-39.493 17.75-39.493 39.451 0 21.863 17.762 39.452 39.493 39.452 21.73 0 39.493-17.589 39.493-39.452s-17.763-39.451-39.493-39.451z" fill="#B0BEC5"/><path fill-rule="evenodd" clip-rule="evenodd" d="M287.887 155.446c0-.931.755-1.686 1.687-1.686h5.908a1.686 1.686 0 110 3.372h-5.908a1.686 1.686 0 01-1.687-1.686zM265.864 163.429a2.534 2.534 0 013.567-.31 2.528 2.528 0 01.311 3.563l-1.939-1.626 1.939 1.626-.006.007-.012.013-.039.046-.142.165c-.123.141-.301.344-.53.598a64.099 64.099 0 01-1.953 2.068c-1.663 1.689-4.029 3.922-6.825 6.077-2.785 2.147-6.069 4.273-9.569 5.685-3.495 1.41-7.371 2.175-11.233 1.363a2.529 2.529 0 111.044-4.949c2.551.536 5.363.079 8.292-1.103 2.924-1.18 5.8-3.017 8.373-5 2.563-1.976 4.754-4.042 6.309-5.62a60.312 60.312 0 001.8-1.906 46.817 46.817 0 00.582-.661l.026-.03.005-.006zM34.786 121.312a2.533 2.533 0 013.561-.368c1.854 1.505 3.067 2.037 3.86 2.218.73.166 1.318.088 2.128-.14.145-.04.32-.095.52-.157.771-.241 1.91-.595 3.06-.699 1.651-.149 3.427.143 5.495 1.176.384.192.713.478.956.832 11.452 16.682 21.673 24.537 30.324 27.335 8.518 2.756 15.918.734 22.174-3.344 6.33-4.127 11.394-10.315 14.912-15.593a78.88 78.88 0 003.985-6.67c.449-.847.787-1.526 1.011-1.989a30.82 30.82 0 00.308-.653l.013-.029.002-.004v-.001h.001a2.531 2.531 0 014.625 2.058l-2.313-1.029c2.313 1.029 2.312 1.03 2.312 1.032l-.002.004-.007.014-.02.045-.075.164c-.066.14-.161.342-.285.6-.249.514-.616 1.25-1.097 2.157a83.578 83.578 0 01-4.244 7.104c-3.691 5.539-9.208 12.364-16.359 17.025-7.224 4.71-16.206 7.251-26.5 3.921-10.048-3.25-20.938-11.966-32.544-28.711-.996-.414-1.683-.455-2.216-.406-.57.051-.99.181-1.628.378-.29.09-.623.193-1.037.309-1.215.342-2.736.632-4.623.203-1.822-.415-3.732-1.442-5.928-3.225a2.526 2.526 0 01-.369-3.557zM314.889 163.709a2.534 2.534 0 013.543-.51l-1.516 2.025c1.516-2.025 1.518-2.024 1.52-2.022l.003.002.008.006.017.013.046.036c.035.028.08.063.132.107.106.087.246.208.417.364.342.314.807.771 1.367 1.398 1.12 1.256 2.615 3.188 4.262 6.001 3.293 5.628 7.18 14.758 9.904 29.027a2.532 2.532 0 01-4.973.947c-2.633-13.788-6.34-22.36-9.302-27.421-1.482-2.531-2.78-4.19-3.671-5.189-.446-.5-.791-.835-1.008-1.034a6.245 6.245 0 00-.225-.198l-.033-.026a2.527 2.527 0 01-.491-3.526z" fill="#B0BEC5"/></svg>