<svg width="383" height="233" fill="none" xmlns="http://www.w3.org/2000/svg"><path fill-rule="evenodd" clip-rule="evenodd" d="M136.676 215.797c0-1.217.986-2.204 2.202-2.204h85.575a2.203 2.203 0 010 4.407h-85.575a2.203 2.203 0 01-2.202-2.203zM79.577 215.797c0-1.217.986-2.204 2.202-2.204h43.448a2.203 2.203 0 010 4.407H81.779a2.203 2.203 0 01-2.202-2.203zM58 215.797c0-1.217.986-2.204 2.202-2.204h8.66a2.203 2.203 0 010 4.407h-8.66A2.203 2.203 0 0158 215.797zM238.544 215.797c0-1.217.986-2.204 2.202-2.204h82.052a2.203 2.203 0 010 4.407h-82.052a2.203 2.203 0 01-2.202-2.203z" fill="#F9FAFA"/><path fill-rule="evenodd" clip-rule="evenodd" d="M159.868 73.755c0-2.35-1.908-4.112-4.11-4.112-2.349 0-4.11 1.91-4.11 4.112 0 2.35 1.908 4.113 4.11 4.113 2.202 0 4.11-1.91 4.11-4.112z" fill="#B0BEC5"/><path fill-rule="evenodd" clip-rule="evenodd" d="M158.4 73.755a2.636 2.636 0 00-2.642-2.643 2.636 2.636 0 00-2.642 2.644 2.636 2.636 0 002.642 2.643c1.391 0 2.642-1.252 2.642-2.644zm-2.642-4.112c2.202 0 4.11 1.762 4.11 4.112 0 2.204-1.908 4.113-4.11 4.113-2.202 0-4.11-1.762-4.11-4.112 0-2.204 1.761-4.113 4.11-4.113zM206.399 73.755c0-2.35-1.909-4.112-4.11-4.112-2.349 0-4.11 1.91-4.11 4.112 0 2.35 1.908 4.113 4.11 4.113 2.201 0 4.11-1.91 4.11-4.112z" fill="#B0BEC5"/><path fill-rule="evenodd" clip-rule="evenodd" d="M204.931 73.755a2.636 2.636 0 00-2.642-2.643 2.636 2.636 0 00-2.642 2.644 2.635 2.635 0 002.642 2.643c1.391 0 2.642-1.252 2.642-2.644zm-2.642-4.112c2.201 0 4.11 1.762 4.11 4.112 0 2.204-1.909 4.113-4.11 4.113-2.202 0-4.11-1.762-4.11-4.112 0-2.204 1.761-4.113 4.11-4.113zM149.446 196.26c1.216 0 2.202.987 2.202 2.204v13.807a2.202 2.202 0 11-4.403 0v-13.807c0-1.217.985-2.204 2.201-2.204zM203.756 196.848c1.216 0 2.202.986 2.202 2.203v13.808a2.202 2.202 0 11-4.403 0v-13.808c0-1.217.985-2.203 2.201-2.203z" fill="#B0BEC5"/><path fill-rule="evenodd" clip-rule="evenodd" d="M209.88 121.126a2.2 2.2 0 013.051.621c7.748 11.705 12.549 27.561 12.549 44.842v.016c-.155 21.025-17.123 38.175-38.31 38.175h-17.027c-21.173 0-38.311-17.138-38.311-38.191 0-17.266 4.648-33.133 12.56-44.859a2.202 2.202 0 113.65 2.466c-7.353 10.896-11.806 25.875-11.806 42.393 0 18.607 15.154 33.784 33.907 33.784h17.027c18.735 0 33.765-15.161 33.907-33.792-.002-16.5-4.594-31.488-11.817-42.401a2.204 2.204 0 01.62-3.054z" fill="#B0BEC5"/><path fill-rule="evenodd" clip-rule="evenodd" d="M118.475 74.93c0-33.106 27.128-59.93 60.182-59.93 33.06 0 60.034 26.832 60.034 59.93 0 33.257-27.131 59.931-60.181 59.931-33.061 0-60.035-26.831-60.035-59.93zm60.182-55.523c-30.651 0-55.778 24.88-55.778 55.523 0 30.651 24.987 55.524 55.631 55.524 30.654 0 55.778-24.737 55.778-55.524 0-30.65-24.988-55.523-55.631-55.523z" fill="#B0BEC5"/><path fill-rule="evenodd" clip-rule="evenodd" d="M62.163 120.692a2.2 2.2 0 013.097-.32c1.612 1.311 2.667 1.775 3.357 1.932.634.145 1.146.077 1.85-.122.126-.035.279-.082.453-.137.67-.209 1.66-.518 2.661-.608 1.436-.13 2.98.124 4.78 1.024.333.167.62.417.83.725 9.96 14.534 18.85 21.378 26.373 23.816 7.409 2.4 13.845.639 19.285-2.914 5.506-3.596 9.91-8.987 12.969-13.585a68.557 68.557 0 003.466-5.812 52.046 52.046 0 001.096-2.19l.051-.111.012-.025.001-.004.001-.001a2.2 2.2 0 012.906-1.116 2.203 2.203 0 011.116 2.909l-2.011-.896c2.011.896 2.011.897 2.01.898l-.001.004-.006.012-.018.04-.065.142a55.419 55.419 0 01-1.202 2.402 72.767 72.767 0 01-3.69 6.19c-3.211 4.825-8.009 10.772-14.228 14.833-6.283 4.103-14.095 6.317-23.048 3.416-8.739-2.831-18.21-10.425-28.303-25.015-.867-.36-1.464-.395-1.928-.354-.495.045-.861.159-1.415.33-.252.078-.543.168-.902.27-1.057.297-2.38.55-4.021.176-1.584-.361-3.246-1.256-5.156-2.809a2.205 2.205 0 01-.32-3.1z" fill="#D5D5D5"/><path fill-rule="evenodd" clip-rule="evenodd" d="M210.477 122.068a2.2 2.2 0 012.981-.899l-1.041 1.941c1.041-1.941 1.042-1.941 1.044-1.94l.003.002.007.004.021.011.059.033c.049.028.114.065.196.114.162.096.389.236.674.424.57.375 1.371.939 2.351 1.729 1.961 1.579 4.635 4.056 7.608 7.705 5.951 7.306 13.06 19.269 18.054 38.062a2.204 2.204 0 01-1.563 2.696 2.2 2.2 0 01-2.693-1.563c-4.841-18.222-11.676-29.615-17.211-36.411-2.771-3.401-5.224-5.662-6.956-7.056a26.102 26.102 0 00-2.009-1.48c-.228-.15-.398-.254-.505-.318l-.111-.064-.018-.01a2.204 2.204 0 01-.891-2.98z" fill="#B0BEC5"/><path d="M185.115 86.094c-3.523-3.231-8.807-3.085-12.036.44z" fill="#B0BEC5"/><path fill-rule="evenodd" clip-rule="evenodd" d="M171.456 85.046c4.077-4.452 10.757-4.603 15.147-.576.896.822.957 2.216.135 3.113a2.201 2.201 0 01-3.111.135c-2.656-2.436-6.545-2.294-8.925.306a2.204 2.204 0 01-3.246-2.978zM273.772 147.053a2.632 2.632 0 00-2.642-2.644 2.632 2.632 0 00-2.642 2.644 2.632 2.632 0 002.642 2.644 2.632 2.632 0 002.642-2.644zM303.276 147.053a2.632 2.632 0 00-2.642-2.644 2.632 2.632 0 00-2.642 2.644 2.632 2.632 0 002.642 2.644 2.632 2.632 0 002.642-2.644zM268.341 203.017c1.216 0 2.202.987 2.202 2.204v8.813a2.202 2.202 0 11-4.403 0v-8.813c0-1.217.985-2.204 2.201-2.204zM302.102 203.311c1.216 0 2.201.987 2.201 2.203v8.814a2.202 2.202 0 11-4.403 0v-8.814c0-1.216.986-2.203 2.202-2.203z" fill="#B0BEC5"/><path fill-rule="evenodd" clip-rule="evenodd" d="M266.929 155.508a2.204 2.204 0 01.597 3.058c-4.572 6.793-7.404 16.048-7.404 26.384 0 11.406 9.279 20.564 20.549 20.564h10.862a20.482 20.482 0 0020.55-20.564c0-10.336-2.832-19.591-7.404-26.384a2.204 2.204 0 01.596-3.058 2.2 2.2 0 013.056.596c5.117 7.602 8.156 17.737 8.156 28.846a24.889 24.889 0 01-24.954 24.971h-10.862c-13.683 0-24.953-11.112-24.953-24.971 0-11.109 3.039-21.244 8.155-28.846a2.2 2.2 0 013.056-.596z" fill="#B0BEC5"/><path fill-rule="evenodd" clip-rule="evenodd" d="M247.498 126.929c0-21.341 17.426-38.779 38.751-38.779 21.32 0 38.751 17.286 38.751 38.779 0 21.493-17.431 38.779-38.751 38.779-21.32 0-38.751-17.286-38.751-38.779zm38.751-34.372c-18.893 0-34.347 15.465-34.347 34.372 0 19.048 15.448 34.372 34.347 34.372s34.347-15.324 34.347-34.372c0-19.048-15.448-34.372-34.347-34.372z" fill="#B0BEC5"/><path fill-rule="evenodd" clip-rule="evenodd" d="M282.286 150.431c0-.811.657-1.469 1.468-1.469h5.137a1.469 1.469 0 010 2.938h-5.137a1.468 1.468 0 01-1.468-1.469zM263.133 157.386a2.2 2.2 0 013.101-.27 2.205 2.205 0 01.271 3.105l-1.686-1.417 1.686 1.417-.005.006-.01.012-.034.04-.124.143c-.107.123-.261.3-.46.521a55.594 55.594 0 01-1.7 1.802c-1.446 1.471-3.503 3.417-5.935 5.295-2.422 1.87-5.278 3.722-8.323 4.953-3.039 1.228-6.41 1.895-9.768 1.187a2.203 2.203 0 01.907-4.312c2.219.467 4.664.069 7.212-.961 2.543-1.028 5.044-2.628 7.282-4.356 2.229-1.721 4.135-3.521 5.487-4.896a52.534 52.534 0 001.972-2.121l.1-.116.022-.026.005-.006zM62.163 120.692a2.2 2.2 0 013.097-.32c1.612 1.311 2.667 1.775 3.357 1.932.634.145 1.146.077 1.85-.122.126-.035.279-.082.453-.137.67-.209 1.66-.518 2.661-.608 1.436-.13 2.98.124 4.78 1.024.333.167.62.417.83.725 9.96 14.534 18.85 21.378 26.373 23.816 7.409 2.4 13.845.639 19.285-2.914 5.506-3.596 9.91-8.987 12.969-13.585a68.557 68.557 0 003.466-5.812 52.046 52.046 0 001.096-2.19l.051-.111.012-.025.001-.004.001-.001a2.2 2.2 0 012.906-1.116 2.203 2.203 0 011.116 2.909l-2.011-.896c2.011.896 2.011.897 2.01.898l-.001.004-.006.012-.018.04-.065.142a55.419 55.419 0 01-1.202 2.402 72.767 72.767 0 01-3.69 6.19c-3.211 4.825-8.009 10.772-14.228 14.833-6.283 4.103-14.095 6.317-23.048 3.416-8.739-2.831-18.21-10.425-28.303-25.015-.867-.36-1.464-.395-1.928-.354-.495.045-.861.159-1.415.33-.252.078-.543.168-.902.27-1.057.297-2.38.55-4.021.176-1.584-.361-3.246-1.256-5.156-2.809a2.205 2.205 0 01-.32-3.1zM305.77 157.631a2.202 2.202 0 013.082-.445l-1.319 1.765c1.319-1.765 1.32-1.763 1.321-1.762l.003.002.007.005.015.012.04.031.115.093c.092.076.214.181.363.317.297.273.702.672 1.189 1.218.974 1.094 2.274 2.777 3.706 5.228 2.864 4.903 6.245 12.858 8.614 25.29a2.201 2.201 0 11-4.325.825c-2.29-12.013-5.515-19.481-8.091-23.891-1.288-2.205-2.417-3.65-3.192-4.52a12.683 12.683 0 00-.876-.901 5.452 5.452 0 00-.196-.172l-.029-.023a2.205 2.205 0 01-.427-3.072z" fill="#B0BEC5"/></svg>