<svg width="42" height="47" fill="none" xmlns="http://www.w3.org/2000/svg"><g filter="url(#a)"><mask id="b" fill="#fff"><path fill-rule="evenodd" clip-rule="evenodd" d="M6 19.567c0 .527.026 1.058.076 1.58.471 9.298 10.658 16.065 14.191 17.703.262.103.51.15.763.15.277 0 .48-.04.742-.152l.183-.085.091-.044c1.553-.75 4.911-2.788 7.925-5.81 3.748-3.758 5.751-7.721 5.954-11.78.05-.517.075-1.043.075-1.562C36 10.983 29.271 4 21 4S6 10.983 6 19.567Z"/></mask><path fill-rule="evenodd" clip-rule="evenodd" d="M6 19.567c0 .527.026 1.058.076 1.58.471 9.298 10.658 16.065 14.191 17.703.262.103.51.15.763.15.277 0 .48-.04.742-.152l.183-.085.091-.044c1.553-.75 4.911-2.788 7.925-5.81 3.748-3.758 5.751-7.721 5.954-11.78.05-.517.075-1.043.075-1.562C36 10.983 29.271 4 21 4S6 10.983 6 19.567Z" fill="#13C1AC"/><path d="m6.076 21.146 2.996-.152-.003-.069-.007-.069-2.986.29ZM20.267 38.85l-1.262 2.722.078.035.08.032 1.104-2.79Zm1.505-.002 1.174 2.76.043-.018.043-.02-1.26-2.722Zm.183-.085 1.26 2.723.017-.008.017-.008-1.294-2.707Zm.091-.044 1.294 2.707.01-.005-1.304-2.702Zm7.925-5.81-2.124-2.119 2.124 2.119Zm5.954-11.78-2.986-.287-.007.069-.003.069 2.996.15ZM3 19.567c0 .623.03 1.251.09 1.87l5.972-.58A13.4 13.4 0 0 1 9 19.566H3Zm.08 1.731c.29 5.708 3.528 10.387 6.818 13.69 3.312 3.325 7.04 5.625 9.107 6.584l2.524-5.444c-1.465-.68-4.598-2.581-7.38-5.374-2.804-2.815-4.895-6.168-5.077-9.76l-5.992.304Zm16.082 20.34c.6.238 1.221.362 1.868.362v-6a1.03 1.03 0 0 1 .342.06l-2.21 5.579ZM21.03 42c.682 0 1.284-.123 1.916-.391l-2.347-5.522c.009-.004.087-.036.207-.06.121-.025.208-.027.224-.027v6Zm2.002-.43.183-.084-2.52-5.446-.182.085 2.519 5.445Zm.217-.1.05-.024.041-.02-2.588-5.413c-.227.108.122-.058-.091.044l2.588 5.413Zm.102-.05c1.817-.876 5.463-3.102 8.744-6.393l-4.248-4.237c-2.747 2.754-5.818 4.606-7.105 5.228l2.609 5.403Zm8.744-6.393c4.108-4.118 6.576-8.744 6.826-13.748l-5.992-.3c-.156 3.114-1.694 6.414-5.082 9.811l4.248 4.237Zm6.816-13.61a19.39 19.39 0 0 0 .089-1.85h-6c0 .423-.02.853-.061 1.275l5.972.575Zm.089-1.85C39 9.433 31.032 1 21 1v6c6.51 0 12 5.534 12 12.567h6ZM21 1C10.968 1 3 9.433 3 19.567h6C9 12.534 14.49 7 21 7V1Z" fill="#fff" mask="url(#b)"/><circle cx="21" cy="19" r="6" fill="#fff"/></g><defs><filter id="a" x="0" y="0" width="42" height="47" filterUnits="userSpaceOnUse" color-interpolation-filters="sRGB"><feFlood flood-opacity="0" result="BackgroundImageFix"/><feColorMatrix in="SourceAlpha" values="0 0 0 0 0 0 0 0 0 0 0 0 0 0 0 0 0 0 127 0" result="hardAlpha"/><feOffset dy="2"/><feGaussianBlur stdDeviation="3"/><feColorMatrix values="0 0 0 0 0.145098 0 0 0 0 0.196078 0 0 0 0 0.219608 0 0 0 0.15 0"/><feBlend in2="BackgroundImageFix" result="effect1_dropShadow_6567_5288"/><feBlend in="SourceGraphic" in2="effect1_dropShadow_6567_5288" result="shape"/></filter></defs></svg>