<svg width="190" height="160" fill="none" xmlns="http://www.w3.org/2000/svg"><path d="M18.6 23.5v134.8M175.9 23.5v134.8M187.7 114.7H6.9v7.2h180.8v-7.2zM187.7 67.6H6.9v7.2h180.8v-7.2z" stroke="#CFD8DC" stroke-width="3" stroke-miterlimit="10" stroke-linecap="round" stroke-linejoin="round"/><path d="M61.2 117.8l-14.1 4.4" stroke="#FFF0B0" stroke-width="3" stroke-miterlimit="10" stroke-linecap="round"/><path d="M178.5 158.3h-105M64.2 158.3h-4M53.5 158.3H2" stroke="#F9FAFA" stroke-width="3" stroke-miterlimit="10" stroke-linecap="round" stroke-linejoin="round"/><path d="M152.4 2v8.7M173.1 3.3l-7.4 11.4M183.7 18.3l-7.2 5" stroke="#FFF0B0" stroke-width="3" stroke-miterlimit="10" stroke-linecap="round"/><path d="M157.8 144.6v10.6M121 144.6v10.6" stroke="#B0BEC5" stroke-width="3" stroke-miterlimit="10" stroke-linecap="round" stroke-linejoin="round"/><path d="M161.9 93.5c5.1 7.7 8.2 18.1 8.2 29.5 0 13.4-11 24.3-24.4 24.3h-11.5c-13.4 0-24.4-11-24.4-24.3 0-11.5 3.1-21.8 8.2-29.5" fill="#EAEBED"/><path d="M161.9 93.5c5.1 7.7 8.2 18.1 8.2 29.5 0 13.4-11 24.3-24.4 24.3h-11.5c-13.4 0-24.4-11-24.4-24.3 0-11.5 3.1-21.8 8.2-29.5M161.6 93.7s13.6 14.3 13.6 45" stroke="#B0BEC5" stroke-width="3" stroke-miterlimit="10" stroke-linecap="round" stroke-linejoin="round"/><path d="M140.3 99.3c-21.6 0-39.1-17.5-39.1-39.1s17.5-39.1 39.1-39.1 39.1 17.5 39.1 39.1c0 21.5-17.5 39.1-39.1 39.1z" fill="#EAEBED" stroke="#B0BEC5" stroke-width="3" stroke-miterlimit="10" stroke-linecap="round" stroke-linejoin="round"/><path d="M117.5 91.8s-7.8 19.8-22.8 18.8" stroke="#B0BEC5" stroke-width="3" stroke-miterlimit="10" stroke-linecap="round" stroke-linejoin="round"/><path d="M82.4 114.3l19.6-.3c1.9 0 3.4-1.6 3.4-3.5s-1.6-3.4-3.5-3.4l-19.6.3" stroke="#CFD8DC" stroke-width="3" stroke-miterlimit="10" stroke-linecap="round" stroke-linejoin="round"/><path d="M81.3 114.6l-6.8 2.1c-1 .3-2-.4-2-1.5l-.1-9.3c0-1.1 1.1-1.9 2.1-1.5l6.9 2.6c.6.2 1 .8 1 1.5l.1 4.7c-.1.6-.6 1.2-1.2 1.4zM66.5 116.2l-2.4.8M51.9 100.1l-4.6-1.8M67.6 105.7l-12.1-4.4M48.9 109l-1.5-.1M56.8 109.6l-1.4-.1M63.5 110.1l-3-.2" stroke="#FFF0B0" stroke-width="3" stroke-miterlimit="10" stroke-linecap="round"/><path fill-rule="evenodd" clip-rule="evenodd" d="M143.7 64.6c1.5 0 2.8 1.2 2.8 2.8 0 1.6-1.2 2.8-2.8 2.8-1.5 0-2.8-1.2-2.8-2.8 0-1.6 1.2-2.8 2.8-2.8zM112.5 70.2c-1.5 0-2.8-1.2-2.8-2.8 0-1.5 1.2-2.8 2.8-2.8 1.6 0 2.8 1.2 2.8 2.8 0 1.5-1.3 2.8-2.8 2.8z" fill="#B0BEC5" stroke="#B0BEC5"/><path d="M124.1 70.8c2 1.1 5.2 1.1 7.2 0" stroke="#B0BEC5" stroke-width="3" stroke-miterlimit="10" stroke-linecap="round" stroke-linejoin="round"/><path d="M119.7 25.7s5.9 36 58.2 34.1" stroke="#CFD8DC" stroke-width="3" stroke-miterlimit="10"/></svg>