<svg width="50" height="50" viewBox="0 0 50 50" fill="none" xmlns="http://www.w3.org/2000/svg"><path fill-rule="evenodd" clip-rule="evenodd" d="M48.059 21.416a3.882 3.882 0 00-3.591.388L26.86 34.13a3.292 3.292 0 01-3.59.016L5.523 21.796a3.881 3.881 0 00-3.591-.372C.753 21.893 0 22.904 0 24.012v17.745c0 1.577 1.512 2.863 3.38 2.863h43.24c1.86 0 3.38-1.286 3.38-2.863V24.012c0-1.108-.752-2.12-1.941-2.588v-.008zM24.797 27.15c-.699 0-1.38-.218-1.95-.623L2.475 12.155a3.397 3.397 0 01-.043-5.485C3.006 6.243 4.415 6 4.415 6h40.667a3.381 3.381 0 011.949 6.147L26.746 26.535c-.57.405-1.25.622-1.95.623v-.008z" fill="#333"/></svg>