<svg width="50" height="50" viewBox="0 0 50 50" fill="none" xmlns="http://www.w3.org/2000/svg"><path fill-rule="evenodd" clip-rule="evenodd" d="M32.855 0h-2.38c-2.11 0-3.852.222-5.742.933C21.99 1.995 17.42 4.91 17.42 13.13v2.139c0 .6-.492 1.083-1.1 1.083h-.175c-2.076 0-3.93 1.492-4.126 3.528-.227 2.328 1.632 4.29 3.956 4.29h.338c.612 0 1.107.488 1.107 1.088v20.666c0 2.042 1.517 3.867 3.583 4.059 2.372.222 4.369-1.603 4.369-3.89V25.57c0-.773.636-1.398 1.419-1.398h.577c2.077 0 3.932-1.494 4.127-3.528.229-2.33-1.632-4.292-3.954-4.292h-.756c-.78 0-1.413-.622-1.413-1.389V13.13c0-4.117 1.581-4.65 2.236-4.903.945-.356 1.728-.406 2.867-.406h2.55c2.324 0 4.183-1.961 3.956-4.295C36.784 1.492 34.931 0 32.855 0z" fill="#333"/></svg>