<svg width="50" height="50" viewBox="0 0 50 50" fill="none" xmlns="http://www.w3.org/2000/svg"><path fill-rule="evenodd" clip-rule="evenodd" d="M45.465 5.905l-2.109.014h-.405A13.59 13.59 0 0034.532 3c-6.336 0-11.771 4.477-13.214 10.428a21.371 21.371 0 01-10.9-7.11 4.559 4.559 0 00-1.813-1.324 4.533 4.533 0 00-2.221-.295 4.453 4.453 0 00-2.09.816A4.488 4.488 0 002.86 7.249c-4.988 10.62-2.53 18.477.41 23.2a23.414 23.414 0 003.742 4.567 13.97 13.97 0 01-.998.036 4.544 4.544 0 00-3.223 1.326 4.597 4.597 0 00-1.352 3.227c0 3.628 4.203 5.518 5.785 6.23C9.418 46.822 13.033 48 17.786 48c11.411 0 18.58-5.41 22.584-9.95 4.95-5.61 7.785-13.05 7.785-20.406l-.003-.546.288-.9c.52-1.625.783-2.447 1.348-4.426.14-.44.212-.9.212-1.367 0-2.478-2.016-4.497-4.535-4.497v-.003z" fill="#333"/></svg>