<svg width="271" height="116" fill="none" xmlns="http://www.w3.org/2000/svg"><path d="M54.779 86.33a1.273 1.273 0 0 0-1.681-.096L43.597 74.13c.089-.216.178-.44.267-.637a1.275 1.275 0 0 0-1.647-1.682 1.274 1.274 0 0 0-.696.682c-1.669 3.911-3.509 8.689-5.133 12.906l-.77 2c-.688 1.784-1.471 3.822-1.357 5.995.115 2.172 1.427 4.828 4.018 5.484.39.099.79.148 1.191.147 1.84 0 3.54-1.026 5.005-2.083a82.85 82.85 0 0 0 10.304-8.81 1.274 1.274 0 0 0 0-1.803Z" fill="#F49709"/><path opacity=".4" d="M54.779 86.33a1.273 1.273 0 0 0-1.681-.096L43.597 74.13c.089-.216.178-.44.267-.637a1.275 1.275 0 0 0-1.647-1.682 1.274 1.274 0 0 0-.696.682c-1.669 3.911-3.509 8.689-5.133 12.906l-.77 2c-.688 1.784-1.471 3.822-1.357 5.995.115 2.172 1.427 4.828 4.018 5.484.39.099.79.148 1.191.147 1.84 0 3.54-1.026 5.005-2.083a82.85 82.85 0 0 0 10.304-8.81 1.274 1.274 0 0 0 0-1.803Z" fill="#803700"/><path d="M168.109 106.854 157.856 32.96a6.775 6.775 0 0 0-6.769-6.682H43.03a6.774 6.774 0 0 0-6.77 6.77c-.002.06-.002.12 0 .18l10.253 73.836a6.786 6.786 0 0 0 6.788 6.708h108.045a6.784 6.784 0 0 0 6.775-6.772 1.795 1.795 0 0 0-.012-.146Z" fill="#F49709"/><path d="M121.763 113.772a1.275 1.275 0 0 1-1.273-1.121L110.244 27.73a1.275 1.275 0 0 1 .264-.946 1.295 1.295 0 0 1 .856-.48 1.28 1.28 0 0 1 1.271.644c.083.147.136.309.156.476l10.239 84.921a1.277 1.277 0 0 1-.636 1.265 1.289 1.289 0 0 1-.472.156l-.159.006ZM85.185 41.923l-2.547-14.62a1.274 1.274 0 0 0-1.273-1.057H64.03a1.273 1.273 0 0 0-1.273 1.459l2.547 17.581a1.274 1.274 0 0 0 1.26 1.09c.073.006.145.006.217 0l17.334-2.956a1.273 1.273 0 0 0 1.038-1.478l.031-.02Z" fill="#803700"/><path opacity=".4" d="M168.109 106.854 157.856 32.96a6.775 6.775 0 0 0-6.769-6.682h-38.71a1.271 1.271 0 0 0-1.261 1.426l10.259 84.947a1.27 1.27 0 0 0 1.273 1.121h38.704a6.783 6.783 0 0 0 6.776-6.772 1.765 1.765 0 0 0-.019-.146Z" fill="#803700"/><path opacity=".7" d="M61.255 69.04a1.274 1.274 0 0 0-1.273-1.273h-9.418a1.273 1.273 0 0 0-1.274 1.274l-.376 43.132a1.276 1.276 0 0 0 .847 1.211c.726.257 1.49.389 2.26.388h8.343c.168 0 .334-.033.49-.097a1.287 1.287 0 0 0 .689-.694c.063-.155.095-.322.095-.489l-.383-43.451ZM98.24 69.04a1.274 1.274 0 0 0-1.274-1.273h-9.412a1.273 1.273 0 0 0-1.273 1.274l-.382 43.451a1.275 1.275 0 0 0 1.273 1.274h10.189a1.273 1.273 0 0 0 1.273-1.274l-.394-43.451Z" fill="#A3FBFF"/><path d="M99.787 70.32H85.472a1.274 1.274 0 0 1 0-2.547h14.315a1.274 1.274 0 0 1 0 2.547ZM62.764 70.32H48.481a1.274 1.274 0 0 1 0-2.547h14.283a1.274 1.274 0 0 1 0 2.547ZM67.406 79.386c-.189 0-.376-.04-.547-.121a1.276 1.276 0 0 1-.599-1.701c1.414-2.975 4.719-5.045 7.673-4.829a9.448 9.448 0 0 1 7.292 4.74 1.274 1.274 0 0 1-2.204 1.274 6.885 6.885 0 0 0-5.279-3.478c-1.91-.14-4.209 1.344-5.183 3.382a1.273 1.273 0 0 1-1.153.733ZM137.626 98.216c-2.166 0-4.057-1.51-5.018-3.121-1.121-1.911-1.363-4.045-1.58-5.944l-.242-2.121c-.509-4.491-1.089-9.555-1.42-13.823a1.279 1.279 0 0 1 2.548-.198c.324 4.198.904 9.263 1.413 13.734l.242 2.122c.191 1.726.395 3.516 1.236 4.93.636 1.108 2.044 2.121 3.317 1.816 1.274-.306 2.191-1.816 2.904-3.25 1.966-3.922 3.606-8 4.903-12.192a1.281 1.281 0 0 1 1.101-.89 1.27 1.27 0 0 1 1.244.677 1.285 1.285 0 0 1 .088.971 83.498 83.498 0 0 1-5.063 12.55c-.98 1.962-2.286 4.038-4.591 4.586a4.595 4.595 0 0 1-1.082.153Z" fill="#803700"/><path d="M245.122 12.658a16.275 16.275 0 0 0-5.381-8.619c-3.369-2.745-8.425-3.535-9.889-3.714a38.148 38.148 0 0 0-12.603.446c-9.513 1.752-18.32 7.727-26.93 18.27a927.062 927.062 0 0 1-6.495 7.854c-4.546 5.466-9.246 11.116-13.634 16.856-2.655 3.484-5.578 6.88-8.412 10.192-3.362 3.912-6.839 7.95-9.946 12.212-7.986 10.957-12.188 21.556-12.481 31.513-.134 4.402.057 10.626 3.26 13.925a7.324 7.324 0 0 0 5.47 2.198h73.479c4.745 0 8.241-2.026 10.393-6.026 1.961-3.644 3.12-13.543 2.7-23.028-.414-9.3 1.757-27.787 3.184-32.049.719-2.191 1.503-4.402 2.261-6.542 3.935-11.218 7.673-21.792 5.024-33.488Z" fill="#FF89C2"/><path opacity=".2" d="M234.653 84.718c-.064-1.536-.064-3.409 0-5.562a1.273 1.273 0 0 0-1.375-1.314c-.24.02-.47.106-.663.25-14.678 10.976-32.909 17.69-52.726 19.423-11.755 1.032-24.523.465-39.048-1.72A1.274 1.274 0 0 0 139.376 97V97.65c-.134 4.402.057 10.625 3.26 13.925a7.318 7.318 0 0 0 5.47 2.198h73.454c4.745 0 8.241-2.026 10.393-6.026 1.961-3.644 3.12-13.543 2.7-23.028Z" fill="#670A6F"/><path d="M195.503 90.419c-2.547 0-4.903-2.007-6.865-5.823a40.802 40.802 0 0 1-3.649-10.402 1.277 1.277 0 0 1 .987-1.51 1.274 1.274 0 0 1 1.51.987 38.398 38.398 0 0 0 3.419 9.76c.873 1.7 2.649 4.554 4.712 4.459 1.153-.064 2.395-1.166 3.184-2.81a19.507 19.507 0 0 0 1.408-5.81c.853-7.185 1.273-21.6 1.273-21.747a1.269 1.269 0 0 1 .4-.89 1.272 1.272 0 0 1 1.802.054 1.28 1.28 0 0 1 .346.913c0 .592-.44 14.65-1.274 21.97a21.783 21.783 0 0 1-1.63 6.587c-1.204 2.548-3.184 4.166-5.337 4.274l-.286-.012ZM231.851 32.96a1.273 1.273 0 0 1-1.165-.758c-.427-.969-1.618-1.79-2.452-1.676a4.343 4.343 0 0 0-2.834 1.911 1.27 1.27 0 0 1-1.347.568 1.274 1.274 0 0 1-.722-2.046 6.853 6.853 0 0 1 4.572-2.95c2.19-.292 4.317 1.39 5.094 3.186a1.275 1.275 0 0 1-.637 1.682c-.163.06-.336.088-.509.083Z" fill="#670A6F"/><path opacity=".7" d="M221.286 21.92a1.273 1.273 0 0 0-1.235-1.05 34.529 34.529 0 0 0-7.973.795 1.275 1.275 0 0 0-.987 1.44c1.949 12.441 6.578 46.056 7.361 89.418a1.275 1.275 0 0 0 1.274 1.274h9.8a1.262 1.262 0 0 0 .919-.391 1.27 1.27 0 0 0 .355-.934c-1.764-44.075-7.24-78.009-9.514-90.552ZM242.892 22.398a1.268 1.268 0 0 0-.999-1.02 32.318 32.318 0 0 0-8.279-.591 1.274 1.274 0 0 0-1.19 1.471c2.031 12.575 6.845 46.547 7.775 90.272a1.272 1.272 0 0 0 1.273 1.242h9.833a1.274 1.274 0 0 0 .917-.388 1.284 1.284 0 0 0 .35-.937c-1.783-41.903-6.833-74.39-9.68-90.049Z" fill="#A3FBFF"/><path d="M209.372 24.978a1.273 1.273 0 0 1-.382-2.49 34.753 34.753 0 0 1 12.468-1.568 1.277 1.277 0 1 1-.14 2.548 32.142 32.142 0 0 0-11.557 1.453 1.19 1.19 0 0 1-.389.057ZM242.95 24.195c-.105 0-.21-.014-.312-.039a29.61 29.61 0 0 0-9.998-.751 1.282 1.282 0 0 1-1.397-1.15 1.278 1.278 0 0 1 1.149-1.398 32.223 32.223 0 0 1 10.889.802 1.271 1.271 0 0 1 .955 1.39 1.278 1.278 0 0 1-1.26 1.12l-.026.026Z" fill="#670A6F"/><path d="M269.694 115.999H1.306c-.214 0-.419-.134-.57-.373a1.717 1.717 0 0 1-.236-.901c0-.338.085-.661.236-.9.151-.239.356-.373.57-.373h268.388c.214 0 .419.134.57.373.151.239.236.562.236.9 0 .338-.085.662-.236.901-.151.239-.356.373-.57.373Z" fill="#CFD8DC"/></svg>