<svg width="48" height="45" viewBox="0 0 48 45" fill="none" xmlns="http://www.w3.org/2000/svg"><path fill-rule="evenodd" clip-rule="evenodd" d="M24 20.37c6.098 0 11.248 3.268 11.248 7.132s-5.15 7.13-11.248 7.13c-6.098 0-11.25-3.268-11.25-7.13 0-3.864 5.152-7.132 11.25-7.132z" fill="#ACE9E1"/><path fill-rule="evenodd" clip-rule="evenodd" d="M4.053 41.252l6.14-11.225c1.536 4.45 7.043 7.662 13.807 7.662 6.727 0 12.212-3.18 13.783-7.592l6.153 11.155H4.053zM23.995 5.11l7.574 13.728c-2.182-.962-4.763-1.523-7.569-1.523-2.848 0-5.47.578-7.672 1.569l7.667-13.772V5.11z" fill="#59D3C4"/><path fill-rule="evenodd" clip-rule="evenodd" d="M24 24.445c1.654 0 3 1.371 3 3.057 0 1.683-1.346 3.055-3 3.055s-3-1.372-3-3.055c0-1.686 1.346-3.057 3-3.057z" fill="#59D3C4"/><path fill-rule="evenodd" clip-rule="evenodd" d="M4.053 41.252l6.14-11.225c1.536 4.45 7.043 7.662 13.807 7.662 6.727 0 12.212-3.18 13.783-7.592l6.153 11.155H4.053zM23.995 5.11l7.574 13.728c-2.182-.962-4.763-1.523-7.569-1.523-2.849 0-5.47.578-7.672 1.569l7.667-13.772V5.11zM24 20.37c6.098 0 11.248 3.268 11.248 7.132s-5.15 7.13-11.248 7.13c-6.098 0-11.25-3.268-11.25-7.13 0-3.864 5.152-7.132 11.25-7.132zm1.307-19.353l22.5 40.896a1.666 1.666 0 01-.012 1.578c-.27.469-.763.816-1.296.816h-45a1.495 1.495 0 01-1.292-.753 1.55 1.55 0 01-.016-1.52l11.25-20.567L22.695 1.012C22.963.532 23.459 0 24.002 0c.543 0 1.04.535 1.305 1.017zM24 24.445c1.654 0 3 1.371 3 3.057 0 1.683-1.346 3.055-3 3.055s-3-1.372-3-3.055c0-1.686 1.346-3.057 3-3.057zm0 9.167c3.308 0 6-2.741 6-6.11 0-3.371-2.692-6.11-6-6.11s-6 2.739-6 6.11c0 3.369 2.692 6.11 6 6.11zM37.5 9.168a1.483 1.483 0 01-1.06-.449 1.547 1.547 0 010-2.16l4.501-4.584a1.478 1.478 0 012.12 0 1.547 1.547 0 010 2.16l-4.5 4.584a1.482 1.482 0 01-1.061.449zm1.516 7.637c0-.834.664-1.527 1.486-1.527h6c.82 0 1.482.693 1.482 1.527 0 .837-.663 1.529-1.482 1.529h-6a1.512 1.512 0 01-1.486-1.529zM9.44 8.72l-4.5-4.584a1.547 1.547 0 010-2.16 1.479 1.479 0 012.122 0L11.56 6.56a1.547 1.547 0 010 2.16 1.482 1.482 0 01-2.121 0zM1.5 18.334a1.513 1.513 0 01-1.5-1.529 1.514 1.514 0 011.5-1.527h6a1.514 1.514 0 011.5 1.527 1.514 1.514 0 01-1.5 1.529h-6z" fill="#0F9989"/></svg>