<svg width="48" height="48" viewBox="0 0 48 48" fill="none" xmlns="http://www.w3.org/2000/svg"><path opacity=".4" fill-rule="evenodd" clip-rule="evenodd" d="M27.638 2.694c2.461 0 4.792.565 6.887 1.549l-8.37 12.754V4.176a1.486 1.486 0 011.483-1.483v.001zm16.3 16.297c0 .817-.666 1.482-1.483 1.482h-11.52l12.309-6.174c.459 1.522.693 3.102.693 4.692z" fill="#000"/><path fill-rule="evenodd" clip-rule="evenodd" d="M45 28.524a8.986 8.986 0 01-8.977 8.976H16.472c-4.182 0-7.869-2.965-8.76-7.048-.224-1.022-.967-1.895-1.989-2.332-2.04-.873-3.107-3.015-2.601-5.209a4.467 4.467 0 014.391-3.414c1.895 0 3.335 1.172 3.996 2.513.604 1.228 1.796 1.99 3.113 1.99h27.401A2.98 2.98 0 0145 26.977v1.547zM35.997 45a1.502 1.502 0 010-3 1.502 1.502 0 010 3.001V45zm-19.501 0a1.502 1.502 0 010-3 1.502 1.502 0 010 3.001V45zm12-42c2.492 0 4.852.573 6.974 1.569L26.998 17.48V4.5a1.502 1.502 0 011.5-1.5h-.001zm14.663 8.964l-13.347 6.695L38.066 6.08a16.624 16.624 0 015.094 5.883zM45 19.5a1.502 1.502 0 01-1.501 1.5H31.835l12.461-6.25c.452 1.505.703 3.098.703 4.75zm3 0c0 1.378-.635 2.597-1.613 3.422A5.941 5.941 0 0148 26.977v1.547c0 5.594-3.862 10.29-9.058 11.6A4.473 4.473 0 0140.5 43.5a4.506 4.506 0 01-4.502 4.5 4.506 4.506 0 01-4.5-4.5c0-1.157.451-2.202 1.17-3h-12.84a4.471 4.471 0 011.168 3 4.505 4.505 0 01-4.5 4.5 4.506 4.506 0 01-4.5-4.5c0-1.349.608-2.547 1.553-3.372-4.303-1.101-7.792-4.563-8.769-9.037-.014-.06-.1-.154-.237-.212C1.2 29.447-.628 25.813.197 22.24a7.423 7.423 0 015.528-5.534c3.436-.795 6.927.84 8.476 3.98.077.152.227.314.422.314h9.374V4.5A4.506 4.506 0 0128.498 0C39.252 0 48 8.748 48 19.5zM6.43 22.936A1.578 1.578 0 005.997 24c.002.397.157.779.433 1.065a1.58 1.58 0 001.065.435c.39 0 .78-.164 1.066-.433.277-.287.432-.669.435-1.067a1.58 1.58 0 00-.434-1.064c-.557-.556-1.576-.556-2.13 0z" fill="#000"/></svg>