<svg width="48" height="48" viewBox="0 0 48 48" fill="none" xmlns="http://www.w3.org/2000/svg"><path fill-rule="evenodd" clip-rule="evenodd" d="M47.998 19.5c0-10.752-8.747-19.5-19.5-19.5a4.505 4.505 0 00-4.502 4.5V21h-9.374c-.195 0-.345-.163-.423-.317-1.547-3.136-5.04-4.773-8.475-3.976A7.424 7.424 0 00.196 22.24c-.822 3.574 1.004 7.208 4.346 8.64.138.058.224.152.238.212.978 4.474 4.466 7.935 8.767 9.037a4.467 4.467 0 00-1.552 3.37 4.505 4.505 0 004.5 4.502 4.506 4.506 0 004.501-4.5 4.473 4.473 0 00-1.17-3h12.842a4.47 4.47 0 00-1.171 3 4.505 4.505 0 004.5 4.498 4.505 4.505 0 004.5-4.499c0-1.35-.61-2.548-1.554-3.374 5.194-1.31 9.057-6.007 9.057-11.6v-1.547a5.94 5.94 0 00-1.615-4.055A4.474 4.474 0 0048 19.5h-.002z" fill="#CFD8DC"/><path fill-rule="evenodd" clip-rule="evenodd" d="M44.998 28.524a8.987 8.987 0 01-8.977 8.975h-19.55c-4.182 0-7.87-2.962-8.761-7.047-.223-1.022-.966-1.895-1.988-2.331-2.038-.873-3.108-3.016-2.602-5.21a4.468 4.468 0 014.392-3.415c1.896 0 3.336 1.174 3.998 2.515.603 1.227 1.796 1.989 3.11 1.989h27.4A2.982 2.982 0 0145 26.978v1.546h-.002zm-9 16.474a1.502 1.502 0 010-2.998 1.502 1.502 0 010 3v-.002zm-19.502 0a1.502 1.502 0 010-2.998 1.501 1.501 0 010 3v-.002zM28.496 3c2.493 0 4.852.573 6.973 1.567L26.997 17.48V4.502A1.505 1.505 0 0128.497 3zm14.664 8.963l-13.35 6.695L38.063 6.08a16.624 16.624 0 015.095 5.882h.002zm1.838 7.536c0 .828-.674 1.5-1.5 1.5H31.834l12.462-6.25c.465 1.541.702 3.141.702 4.75zm3 0c0 1.378-.634 2.598-1.611 3.424a5.941 5.941 0 011.611 4.054v1.547c0 5.596-3.86 10.29-9.055 11.6.945.827 1.555 2.025 1.555 3.376a4.505 4.505 0 01-4.499 4.499 4.505 4.505 0 01-4.502-4.5c0-1.156.451-2.202 1.171-3H19.825c.75.82 1.168 1.89 1.171 3a4.505 4.505 0 01-4.5 4.5 4.505 4.505 0 01-4.5-4.5c0-1.347.608-2.546 1.551-3.37-4.3-1.103-7.79-4.564-8.768-9.038-.013-.06-.1-.153-.236-.213C1.2 29.445-.627 25.813.197 22.24a7.424 7.424 0 015.525-5.533c3.438-.798 6.929.839 8.479 3.977.075.154.226.317.42.317h9.374V4.5A4.505 4.505 0 0128.497 0C39.25 0 47.998 8.747 47.998 19.5v-.002zM6.43 22.935c-.27.286-.434.675-.434 1.066 0 .405.165.78.434 1.065.286.27.674.434 1.066.434.389 0 .78-.165 1.066-.434A1.55 1.55 0 008.996 24c0-.389-.166-.78-.436-1.066-.554-.553-1.575-.553-2.13 0v.001z" fill="#6E2A83"/><path opacity=".4" fill-rule="evenodd" clip-rule="evenodd" d="M28.497 3.002c2.492 0 4.851.572 6.972 1.567l-8.472 12.912V4.501a1.505 1.505 0 011.5-1.5zM44.998 19.5c0 .828-.674 1.5-1.5 1.5H31.834l12.462-6.25a16.47 16.47 0 01.702 4.75z" fill="#fff"/><path fill-rule="evenodd" clip-rule="evenodd" d="M44.998 28.524a8.987 8.987 0 01-8.977 8.975h-19.55c-4.182 0-7.87-2.962-8.761-7.047-.223-1.022-.966-1.895-1.988-2.331-2.038-.873-3.108-3.016-2.602-5.21a4.468 4.468 0 014.392-3.415c1.896 0 3.336 1.174 3.998 2.515.603 1.227 1.796 1.989 3.11 1.989h27.4A2.982 2.982 0 0145 26.978v1.546h-.002zm-9 16.474a1.502 1.502 0 010-2.998 1.502 1.502 0 010 3v-.002zm-19.502 0a1.502 1.502 0 010-2.998 1.501 1.501 0 010 3v-.002zM28.496 3c2.493 0 4.852.573 6.973 1.567L26.997 17.48V4.502A1.505 1.505 0 0128.497 3zm14.664 8.963l-13.35 6.695L38.063 6.08a16.624 16.624 0 015.095 5.882h.002zm1.838 7.536c0 .828-.674 1.5-1.5 1.5H31.834l12.462-6.25c.465 1.541.702 3.141.702 4.75zm3 0c0 1.378-.634 2.598-1.611 3.424a5.941 5.941 0 011.611 4.054v1.547c0 5.596-3.86 10.29-9.055 11.6.945.827 1.555 2.025 1.555 3.376a4.505 4.505 0 01-4.499 4.499 4.505 4.505 0 01-4.502-4.5c0-1.156.451-2.202 1.171-3H19.825c.75.82 1.168 1.89 1.171 3a4.505 4.505 0 01-4.5 4.5 4.505 4.505 0 01-4.5-4.5c0-1.347.608-2.546 1.551-3.37-4.3-1.103-7.79-4.564-8.768-9.038-.013-.06-.1-.153-.236-.213C1.2 29.445-.627 25.813.197 22.24a7.424 7.424 0 015.525-5.533c3.438-.798 6.929.839 8.479 3.977.075.154.226.317.42.317h9.374V4.5A4.505 4.505 0 0128.497 0C39.25 0 47.998 8.747 47.998 19.5v-.002zM6.43 22.935c-.27.286-.434.675-.434 1.066 0 .405.165.78.434 1.065.286.27.674.434 1.066.434.389 0 .78-.165 1.066-.434A1.55 1.55 0 008.996 24c0-.389-.166-.78-.436-1.066-.554-.553-1.575-.553-2.13 0v.001z" fill="#253238"/><path opacity=".5" fill-rule="evenodd" clip-rule="evenodd" d="M28.497 3.002c2.492 0 4.851.572 6.972 1.567l-8.472 12.912V4.501a1.505 1.505 0 011.5-1.5zM44.998 19.5c0 .828-.674 1.5-1.5 1.5H31.834l12.462-6.25a16.47 16.47 0 01.702 4.75z" fill="#fff"/></svg>