<svg width="48" height="48" viewBox="0 0 48 48" fill="none" xmlns="http://www.w3.org/2000/svg"><path fill-rule="evenodd" clip-rule="evenodd" d="M48 19.5C48 8.75 39.251 0 28.498 0a4.505 4.505 0 00-4.5 4.5V21h-9.375c-.196 0-.345-.162-.423-.316-1.547-3.138-5.04-4.775-8.478-3.977a7.424 7.424 0 00-5.525 5.534c-.825 3.574 1.003 7.206 4.345 8.639.136.06.224.153.237.213.978 4.474 4.467 7.935 8.769 9.037a4.468 4.468 0 00-1.552 3.37 4.505 4.505 0 004.499 4.5 4.506 4.506 0 004.502-4.498 4.467 4.467 0 00-1.171-3h12.843a4.47 4.47 0 00-1.17 3 4.505 4.505 0 004.5 4.499 4.505 4.505 0 004.5-4.5c0-1.35-.611-2.548-1.555-3.374C44.14 38.817 48 34.12 48 28.525v-1.547c0-1.568-.62-2.986-1.611-4.054A4.472 4.472 0 0048 19.501z" fill="#13C1AC" fill-opacity=".7"/><path opacity=".4" fill-rule="evenodd" clip-rule="evenodd" d="M28.498 3.002c2.492 0 4.851.572 6.972 1.568l-8.472 12.912V4.502A1.505 1.505 0 0128.498 3v.002zM45 19.5c0 .827-.675 1.5-1.5 1.5H31.834l12.462-6.25c.465 1.54.702 3.14.703 4.75z" fill="#fff"/><path fill-rule="evenodd" clip-rule="evenodd" d="M45 28.525a8.987 8.987 0 01-8.978 8.976h-19.55c-4.183 0-7.87-2.963-8.762-7.048-.222-1.022-.965-1.895-1.988-2.331-2.037-.873-3.108-3.016-2.602-5.21a4.468 4.468 0 014.393-3.415c1.895 0 3.335 1.174 3.997 2.514.604 1.228 1.796 1.99 3.112 1.99h27.4a2.982 2.982 0 012.98 2.978v1.546H45zM35.999 45a1.502 1.502 0 010-2.999 1.502 1.502 0 010 3V45zm-19.503 0a1.502 1.502 0 010-2.999 1.502 1.502 0 010 3V45zM28.498 3c2.492 0 4.851.573 6.972 1.567l-8.472 12.914V4.501A1.505 1.505 0 0128.498 3zm14.663 8.963l-13.35 6.695 8.254-12.576a16.624 16.624 0 015.094 5.881h.002zM45 19.5c0 .828-.674 1.5-1.5 1.5H31.834l12.462-6.25c.465 1.54.702 3.141.703 4.75zm3 0c0 1.378-.635 2.598-1.611 3.424A5.941 5.941 0 0148 26.977v1.548c0 5.596-3.86 10.29-9.056 11.6.945.827 1.555 2.025 1.555 3.376a4.505 4.505 0 01-4.499 4.5 4.505 4.505 0 01-4.502-4.5c0-1.157.452-2.202 1.171-3H19.826c.75.82 1.167 1.89 1.17 3a4.505 4.505 0 01-4.5 4.5 4.505 4.505 0 01-4.5-4.5c0-1.348.608-2.547 1.552-3.372-4.302-1.102-7.791-4.563-8.77-9.037-.012-.06-.1-.153-.234-.213C1.2 29.446-.628 25.814.197 22.24a7.424 7.424 0 015.525-5.533c3.438-.798 6.93.838 8.48 3.977.075.153.225.316.42.316h9.374V4.5A4.505 4.505 0 0128.498 0C39.25.001 48 8.748 48 19.501zM6.43 22.936c-.27.285-.435.674-.435 1.066 0 .405.165.78.434 1.065.286.27.674.434 1.066.434.39 0 .78-.165 1.066-.434.277-.287.432-.669.435-1.066 0-.39-.167-.78-.436-1.066-.555-.554-1.576-.554-2.13 0v.001z" fill="#0F9989"/></svg>