<svg width="48" height="48" viewBox="0 0 48 48" fill="none" xmlns="http://www.w3.org/2000/svg"><path fill-rule="evenodd" clip-rule="evenodd" d="M40.979 40.977c9.361-9.361 9.361-24.594 0-33.956-9.363-9.361-24.598-9.361-33.958 0-9.361 9.361-9.361 24.595 0 33.956A23.929 23.929 0 0023.998 48c6.15 0 12.3-2.34 16.98-7.023z" fill="#13C1AC" fill-opacity=".5"/><path fill-rule="evenodd" clip-rule="evenodd" d="M3.007 23.77c1.646.541 3.367.82 5.1.825 3.825 0 7.581-1.332 10.59-3.837L21.94 24 11.307 34.63a1.505 1.505 0 002.125 2.128l10.633-10.633 3.245 3.244a16.538 16.538 0 00-3.046 15.62c-.09.002-.175.014-.266.014a20.87 20.87 0 01-14.85-6.152A20.867 20.867 0 012.996 24c0-.079.009-.154.01-.23zm5.16-13.542l8.379 8.377a13.514 13.514 0 01-13.268 2.082 20.787 20.787 0 014.89-10.459h-.001zm2.129-2.122a20.785 20.785 0 0110.47-4.84 13.518 13.518 0 01-2.095 13.214l-8.375-8.374zm28.556 1.04a20.873 20.873 0 016.152 14.855c0 .058-.007.116-.009.175a16.545 16.545 0 00-15.558 3.068l-3.245-3.245 10.633-10.63a1.505 1.505 0 00-2.126-2.128L24.065 21.874l-3.243-3.245a16.536 16.536 0 003.04-15.627c.048 0 .092-.006.137-.006 5.61 0 10.885 2.185 14.853 6.15zm1.042 28.555l-8.308-8.308a13.521 13.521 0 0113.141-2.118 20.78 20.78 0 01-4.833 10.426zm-10.433-6.18l8.31 8.31a20.784 20.784 0 01-10.413 4.883A13.516 13.516 0 0129.46 31.52h.002zm11.518 9.456c9.361-9.361 9.361-24.594 0-33.956-9.363-9.361-24.598-9.361-33.958 0-9.361 9.361-9.361 24.595 0 33.956A23.929 23.929 0 0023.998 48c6.15 0 12.3-2.34 16.98-7.023z" fill="#13C1AC"/><path opacity=".719" fill-rule="evenodd" clip-rule="evenodd" d="M3.006 23.77c1.647.541 3.368.82 5.101.825 3.825 0 7.58-1.332 10.59-3.837L21.94 24 11.307 34.63a1.504 1.504 0 002.125 2.128l10.633-10.633 3.245 3.244a16.54 16.54 0 00-3.046 15.62c-.09.002-.176.014-.267.014a20.87 20.87 0 01-14.849-6.152A20.867 20.867 0 012.995 24c0-.079.01-.154.011-.23zM38.852 9.147A20.87 20.87 0 0145.004 24c0 .058-.008.116-.01.175a16.545 16.545 0 00-15.557 3.068L26.192 24l10.633-10.63a1.505 1.505 0 00-2.126-2.128L24.065 21.874l-3.243-3.245a16.537 16.537 0 003.04-15.627c.048 0 .092-.006.137-.006 5.61 0 10.885 2.185 14.853 6.15z" fill="#fff"/></svg>