<svg width="48" height="48" viewBox="0 0 48 48" fill="none" xmlns="http://www.w3.org/2000/svg"><path fill-rule="evenodd" clip-rule="evenodd" d="M3.007 23.77c1.673.543 3.391.826 5.1.826a16.54 16.54 0 0010.591-3.84L21.94 24 11.306 34.633a1.505 1.505 0 002.126 2.125l10.633-10.632 3.245 3.244a16.54 16.54 0 00-3.047 15.621c-.088 0-.175.014-.263.014a20.874 20.874 0 01-14.852-6.153A20.865 20.865 0 012.996 24c0-.077.01-.153.011-.23zm5.161-13.54l8.377 8.377a13.514 13.514 0 01-13.267 2.082 20.787 20.787 0 014.89-10.46zm2.129-2.123a20.785 20.785 0 0110.47-4.839 13.517 13.517 0 01-2.095 13.213l-8.377-8.374h.002zm28.555 1.042A20.872 20.872 0 0145.004 24c0 .059-.008.118-.01.177a16.543 16.543 0 00-15.558 3.065L26.192 24l10.633-10.631a1.505 1.505 0 00-2.126-2.127L24.065 21.873l-3.242-3.245a16.537 16.537 0 003.04-15.625c.047 0 .09-.006.137-.006A20.871 20.871 0 0138.852 9.15v-.002zM39.894 37.7l-8.307-8.304a13.522 13.522 0 0113.14-2.12 20.779 20.779 0 01-4.831 10.427l-.002-.003zM29.46 31.52l8.31 8.312a20.784 20.784 0 01-10.413 4.882A13.515 13.515 0 0129.46 31.52zm11.517 9.458c9.363-9.362 9.363-24.594 0-33.956-9.362-9.363-24.596-9.363-33.956 0-9.363 9.362-9.363 24.594 0 33.956A23.931 23.931 0 0024 48c6.148 0 12.297-2.34 16.978-7.022z" fill="#000"/></svg>