<svg width="48" height="45" viewBox="0 0 48 45" fill="none" xmlns="http://www.w3.org/2000/svg"><path opacity=".7" fill-rule="evenodd" clip-rule="evenodd" d="M15 35.99c0 3.309-2.691 6-6 6s-6-2.691-6-6c0-3.31 2.691-6 6-6s6 2.69 6 6" fill="#13C1AC"/><path opacity=".65" fill-rule="evenodd" clip-rule="evenodd" d="M15 35.99c0 3.309-2.691 6-6 6s-6-2.691-6-6c0-3.31 2.691-6 6-6s6 2.69 6 6" fill="#fff"/><path fill-rule="evenodd" clip-rule="evenodd" d="M34.5 41.99c-5.79 0-10.5-4.71-10.5-10.5 0-4.508 2.86-8.35 6.858-9.836l2.175 10.15a1.502 1.502 0 002.934-.63l-2.175-10.15c.236-.013.47-.034.708-.034 5.79 0 10.5 4.711 10.5 10.5 0 5.79-4.71 10.5-10.5 10.5zm-19.5-6c0 3.309-2.691 6-6 6s-6-2.691-6-6c0-3.31 2.691-6 6-6s6 2.69 6 6zm19.5-18c7.443 0 13.5 6.055 13.5 13.5 0 7.444-6.057 13.5-13.5 13.5S21 38.934 21 31.49c0-5.225 2.99-9.758 7.344-12H20.25c-4.88 0-8.922 3.33-9.629 7.654C14.813 27.91 18 31.581 18 35.99c0 4.965-4.037 9-9 9s-9-4.035-9-9c0-4.482 3.297-8.2 7.591-8.879.515-4.22 3.368-7.774 7.305-9.498-1.845-1.245-3.273-3.036-3.952-5.167a1.452 1.452 0 01.018-.876c-3.05-.449-4.147-1.145-4.522-1.52a1.5 1.5 0 112.019-2.215C8.66 7.959 10.563 8.99 18 8.99a1.5 1.5 0 010 3 64.22 64.22 0 01-4.057-.119c1.046 2.732 3.882 4.62 7.057 4.62h8.751l-1.218-5.685c-.012-.055.003-.108-.002-.162-.005-.054-.031-.1-.031-.154 0-.048.024-.09.029-.135.008-.102.028-.203.06-.3.026-.09.06-.177.103-.26a1.45 1.45 0 01.157-.234c.183-.228.43-.396.71-.48.045-.015.08-.048.127-.058.053-.01.104.003.158 0 .054-.006.1-.033.156-.033h3a1.502 1.502 0 000-3h-6a1.5 1.5 0 010-3h6c2.481 0 4.5 2.019 4.5 4.5 0 2.48-2.019 4.5-4.5 4.5h-1.145l1.301 6.069c.443-.044.891-.07 1.344-.07zM7.62 35.42a1.493 1.493 0 00.315 1.635c.285.285.66.435 1.065.435a1.485 1.485 0 001.5-1.5c0-.195-.03-.39-.12-.57a1.732 1.732 0 00-.315-.495c-.15-.135-.3-.24-.495-.315a1.5 1.5 0 00-1.635.315c-.135.15-.24.315-.315.495zM36.435 2.555a1.732 1.732 0 01-.315-.495 1.486 1.486 0 01-.12-.57c0-.39.165-.78.435-1.065a1.548 1.548 0 012.13 0C38.835.71 39 1.1 39 1.49c0 .195-.045.39-.12.57-.075.18-.18.345-.315.495a1.485 1.485 0 01-1.065.435 1.24 1.24 0 01-.57-.12 1.46 1.46 0 01-.495-.315z" fill="#13C1AC"/><path opacity=".434" fill-rule="evenodd" clip-rule="evenodd" d="M34.5 41.99c-5.79 0-10.5-4.71-10.5-10.5 0-4.508 2.86-8.35 6.858-9.836l2.175 10.15a1.502 1.502 0 002.934-.63l-2.175-10.15c.236-.013.47-.034.708-.034 5.79 0 10.5 4.711 10.5 10.5 0 5.79-4.71 10.5-10.5 10.5" fill="#13C1AC"/></svg>