<svg width="48" height="46" viewBox="0 0 48 46" fill="none" xmlns="http://www.w3.org/2000/svg"><path fill-rule="evenodd" clip-rule="evenodd" d="M34.5 42C28.71 42 24 37.287 24 31.497c0-4.507 2.86-8.35 6.858-9.837l2.175 10.154a1.502 1.502 0 002.934-.63l-2.175-10.155c.236-.012.47-.033.708-.033 5.79 0 10.5 4.713 10.5 10.501C45 37.287 40.29 42 34.5 42zM15 36a6.007 6.007 0 01-6 6c-3.309 0-6-2.69-6-6a6.008 6.008 0 016-6.004c3.309 0 6 2.692 6 6.001V36zm19.5-18.004c7.443 0 13.5 6.057 13.5 13.503 0 7.447-6.057 13.504-13.5 13.504S21 38.945 21 31.496c0-5.225 2.99-9.76 7.344-12.002H20.25c-4.88 0-8.922 3.33-9.629 7.656 4.191.765 7.379 4.437 7.379 8.847A9.01 9.01 0 019 45c-4.963 0-9-4.038-9-9.003 0-4.483 3.297-8.2 7.591-8.88.515-4.222 3.368-7.777 7.305-9.5-1.845-1.247-3.273-3.037-3.952-5.17a1.454 1.454 0 01.018-.876c-3.05-.448-4.147-1.144-4.522-1.52a1.5 1.5 0 012.019-2.215c.202.125 2.104 1.155 9.541 1.155a1.5 1.5 0 010 3c-1.55 0-2.887-.045-4.057-.118 1.046 2.734 3.882 4.623 7.057 4.623h8.751l-1.218-5.685c-.012-.056.003-.108-.002-.162-.005-.054-.031-.1-.031-.155 0-.048.024-.09.029-.136.008-.102.028-.202.06-.299.026-.09.06-.176.103-.26a1.45 1.45 0 01.157-.233c.182-.23.43-.397.71-.482.045-.015.08-.046.127-.057.053-.01.104.003.158-.001.054-.005.1-.032.156-.032h3a1.502 1.502 0 000-3h-6a1.5 1.5 0 010-3.001h6c2.481 0 4.5 2.019 4.5 4.5a4.506 4.506 0 01-4.5 4.501h-1.145l1.301 6.07c.443-.043.891-.068 1.344-.068zM7.62 35.427a1.494 1.494 0 00.315 1.635c.285.285.66.435 1.065.435a1.485 1.485 0 001.5-1.5c0-.195-.03-.39-.12-.57a1.753 1.753 0 00-.315-.495c-.15-.135-.3-.24-.495-.315a1.5 1.5 0 00-1.635.315c-.135.152-.24.315-.315.495zM36.435 2.555a1.732 1.732 0 01-.315-.495 1.488 1.488 0 01-.12-.57c0-.39.165-.78.435-1.065a1.548 1.548 0 012.13 0C38.835.71 39 1.1 39 1.49c0 .195-.045.39-.12.57-.075.18-.18.345-.315.495a1.485 1.485 0 01-1.065.435 1.238 1.238 0 01-.57-.12 1.46 1.46 0 01-.495-.315z" fill="#000"/></svg>