<svg width="48" height="47" viewBox="0 0 48 47" fill="none" xmlns="http://www.w3.org/2000/svg"><path fill-rule="evenodd" clip-rule="evenodd" d="M3.078 46.448h4.728a3.066 3.066 0 003.076-3.047V22.767l1.566 20.863c.06.81.437 1.55 1.06 2.082a3.064 3.064 0 002.236.731l4.716-.347a3.065 3.065 0 002.103-1.052 3.02 3.02 0 00.738-2.215l-1.97-26.219 3.575 27.188a3.071 3.071 0 003.447 2.63l4.69-.606a3.064 3.064 0 002.041-1.163 3.003 3.003 0 00.612-2.253l-.738-5.624 2.566 7.589a3.078 3.078 0 003.895 1.922l4.482-1.489a3.047 3.047 0 001.942-3.86l-6.432-19.018a3.083 3.083 0 00-3.896-1.921l-4.483 1.489c-.027.008-.051.022-.08.034l-1.675-12.76A3.079 3.079 0 0027.83 6.14l-4.69.604a3.062 3.062 0 00-2.41 1.807l-.432-5.728A3.057 3.057 0 0017.003.01l-4.718.348A3.067 3.067 0 0010.2 1.393 3.072 3.072 0 007.806.235H3.078A3.066 3.066 0 000 3.283v40.118c0 1.68 1.38 3.049 3.078 3.049v-.002z" fill="#13C1AC" fill-opacity=".7"/><path fill-rule="evenodd" clip-rule="evenodd" d="M7.773 3.283V43.37l-4.663.032-.032-40.085 4.695-.033zm9.424-.231l3 39.972-4.648.377L12.516 3.43l4.681-.377zm10.996 6.112l4.414 33.608-4.62.63L23.541 9.8l4.652-.636zm10.268 13.74l6.42 18.99-4.41 1.498-6.452-18.98 4.442-1.507zM3.078 46.449h4.728a3.066 3.066 0 003.076-3.047V22.767l1.566 20.863c.06.81.437 1.55 1.06 2.082a3.064 3.064 0 002.236.731l4.716-.347a3.065 3.065 0 002.103-1.052 3.02 3.02 0 00.738-2.215l-1.97-26.219 3.575 27.188a3.071 3.071 0 003.447 2.63l4.69-.606a3.064 3.064 0 002.041-1.163 3.003 3.003 0 00.612-2.253l-.738-5.624 2.566 7.589a3.078 3.078 0 003.895 1.922l4.482-1.489a3.047 3.047 0 001.942-3.86l-6.432-19.018a3.083 3.083 0 00-3.896-1.921l-4.483 1.489c-.027.008-.051.022-.08.034l-1.675-12.76A3.079 3.079 0 0027.83 6.14l-4.69.604a3.062 3.062 0 00-2.41 1.807l-.432-5.728A3.057 3.057 0 0017.003.01l-4.718.348A3.067 3.067 0 0010.2 1.393 3.072 3.072 0 007.806.235H3.078A3.066 3.066 0 000 3.283v40.118c0 1.68 1.38 3.049 3.078 3.049v-.002z" fill="#0F9989"/><path fill-rule="evenodd" clip-rule="evenodd" d="M17.198 3.052l3 39.973-4.65.377-3.032-39.973 4.682-.377zM38.46 22.905l6.421 18.988-4.41 1.499-6.452-18.98 4.441-1.507z" fill="#fff" fill-opacity=".5"/></svg>