<svg width="48" height="47" viewBox="0 0 48 47" fill="none" xmlns="http://www.w3.org/2000/svg"><path fill-rule="evenodd" clip-rule="evenodd" d="M7.773 3.282v40.041l-4.664.032-.032-40.042 4.696-.032v.001zm9.425-.233l3 39.932-4.65.374-3.032-39.929 4.682-.377zm10.996 6.106l4.415 33.573-4.621.627-4.449-33.567 4.655-.633zm10.268 13.727l6.423 18.968-4.413 1.497-6.452-18.96 4.442-1.505zM3.075 46.402h4.73c1.696 0 3.077-1.367 3.077-3.047V22.743l1.565 20.841a3.01 3.01 0 001.061 2.08 3.066 3.066 0 002.236.732l4.717-.35a3.061 3.061 0 002.84-3.26l-1.968-26.194 3.573 27.16a3.013 3.013 0 001.173 2.021 3.074 3.074 0 002.272.608l4.69-.606a3.063 3.063 0 002.577-2.226 3.01 3.01 0 00.079-1.187l-.74-5.618 2.567 7.58a3.079 3.079 0 002.92 2.078c.324 0 .652-.05.977-.158l4.482-1.487a3.043 3.043 0 001.94-3.856l-6.432-18.998a3.085 3.085 0 00-3.896-1.92l-4.48 1.488c-.03.01-.055.024-.082.035L31.276 8.759c-.22-1.664-1.773-2.843-3.448-2.627l-4.689.603a3.061 3.061 0 00-2.411 1.808l-.432-5.723A3.06 3.06 0 0017 .01l-4.717.347A3.077 3.077 0 0010.2 1.391 3.072 3.072 0 007.805.236h-4.73C1.38.236 0 1.602 0 3.28v40.074c0 1.68 1.38 3.047 3.075 3.047z" fill="#000"/></svg>