<svg width="48" height="47" viewBox="0 0 48 47" fill="none" xmlns="http://www.w3.org/2000/svg"><path fill-rule="evenodd" clip-rule="evenodd" d="M3.076 46.452h4.729a3.066 3.066 0 003.076-3.048V22.768l1.564 20.864a3.011 3.011 0 001.062 2.082 3.065 3.065 0 002.235.732l4.717-.348a3.067 3.067 0 002.104-1.052 3.01 3.01 0 00.736-2.214L21.33 16.611l3.573 27.19a3.071 3.071 0 003.447 2.63l4.688-.605a3.063 3.063 0 002.044-1.165c.5-.644.716-1.445.611-2.253l-.738-5.625 2.567 7.59a3.078 3.078 0 003.893 1.922l4.484-1.489a3.047 3.047 0 001.942-3.859l-6.432-19.02a3.084 3.084 0 00-3.897-1.921l-4.482 1.489c-.028.008-.052.024-.081.035L31.275 8.77a3.08 3.08 0 00-3.448-2.63l-4.69.603a3.062 3.062 0 00-2.411 1.81l-.43-5.729A3.06 3.06 0 0016.998.01l-4.715.348a3.078 3.078 0 00-2.086 1.036A3.072 3.072 0 007.803.237H3.076A3.066 3.066 0 000 3.285v40.119c0 1.68 1.38 3.048 3.076 3.048z" fill="#CFD8DC"/><path fill-rule="evenodd" clip-rule="evenodd" d="M7.772 3.285v40.086l-4.665.032-.032-40.085 4.697-.033zm9.423-.233l3.002 39.976-4.651.376-3.03-39.975 4.679-.377zm10.997 6.114l4.415 33.61-4.62.627L23.538 9.8l4.654-.634zM38.46 22.907l6.422 18.988-4.413 1.499-6.451-18.978 4.442-1.509zM3.076 46.452h4.73a3.066 3.066 0 003.076-3.048V22.768l1.565 20.864a3.01 3.01 0 001.062 2.082 3.065 3.065 0 002.234.732l4.717-.348a3.067 3.067 0 002.104-1.052 3.01 3.01 0 00.736-2.214l-1.967-26.221 3.573 27.19a3.072 3.072 0 003.446 2.63l4.688-.605a3.063 3.063 0 002.044-1.165c.5-.644.717-1.445.612-2.253l-.738-5.625 2.566 7.59a3.078 3.078 0 003.894 1.922l4.484-1.489a3.047 3.047 0 001.942-3.859l-6.433-19.02a3.084 3.084 0 00-3.896-1.921l-4.483 1.489c-.027.008-.052.024-.08.035L31.276 8.77a3.08 3.08 0 00-3.449-2.63l-4.69.603a3.062 3.062 0 00-2.41 1.81l-.431-5.729A3.058 3.058 0 0017.001.01l-4.717.348a3.078 3.078 0 00-2.086 1.036A3.072 3.072 0 007.803.237H3.076A3.066 3.066 0 000 3.285v40.119c0 1.68 1.38 3.048 3.076 3.048z" fill="#253238"/><path fill-rule="evenodd" clip-rule="evenodd" d="M17.195 3.052l3.002 39.976-4.651.376-3.031-39.975 4.68-.377zm21.264 19.855l6.423 18.988-4.413 1.499-6.452-18.978 4.442-1.509z" fill="#fff" fill-opacity=".5"/></svg>