<svg width="48" height="46" viewBox="0 0 48 46" fill="none" xmlns="http://www.w3.org/2000/svg"><path fill-rule="evenodd" clip-rule="evenodd" d="M40.5 31.502v-9a1.5 1.5 0 00-1.5-1.5h-3v-9a1.5 1.5 0 00-1.5-1.5H21.75l1.35-1.8a1.5 1.5 0 00-.3-2.1l-8.4-6.3a1.494 1.494 0 00-2.1.3l-9 12a1.5 1.5 0 00.3 2.1c4.797 2.313 8.025 3.822 9.687 4.527.796.34 4.515-6.975 5.777-6.627 1.178.324-.073 8.316 0 8.4.392.458-2.963.458-10.064 0a1.5 1.5 0 00-1.5 1.5v9h-6a1.5 1.5 0 00-1.5 1.5v10.5a1.5 1.5 0 001.5 1.5h45a1.5 1.5 0 001.5-1.5v-10.5a1.5 1.5 0 00-1.5-1.5h-6z" fill="#13C1AC" fill-opacity=".47"/><path fill-rule="evenodd" clip-rule="evenodd" d="M45 42.002H33v-7.5h12v7.5zm-27-7.5h12v7.5H18v-7.5zm-15 0h12v7.5H3v-7.5zm7.5-10.5h12v7.5h-12v-7.5zm3.6-3.3l3.9-5.2v5.5h-4.235a1.48 1.48 0 00.335-.3zm-7.5-7.5l7.2-9.6 6 4.5-7.2 9.6-6-4.5zm26.4 7.8H21v-7.5h12v7.5zm4.5 10.5h-12v-7.5h12v7.5zm3 0v-9a1.5 1.5 0 00-1.5-1.5h-3v-9a1.5 1.5 0 00-1.5-1.5H21.75l1.35-1.8a1.5 1.5 0 00-.3-2.1l-8.4-6.3a1.494 1.494 0 00-2.1.3l-9 12a1.5 1.5 0 00.3 2.1l8.4 6.3H9a1.5 1.5 0 00-1.5 1.5v9h-6a1.5 1.5 0 00-1.5 1.5v10.5a1.5 1.5 0 001.5 1.5h45a1.5 1.5 0 001.5-1.5v-10.5a1.5 1.5 0 00-1.5-1.5h-6z" fill="#13C1AC"/><path opacity=".739" fill-rule="evenodd" clip-rule="evenodd" d="M33 21.002H21v-7.5h12v7.5zm-18.01 20.97h-12v-7.5h12v7.5zm30.01 0H33v-7.5h12v7.5z" fill="#fff"/></svg>