<svg width="48" height="44" viewBox="0 0 48 44" fill="none" xmlns="http://www.w3.org/2000/svg"><path opacity=".7" fill-rule="evenodd" clip-rule="evenodd" d="M45.236 13.885l2.323-2.326a1.5 1.5 0 10-2.12-2.121l-2.772 2.773-2.85-6.987C38.742 2.002 35.68 0 31.825 0H16.175C12.32 0 9.257 2.002 8.223 5.118l-2.957 7.025-2.705-2.705a1.5 1.5 0 00-2.121 2.12l2.325 2.327A4.596 4.596 0 000 18.094v13.692c0 .283.028.56.075.83-.031.126-.075.247-.075.382v6.016a4.49 4.49 0 004.483 4.483h3.002c2.49 0 4.514-2.01 4.514-4.483v-1.516c0-.113-.04-.212-.062-.317 3.204.187 7.179.317 12.062.317 4.885 0 8.857-.13 12.063-.317-.024.105-.063.204-.063.317v1.516a4.49 4.49 0 004.483 4.483h3c2.49 0 4.515-2.01 4.515-4.483v-6.017c0-.134-.044-.255-.077-.38.05-.27.078-.547.078-.831v-13.69a4.596 4.596 0 00-2.763-4.21v-.001z" fill="#13C1AC"/><path fill-rule="evenodd" clip-rule="evenodd" d="M43.484 40.498h-3a1.486 1.486 0 01-1.485-1.484v-1.516a1.477 1.477 0 00-.102-.51c2.101-.167 3.763-.355 5.042-.53.363-.055.719-.153 1.06-.293v2.849c0 .804-.694 1.484-1.515 1.484zM4.469 33.485A1.713 1.713 0 013 31.785v-4.332c3.718.497 10.33 1.079 21 1.079 10.668 0 17.282-.58 20.998-1.079v4.333a1.71 1.71 0 01-1.465 1.699c-3.37.462-9.495 1.013-19.533 1.013-10.04 0-16.16-.55-19.531-1.013zM9 37.498v1.516c0 .804-.693 1.484-1.515 1.484h-3A1.486 1.486 0 013 39.014v-2.849c.34.134.69.242 1.061.294 1.278.173 2.943.36 5.043.53-.064.162-.1.334-.103.509zm2.028-31.324C11.985 3.31 14.948 3 16.177 3h15.648c1.229 0 4.192.31 5.18 3.268l2.819 6.916c-.502-.166-1.157-.434-1.948-.756C34.73 11.143 29.46 9 24 9c-5.458 0-10.728 2.144-13.876 3.428-.82.332-1.498.612-2.006.776-.016.006-.031.008-.047.013l2.958-7.042zm28.079 15.871a98.82 98.82 0 005.889-.592v3.016c-.07 0-.134-.024-.203-.016-2.211.306-5.544.644-10.278.859.18-2.9 4.402-3.253 4.592-3.267zm-22.613 3.38c-.053-4.645-4.85-6.201-7.385-6.37a97.02 97.02 0 01-5.906-.6c-.07-.009-.136.012-.204.012v-.372c0-.88.715-1.595 1.594-1.595h1.63c.966 0 1.913-.148 2.819-.44.56-.184 1.31-.485 2.212-.854 3.135-1.277 7.872-3.205 12.743-3.205 4.872 0 9.61 1.928 12.744 3.205.903.367 1.654.67 2.214.853.909.294 1.859.442 2.815.44h1.633c.88 0 1.593.717 1.593 1.596v.372c-.07 0-.134-.022-.203-.013-1.703.235-3.69.436-5.896.599-2.546.172-7.341 1.727-7.396 6.372-2.5.074-5.002.11-7.504.108-2.777 0-5.266-.04-7.503-.108zM2.999 21.453c1.72.232 3.696.43 5.901.592.044.005 4.396.339 4.582 3.267-4.734-.215-8.066-.553-10.278-.857-.07-.01-.136.014-.204.014v-3.02L3 21.454zm44.559-9.891l-2.323 2.325a4.596 4.596 0 012.762 4.208v13.692c0 .284-.027.562-.077.831.033.125.078.246.078.381v6.016c0 2.474-2.026 4.483-4.515 4.483h-3a4.49 4.49 0 01-4.484-4.483V37.5c0-.113.04-.211.063-.316-3.206.186-7.18.316-12.064.316s-8.858-.13-12.062-.316c.023.105.063.203.063.316v1.516c0 2.474-2.025 4.483-4.514 4.483h-3A4.49 4.49 0 010 39.015V33c0-.135.042-.256.075-.38A4.744 4.744 0 010 31.786V18.095a4.593 4.593 0 012.764-4.208L.44 11.559a1.502 1.502 0 012.121-2.121l2.706 2.705 2.956-7.025C9.258 2.002 12.321 0 16.177 0h15.648c3.856 0 6.917 2.002 7.994 5.224l2.848 6.987 2.772-2.773a1.5 1.5 0 112.12 2.12l-.001.004zM28.498 30h-.017c-.956 0-3.448.016-4.483.016-1.034 0-3.526-.016-4.483-.016H19.5a1.508 1.508 0 10-.017 3.016c3.01.021 6.02.02 9.031-.004A1.502 1.502 0 0030 31.492a1.508 1.508 0 00-1.5-1.492h-.002zm-1.5-7.5a1.5 1.5 0 00-1.5-1.5h-3a1.5 1.5 0 100 3h3.004a1.5 1.5 0 001.5-1.5h-.003z" fill="#0F9989"/><path fill-rule="evenodd" clip-rule="evenodd" d="M3 21.451c1.72.232 3.696.431 5.902.593.044.005 4.395.338 4.582 3.266-4.734-.214-8.067-.553-10.278-.857-.07-.01-.137.014-.204.014V21.45L3 21.45zm36.11.593c2.194-.162 4.169-.36 5.888-.593v3.016c-.069 0-.133-.023-.202-.016-2.212.306-5.544.645-10.278.86.18-2.9 4.401-3.253 4.591-3.267zM11.028 6.174C11.985 3.31 14.948 3 16.177 3h15.648c1.229 0 4.192.31 5.18 3.268l2.819 6.916c-.502-.166-1.157-.434-1.948-.756C34.73 11.143 29.46 9 24 9c-5.458 0-10.728 2.144-13.876 3.428-.82.332-1.498.612-2.006.776-.016.006-.031.008-.047.013l2.958-7.042z" fill="#fff" fill-opacity=".7"/></svg>