<svg width="48" height="44" viewBox="0 0 48 44" fill="none" xmlns="http://www.w3.org/2000/svg"><path fill-rule="evenodd" clip-rule="evenodd" d="M43.485 40.365h-3a1.483 1.483 0 01-1.486-1.48v-1.51a1.468 1.468 0 00-.102-.508 92.306 92.306 0 005.041-.528c.372-.051.724-.16 1.061-.291v2.837c0 .803-.692 1.48-1.514 1.48zm-39.016-6.99a1.71 1.71 0 01-1.47-1.694v-4.32c3.718.497 10.331 1.077 21.001 1.077 10.668 0 17.283-.58 21-1.075v4.32c0 .852-.633 1.58-1.467 1.692-3.37.462-9.493 1.01-19.533 1.01-10.04 0-16.162-.548-19.531-1.01zm4.53 4v1.51c0 .803-.692 1.48-1.514 1.48h-3A1.483 1.483 0 013 38.885v-2.837c.34.132.69.24 1.06.291 1.677.222 3.358.398 5.044.526a1.47 1.47 0 00-.104.51zm2.029-31.22c.955-2.857 3.917-3.165 5.148-3.165h15.65c1.227 0 4.19.308 5.18 3.256l2.819 6.894c-.502-.166-1.157-.434-1.948-.755C34.729 11.109 29.46 8.97 24 8.97c-5.458 0-10.729 2.137-13.877 3.415-.819.333-1.498.61-2.005.775-.015.006-.032.008-.048.012l2.958-7.017zm28.081 15.817c1.969-.14 3.933-.336 5.89-.59v3.003c-.068 0-.133-.021-.201-.012-2.214.304-5.546.641-10.281.855.182-2.891 4.403-3.243 4.592-3.256zM16.495 25.34c-.053-4.63-4.85-6.181-7.384-6.35a97.362 97.362 0 01-5.907-.598c-.07-.009-.135.011-.205.011v-.37a1.595 1.595 0 011.595-1.589h1.632c.965 0 1.912-.148 2.818-.44.558-.182 1.31-.484 2.211-.851 3.136-1.271 7.872-3.194 12.743-3.194 4.873 0 9.613 1.923 12.747 3.194.9.367 1.653.669 2.214.852.91.292 1.86.44 2.815.44h1.632c.88 0 1.595.712 1.595 1.588v.372c-.07 0-.135-.024-.205-.013-1.703.232-3.69.434-5.898.596-2.545.17-7.339 1.72-7.395 6.352-2.234.066-4.725.107-7.503.107-2.778 0-5.268-.04-7.505-.109v.002zM2.999 21.38c1.961.256 3.93.452 5.903.59.043.005 4.396.338 4.581 3.257-4.735-.214-8.067-.551-10.28-.855-.07-.01-.134.014-.204.014v-3.005zm44.561-9.86l-2.322 2.318A4.581 4.581 0 0148 18.035v13.648c0 .283-.028.558-.078.828.035.124.078.245.078.38v5.995c0 2.465-2.025 4.47-4.515 4.47h-3A4.483 4.483 0 0136 38.885v-1.51c0-.112.04-.21.063-.316-3.205.186-7.178.316-12.063.316-4.884 0-8.86-.13-12.062-.316.022.105.062.204.062.316v1.51c0 2.465-2.025 4.47-4.515 4.47h-3A4.483 4.483 0 010 38.885v-5.996c0-.135.043-.255.077-.38A4.712 4.712 0 010 31.682V18.035a4.583 4.583 0 012.764-4.196L.44 11.522a1.491 1.491 0 010-2.114 1.502 1.502 0 012.121 0l2.705 2.694 2.957-6.999C9.256 1.994 12.32 0 16.176 0h15.65c3.855 0 6.918 1.996 7.992 5.209l2.85 6.961 2.77-2.762A1.502 1.502 0 0148 10.465a1.491 1.491 0 01-.44 1.056zM28.5 29.901h-.016c-.957 0-3.448.015-4.484.015-1.034 0-3.526-.015-4.483-.015H19.5a1.505 1.505 0 00-.015 3.007c3.01.02 6.021.018 9.032-.006a1.5 1.5 0 10-.016-3.003l-.001.002zM27 22.425a1.498 1.498 0 00-1.5-1.495h-3a1.497 1.497 0 00-1.498 1.495c0 .826.672 1.494 1.499 1.494h3a1.499 1.499 0 001.5-1.494z" fill="#000"/></svg>