<svg width="48" height="60" viewBox="0 0 48 60" fill="none" xmlns="http://www.w3.org/2000/svg"><path fill-rule="evenodd" clip-rule="evenodd" d="M23.976 20.292a3.692 3.692 0 013.689 3.69 3.692 3.692 0 01-3.689 3.688 3.692 3.692 0 01-3.69-3.688 3.692 3.692 0 013.69-3.69zm24.02-1.848a2.703 2.703 0 01-1.125 2.198 1.832 1.832 0 00-.765 1.496c0 .594.277 1.139.761 1.493a2.696 2.696 0 01.004 4.39 1.832 1.832 0 00-.765 1.495c0 .595.277 1.14.761 1.494a2.696 2.696 0 01.004 4.39 1.832 1.832 0 00-.765 1.495c0 .594.277 1.139.761 1.495a2.694 2.694 0 01.004 4.388 1.831 1.831 0 00-.765 1.495c0 .597.277 1.14.761 1.496a2.694 2.694 0 01.004 4.388 1.845 1.845 0 001.08 3.34v5.534h-7.377a1.846 1.846 0 00-3.334-1.09 2.704 2.704 0 01-4.397.002c-.707-.963-2.276-.962-2.982 0-1.052 1.436-3.345 1.435-4.395 0-.707-.963-2.276-.962-2.981 0-1.053 1.436-3.345 1.435-4.396 0-.707-.963-2.276-.962-2.981 0-1.052 1.436-3.345 1.435-4.397 0a1.846 1.846 0 00-3.334 1.088H0v-5.535a1.845 1.845 0 001.119-3.312A2.773 2.773 0 01.03 47.962c0-.88.395-1.691 1.086-2.221a1.835 1.835 0 00.727-1.468 1.833 1.833 0 00-.725-1.467A2.773 2.773 0 01.03 40.583c0-.88.395-1.69 1.086-2.22a1.835 1.835 0 00.727-1.468 1.833 1.833 0 00-.725-1.468A2.773 2.773 0 01.03 33.205c0-.883.395-1.691 1.086-2.221a1.836 1.836 0 00.727-1.468 1.833 1.833 0 00-.725-1.467A2.773 2.773 0 01.03 25.826a2.77 2.77 0 011.086-2.22 1.835 1.835 0 00.729-1.472 1.833 1.833 0 00-.725-1.466 2.773 2.773 0 01-1.088-2.223 2.77 2.77 0 011.086-2.22 1.836 1.836 0 00.727-1.47 1.833 1.833 0 00-.725-1.465 2.773 2.773 0 01-1.088-2.223 2.769 2.769 0 011.086-2.22A1.846 1.846 0 000 5.533V0h7.377a1.846 1.846 0 003.334 1.09c1.008-1.378 3.389-1.382 4.399.003.701.952 2.27.956 2.98-.004 1.005-1.377 3.387-1.38 4.396.004.702.952 2.273.956 2.98-.004 1.006-1.377 3.387-1.38 4.397.004.702.952 2.273.956 2.98-.004 1.006-1.377 3.387-1.38 4.399.004A1.846 1.846 0 0040.574 0h7.377v5.534a1.846 1.846 0 00-1.084 3.34 2.696 2.696 0 01.004 4.39 1.832 1.832 0 00-.765 1.495c0 .594.277 1.139.761 1.494a2.695 2.695 0 011.13 2.19zM38.73 53.496c1.628 0 3.079.72 4.094 1.846h1.006a5.51 5.51 0 01-1.412-3.692c0-1.366.513-2.682 1.41-3.688a5.555 5.555 0 01-1.41-3.689c0-1.37.513-2.684 1.41-3.69a5.555 5.555 0 01-1.41-3.688c0-1.37.513-2.684 1.41-3.69a5.555 5.555 0 01-1.41-3.689c0-1.37.513-2.684 1.41-3.692a5.555 5.555 0 01-1.41-3.688c0-1.368.513-2.684 1.41-3.689a5.555 5.555 0 01-1.41-3.69 5.55 5.55 0 011.41-3.688 5.555 5.555 0 01-1.41-3.69c0-1.416.535-2.71 1.412-3.689h-1.006a5.51 5.51 0 01-4.094 1.844 5.547 5.547 0 01-3.689-1.412c-2.015 1.798-5.366 1.795-7.376 0-2.016 1.798-5.367 1.795-7.379 0-2.016 1.798-5.366 1.795-7.377 0a5.555 5.555 0 01-3.688 1.412c-1.628 0-3.08-.72-4.095-1.846H4.093a5.5 5.5 0 01.035 7.38 5.493 5.493 0 011.405 3.69 5.505 5.505 0 01-1.405 3.69 5.493 5.493 0 011.405 3.688 5.505 5.505 0 01-1.405 3.69 5.498 5.498 0 011.405 3.69 5.501 5.501 0 01-1.405 3.689 5.498 5.498 0 011.405 3.69 5.497 5.497 0 01-1.405 3.688 5.498 5.498 0 011.405 3.69 5.496 5.496 0 01-1.405 3.689 5.492 5.492 0 01-.034 7.378h1.034a5.502 5.502 0 014.093-1.844c1.368 0 2.684.513 3.688 1.412 2.012-1.796 5.365-1.796 7.377 0 2.012-1.796 5.366-1.796 7.379 0 2.01-1.796 5.364-1.796 7.376 0a5.548 5.548 0 013.689-1.412zM35.582 9.223a3.151 3.151 0 013.148 3.145v34.294a3.149 3.149 0 01-3.148 3.146H12.368a3.151 3.151 0 01-3.147-3.146V12.368a3.149 3.149 0 013.147-3.145h23.214zm-.54 36.895v-3.23c0-1.925-4.211-4.61-11.066-4.61-6.856 0-11.067 2.685-11.067 4.61v3.23h22.132zm0-33.205H12.908v24.382c2.662-1.676 6.563-2.706 11.067-2.706 4.505 0 8.403 1.03 11.065 2.706V12.913zM23.975 31.36a7.384 7.384 0 01-7.378-7.378 7.384 7.384 0 017.378-7.379 7.384 7.384 0 017.377 7.379 7.385 7.385 0 01-7.377 7.378z" fill="#000"/></svg>