<svg width="48" height="60" viewBox="0 0 48 60" fill="none" xmlns="http://www.w3.org/2000/svg"><path fill-rule="evenodd" clip-rule="evenodd" d="M47.999 18.44a2.696 2.696 0 00-1.13-2.191 1.836 1.836 0 01-.76-1.494c0-.594.276-1.138.763-1.494a2.697 2.697 0 00-.004-4.39 1.846 1.846 0 011.085-3.338V0h-7.378a1.846 1.846 0 01-3.332 1.094c-1.011-1.384-3.392-1.38-4.4-.004-.706.959-2.277.955-2.978.004-1.01-1.384-3.391-1.38-4.398-.004-.707.959-2.278.955-2.98.004-1.01-1.384-3.39-1.38-4.398-.004-.706.959-2.277.955-2.978.004-1.011-1.384-3.392-1.38-4.4-.004A1.846 1.846 0 017.378.002H0v5.533a1.846 1.846 0 011.118 3.31A2.77 2.77 0 00.03 11.066c0 .883.395 1.693 1.089 2.224.46.35.724.886.724 1.465a1.835 1.835 0 01-.726 1.47A2.77 2.77 0 00.03 18.443c0 .884.395 1.693 1.089 2.225.46.35.724.885.724 1.464a1.835 1.835 0 01-.726 1.47A2.77 2.77 0 00.03 25.82c0 .883.395 1.693 1.089 2.224.46.35.724.885.724 1.464a1.836 1.836 0 01-.726 1.47A2.77 2.77 0 00.03 33.198c0 .883.395 1.693 1.089 2.224.46.35.724.886.724 1.465a1.835 1.835 0 01-.726 1.47A2.77 2.77 0 00.03 40.575c0 .884.395 1.693 1.089 2.225.46.35.724.885.724 1.464a1.835 1.835 0 01-.726 1.47 2.771 2.771 0 00-1.087 2.22c0 .882.395 1.692 1.089 2.223A1.846 1.846 0 010 53.487v5.533h7.377a1.846 1.846 0 013.335-1.088c1.051 1.433 3.344 1.437 4.397 0 .704-.962 2.274-.964 2.98 0 1.052 1.433 3.344 1.437 4.397 0 .705-.962 2.274-.964 2.98 0 1.052 1.433 3.344 1.437 4.397 0 .705-.962 2.275-.964 2.98 0a2.708 2.708 0 004.398 0 1.846 1.846 0 013.334 1.088h7.378v-5.533a1.846 1.846 0 01-1.081-3.338 2.698 2.698 0 00-.004-4.39 1.835 1.835 0 01-.76-1.493c0-.596.277-1.138.764-1.494a2.699 2.699 0 00-.004-4.39 1.837 1.837 0 01-.76-1.493c0-.596.277-1.139.764-1.494a2.699 2.699 0 00-.004-4.39 1.836 1.836 0 01-.76-1.494c0-.596.277-1.138.764-1.494a2.699 2.699 0 00-.004-4.39 1.835 1.835 0 01-.76-1.493c0-.596.277-1.138.764-1.494a2.695 2.695 0 001.127-2.198" fill="#13C1AC" fill-opacity=".7"/><path fill-rule="evenodd" clip-rule="evenodd" d="M23.976 20.288a3.694 3.694 0 013.689 3.688 3.691 3.691 0 01-3.689 3.689 3.691 3.691 0 01-3.688-3.689 3.693 3.693 0 013.688-3.688zM48 18.44a2.701 2.701 0 01-1.125 2.198 1.83 1.83 0 00-.766 1.494c0 .596.277 1.142.76 1.494a2.696 2.696 0 01.004 4.39 1.831 1.831 0 00-.764 1.493c0 .596.277 1.142.76 1.494a2.697 2.697 0 01.004 4.39 1.832 1.832 0 00-.764 1.494c0 .595.277 1.141.76 1.494a2.696 2.696 0 01.004 4.39 1.83 1.83 0 00-.764 1.493c0 .597.277 1.14.76 1.494a2.696 2.696 0 01.004 4.39 1.846 1.846 0 001.08 3.338v5.533h-7.377a1.846 1.846 0 00-3.334-1.088 2.704 2.704 0 01-4.397.003c-.706-.964-2.276-.964-2.98-.003-1.052 1.438-3.346 1.434-4.398.003-.706-.964-2.275-.964-2.98-.003-1.051 1.438-3.346 1.434-4.397.003-.706-.964-2.276-.964-2.98-.003-1.052 1.438-3.346 1.434-4.397.003a1.846 1.846 0 00-3.335 1.087H0v-5.534a1.846 1.846 0 001.12-3.31A2.772 2.772 0 01.03 47.953a2.767 2.767 0 011.089-2.22 1.836 1.836 0 00.724-1.467 1.831 1.831 0 00-.724-1.468A2.771 2.771 0 01.03 40.575a2.766 2.766 0 011.089-2.218 1.835 1.835 0 00.724-1.47 1.832 1.832 0 00-.724-1.465A2.772 2.772 0 01.03 33.198a2.766 2.766 0 011.089-2.219 1.834 1.834 0 00.724-1.47 1.831 1.831 0 00-.724-1.464A2.771 2.771 0 01.03 25.82 2.767 2.767 0 011.12 23.6a1.835 1.835 0 00.724-1.469 1.831 1.831 0 00-.724-1.464A2.772 2.772 0 01.03 18.443a2.767 2.767 0 011.089-2.218 1.836 1.836 0 00.724-1.469 1.831 1.831 0 00-.724-1.468 2.772 2.772 0 01-1.089-2.22A2.767 2.767 0 011.12 8.845 1.846 1.846 0 00.002 5.533V0h7.377a1.846 1.846 0 003.333 1.088C11.719-.286 14.1-.29 15.11 1.094c.7.953 2.272.957 2.978-.004 1.007-1.378 3.388-1.381 4.399.004.7.953 2.272.957 2.979-.004 1.007-1.378 3.388-1.381 4.398.004.701.953 2.273.957 2.979-.004 1.007-1.378 3.388-1.381 4.399.004A1.846 1.846 0 0040.575.002h7.378v5.533a1.846 1.846 0 00-1.085 3.338 2.697 2.697 0 01.004 4.39 1.831 1.831 0 00-.764 1.494c0 .593.277 1.138.76 1.493.72.52 1.129 1.321 1.13 2.192v-.002zM38.73 53.49c1.628 0 3.08.719 4.094 1.844h1.007a5.51 5.51 0 01-1.412-3.689c0-1.369.512-2.685 1.41-3.689a5.551 5.551 0 01-1.41-3.688c0-1.369.512-2.686 1.41-3.689a5.551 5.551 0 01-1.41-3.689c0-1.368.512-2.685 1.41-3.688a5.552 5.552 0 01-1.41-3.689c0-1.369.512-2.685 1.41-3.689a5.551 5.551 0 01-1.41-3.688c0-1.369.512-2.686 1.41-3.689a5.551 5.551 0 01-1.41-3.689c0-1.37.512-2.685 1.41-3.688a5.552 5.552 0 01-1.41-3.689c0-1.418.535-2.711 1.412-3.689h-1.007c-1.014 1.122-2.466 1.845-4.094 1.845a5.548 5.548 0 01-3.689-1.413c-2.016 1.796-5.367 1.793-7.377 0-2.016 1.796-5.365 1.793-7.377 0-2.016 1.796-5.367 1.793-7.378 0a5.555 5.555 0 01-3.688 1.41c-1.629 0-3.08-.718-4.095-1.843H4.094a5.496 5.496 0 01.034 7.377 5.488 5.488 0 011.405 3.689 5.487 5.487 0 01-1.405 3.688 5.484 5.484 0 011.405 3.689 5.487 5.487 0 01-1.405 3.689 5.484 5.484 0 011.405 3.688A5.487 5.487 0 014.128 33.2a5.484 5.484 0 011.405 3.688 5.487 5.487 0 01-1.405 3.69 5.484 5.484 0 011.405 3.688 5.487 5.487 0 01-1.405 3.689 5.49 5.49 0 01-.034 7.377h1.033c1.015-1.121 2.466-1.845 4.095-1.845A5.552 5.552 0 0112.91 54.9c2.01-1.794 5.367-1.794 7.378 0 2.01-1.794 5.367-1.794 7.377 0 2.01-1.794 5.367-1.794 7.377 0a5.548 5.548 0 013.689-1.41zM35.584 9.224a3.147 3.147 0 013.147 3.143v34.286a3.15 3.15 0 01-3.147 3.147H12.368a3.148 3.148 0 01-3.146-3.147V12.368a3.147 3.147 0 013.146-3.143h23.216zm-.542 36.887v-3.228c0-1.925-4.21-4.61-11.066-4.61-6.855 0-11.066 2.685-11.066 4.61v3.228h22.132zm0-33.198H12.91v24.377c2.662-1.677 6.563-2.708 11.066-2.708 4.504 0 8.405 1.033 11.066 2.708V12.914zM23.976 31.357c-4.068 0-7.377-3.308-7.377-7.377a7.384 7.384 0 017.377-7.377 7.384 7.384 0 017.378 7.377c0 4.069-3.31 7.377-7.378 7.377z" fill="#0F9989"/><path fill-rule="evenodd" clip-rule="evenodd" d="M23.976 20.288a3.694 3.694 0 013.69 3.688 3.691 3.691 0 01-3.69 3.689 3.691 3.691 0 01-3.688-3.689 3.694 3.694 0 013.688-3.688zm11.066 25.82H12.91v-3.227c0-1.924 4.211-4.611 11.066-4.611 6.856 0 11.066 2.687 11.066 4.61v3.228z" fill="#fff" fill-opacity=".5"/></svg>