<svg width="48" height="48" viewBox="0 0 48 48" fill="none" xmlns="http://www.w3.org/2000/svg"><path fill-rule="evenodd" clip-rule="evenodd" d="M30.483 34.065a15.566 15.566 0 01-12.385-4.842l.916-1.06a15.485 15.485 0 009.668 2.527c8.54-.614 14.988-8.064 14.373-16.604a15.352 15.352 0 00-.983-4.398 15.387 15.387 0 012.783 7.772c.615 8.54-5.83 15.99-14.372 16.605zM5.833 43.39a1.548 1.548 0 01-1.062.533 1.496 1.496 0 01-1.127-.376h-.002a1.545 1.545 0 01-.53-1.062 1.536 1.536 0 01.372-1.127l6.1-7.046 2.347 2.034-6.098 7.044zm42.119-26.156C47.287 8.039 39.85.632 30.65.003a1.567 1.567 0 00-1.643 1.332 1.555 1.555 0 001.208 1.736c5.342 1.165 9.348 5.786 9.74 11.238.493 6.833-4.664 12.793-11.497 13.285-2.92.211-5.82-.62-8.183-2.348a1.554 1.554 0 00-2.564-.326l-6.096 7.045-1.174-1.015a1.552 1.552 0 00-2.19.158l-7.114 8.22A4.617 4.617 0 00.013 42.71a4.628 4.628 0 001.598 3.186 4.618 4.618 0 003.384 1.126 4.63 4.63 0 003.188-1.6l7.112-8.219a1.553 1.553 0 00-.157-2.19l-1.174-1.015 2.084-2.407a18.626 18.626 0 0014.657 5.57c10.248-.737 17.983-9.674 17.247-19.926z" fill="#13C1AC"/><path fill-rule="evenodd" clip-rule="evenodd" d="M5.833 43.391a1.548 1.548 0 01-1.06.533 1.496 1.496 0 01-1.128-.376h-.001a1.544 1.544 0 01-.531-1.062 1.536 1.536 0 01.372-1.127l6.1-7.046 2.348 2.034-6.098 7.044h-.002z" fill="#13C1AC" fill-opacity=".6"/><path fill-rule="evenodd" clip-rule="evenodd" d="M30.483 34.065a15.567 15.567 0 01-12.385-4.842l.916-1.06a15.485 15.485 0 009.668 2.527c8.541-.614 14.988-8.064 14.374-16.604a15.346 15.346 0 00-.983-4.398 15.388 15.388 0 012.782 7.772c.615 8.54-5.83 15.99-14.371 16.605z" fill="#13C1AC"/><path fill-rule="evenodd" clip-rule="evenodd" d="M30.483 34.065a15.567 15.567 0 01-12.385-4.842l.916-1.06a15.485 15.485 0 009.668 2.527c8.541-.614 14.988-8.064 14.374-16.604a15.346 15.346 0 00-.983-4.398 15.388 15.388 0 012.782 7.772c.615 8.54-5.83 15.99-14.371 16.605z" fill="#fff" fill-opacity=".8"/></svg>