<svg width="48" height="47" viewBox="0 0 48 47" fill="none" xmlns="http://www.w3.org/2000/svg"><path fill-rule="evenodd" clip-rule="evenodd" d="M30.48 33.642a15.669 15.669 0 01-12.387-4.782l.918-1.046a15.634 15.634 0 009.668 2.495c8.54-.607 14.988-7.963 14.372-16.397a14.998 14.998 0 00-.982-4.345 15.077 15.077 0 012.783 7.675c.614 8.436-5.831 15.793-14.372 16.4zm-24.65 9.21c-.27.31-.647.495-1.06.527a1.51 1.51 0 01-1.128-.372h-.001a1.518 1.518 0 01-.157-2.162l6.098-6.958 2.347 2.008-6.097 6.957H5.83zm42.121-25.831C47.286 7.938 39.85.624 30.65.003a1.562 1.562 0 00-1.642 1.316 1.537 1.537 0 001.208 1.714c5.342 1.15 9.348 5.714 9.74 11.099.493 6.748-4.664 12.634-11.497 13.119-2.915.21-5.81-.61-8.182-2.318a1.565 1.565 0 00-2.564-.322l-6.097 6.957-1.174-1.002a1.565 1.565 0 00-2.19.155l-7.114 8.118A4.522 4.522 0 00.013 42.18a4.55 4.55 0 001.598 3.146 4.65 4.65 0 003.383 1.112 4.651 4.651 0 003.19-1.58l7.113-8.117a1.52 1.52 0 00-.16-2.162l-1.173-1.003 2.084-2.378A18.742 18.742 0 0030.704 36.7c10.249-.727 17.984-9.556 17.247-19.679z" fill="#000"/></svg>