<svg width="48" height="37" viewBox="0 0 48 37" fill="none" xmlns="http://www.w3.org/2000/svg"><path fill-rule="evenodd" clip-rule="evenodd" d="M45 29.44a1.488 1.488 0 01-1.5 1.472h-39A1.488 1.488 0 013 29.44v-4.416c0-.813.672-1.472 1.5-1.472h39a1.488 1.488 0 011.5 1.472v4.416zM6.597 14.72c1.984 0 3.597 1.584 3.597 3.53 0 .86-.32 1.69-.9 2.332-.005.008-.007.018-.012.026H4.5c-.189 0-.368.032-.552.054-.02-.024-.027-.056-.048-.08A3.48 3.48 0 013 18.25c0-1.945 1.616-3.53 3.598-3.53zM6 8.86c0-3.263 3.318-5.916 7.398-5.916h4.575c2.496 0 4.528 1.994 4.528 4.443v13.22h-9.765c.296-.745.46-1.542.46-2.358 0-3.568-2.96-6.473-6.598-6.473-.204 0-.398.042-.598.06V8.86zm24.029-5.916h4.574c4.08 0 7.397 2.654 7.397 5.917v2.952c-.042-.004-.08-.016-.122-.02a6.622 6.622 0 00-4.792 1.562 6.382 6.382 0 00-2.262 4.429 6.34 6.34 0 00.464 2.824H25.5V7.388c0-2.45 2.031-4.444 4.527-4.444zM43.5 20.608h-4.85c-.04-.074-.057-.154-.11-.22a3.488 3.488 0 01.508-4.807 3.624 3.624 0 012.612-.852 3.6 3.6 0 012.463 1.212c.629.712.937 1.622.869 2.561a3.514 3.514 0 01-.608 1.727c-.09.137-.155.288-.193.448a4.45 4.45 0 00-.69-.07zm3.253 1.38c.034-.04.082-.062.112-.107a6.372 6.372 0 001.117-3.164 6.352 6.352 0 00-1.59-4.704 6.596 6.596 0 00-1.393-1.159V8.861C45 3.974 40.337 0 34.603 0h-4.575A7.546 7.546 0 0024 3.008 7.547 7.547 0 0017.973 0h-4.575C7.664 0 3 3.974 3 8.86v3.975c-1.8 1.158-3 3.149-3 5.414 0 1.354.454 2.65 1.246 3.741A4.348 4.348 0 000 25.024v4.416c0 2.435 2.02 4.416 4.5 4.416v1.472c0 .814.671 1.472 1.5 1.472a1.484 1.484 0 001.5-1.472v-1.472h33v1.472c0 .814.67 1.472 1.5 1.472a1.484 1.484 0 001.5-1.472v-1.472c2.48 0 4.5-1.981 4.5-4.416v-4.416a4.352 4.352 0 00-1.247-3.035z" fill="#000"/></svg>