<svg width="48" height="38" viewBox="0 0 48 38" fill="none" xmlns="http://www.w3.org/2000/svg"><path fill-rule="evenodd" clip-rule="evenodd" d="M46.753 22.407c.033-.04.081-.065.11-.11a6.562 6.562 0 001.118-3.226 6.548 6.548 0 00-1.59-4.792 6.628 6.628 0 00-1.393-1.18v-4.07C44.998 4.05 40.335 0 34.602 0h-4.574C27.554 0 25.373 1.216 24 3.063 22.627 1.218 20.446 0 17.972 0h-4.574C7.663 0 3 4.05 3 9.03v4.05a6.59 6.59 0 00-3 5.515c0 1.38.453 2.701 1.247 3.812A4.476 4.476 0 000 25.499V30a4.506 4.506 0 004.501 4.5V36A1.5 1.5 0 007.5 36v-1.5h33V36a1.5 1.5 0 002.999 0v-1.5A4.506 4.506 0 0048 30v-4.501c0-1.199-.48-2.283-1.247-3.093v.002z" fill="#CFD8DC"/><path fill-rule="evenodd" clip-rule="evenodd" d="M45 29.999a1.5 1.5 0 01-1.501 1.5H4.5a1.5 1.5 0 01-1.5-1.5v-4.501c0-.826.671-1.5 1.5-1.5h39a1.5 1.5 0 011.5 1.501V30zm-38.402-15a3.601 3.601 0 012.697 5.975L9.282 21h-4.78c-.192 0-.373.032-.555.055-.02-.024-.027-.057-.048-.083A3.585 3.585 0 013 18.595 3.602 3.602 0 016.598 15zM6 9.03C6 5.705 9.32 3 13.4 3h4.572a4.533 4.533 0 014.529 4.527v13.471h-9.765c.296-.758.458-1.57.458-2.403A6.606 6.606 0 006.598 12c-.204 0-.398.042-.598.06V9.03zM30.028 3h4.574C38.682 3 42 5.704 42 9.03v3.006c-.042-.003-.081-.016-.123-.019a6.54 6.54 0 00-4.791 1.592 6.546 6.546 0 00-2.262 4.514A6.569 6.569 0 0035.285 21H25.5V7.529A4.534 4.534 0 0130.028 3zm13.47 18h-4.85c-.039-.076-.055-.157-.108-.224a3.6 3.6 0 014.474-5.397 3.58 3.58 0 011.107.864c.63.725.939 1.655.87 2.612a3.619 3.619 0 01-.608 1.758c-.09.14-.156.294-.193.456A4.37 4.37 0 0043.5 21zm3.255 1.407c.033-.04.081-.065.11-.11a6.562 6.562 0 001.118-3.226 6.548 6.548 0 00-1.59-4.792 6.628 6.628 0 00-1.393-1.18v-4.07C44.998 4.05 40.335 0 34.602 0h-4.574C27.554 0 25.373 1.216 24 3.063 22.627 1.218 20.446 0 17.972 0h-4.574C7.663 0 3 4.05 3 9.03v4.05a6.59 6.59 0 00-3 5.515c0 1.38.453 2.701 1.247 3.812A4.476 4.476 0 000 25.499V30a4.506 4.506 0 004.501 4.5V36A1.5 1.5 0 007.5 36v-1.5h33V36a1.5 1.5 0 002.999 0v-1.5A4.506 4.506 0 0048 30v-4.501c0-1.199-.48-2.283-1.247-3.093v.002z" fill="#253238"/><path fill-rule="evenodd" clip-rule="evenodd" d="M6.598 15a3.6 3.6 0 012.698 5.974L9.283 21H4.5c-.19 0-.372.032-.553.055-.021-.024-.028-.057-.049-.083A3.585 3.585 0 013 18.595 3.602 3.602 0 016.598 15zM43.5 21h-4.85c-.04-.076-.056-.157-.11-.224a3.599 3.599 0 014.475-5.397c.422.212.799.505 1.107.864.63.725.939 1.655.87 2.612a3.62 3.62 0 01-.608 1.758c-.09.14-.155.294-.193.456a4.37 4.37 0 00-.69-.07z" fill="#fff" fill-opacity=".6"/></svg>