<svg width="48" height="38" viewBox="0 0 48 38" fill="none" xmlns="http://www.w3.org/2000/svg"><path fill-rule="evenodd" clip-rule="evenodd" d="M46.752 22.407c.032-.04.08-.065.111-.11a6.562 6.562 0 001.118-3.226 6.549 6.549 0 00-1.592-4.792 6.625 6.625 0 00-1.39-1.18v-4.07C44.998 4.05 40.334 0 34.6 0h-4.572A7.498 7.498 0 0024 3.063C22.627 1.218 20.446 0 17.97 0h-4.572C7.663 0 3 4.05 3 9.03v4.05a6.59 6.59 0 00-3 5.515c0 1.38.453 2.701 1.245 3.812A4.482 4.482 0 000 25.499V30a4.506 4.506 0 004.501 4.5V36A1.5 1.5 0 007.5 36v-1.5h32.999V36a1.5 1.5 0 103 0v-1.5A4.506 4.506 0 0048 30v-4.501c0-1.199-.48-2.283-1.247-3.093l-.001.002z" fill="#13C1AC" fill-opacity=".7"/><path fill-rule="evenodd" clip-rule="evenodd" d="M44.998 29.999a1.5 1.5 0 01-1.5 1.5h-39a1.501 1.501 0 01-1.5-1.5v-4.501c0-.826.673-1.5 1.5-1.5h39a1.5 1.5 0 011.499 1.501V30h.001zm-38.402-15a3.6 3.6 0 012.7 5.975c-.007.006-.01.016-.014.026H4.498c-.19 0-.37.032-.554.055-.02-.024-.026-.057-.048-.083a3.585 3.585 0 01-.897-2.377A3.601 3.601 0 016.595 15h.001zM6 9.03C6 5.705 9.318 3 13.398 3h4.573a4.534 4.534 0 014.528 4.527v13.471h-9.763c.296-.758.458-1.57.458-2.403A6.606 6.606 0 006.596 12c-.204 0-.396.042-.596.06V9.03zM30.028 3H34.6C38.68 3 42 5.704 42 9.03v3.006c-.042-.003-.081-.016-.123-.019a6.54 6.54 0 00-4.793 1.592 6.548 6.548 0 00-2.26 4.514A6.569 6.569 0 0035.285 21h-9.787V7.529A4.534 4.534 0 0130.026 3h.002zm13.47 18h-4.85c-.039-.076-.055-.157-.11-.224a3.6 3.6 0 014.475-5.397c.423.212.8.505 1.108.864.63.725.939 1.655.87 2.612a3.636 3.636 0 01-.608 1.758c-.09.14-.156.294-.193.456A4.37 4.37 0 0043.5 21zm3.255 1.407c.033-.04.081-.065.11-.11a6.562 6.562 0 001.118-3.226 6.549 6.549 0 00-1.592-4.792 6.625 6.625 0 00-1.39-1.18v-4.07C44.998 4.05 40.334 0 34.6 0h-4.572A7.498 7.498 0 0024 3.063C22.627 1.218 20.446 0 17.97 0h-4.572C7.663 0 3 4.05 3 9.03v4.05a6.59 6.59 0 00-3 5.515c0 1.38.453 2.701 1.245 3.812A4.482 4.482 0 000 25.499V30a4.506 4.506 0 004.501 4.5V36A1.5 1.5 0 007.5 36v-1.5h32.999V36a1.5 1.5 0 103 0v-1.5A4.506 4.506 0 0048 30v-4.501c0-1.199-.48-2.283-1.247-3.093v.002z" fill="#0F9989"/><path fill-rule="evenodd" clip-rule="evenodd" d="M6.596 15a3.6 3.6 0 012.7 5.974c-.007.006-.01.016-.013.026H4.498c-.19 0-.37.032-.554.055-.02-.024-.026-.057-.048-.083a3.585 3.585 0 01-.897-2.377A3.601 3.601 0 016.595 15h.001zM43.5 21h-4.85c-.04-.076-.056-.157-.11-.224a3.6 3.6 0 014.474-5.397c.423.212.8.505 1.108.864.63.725.939 1.655.87 2.612a3.636 3.636 0 01-.608 1.758c-.09.14-.155.294-.193.456a4.37 4.37 0 00-.69-.07z" fill="#fff" fill-opacity=".6"/></svg>