<svg width="48" height="42" viewBox="0 0 48 42" fill="none" xmlns="http://www.w3.org/2000/svg"><path fill-rule="evenodd" clip-rule="evenodd" d="M24 0C9.421 0 0 7.904 0 20.137c0 8.053 3.853 16.39 9.589 20.743A5.269 5.269 0 0012.875 42c1.923 0 3.865-.927 5.654-1.782 1.815-.867 3.692-1.763 5.471-1.763 1.78 0 3.657.897 5.47 1.763 2.826 1.349 6.025 2.877 8.943.662C44.15 36.525 48 28.189 48 20.137 48 7.904 38.58 0 24 0" fill="#CFD8DC"/><path fill-rule="evenodd" clip-rule="evenodd" d="M36.588 38.52c-1.383 1.051-3.11.31-5.814-.98a35.62 35.62 0 00-2.802-1.234c-.094-.083-.181-.173-.3-.232l-6-2.974a1.505 1.505 0 00-2.013.665 1.482 1.482 0 00.67 1.992l.525.26c-1.282.408-2.499.98-3.628 1.52-2.705 1.293-4.431 2.03-5.815.98-5.032-3.82-8.414-11.208-8.414-18.381C2.997 7.48 13.845 2.97 23.998 2.97 34.15 2.97 45 7.48 45 20.136c0 7.175-3.382 14.563-8.414 18.382l.002.001zM24 0c14.58 0 24 7.904 24 20.137 0 8.052-3.852 16.388-9.587 20.743-2.918 2.215-6.117.687-8.94-.662-1.816-.867-3.692-1.763-5.473-1.763-1.78 0-3.656.897-5.47 1.763-1.79.855-3.732 1.781-5.655 1.783-1.113 0-2.218-.309-3.286-1.121C3.852 36.527 0 28.19 0 20.137 0 7.904 9.421 0 24 0zm-7.5 18.075H15v-1.487a1.493 1.493 0 00-1.5-1.486 1.494 1.494 0 00-1.5 1.486v1.488h-1.5a1.494 1.494 0 00-1.501 1.486c0 .822.674 1.486 1.5 1.486h1.5v1.488c0 .82.673 1.486 1.5 1.486a1.494 1.494 0 001.5-1.486v-1.488H16.5a1.494 1.494 0 001.5-1.486 1.494 1.494 0 00-1.5-1.486l.002-.002zm15.435 4.89a1.556 1.556 0 00-.434 1.057c0 .387.165.773.434 1.056.286.267.676.432 1.066.432s.78-.165 1.066-.432c.274-.284.429-.662.434-1.056a1.557 1.557 0 00-.435-1.055c-.555-.55-1.576-.55-2.13 0v-.002zm-4.499-4.458c-.273.284-.43.661-.436 1.055 0 .401.165.773.436 1.055.285.268.674.431 1.066.431a1.557 1.557 0 001.065-.43c.275-.283.43-.661.434-1.056a1.557 1.557 0 00-.434-1.055c-.557-.55-1.576-.55-2.132 0h.001zm9 0a1.557 1.557 0 00-.434 1.055c0 .401.164.773.434 1.055.285.268.674.431 1.066.431.389 0 .779-.163 1.064-.43.276-.283.431-.661.434-1.056a1.557 1.557 0 00-.434-1.055c-.555-.55-1.575-.55-2.13 0zm-4.5-4.46c-.273.284-.429.661-.435 1.055 0 .386.165.773.434 1.055.286.268.676.431 1.066.431s.78-.163 1.066-.43c.273-.285.428-.662.434-1.056a1.557 1.557 0 00-.435-1.055c-.555-.55-1.56-.55-2.13 0z" fill="#253238"/></svg>