<svg width="48" height="42" viewBox="0 0 48 42" fill="none" xmlns="http://www.w3.org/2000/svg"><path fill-rule="evenodd" clip-rule="evenodd" d="M36.588 38.341c-1.382 1.047-3.112.31-5.814-.975a35.703 35.703 0 00-2.802-1.227c-.093-.083-.181-.173-.3-.232l-6-2.96a1.508 1.508 0 00-2.012.66 1.47 1.47 0 00.669 1.987l.526.259c-1.282.406-2.497.975-3.628 1.513-2.705 1.285-4.431 2.019-5.814.975C6.381 34.538 3 27.187 3 20.044 3 7.448 13.847 2.959 24 2.959c10.151 0 21 4.49 21 17.085 0 7.143-3.38 14.494-8.412 18.297zM24 0c14.58 0 24 7.869 24 20.044 0 8.014-3.852 16.312-9.588 20.646-2.917 2.205-6.116.684-8.94-.658-1.815-.862-3.691-1.754-5.472-1.754-1.78 0-3.654.892-5.47 1.754-1.79.852-3.732 1.773-5.655 1.775a5.285 5.285 0 01-3.286-1.115C3.855 36.356 0 28.058 0 20.042 0 7.87 9.422 0 24 0zm-6.968 18.58h-1.548v-1.548a1.549 1.549 0 00-3.097 0v1.549H10.84a1.548 1.548 0 000 3.096h1.548v1.549a1.548 1.548 0 103.097 0v-1.549h1.548a1.548 1.548 0 100-3.096zm15.933 5.08c-.279.293-.449.7-.449 1.105 0 .404.17.81.45 1.105.293.28.696.453 1.099.453.402 0 .805-.17 1.099-.453.279-.295.449-.701.449-1.105 0-.406-.17-.812-.45-1.107-.572-.576-1.625-.576-2.198 0v.001zm-4.645-4.646c-.279.294-.449.7-.449 1.106 0 .42.17.81.449 1.105.294.28.697.452 1.1.452.417 0 .804-.17 1.099-.452.278-.296.449-.686.449-1.105 0-.406-.17-.812-.45-1.107-.572-.576-1.625-.576-2.198 0v.001zm9.29 0c-.278.294-.449.7-.449 1.106 0 .42.17.81.45 1.105.294.28.696.452 1.099.452.402 0 .805-.17 1.099-.452.279-.296.45-.686.45-1.105 0-.406-.171-.812-.45-1.107-.573-.576-1.626-.576-2.199 0v.001zm-4.645-4.645c-.279.294-.449.7-.449 1.106 0 .404.17.81.45 1.105.293.28.696.452 1.099.452.402 0 .805-.17 1.099-.452.279-.296.449-.701.449-1.105 0-.406-.17-.812-.45-1.107-.572-.577-1.61-.577-2.198 0v.001z" fill="#000"/></svg>