<svg width="48" height="13" viewBox="0 0 48 13" fill="none" xmlns="http://www.w3.org/2000/svg">
<path fill-rule="evenodd" clip-rule="evenodd" d="M6.00058 0C4.40913 0 2.88286 0.632202 1.75753 1.75753C0.632203 2.88286 0 4.40913 0 6.00058C0 7.59204 0.632203 9.11831 1.75753 10.2436C2.88286 11.369 4.40913 12.0012 6.00058 12.0012C7.59204 12.0012 9.11831 11.369 10.2436 10.2436C11.369 9.11831 12.0012 7.59204 12.0012 6.00058C12.0012 4.40913 11.369 2.88286 10.2436 1.75753C9.11831 0.632202 7.59204 0 6.00058 0V0ZM24 0C22.4085 0 20.8823 0.632202 19.7569 1.75753C18.6316 2.88286 17.9994 4.40913 17.9994 6.00058C17.9994 7.59204 18.6316 9.11831 19.7569 10.2436C20.8823 11.369 22.4085 12.0012 24 12.0012C25.5915 12.0012 27.1177 11.369 28.2431 10.2436C29.3684 9.11831 30.0006 7.59204 30.0006 6.00058C30.0006 4.40913 29.3684 2.88286 28.2431 1.75753C27.1177 0.632202 25.5915 0 24 0V0ZM41.9994 0C40.408 0 38.8817 0.632202 37.7564 1.75753C36.631 2.88286 35.9988 4.40913 35.9988 6.00058C35.9988 7.59204 36.631 9.11831 37.7564 10.2436C38.8817 11.369 40.408 12.0012 41.9994 12.0012C43.5909 12.0012 45.1171 11.369 46.2425 10.2436C47.3678 9.11831 48 7.59204 48 6.00058C48 4.40913 47.3678 2.88286 46.2425 1.75753C45.1171 0.632202 43.5909 0 41.9994 0" fill="#13C1AC"/>
<path fill-rule="evenodd" clip-rule="evenodd" d="M6.00058 0C4.40913 0 2.88286 0.632202 1.75753 1.75753C0.632203 2.88286 0 4.40913 0 6.00058C0 7.59204 0.632203 9.11831 1.75753 10.2436C2.88286 11.369 4.40913 12.0012 6.00058 12.0012C7.59204 12.0012 9.11831 11.369 10.2436 10.2436C11.369 9.11831 12.0012 7.59204 12.0012 6.00058C12.0012 4.40913 11.369 2.88286 10.2436 1.75753C9.11831 0.632202 7.59204 0 6.00058 0V0ZM6.00058 2.9999C7.6549 2.9999 9.00049 4.34549 9.00049 5.9998C8.99966 6.79517 8.68334 7.55773 8.12092 8.12015C7.55851 8.68256 6.79595 8.99888 6.00058 8.99971C5.20521 8.99888 4.44266 8.68256 3.88025 8.12015C3.31783 7.55773 3.00151 6.79517 3.00068 5.9998C3.00068 4.34705 4.34627 2.9999 6.00058 2.9999ZM24 0C25.5915 0 27.1177 0.632202 28.2431 1.75753C29.3684 2.88286 30.0006 4.40913 30.0006 6.00058C30.0006 7.59204 29.3684 9.11831 28.2431 10.2436C27.1177 11.369 25.5915 12.0012 24 12.0012C22.4085 12.0012 20.8823 11.369 19.7569 10.2436C18.6316 9.11831 17.9994 7.59204 17.9994 6.00058C17.9994 4.40913 18.6316 2.88286 19.7569 1.75753C20.8823 0.632202 22.4085 0 24 0V0ZM24 2.9999C23.2046 3.00073 22.4421 3.31705 21.8797 3.87947C21.3172 4.44188 21.0009 5.20443 21.0001 5.9998C21.0001 7.65568 22.3457 8.99971 24 8.99971C24.7954 8.99888 25.5579 8.68256 26.1203 8.12015C26.6828 7.55773 26.9991 6.79517 26.9999 5.9998C26.9991 5.20443 26.6828 4.44188 26.1203 3.87947C25.5579 3.31705 24.7954 3.00073 24 2.9999V2.9999ZM41.9994 0C43.5909 0 45.1171 0.632202 46.2425 1.75753C47.3678 2.88286 48 4.40913 48 6.00058C48 7.59204 47.3678 9.11831 46.2425 10.2436C45.1171 11.369 43.5909 12.0012 41.9994 12.0012C40.408 12.0012 38.8817 11.369 37.7564 10.2436C36.631 9.11831 35.9988 7.59204 35.9988 6.00058C35.9988 4.40913 36.631 2.88286 37.7564 1.75753C38.8817 0.632202 40.408 0 41.9994 0V0ZM41.9994 2.9999C41.204 3.00073 40.4415 3.31705 39.8791 3.87947C39.3167 4.44188 39.0003 5.20443 38.9995 5.9998C38.9995 7.65568 40.3451 8.99971 41.9994 8.99971C42.7948 8.99888 43.5573 8.68256 44.1198 8.12015C44.6822 7.55773 44.9985 6.79517 44.9993 5.9998C44.9985 5.20443 44.6822 4.44188 44.1198 3.87947C43.5573 3.31705 42.7948 3.00073 41.9994 2.9999V2.9999Z" fill="#13C1AC"/>
<path fill-rule="evenodd" clip-rule="evenodd" d="M6.00063 2.99988C7.65495 2.99988 9.00054 4.34547 9.00054 5.99978C8.99971 6.79515 8.68339 7.55771 8.12097 8.12012C7.55856 8.68253 6.796 8.99886 6.00063 8.99968C5.20526 8.99886 4.44271 8.68253 3.8803 8.12012C3.31788 7.55771 3.00156 6.79515 3.00073 5.99978C3.00073 4.34703 4.34632 2.99988 6.00063 2.99988ZM24 2.99988C25.6559 2.99988 26.9999 4.34547 26.9999 5.99978C26.9991 6.79515 26.6828 7.55771 26.1204 8.12012C25.558 8.68253 24.7954 8.99886 24 8.99968C23.2047 8.99886 22.4421 8.68253 21.8797 8.12012C21.3173 7.55771 21.001 6.79515 21.0001 5.99978C21.0001 4.34703 22.3457 2.99988 24 2.99988ZM41.9995 2.99988C43.6553 2.99988 44.9994 4.34547 44.9994 5.99978C44.9985 6.79515 44.6822 7.55771 44.1198 8.12012C43.5574 8.68253 42.7948 8.99886 41.9995 8.99968C41.2041 8.99886 40.4415 8.68253 39.8791 8.12012C39.3167 7.55771 39.0004 6.79515 38.9996 5.99978C38.9996 4.34703 40.3451 2.99988 41.9995 2.99988Z" fill="white" fill-opacity="0.5"/>
</svg>
