<svg width="48" height="13" viewBox="0 0 48 13" fill="none" xmlns="http://www.w3.org/2000/svg"><path fill-rule="evenodd" clip-rule="evenodd" d="M6.4 0a6.4 6.4 0 100 12.8A6.4 6.4 0 006.4 0zm0 3.2c1.765 0 3.2 1.435 3.2 3.2 0 1.765-1.435 3.2-3.2 3.2a3.203 3.203 0 01-3.2-3.2c0-1.765 1.435-3.2 3.2-3.2zM24 0a6.4 6.4 0 110 12.8A6.4 6.4 0 0124 0zm0 3.2a3.203 3.203 0 00-3.2 3.2c0 1.765 1.435 3.2 3.2 3.2 1.765 0 3.2-1.435 3.2-3.2 0-1.765-1.435-3.2-3.2-3.2zM41.6 0a6.4 6.4 0 110 12.8 6.4 6.4 0 010-12.8zm0 3.2a3.203 3.203 0 00-3.2 3.2c0 1.765 1.435 3.2 3.2 3.2 1.765 0 3.2-1.435 3.2-3.2 0-1.765-1.435-3.2-3.2-3.2z" fill="#000"/></svg>