<svg width="48" height="13" viewBox="0 0 48 13" fill="none" xmlns="http://www.w3.org/2000/svg"><path fill-rule="evenodd" clip-rule="evenodd" d="M6 0a6 6 0 100 12.001A6 6 0 006 0zm18 0a6 6 0 100 12.001A6 6 0 0024 0zm18 0a6 6 0 100 12.001A6 6 0 0042 0" fill="#CFD8DC"/><path fill-rule="evenodd" clip-rule="evenodd" d="M6 0a6 6 0 100 12.001A6 6 0 006 0zm0 3c1.655 0 3 1.345 3 3a3.003 3.003 0 01-3 3 3.003 3.003 0 01-3-3c0-1.653 1.346-3 3-3zm18-3a6 6 0 110 12.001A6 6 0 0124 0zm0 3a3.003 3.003 0 00-3 3c0 1.656 1.346 3 3 3a3.003 3.003 0 003-3 3.003 3.003 0 00-3-3zm18-3a6 6 0 110 12.001A6 6 0 0142 0zm0 3a3.003 3.003 0 00-3 3c0 1.656 1.345 3 3 3a3.003 3.003 0 003-3 3.003 3.003 0 00-3-3z" fill="#253238"/></svg>