<svg width="48" height="48" viewBox="0 0 48 48" fill="none" xmlns="http://www.w3.org/2000/svg"><path fill-rule="evenodd" clip-rule="evenodd" d="M47.986 22.52c-.239-6.78-3.315-13.09-8.666-17.33C33.82.83 26.687-.89 19.743.439 4.562 3.352-1.035 18.47.155 32.13c.34 3.897 2.633 10.578 6.472 12.412C9.813 46.063 15.101 48 22.193 48c12.738 0 17.213-3.66 17.679-3.66h.004c5.392-5.12 8.357-14.841 8.11-21.82" fill="#13C1AC" fill-opacity=".7"/><path fill-rule="evenodd" clip-rule="evenodd" d="M8.247 11.446l14.09 3.151c2.244.502 4.265 1.749 5.35 3.424.877 1.358 1.454 2.927 1.454 4.541V32.95c0 .86-.69 1.61-1.516 1.828-4.518 1.19-13.6 2.74-23.447-.135-.28-.994-.501-1.981-.579-2.866-.59-6.792.56-14.603 4.648-20.33z" fill="#fff" fill-opacity=".4"/><path fill-rule="evenodd" clip-rule="evenodd" d="M8.247 11.446l14.09 3.151c2.244.502 4.265 1.749 5.35 3.424.877 1.358 1.454 2.927 1.454 4.541V32.95c0 .86-.69 1.61-1.516 1.828-4.518 1.19-13.6 2.74-23.447-.135-.28-.994-.501-1.981-.579-2.866-.59-6.792.56-14.603 4.648-20.33z" fill="#fff" fill-opacity=".5"/><path fill-rule="evenodd" clip-rule="evenodd" d="M37.658 41.244c-.176.132-4.192 3.096-15.465 3.096-6.449 0-11.218-1.63-14.082-3-.851-.404-1.688-1.456-2.414-2.782a45.901 45.901 0 0010.119 1.133c5.308 0 9.867-.873 12.684-1.614 2.33-.613 4.072-2.72 4.072-5.128V22.564c0-2.272-.767-4.48-2.003-6.389-1.59-2.458-4.264-4.2-7.422-4.907L10.843 8.524c2.46-2.286 5.578-3.999 9.563-4.762 1.3-.25 2.62-.376 3.945-.376a20.63 20.63 0 0112.837 4.46c4.55 3.609 7.17 8.772 7.372 14.54.246 6.916-2.852 15.372-6.904 18.86l.002-.002zM8.247 11.446l14.09 3.151c2.245.502 4.265 1.749 5.35 3.424.877 1.358 1.454 2.927 1.454 4.541V32.95c0 .86-.69 1.61-1.516 1.828-4.518 1.19-13.6 2.74-23.447-.135-.28-.994-.501-1.981-.578-2.866-.592-6.792.559-14.603 4.647-20.33zm39.739 11.073c.247 6.98-2.72 16.7-8.11 21.82h-.004c-.466 0-4.94 3.66-17.678 3.66-7.095 0-12.381-1.936-15.569-3.457C2.786 42.708.495 36.027.155 32.13-1.035 18.47 4.562 3.352 19.743.44 26.687-.891 33.82.829 39.32 5.19c5.35 4.24 8.427 10.55 8.666 17.33zm-23.988 9.875a1.711 1.711 0 001.716-1.706v-10.24a1.71 1.71 0 00-1.715-1.705 1.71 1.71 0 00-1.714 1.705v10.24a1.71 1.71 0 001.714 1.706h-.001zM36 23.863a1.71 1.71 0 00-1.715 1.705v1.708A1.71 1.71 0 0036 28.981a1.711 1.711 0 001.714-1.705v-1.708A1.711 1.711 0 0036 23.863z" fill="#0F9989"/></svg>