<svg width="48" height="49" viewBox="0 0 48 49" fill="none" xmlns="http://www.w3.org/2000/svg"><path fill-rule="evenodd" clip-rule="evenodd" d="M37.657 41.246c-.175.133-4.193 3.095-15.464 3.095-6.45 0-11.218-1.63-14.084-2.998-.85-.407-1.687-1.457-2.413-2.784a45.855 45.855 0 0010.118 1.133c5.31 0 9.869-.871 12.687-1.614 2.329-.612 4.07-2.72 4.07-5.126V22.564c0-2.272-.767-4.482-2.003-6.39-1.59-2.458-4.263-4.2-7.422-4.906L10.843 8.523C13.3 6.237 16.42 4.525 20.406 3.76a20.858 20.858 0 013.943-.377c4.64 0 9.165 1.547 12.838 4.463 4.551 3.608 7.17 8.771 7.373 14.54.245 6.916-2.852 15.372-6.904 18.86zM8.245 11.447l14.09 3.15c2.245.502 4.268 1.75 5.35 3.425.877 1.356 1.455 2.926 1.455 4.542v10.388c0 .857-.69 1.609-1.517 1.826-4.517 1.191-13.6 2.74-23.446-.133-.28-.996-.503-1.983-.58-2.87-.591-6.791.559-14.601 4.648-20.328zm39.74 11.075c.247 6.98-2.72 16.699-8.109 21.819h-.004c-.467 0-4.942 3.662-17.68 3.662-7.094 0-12.38-1.938-15.567-3.46C2.786 42.71.493 36.029.155 32.133-1.036 18.471 4.56 3.352 19.74.439c6.945-1.33 14.08.391 19.58 4.752 5.349 4.24 8.427 10.55 8.665 17.33zm-23.987 9.874c.948 0 1.716-.765 1.716-1.707v-10.24c0-.943-.768-1.707-1.716-1.707a1.712 1.712 0 00-1.714 1.707v10.24c0 .942.768 1.707 1.714 1.707zM36 23.862a1.712 1.712 0 00-1.713 1.707v1.707A1.71 1.71 0 0036 28.982c.948 0 1.716-.764 1.716-1.706v-1.707c0-.942-.768-1.707-1.716-1.707z" fill="#000"/></svg>