<svg width="48" height="48" viewBox="0 0 48 48" fill="none" xmlns="http://www.w3.org/2000/svg"><path fill-rule="evenodd" clip-rule="evenodd" d="M47.986 22.52c-.239-6.78-3.315-13.09-8.664-17.33C33.822.83 26.687-.89 19.742.439 4.563 3.352-1.034 18.47.156 32.13c.34 3.897 2.633 10.578 6.472 12.412C9.813 46.065 15.101 48 22.193 48c12.738 0 17.213-3.66 17.68-3.66h.004c5.39-5.12 8.356-14.84 8.109-21.82" fill="#CFD8DC"/><path fill-rule="evenodd" clip-rule="evenodd" d="M8.247 11.446l14.09 3.151c2.244.502 4.265 1.749 5.35 3.426.877 1.356 1.456 2.925 1.456 4.54V32.95c0 .858-.692 1.609-1.518 1.825-4.518 1.192-13.599 2.741-23.447-.132-.28-.996-.501-1.981-.579-2.87-.59-6.79.56-14.6 4.648-20.328" fill="#fff" fill-opacity=".4"/><path fill-rule="evenodd" clip-rule="evenodd" d="M8.247 11.446l14.09 3.151c2.244.502 4.265 1.749 5.35 3.426.877 1.356 1.456 2.925 1.456 4.54V32.95c0 .858-.692 1.609-1.518 1.825-4.518 1.192-13.599 2.741-23.447-.132-.28-.996-.501-1.981-.579-2.87-.59-6.79.56-14.6 4.648-20.328" fill="#fff" fill-opacity=".5"/><path fill-rule="evenodd" clip-rule="evenodd" d="M37.658 41.244c-.174.132-4.192 3.096-15.465 3.096-6.449 0-11.218-1.63-14.082-3-.851-.404-1.688-1.456-2.414-2.782a45.916 45.916 0 0010.119 1.133c5.31 0 9.867-.871 12.684-1.613 2.33-.614 4.072-2.723 4.072-5.127V22.562c0-2.271-.767-4.48-2.003-6.388-1.59-2.458-4.264-4.2-7.422-4.907L10.843 8.524c2.46-2.288 5.58-3.999 9.564-4.765a20.854 20.854 0 013.942-.377c4.64 0 9.165 1.548 12.84 4.461 4.55 3.61 7.169 8.775 7.371 14.542.246 6.917-2.85 15.37-6.904 18.859h.002zM8.247 11.446l14.09 3.151c2.245.502 4.265 1.749 5.35 3.426.877 1.356 1.456 2.925 1.456 4.54V32.95c0 .858-.692 1.609-1.518 1.826-4.518 1.19-13.599 2.74-23.447-.133-.28-.996-.501-1.981-.578-2.87-.592-6.79.559-14.6 4.647-20.328zM47.986 22.52c.247 6.98-2.72 16.698-8.109 21.82h-.003c-.466 0-4.941 3.659-17.682 3.659-7.091 0-12.38-1.935-15.565-3.458C2.787 42.708.495 36.027.155 32.13-1.035 18.47 4.562 3.352 19.743.44c6.944-1.33 14.077.39 19.579 4.751 5.348 4.24 8.425 10.55 8.664 17.33zm-23.988 9.875a1.711 1.711 0 001.716-1.708V20.45a1.712 1.712 0 00-2.37-1.578 1.712 1.712 0 00-1.06 1.578v10.238c0 .943.77 1.708 1.715 1.708h-.001zM36 23.863a1.71 1.71 0 00-1.715 1.705v1.708a1.71 1.71 0 001.715 1.705 1.711 1.711 0 001.714-1.705v-1.708a1.71 1.71 0 00-1.714-1.705z" fill="#253238"/></svg>