<svg width="46" height="48" viewBox="0 0 46 48" fill="none" xmlns="http://www.w3.org/2000/svg"><path fill-rule="evenodd" clip-rule="evenodd" d="M37.682 4.623l6.893 11.68c.57.967.564 2.104.01 3.079-.53.934-1.153 1.528-2.649 1.662v17.648A9.256 9.256 0 0132.661 48H12.349a9.256 9.256 0 01-9.275-9.308V21.045C1.578 20.91.956 20.33.424 19.393c-.553-.975-.576-2.123-.006-3.088L7.328 4.62C7.937 3.59 9.1 3 10.36 3h3.197c.103-1.501 1.429-3 3.063-3h2.802c1.634 0 2.96 1.499 3.064 2.999H34.65c1.262 0 2.422.59 3.03 1.624h.002z" fill="#13C1AC" fill-opacity=".35"/><path fill-rule="evenodd" clip-rule="evenodd" d="M32.66 45.001h-2.68v-7.128c0-2.687-2.18-4.875-4.857-4.875H19.89a4.872 4.872 0 00-4.86 4.875V45h-2.68c-3.43 0-6.287-2.87-6.287-6.31V21h32.884v17.692c0 3.442-2.856 6.31-6.286 6.31zm-5.67 0h-8.97v-7.128c0-1.033.839-1.875 1.869-1.875h5.232c1.03 0 1.867.842 1.867 1.875v7.128zM10.074 6.151A.36.36 0 0110.36 6h3.176v1.5A1.5 1.5 0 0015.032 9a1.499 1.499 0 001.494-1.5L16.62 3l2.895.094V7.5c0 .828.67 1.5 1.495 1.5a1.499 1.499 0 001.494-1.5V6h12.148a.35.35 0 01.282.154l6.913 11.667c-.013.022-.097.18-.287.18H3.45c-.14 0-.222-.115-.262-.107L10.075 6.15zM37.68 4.623l6.895 11.68c.57.967.564 2.104.01 3.079-.53.934-1.153 1.528-2.649 1.662v17.648A9.256 9.256 0 0132.661 48H12.349a9.256 9.256 0 01-9.275-9.308V21.045C1.578 20.91.956 20.33.424 19.393c-.553-.975-.576-2.123-.006-3.088L7.328 4.62C7.937 3.59 9.1 3 10.36 3h3.197c.103-1.501 1.429-3 3.063-3h2.802c1.634 0 2.96 1.499 3.064 2.999H34.65c1.262 0 2.422.59 3.03 1.624zM13.536 25.5a1.499 1.499 0 00-1.494 1.5v1.5c0 .828.67 1.5 1.494 1.5a1.499 1.499 0 001.496-1.5V27a1.498 1.498 0 00-1.496-1.5zm5.98 0a1.498 1.498 0 00-1.495 1.5v1.5c0 .828.67 1.5 1.495 1.5a1.499 1.499 0 001.494-1.5V27a1.498 1.498 0 00-1.494-1.5zm5.98 0A1.499 1.499 0 0024 27v1.5c0 .828.67 1.5 1.495 1.5a1.499 1.499 0 001.494-1.5V27a1.5 1.5 0 00-1.494-1.5zm5.978 0A1.498 1.498 0 0029.98 27v1.5c0 .828.67 1.5 1.495 1.5a1.499 1.499 0 001.494-1.5V27a1.499 1.499 0 00-1.494-1.5z" fill="#13C1AC"/><path fill-rule="evenodd" clip-rule="evenodd" d="M10.075 6.151A.36.36 0 0110.36 6h3.176v1.5A1.5 1.5 0 0015.032 9a1.499 1.499 0 001.494-1.5L16.62 3l2.895.094V7.5c0 .828.671 1.5 1.495 1.5a1.498 1.498 0 001.494-1.5V6h12.148a.35.35 0 01.282.154l6.913 11.667a.33.33 0 01-.287.18H3.45c-.14 0-.222-.115-.262-.107L10.075 6.15zm16.914 38.85h-8.968v-7.128c0-1.033.839-1.875 1.869-1.875h5.232c1.03 0 1.867.842 1.867 1.875v7.128z" fill="#fff" fill-opacity=".5"/></svg>