<svg width="46" height="48" viewBox="0 0 46 48" fill="none" xmlns="http://www.w3.org/2000/svg"><path fill-rule="evenodd" clip-rule="evenodd" d="M37.682 4.623l6.893 11.68c.57.967.564 2.104.01 3.079-.53.934-1.154 1.528-2.65 1.662v17.648A9.255 9.255 0 0132.659 48H12.35a9.254 9.254 0 01-9.276-9.308V21.045C1.579 20.91.956 20.33.423 19.393c-.551-.975-.575-2.123-.004-3.088L7.329 4.62C7.937 3.59 9.099 3 10.36 3h3.195C13.66 1.499 14.986 0 16.62 0h2.803c1.632 0 2.96 1.499 3.063 2.999H34.65c1.26 0 2.422.59 3.03 1.624h.002z" fill="#CFD8DC"/><path fill-rule="evenodd" clip-rule="evenodd" d="M32.66 45.001h-2.681v-7.128c0-2.687-2.18-4.875-4.857-4.875h-5.234a4.872 4.872 0 00-4.858 4.875V45h-2.68c-3.43 0-6.286-2.87-6.286-6.31V21h32.883v17.692c0 3.442-2.856 6.31-6.286 6.31h-.002zm-5.67 0H18.02v-7.128c0-1.033.837-1.875 1.867-1.875h5.234c1.03 0 1.866.842 1.866 1.875V45l.002.001zM10.075 6.151A.362.362 0 0110.36 6h3.176v1.5c0 .828.67 1.5 1.494 1.5a1.499 1.499 0 001.496-1.5L16.62 3l2.895.094V7.5c0 .828.67 1.5 1.496 1.5a1.498 1.498 0 001.494-1.5V6H34.65c.166 0 .268.126.284.154l6.913 11.667c-.012.022-.097.18-.288.18H3.45c-.14 0-.222-.115-.261-.107L10.075 6.15zm27.606-1.528l6.894 11.68c.57.967.564 2.104.01 3.079-.53.934-1.154 1.528-2.65 1.662v17.648A9.255 9.255 0 0132.659 48H12.35a9.254 9.254 0 01-9.276-9.308V21.045C1.579 20.91.956 20.33.423 19.393c-.551-.975-.575-2.123-.004-3.088L7.329 4.62C7.937 3.59 9.099 3 10.36 3h3.195C13.66 1.499 14.986 0 16.62 0h2.803c1.632 0 2.96 1.499 3.063 2.999H34.65c1.26 0 2.422.59 3.03 1.624zM13.536 25.5a1.499 1.499 0 00-1.494 1.5v1.5c0 .828.67 1.5 1.494 1.5a1.499 1.499 0 001.496-1.5V27a1.499 1.499 0 00-1.496-1.5zm5.98 0A1.499 1.499 0 0018.02 27v1.5c0 .828.67 1.5 1.494 1.5a1.5 1.5 0 001.496-1.5V27a1.498 1.498 0 00-1.496-1.5zm5.978 0A1.498 1.498 0 0024 27v1.5c0 .828.67 1.5 1.494 1.5a1.499 1.499 0 001.495-1.5V27a1.499 1.499 0 00-1.495-1.5zm5.979 0a1.499 1.499 0 00-1.494 1.5v1.5c0 .828.67 1.5 1.494 1.5a1.499 1.499 0 001.495-1.5V27a1.499 1.499 0 00-1.495-1.5z" fill="#253238"/><path fill-rule="evenodd" clip-rule="evenodd" d="M10.075 6.151A.36.36 0 0110.36 6h3.176v1.5c0 .828.67 1.5 1.494 1.5a1.499 1.499 0 001.496-1.5L16.62 3l2.895.094V7.5c0 .828.67 1.5 1.495 1.5a1.498 1.498 0 001.494-1.5V6H34.65c.166 0 .268.126.284.154l6.913 11.667c-.012.023-.097.18-.288.18H3.45c-.14 0-.222-.115-.262-.107L10.075 6.15zm16.914 38.85h-8.968v-7.128c0-1.033.837-1.875 1.867-1.875h5.234c1.03 0 1.866.842 1.866 1.875V45l.001.001z" fill="#fff" fill-opacity=".5"/></svg>