<svg width="45" height="48" viewBox="0 0 45 48" fill="none" xmlns="http://www.w3.org/2000/svg"><path fill-rule="evenodd" clip-rule="evenodd" d="M32.59 45h-2.677v-7.127c0-2.688-2.173-4.874-4.847-4.874h-5.22a4.867 4.867 0 00-4.848 4.874V45h-2.675C8.9 45 6.05 42.132 6.05 38.69V21.002h32.812v17.69c0 3.442-2.849 6.31-6.272 6.31zm-5.66 0h-8.95v-7.127c0-1.034.837-1.874 1.866-1.874h5.222a1.87 1.87 0 011.862 1.873v7.129zM10.053 6.153A.36.36 0 0110.338 6h3.17v1.5c0 .829.667 1.5 1.49 1.5a1.495 1.495 0 001.492-1.5l.094-4.5 2.89.093V7.5c0 .829.667 1.5 1.49 1.5a1.496 1.496 0 001.493-1.5V6h12.12c.166 0 .267.124.284.153l6.896 11.669c-.012.02-.097.178-.286.178H3.44c-.139 0-.221-.116-.26-.107l6.872-11.741zm27.546-1.529l6.88 11.68c.57.968.561 2.104.009 3.078-.53.935-1.15 1.528-2.644 1.665V38.69c0 5.172-4.114 9.309-9.254 9.309H12.323c-5.14 0-9.256-4.139-9.256-9.309V21.046c-1.491-.137-2.114-.717-2.643-1.652-.552-.976-.576-2.122-.007-3.091L7.312 4.622C7.92 3.59 9.078 3 10.338 3h3.19c.1-1.501 1.424-3 3.056-3h2.797c1.628 0 2.952 1.5 3.056 3h12.14c1.257 0 2.415.59 3.022 1.623zM13.506 25.5a1.496 1.496 0 00-1.49 1.5v1.5c0 .828.668 1.5 1.491 1.5A1.496 1.496 0 0015 28.5V27a1.496 1.496 0 00-1.492-1.501l-.001.001zm5.967 0a1.496 1.496 0 00-1.49 1.5v1.5c0 .828.667 1.5 1.49 1.5a1.496 1.496 0 001.492-1.5V27a1.495 1.495 0 00-1.492-1.501v.001zm5.966 0a1.496 1.496 0 00-1.49 1.5v1.5c0 .828.667 1.5 1.49 1.5a1.496 1.496 0 001.491-1.5V27a1.496 1.496 0 00-1.49-1.501v.001zm5.966 0a1.496 1.496 0 00-1.49 1.5v1.5c0 .828.666 1.5 1.49 1.5a1.496 1.496 0 001.491-1.5V27a1.495 1.495 0 00-1.49-1.501v.001z" fill="#000"/></svg>