<svg width="48" height="48" viewBox="0 0 48 48" fill="none" xmlns="http://www.w3.org/2000/svg"><path fill-rule="evenodd" clip-rule="evenodd" d="M14.4 7.984H4.768A4.774 4.774 0 000 12.754v16.075c0 1.168.65 2.179 1.6 2.72v11.723a4.685 4.685 0 004.678 4.678h35.444a4.685 4.685 0 004.678-4.678V31.547A3.126 3.126 0 0048 28.83V12.754a4.775 4.775 0 00-4.768-4.77H14.4z" fill="#13C1AC" fill-opacity=".35"/><path fill-rule="evenodd" clip-rule="evenodd" d="M27.2 25.976v5.992h-6.4v-5.992c0-.205.168-.376.376-.376h5.648c.208 0 .376.171.376.376z" fill="#fff" fill-opacity=".5"/><path fill-rule="evenodd" clip-rule="evenodd" d="M43.232 7.984A4.775 4.775 0 0148 12.754v16.075c0 1.168-.65 2.179-1.6 2.72v11.723a4.685 4.685 0 01-4.678 4.678H6.278A4.685 4.685 0 011.6 43.272V31.547A3.125 3.125 0 010 28.83V12.754a4.774 4.774 0 014.768-4.77H14.4V4.768A4.773 4.773 0 0119.166 0H28.8a4.773 4.773 0 014.766 4.768v3.216h9.666zM43.2 43.272V31.968H30.4v1.334a1.869 1.869 0 01-1.867 1.866h-9.066a1.869 1.869 0 01-1.867-1.864V31.97H4.8v11.304a1.48 1.48 0 001.478 1.478h35.444a1.48 1.48 0 001.478-1.48zm-17.6-6.504a1.6 1.6 0 010 3.2h-3.2a1.6 1.6 0 010-3.2h3.2zm1.6-10.792a.376.376 0 00-.376-.376h-5.648a.376.376 0 00-.376.376v5.992h6.4v-5.992zm-4.336 1.688c.592-.592 1.664-.592 2.272 0 .288.304.464.72.464 1.136a1.586 1.586 0 01-1.6 1.6 1.586 1.586 0 01-1.6-1.6c0-.416.176-.832.464-1.136zM4.768 11.184c-.864 0-1.568.704-1.568 1.571V28.77h14.4v-2.794a3.58 3.58 0 013.576-3.578h5.648a3.581 3.581 0 013.576 3.578v2.792h14.4V12.754a1.57 1.57 0 00-1.568-1.568H4.768v-.002zM17.6 4.768v3.216h12.766V4.768A1.568 1.568 0 0028.8 3.2h-9.634A1.568 1.568 0 0017.6 4.768z" fill="#13C1AC"/></svg>