<svg width="48" height="48" viewBox="0 0 48 48" fill="none" xmlns="http://www.w3.org/2000/svg"><path fill-rule="evenodd" clip-rule="evenodd" d="M14.4 8.008H4.768A4.774 4.774 0 000 12.778v16.075c0 1.168.65 2.18 1.6 2.72v11.723a4.685 4.685 0 004.678 4.678h35.444a4.685 4.685 0 004.678-4.678V31.571a3.125 3.125 0 001.6-2.716V12.777a4.775 4.775 0 00-4.768-4.77H14.4z" fill="#CFD8DC"/><path fill-rule="evenodd" clip-rule="evenodd" d="M27.2 26v5.992h-6.4V26c0-.205.168-.376.376-.376h5.648c.208 0 .376.171.376.376z" fill="#fff" fill-opacity=".5"/><path fill-rule="evenodd" clip-rule="evenodd" d="M43.232 7.992A4.776 4.776 0 0148 12.768v16.093a3.13 3.13 0 01-1.6 2.72v11.737A4.688 4.688 0 0141.722 48H6.278A4.688 4.688 0 011.6 43.317V31.579A3.13 3.13 0 010 28.86V12.766a4.776 4.776 0 014.768-4.774H14.4v-3.22A4.774 4.774 0 0119.166 0H28.8a4.774 4.774 0 014.766 4.773v3.219h9.666zM43.2 43.317V32.002H30.4v1.336a1.87 1.87 0 01-1.867 1.867h-9.066a1.87 1.87 0 01-1.867-1.867V32H4.8v11.315c0 .816.664 1.48 1.478 1.48h35.444a1.481 1.481 0 001.478-1.48v.002zm-17.6-6.512a1.601 1.601 0 110 3.203h-3.2a1.601 1.601 0 110-3.203h3.2zm1.6-10.802a.376.376 0 00-.376-.376h-5.648a.376.376 0 00-.376.376V32h6.4v-6 .003zm-4.336 1.688c.592-.592 1.664-.592 2.272 0 .288.304.464.72.464 1.136A1.585 1.585 0 0124 30.43a1.584 1.584 0 01-1.6-1.601c0-.416.176-.832.464-1.138zM4.768 11.195c-.864 0-1.568.704-1.568 1.571V28.8h14.4v-2.795a3.584 3.584 0 013.576-3.581h5.648a3.584 3.584 0 013.576 3.58v2.794h14.4V12.766a1.571 1.571 0 00-1.568-1.57H4.768zM17.6 4.773v3.219h12.766v-3.22A1.57 1.57 0 0028.8 3.206h-9.634A1.568 1.568 0 0017.6 4.773z" fill="#253238"/></svg>