<svg width="39" height="48" viewBox="0 0 39 48" fill="none" xmlns="http://www.w3.org/2000/svg"><path fill-rule="evenodd" clip-rule="evenodd" d="M34.436 0H4.562A4.566 4.566 0 000 4.562v37.375c0 2.494 1.499 4.522 4.499 4.555v.008c0 .828.67 1.5 1.5 1.5h3a1.5 1.5 0 001.499-1.5h18c0 .828.673 1.5 1.5 1.5h3a1.5 1.5 0 001.5-1.5v-.008a4.563 4.563 0 004.501-4.555V4.562A4.566 4.566 0 0034.436 0z" fill="#CFD8DC"/><path fill-rule="evenodd" clip-rule="evenodd" d="M35.999 41.937c0 .862-.7 1.563-1.563 1.563H4.562a1.564 1.564 0 01-1.563-1.563V4.562c0-.863.7-1.562 1.563-1.562h29.874c.862 0 1.563.701 1.563 1.562v37.375zm-16.5-4.438a10.512 10.512 0 0010.5-10.5 10.512 10.512 0 00-10.5-10.5 10.512 10.512 0 00-10.501 10.5 10.512 10.512 0 0010.5 10.5z" fill="#13C1AC" fill-opacity=".7"/><path fill-rule="evenodd" clip-rule="evenodd" d="M19.499 37.499a10.512 10.512 0 01-10.501-10.5 10.512 10.512 0 0110.5-10.5 10.512 10.512 0 0110.5 10.5 10.512 10.512 0 01-10.5 10.5" fill="#fff" fill-opacity=".5"/><path fill-rule="evenodd" clip-rule="evenodd" d="M19.499 37.5a10.512 10.512 0 01-10.5-10.502 10.512 10.512 0 0110.5-10.5A10.512 10.512 0 0129.999 27a10.512 10.512 0 01-10.5 10.499" fill="#fff" fill-opacity=".5"/><path fill-rule="evenodd" clip-rule="evenodd" d="M35.999 41.937c0 .862-.7 1.563-1.563 1.563H4.562a1.565 1.565 0 01-1.563-1.563V4.562c0-.863.7-1.562 1.563-1.562h29.874c.862 0 1.563.701 1.563 1.562v37.375zM34.436 0a4.566 4.566 0 014.562 4.562v37.375a4.564 4.564 0 01-4.5 4.555v.008a1.5 1.5 0 01-1.5 1.5h-3a1.5 1.5 0 01-1.5-1.5H10.5A1.5 1.5 0 019 48H6a1.5 1.5 0 01-1.5-1.5v-.008C1.499 46.461 0 44.431 0 41.937V4.562A4.566 4.566 0 014.562 0h29.874zm-4.002 6.435c-.27.284-.436.674-.436 1.064s.166.78.436 1.066c.285.27.674.434 1.066.434.389 0 .779-.164 1.064-.435.27-.284.434-.675.434-1.065 0-.39-.164-.78-.434-1.066a1.57 1.57 0 00-2.131 0l.001.002zM27 8.999c.388 0 .779-.164 1.064-.435.27-.284.434-.675.434-1.065 0-.39-.165-.78-.434-1.066-.555-.553-1.576-.553-2.13 0a1.58 1.58 0 00-.435 1.066c0 .39.165.78.435 1.066.285.27.674.434 1.066.434zm-4.5 0c.39 0 .778-.164 1.065-.435.27-.284.434-.675.434-1.065 0-.39-.164-.78-.436-1.066-.569-.553-1.573-.553-2.13 0A1.58 1.58 0 0021 7.5c0 .39.165.78.434 1.066.285.27.676.434 1.066.434zM7.497 9h7.5a1.5 1.5 0 100-3H7.5a1.5 1.5 0 000 3h-.001zm12 4.5C12.057 13.498 6 19.556 6 26.998c0 7.443 6.057 13.5 13.5 13.5s13.5-6.057 13.5-13.5c0-7.442-6.058-13.5-13.5-13.5z" fill="#0F9989"/><path fill-rule="evenodd" clip-rule="evenodd" d="M19.499 37.5a10.512 10.512 0 01-10.5-10.502 10.512 10.512 0 0110.5-10.5A10.512 10.512 0 0129.999 27a10.512 10.512 0 01-10.5 10.499" fill="#13C1AC"/><path fill-rule="evenodd" clip-rule="evenodd" d="M19.499 37.5a10.512 10.512 0 01-10.5-10.502 10.512 10.512 0 0110.5-10.5A10.512 10.512 0 0129.999 27a10.512 10.512 0 01-10.5 10.499" fill="#fff" fill-opacity=".5"/><path fill-rule="evenodd" clip-rule="evenodd" d="M19.499 19.499a7.509 7.509 0 00-7.5 7.5 1.5 1.5 0 003 0 4.505 4.505 0 014.5-4.498 1.5 1.5 0 100-3.002z" fill="#0F9989"/></svg>