<svg width="39" height="48" viewBox="0 0 39 48" fill="none" xmlns="http://www.w3.org/2000/svg"><path fill-rule="evenodd" clip-rule="evenodd" d="M34.436 0H4.562A4.566 4.566 0 000 4.562v37.375c0 2.494 1.499 4.522 4.499 4.555v.008c0 .828.67 1.5 1.5 1.5h3a1.5 1.5 0 001.499-1.5h18c0 .828.673 1.5 1.5 1.5h3a1.5 1.5 0 001.5-1.5v-.008a4.563 4.563 0 004.501-4.555V4.562A4.566 4.566 0 0034.436 0z" fill="#CFD8DC"/><path fill-rule="evenodd" clip-rule="evenodd" d="M35.999 41.937c0 .862-.7 1.563-1.563 1.563H4.562a1.564 1.564 0 01-1.563-1.563V4.562c0-.863.7-1.562 1.563-1.562h29.874c.862 0 1.563.701 1.563 1.562v37.375zm-16.502-4.438a10.512 10.512 0 0010.5-10.5 10.512 10.512 0 00-10.5-10.5 10.512 10.512 0 00-10.5 10.5 10.512 10.512 0 0010.5 10.5z" fill="#fff" fill-opacity=".3"/><path fill-rule="evenodd" clip-rule="evenodd" d="M19.497 37.499a10.512 10.512 0 01-10.5-10.5A10.512 10.512 0 0119.5 16.5 10.512 10.512 0 0130 27a10.512 10.512 0 01-10.5 10.5" fill="#fff" fill-opacity=".5"/><path fill-rule="evenodd" clip-rule="evenodd" d="M19.499 37.499a10.512 10.512 0 01-10.5-10.5A10.512 10.512 0 0119.5 16.5 10.512 10.512 0 0130 27a10.512 10.512 0 01-10.5 10.499" fill="#fff" fill-opacity=".5"/><path fill-rule="evenodd" clip-rule="evenodd" d="M35.999 41.937c0 .862-.7 1.563-1.563 1.563H4.562a1.565 1.565 0 01-1.563-1.563V4.562c0-.863.7-1.562 1.563-1.562h29.874c.862 0 1.563.701 1.563 1.562v37.375zM34.436 0a4.566 4.566 0 014.563 4.562v37.375a4.563 4.563 0 01-4.502 4.555l.002.008a1.5 1.5 0 01-1.5 1.5h-3a1.5 1.5 0 01-1.5-1.5h-18A1.5 1.5 0 019 48H6a1.5 1.5 0 01-1.5-1.5v-.008c-3-.031-4.499-2.06-4.499-4.555V4.562A4.566 4.566 0 014.562 0h29.874zm-4.002 6.435C30.164 6.72 30 7.109 30 7.5c0 .388.164.779.434 1.064.285.27.674.434 1.066.434a1.58 1.58 0 001.064-.434 1.58 1.58 0 00.434-1.066 1.583 1.583 0 00-.434-1.066 1.57 1.57 0 00-2.13 0v.002zM27 8.999c.39 0 .779-.164 1.065-.434.268-.285.435-.676.435-1.066s-.166-.779-.436-1.066c-.555-.553-1.576-.553-2.13 0a1.583 1.583 0 00-.435 1.066c0 .39.165.78.435 1.066.285.27.674.434 1.066.434zm-4.5 0c.39 0 .78-.164 1.065-.434a1.58 1.58 0 00.434-1.066c0-.39-.164-.779-.436-1.066-.569-.553-1.573-.553-2.128 0-.275.288-.43.669-.436 1.066 0 .39.165.78.436 1.066.283.27.674.434 1.064.434zm-15 0H15a1.5 1.5 0 000-3H7.5a1.5 1.5 0 000 3zm11.999 28.5a10.512 10.512 0 01-10.5-10.5A10.512 10.512 0 0119.5 16.5 10.512 10.512 0 0130 27a10.512 10.512 0 01-10.5 10.499zm-13.5-10.5c0 7.443 6.057 13.5 13.5 13.5s13.5-6.057 13.5-13.5c0-7.442-6.058-13.5-13.5-13.5-7.443 0-13.5 6.058-13.5 13.5zm13.5-7.5a7.509 7.509 0 00-7.5 7.5 1.5 1.5 0 003 0 4.505 4.505 0 014.5-4.498 1.5 1.5 0 000-3.002z" fill="#253238"/></svg>