<svg width="40" height="48" viewBox="0 0 40 48" fill="none" xmlns="http://www.w3.org/2000/svg"><path fill-rule="evenodd" clip-rule="evenodd" d="M36.8 41.656c0 .851-.714 1.544-1.592 1.544H4.792c-.88 0-1.592-.693-1.592-1.544V4.742c0-.85.714-1.542 1.592-1.542h30.416c.88 0 1.592.691 1.592 1.542v36.914zM35.32 0C37.9 0 40 2.046 40 4.56v37.376c0 2.496-2.066 4.523-4.618 4.557l.002.006a1.52 1.52 0 01-1.538 1.5h-3.078a1.521 1.521 0 01-1.54-1.5H10.77A1.52 1.52 0 019.23 48H6.154a1.52 1.52 0 01-1.538-1.5v-.006C1.539 46.46 0 44.432 0 41.936V4.56C0 2.046 2.1 0 4.68 0h30.64zm-4.474 6.816c-.28.285-.44.666-.446 1.066 0 .39.17.779.446 1.064.293.272.693.435 1.093.435s.8-.165 1.091-.435c.28-.285.44-.665.448-1.064a1.556 1.556 0 00-.448-1.066c-.584-.555-1.6-.555-2.184 0zM27.14 9.381c.4 0 .8-.165 1.091-.435.28-.285.44-.665.448-1.064a1.556 1.556 0 00-.448-1.066c-.57-.555-1.616-.555-2.184 0-.28.285-.44.666-.446 1.066 0 .39.17.779.446 1.064.293.272.693.435 1.093.435zm-4.8 0c.4 0 .8-.165 1.091-.435.28-.285.44-.665.448-1.064a1.556 1.556 0 00-.448-1.066c-.584-.555-1.616-.555-2.184 0-.28.285-.44.666-.446 1.066 0 .39.17.779.446 1.064.293.272.693.435 1.093.435zM7.94 9.4h7.691a1.52 1.52 0 001.54-1.5 1.52 1.52 0 00-1.54-1.5H7.94A1.52 1.52 0 006.4 7.9c0 .828.688 1.5 1.54 1.5zM20 36.8A10.411 10.411 0 019.6 26.4C9.6 20.666 14.266 16 20 16s10.4 4.666 10.4 10.4S25.734 36.8 20 36.8zM6.4 26.4C6.4 33.898 12.502 40 20 40c7.497 0 13.6-6.102 13.6-13.6 0-7.498-6.103-13.6-13.6-13.6-7.498 0-13.6 6.102-13.6 13.6zM20 19.5c-4.242 0-7.693 3.364-7.693 7.5a1.52 1.52 0 001.54 1.5 1.52 1.52 0 001.537-1.5c0-2.482 2.072-4.5 4.616-4.5a1.52 1.52 0 001.54-1.5A1.52 1.52 0 0020 19.5z" fill="#000"/></svg>