<svg width="48" height="34" viewBox="0 0 48 34" fill="none" xmlns="http://www.w3.org/2000/svg"><path fill-rule="evenodd" clip-rule="evenodd" d="M40.694 30.337a4.648 4.648 0 01-4.637-4.645c0-.762.203-1.47.528-2.106l3.106 3.112a1.408 1.408 0 001.003.416 1.421 1.421 0 001.003-2.428l-3.103-3.11a4.532 4.532 0 012.1-.528 4.646 4.646 0 014.638 4.644 4.648 4.648 0 01-4.638 4.645zM28.758 24.27h-7.922c-.706-6.142-5.9-11.345-12.032-12.05v-.936a8.447 8.447 0 016.718-8.266l-.452 2.72c-.005.026 0 .05-.002.076-.005.044-.002.083-.004.127-.003.139.014.277.051.411.006.023 0 .046.01.071l1.513 4.55c.013.038.038.067.055.103.01.029.007.057.02.085.016.03.046.05.063.078.062.107.136.199.223.284.036.037.068.075.11.11.12.093.253.17.395.221.012.006.024.015.036.018.143.048.293.072.444.073.016 0 .034-.008.051-.008.05 0 .098-.015.15-.025.08-.011.165-.013.247-.04.034-.012.055-.036.087-.05.032-.011.068-.011.1-.026 1.39-.697 2.793-.854 4.058-.45 1.263.401 2.291 1.333 2.968 2.695.24.478.724.781 1.257.786l7.332.072c-2.954 2.242-5.044 5.63-5.474 9.37h-.002zm-16.736 1.42a4.648 4.648 0 01-4.638 4.645 4.645 4.645 0 010-9.29c.44 0 .855.08 1.257.196l-2.438 3.662a1.422 1.422 0 001.85 2.042c.207-.11.383-.27.512-.466L11 22.82a4.6 4.6 0 011.021 2.87zm28.673-7.488a7.42 7.42 0 00-4.185 1.287l-1.49-1.493c1.869-1.801 4.359-3.017 7.188-3.017a1.422 1.422 0 10.015-2.844l-14.474-.143c-1.02-1.632-2.491-2.81-4.212-3.358-1.483-.469-3.1-.455-4.678.02l-.654-1.96 1.928-.966a1.422 1.422 0 00-1.27-2.544l-.534.268.297-1.796A1.413 1.413 0 0018.31.504 1.41 1.41 0 0017.226 0C11.016 0 5.964 5.061 5.964 11.281v2.274c0 .788.634 1.423 1.42 1.423 1.69 0 3.252.442 4.644 1.172l-1.755 2.636a7.415 7.415 0 00-2.89-.584 7.49 7.49 0 000 14.978 7.49 7.49 0 006.898-10.376 7.466 7.466 0 00-1.65-2.438l1.723-2.585c2.306 2.106 3.722 5.098 3.722 7.91 0 .785.637 1.422 1.42 1.422h10.599a1.42 1.42 0 001.42-1.423c0-1.85.617-3.78 1.696-5.486L34.5 21.5a7.492 7.492 0 006.192 11.68 7.49 7.49 0 000-14.977" fill="#000"/></svg>