<svg width="48" height="33" viewBox="0 0 48 33" fill="none" xmlns="http://www.w3.org/2000/svg"><path fill-rule="evenodd" clip-rule="evenodd" d="M36.403 19.348l-1.483-1.483c1.858-1.785 4.335-2.994 7.149-2.994a1.412 1.412 0 10.015-2.824l-14.396-.141c-1.014-1.62-2.477-2.79-4.188-3.333-1.474-.467-3.082-.452-4.655.02l-.649-1.947 1.917-.96a1.412 1.412 0 10-1.263-2.525l-.531.267.297-1.784A1.402 1.402 0 0018.299.5a1.404 1.404 0 00-1.075-.5C11.048 0 6.022 5.024 6.022 11.201v2.258c0 .78.631 1.412 1.413 1.412 1.681 0 3.236.439 4.618 1.164l-1.745 2.616a7.388 7.388 0 00-2.873-.58A7.443 7.443 0 000 25.506a7.444 7.444 0 007.435 7.435 7.444 7.444 0 007.435-7.435c0-2.066-.85-3.937-2.217-5.285l1.715-2.568c2.292 2.09 3.7 5.063 3.7 7.853 0 .78.634 1.411 1.413 1.411h10.542a1.411 1.411 0 001.411-1.411c0-1.838.616-3.755 1.687-5.447l1.285 1.286a7.384 7.384 0 00-1.277 4.16 7.444 7.444 0 007.436 7.436A7.444 7.444 0 0048 25.506a7.444 7.444 0 00-7.435-7.435 7.389 7.389 0 00-4.162 1.277z" fill="#13C1AC" fill-opacity=".7"/><path fill-rule="evenodd" clip-rule="evenodd" d="M40.565 30.118a4.619 4.619 0 01-4.612-4.612c0-.756.201-1.46.525-2.09l3.088 3.088a1.403 1.403 0 001 .413 1.409 1.409 0 00.999-2.41l-3.09-3.087a4.52 4.52 0 012.089-.525 4.619 4.619 0 014.612 4.61 4.619 4.619 0 01-4.61 4.613zm-11.873-6.025h-7.88c-.7-6.096-5.868-11.262-11.966-11.964v-.928a8.391 8.391 0 016.683-8.204l-.452 2.7c-.003.027.002.05 0 .076-.006.042-.003.082-.004.125-.004.138.014.276.05.41.005.021 0 .044.008.07l1.506 4.516c.014.037.04.067.054.103.012.028.01.055.021.082.015.031.045.05.063.08.062.105.134.198.222.281.036.036.067.075.109.11.12.092.252.168.392.218.014.006.026.015.037.02.142.047.291.071.44.071.018 0 .035-.007.051-.007.051 0 .099-.017.15-.025.082-.01.164-.012.246-.04.034-.011.055-.037.086-.05.033-.012.069-.01.099-.027 1.384-.69 2.779-.846 4.038-.446 1.254.399 2.278 1.323 2.952 2.676.237.475.72.776 1.248.78l7.294.072c-2.94 2.226-5.019 5.59-5.445 9.301h-.002zm-16.646 1.413a4.619 4.619 0 01-4.611 4.612 4.617 4.617 0 01-4.611-4.612 4.617 4.617 0 014.61-4.611c.436 0 .85.079 1.25.194l-2.425 3.634a1.412 1.412 0 102.35 1.566l2.422-3.632a4.555 4.555 0 011.015 2.849zm28.52-7.435a7.389 7.389 0 00-4.163 1.277l-1.483-1.483c1.858-1.785 4.335-2.994 7.149-2.994a1.412 1.412 0 10.015-2.824l-14.396-.141c-1.014-1.62-2.477-2.79-4.188-3.333-1.474-.467-3.082-.452-4.655.02l-.649-1.947 1.917-.96a1.412 1.412 0 10-1.263-2.525l-.531.267.297-1.784A1.402 1.402 0 0018.299.5a1.404 1.404 0 00-1.075-.5C11.048 0 6.022 5.024 6.022 11.201v2.258c0 .78.631 1.412 1.413 1.412 1.681 0 3.236.439 4.618 1.164l-1.745 2.616a7.388 7.388 0 00-2.873-.58A7.443 7.443 0 000 25.506a7.444 7.444 0 007.435 7.435 7.444 7.444 0 007.435-7.435c0-2.066-.85-3.937-2.217-5.285l1.715-2.568c2.292 2.09 3.7 5.063 3.7 7.853 0 .78.634 1.411 1.413 1.411h10.542a1.411 1.411 0 001.411-1.411c0-1.838.616-3.755 1.687-5.447l1.285 1.286a7.384 7.384 0 00-1.277 4.16 7.444 7.444 0 007.436 7.436A7.444 7.444 0 0048 25.506a7.444 7.444 0 00-7.435-7.435" fill="#0F9989"/><path opacity=".5" fill-rule="evenodd" clip-rule="evenodd" d="M28.694 24.093h-7.881c-.701-6.096-5.869-11.262-11.967-11.964v-.928a8.391 8.391 0 016.683-8.204l-.452 2.7c-.003.027.002.05 0 .076-.006.042-.003.082-.005.125-.003.138.014.276.051.41.005.021 0 .044.008.07l1.506 4.516c.014.037.04.067.054.103.012.028.009.055.02.082.016.031.046.05.064.08.062.105.134.198.222.281.036.036.067.075.109.11.12.092.252.168.392.218.014.006.025.015.037.02.142.047.29.071.44.071.018 0 .035-.007.051-.007.05 0 .099-.017.15-.025.081-.01.163-.012.246-.04.034-.011.055-.037.086-.05.033-.012.069-.01.099-.027 1.384-.69 2.779-.846 4.038-.446 1.254.399 2.277 1.323 2.952 2.676.237.475.72.776 1.248.78l7.294.072c-2.94 2.226-5.019 5.59-5.445 9.301" fill="#fff"/></svg>