<svg width="44" height="42" viewBox="0 0 44 42" fill="none" xmlns="http://www.w3.org/2000/svg"><path opacity=".35" fill-rule="evenodd" clip-rule="evenodd" d="M38.5 20.27V4.087A4.09 4.09 0 0034.413 0H4.087A4.09 4.09 0 000 4.087v23.375c0 3.444 2.57 5.5 6.875 5.5h7.913c-.535 2.503-1.863 5.461-5.163 5.461a1.375 1.375 0 000 2.75h19.25a1.375 1.375 0 000-2.75c-2.644 0-4.371-1.847-5.15-5.462h4.365v.747a7.473 7.473 0 007.463 7.465h.982A7.474 7.474 0 0044 33.708v-6.245c0-3.435-2.336-6.328-5.5-7.193z" fill="#13C1AC"/><path fill-rule="evenodd" clip-rule="evenodd" d="M41.25 33.708a4.72 4.72 0 01-4.715 4.715h-.982a4.72 4.72 0 01-4.713-4.715v-6.245a4.72 4.72 0 014.713-4.715h.982a4.72 4.72 0 014.715 4.715v6.245zm-13.028-7.621H2.75v-22c0-.737.6-1.337 1.337-1.337h30.326c.738 0 1.337.6 1.337 1.337v15.911h-.197c-3.645 0-6.682 2.628-7.331 6.088zM6.875 30.212c-2.348 0-3.36-.671-3.796-1.375h25.01v1.375H6.876zm16.27 8.211H15.36c1.068-1.356 1.805-3.212 2.207-5.462h3.396c0 .089-.02.172-.002.262.424 2.152 1.165 3.898 2.185 5.2zM38.5 4.086V20.27c3.164.865 5.5 3.758 5.5 7.193v6.245a7.474 7.474 0 01-7.465 7.465h-.982a7.473 7.473 0 01-7.463-7.465v-.746h-4.366c.78 3.614 2.507 5.461 5.151 5.461a1.375 1.375 0 010 2.75H9.625a1.375 1.375 0 010-2.75c3.3 0 4.628-2.958 5.163-5.462H6.875C2.57 32.962 0 30.907 0 27.462V4.088A4.09 4.09 0 014.087 0h30.326A4.09 4.09 0 0138.5 4.087zm-18.274.4a1.374 1.374 0 00-1.498-.29 1.42 1.42 0 00-.454.29c-.124.137-.22.288-.289.453a1.368 1.368 0 00.289 1.499c.261.261.605.399.976.399a1.362 1.362 0 001.375-1.375c0-.18-.027-.358-.11-.523a1.586 1.586 0 00-.289-.454z" fill="#13C1AC"/><path opacity=".5" fill-rule="evenodd" clip-rule="evenodd" d="M6.875 30.212c-2.349 0-3.36-.671-3.796-1.375h25.01v1.375H6.876zm34.375 3.496a4.72 4.72 0 01-4.715 4.715h-.982a4.72 4.72 0 01-4.713-4.715v-6.245a4.72 4.72 0 014.713-4.715h.982a4.72 4.72 0 014.715 4.715v6.245z" fill="#fff"/><path fill-rule="evenodd" clip-rule="evenodd" d="M36.143 24.673a1.375 1.375 0 00-1.375 1.375v2.789a1.375 1.375 0 102.75 0v-2.789a1.375 1.375 0 00-1.375-1.375z" fill="#13C1AC"/></svg>