<svg width="44" height="42" viewBox="0 0 44 42" fill="none" xmlns="http://www.w3.org/2000/svg"><path fill-rule="evenodd" clip-rule="evenodd" d="M41.25 33.77a4.724 4.724 0 01-4.715 4.724h-.982a4.725 4.725 0 01-4.713-4.723v-6.256a4.724 4.724 0 014.713-4.724h.982a4.725 4.725 0 014.715 4.723v6.256zm-13.028-7.635H2.75V4.093c0-.737.6-1.337 1.337-1.337h30.326c.738 0 1.337.6 1.337 1.339v15.939h-.197c-3.645 0-6.682 2.633-7.331 6.1zM6.875 30.268c-2.348 0-3.36-.672-3.796-1.378h25.01v1.378H6.876zm16.27 8.227H15.36c1.068-1.359 1.805-3.218 2.207-5.473h3.396c0 .09-.02.173-.002.263.424 2.156 1.165 3.905 2.185 5.21zM38.5 20.309c3.164.866 5.5 3.764 5.5 7.205v6.256c0 4.125-3.35 7.48-7.465 7.48h-.982c-4.115 0-7.463-3.355-7.463-7.48v-.747h-4.366c.78 3.622 2.507 5.473 5.151 5.473a1.377 1.377 0 010 2.754H9.625a1.378 1.378 0 010-2.755c3.3 0 4.628-2.964 5.163-5.473H6.875C2.57 33.022 0 30.964 0 27.512V4.095A4.095 4.095 0 014.087 0h30.326A4.095 4.095 0 0138.5 4.095v16.214zm-2.357 4.41a1.374 1.374 0 00-1.375 1.377v2.794a1.375 1.375 0 002.75 0v-2.794a1.375 1.375 0 00-1.375-1.378zM20.226 4.491a1.374 1.374 0 00-1.498-.289 1.42 1.42 0 00-.454.29c-.124.138-.22.288-.289.453a1.366 1.366 0 001.265 1.902 1.36 1.36 0 001.375-1.377c0-.179-.027-.359-.11-.524a1.586 1.586 0 00-.289-.454z" fill="#000"/></svg>