<svg width="36" height="48" viewBox="0 0 36 48" fill="none" xmlns="http://www.w3.org/2000/svg"><path fill-rule="evenodd" clip-rule="evenodd" d="M30.608 42c0 1.654-1.371 3-3.06 3H6.123c-1.688 0-3.061-1.344-3.061-3V6c0-1.654 1.373-3 3.06-3H27.55c1.688 0 3.06 1.346 3.06 3v36h-.001zM35.2 12a1.515 1.515 0 01-1.53 1.5v3c.847 0 1.53.671 1.53 1.5v1.5a1.514 1.514 0 01-1.53 1.5v21c0 3.309-2.745 6-6.121 6H6.122C2.746 48 0 45.309 0 42V6c0-3.309 2.746-6 6.122-6h21.427c3.376 0 6.121 2.691 6.121 6v3c.847 0 1.53.672 1.53 1.5V12zM17.6 35.2a3.203 3.203 0 00-3.2 3.2c0 1.765 1.435 3.2 3.2 3.2 1.765 0 3.2-1.435 3.2-3.2 0-1.765-1.435-3.2-3.2-3.2zm2.933-28.8h-7.466c-1.032 0-1.867.715-1.867 1.6 0 .885.835 1.6 1.867 1.6h7.466c1.035 0 1.867-.715 1.867-1.6 0-.885-.834-1.6-1.867-1.6z" fill="#000"/></svg>