<svg width="35" height="48" viewBox="0 0 35 48" fill="none" xmlns="http://www.w3.org/2000/svg"><path fill-rule="evenodd" clip-rule="evenodd" d="M32.96 6.051A5.998 5.998 0 0026.965.06H5.993A5.998 5.998 0 000 6.051v35.956A5.998 5.998 0 005.993 48h20.973a5.998 5.998 0 005.993-5.993V21.032a1.498 1.498 0 001.498-1.496v-1.499a1.499 1.499 0 00-1.498-1.498v-2.997a1.498 1.498 0 001.498-1.498v-1.498a1.498 1.498 0 00-1.498-1.498V6.05z" fill="#CFD8DC"/><path fill-rule="evenodd" clip-rule="evenodd" d="M29.975 41.966a3 3 0 01-2.998 2.997H5.995a3.001 3.001 0 01-2.997-2.997V5.996a3 3 0 012.997-2.998h20.982a3.001 3.001 0 012.998 2.998v35.97zm4.497-29.975c0 .83-.67 1.498-1.5 1.498v2.998c.83 0 1.5.67 1.5 1.499v1.498c0 .83-.67 1.5-1.5 1.5v20.982a6 6 0 01-5.995 5.995H5.995A6.001 6.001 0 010 41.965V5.996A6.001 6.001 0 015.996 0h20.981a6 6 0 015.996 5.996v2.997c.828 0 1.499.67 1.499 1.5v1.498zM16.486 34.473a3.002 3.002 0 00-2.997 2.997 2.999 2.999 0 002.997 2.996 3.001 3.001 0 002.998-2.996 3.002 3.002 0 00-2.998-2.998v.001zm2.998-28.478h-5.996a1.5 1.5 0 000 2.998h5.996a1.498 1.498 0 100-2.997v-.001z" fill="#253238"/></svg>