<svg width="35" height="48" viewBox="0 0 35 48" fill="none" xmlns="http://www.w3.org/2000/svg">
<path fill-rule="evenodd" clip-rule="evenodd" d="M32.9592 6.05107C32.9575 4.46224 32.3255 2.93898 31.2019 1.81565C30.0783 0.692327 28.5549 0.0607221 26.9661 0.0594788H5.99315C4.40432 0.0607221 2.8809 0.692327 1.75728 1.81565C0.633661 2.93898 0.00165843 4.46224 0 6.05107V42.0068C0.00124392 43.5959 0.633063 45.1196 1.75673 46.2433C2.88039 47.3669 4.40405 47.9987 5.99315 48H26.9661C28.5552 47.9987 30.0788 47.3669 31.2025 46.2433C32.3261 45.1196 32.958 43.5959 32.9592 42.0068V21.0324C33.3563 21.0324 33.7372 20.8747 34.0181 20.5941C34.299 20.3134 34.4571 19.9328 34.4575 19.5357V18.0374C34.4575 17.64 34.2996 17.2589 34.0187 16.9779C33.7377 16.6969 33.3566 16.5391 32.9592 16.5391V13.5425C33.3566 13.5425 33.7377 13.3847 34.0187 13.1037C34.2996 12.8227 34.4575 12.4416 34.4575 12.0442V10.5459C34.4575 10.3492 34.4187 10.1543 34.3434 9.97256C34.2681 9.79078 34.1578 9.62561 34.0187 9.48648C33.8795 9.34735 33.7144 9.23699 33.5326 9.16169C33.3508 9.08639 33.156 9.04764 32.9592 9.04764V6.05107V6.05107Z" fill="#CFD8DC"/>
<path fill-rule="evenodd" clip-rule="evenodd" d="M29.9751 41.9661C29.9739 42.7608 29.6576 43.5225 29.0955 44.0842C28.5335 44.646 27.7716 44.9619 26.977 44.9627H5.99472C5.20036 44.9615 4.43889 44.6454 3.87719 44.0837C3.31549 43.522 2.99938 42.7605 2.99814 41.9661V5.99628C2.99814 4.343 4.34143 2.99814 5.99472 2.99814H26.977C28.6303 2.99814 29.9751 4.343 29.9751 5.99628V41.9661V41.9661ZM34.4716 11.991C34.4716 12.8208 33.8015 13.4893 32.9717 13.4893V16.4874C33.8015 16.4874 34.4716 17.1575 34.4716 17.9857V19.484C34.4716 20.3138 33.8015 20.9839 32.9717 20.9839V41.9661C32.9701 43.5555 32.338 45.0794 31.2141 46.2032C30.0902 47.3271 28.5664 47.9592 26.977 47.9609H5.99472C4.40506 47.9592 2.881 47.3269 1.75709 46.2027C0.633178 45.0785 0.00124333 43.5542 0 41.9646V5.99628C0.00124392 4.40635 0.633393 2.88189 1.75764 1.75764C2.8819 0.633392 4.40635 0.00124392 5.99628 0H26.977C28.5669 0.00124392 30.0914 0.633392 31.2156 1.75764C32.3399 2.88189 32.972 4.40635 32.9733 5.99628V8.99286C33.8015 8.99286 34.4716 9.66294 34.4716 10.4927V11.991V11.991ZM16.4859 34.4731C15.6915 34.4744 14.93 34.7905 14.3683 35.3522C13.8066 35.9139 13.4905 36.6754 13.4893 37.4697C13.4893 39.123 14.8326 40.4663 16.4859 40.4663C17.2805 40.4655 18.0424 40.1495 18.6044 39.5878C19.1664 39.0261 19.4828 38.2644 19.484 37.4697C19.4832 36.6748 19.167 35.9127 18.605 35.3506C18.0429 34.7885 17.2808 34.4724 16.4859 34.4716V34.4731ZM19.484 5.99472H13.4877C13.0901 5.99472 12.7089 6.15265 12.4277 6.43378C12.1466 6.71491 11.9886 7.09621 11.9886 7.49379C11.9886 7.89137 12.1466 8.27266 12.4277 8.55379C12.7089 8.83492 13.0901 8.99286 13.4877 8.99286H19.484C19.8814 8.99286 20.2625 8.835 20.5435 8.55402C20.8244 8.27304 20.9823 7.89194 20.9823 7.49457C20.9823 7.0972 20.8244 6.7161 20.5435 6.43512C20.2625 6.15414 19.8814 5.99628 19.484 5.99628V5.99472Z" fill="#253238"/>
</svg>
