<svg width="35" height="48" viewBox="0 0 35 48" fill="none" xmlns="http://www.w3.org/2000/svg"><path fill-rule="evenodd" clip-rule="evenodd" d="M32.96 6.051A5.998 5.998 0 0026.969.06H5.992A5.998 5.998 0 00.001 6.051v35.956A5.998 5.998 0 005.993 48h20.974a5.998 5.998 0 005.994-5.993V21.032a1.498 1.498 0 001.498-1.498v-1.497a1.498 1.498 0 00-1.498-1.498v-2.997a1.498 1.498 0 001.498-1.498v-1.498a1.498 1.498 0 00-1.498-1.498V6.05z" fill="#13C1AC" fill-opacity=".35"/><path fill-rule="evenodd" clip-rule="evenodd" d="M29.977 41.966a3.001 3.001 0 01-2.998 2.997H5.996a3 3 0 01-2.998-2.997V5.996a3.002 3.002 0 012.998-2.998H26.98a3.001 3.001 0 012.998 2.998v35.97zm4.496-29.975c0 .83-.67 1.498-1.5 1.498v2.998c.83 0 1.5.67 1.5 1.499v1.498c0 .83-.67 1.5-1.5 1.5v20.982a6.001 6.001 0 01-5.994 5.995H5.996A6.001 6.001 0 010 41.965V5.996A6.001 6.001 0 015.996 0H26.98a6 6 0 015.996 5.996v2.997c.828 0 1.498.67 1.498 1.5v1.498zM16.487 34.473a3.002 3.002 0 00-2.998 2.997 3.001 3.001 0 002.998 2.996 3.001 3.001 0 002.999-2.996 3.002 3.002 0 00-2.999-2.998v.001zm2.999-28.478h-5.997a1.499 1.499 0 100 2.998h5.997a1.498 1.498 0 000-2.997v-.001z" fill="#13C1AC"/></svg>