<svg width="48" height="45" viewBox="0 0 48 45" fill="none" xmlns="http://www.w3.org/2000/svg"><path fill-rule="evenodd" clip-rule="evenodd" d="M45 20.695a.205.205 0 01-.08.166.22.22 0 01-.18.046l-3.392-.667a3.227 3.227 0 00-.848-.045v-3.343a1.49 1.49 0 00-1.5-1.476 1.49 1.49 0 00-1.5 1.476v17.717h-27V16.852A1.49 1.49 0 009 15.376a1.49 1.49 0 00-1.5 1.476v3.345c-.072-.007-.142-.02-.215-.02-.213 0-.426.021-.635.063l-3.388.666a.217.217 0 01-.261-.21V9.041c0-.082.046-.155.12-.192L15.06 2.975a.169.169 0 01.151-.006c.04.016.13.068.17.205 1.136 3.71 4.68 6.298 8.619 6.298 3.94 0 7.483-2.589 8.62-6.298a.305.305 0 01.17-.205.167.167 0 01.154.006l11.938 5.876a.214.214 0 01.119.192v11.654-.002zM37.283 41.95H10.72a.218.218 0 01-.22-.216v-4.211h27.002v4.211a.217.217 0 01-.218.217l-.002-.001zM46.22 6.208L34.283.332h-.002a3.22 3.22 0 00-2.683-.076 3.275 3.275 0 00-1.852 2.063c-.759 2.474-3.12 4.199-5.747 4.199s-4.99-1.725-5.747-4.2A3.275 3.275 0 0016.401.257a3.216 3.216 0 00-2.685.078L1.78 6.205A3.143 3.143 0 000 9.04v11.655a3.14 3.14 0 001.177 2.45c.75.604 1.722.843 2.674.656l3.388-.666a.225.225 0 01.242.119.22.22 0 01.02.092v18.39c0 1.747 1.444 3.167 3.218 3.167h26.563c1.775 0 3.218-1.42 3.218-3.169V23.346c0-.067.028-.124.08-.166a.216.216 0 01.181-.046l3.391.667a3.249 3.249 0 002.671-.656A3.139 3.139 0 0048 20.695V9.042a3.144 3.144 0 00-1.78-2.834z" fill="#000"/></svg>