<svg width="48" height="45" viewBox="0 0 48 45" fill="none" xmlns="http://www.w3.org/2000/svg"><path fill-rule="evenodd" clip-rule="evenodd" d="M46.222 6.222L34.287.334h-.002a3.213 3.213 0 00-2.684-.077 3.28 3.28 0 00-1.853 2.068c-.757 2.477-3.12 4.207-5.746 4.207-2.626 0-4.988-1.729-5.747-4.207A3.28 3.28 0 0016.403.257a3.209 3.209 0 00-2.683.077L1.78 6.219A3.15 3.15 0 000 9.058v11.681c0 .955.43 1.85 1.177 2.455a3.245 3.245 0 002.673.659l3.39-.67a.224.224 0 01.24.12c.013.029.02.06.02.092v18.43C7.5 43.576 8.944 45 10.72 45h26.562c1.775 0 3.219-1.424 3.219-3.175V23.396a.204.204 0 01.078-.166.216.216 0 01.183-.045l3.39.67a3.246 3.246 0 002.672-.66A3.147 3.147 0 0048 20.742V9.062c0-1.211-.682-2.3-1.778-2.84z" fill="#13C1AC" fill-opacity=".7"/><path fill-rule="evenodd" clip-rule="evenodd" d="M45.003 20.74a.206.206 0 01-.079.167.22.22 0 01-.183.046l-3.39-.67a3.214 3.214 0 00-.849-.044v-3.35a1.492 1.492 0 00-1.5-1.48 1.49 1.49 0 00-1.5 1.48v17.755h-27V16.891a1.49 1.49 0 00-1.5-1.481A1.49 1.49 0 007.5 16.89v3.35c-.072-.005-.141-.018-.213-.018-.214 0-.427.021-.637.063l-3.386.668a.216.216 0 01-.183-.044.209.209 0 01-.08-.168V9.059c0-.081.047-.155.12-.191L15.06 2.98a.167.167 0 01.154-.006.311.311 0 01.169.204c1.135 3.718 4.68 6.314 8.619 6.314s7.483-2.596 8.62-6.313a.305.305 0 01.17-.204.167.167 0 01.153.005l11.937 5.89a.21.21 0 01.12.19v11.68zm-7.72 21.302H10.722a.217.217 0 01-.22-.215v-4.225h27v4.223a.217.217 0 01-.219.215l.002.002zm8.94-35.82L34.288.334h-.002a3.213 3.213 0 00-2.684-.077 3.28 3.28 0 00-1.853 2.068c-.757 2.477-3.12 4.207-5.746 4.207-2.626 0-4.988-1.729-5.747-4.207A3.28 3.28 0 0016.403.257a3.209 3.209 0 00-2.683.077L1.78 6.219A3.15 3.15 0 000 9.058v11.681c0 .955.43 1.85 1.177 2.455a3.245 3.245 0 002.673.659l3.39-.67a.224.224 0 01.24.12c.013.029.02.06.02.092v18.43C7.5 43.576 8.944 45 10.72 45h26.562c1.775 0 3.219-1.424 3.219-3.175V23.396a.204.204 0 01.078-.166.216.216 0 01.183-.045l3.39.67a3.246 3.246 0 002.672-.66A3.147 3.147 0 0048 20.742V9.062c0-1.211-.682-2.3-1.778-2.84h.002z" fill="#0F9989"/><path fill-rule="evenodd" clip-rule="evenodd" d="M45.003 20.741a.207.207 0 01-.079.166.22.22 0 01-.183.046l-3.39-.67a3.214 3.214 0 00-.849-.044v-3.35a1.488 1.488 0 00-1.5-1.48 1.49 1.49 0 00-1.5 1.48v17.755h-27V16.891a1.489 1.489 0 00-1.5-1.481A1.49 1.49 0 007.5 16.89v3.35c-.072-.005-.141-.018-.213-.018-.214 0-.427.021-.637.063l-3.386.668a.216.216 0 01-.183-.044.209.209 0 01-.08-.168V9.059c0-.081.047-.155.12-.191L15.06 2.98a.167.167 0 01.154-.006.31.31 0 01.169.204c1.135 3.718 4.68 6.314 8.619 6.314s7.483-2.596 8.62-6.313a.307.307 0 01.17-.204.166.166 0 01.153.005l11.937 5.89a.21.21 0 01.12.19v11.681z" fill="#fff" fill-opacity=".5"/></svg>