<svg width="48" height="45" viewBox="0 0 48 45" fill="none" xmlns="http://www.w3.org/2000/svg"><path fill-rule="evenodd" clip-rule="evenodd" d="M46.22 6.22L34.285.334a3.213 3.213 0 00-2.685-.075 3.276 3.276 0 00-1.853 2.066c-.757 2.478-3.12 4.209-5.745 4.209-2.627 0-4.99-1.73-5.747-4.21A3.278 3.278 0 0016.401.259a3.209 3.209 0 00-2.683.075L1.78 6.218A3.15 3.15 0 000 9.058v11.68c0 .956.43 1.85 1.177 2.455a3.244 3.244 0 002.673.658l3.389-.668a.225.225 0 01.24.12c.014.028.021.06.02.092v18.428c0 1.752 1.445 3.176 3.22 3.176H37.28c1.775 0 3.218-1.424 3.218-3.176V23.396a.203.203 0 01.08-.166.216.216 0 01.182-.047l3.39.67a3.246 3.246 0 002.672-.659A3.148 3.148 0 0048 20.74V9.061c0-1.21-.682-2.3-1.78-2.84z" fill="#CFD8DC"/><path fill-rule="evenodd" clip-rule="evenodd" d="M45 20.74a.207.207 0 01-.079.166.219.219 0 01-.181.047l-3.391-.67a3.21 3.21 0 00-.85-.045V16.89a1.49 1.49 0 00-1.498-1.48 1.49 1.49 0 00-1.5 1.48v17.754H10.499V16.89a1.49 1.49 0 00-1.498-1.48 1.49 1.49 0 00-1.5 1.48v3.348c-.072-.003-.143-.016-.215-.016-.212 0-.425.019-.636.061l-3.386.668a.216.216 0 01-.182-.044A.21.21 0 013 20.74V9.06c0-.08.047-.156.121-.192l11.937-5.888a.168.168 0 01.153-.005.307.307 0 01.17.204c1.136 3.718 4.68 6.313 8.62 6.313 3.938 0 7.483-2.595 8.618-6.313a.305.305 0 01.17-.204.166.166 0 01.155.005L44.88 8.87c.073.035.119.11.119.192V20.74zm-7.719 21.3H10.72a.216.216 0 01-.22-.215v-4.223h27.002v4.223a.218.218 0 01-.136.2.216.216 0 01-.084.016zm8.94-35.818L34.284.333a3.213 3.213 0 00-2.685-.075 3.276 3.276 0 00-1.853 2.066c-.757 2.478-3.12 4.209-5.745 4.209-2.627 0-4.99-1.73-5.747-4.21A3.278 3.278 0 0016.401.259a3.209 3.209 0 00-2.683.075L1.78 6.218A3.15 3.15 0 000 9.058v11.68c0 .956.43 1.85 1.177 2.455a3.244 3.244 0 002.673.658l3.389-.668a.225.225 0 01.24.12c.014.028.021.06.02.092v18.428c0 1.752 1.445 3.176 3.22 3.176H37.28c1.775 0 3.218-1.424 3.218-3.176V23.396a.203.203 0 01.08-.166.216.216 0 01.182-.047l3.39.67a3.246 3.246 0 002.672-.659A3.148 3.148 0 0048 20.74V9.061c0-1.21-.682-2.3-1.78-2.84v.001z" fill="#253238"/><path fill-rule="evenodd" clip-rule="evenodd" d="M45 20.74a.207.207 0 01-.078.166.219.219 0 01-.182.047l-3.39-.67a3.21 3.21 0 00-.85-.045V16.89a1.49 1.49 0 00-1.5-1.48 1.49 1.49 0 00-1.5 1.48v17.754h-27V16.89A1.49 1.49 0 009 15.41a1.49 1.49 0 00-1.5 1.48v3.348c-.072-.003-.143-.016-.215-.016-.211 0-.425.019-.636.061l-3.386.668a.216.216 0 01-.182-.044.208.208 0 01-.081-.168V9.06c0-.08.047-.156.12-.192l11.937-5.888a.168.168 0 01.154-.005.307.307 0 01.169.204c1.136 3.718 4.68 6.313 8.62 6.313 3.938 0 7.483-2.595 8.618-6.313a.305.305 0 01.17-.204.166.166 0 01.155.005L44.88 8.87c.073.035.119.11.119.192V20.74z" fill="#fff" fill-opacity=".5"/></svg>