<svg width="48" height="48" viewBox="0 0 48 48" fill="none" xmlns="http://www.w3.org/2000/svg"><path d="M6.144 48h-.201c-1.703 0-3.205-.8-4.408-2-2.203-2.4-2.003-6.203.4-8.603l20.637-20.608c-1.402-4.6-.2-9.602 3.206-13.004 3.205-3.2 8.013-4.5 12.42-3.401.802.2 1.404.8 1.703 1.6.202.8 0 1.7-.6 2.302l-5.51 5.501.801 3.802 3.607.7 5.51-5.502c.6-.6 1.502-.8 2.304-.6.8.2 1.402.9 1.602 1.7 1.102 4.4-.2 9.204-3.405 12.404-3.407 3.402-8.416 4.602-13.024 3.2L10.45 46.299c-1.1 1.1-2.704 1.7-4.307 1.7h.001zm28.95-44.915c-2.606 0-5.209 1.001-7.113 2.9a9.872 9.872 0 00-2.203 10.704l.4.901L4.14 39.597c-1.202 1.2-1.402 3.2-.301 4.401.601.6 1.403 1 2.205 1 .9 0 1.702-.299 2.304-.899l22.137-22.107.902.4c3.706 1.4 7.914.6 10.719-2.202a9.91 9.91 0 002.805-8.302L40.2 16.59c-.6.6-1.502.9-2.303.7l-4.107-.8a2.571 2.571 0 01-2.003-2l-.8-4.103c-.202-.8.099-1.7.7-2.3l4.808-4.8c-.601-.202-1.001-.202-1.403-.202z" fill="#000"/></svg>