<svg width="48" height="49" viewBox="0 0 48 49" fill="none" xmlns="http://www.w3.org/2000/svg"><path fill-rule="evenodd" clip-rule="evenodd" d="M6.143 48.067h-.2c-1.703 0-3.206-.802-4.408-2.004-2.203-2.404-2.004-6.21.4-8.614l20.637-20.635c-1.403-4.609-.2-9.618 3.206-13.023C28.984.585 33.79-.716 38.198.385c.801.2 1.402.801 1.704 1.603.2.801 0 1.702-.601 2.303l-5.51 5.51.802 3.807 3.606.7 5.51-5.51c.6-.6 1.502-.8 2.303-.6.802.2 1.403.902 1.603 1.704 1.102 4.408-.2 9.217-3.406 12.421-3.406 3.406-8.416 4.607-13.023 3.206L10.452 46.364c-1.101 1.102-2.704 1.703-4.307 1.703h-.002z" fill="#13C1AC" fill-opacity=".7"/><path d="M6.143 48.067h-.2c-1.703 0-3.206-.802-4.408-2.004-2.203-2.404-2.004-6.21.4-8.614l20.637-20.635c-1.403-4.609-.2-9.618 3.206-13.023C28.984.585 33.79-.716 38.198.385c.801.2 1.402.801 1.704 1.603.2.801 0 1.702-.601 2.303l-5.51 5.51.802 3.807 3.606.7 5.51-5.51c.6-.6 1.502-.8 2.303-.6.802.2 1.403.902 1.603 1.704 1.102 4.408-.2 9.217-3.406 12.421-3.406 3.406-8.416 4.607-13.023 3.206L10.452 46.364c-1.101 1.102-2.704 1.703-4.307 1.703h-.002zm28.95-44.978c-2.605 0-5.21 1.002-7.113 2.906a9.895 9.895 0 00-2.202 10.718l.4.902L4.14 39.653c-1.202 1.202-1.402 3.206-.3 4.408.602.6 1.403 1 2.205 1 .9 0 1.702-.3 2.303-.9l22.137-22.138.903.401c3.706 1.401 7.914.6 10.719-2.206a9.932 9.932 0 002.805-8.313l-4.71 4.708c-.6.601-1.502.901-2.303.7l-4.107-.8a2.575 2.575 0 01-2.003-2.004l-.802-4.107c-.2-.802.101-1.703.702-2.304l4.809-4.809c-.603-.2-1.003-.2-1.404-.2z" fill="#0F9989"/></svg>