<svg width="48" height="47" viewBox="0 0 48 47" fill="none" xmlns="http://www.w3.org/2000/svg"><path opacity=".453" fill-rule="evenodd" clip-rule="evenodd" d="M26.121 7.498l4.94-4.938A1.5 1.5 0 1028.939.44L23.25 6.128 17.56.439a1.5 1.5 0 00-2.12 2.121l4.939 4.94H4.437A4.442 4.442 0 000 11.937v28.626A4.442 4.442 0 004.437 45H6a1.485 1.485 0 001.5 1.498 1.486 1.486 0 001.5-1.5h28.5a1.486 1.486 0 001.5 1.499A1.485 1.485 0 0040.5 45h3.063A4.442 4.442 0 0048 40.563V11.937A4.441 4.441 0 0043.563 7.5H26.121v-.002z" fill="#13C1AC"/><path fill-rule="evenodd" clip-rule="evenodd" d="M45 17.998v22.565A1.44 1.44 0 0143.563 42H4.437A1.44 1.44 0 013 40.563V11.937A1.44 1.44 0 014.437 10.5h39.126A1.44 1.44 0 0145 11.937v6.061zm-18.879-10.5h17.442A4.442 4.442 0 0148 11.938v28.626a4.441 4.441 0 01-4.437 4.437H40.5A1.486 1.486 0 0139 46.5a1.485 1.485 0 01-1.5-1.5H9a1.485 1.485 0 01-1.5 1.5A1.485 1.485 0 016 45H4.437A4.442 4.442 0 010 40.564V11.937A4.442 4.442 0 014.437 7.5h15.942l-4.94-4.94A1.5 1.5 0 1117.562.44l5.689 5.689 5.69-5.69a1.5 1.5 0 012.12 2.121l-4.939 4.938zm16.809 9.12c-.18.075-.345.18-.495.315-.27.285-.435.675-.435 1.065a1.485 1.485 0 001.5 1.5 1.485 1.485 0 001.5-1.5c0-.39-.165-.78-.435-1.065a1.499 1.499 0 00-1.635-.315zm-.495 7.815c-.27.285-.435.675-.435 1.065 0 .405.15.78.435 1.065.15.135.315.255.495.315.18.09.375.12.57.12.195 0 .39-.03.57-.12.18-.06.345-.18.495-.315A1.485 1.485 0 0045 25.498c0-.39-.165-.78-.435-1.065-.57-.555-1.575-.555-2.13 0zm.495 7.185c-.195.075-.345.18-.495.315-.27.285-.435.675-.435 1.065a1.485 1.485 0 001.5 1.5 1.485 1.485 0 001.5-1.5c0-.39-.165-.78-.435-1.065-.42-.405-1.08-.555-1.635-.315zm-6.21 2.603c-.201.976-1.38 2.062-2.382 2.193a99.324 99.324 0 01-23.67 0c-1.005-.128-2.185-1.215-2.385-2.18a41.274 41.274 0 01-.003-15.957c.203-.978 1.385-2.065 2.376-2.191a99.322 99.322 0 0123.676-.002c1.005.13 2.185 1.217 2.385 2.18a41.332 41.332 0 01.003 15.957zm-2.017-21.114a102.576 102.576 0 00-24.418.001c-2.268.291-4.484 2.339-4.945 4.58a44.273 44.273 0 00.003 17.136c.458 2.227 2.675 4.276 4.954 4.567 8.106.973 16.3.973 24.405 0l.011-.001c2.268-.29 4.485-2.337 4.948-4.578a44.28 44.28 0 00-.004-17.138c-.457-2.226-2.673-4.273-4.956-4.567h.002z" fill="#13C1AC"/><path opacity=".789" fill-rule="evenodd" clip-rule="evenodd" d="M36.72 34.22c-.201.977-1.38 2.063-2.382 2.194a99.324 99.324 0 01-23.67 0c-1.005-.128-2.186-1.215-2.385-2.18a41.274 41.274 0 01-.003-15.957c.202-.978 1.384-2.065 2.376-2.191a99.322 99.322 0 0123.676-.002c1.005.13 2.185 1.217 2.385 2.18a41.332 41.332 0 01.003 15.957" fill="#fff"/></svg>