<svg width="48" height="47" viewBox="0 0 48 47" fill="none" xmlns="http://www.w3.org/2000/svg"><path fill-rule="evenodd" clip-rule="evenodd" d="M45 18v22.563A1.44 1.44 0 0143.563 42H4.437A1.44 1.44 0 013 40.563V11.937A1.44 1.44 0 014.437 10.5h39.126A1.44 1.44 0 0145 11.937V18zM43.563 7.5A4.441 4.441 0 0148 11.937v28.626A4.441 4.441 0 0143.563 45H40.5a1.485 1.485 0 01-1.5 1.5 1.487 1.487 0 01-1.5-1.5H9a1.485 1.485 0 01-1.5 1.5A1.486 1.486 0 016 45H4.437A4.442 4.442 0 010 40.563V11.937A4.442 4.442 0 014.437 7.5h15.942l-4.94-4.94A1.5 1.5 0 1117.562.44l5.689 5.689 5.69-5.69a1.5 1.5 0 012.12 2.121L26.122 7.5h17.442zm-.633 9.12c-.18.075-.345.18-.495.315-.27.285-.435.675-.435 1.065a1.485 1.485 0 001.5 1.5A1.485 1.485 0 0045 18c0-.39-.165-.78-.435-1.065a1.499 1.499 0 00-1.635-.315zm-.495 7.815c-.27.285-.435.675-.435 1.065 0 .405.15.78.435 1.065.15.135.315.255.495.315.18.09.375.12.57.12.195 0 .39-.03.57-.12.18-.06.345-.18.495-.315A1.485 1.485 0 0045 25.5c0-.39-.165-.78-.435-1.065-.57-.555-1.575-.555-2.13 0zm.495 7.185c-.195.075-.345.18-.495.315-.27.285-.435.675-.435 1.065a1.485 1.485 0 001.5 1.5A1.485 1.485 0 0045 33c0-.39-.165-.78-.435-1.065-.42-.405-1.08-.555-1.635-.315zm-6.21 2.602c-.201.975-1.38 2.063-2.382 2.193a99.324 99.324 0 01-23.67 0c-1.005-.127-2.185-1.215-2.385-2.18A41.274 41.274 0 018.28 18.28c.203-.978 1.385-2.066 2.376-2.192a99.322 99.322 0 0123.676-.001c1.005.129 2.185 1.215 2.385 2.18a41.332 41.332 0 01.003 15.956zm-2.017-21.114a102.581 102.581 0 00-24.418 0c-2.268.293-4.484 2.34-4.945 4.581a44.273 44.273 0 00.003 17.136c.458 2.228 2.675 4.275 4.954 4.568 8.106.972 16.3.972 24.405 0l.011-.002c2.268-.29 4.485-2.337 4.948-4.578a44.28 44.28 0 00-.004-17.137c-.457-2.226-2.673-4.275-4.956-4.568h.002z" fill="#000"/></svg>