<svg width="48" height="48" viewBox="0 0 48 48" fill="none" xmlns="http://www.w3.org/2000/svg"><path fill="#fff" d="M0 0h48v48H0z"/><g clip-path="url(#clip0_5764_15062)" fill="#253238"><path d="M24 9C15.7 9 9 15.7 9 23.9s6.7 14.9 15 14.9 15-6.7 15-14.9S32.3 9 24 9zm0 27.9c-7.2 0-13-5.8-13-12.9 0-7.1 5.8-13 13-13s13 5.8 13 12.9c0 7.1-5.8 13-13 13z"/><path d="M23.7 15.9c-2.8 0-3.9 2.4-4 3.6-.1.5.3 1 .9 1.1.5.1 1-.3 1.1-.9 0-.1.3-1.9 2-1.9 1.4 0 2 1.2 2 2.4 0 .8-.3 1.6-1.2 2.5l-.3.3c-.8.9-1.2 1.6-1.2 3v.8c0 .6.4 1 1 1s1-.4 1-1V26c0-.8.2-1.1.7-1.7l.3-.3c1.1-1.3 1.6-2.5 1.6-3.8 0-2.5-1.6-4.3-3.9-4.3zM23.4 29.2c-.2.2-.3.5-.3.7 0 .1 0 .3.1.4.1.1.1.2.2.3.1.1.2.2.3.2.1 0 .2.1.4.1.3 0 .5-.1.7-.3.1-.1.2-.2.2-.3 0-.1.1-.2.1-.4 0-.3-.1-.5-.3-.7-.3-.3-1-.3-1.4 0z"/></g><defs><clipPath id="clip0_5764_15062"><path fill="#fff" transform="translate(9 9)" d="M0 0h30v29.9H0z"/></clipPath></defs></svg>