<svg width="48" height="48" viewBox="0 0 48 48" fill="none" xmlns="http://www.w3.org/2000/svg"><path fill="#fff" d="M0 0h48v48H0z"/><g clip-path="url(#clip0_5764_15075)" stroke="#253238" stroke-width="2" stroke-miterlimit="10" stroke-linecap="round" stroke-linejoin="round"><path clip-rule="evenodd" d="M19.6 35.5l-8.9-8.9c-.9-.9-.8-2.3 0-3.1L25.4 9.6c.4-.4.9-.6 1.5-.6h9c1.2 0 2.2 1 2.2 2.2V20c0 .6-.2 1.2-.7 1.6L22.6 35.5c-.9.8-2.2.8-3 0z"/><path d="M31 17.6a2.1 2.1 0 100-4.2 2.1 2.1 0 000 4.2zM31.3 17.7V36c0 1 .8 2 1.8 2s1.8-1 1.8-2V24.5"/></g><defs><clipPath id="clip0_5764_15075"><path fill="#fff" transform="translate(9 8)" d="M0 0h30v31.1H0z"/></clipPath></defs></svg>