<svg width="48" height="48" viewBox="0 0 48 48" fill="none" xmlns="http://www.w3.org/2000/svg"><path d="M19.6 35.5l-8.9-8.9c-.9-.9-.8-2.3 0-3.1L25.4 9.6c.4-.4.9-.6 1.5-.6h9c1.2 0 2.2 1 2.2 2.2V20c0 .6-.2 1.2-.7 1.6L22.6 35.5c-.9.8-2.2.8-3 0z" stroke="#253238" stroke-width="2" stroke-miterlimit="10" stroke-linecap="round" stroke-linejoin="round"/><path d="M31.3 17.7V36c0 1 .8 2 1.8 2s1.8-1 1.8-2V24.5M31 17.6a2.1 2.1 0 100-4.2 2.1 2.1 0 000 4.2z" stroke="#253238" stroke-width="2" stroke-miterlimit="10" stroke-linecap="round" stroke-linejoin="round"/></svg>