<svg width="48" height="48" viewBox="0 0 48 48" fill="none" xmlns="http://www.w3.org/2000/svg"><g clip-path="url(#clip0_5764_15017)"><path fill="#fff" d="M.5 0h48v48H.5z"/><path fill="#fff" d="M.5 0h48v48H.5z"/><g clip-path="url(#clip1_5764_15017)" stroke="#253238" stroke-width="2" stroke-miterlimit="10"><path d="M18.6 25.5l3.5 3 8.3-9.2" stroke-linecap="round" stroke-linejoin="round"/><path clip-rule="evenodd" d="M25.4 9.4l3.3 3.3c.2.2.5.3.9.3h4.6c.7 0 1.3.6 1.3 1.3v4.6c0 .3.1.7.4.9l3.3 3.2c.5.5.5 1.3 0 1.8L35.9 28c-.3.3-.4.6-.4 1v4.6c0 .7-.6 1.3-1.3 1.3h-4.6c-.3 0-.7.1-.9.4l-3.3 3.3c-.5.5-1.3.5-1.8 0l-3.3-3.3c-.2-.2-.6-.4-.9-.4h-4.6c-.7 0-1.3-.6-1.3-1.3V29c0-.3-.1-.7-.4-.9l-3.3-3.2c-.5-.5-.5-1.3 0-1.8l3.3-3.2c.3-.4.4-.7.4-1v-4.6c0-.7.6-1.3 1.3-1.3h4.6c.3 0 .7-.1.9-.4l3.3-3.3c.5-.4 1.3-.4 1.8.1z"/></g></g><defs><clipPath id="clip0_5764_15017"><path fill="#fff" transform="translate(.5)" d="M0 0h48v48H0z"/></clipPath><clipPath id="clip1_5764_15017"><path fill="#fff" transform="translate(8.5 8)" d="M0 0h32v31.8H0z"/></clipPath></defs></svg>