<svg width="48" height="48" viewBox="0 0 48 48" fill="none" xmlns="http://www.w3.org/2000/svg"><path d="M37.887 20.86c-.302-.1-.503-.404-.604-.708-.302-.912-.604-1.823-1.107-2.633-.201-.304-.201-.608-.1-.911.503-1.317.1-2.836-.806-3.747-.704-.71-1.61-1.013-2.515-1.013-.403 0-.805.101-1.208.203-.1 0-.302.1-.402.1-.202 0-.403 0-.604-.1a20.364 20.364 0 00-2.617-1.114c-.301-.102-.603-.304-.704-.608C26.717 8.81 25.41 8 24 8c-1.409 0-2.717.81-3.22 2.127-.1.303-.403.506-.704.607-1.007.203-1.812.608-2.718 1.114-.1 0-.301.101-.503.101-.1 0-.302 0-.402-.1-.403-.102-.805-.203-1.208-.203-.905 0-1.912.405-2.515 1.012-1.007 1.013-1.309 2.43-.806 3.747.101.304.101.709-.1.912-.43.85-.8 1.73-1.107 2.632-.1.304-.302.608-.604.71C8.805 21.366 8 22.682 8 24.1c0 1.418.805 2.734 2.113 3.24.302.102.503.406.604.71.302.911.604 1.822 1.107 2.633.201.303.201.607.1.91-.503 1.317-.1 2.836.806 3.748.704.709 1.61 1.012 2.515 1.012.403 0 .805-.1 1.208-.202.1 0 .302-.101.402-.101.202 0 .403 0 .604.1.805.406 1.71.811 2.617 1.115.301.101.603.304.704.607C21.384 39.19 22.692 40 24 40c1.409 0 2.717-.81 3.22-2.127.1-.303.403-.506.704-.607.906-.304 1.812-.608 2.617-1.114.201-.101.402-.101.604-.101.1 0 .302 0 .402.1.403.102.805.203 1.208.203.905 0 1.912-.405 2.515-1.012 1.007-1.013 1.309-2.43.805-3.747-.1-.304-.1-.709.101-.912.43-.85.8-1.73 1.107-2.632.1-.304.302-.608.604-.71 1.308-.607 2.113-1.923 2.113-3.24 0-1.316-.805-2.734-2.113-3.24v-.001zm-.805 4.659c-.805.405-1.409 1.114-1.71 2.025a8.627 8.627 0 01-.907 2.228c-.402.81-.503 1.722-.2 2.633.2.608.1 1.215-.403 1.722-.302.303-.705.506-1.107.506-.202 0-.403 0-.503-.101a3.6 3.6 0 00-1.107-.203c-.503 0-1.007.101-1.51.405-.704.405-1.51.709-2.214.912-.905.303-1.61.911-2.012 1.721-.302.608-.805.912-1.409.912s-1.207-.406-1.409-.912c-.402-.81-1.107-1.418-2.012-1.721a8.514 8.514 0 01-2.214-.912 2.826 2.826 0 00-1.51-.405c-.402 0-.704.101-1.107.203-.2.1-.402.1-.503.1-.402 0-.805-.202-1.107-.505-.402-.406-.603-1.114-.402-1.722.302-.81.201-1.823-.201-2.633-.403-.709-.705-1.519-.906-2.228-.302-.911-.906-1.62-1.71-2.025-.504-.202-.906-.81-.906-1.418 0-.607.402-1.215.905-1.418.805-.404 1.409-1.113 1.71-2.025.202-.81.504-1.519.907-2.228.402-.81.503-1.721.2-2.633-.2-.506-.1-1.215.403-1.62.302-.304.705-.506 1.107-.506.202 0 .403 0 .503.101a3.6 3.6 0 001.107.203c.503 0 1.007-.102 1.51-.405.704-.405 1.51-.71 2.214-.912.905-.304 1.61-.911 2.012-1.721.201-.507.805-.912 1.409-.912s1.207.405 1.409.912c.402.81 1.107 1.417 2.012 1.721.805.203 1.51.507 2.214.912.455.274.979.415 1.51.405.402 0 .704-.102 1.107-.203.2-.101.402-.101.503-.101.402 0 .805.202 1.107.506.402.405.603 1.114.402 1.722-.302.81-.201 1.822.201 2.633.403.709.705 1.519.906 2.227.302.912.906 1.62 1.71 2.026.604.304.906.81.906 1.418 0 .607-.402 1.114-.905 1.316z" fill="#253238"/><path d="M24.7 23.304c-.3-.3-.7-.4-1.1-.2-.1 0-.2.1-.3.2-.1.1-.2.2-.2.3-.1.1-.1.2-.1.4 0 .3.1.5.3.7.2.2.4.3.7.3.3 0 .5-.1.7-.3.2-.2.3-.4.3-.7 0-.1 0-.3-.1-.4 0-.1-.1-.2-.2-.3z" fill="#253238"/><path d="M24 17c-1.9 0-3.6.7-4.9 2.1-1.3 1.4-2.1 3-2.1 4.9 0 1.9.7 3.6 2.1 4.9.2.2.5.3.7.3.2 0 .5-.1.7-.3.4-.4.4-1 0-1.4-.9-.9-1.5-2.2-1.5-3.5 0-1.3.5-2.6 1.5-3.5 1-.9 2.2-1.5 3.5-1.5 1.3 0 2.6.5 3.5 1.5.4.4 1 .4 1.4 0 .4-.4.4-1 0-1.4-1.2-1.4-3-2.1-4.9-2.1z" fill="#253238"/></svg>