<svg width="48" height="48" viewBox="0 0 48 48" fill="none" xmlns="http://www.w3.org/2000/svg"><path d="M36.5 30.6V17c0-.4-.2-.8-.6-1L24.4 9.2c-.4-.2-.9-.2-1.2 0L11.6 16c-.4.2-.6.6-.6 1v13.6c0 .4.2.8.6 1l11.6 6.8c.4.2.9.2 1.2 0L36 31.6c.3-.2.5-.6.5-1z" stroke="#253238" stroke-width="2" stroke-miterlimit="10" stroke-linecap="round" stroke-linejoin="round"/><path d="M11.4 16.3l11.7 6.9c.4.2.9.2 1.2 0l11.8-7M17.5 12.5l12.2 7.1M23.8 23.8v14.7" stroke="#253238" stroke-width="2" stroke-miterlimit="10" stroke-linecap="round" stroke-linejoin="round"/></svg>