<svg width="48" height="48" viewBox="0 0 48 48" fill="none" xmlns="http://www.w3.org/2000/svg"><path d="M35.732 15.8l-2.2-5.6c-.1-.3-.3-.5-.6-.6-.3-.1-.5-.1-.8 0l-6.5 3.1c0-.1 0-.2-.1-.3l-1.8-3c-.1-.1-.4-.3-.6-.4-.3 0-.6 0-.8.2l-9.5 6.4-.3.3c-1.9.7-3.2 2.5-3.2 4.7v13c0 2.8 2.2 5 5 5h20c2.8 0 5-2.2 5-5v-13c0-2.3-1.5-4.2-3.6-4.8zm-2.3-.2h-9l7.6-3.6 1.4 3.6zm-10.9-4.2l1.2 2.1.1.1-4 1.9h-3.3l6-4.1zm11.8 25.2h-20c-1.7 0-3-1.4-3-3v-13c0-1.7 1.4-3 3-3h20c1.7 0 3 1.4 3 3v4h-6c-2.2 0-4 1.8-4 4s1.8 4 4 4h6v1c0 1.6-1.4 3-3 3zm3-6h-6c-1.1 0-2-.9-2-2s.9-2 2-2h6v4z" fill="#253238"/><path d="M30.632 27.8c-.1.1-.2.2-.2.3-.1.2-.1.3-.1.5s0 .3.1.4c0 .1.1.2.2.3.1.1.2.2.3.2.1 0 .2.1.4.1.3 0 .5-.1.7-.3.1-.1.2-.2.2-.3.1-.1.1-.2.1-.4s0-.3-.1-.4c-.1-.1-.1-.2-.2-.3-.1 0-.1-.1-.1-.1-.1 0-.1-.1-.2-.1s-.1 0-.2-.1c-.3-.1-.7 0-.9.2z" fill="#253238"/></svg>