<svg width="32" height="48" viewBox="0 0 32 48" fill="none" xmlns="http://www.w3.org/2000/svg"><path d="M15.23 5.031c-2.72 0-4.964.703-6.731 2.108-1.768 1.36-2.924 3.263-3.468 5.71L0 11.287c.907-3.49 2.697-6.232 5.371-8.227C8.091 1.02 11.377 0 15.23 0c4.578 0 8.25 1.292 11.015 3.875 2.765 2.539 4.147 5.915 4.147 10.13 0 3.037-.816 5.757-2.448 8.16-1.631 2.356-4.487 4.781-8.566 7.274L13.87 32.77c-2.765 1.678-4.805 3.355-6.12 5.032-1.314 1.631-1.971 3.354-1.971 5.167h25.972V48H.476L.34 46.504v-1.563c0-3.4.816-6.369 2.448-8.907 1.631-2.584 4.305-5.008 8.022-7.275l5.44-3.331c3.535-2.176 5.824-4.034 6.866-5.575 1.043-1.587 1.564-3.536 1.564-5.847 0-2.72-.861-4.896-2.584-6.527-1.722-1.632-4.011-2.448-6.867-2.448z" fill="#253238"/></svg>