<svg width="75" height="48" viewBox="0 0 75 48" fill="none" xmlns="http://www.w3.org/2000/svg"><path fill-rule="evenodd" clip-rule="evenodd" d="M5.2 12.85L0 11.286C1.686 5.032 6.954 0 15.736 0 25.57 0 31.4 5.916 31.4 14.006c0 7.682-5.268 11.83-11.38 15.434l-5.69 3.33c-5.55 3.264-8.36 6.528-8.36 10.2h26.836V48H.492s-.14-1.496-.14-3.06c0-7.48 3.934-12.1 10.818-16.18l5.62-3.332c5.62-3.332 8.71-5.576 8.71-11.422 0-5.508-3.934-8.974-9.764-8.974-7.096 0-9.764 4.42-10.538 7.818H5.2zM52.404 1.224h5.55c-.702 13.734-13.136 30.46-13.136 30.46h16.086V16.93h5.34v14.752h7.938v4.964h-7.94V48h-5.338V36.646H38.636V31.68S51.702 14.82 52.404 1.22v.004z" fill="#000"/></svg>