<svg width="48" height="48" viewBox="0 0 48 48" fill="none" xmlns="http://www.w3.org/2000/svg"><path fill-rule="evenodd" clip-rule="evenodd" d="M8.565 18.425L6 17.643C6.832 14.516 9.43 12 13.763 12c4.851 0 7.728 2.958 7.728 7.003 0 3.841-2.6 5.915-5.614 7.717l-2.808 1.665c-2.738 1.632-4.124 3.264-4.124 5.1h13.24V36H6.242s-.07-.748-.07-1.53c0-3.74 1.941-6.05 5.338-8.09l2.772-1.666c2.773-1.666 4.297-2.788 4.297-5.711 0-2.754-1.94-4.487-4.817-4.487-3.5 0-4.817 2.21-5.199 3.909h.001zm23.288-5.813h2.738c-.347 6.867-6.48 15.23-6.48 15.23h7.935v-7.377h2.634v7.376h3.916v2.482H38.68V36h-2.633v-5.677H25.06V27.84s6.446-8.43 6.793-15.23v.002z" fill="#000"/></svg>