<svg width="31" height="48" viewBox="0 0 31 48" fill="none" xmlns="http://www.w3.org/2000/svg"><path d="M30.595 32.635c0 4.442-1.564 8.113-4.691 11.014C22.776 46.549 18.9 48 14.278 48c-.952 0-1.881-.068-2.788-.204-.906-.09-1.79-.272-2.651-.544a21.717 21.717 0 01-2.584-.952 11.893 11.893 0 01-2.312-1.36c-.906-.589-1.7-1.2-2.38-1.835A11.56 11.56 0 010 41.2l3.807-3.467a9.23 9.23 0 001.904 2.107c.77.635 1.654 1.201 2.652 1.7a10.92 10.92 0 002.855 1.088c.997.227 2.017.34 3.06.34 3.127 0 5.665-.975 7.614-2.924 1.995-1.949 2.992-4.419 2.992-7.41 0-2.992-.975-5.394-2.924-7.207-1.903-1.813-4.419-2.72-7.546-2.72-.544 0-1.088.046-1.632.136a6.016 6.016 0 00-1.564.34 8.313 8.313 0 00-1.7.68 5.653 5.653 0 00-1.155.748l-3.06-2.992c1.768-2.72 4.102-5.62 7.003-8.702 2.946-3.082 5.892-5.711 8.839-7.887H1.631V0h27.4v5.031c-3.219 2.176-6.12 4.374-8.703 6.595-2.539 2.221-4.737 4.465-6.595 6.73.453-.044.816-.067 1.088-.067.317-.045.589-.068.815-.068 4.352 0 7.932 1.314 10.743 3.943 2.81 2.63 4.215 6.12 4.215 10.47z" fill="#000"/></svg>