<svg width="48" height="48" viewBox="0 0 48 48" fill="none" xmlns="http://www.w3.org/2000/svg"><g clip-path="url(#clip0)"><path fill-rule="evenodd" clip-rule="evenodd" d="M12.864 36C8.059 36 6 32.685 6 32.685l1.83-1.69s1.7 2.552 5.034 2.552c3.137 0 5.098-2.221 5.098-5.038 0-3.018-2.157-4.84-5.034-4.84-1.895 0-2.908.927-2.908.927L8.55 23.139c1.307-2.022 4.216-5.536 7.616-8.088H6.784v-2.454h13.172v2.454c-3.791 2.586-6.014 4.84-7.354 6.497.294-.032.621-.066.916-.066 3.725 0 7.19 2.387 7.19 7.028 0 4.475-3.563 7.492-7.844 7.492V36zM32.7 14.453c-3.921 0-5.425 3.614-5.425 9.547 0 5.933 1.504 9.547 5.426 9.547s5.424-3.613 5.424-9.547c0-5.933-1.503-9.547-5.424-9.547zm0 21.547c-5.392 0-8.17-4.674-8.17-12s2.778-12 8.17-12c5.393 0 8.17 4.674 8.17 12s-2.777 12-8.17 12z" fill="#000"/></g><defs><clipPath id="clip0"><path fill="#fff" transform="translate(6 12)" d="M0 0h35v24H0z"/></clipPath></defs></svg>