<svg width="71" height="48" viewBox="0 0 71 48" fill="none" xmlns="http://www.w3.org/2000/svg"><path fill-rule="evenodd" clip-rule="evenodd" d="M13.923 48C4.177 48 0 41.37 0 41.37l3.713-3.381s3.447 5.105 10.21 5.105c6.364 0 10.342-4.442 10.342-10.077 0-6.034-4.375-9.68-10.21-9.68-3.845 0-5.9 1.856-5.9 1.856L5.17 22.276C7.823 18.232 13.724 11.204 20.62 6.1H1.59V1.193H28.31V6.1c-7.69 5.172-12.199 9.68-14.917 12.995.597-.066 1.26-.133 1.857-.133 7.558 0 14.585 4.774 14.585 14.056 0 8.95-7.226 14.983-15.911 14.983zM54.166 4.906C46.21 4.906 43.16 12.133 43.16 24s3.05 19.094 11.006 19.094S65.17 35.867 65.17 24 62.121 4.906 54.166 4.906zm0 43.094c-10.94 0-16.575-9.348-16.575-24S43.227 0 54.166 0 70.74 9.348 70.74 24s-5.635 24-16.574 24z" fill="#000"/></svg>