<svg width="48" height="48" viewBox="0 0 48 48" fill="none" xmlns="http://www.w3.org/2000/svg"><path d="M7.65 20.774c1.285-2.69 2.269-5.22 2.951-7.59.683-2.41 1.085-4.618 1.205-6.626h4.759c-.08 2.008-.462 4.217-1.145 6.626-.682 2.37-1.626 4.88-2.83 7.53a82.758 82.758 0 01-3.434 6.806A64.324 64.324 0 015.3 33.544h13.794V20.473h4.578v13.07h6.806v4.398h-6.806V48h-4.578V37.94H0v-4.396a65.114 65.114 0 003.976-6.024 89.006 89.006 0 003.674-6.746zM47.902 8.46v2.845h-8.46v8.46h-2.845v-8.46h-8.46V8.46h8.46V0h2.846v8.46h8.46z" fill="#000"/></svg>