<svg width="48" height="47" viewBox="0 0 48 47" fill="none" xmlns="http://www.w3.org/2000/svg"><path fill-rule="evenodd" clip-rule="evenodd" d="M34.5 43.5H45v-24H34.5v24zm-18 0v-3.75a.75.75 0 111.5 0v3.75h-1.5zM3 3h28.5v40.5H21v-3.75A3.754 3.754 0 0017.25 36a3.753 3.753 0 00-3.75 3.75v3.75H3V3zm43.5 13.5A1.5 1.5 0 0148 18v27a1.5 1.5 0 01-1.5 1.5h-45A1.5 1.5 0 010 45V1.5A1.5 1.5 0 011.5 0H33a1.5 1.5 0 011.5 1.5v15H39v-3a1.5 1.5 0 113 0v3h4.5zM8.565 6.435c-.075-.06-.15-.135-.225-.18a1.135 1.135 0 00-.27-.135 1.395 1.395 0 00-1.14 0c-.09.03-.18.075-.27.135-.075.045-.15.12-.225.18-.135.15-.24.315-.315.495-.075.18-.12.375-.12.57 0 .195.045.39.12.57.075.18.18.344.315.48.15.15.315.255.495.33.18.075.375.12.57.12.405 0 .78-.152 1.065-.45.135-.136.24-.3.315-.48.075-.18.12-.375.12-.57 0-.195-.045-.39-.12-.57a1.548 1.548 0 00-.315-.495zM13.5 9H15a1.5 1.5 0 000-3h-1.5a1.5 1.5 0 000 3zm6 0H21a1.5 1.5 0 000-3h-1.5a1.5 1.5 0 000 3zM6.435 12.435C6.165 12.719 6 13.11 6 13.5c0 .195.045.39.12.57.075.18.18.344.315.495.15.135.315.24.495.315.18.075.375.12.57.12.195 0 .39-.045.57-.12.18-.075.345-.18.495-.315A1.49 1.49 0 009 13.5c0-.39-.165-.781-.435-1.065-.555-.555-1.575-.555-2.13 0zM13.5 15H15a1.5 1.5 0 100-3h-1.5a1.5 1.5 0 100 3zm6 0H21a1.5 1.5 0 100-3h-1.5a1.5 1.5 0 100 3zM8.565 18.435c-.15-.135-.3-.24-.495-.315a1.487 1.487 0 00-1.14 0c-.195.075-.345.18-.495.315-.135.15-.24.315-.315.495a1.493 1.493 0 00.315 1.635c.285.284.66.435 1.065.435.195 0 .39-.032.57-.12.18-.075.345-.18.495-.315a1.49 1.49 0 00.315-1.635 1.732 1.732 0 00-.315-.495zM13.5 21H15a1.5 1.5 0 100-3h-1.5a1.5 1.5 0 100 3zm6 0H21a1.5 1.5 0 100-3h-1.5a1.5 1.5 0 100 3zM8.565 24.435c-.075-.06-.15-.135-.225-.18a1.137 1.137 0 00-.27-.135 1.01 1.01 0 00-.27-.091 1.531 1.531 0 00-1.365.406c-.135.15-.24.3-.315.495-.075.18-.12.375-.12.57 0 .195.045.39.12.57.075.18.18.343.315.495.15.135.315.24.495.315.18.075.375.12.57.12.195 0 .39-.045.57-.12.18-.075.345-.18.495-.315a1.49 1.49 0 00.315-1.635 1.732 1.732 0 00-.315-.495zM13.5 27H15a1.5 1.5 0 100-3h-1.5a1.5 1.5 0 100 3zm6 0H21a1.5 1.5 0 100-3h-1.5a1.5 1.5 0 100 3zm6.435-18.45c.15.15.315.255.495.33.18.075.375.12.57.12.405 0 .78-.15 1.065-.45.135-.135.24-.3.315-.48.075-.18.12-.375.12-.57 0-.195-.045-.39-.12-.57a1.548 1.548 0 00-.315-.495c-.075-.06-.15-.135-.225-.18a1.08 1.08 0 00-.27-.135 1.395 1.395 0 00-1.14 0 1.08 1.08 0 00-.27.135c-.075.045-.15.12-.225.18-.135.15-.24.315-.315.495-.075.18-.12.375-.12.57 0 .195.045.39.12.57.075.18.18.345.315.48zm.495 6.33a1.492 1.492 0 001.635-.315c.135-.151.24-.315.315-.495.09-.18.12-.375.12-.57 0-.39-.165-.78-.435-1.065-.15-.135-.3-.24-.495-.315a1.435 1.435 0 00-1.14 0c-.195.075-.345.18-.495.315A1.55 1.55 0 0025.5 13.5c0 .405.15.78.435 1.065.15.135.315.24.495.315zm0 6c.18.09.375.12.57.12.195 0 .39-.03.57-.12.18-.075.345-.18.495-.315a1.484 1.484 0 00.315-1.635 1.732 1.732 0 00-.315-.495c-.15-.135-.3-.24-.495-.315a1.5 1.5 0 00-1.14 0c-.195.075-.345.18-.495.315-.135.15-.24.315-.315.495a1.492 1.492 0 00.315 1.635c.15.135.315.24.495.315zm0 6a1.492 1.492 0 001.96-.804c.075-.183.112-.378.11-.576 0-.195-.03-.39-.12-.57a1.732 1.732 0 00-.315-.495 1.732 1.732 0 00-.495-.315 1.434 1.434 0 00-.87-.09.953.953 0 00-.27.09c-.09.03-.18.075-.27.135-.075.045-.15.12-.225.18-.135.15-.24.315-.315.495a1.492 1.492 0 00.315 1.635c.15.135.315.24.495.315zm-19.5 3.24c-.195.075-.345.18-.495.315C6.165 30.72 6 31.11 6 31.5c0 .195.045.39.12.57.075.18.18.345.315.495.15.135.315.24.495.315.18.09.375.12.57.12.195 0 .39-.03.57-.12.18-.075.345-.18.495-.315A1.49 1.49 0 009 31.5c0-.39-.165-.78-.435-1.065a1.499 1.499 0 00-1.635-.315zM13.5 33H15a1.5 1.5 0 100-3h-1.5a1.5 1.5 0 100 3zm6 0H21a1.5 1.5 0 100-3h-1.5a1.5 1.5 0 100 3zm6.435-.435c.15.135.315.24.495.315.18.09.375.12.57.12.195 0 .39-.03.57-.12.18-.075.345-.18.495-.315A1.485 1.485 0 0028.5 31.5c0-.39-.165-.78-.435-1.065-.555-.555-1.575-.555-2.13 0-.27.285-.435.675-.435 1.065 0 .195.045.39.12.57.075.18.18.343.315.495zM36.93 23.88c.18.075.375.12.57.12.195 0 .39-.045.57-.12.18-.075.345-.18.495-.315A1.485 1.485 0 0039 22.5c0-.39-.165-.78-.435-1.065a1.732 1.732 0 00-.495-.315 1.434 1.434 0 00-.87-.09.953.953 0 00-.27.09c-.09.03-.18.075-.27.135-.075.045-.15.12-.225.18-.27.285-.435.675-.435 1.065 0 .405.15.78.435 1.065.15.135.315.24.495.315zm-.495 5.685c.15.135.315.24.495.315.18.075.375.12.57.12.195 0 .39-.045.57-.12.18-.075.345-.18.495-.315a1.76 1.76 0 00.315-.495c.075-.18.12-.375.12-.57 0-.195-.045-.39-.12-.57a1.732 1.732 0 00-.315-.495c-.075-.06-.15-.135-.225-.18a1.137 1.137 0 00-.27-.135 1.509 1.509 0 00-1.635.315c-.135.15-.24.3-.315.495-.075.18-.12.375-.12.57 0 .195.045.39.12.57.075.18.18.343.315.495zm0 6c.15.135.315.24.495.315.18.075.375.12.57.12.195 0 .39-.045.57-.12.18-.075.345-.18.495-.315.135-.151.24-.315.315-.495.09-.18.12-.375.12-.57 0-.39-.165-.78-.435-1.065-.42-.405-1.08-.555-1.635-.315-.195.075-.345.18-.495.315-.27.285-.435.675-.435 1.065 0 .195.045.39.12.57.075.18.18.343.315.495zm4.5-12a1.49 1.49 0 001.635.315c.18-.075.345-.18.495-.315a1.76 1.76 0 00.315-.495c.075-.18.12-.375.12-.57 0-.195-.045-.39-.12-.57a1.548 1.548 0 00-.315-.495 1.51 1.51 0 00-1.635-.315c-.09.03-.18.075-.27.135-.075.045-.15.12-.225.18-.27.285-.435.675-.435 1.065 0 .195.045.39.12.57.075.18.18.343.315.495zm0 6a1.49 1.49 0 001.635.315c.18-.075.345-.18.495-.315a1.76 1.76 0 00.315-.495c.075-.18.12-.375.12-.57 0-.195-.045-.39-.12-.57a1.732 1.732 0 00-.315-.495c-.42-.42-1.095-.555-1.635-.315-.195.075-.345.18-.495.315-.135.15-.24.315-.315.495-.075.18-.12.375-.12.57 0 .195.045.39.12.57.075.18.18.343.315.495zm0 6c.15.135.315.24.495.315.18.075.375.12.57.12.195 0 .39-.045.57-.12.18-.075.345-.18.495-.315.135-.151.24-.315.315-.495.075-.18.12-.375.12-.57 0-.195-.045-.39-.12-.57a1.548 1.548 0 00-.315-.495c-.15-.135-.3-.24-.495-.315a1.5 1.5 0 00-1.14 0c-.18.075-.345.18-.495.315-.27.285-.435.675-.435 1.065 0 .195.045.39.12.57.075.18.18.343.315.495z" fill="#000"/></svg>