<svg width="48" height="37" viewBox="0 0 48 37" fill="none" xmlns="http://www.w3.org/2000/svg"><path fill-rule="evenodd" clip-rule="evenodd" d="M29.587 14.906l-3.393-11.31L40.97 7.289l3.2 6.4-14.581 1.216-.002.001zM40.5 26.001l-15 6.25v-20.53l1.563 5.212c.192.637.78 1.068 1.435 1.068.045 0 .084 0 .126-.005l11.876-.99v8.995zM7.498 17.006l11.877.99a1.5 1.5 0 001.562-1.064l1.562-5.21v20.53L7.5 26v-8.995zM7.033 7.29l14.773-3.693-3.393 11.31-14.58-1.216 3.199-6.401h.001zm40.81 7.041l-4.5-9a1.497 1.497 0 00-.978-.783L24.364.047c-.05-.012-.098-.01-.146-.018-.069-.01-.138-.026-.208-.027L24 0h-.01c-.07.003-.14.02-.208.029-.048.009-.098.006-.146.018l-18 4.5a1.497 1.497 0 00-.979.783l-4.5 9a1.503 1.503 0 001.216 2.167l3.125.259v10.246a1.5 1.5 0 00.924 1.384l17.99 7.496c.004 0 .005 0 .008.003h.003a1.479 1.479 0 001.155 0h.002l.007-.003 17.99-7.496a1.5 1.5 0 00.923-1.384V16.756l3.125-.26a1.503 1.503 0 001.218-2.166z" fill="#000"/></svg>