<svg width="48" height="41" viewBox="0 0 48 41" fill="none" xmlns="http://www.w3.org/2000/svg"><path fill-rule="evenodd" clip-rule="evenodd" d="M42 24c0-1.654 1.346-3 3-3v3h-3zM3 28.5h42V27H3v1.5zM3 33h42v-1.5H3V33zm42 4.5l-42 .094V36h42v1.5zM2.953 3L45 2.954V6c-1.654 0-3-1.346-3-3h-3c0 3.309 2.691 6 6 6v9c-3.309 0-6 2.691-6 6H9c0-3.309-2.691-6-6-6v3c1.654 0 3 1.346 3 3H2.997L2.954 3zm42.093-3A2.955 2.955 0 0148 2.954v34.64a2.91 2.91 0 01-2.906 2.906H2.907A2.91 2.91 0 010 37.594V2.954A2.955 2.955 0 012.954 0h42.093zM24 9c2.481 0 4.5 2.019 4.5 4.5S26.481 18 24 18a4.505 4.505 0 01-4.5-4.5c0-2.481 2.019-4.5 4.5-4.5zm0 12c4.136 0 7.5-3.364 7.5-7.5S28.136 6 24 6s-7.5 3.364-7.5 7.5S19.864 21 24 21zM9 3H6c0 1.654-1.346 3-3 3v3c3.309 0 6-2.691 6-6z" fill="#000"/></svg>