<svg width="48" height="21" viewBox="0 0 48 21" fill="none" xmlns="http://www.w3.org/2000/svg"><path d="M37.542 15.057a1.308 1.308 0 00-.547.097c-.175.071-.334.18-.469.318a1.495 1.495 0 00-.314.49 1.575 1.575 0 000 1.162c.073.184.18.35.314.489.135.139.294.247.468.318.175.072.361.105.548.097.36-.014.7-.176.95-.453s.39-.647.39-1.032-.14-.755-.39-1.032a1.35 1.35 0 00-.95-.454zm-24.087-.474h20.343a4.372 4.372 0 011.538-1.822 3.975 3.975 0 012.206-.676c1.643 0 3.064 1.021 3.744 2.502l1.122.006c.837.008 1.699.03 2.308-.127.264-.069.467-.39.467-.75v-.379c.004-.608.004-1.548 0-1.682.004-.861-.074-1.374-.15-1.582-.11-.142-1.115-1.066-2.1-1.145-.56-.043-2.432-.223-3.146-.691-.855-.567-1.307-1.076-1.708-1.526-.556-.632-1.084-1.228-3.194-2.251-5.54-2.691-11.994-1.145-14.088-.026l-.707.375h1.88c.368 0 .722.157.982.436.261.279.408.657.408 1.051 0 .394-.147.773-.408 1.051a1.34 1.34 0 01-.983.436h-7.351c-.11 0-.221-.015-.329-.044-1.146.328-3.146.768-5.959 1.379-2.03.44-3.95.857-4.85 1.11l-.116.1a1.38 1.38 0 00-.43.508 1.484 1.484 0 00-.155.665v2.118c0 .33.25.599.559.599h2.82c.39-.68.943-1.236 1.603-1.61a3.956 3.956 0 012.146-.513 3.988 3.988 0 012.092.727 4.38 4.38 0 011.456 1.763v-.002zm.316 2.973a4.512 4.512 0 01-1.47 2.477A4.009 4.009 0 019.71 21a4.019 4.019 0 01-2.724-1.086 4.556 4.556 0 01-1.4-2.725H3.338a3.236 3.236 0 01-2.36-1.047A3.703 3.703 0 010 13.62v-2.118c0-1.467.683-2.83 1.822-3.645l.194-.138c.242-.172.49-.29.759-.368.977-.272 2.932-.697 5.003-1.145 2.381-.517 5.642-1.224 6.305-1.5l5.472-2.929C22.819.03 30.09-1.132 36.032 1.753c2.606 1.263 3.382 2.14 4.067 2.912.349.395.6.68 1.144 1.04.187.056 1.383.218 1.895.26 2.11.167 4.104 1.95 4.495 3.054.223.63.332 1.502.328 2.6.047 1.315.067 2.085-.029 2.587-.185 1.516-1.21 2.8-2.57 3.15-.705.18-1.462.216-2.219.216-.258 0-.52-.004-.779-.008l-.764-.006a4.512 4.512 0 01-1.47 2.475 4.008 4.008 0 01-2.588.967 4.009 4.009 0 01-2.59-.967 4.512 4.512 0 01-1.47-2.477H13.771zm-4.06-2.5a1.352 1.352 0 00-.983.438c-.26.279-.406.657-.405 1.052 0 .394.147.772.408 1.05.261.279.615.435.984.434.368 0 .722-.157.982-.437.26-.279.406-.657.406-1.051a1.54 1.54 0 00-.409-1.051 1.346 1.346 0 00-.983-.434z" fill="#253238"/></svg>