<svg width="48" height="44" viewBox="0 0 48 44" fill="none" xmlns="http://www.w3.org/2000/svg"><path fill-rule="evenodd" clip-rule="evenodd" d="M45 40.596h-3V7.5A1.5 1.5 0 0040.5 6h-33A1.5 1.5 0 006 7.5v33.096H3V7.524A4.53 4.53 0 017.526 3h32.948A4.53 4.53 0 0145 7.524v33.072zm-12-18H9v-3h30v3h-6zm-4.5 4.5h-9a2.996 2.996 0 01-2.596-1.5h14.192a2.996 2.996 0 01-2.596 1.5zM9 10.596h30V9H9v1.596zm0 6h30v-3H9v3zM40.474 0H7.526A7.533 7.533 0 000 7.524v34.572a1.5 1.5 0 001.5 1.5h6a1.5 1.5 0 001.5-1.5v-16.5h4.713c.67 2.581 3 4.5 5.787 4.5h9c2.787 0 5.117-1.919 5.787-4.5H39v16.5a1.5 1.5 0 001.5 1.5h6a1.5 1.5 0 001.5-1.5V7.524A7.533 7.533 0 0040.474 0z" fill="#000"/></svg>