<svg width="48" height="48" viewBox="0 0 48 48" fill="none" xmlns="http://www.w3.org/2000/svg"><path fill-rule="evenodd" clip-rule="evenodd" d="M24 15.366c8.95 0 16.738-1.598 20.8-3.956v5.982c0 .187-.112.392-.112.608 0 1.144-2.309 2.997-7.387 4.362a1.6 1.6 0 00-1.128 1.961c.192.714.84 1.186 1.545 1.186.138 0 .268-.02.407-.056 2.851-.767 5.075-1.714 6.675-2.799v4.077c0 .187-.112.392-.112.607 0 1.142-2.306 2.995-7.38 4.36a1.602 1.602 0 00.42 3.146c.138 0 .267-.018.406-.057 2.847-.765 5.066-1.712 6.666-2.795v7.627c0 1.46-7.062 4.88-20.8 4.88S3.2 41.08 3.2 39.62v-7.627c1.6 1.083 3.818 2.03 6.666 2.795.137.039.272.056.41.056a1.6 1.6 0 00.411-3.146c-5.074-1.364-7.375-3.217-7.375-4.36 0-.214-.112-.419-.112-.606v-4.077c1.6 1.085 3.822 2.032 6.674 2.799.139.037.273.056.41.056.708 0 1.351-.472 1.543-1.186a1.603 1.603 0 00-1.131-1.961C5.616 20.997 3.312 19.144 3.312 18c0-.216-.112-.42-.112-.608V11.41c4.062 2.358 11.85 3.956 20.8 3.956zm0-3.2c-12.371 0-19.344-3.044-20.5-4.483C4.657 6.245 11.63 3.2 24 3.2s19.344 3.045 20.5 4.483c-1.156 1.439-8.129 4.483-20.5 4.483zM24 0C11.643 0 1.491 3.042.323 6.933.134 7.197 0 7.5 0 7.85v31.77c0 5.551 12.43 8.08 24 8.08s24-2.529 24-8.08V7.85c0-.35-.134-.653-.323-.917C46.509 3.042 36.357 0 24 0z" fill="#253238"/><path fill-rule="evenodd" clip-rule="evenodd" d="M24 34.25a2.67 2.67 0 01-2.667-2.668c0-.854 1.225-3.267 2.667-5.603 1.442 2.336 2.667 4.748 2.667 5.604A2.67 2.67 0 0124 34.25zm0-12.759c-.509 0-1.018.216-1.317.65-1.067 1.544-4.55 6.792-4.55 9.442A5.875 5.875 0 0024 37.45a5.875 5.875 0 005.867-5.867c0-2.65-3.483-7.898-4.55-9.442-.3-.434-.808-.65-1.317-.65zM15.5 5.943c-2.486 0-4.5.896-4.5 2s2.014 2 4.5 2 4.5-.896 4.5-2-2.014-2-4.5-2z" fill="#253238"/></svg>