<svg width="37" height="48" viewBox="0 0 37 48" fill="none" xmlns="http://www.w3.org/2000/svg"><path fill-rule="evenodd" clip-rule="evenodd" d="M22.503 4.348h.006-.006zm.38.022c-.219.115-.747.576-1.342 1.745-1.536 3.008-11.066 9.38-13.95 11.262-1.135.74-2.516 3.763-3.043 8.848-.6 5.776.3 10.595 1.212 11.507 3.752 3.752 12.973 5.508 20.35 5.9 1.264.092 2.31-1.203 3.009-2.279 3.303-5.091 4.572-16.269 2.343-20.62-.567-1.104-1.05-1.13-1.209-1.137l-8.147.035a2.08 2.08 0 01-.42 0l-2.19.01h-.008a2.18 2.18 0 11-.009-4.362l1.379-.007c.997-1.337 2.993-4.544 2.993-8.719 0-1.498-.386-1.957-.504-2.061a.808.808 0 00-.257-.138 2.343 2.343 0 01-.208.018V4.37zm3.328 43.628c-.113 0-.222-.002-.33-.007-5.09-.27-17.542-1.514-23.205-7.177-2.882-2.881-2.908-10.808-2.47-15.04.367-3.521 1.504-9.769 5-12.05 6.68-4.357 11.828-8.48 12.45-9.599C19.54.44 21.798.007 22.76.007h.011a4.852 4.852 0 013.466 1.217c1.314 1.163 1.977 2.954 1.977 5.33 0 3.566-1.078 6.55-2.206 8.699l4.341-.018c2.158.103 3.89 1.346 4.996 3.508 2.923 5.709 1.605 18.553-2.566 24.984C30.522 47.208 28.017 48 26.211 48v-.002z" fill="#000"/></svg>