<svg width="48" height="48" viewBox="0 0 48 48" fill="none" xmlns="http://www.w3.org/2000/svg"><path fill-rule="evenodd" clip-rule="evenodd" d="M24 0a1.714 1.714 0 011.714 1.714V15.43a1.714 1.714 0 01-3.428 0V1.714A1.714 1.714 0 0124 0zm11.124 14.592a1.712 1.712 0 01-1.212-2.926l4.635-4.636a1.714 1.714 0 012.424 2.424l-4.635 4.636a1.71 1.71 0 01-1.212.502zm11.162 7.694a1.714 1.714 0 110 3.428H32.57a1.714 1.714 0 010-3.428h13.715zm-9.95 11.624l4.635 4.636a1.715 1.715 0 01-2.424 2.424l-4.635-4.636a1.714 1.714 0 012.424-2.424zM24 30.857a1.715 1.715 0 011.714 1.714v13.715a1.714 1.714 0 11-3.428 0V32.57A1.714 1.714 0 0124 30.857zM11.666 33.91a1.715 1.715 0 012.424 2.424L9.454 40.97a1.708 1.708 0 01-2.424 0 1.712 1.712 0 010-2.424l4.636-4.636zm3.763-11.624a1.714 1.714 0 010 3.428H1.714a1.714 1.714 0 110-3.428H15.43zm-3.763-8.196L7.03 9.454A1.714 1.714 0 119.454 7.03l4.636 4.636a1.715 1.715 0 01-2.424 2.424z" fill="#000"/></svg>