<svg width="48" height="48" viewBox="0 0 48 48" fill="none" xmlns="http://www.w3.org/2000/svg"><path fill-rule="evenodd" clip-rule="evenodd" d="M33 45h12V25.5H33V45zM6 27h24v-1.5H6V27zm6-12h18V3H12v12zM4.535 45c.083.002.167.012.248.03a.905.905 0 01.285.09c.09.03.18.075.27.135.075.045.15.12.226.18.135.15.24.3.314.495.075.18.12.375.12.57 0 .195-.045.39-.12.57a1.75 1.75 0 01-.314.495 1.49 1.49 0 01-1.635.315 1.548 1.548 0 01-.495-.315 1.732 1.732 0 01-.316-.495A1.257 1.257 0 013 46.5c0-.195.03-.39.12-.57.075-.195.18-.345.315-.495.15-.135.3-.24.495-.315.17-.075.352-.116.537-.12A1.5 1.5 0 013 43.5v-18H1.5a1.5 1.5 0 110-3H15a1.5 1.5 0 011.5-1.5h3v-3h-9A1.5 1.5 0 019 16.5v-15A1.5 1.5 0 0110.5 0h21A1.5 1.5 0 0133 1.5v15a1.5 1.5 0 01-1.5 1.5h-9v3h3a1.5 1.5 0 011.5 1.5h9a1.5 1.5 0 011.5-1.5H39a1.5 1.5 0 011.5 1.5h6A1.5 1.5 0 0148 24v22.5a1.5 1.5 0 01-1.5 1.5h-15a1.5 1.5 0 01-1.5-1.5V30H6v13.5A1.5 1.5 0 014.535 45zM36 30h6a1.5 1.5 0 100-3h-6a1.5 1.5 0 100 3zm0 6h6a1.5 1.5 0 100-3h-6a1.5 1.5 0 100 3zm0 6h6a1.5 1.5 0 100-3h-6a1.5 1.5 0 100 3z" fill="#000"/></svg>