<svg width="48" height="43" viewBox="0 0 48 43" fill="none" xmlns="http://www.w3.org/2000/svg"><path fill-rule="evenodd" clip-rule="evenodd" d="M22.5 35.703v-5.39L45 17.694v5.39L22.5 35.706v-.002zM3 27.54v-5.157l16.5 7.602v5.529L3 27.909v-.369zm17.302-15.196c.047.024.082.066.131.085L36.535 19l-15.202 8.53-16.365-7.543 15.334-7.643zm8.178-5.708c.002-.033.02-.06.02-.095V3.679L45 10.001v2.963L28.48 6.636zm-1.794 2.525l5.58 2.137-2.441 1.37c-.111.063-.191.155-.281.24l-5.704-2.329 2.846-1.418zm13.194 7.964l-6.873-2.805 2.901-1.627 7.056 2.703-3.084 1.73zm8.063-7.868a1.48 1.48 0 00-.907-1.688l-19.5-7.47a1.5 1.5 0 00-1.937.864 1.47 1.47 0 00-.047.815c-.016.09-.052.169-.052.264V6.4L.831 18.7a1.46 1.46 0 00-.369.265c-.027.024-.045.055-.068.082a1.379 1.379 0 00-.29.48c-.058.152-.09.311-.095.473-.002.015-.009.025-.009.04v13.5a1.5 1.5 0 003 0v-2.324l16.5 7.6v2.224a1.5 1.5 0 103 0v-1.897L45 26.523v2.52a1.5 1.5 0 103 0v-19.5c0-.103-.038-.19-.057-.285v-.001z" fill="#000"/></svg>