<svg width="48" height="44" viewBox="0 0 48 44" fill="none" xmlns="http://www.w3.org/2000/svg"><path fill-rule="evenodd" clip-rule="evenodd" d="M22.185 39.933l-2.285.019-.019-8.221L21 31.723c.018 0 .029.008.043.008.016 0 .03-.008.046-.008l1.096-.009v8.22zM35.497 8.555a1.8 1.8 0 01-1.799 1.799H8.386a1.8 1.8 0 01-1.799-1.797v-3.13A1.8 1.8 0 018.386 3.63h25.312a1.8 1.8 0 011.8 1.797v3.128zm9.058-2.64h-5.428v-.488A5.434 5.434 0 0033.698 0H8.386C5.571 0 3.276 2.162 3.01 4.908a1.79 1.79 0 00-1.195-.472A1.815 1.815 0 000 6.251v1.48a1.815 1.815 0 001.815 1.815 1.79 1.79 0 001.195-.472c.266 2.748 2.56 4.91 5.376 4.91h25.312a5.433 5.433 0 005.33-4.438h5.342v5.621L21.884 20.46a3.43 3.43 0 00-2.656 3.354v4.356a3.612 3.612 0 00-2.959 3.545v8.238a3.617 3.617 0 003.612 3.612h2.324a3.616 3.616 0 003.61-3.612v-8.238a3.612 3.612 0 00-2.957-3.546V23.96l22.488-5.29A3.435 3.435 0 0048 15.317V9.363a3.45 3.45 0 00-3.445-3.446v-.001z" fill="#000"/></svg>