<svg width="63" height="62" fill="none" xmlns="http://www.w3.org/2000/svg"><path fill-rule="evenodd" clip-rule="evenodd" d="M31.5 61c-16.569 0-30-13.431-30-30 0-16.569 13.431-30 30-30 16.569 0 30 13.431 30 30 0 16.569-13.431 30-30 30ZM14.522 28.33C14.39 20.436 14.316 15.98 31.5 15.98s17.11 4.456 16.978 12.348c-.012.717-.024 1.461-.024 2.233 0 .448.002.888.004 1.32.043 8.537.07 14.1-16.958 14.1s-17-5.563-16.958-14.1c.002-.432.004-.872.004-1.32 0-.772-.012-1.516-.024-2.233Z" fill="#C1F5E6"/><path d="m14.522 28.33 1-.017-1 .016Zm33.956 0 1 .016-1-.017Zm-.02 3.553 1-.005-1 .005Zm-33.916 0 1 .005-1-.005ZM.5 31c0 17.12 13.88 31 31 31v-2c-16.016 0-29-12.984-29-29h-2Zm31-31C14.38 0 .5 13.88.5 31h2c0-16.016 12.984-29 29-29V0Zm31 31c0-17.12-13.88-31-31-31v2c16.016 0 29 12.984 29 29h2Zm-31 31c17.12 0 31-13.88 31-31h-2c0 16.016-12.984 29-29 29v2Zm0-47.019c-4.329 0-7.63.28-10.14.844-2.511.565-4.31 1.43-5.547 2.662-1.253 1.245-1.833 2.764-2.098 4.426-.26 1.632-.226 3.486-.193 5.433l2-.033c-.034-1.999-.058-3.662.168-5.085.222-1.393.672-2.468 1.533-3.323.875-.87 2.272-1.61 4.576-2.128s5.438-.796 9.701-.796v-2Zm17.978 13.365c.033-1.947.066-3.801-.193-5.433-.265-1.662-.845-3.181-2.098-4.426-1.238-1.231-3.036-2.097-5.547-2.662-2.51-.564-5.811-.844-10.14-.844v2c4.263 0 7.397.278 9.702.796 2.303.517 3.7 1.258 4.575 2.128.86.855 1.311 1.93 1.533 3.323.226 1.423.202 3.086.168 5.085l2 .033Zm-.024 2.216c0-.762.012-1.499.024-2.216l-2-.033c-.011.715-.024 1.468-.024 2.25h2Zm.004 1.316c-.002-.433-.004-.871-.004-1.316h-2c0 .45.002.894.004 1.326l2-.01ZM31.5 46.981c8.526 0 13.205-1.369 15.638-4.195 1.224-1.42 1.798-3.118 2.072-4.95.271-1.814.259-3.845.248-5.958l-2 .01c.011 2.155.018 4.02-.226 5.651-.24 1.611-.716 2.905-1.61 3.942-1.798 2.089-5.62 3.5-14.122 3.5v2ZM13.542 31.878c-.01 2.113-.023 4.144.248 5.957.274 1.833.848 3.53 2.072 4.951 2.433 2.826 7.112 4.195 15.638 4.195v-2c-8.503 0-12.324-1.411-14.123-3.5-.893-1.037-1.368-2.33-1.609-3.942-.244-1.63-.237-3.496-.226-5.651l-2-.01Zm.004-1.316c0 .445-.002.883-.004 1.316l2 .01c.002-.432.004-.875.004-1.326h-2Zm-.024-2.216c.012.717.024 1.454.024 2.216h2c0-.781-.013-1.534-.024-2.25l-2 .034Z" fill="#13C1AC"/><path fill-rule="evenodd" clip-rule="evenodd" d="M25.846 31.717c-2.844-2.31-5.82-5.233-7.098-6.519a1.065 1.065 0 0 1-.002-1.498 1.046 1.046 0 0 1 1.487-.001c4.36 4.382 9.875 9.088 11.135 9.109 1.26-.033 6.605-4.825 10.806-9.28a1.046 1.046 0 0 1 1.487-.037c.42.403.438 1.073.038 1.497-1.245 1.32-4.155 4.334-6.944 6.698l5.605 6.653a1.065 1.065 0 0 1-.121 1.493 1.042 1.042 0 0 1-1.482-.122l-5.646-6.7c-1.509 1.137-2.864 1.917-3.743 1.917-.886 0-2.285-.783-3.85-1.92l-5.723 6.657a1.046 1.046 0 0 1-1.483.108 1.065 1.065 0 0 1-.106-1.495l5.64-6.56Z" fill="#26C0AC"/></svg>