<svg width="63" height="62" fill="none" xmlns="http://www.w3.org/2000/svg"><path fill-rule="evenodd" clip-rule="evenodd" d="M31.5 61c-16.569 0-30-13.431-30-30 0-16.569 13.431-30 30-30 16.569 0 30 13.431 30 30 0 16.569-13.431 30-30 30Zm5.667-36.526c0-1.547 1.01-4.707 2.896-7.464 1.887-2.757 10.037 0 7.68 9.885-.893 3.739-2.897 7.734-9.835 13.786-6.938 6.052-13.472 6.858-17.513 6.119-4.042-.74-7.005-6.994-4.513-8.406 2.492-1.412 5.388-2.77 7.207-3.334 1.819-.566 4.176 3.94 4.176 3.94s2.205.537 7.056-3.363c4.85-3.9 5.339-7.397 5.339-7.397s-2.493-2.219-2.493-3.766Z" fill="#C1F5E6"/><path d="m47.743 26.895.972.232-.972-.232Zm-9.835 13.786-.657-.754.657.754ZM20.395 46.8l-.18.984.18-.984Zm2.694-11.74.297.954-.297-.954ZM27.265 39l-.236.971-.44-.107-.21-.4.886-.464Zm7.056-3.363.626.779-.627-.78Zm5.339-7.397.665-.747.4.356-.075.53-.99-.139ZM2.5 31c0 16.016 12.984 29 29 29v2C14.38 62 .5 48.12.5 31h2Zm29-29c-16.016 0-29 12.984-29 29h-2c0-17.12 13.88-31 31-31v2Zm29 29c0-16.016-12.984-29-29-29V0c17.12 0 31 13.88 31 31h-2Zm-29 29c16.016 0 29-12.984 29-29h2c0 17.12-13.88 31-31 31v-2Zm9.389-42.425a18.417 18.417 0 0 0-2.042 3.966c-.47 1.28-.68 2.329-.68 2.933h-2c0-.942.296-2.246.802-3.623a20.42 20.42 0 0 1 2.27-4.406l1.65 1.13Zm5.88 9.088c1.11-4.647-.283-7.38-1.899-8.67-.834-.666-1.749-.973-2.505-.992-.769-.02-1.253.248-1.476.574l-1.65-1.13c.72-1.052 1.961-1.474 3.177-1.443 1.229.03 2.558.514 3.702 1.428 2.342 1.87 3.846 5.46 2.597 10.697l-1.945-.464Zm-9.518 13.264c6.83-5.958 8.688-9.783 9.519-13.264l1.945.464c-.953 3.997-3.104 8.161-10.15 14.307l-1.314-1.507Zm-16.676 5.89c3.724.68 9.953-.026 16.676-5.89l1.314 1.507c-7.153 6.24-13.991 7.147-18.35 6.35l.36-1.968Zm-4.2-6.553c-.213.12-.401.373-.408.947-.007.586.193 1.362.612 2.184.854 1.674 2.392 3.128 3.996 3.421l-.36 1.968c-2.439-.447-4.402-2.49-5.418-4.48-.515-1.011-.842-2.11-.83-3.117.012-1.02.388-2.078 1.422-2.663l.986 1.74Zm7.011-3.25c-1.721.535-4.547 1.854-7.011 3.25l-.986-1.74c2.52-1.428 5.487-2.824 7.403-3.42l.594 1.91ZM27.266 39c-.887.463-.886.463-.886.464l-.001-.002-.004-.006-.017-.032c-.015-.03-.04-.074-.071-.13a16.267 16.267 0 0 0-1.219-1.865c-.384-.497-.78-.92-1.143-1.18-.386-.278-.535-.236-.539-.235l-.594-1.91c.905-.28 1.733.112 2.3.52.592.426 1.126 1.023 1.558 1.581a18.083 18.083 0 0 1 1.469 2.27l.023.043.006.012.002.004.001.001-.886.465Zm7.681-2.584c-2.497 2.008-4.372 2.922-5.681 3.321-.656.2-1.168.27-1.543.285a3.291 3.291 0 0 1-.601-.032 1.8 1.8 0 0 1-.054-.01l-.021-.005-.01-.002h-.004l-.002-.001c-.001 0-.002 0 .234-.972.237-.972.236-.972.235-.972l-.002-.001h-.004a.33.33 0 0 0-.007-.002l-.012-.003a.707.707 0 0 0-.014-.003l.01.001c.023.002.082.007.177.003.19-.007.532-.046 1.034-.199 1.007-.307 2.659-1.075 5.012-2.966l1.253 1.558Zm4.713-8.176a79.938 79.938 0 0 1 .99.141v.003l-.002.007-.002.017a2.335 2.335 0 0 1-.04.206c-.03.13-.075.31-.144.532-.14.445-.376 1.063-.772 1.802-.792 1.48-2.214 3.434-4.743 5.468l-1.253-1.558c2.32-1.867 3.568-3.612 4.233-4.854a8.506 8.506 0 0 0 .626-1.455 4.557 4.557 0 0 0 .116-.445c0-.007.002-.01.002-.011v.002l-.001.003v.002c0 .001 0 .002.99.14Zm-1.493-3.766c0 .141.066.394.266.76a7 7 0 0 0 .749 1.063 12.712 12.712 0 0 0 1.123 1.179l.017.015a.052.052 0 0 1 .003.003l-.665.746-.666.747v-.001a.04.04 0 0 1-.003-.002l-.008-.007a5.05 5.05 0 0 1-.113-.105 14.73 14.73 0 0 1-1.225-1.295 8.955 8.955 0 0 1-.965-1.38c-.266-.486-.513-1.09-.513-1.723h2Z" fill="#13C1AC"/></svg>