<svg xmlns="http://www.w3.org/2000/svg" width="48" height="48" viewBox="0 0 48 48">
    <g fill="none" fill-rule="evenodd">
        <path fill="#FFF" fill-opacity="0" fill-rule="nonzero" d="M0 0h48v48H0z"/>
        <path fill="#90A4AE" d="M10.702 36l4.093-7.347c1.024 2.912 4.696 5.014 9.205 5.014 4.485 0 8.142-2.08 9.189-4.967L37.29 36H10.7zm13.294-23.655l5.05 8.985c-1.454-.63-3.176-.997-5.046-.997-1.9 0-3.646.378-5.115 1.026l5.11-9.014zM24 22.333c4.066 0 7.5 2.138 7.5 4.667s-3.434 4.667-7.5 4.667c-4.065 0-7.5-2.138-7.5-4.667s3.435-4.667 7.5-4.667zm.872-12.667l15 26.767c.174.309.17.726-.008 1.033-.18.307-.51.534-.864.534H9a1 1 0 0 1-.873-1.487l7.5-13.463L23.13 9.662c.178-.313.51-.662.87-.662h.002c.36 0 .693.351.87.666zM24 25c1.103 0 2 .897 2 2s-.897 2-2 2-2-.897-2-2 .897-2 2-2zm0 6c2.206 0 4-1.794 4-4s-1.794-4-4-4-4 1.794-4 4 1.794 4 4 4zm9-16a.999.999 0 0 1-.707-1.707l3-3a.999.999 0 1 1 1.414 1.414l-3 3A.997.997 0 0 1 33 15zm1.01 5c0-.547.444-1 .99-1h4c.548 0 .99.453.99 1 0 .547-.442 1-.99 1h-4a.998.998 0 0 1-.99-1zm-19.717-5.293l-3-3a.999.999 0 1 1 1.414-1.414l3 3a.999.999 0 1 1-1.414 1.414zM9 21a1 1 0 0 1 0-2h4a1 1 0 0 1 0 2H9z"/>
    </g>
</svg>
