<svg xmlns="http://www.w3.org/2000/svg" width="48" height="48" viewBox="0 0 48 48">
    <g fill="none" fill-rule="evenodd">
        <path fill="none" d="M0 0h48v48H0z"/>
        <path fill="#90A4AE" d="M38 27.016c0 3.3-2.686 5.984-5.985 5.984H18.981c-2.788 0-5.245-1.976-5.84-4.699-.15-.681-.645-1.263-1.326-1.554-1.359-.582-2.072-2.01-1.735-3.473a2.978 2.978 0 0 1 2.929-2.276c1.263 0 2.223.782 2.664 1.676.403.818 1.198 1.326 2.075 1.326h18.267C37.11 24 38 24.891 38 25.985v1.031zM31.999 38a1.001 1.001 0 0 1 0-2 1.001 1.001 0 0 1 0 2zm-13.002 0a1.001 1.001 0 0 1 0-2 1.001 1.001 0 0 1 0 2zm8.001-28c1.663 0 3.235.382 4.649 1.045l-5.649 8.609V11c0-.551.45-1 1-1zm9.776 5.975l-8.9 4.464 5.502-8.385a11.083 11.083 0 0 1 3.398 3.921zM38 21c0 .552-.45 1-1 1h-7.777l8.308-4.167C37.833 18.837 38 19.899 38 21zm2 0c0 .918-.423 1.731-1.075 2.282A3.96 3.96 0 0 1 40 25.985v1.031c0 3.73-2.574 6.861-6.038 7.734A2.982 2.982 0 0 1 35 37c0 1.655-1.346 3-3 3s-3-1.345-3-3c0-.771.3-1.468.78-2h-8.561c.479.532.78 1.229.78 2 0 1.655-1.346 3-3 3-1.655 0-3.001-1.345-3.001-3a2.98 2.98 0 0 1 1.035-2.248c-2.868-.734-5.194-3.042-5.846-6.024-.009-.04-.067-.103-.158-.142-2.228-.955-3.446-3.377-2.897-5.76a4.95 4.95 0 0 1 3.684-3.689c2.292-.531 4.62.56 5.652 2.652.051.102.151.211.281.211h6.25V11c0-1.654 1.346-3 3-3C34.168 8 40 13.832 40 21zm-27.714 2.29c-.18.19-.29.45-.29.71 0 .27.11.52.29.71.19.18.45.29.71.29.26 0 .52-.11.71-.29.18-.19.29-.44.29-.71 0-.26-.11-.52-.29-.71-.37-.37-1.05-.37-1.42 0z"/>
    </g>
</svg>
