<svg xmlns="http://www.w3.org/2000/svg" width="48" height="48" viewBox="0 0 48 48">
    <g fill="none" fill-rule="evenodd">
        <path fill="#FFF" fill-opacity="0" fill-rule="nonzero" d="M0 0h48v48H0z"/>
        <path fill="#90A4AE" d="M10.004 23.847c1.115.362 2.26.55 3.4.55 2.55 0 5.055-.888 7.06-2.559L22.627 24l-7.088 7.088a1.003 1.003 0 0 0 1.417 1.418l7.089-7.088 2.163 2.162a11.027 11.027 0 0 0-2.031 10.414c-.06.001-.117.01-.177.01-3.74 0-7.255-1.458-9.9-4.103a13.91 13.91 0 0 1-4.102-9.9c0-.053.006-.103.007-.154zm3.44-9.028l5.586 5.585a9.01 9.01 0 0 1-8.845 1.388 13.859 13.859 0 0 1 3.26-6.973zm1.42-1.415a13.857 13.857 0 0 1 6.98-3.226 9.012 9.012 0 0 1-1.396 8.808l-5.584-5.582zm19.038.694a13.915 13.915 0 0 1 4.1 9.902c0 .04-.004.078-.005.118a11.03 11.03 0 0 0-10.373 2.044L25.462 24l7.088-7.088a1.003 1.003 0 0 0-1.417-1.418l-7.09 7.089-2.162-2.163A11.024 11.024 0 0 0 23.91 10c.03 0 .06-.004.09-.004 3.74 0 7.257 1.457 9.903 4.101zm.694 19.036l-5.538-5.538a9.015 9.015 0 0 1 8.76-1.412 13.853 13.853 0 0 1-3.222 6.95zm-6.956-4.12l5.54 5.54a13.856 13.856 0 0 1-6.941 3.256 9.01 9.01 0 0 1 1.401-8.797zm7.68 6.305c6.24-6.241 6.24-16.397 0-22.638-6.242-6.241-16.399-6.241-22.64 0-6.24 6.241-6.24 16.397 0 22.638A15.954 15.954 0 0 0 24 40c4.1 0 8.198-1.56 11.32-4.681z"/>
    </g>
</svg>
