<svg xmlns="http://www.w3.org/2000/svg" width="48" height="48" viewBox="0 0 48 48">
    <g fill="none" fill-rule="evenodd">
        <path fill="#FFF" fill-opacity="0" fill-rule="nonzero" d="M0 0h48v48H0z"/>
        <path fill="#90A4AE" d="M38 37h-8v-5h8v5zm-18-5h8v5h-8v-5zm-10 0h8v5h-8v-5zm5-7h8v5h-8v-5zm2.4-2.2l2.6-3.467V23h-2.823c.081-.059.162-.118.223-.2zm-5-5l4.8-6.4 4 3-4.8 6.4-4-3zM30 23h-8v-5h8v5zm3 7h-8v-5h8v5zm2 0v-6a1 1 0 0 0-1-1h-2v-6a1 1 0 0 0-1-1h-8.5l.9-1.2a1 1 0 0 0-.2-1.4l-5.6-4.2a.996.996 0 0 0-1.4.2l-6 8a1 1 0 0 0 .2 1.4L16 23h-2a1 1 0 0 0-1 1v6H9a1 1 0 0 0-1 1v7a1 1 0 0 0 1 1h30a1 1 0 0 0 1-1v-7a1 1 0 0 0-1-1h-4z"/>
    </g>
</svg>
