<svg xmlns="http://www.w3.org/2000/svg" width="48" height="48" viewBox="0 0 48 48">
    <g fill="none" fill-rule="evenodd">
        <path fill="#FFF" fill-opacity="0" fill-rule="nonzero" d="M0 0h48v48H0z"/>
        <path fill="#90A4AE" d="M36.99 36c.548 0 1.01-.453 1.01-.99v-1.899a3.095 3.095 0 0 1-.707.196c-.852.116-1.961.241-3.362.353.04.107.069.219.069.34v1.01c0 .546.444.99.99.99h2zm-26.011-4.675c2.246.308 6.328.675 13.02.675 6.694 0 10.777-.367 13.023-.675.557-.076.978-.563.978-1.133v-2.889c-2.478.332-6.886.719-14 .719-7.113 0-11.522-.387-14-.719v2.889c0 .57.42 1.057.979 1.133zM13.999 34c0-.121.03-.233.07-.34-1.4-.112-2.51-.237-3.362-.353a3.109 3.109 0 0 1-.707-.196v1.899c0 .546.444.99.99.99h2c.548 0 1.01-.453 1.01-.99V34zm1.353-20.883l-1.972 4.694.032-.008c.338-.11.79-.296 1.337-.518C16.848 16.43 20.36 15 23.999 15c3.64 0 7.154 1.43 9.252 2.285.528.215.965.393 1.299.504l-1.88-4.611C32.01 11.206 30.037 11 29.218 11H18.784c-.82 0-2.795.206-3.432 2.117zm18.72 10.58c-.124.01-2.94.244-3.061 2.178 3.157-.144 5.379-.369 6.854-.572.046-.006.089.009.135.009v-2.01a66.697 66.697 0 0 1-3.927.395zM18.998 25.95c1.49.045 3.15.072 5.003.072 1.852 0 3.512-.027 5.004-.072.035-3.096 3.232-4.134 4.929-4.248a64.296 64.296 0 0 0 3.932-.399c.046-.007.089.009.135.009v-.25c0-.585-.476-1.062-1.062-1.062h-1.09a6.088 6.088 0 0 1-1.876-.294 25.107 25.107 0 0 1-1.475-.569C30.407 18.286 27.247 17 24 17c-3.248 0-6.406 1.286-8.496 2.137-.601.245-1.102.447-1.475.569A6.095 6.095 0 0 1 12.15 20h-1.088c-.586 0-1.063.477-1.063 1.062v.25c.046 0 .089-.016.136-.009 1.135.156 2.46.29 3.938.4 1.69.113 4.888 1.151 4.923 4.247zM10 23.302v2.01c.046 0 .089-.015.136-.009 1.475.203 3.696.428 6.853.572-.124-1.952-3.025-2.175-3.055-2.178A66.459 66.459 0 0 1 10 23.302zm28.157-5.045A3.064 3.064 0 0 1 40 21.062v9.13c0 .189-.018.374-.051.555.022.082.051.163.051.253v4.01c0 1.649-1.35 2.99-3.01 2.99h-2A2.994 2.994 0 0 1 32 35.01V34c0-.075.027-.141.043-.211A139.21 139.21 0 0 1 24 34c-3.257 0-5.906-.087-8.043-.211.016.07.043.136.043.211v1.01c0 1.649-1.35 2.99-3.01 2.99h-2A2.994 2.994 0 0 1 8 35.01V31c0-.09.029-.171.052-.253A3.089 3.089 0 0 1 8 30.192v-9.13c0-1.254.76-2.333 1.843-2.805l-1.55-1.55a1 1 0 0 1 1.414-1.414l1.804 1.803 1.97-4.683C14.172 10.335 16.214 9 18.785 9h10.433c2.57 0 4.612 1.335 5.329 3.484l1.9 4.657 1.847-1.848a.999.999 0 1 1 1.414 1.414l-1.55 1.55zM27 29a1.005 1.005 0 0 1 .011 2.008c-.644.007-2.316.014-3.011.014-.695 0-2.367-.004-3.011-.011A1.005 1.005 0 0 1 21 29h.011c.638 0 2.299.011 2.989.011S26.351 29 26.989 29H27zm-1-5a1 1 0 0 1-1 1h-2a1 1 0 0 1 0-2h2a1 1 0 0 1 1 1z"/>
    </g>
</svg>
