<svg xmlns="http://www.w3.org/2000/svg" width="48" height="48" viewBox="0 0 48 48">
    <g fill="none" fill-rule="evenodd">
        <path fill="#FFF" fill-opacity="0" fill-rule="nonzero" d="M0 0h48v48H0z"/>
        <path fill="#90A4AE" d="M23.988 18.992a2 2 0 0 1 1.998 1.999 2 2 0 0 1-1.998 1.998 2 2 0 0 1-1.999-1.998 2 2 0 0 1 1.999-1.999M37 17.991c.001.472-.222.906-.61 1.191a.992.992 0 0 0-.414.81c0 .322.15.617.412.809a1.46 1.46 0 0 1 .002 2.378.992.992 0 0 0-.414.81c0 .322.15.617.412.809a1.46 1.46 0 0 1 .002 2.378.992.992 0 0 0-.414.81c0 .322.15.617.412.81a1.46 1.46 0 0 1 .002 2.377.992.992 0 0 0-.414.81c0 .323.15.617.412.81a1.46 1.46 0 0 1 .002 2.377 1 1 0 0 0 .585 1.809v2.998H32.979a1 1 0 0 0-1.806-.59 1.465 1.465 0 0 1-2.382.001c-.383-.522-1.233-.521-1.615 0-.57.778-1.812.777-2.381 0-.383-.522-1.233-.521-1.615 0-.57.778-1.812.777-2.381 0-.383-.522-1.233-.521-1.615 0-.57.778-1.812.777-2.382 0a1 1 0 0 0-1.806.589H11v-2.998a1 1 0 0 0 .606-1.794 1.502 1.502 0 0 1-.589-1.204c0-.477.214-.916.588-1.203a.994.994 0 0 0 .394-.795.993.993 0 0 0-.393-.795 1.502 1.502 0 0 1-.589-1.204c0-.477.214-.916.588-1.203a.994.994 0 0 0 .394-.795.993.993 0 0 0-.393-.795 1.502 1.502 0 0 1-.589-1.204c0-.478.214-.916.588-1.203a.994.994 0 0 0 .394-.795.993.993 0 0 0-.393-.795 1.502 1.502 0 0 1-.589-1.204c0-.478.214-.916.588-1.203A.994.994 0 0 0 12 19.99a.993.993 0 0 0-.393-.794 1.502 1.502 0 0 1-.589-1.204c0-.478.214-.917.588-1.203a.994.994 0 0 0 .394-.796.993.993 0 0 0-.393-.794 1.502 1.502 0 0 1-.589-1.204c0-.478.214-.917.588-1.203A1 1 0 0 0 11 10.998V8H14.996a1 1 0 0 0 1.806.59c.546-.746 1.836-.748 2.383.002.38.516 1.23.518 1.614-.002.545-.746 1.835-.748 2.382.002.38.516 1.231.518 1.614-.002.545-.746 1.835-.748 2.382.002.38.516 1.231.518 1.614-.002.545-.746 1.835-.748 2.383.002A1 1 0 0 0 32.979 8h3.996v2.998a1 1 0 0 0-.587 1.809 1.46 1.46 0 0 1 .002 2.378.992.992 0 0 0-.414.81c0 .322.15.617.412.809.388.282.611.715.612 1.187zm-5.02 18.988c.882 0 1.668.39 2.218 1h.545a2.985 2.985 0 0 1-.765-2c0-.74.278-1.453.764-1.998a3.009 3.009 0 0 1-.764-1.998c0-.742.278-1.454.764-1.999a3.009 3.009 0 0 1-.764-1.998c0-.742.278-1.454.764-1.999a3.009 3.009 0 0 1-.764-1.998c0-.742.278-1.454.764-2a3.009 3.009 0 0 1-.764-1.998c0-.741.278-1.454.764-1.998a3.009 3.009 0 0 1-.764-1.999c0-.741.278-1.454.764-1.998a3.009 3.009 0 0 1-.764-1.999c0-.767.29-1.468.765-1.998h-.545c-.55.608-1.336.999-2.218.999a3.005 3.005 0 0 1-1.998-.765c-1.092.974-2.907.972-3.996 0-1.092.974-2.907.972-3.997 0-1.092.974-2.907.972-3.996 0a3.009 3.009 0 0 1-1.998.765c-.882 0-1.668-.39-2.218-1h-.56a2.979 2.979 0 0 1 .019 3.998c.488.543.761 1.248.761 1.998s-.273 1.454-.761 1.999c.488.543.761 1.248.761 1.998s-.273 1.454-.761 1.999c.488.544.761 1.248.761 1.999 0 .75-.273 1.453-.761 1.998.488.544.761 1.248.761 1.999 0 .75-.273 1.454-.761 1.998.488.544.761 1.248.761 1.999 0 .75-.273 1.454-.761 1.998a2.975 2.975 0 0 1-.018 3.997h.56c.549-.608 1.335-.999 2.217-.999.741 0 1.454.278 1.998.765 1.09-.973 2.906-.973 3.996 0 1.09-.973 2.907-.973 3.997 0 1.089-.973 2.906-.973 3.996 0a3.005 3.005 0 0 1 1.998-.765zm-1.705-23.983c.94 0 1.705.765 1.705 1.704v18.577c0 .94-.764 1.704-1.705 1.704H17.7c-.94 0-1.705-.765-1.705-1.704V14.7c0-.94.764-1.704 1.705-1.704h12.575zm-.293 19.986v-1.749c0-1.043-2.281-2.498-5.994-2.498-3.714 0-5.995 1.455-5.995 2.498v1.749h11.989zm0-17.987H17.993v13.208c1.442-.908 3.555-1.466 5.995-1.466s4.552.558 5.994 1.466V14.995zm-5.994 9.993a4 4 0 0 1-3.997-3.997 4 4 0 0 1 3.997-3.997 4 4 0 0 1 3.996 3.997 4 4 0 0 1-3.996 3.997z"/>
    </g>
</svg>
