<svg xmlns="http://www.w3.org/2000/svg" width="48" height="48" viewBox="0 0 48 48">
    <g fill="none" fill-rule="evenodd">
        <path fill="#FFF" fill-opacity="0" fill-rule="nonzero" d="M0 0h48v48H0z"/>
        <path fill="#90A4AE" d="M32.392 35.679c-.922.702-2.074.207-3.876-.653a23.763 23.763 0 0 0-1.868-.822c-.063-.055-.121-.116-.2-.156l-4-1.982a1.004 1.004 0 0 0-1.342.443.987.987 0 0 0 .447 1.33l.351.174c-.855.271-1.666.653-2.419 1.013-1.803.86-2.954 1.353-3.876.653C12.254 33.133 10 28.208 10 23.425c0-8.437 7.232-11.443 14-11.443s14 3.006 14 11.443c0 4.783-2.254 9.708-5.608 12.254M24 10c9.72 0 16 5.27 16 13.425 0 5.368-2.568 10.925-6.392 13.828-1.945 1.476-4.078.458-5.96-.441-1.21-.578-2.461-1.176-3.648-1.176-1.186 0-2.437.598-3.647 1.176-1.193.57-2.487 1.187-3.77 1.188a3.513 3.513 0 0 1-2.19-.747C10.569 34.35 8 28.793 8 23.425 8 15.27 14.281 10 24 10zm-5 12.05h-1v-.99a.996.996 0 0 0-1-.992c-.552 0-1 .444-1 .991v.991h-1c-.552 0-1 .444-1 .992 0 .547.448.99 1 .99h1v.992c0 .547.448.99 1 .99s1-.443 1-.99v-.991h1c.552 0 1-.444 1-.991a.996.996 0 0 0-1-.992zm10.29 3.261c-.18.189-.29.446-.29.704 0 .258.11.515.29.704.19.178.45.287.71.287.26 0 .52-.109.71-.287.18-.189.29-.446.29-.704 0-.258-.11-.515-.29-.704-.37-.366-1.05-.366-1.42 0zm-3-2.973c-.18.188-.29.446-.29.704 0 .267.11.515.29.703.19.179.45.288.71.288.27 0 .52-.11.71-.288.18-.188.29-.436.29-.703 0-.258-.11-.516-.29-.704-.37-.367-1.05-.367-1.42 0zm6 0c-.18.188-.29.446-.29.704 0 .267.11.515.29.703.19.179.45.288.71.288.26 0 .52-.11.71-.288.18-.188.29-.436.29-.703 0-.258-.11-.516-.29-.704-.37-.367-1.05-.367-1.42 0zm-3-2.973c-.18.188-.29.446-.29.703 0 .258.11.516.29.704.19.178.45.287.71.287.26 0 .52-.109.71-.287.18-.188.29-.446.29-.704 0-.257-.11-.515-.29-.703-.37-.367-1.04-.367-1.42 0z"/>
    </g>
</svg>
