<svg xmlns="http://www.w3.org/2000/svg" width="48" height="48" viewBox="0 0 48 48">
    <g fill="none" fill-rule="evenodd">
        <path fill="#FFF" fill-opacity="0" fill-rule="nonzero" d="M0 0h48v48H0z"/>
        <path fill="#90A4AE" d="M27.686 30.728a10.121 10.121 0 0 1-8-3.089l.593-.675a10.097 10.097 0 0 0 6.244 1.611c5.516-.392 9.68-5.143 9.282-10.59a9.687 9.687 0 0 0-.634-2.806 9.738 9.738 0 0 1 1.797 4.957c.397 5.448-3.766 10.2-9.282 10.592zm-15.92 5.948c-.175.2-.418.32-.685.34a.974.974 0 0 1-.728-.24h-.001a.98.98 0 0 1-.101-1.396l3.938-4.494 1.516 1.297-3.938 4.493zM38.97 19.993c-.43-5.866-5.233-10.59-11.175-10.991a1.009 1.009 0 0 0-1.06.85.993.993 0 0 0 .78 1.107c3.45.742 6.037 3.69 6.29 7.168.319 4.358-3.012 8.16-7.425 8.473a8.053 8.053 0 0 1-5.284-1.497 1.011 1.011 0 0 0-1.656-.208l-3.938 4.493-.758-.647a1.011 1.011 0 0 0-1.415.1l-4.594 5.243a2.921 2.921 0 0 0-.726 2.158 2.939 2.939 0 0 0 1.032 2.032 3.003 3.003 0 0 0 2.185.718 3.003 3.003 0 0 0 2.06-1.02l4.594-5.243a.983.983 0 0 0-.103-1.396l-.758-.648 1.346-1.536a12.104 12.104 0 0 0 9.466 3.554c6.619-.47 11.615-6.172 11.139-12.71z"/>
    </g>
</svg>
