<svg xmlns="http://www.w3.org/2000/svg" width="48" height="48" viewBox="0 0 48 48">
    <g fill="none" fill-rule="evenodd">
        <path fill="#FFF" fill-opacity="0" fill-rule="nonzero" d="M0 0h48v48H0z"/>
        <path fill="#90A4AE" d="M38 32a1 1 0 0 1-1 1H11a1 1 0 0 1-1-1v-3a1 1 0 0 1 1-1h26a1 1 0 0 1 1 1v3zM12.398 22a2.4 2.4 0 0 1 2.398 2.398 2.39 2.39 0 0 1-.599 1.585c-.004.005-.006.012-.009.017H11c-.127 0-.247.022-.369.037-.014-.016-.018-.038-.032-.055A2.39 2.39 0 0 1 10 24.398 2.401 2.401 0 0 1 12.398 22zM12 18.02c0-2.217 2.212-4.02 4.932-4.02h3.049A3.022 3.022 0 0 1 23 17.019V26h-6.51a4.395 4.395 0 0 0 .306-1.602A4.403 4.403 0 0 0 12.398 20c-.136 0-.265.028-.398.04v-2.02zM28.019 14h3.049C33.788 14 36 15.803 36 18.02v2.005c-.028-.002-.054-.011-.082-.013a4.361 4.361 0 0 0-3.194 1.061 4.365 4.365 0 0 0-1.508 3.009A4.38 4.38 0 0 0 31.524 26H25v-8.981A3.022 3.022 0 0 1 28.019 14zM37 26h-3.234c-.026-.05-.037-.104-.073-.149a2.4 2.4 0 0 1 2.08-3.845c.64.046 1.223.339 1.642.823.419.484.625 1.103.579 1.741a2.41 2.41 0 0 1-.405 1.172.957.957 0 0 0-.128.305A2.916 2.916 0 0 0 37 26zm2.169.938c.022-.027.054-.042.074-.073.432-.635.69-1.379.745-2.15a4.367 4.367 0 0 0-1.061-3.195 4.418 4.418 0 0 0-.927-.787V18.02C38 14.7 34.891 12 31.068 12h-3.049c-1.65 0-3.104.811-4.019 2.043C23.085 12.811 21.631 12 19.981 12h-3.049C13.109 12 10 14.7 10 18.02v2.7a4.393 4.393 0 0 0-2 3.678c0 .919.302 1.8.83 2.541A2.983 2.983 0 0 0 8 29v3c0 1.654 1.346 3 3 3v1a1 1 0 1 0 2 0v-1h22v1a1 1 0 1 0 2 0v-1c1.654 0 3-1.346 3-3v-3c0-.8-.319-1.523-.831-2.062z"/>
    </g>
</svg>
