<svg xmlns="http://www.w3.org/2000/svg" width="48" height="48" viewBox="0 0 48 48">
    <g fill="none" fill-rule="evenodd">
        <path fill="none" d="M0 0h48v48H0z"/>
        <path fill="#90A4AE" d="M35 35.958c0 .574-.467 1.042-1.042 1.042H14.042A1.043 1.043 0 0 1 13 35.958V11.041c0-.574.467-1.041 1.042-1.041h19.916c.575 0 1.042.467 1.042 1.041v24.917zM33.958 8A3.044 3.044 0 0 1 37 11.041v24.917a3.042 3.042 0 0 1-3.001 3.037L34 39a1 1 0 0 1-1 1h-2a1 1 0 0 1-1-1H18a1 1 0 0 1-1 1h-2a1 1 0 0 1-1-1v-.005c-2-.022-3-1.374-3-3.037V11.041A3.044 3.044 0 0 1 14.042 8h19.916zm-2.668 4.29c-.18.19-.29.45-.29.71 0 .26.11.52.29.71.19.18.45.29.71.29.26 0 .52-.11.71-.29.18-.19.29-.45.29-.71 0-.26-.11-.52-.29-.71-.38-.37-1.04-.37-1.42 0zM29 14c.26 0 .52-.11.71-.29.18-.19.29-.45.29-.71 0-.26-.11-.52-.29-.71-.37-.37-1.05-.37-1.42 0-.18.19-.29.45-.29.71 0 .26.11.52.29.71.19.18.45.29.71.29zm-3 0c.26 0 .52-.11.71-.29.18-.19.29-.45.29-.71 0-.26-.11-.52-.29-.71-.38-.37-1.05-.37-1.42 0-.18.19-.29.45-.29.71 0 .26.11.52.29.71.19.18.45.29.71.29zm-10 0h5a1 1 0 0 0 0-2h-5a1 1 0 0 0 0 2zm8 19c-3.86 0-7-3.14-7-7s3.14-7 7-7 7 3.14 7 7-3.14 7-7 7zm0-16c-4.962 0-9 4.038-9 9s4.038 9 9 9 9-4.038 9-9-4.038-9-9-9zm0 4c-2.757 0-5 2.242-5 5a1 1 0 0 0 2 0c0-1.654 1.346-3 3-3a1 1 0 0 0 0-2z"/>
    </g>
</svg>
