<svg xmlns="http://www.w3.org/2000/svg" width="48" height="48" viewBox="0 0 48 48">
    <g fill="none" fill-rule="evenodd">
        <path fill="#FFF" fill-opacity="0" fill-rule="nonzero" d="M0 0h48v48H0z"/>
        <path fill="#90A4AE" d="M35 33c-1.654 0-3-1.346-3-3 0-.462.113-.895.301-1.285l1.992 1.992a.997.997 0 0 0 1.414 0 .999.999 0 0 0 0-1.414l-1.992-1.992c.39-.188.823-.301 1.285-.301 1.654 0 3 1.346 3 3s-1.346 3-3 3m-19-3c0 1.654-1.346 3-3 3s-3-1.346-3-3 1.346-3 3-3c.254 0 .496.041.731.101l-1.563 2.344a1 1 0 1 0 1.664 1.11l1.563-2.344c.375.501.605 1.116.605 1.789m3.934-12.349c-.017.244-.028.501-.03.746-.002.144 0 .28.005.404 2.5-.741 5.22.11 6.566 2.105L36.01 21a1 1 0 0 1-.01 2c-1.829 0-3.441.774-4.66 1.926l.907.907A4.964 4.964 0 0 1 35 25c2.757 0 5 2.243 5 5s-2.243 5-5 5-5-2.243-5-5c0-1.018.309-1.963.833-2.753l-.764-.764C29.391 27.581 29 28.814 29 30a1 1 0 0 1-1 1h-7a1 1 0 0 1-1-1c0-1.815-.907-3.745-2.386-5.119l-1.067 1.601A4.987 4.987 0 0 1 18 30c0 2.757-2.243 5-5 5s-5-2.243-5-5 2.243-5 5-5c.666 0 1.3.137 1.882.374l1.095-1.642A6.507 6.507 0 0 0 13 23a1 1 0 0 1-1-1v-1.5c0-4.136 3.364-7.5 7.5-7.5a.998.998 0 0 1 .986 1.164l-.176 1.064.243-.123a1.001 1.001 0 0 1 .894 1.79l-1.513.756zm-1.926-.776l.006-.039.284-1.703A5.509 5.509 0 0 0 14 20.5v.561c4.035.492 7.447 3.904 7.939 7.939h5.122c.293-2.399 1.618-4.578 3.492-6.054l-4.662-.046a1 1 0 0 1-.885-.552c-.935-1.869-3.514-2.211-5.242-1.348-.399.198-.87.106-1.165-.197-.599-.434-.706-1.17-.696-2.423a14.308 14.308 0 0 1 .077-1.327c.006-.055.006-.055.015-.114 0-.015 0-.021.013-.064zM38.29 22.71c-.09-.101-.16-.21-.21-.33A.826.826 0 0 1 38 22c0-.13.019-.26.08-.38.05-.13.12-.23.21-.33.05-.04.1-.09.149-.12a.782.782 0 0 1 .181-.09c.06-.03.12-.05.18-.06.13-.03.269-.03.389 0 .071.01.13.03.191.06.059.02.12.05.18.09.049.03.1.08.15.12.09.1.16.2.21.33.05.12.08.25.08.38s-.03.26-.08.38-.12.229-.21.33c-.101.09-.21.16-.33.21a.995.995 0 0 1-1.09-.21z"/>
    </g>
</svg>
