<svg xmlns="http://www.w3.org/2000/svg" width="48" height="48" viewBox="0 0 48 48">
    <g fill="none" fill-rule="evenodd">
        <path fill="#FFF" fill-opacity="0" fill-rule="nonzero" d="M0 0h48v48H0z"/>
        <path fill="#90A4AE" d="M32.108 34.239c-.103.079-2.489 1.838-9.181 1.838-3.829 0-6.66-.968-8.362-1.78-.505-.242-1.001-.866-1.432-1.653 2.117.48 4.152.672 6.007.672 3.153 0 5.86-.517 7.532-.958 1.384-.364 2.417-1.615 2.417-3.044v-6.168c0-1.348-.455-2.66-1.19-3.793-.943-1.46-2.53-2.494-4.406-2.913l-7.305-1.63c1.46-1.357 3.312-2.374 5.678-2.828.781-.15 1.56-.223 2.342-.223 2.754 0 5.44.919 7.622 2.648 2.703 2.143 4.257 5.21 4.378 8.634.145 4.107-1.693 9.126-4.1 11.198M14.647 16.546l8.365 1.87c1.333.298 2.533 1.04 3.177 2.034.52.806.864 1.738.864 2.696v6.168c0 .51-.41.956-.901 1.084-2.682.708-8.075 1.628-13.921-.079-.166-.59-.298-1.176-.344-1.703-.351-4.032.332-8.67 2.76-12.07m23.595 6.575c.146 4.144-1.615 9.916-4.816 12.956h-.002c-.276 0-2.933 2.173-10.497 2.173-4.211 0-7.35-1.15-9.242-2.053-2.28-1.09-3.642-5.056-3.843-7.37-.707-8.11 2.616-17.087 11.63-18.816 4.123-.79 8.359.232 11.625 2.82 3.176 2.518 5.003 6.264 5.145 10.29zm-14.243 5.863c.562 0 1.018-.454 1.018-1.013v-6.08c0-.559-.456-1.013-1.018-1.013s-1.018.454-1.018 1.014v6.08c0 .558.456 1.012 1.018 1.012zm7.126-5.066c-.562 0-1.018.454-1.018 1.013v1.014c0 .559.456 1.013 1.018 1.013s1.018-.454 1.018-1.013V24.93c0-.559-.456-1.013-1.018-1.013z"/>
    </g>
</svg>
