<svg xmlns="http://www.w3.org/2000/svg" width="48" height="48" viewBox="0 0 48 48">
    <g fill="none" fill-rule="evenodd">
        <path fill="#FFF" fill-opacity="0" fill-rule="nonzero" d="M0 0h48v48H0z"/>
        <path fill="#90A4AE" d="M14.02 11.12v25.888l-3.012.021-.021-25.888 3.033-.02zm6.086-.15l1.938 25.816-3.003.243-1.958-25.815 3.023-.244zm7.101 3.948l2.852 21.705-2.984.406-2.873-21.701 3.005-.41zm6.632 8.874l4.147 12.263-2.85.968-4.166-12.257 2.869-.974zM10.987 38.998h3.054a1.98 1.98 0 0 0 1.987-1.969V23.703l1.01 13.473c.04.525.283 1.002.686 1.345a1.979 1.979 0 0 0 1.443.473l3.047-.225a1.98 1.98 0 0 0 1.358-.678c.345-.398.515-.907.476-1.431l-1.271-16.934 2.307 17.56a1.984 1.984 0 0 0 2.226 1.698l3.028-.39a1.978 1.978 0 0 0 1.319-.752c.323-.417.464-.934.396-1.456l-.477-3.632 1.657 4.9a1.988 1.988 0 0 0 2.515 1.243l2.896-.962a1.968 1.968 0 0 0 1.253-2.493L35.743 23.16a1.992 1.992 0 0 0-2.516-1.24l-2.894.96c-.018.007-.034.017-.052.024l-1.083-8.24a1.989 1.989 0 0 0-2.227-1.7l-3.028.39a1.977 1.977 0 0 0-1.557 1.169l-.278-3.7a1.975 1.975 0 0 0-2.128-1.817l-3.046.225a1.987 1.987 0 0 0-1.347.669 1.983 1.983 0 0 0-1.546-.748h-3.054A1.98 1.98 0 0 0 9 11.121v25.908a1.98 1.98 0 0 0 1.987 1.969z"/>
    </g>
</svg>
