<svg xmlns="http://www.w3.org/2000/svg" width="48" height="48" viewBox="0 0 48 48">
    <g fill="none" fill-rule="evenodd">
        <path fill="#FFF" fill-opacity="0" fill-rule="nonzero" d="M0 0h48v48H0z"/>
        <path fill="#90A4AE" d="M38 33.56a3.436 3.436 0 0 1-3.429 3.436h-.714a3.436 3.436 0 0 1-3.428-3.435v-4.55a3.436 3.436 0 0 1 3.428-3.436h.714A3.436 3.436 0 0 1 38 29.01v4.55zm-9.475-5.553H10v-16.03c0-.536.436-.973.972-.973h22.056c.536 0 .972.437.972.974V23.57h-.143c-2.651 0-4.86 1.915-5.332 4.436zM13 31.013c-1.708 0-2.444-.489-2.761-1.002h18.19v1.002H13zm11.833 5.983H19.17c.777-.988 1.313-2.34 1.605-3.98h2.47c0 .065-.014.126-.001.191.308 1.568.847 2.84 1.589 3.79zM36 11.978V23.77c2.301.63 4 2.738 4 5.24v4.55c0 3-2.436 5.44-5.429 5.44h-.714c-2.993 0-5.428-2.44-5.428-5.44v-.543h-3.175c.567 2.634 1.823 3.98 3.746 3.98A1 1 0 0 1 29 39H15a1.001 1.001 0 0 1 0-2.004c2.4 0 3.366-2.155 3.755-3.98H13c-3.131 0-5-1.497-5-4.007V11.978A2.978 2.978 0 0 1 10.972 9h22.056A2.978 2.978 0 0 1 36 11.978zm-13.29.29a1 1 0 0 0-1.09-.211c-.13.05-.23.12-.33.21-.09.101-.16.21-.21.33A.993.993 0 0 0 22 13.98a.989.989 0 0 0 1-1.001c0-.13-.02-.261-.08-.381-.05-.12-.12-.23-.21-.33zm11.576 14.704a1 1 0 0 0-1 1V30a1 1 0 1 0 2 0v-2.028a1 1 0 0 0-1-1z"/>
    </g>
</svg>
