<svg xmlns="http://www.w3.org/2000/svg" width="48" height="48" viewBox="0 0 48 48">
    <g fill="none" fill-rule="evenodd">
        <path fill="none" d="M0 0h48v48H0z"/>
        <path fill="#90A4AE" d="M30.773 38h-1.788v-4.75A3.247 3.247 0 0 0 25.748 30h-3.489a3.248 3.248 0 0 0-3.239 3.25V38h-1.787c-2.287 0-4.191-1.911-4.191-4.206V22h21.922v11.794c0 2.295-1.904 4.206-4.191 4.206zm-3.78 0h-5.98v-4.75c0-.689.56-1.25 1.246-1.25h3.489c.686 0 1.244.561 1.244 1.25V38zM15.715 12.101a.24.24 0 0 1 .19-.101h2.118v1c0 .552.446 1 .996 1s.997-.448.997-1l.063-3 1.93.063V13c0 .552.446 1 .996 1s.997-.448.997-1v-1H32.1c.11 0 .178.083.19.102l4.607 7.779c-.008.014-.065.119-.191.119H11.3c-.095 0-.149-.077-.174-.071l4.59-7.828zm18.404-1.019l4.596 7.787c.38.645.375 1.402.006 2.052-.353.623-.769 1.019-1.765 1.109v11.764A6.17 6.17 0 0 1 30.773 40h-13.54a6.17 6.17 0 0 1-6.184-6.206V22.03c-.997-.09-1.412-.477-1.766-1.101-.369-.65-.385-1.415-.004-2.06l4.607-7.788c.405-.687 1.18-1.081 2.02-1.081h2.131c.069-1 .954-2 2.043-2h1.868c1.088 0 1.973 1 2.042 2h8.11c.84 0 1.614.394 2.02 1.082zM18.024 25a.999.999 0 0 0-.996 1v1c0 .552.446 1 .996 1s.997-.448.997-1v-1c0-.552-.447-1-.997-1zm3.986 0a.999.999 0 0 0-.997 1v1c0 .552.447 1 .997 1s.996-.448.996-1v-1c0-.552-.446-1-.996-1zm3.986 0a.999.999 0 0 0-.997 1v1c0 .552.447 1 .997 1s.996-.448.996-1v-1c0-.552-.446-1-.996-1zm3.986 0a.999.999 0 0 0-.997 1v1c0 .552.447 1 .997 1s.996-.448.996-1v-1c0-.552-.446-1-.996-1z"/>
    </g>
</svg>
