<svg xmlns="http://www.w3.org/2000/svg" width="48" height="48" viewBox="0 0 48 48">
    <g fill="none" fill-rule="evenodd">
        <path fill="#FFF" fill-opacity="0" fill-rule="nonzero" d="M0 0h48v48H0z"/>
        <path fill="#90A4AE" d="M33 36c0 1.103-.897 2-2 2H17c-1.103 0-2-.897-2-2V12c0-1.103.897-2 2-2h14c1.103 0 2 .897 2 2v24zm3-20a1 1 0 0 1-1 1v2a1 1 0 0 1 1 1v1a1 1 0 0 1-1 1v14c0 2.206-1.794 4-4 4H17c-2.206 0-4-1.794-4-4V12c0-2.206 1.794-4 4-4h14c2.206 0 4 1.794 4 4v2a1 1 0 0 1 1 1v1zM24 31c-1.103 0-2 .897-2 2s.897 2 2 2 2-.897 2-2-.897-2-2-2zm2-19h-4a1 1 0 1 0 0 2h4a1 1 0 1 0 0-2z"/>
    </g>
</svg>
