<svg xmlns="http://www.w3.org/2000/svg" width="48" height="48" viewBox="0 0 48 48">
    <g fill="none" fill-rule="evenodd">
        <path fill="#FFF" fill-opacity="0" fill-rule="nonzero" d="M0 0h48v48H0z"/>
        <path fill="#90A4AE" d="M38 22.827a.138.138 0 0 1-.053.11.146.146 0 0 1-.121.03l-2.26-.445a2.143 2.143 0 0 0-.566-.03V20.26a.994.994 0 0 0-1-.986c-.552 0-1 .442-1 .986v11.837H15V20.259a.994.994 0 0 0-1-.986c-.552 0-1 .442-1 .986v2.233c-.048-.003-.095-.011-.143-.011-.141 0-.283.013-.424.041l-2.258.446a.144.144 0 0 1-.121-.03.139.139 0 0 1-.054-.111V15.04c0-.055.031-.104.081-.129l7.958-3.924a.112.112 0 0 1 .102-.004c.025.01.086.045.113.136.757 2.478 3.12 4.209 5.746 4.209 2.626 0 4.989-1.73 5.746-4.21a.204.204 0 0 1 .113-.135.111.111 0 0 1 .103.004l7.958 3.925c.049.024.08.073.08.129v7.786zm-5.146 14.2H15.146a.145.145 0 0 1-.146-.144v-2.815h18v2.815c0 .08-.065.144-.146.144zm5.96-23.88l-7.958-3.925h-.001a2.143 2.143 0 0 0-1.789-.05 2.186 2.186 0 0 0-1.235 1.378c-.505 1.652-2.08 2.805-3.831 2.805s-3.326-1.153-3.831-2.805a2.186 2.186 0 0 0-1.235-1.378 2.14 2.14 0 0 0-1.789.05l-7.958 3.925A2.101 2.101 0 0 0 8 15.04v7.787c0 .636.286 1.233.785 1.636a2.163 2.163 0 0 0 1.782.44l2.259-.447a.15.15 0 0 1 .121.03.136.136 0 0 1 .053.111v12.286c0 1.168.963 2.117 2.146 2.117h17.708C34.037 39 35 38.051 35 36.883V24.597c0-.044.018-.083.053-.11a.144.144 0 0 1 .121-.03l2.26.445a2.163 2.163 0 0 0 1.781-.439c.499-.403.785-1 .785-1.636V15.04c0-.807-.455-1.533-1.186-1.893z"/>
    </g>
</svg>
