<svg xmlns="http://www.w3.org/2000/svg" width="48" height="48" viewBox="0 0 48 48">
    <g fill="none" fill-rule="evenodd">
        <path fill="none" d="M0 0h48v48H0z"/>
        <path fill="#90A4AE" d="M38 20v15.042a.96.96 0 0 1-.958.958H10.958a.96.96 0 0 1-.958-.958V15.958a.96.96 0 0 1 .958-.958h26.084a.96.96 0 0 1 .958.958V20zm-12.586-7h11.628A2.961 2.961 0 0 1 40 15.958v19.084A2.961 2.961 0 0 1 37.042 38H35a.99.99 0 0 1-1 1 .99.99 0 0 1-1-1H14a.99.99 0 0 1-1 1 .99.99 0 0 1-1-1h-1.042A2.961 2.961 0 0 1 8 35.042V15.958A2.961 2.961 0 0 1 10.958 13h10.628l-3.293-3.293a.999.999 0 1 1 1.414-1.414l3.793 3.793 3.793-3.793a.999.999 0 1 1 1.414 1.414L25.414 13zm11.206 6.08c-.12.05-.23.12-.33.21-.18.19-.29.45-.29.71a.99.99 0 0 0 1 1 .99.99 0 0 0 1-1c0-.26-.11-.52-.29-.71a1 1 0 0 0-1.09-.21zm-.33 5.21c-.18.19-.29.45-.29.71 0 .27.1.52.29.71.1.09.21.17.33.21.12.06.25.08.38.08s.26-.02.38-.08c.12-.04.23-.12.33-.21A.99.99 0 0 0 38 25c0-.26-.11-.52-.29-.71-.38-.37-1.05-.37-1.42 0zm.33 4.79c-.13.05-.23.12-.33.21-.18.19-.29.45-.29.71a.99.99 0 0 0 1 1 .99.99 0 0 0 1-1c0-.26-.11-.52-.29-.71-.28-.27-.72-.37-1.09-.21zm-4.14 1.735c-.134.65-.92 1.375-1.588 1.462a66.216 66.216 0 0 1-15.78 0c-.67-.085-1.458-.81-1.59-1.453a27.516 27.516 0 0 1-.001-10.638c.134-.652.922-1.377 1.583-1.461a66.214 66.214 0 0 1 15.784-.001c.67.086 1.458.81 1.59 1.453.693 3.533.693 7.115.002 10.638zm-1.345-14.076a68.386 68.386 0 0 0-16.278 0c-1.512.195-2.99 1.56-3.297 3.054a29.515 29.515 0 0 0 .001 11.424c.306 1.485 1.784 2.85 3.304 3.045a68.289 68.289 0 0 0 16.27 0l.007-.001c1.512-.193 2.99-1.558 3.299-3.052a29.52 29.52 0 0 0-.003-11.425c-.304-1.484-1.782-2.85-3.303-3.045z"/>
    </g>
</svg>
