<svg xmlns="http://www.w3.org/2000/svg" width="48" height="48" viewBox="0 0 48 48">
  <g fill="none" fill-rule="evenodd">
    <path fill="#ACE9E1" d="M23.9998081,23.0342069 C27.3033978,23.0342069 30.093493,24.8035862 30.093493,26.8965517 C30.093493,28.9895172 27.3033978,30.7588966 23.9998081,30.7588966 C20.6970309,30.7588966 17.9061232,28.9895172 17.9061232,26.8965517 C17.9061232,24.8035862 20.6970309,23.0342069 23.9998081,23.0342069 L23.9998081,23.0342069 Z" opacity=".247"/>
    <path fill="#59D3C4" d="M13.1952985 34.3448276L16.5208255 28.2645517C17.3528166 30.6744828 20.3362847 32.414069 23.9998081 32.414069 27.6438317 32.414069 30.6151124 30.6926897 31.4657908 28.3034483L34.7986302 34.3448276 13.1952985 34.3448276zM23.9965581 14.7682759L28.1004518 22.2041379C26.9182769 21.6827586 25.5191669 21.3790345 23.9998081 21.3790345 22.4568871 21.3790345 21.0374647 21.6918621 19.843915 22.2281379L23.9965581 14.7682759z" opacity=".247"/>
    <path fill="#59D3C4" d="M24.0000518,25.2413793 C24.8962298,25.2413793 25.6250345,25.9837241 25.6250345,26.8965517 C25.6250345,27.8093793 24.8962298,28.5517241 24.0000518,28.5517241 C23.1038739,28.5517241 22.3750692,27.8093793 22.3750692,26.8965517 C22.3750692,25.9837241 23.1038739,25.2413793 24.0000518,25.2413793" opacity=".247"/>
    <path fill="#13C1AC" d="M13.1952985,34.3448276 L16.5208255,28.2645517 C17.3528166,30.6744828 20.3362847,32.414069 23.9998081,32.414069 C27.6438317,32.414069 30.6151124,30.6926897 31.4657908,28.3034483 L34.7986302,34.3448276 L13.1952985,34.3448276 Z M23.9965581,14.7682759 L28.1004518,22.2041379 C26.9182769,21.6827586 25.5191669,21.3790345 23.9998081,21.3790345 C22.4568871,21.3790345 21.0374647,21.6918621 19.843915,22.2281379 L23.9965581,14.7682759 Z M23.9998081,23.0342069 C27.3033978,23.0342069 30.093493,24.8035862 30.093493,26.8965517 C30.093493,28.9895172 27.3033978,30.7588966 23.9998081,30.7588966 C20.6970309,30.7588966 17.9061232,28.9895172 17.9061232,26.8965517 C17.9061232,24.8035862 20.6970309,23.0342069 23.9998081,23.0342069 L23.9998081,23.0342069 Z M24.7083005,12.5511724 L36.8956703,34.7031724 C37.0370438,34.9588966 37.0346063,35.304 36.8891704,35.558069 C36.7429219,35.8121379 36.4756123,36 36.1871779,36 L11.8124383,36 C11.5248164,36 11.2583192,35.8452414 11.1120708,35.592 C10.9658224,35.3387586 10.9625724,35.025931 11.1031334,34.7693793 L17.1968183,23.6275862 L23.2929406,12.5478621 C23.4375641,12.2888276 23.7073112,12 24.0006206,12 L24.0014331,12 C24.2947424,12 24.5644896,12.2904828 24.7083005,12.5511724 Z M24.0000518,25.2413793 C24.8962298,25.2413793 25.6250345,25.9837241 25.6250345,26.8965517 C25.6250345,27.8093793 24.8962298,28.5517241 24.0000518,28.5517241 C23.1038739,28.5517241 22.3750692,27.8093793 22.3750692,26.8965517 C22.3750692,25.9837241 23.1038739,25.2413793 24.0000518,25.2413793 Z M24.0000518,30.2068966 C25.7924077,30.2068966 27.2500171,28.7222069 27.2500171,26.8965517 C27.2500171,25.0708966 25.7924077,23.5862069 24.0000518,23.5862069 C22.207696,23.5862069 20.7500866,25.0708966 20.7500866,26.8965517 C20.7500866,28.7222069 22.207696,30.2068966 24.0000518,30.2068966 Z M31.3124737,16.9655172 C31.1044759,16.9655172 30.8964782,16.8844138 30.7380424,16.7230345 C30.4203583,16.3994483 30.4203583,15.8764138 30.7380424,15.5528276 L33.1755163,13.070069 C33.4932004,12.7464828 34.0066949,12.7464828 34.324379,13.070069 C34.6420631,13.3936552 34.6420631,13.9166897 34.324379,14.2402759 L31.8869051,16.7230345 C31.7284693,16.8844138 31.5204715,16.9655172 31.3124737,16.9655172 Z M32.1333337,21.1034483 C32.1333337,20.6507586 32.4932674,20.2758621 32.9377001,20.2758621 L36.1876654,20.2758621 C36.6320981,20.2758621 36.9912193,20.6507586 36.9912193,21.1034483 C36.9912193,21.5561379 36.6320981,21.9310345 36.1876654,21.9310345 L32.9377001,21.9310345 C32.4932674,21.9310345 32.1333337,21.5561379 32.1333337,21.1034483 Z M16.1131986,16.7230345 L13.6757247,14.2402759 C13.3580405,13.9166897 13.3580405,13.3936552 13.6757247,13.070069 C13.9934088,12.7464828 14.5069033,12.7464828 14.8245874,13.070069 L17.2620613,15.5528276 C17.5797454,15.8764138 17.5797454,16.3994483 17.2620613,16.7230345 C17.1036255,16.8844138 16.8956277,16.9655172 16.68763,16.9655172 C16.4796322,16.9655172 16.2716344,16.8844138 16.1131986,16.7230345 Z M11.8126821,21.9310345 C11.3641868,21.9310345 11.0001907,21.5602759 11.0001907,21.1034483 C11.0001907,20.6466207 11.3641868,20.2758621 11.8126821,20.2758621 L15.0626473,20.2758621 C15.5111425,20.2758621 15.8751387,20.6466207 15.8751387,21.1034483 C15.8751387,21.5602759 15.5111425,21.9310345 15.0626473,21.9310345 L11.8126821,21.9310345 Z"/>
  </g>
</svg>
