<svg xmlns="http://www.w3.org/2000/svg" width="48" height="48" viewBox="0 0 48 48">
  <g fill="none" fill-rule="evenodd">
    <path fill="#13C1AC" fill-opacity=".4" d="M38.2903027,21.2652406 C38.2903027,14.4061681 32.7089393,8.82551655 25.848992,8.82551655 C24.2660745,8.82551655 22.9779203,10.1135064 22.9779203,11.6962221 L22.9779203,22.2221424 L16.997478,22.2221424 C16.8730648,22.2221424 16.7773625,22.1178401 16.7285542,22.0202361 C15.7409056,20.0183975 13.5129539,18.9744175 11.3204122,19.4825324 C9.57958572,19.8853881 8.19572916,21.270982 7.79473615,23.0125433 C7.26933003,25.2928404 8.43498514,27.6104567 10.5672344,28.524298 C10.6543236,28.5616172 10.7098309,28.621902 10.7184442,28.6601781 C11.3424237,31.5136594 13.5675043,33.7221888 16.3122488,34.4245548 C15.7102808,34.9508508 15.3217291,35.7154154 15.3217291,36.5756701 C15.3217291,38.1593427 16.6098833,39.4463757 18.1928008,39.4463757 C19.7757183,39.4463757 21.0638725,38.1593427 21.0638725,36.5756701 C21.0638725,35.8378988 20.7758083,35.1709382 20.3173939,34.6618664 L28.5095184,34.6618664 C28.051104,35.1709382 27.7630398,35.8378988 27.7630398,36.5756701 C27.7630398,38.1593427 29.051194,39.4463757 30.6341115,39.4463757 C32.217029,39.4463757 33.5051832,38.1593427 33.5051832,36.5756701 C33.5051832,35.7144585 33.1156745,34.9498939 32.5127494,34.422641 C35.8269232,33.5872657 38.2903027,30.591206 38.2903027,27.0219621 L38.2903027,26.0353963 C38.2903027,25.034477 37.8940948,24.1302047 37.261502,23.4488906 C37.8854816,22.9216377 38.2903027,22.1436765 38.2903027,21.2652406 L38.2903027,21.2652406 Z"/>
    <path fill="#FFF" d="M25.848992,10.7393202 C27.4395657,10.7393202 28.9440073,11.1048567 30.2972391,11.7392827 L24.8919681,19.9772507 L24.8919681,11.6962221 C24.8919681,11.1689692 25.3216718,10.7393202 25.848992,10.7393202 L25.848992,10.7393202 Z" opacity=".752"/>
    <path fill="#FFF" d="M36.3762549,21.2652406 C36.3762549,21.7934504 35.9465511,22.2221424 35.419231,22.2221424 L34.4775195,22.2221424 L27.9774131,22.2221424 L35.9274107,18.2347324 C36.2164319,19.1954619 36.3762549,20.2116916 36.3762549,21.2652406 L36.3762549,21.2652406 Z" opacity=".634"/>
    <path fill="#13C1AC" d="M36.3762549,27.0219621 C36.3762549,30.1797382 33.8066457,32.7480627 30.6494239,32.7480627 L18.1774884,32.7480627 C15.5093058,32.7480627 13.1578981,30.8572247 12.5884689,28.251581 C12.4458723,27.5999308 11.9721455,27.0430139 11.3204122,26.7645555 C10.0198167,26.2076386 9.33745867,24.8411828 9.65997573,23.4412354 C9.89444658,22.4240487 10.7356706,21.5819751 11.75203,21.3465772 C11.9979851,21.29012 12.235327,21.2633268 12.4621417,21.2633268 C13.6708629,21.2633268 14.5896058,22.011624 15.0116534,22.8670943 C15.397334,23.64984 16.158168,24.1359461 16.997478,24.1359461 L22.9779203,24.1359461 L34.4775195,24.1359461 C35.5245036,24.1359461 36.3762549,24.9885457 36.3762549,26.0353963 L36.3762549,27.0219621 Z M30.6341115,37.532572 C30.1067913,37.532572 29.6770876,37.10388 29.6770876,36.5756701 C29.6770876,36.0484172 30.1067913,35.6187683 30.6341115,35.6187683 C31.1614317,35.6187683 31.5911354,36.0484172 31.5911354,36.5756701 C31.5911354,37.10388 31.1614317,37.532572 30.6341115,37.532572 L30.6341115,37.532572 Z M18.1928008,37.532572 C17.6654806,37.532572 17.2357769,37.10388 17.2357769,36.5756701 C17.2357769,36.0484172 17.6654806,35.6187683 18.1928008,35.6187683 C18.720121,35.6187683 19.1498247,36.0484172 19.1498247,36.5756701 C19.1498247,37.10388 18.720121,37.532572 18.1928008,37.532572 L18.1928008,37.532572 Z M25.848992,10.7393202 C27.4395657,10.7393202 28.9440073,11.1048567 30.2972391,11.7392827 L24.8919681,19.9772507 L24.8919681,11.6962221 C24.8919681,11.1689692 25.3216718,10.7393202 25.848992,10.7393202 L25.848992,10.7393202 Z M35.2029436,16.4568088 L26.6873449,20.7284186 L31.9519334,12.7047966 C33.3118643,13.6779658 34.4306253,14.9621281 35.2029436,16.4568088 L35.2029436,16.4568088 Z M36.3762549,21.2652406 C36.3762549,21.7934504 35.9465511,22.2221424 35.419231,22.2221424 L34.4775195,22.2221424 L27.9774131,22.2221424 L35.9274107,18.2347324 C36.2164319,19.1954619 36.3762549,20.2116916 36.3762549,21.2652406 L36.3762549,21.2652406 Z M38.2903027,21.2652406 C38.2903027,22.1436765 37.8854816,22.9216377 37.261502,23.4488906 C37.8940948,24.1302047 38.2903027,25.034477 38.2903027,26.0353963 L38.2903027,27.0219621 C38.2903027,30.591206 35.8269232,33.5872657 32.5127494,34.422641 C33.1156745,34.9498939 33.5051832,35.7144585 33.5051832,36.5756701 C33.5051832,38.1593427 32.217029,39.4463757 30.6341115,39.4463757 C29.051194,39.4463757 27.7630398,38.1593427 27.7630398,36.5756701 C27.7630398,35.8378988 28.051104,35.1709382 28.5095184,34.6618664 L20.3173939,34.6618664 C20.7758083,35.1709382 21.0638725,35.8378988 21.0638725,36.5756701 C21.0638725,38.1593427 19.7757183,39.4463757 18.1928008,39.4463757 C16.6098833,39.4463757 15.3217291,38.1593427 15.3217291,36.5756701 C15.3217291,35.7154154 15.7102808,34.9508508 16.3122488,34.4245548 C13.5675043,33.7221888 11.3424237,31.5136594 10.7184442,28.6601781 C10.7098309,28.621902 10.6543236,28.5616172 10.5672344,28.524298 C8.43498514,27.6104567 7.26933003,25.2928404 7.79473615,23.0125433 C8.19572916,21.270982 9.57958572,19.8853881 11.3204122,19.4825324 C13.5129539,18.9744175 15.7409056,20.0183975 16.7285542,22.0202361 C16.7773625,22.1178401 16.8730648,22.2221424 16.997478,22.2221424 L22.9779203,22.2221424 L22.9779203,11.6962221 C22.9779203,10.1135064 24.2660745,8.82551655 25.848992,8.82551655 C32.7089393,8.82551655 38.2903027,14.4061681 38.2903027,21.2652406 Z M11.7711704,23.4569286 C11.5989061,23.6387399 11.4936335,23.8875344 11.4936335,24.1363289 C11.4936335,24.3946924 11.5989061,24.6339178 11.7711704,24.8157292 C11.953005,24.9879715 12.2018312,25.0932307 12.4506574,25.0932307 C12.6994836,25.0932307 12.9483098,24.9879715 13.1301444,24.8157292 C13.3024087,24.6339178 13.4076813,24.3946924 13.4076813,24.1363289 C13.4076813,23.8875344 13.3024087,23.6387399 13.1301444,23.4569286 C12.7760455,23.1028749 12.1252693,23.1028749 11.7711704,23.4569286 Z"/>
  </g>
</svg>
