<svg xmlns="http://www.w3.org/2000/svg" width="48" height="48" viewBox="0 0 48 48">
  <g fill="none" fill-rule="evenodd" transform="translate(8 8)">
    <path fill="#13C1AC" fill-opacity=".5" d="M26.141688,26.3732197 C32.1139162,20.4010851 32.1139162,10.6831769 26.141688,4.71104222 C20.1694598,-1.26109245 10.4504401,-1.26109245 4.47917116,4.71104222 C-1.49305705,10.6831769 -1.49305705,20.4010851 4.47917116,26.3732197 C7.46528527,29.3602463 11.3876176,30.8528004 15.3099499,30.8528004 C19.2332415,30.8528004 23.1555739,29.3602463 26.141688,26.3732197 Z"/>
    <path fill="#13C1AC" d="M1.91800037,15.3958492 C2.98467525,15.7421294 4.08108656,15.9224637 5.17174244,15.9224637 C7.61108974,15.9224637 10.0082305,15.0725904 11.9276697,13.4735623 L13.9957912,15.5426106 L7.21300515,22.3252904 C6.83890155,22.7003473 6.83890155,23.3075367 7.21300515,23.6816345 C7.40101619,23.8686833 7.64658162,23.9626874 7.89118782,23.9626874 C8.13675326,23.9626874 8.3823187,23.8686833 8.5693705,23.6816345 L15.3521565,16.8989547 L17.4221964,18.968003 C15.118102,21.7334486 14.3785279,25.4926512 15.4787762,28.9333912 C15.422181,28.9343504 15.3665451,28.9420242 15.3099499,28.9420242 C11.7310255,28.9420242 8.36697086,27.5473111 5.83553651,25.0168756 C3.3050614,22.4864402 1.91128569,19.121479 1.91128569,15.5426106 C1.91128569,15.4927309 1.91704113,15.4447696 1.91800037,15.3958492 L1.91800037,15.3958492 Z M5.21011204,6.75706908 L10.5549973,12.1009114 C8.18279678,13.9972992 4.97126128,14.529669 2.09066357,13.429438 C2.48107425,10.9575152 3.5496676,8.66113065 5.21011204,6.75706908 L5.21011204,6.75706908 Z M6.56839587,5.40264342 C8.47728346,3.75277647 10.7756225,2.69666978 13.247584,2.31585746 C14.3305659,5.18585858 13.7981877,8.38103695 11.9113626,10.7445673 L6.56839587,5.40264342 Z M24.7853226,6.06738632 C27.3157977,8.59878102 28.7095734,11.9637422 28.7095734,15.5426106 C28.7095734,15.5800204 28.7047772,15.6174301 28.703818,15.6548399 C25.2735758,14.5737934 21.5325398,15.3171927 18.7785618,17.6116589 L16.7094811,15.5426106 L23.4922671,8.75993082 C23.8663707,8.38487385 23.8663707,7.77768445 23.4922671,7.40262748 C23.1172043,7.02852975 22.5100054,7.02852975 22.1359018,7.40262748 L15.3521565,14.1862665 L13.2830758,12.116259 C15.5871703,9.3508134 16.3267443,5.58969229 15.2236183,2.14703387 C15.2523955,2.14703387 15.2811727,2.14319697 15.3099499,2.14319697 C18.8888744,2.14319697 22.2538883,3.53695085 24.7853226,6.06738632 L24.7853226,6.06738632 Z M25.4500759,24.2830685 L20.150275,18.9833506 C22.5023314,17.1061473 25.6774158,16.5728182 28.5330733,17.6318026 C28.1484181,20.0931739 27.0942133,22.3818846 25.4500759,24.2830685 L25.4500759,24.2830685 Z M18.7939096,20.3396947 L24.0956291,25.6422903 C22.1992116,27.2959942 19.9143019,28.3626523 17.4528921,28.7568938 C16.3756656,25.8897704 16.909003,22.7003473 18.7939096,20.3396947 L18.7939096,20.3396947 Z M26.141688,26.3732197 C32.1139162,20.4010851 32.1139162,10.6831769 26.141688,4.71104222 C20.1694598,-1.26109245 10.4504401,-1.26109245 4.47917116,4.71104222 C-1.49305705,10.6831769 -1.49305705,20.4010851 4.47917116,26.3732197 C7.46528527,29.3602463 11.3876176,30.8528004 15.3099499,30.8528004 C19.2332415,30.8528004 23.1555739,29.3602463 26.141688,26.3732197 Z"/>
    <path fill="#FFF" d="M1.91800037 15.3958492C2.98467525 15.7421294 4.08108656 15.9224637 5.17174244 15.9224637 7.61108974 15.9224637 10.0082305 15.0725904 11.9276697 13.4735623L13.9957912 15.5426106 7.21300515 22.3252904C6.83890155 22.7003473 6.83890155 23.3075367 7.21300515 23.6816345 7.40101619 23.8686833 7.64658162 23.9626874 7.89118782 23.9626874 8.13675326 23.9626874 8.3823187 23.8686833 8.5693705 23.6816345L15.3521565 16.8989547 17.4221964 18.968003C15.118102 21.7334486 14.3785279 25.4926512 15.4787762 28.9333912 15.422181 28.9343504 15.3665451 28.9420242 15.3099499 28.9420242 11.7310255 28.9420242 8.36697086 27.5473111 5.83553651 25.0168756 3.3050614 22.4864402 1.91128569 19.121479 1.91128569 15.5426106 1.91128569 15.4927309 1.91704113 15.4447696 1.91800037 15.3958492L1.91800037 15.3958492zM24.7853226 6.06738632C27.3157977 8.59878102 28.7095734 11.9637422 28.7095734 15.5426106 28.7095734 15.5800204 28.7047772 15.6174301 28.703818 15.6548399 25.2735758 14.5737934 21.5325398 15.3171927 18.7785618 17.6116589L16.7094811 15.5426106 23.4922671 8.75993082C23.8663707 8.38487385 23.8663707 7.77768445 23.4922671 7.40262748 23.1172043 7.02852975 22.5100054 7.02852975 22.1359018 7.40262748L15.3521565 14.1862665 13.2830758 12.116259C15.5871703 9.3508134 16.3267443 5.58969229 15.2236183 2.14703387 15.2523955 2.14703387 15.2811727 2.14319697 15.3099499 2.14319697 18.8888744 2.14319697 22.2538883 3.53695085 24.7853226 6.06738632L24.7853226 6.06738632z" opacity=".719"/>
  </g>
</svg>
