<svg xmlns="http://www.w3.org/2000/svg" width="48" height="48" viewBox="0 0 48 48">
  <g fill="none" fill-rule="evenodd">
    <path fill="#13C1AC" d="M18,31.9963008 C18,34.2023008 16.206,35.9963008 14,35.9963008 C11.794,35.9963008 10,34.2023008 10,31.9963008 C10,29.7903008 11.794,27.9963008 14,27.9963008 C16.206,27.9963008 18,29.7903008 18,31.9963008" opacity=".7"/>
    <path fill="#FFF" d="M18,31.9963008 C18,34.2023008 16.206,35.9963008 14,35.9963008 C11.794,35.9963008 10,34.2023008 10,31.9963008 C10,29.7903008 11.794,27.9963008 14,27.9963008 C16.206,27.9963008 18,29.7903008 18,31.9963008" opacity=".65"/>
    <path fill="#13C1AC" d="M31,35.9963008 C27.14,35.9963008 24,32.8553008 24,28.9963008 C24,25.9913008 25.907,23.4303008 28.572,22.4393008 L30.022,29.2063008 C30.123,29.6753008 30.538,29.9963008 30.999,29.9963008 C31.068,29.9963008 31.139,29.9893008 31.209,29.9743008 C31.75,29.8583008 32.094,29.3263008 31.978,28.7863008 L30.528,22.0193008 C30.685,22.0103008 30.841,21.9963008 31,21.9963008 C34.86,21.9963008 38,25.1373008 38,28.9963008 C38,32.8553008 34.86,35.9963008 31,35.9963008 M18,31.9963008 C18,34.2023008 16.206,35.9963008 14,35.9963008 C11.794,35.9963008 10,34.2023008 10,31.9963008 C10,29.7903008 11.794,27.9963008 14,27.9963008 C16.206,27.9963008 18,29.7903008 18,31.9963008 M31,19.9963008 C35.962,19.9963008 40,24.0333008 40,28.9963008 C40,33.9593008 35.962,37.9963008 31,37.9963008 C26.038,37.9963008 22,33.9593008 22,28.9963008 C22,25.5133008 23.993,22.4913008 26.896,20.9963008 L22,20.9963008 L21.5,20.9963008 C18.247,20.9963008 15.552,23.2163008 15.081,26.0993008 C17.875,26.6093008 20,29.0573008 20,31.9963008 C20,35.3053008 17.309,37.9963008 14,37.9963008 C10.691,37.9963008 8,35.3053008 8,31.9963008 C8,29.0083008 10.198,26.5303008 13.061,26.0773008 C13.404,23.2633008 15.306,20.8943008 17.931,19.7453008 C16.701,18.9143008 15.749,17.7213008 15.296,16.3003008 C15.232,16.1003008 15.252,15.9023008 15.308,15.7163008 C13.275,15.4173008 12.543,14.9533008 12.293,14.7033008 C11.902,14.3123008 11.902,13.6803008 12.293,13.2893008 C12.661,12.9203008 13.246,12.9003008 13.639,13.2263008 C13.774,13.3093008 15.042,13.9963008 20,13.9963008 C20.552,13.9963008 21,14.4433008 21,14.9963008 C21,15.5493008 20.552,15.9963008 20,15.9963008 C18.967,15.9963008 18.075,15.9663008 17.295,15.9173008 C17.993,17.7383008 19.883,18.9963008 22,18.9963008 L27.834,18.9963008 L27.022,15.2063008 C27.014,15.1703008 27.024,15.1353008 27.021,15.0993008 C27.017,15.0633008 27,15.0323008 27,14.9963008 C27,14.9643008 27.016,14.9363008 27.019,14.9053008 C27.025,14.8363008 27.038,14.7713008 27.059,14.7063008 C27.077,14.6453008 27.099,14.5893008 27.128,14.5333008 C27.158,14.4763008 27.193,14.4273008 27.233,14.3773008 C27.274,14.3273008 27.316,14.2813008 27.366,14.2403008 C27.413,14.2003008 27.463,14.1683008 27.519,14.1373008 C27.579,14.1023008 27.639,14.0763008 27.706,14.0563008 C27.736,14.0463008 27.759,14.0253008 27.791,14.0183008 C27.826,14.0113008 27.86,14.0203008 27.896,14.0173008 C27.932,14.0143008 27.963,13.9963008 28,13.9963008 L30,13.9963008 C30.551,13.9963008 31,13.5483008 31,12.9963008 C31,12.4443008 30.551,11.9963008 30,11.9963008 L26,11.9963008 C25.448,11.9963008 25,11.5493008 25,10.9963008 C25,10.4433008 25.448,9.99630078 26,9.99630078 L30,9.99630078 C31.654,9.99630078 33,11.3423008 33,12.9963008 C33,14.6503008 31.654,15.9963008 30,15.9963008 L29.237,15.9963008 L30.104,20.0423008 C30.399,20.0133008 30.698,19.9963008 31,19.9963008 Z M13.0796,31.6154008 C13.0296,31.7354008 12.9996,31.8654008 12.9996,31.9954008 C12.9996,32.2654008 13.0996,32.5154008 13.2896,32.7054008 C13.4796,32.8954008 13.7296,32.9954008 13.9996,32.9954008 C14.2696,32.9954008 14.5196,32.8954008 14.7096,32.7054008 C14.8996,32.5154008 14.9996,32.2564008 14.9996,31.9954008 C14.9996,31.8654008 14.9796,31.7354008 14.9196,31.6154008 C14.8696,31.4954008 14.7996,31.3864008 14.7096,31.2854008 C14.6096,31.1954008 14.5096,31.1254008 14.3796,31.0754008 C14.0096,30.9154008 13.5696,31.0064008 13.2896,31.2854008 C13.1996,31.3864008 13.1296,31.4954008 13.0796,31.6154008 Z M32.29,9.70530078 C32.2,9.60530078 32.13,9.49530078 32.08,9.37530078 C32.03,9.25630078 32,9.12530078 32,8.99530078 C32,8.73530078 32.11,8.47630078 32.29,8.28530078 C32.39,8.19530078 32.49,8.12530078 32.62,8.07530078 C32.99,7.92630078 33.43,8.01630078 33.71,8.28530078 C33.89,8.47630078 34,8.73530078 34,8.99530078 C34,9.12530078 33.97,9.25630078 33.92,9.37530078 C33.87,9.49530078 33.8,9.60530078 33.71,9.70530078 C33.52,9.89530078 33.27,9.99530078 33,9.99530078 C32.87,9.99530078 32.74,9.97630078 32.62,9.91530078 C32.5,9.87530078 32.39,9.79530078 32.29,9.70530078 Z"/>
    <path fill="#13C1AC" d="M31,35.9963008 C27.14,35.9963008 24,32.8553008 24,28.9963008 C24,25.9913008 25.907,23.4303008 28.572,22.4393008 L30.022,29.2063008 C30.123,29.6753008 30.538,29.9963008 30.999,29.9963008 C31.068,29.9963008 31.139,29.9893008 31.209,29.9743008 C31.75,29.8583008 32.094,29.3263008 31.978,28.7863008 L30.528,22.0193008 C30.685,22.0103008 30.841,21.9963008 31,21.9963008 C34.86,21.9963008 38,25.1373008 38,28.9963008 C38,32.8553008 34.86,35.9963008 31,35.9963008" opacity=".434"/>
  </g>
</svg>
