<svg xmlns="http://www.w3.org/2000/svg" width="48" height="48" viewBox="0 0 48 48">
  <g fill="none" fill-rule="evenodd" transform="translate(9 10)">
    <path fill="#13C1AC" d="M28.8896354,9.20361867 L30.3718648,7.7204208 C30.7460105,7.34627218 30.7460105,6.74151021 30.3718648,6.36736159 C29.998676,5.99321297 29.3929618,5.99321297 29.0188161,6.36736159 L27.2514322,8.13571621 L25.4333329,3.6794243 C24.7472397,1.62304223 22.7932614,0.345578262 20.3340428,0.345578262 L10.3507638,0.345578262 C7.8905884,0.345578262 5.93661009,1.62304223 5.27730987,3.61148427 L3.39127106,8.09265562 L1.66503362,6.36736159 C1.29184481,5.99321297 0.686130673,5.99321297 0.311984973,6.36736159 C-0.0612038318,6.74151021 -0.0612038318,7.34627218 0.311984973,7.7204208 L1.79517125,9.20361867 C0.758854645,9.65527634 0.0316149223,10.6877734 0.0316149223,11.8886853 L0.0316149223,20.6242422 C0.0316149223,20.8050967 0.0497959154,20.9821235 0.0804165353,21.1543659 C0.0593648591,21.2337887 0.0316149223,21.3112978 0.0316149223,21.3974189 L0.0316149223,25.2345953 C0.0316149223,26.8125265 1.31576717,28.0957319 2.8927291,28.0957319 L4.80651784,28.0957319 C6.3949625,28.0957319 7.6867699,26.8125265 7.6867699,25.2345953 L7.6867699,24.2681245 C7.6867699,24.1963568 7.66093375,24.1332013 7.64658034,24.0662182 C9.69050672,24.184874 12.2262768,24.2681245 15.3419249,24.2681245 C18.4585299,24.2681245 20.993343,24.184874 23.0382263,24.0662182 C23.022916,24.1332013 22.9970799,24.1963568 22.9970799,24.2681245 L22.9970799,25.2345953 C22.9970799,26.8125265 24.2812321,28.0957319 25.858194,28.0957319 L27.7719828,28.0957319 C29.3604274,28.0957319 30.6522348,26.8125265 30.6522348,25.2345953 L30.6522348,21.3974189 C30.6522348,21.3112978 30.6244849,21.2337887 30.6034332,21.1543659 C30.6350107,20.9821235 30.6522348,20.8050967 30.6522348,20.6242422 L30.6522348,11.8886853 C30.6522348,10.6877734 29.9249951,9.65527634 28.8896354,9.20361867 L28.8896354,9.20361867 Z" opacity=".35"/>
    <g>
      <path fill="#13C1AC" d="M27.7719828,26.1819282 L25.858194,26.1819282 C25.3357297,26.1819282 24.9108686,25.7570637 24.9108686,25.2345953 L24.9108686,24.2681245 C24.9108686,24.1523393 24.8831187,24.0451663 24.8457998,23.9427778 C26.1854519,23.8356048 27.2466478,23.7159921 28.0619218,23.6049915 C28.2992316,23.5724568 28.5231449,23.502603 28.7384461,23.4183956 L28.7384461,25.2345953 C28.7384461,25.7484516 28.2963609,26.1819282 27.7719828,26.1819282 L27.7719828,26.1819282 Z M2.88220326,21.708412 C2.3482562,21.6356875 1.94540367,21.1696763 1.94540367,20.6242422 L1.94540367,17.8597528 C4.31658792,18.1774442 8.53553521,18.5477652 15.3419249,18.5477652 C22.1483146,18.5477652 26.3672618,18.1774442 28.7384461,17.8597528 L28.7384461,20.6242422 C28.7384461,21.1696763 28.3355936,21.6356875 27.8026034,21.708412 C25.6534186,22.0031378 21.7464189,22.3543208 15.3419249,22.3543208 C8.93743085,22.3543208 5.03138802,22.0031378 2.88220326,21.708412 L2.88220326,21.708412 Z M5.77298116,24.2681245 L5.77298116,25.2345953 C5.77298116,25.7484516 5.33089596,26.1819282 4.80651784,26.1819282 L2.8927291,26.1819282 C2.37026477,26.1819282 1.94540367,25.7570637 1.94540367,25.2345953 L1.94540367,23.4183956 C2.1616618,23.502603 2.38461818,23.5724568 2.62192799,23.6049915 C3.43720199,23.7159921 4.49935475,23.8356048 5.83900687,23.9427778 C5.80168799,24.0451663 5.77298116,24.1523393 5.77298116,24.2681245 L5.77298116,24.2681245 Z M7.06670235,4.28514317 C7.67624406,2.45650374 9.56611045,2.25938196 10.3507638,2.25938196 L20.3340428,2.25938196 C21.1177393,2.25938196 23.0076057,2.45650374 23.639156,4.34351418 L25.4371605,8.7557886 C25.1166009,8.6495725 24.6993949,8.47924397 24.1941547,8.27351007 C22.1865903,7.45535899 18.8250204,6.08698935 15.3419249,6.08698935 C11.8597863,6.08698935 8.49821633,7.45535899 6.48969504,8.27351007 C5.96723071,8.48594228 5.53375756,8.66392603 5.21032727,8.76918523 C5.19980143,8.77301284 5.18927559,8.77396974 5.17970665,8.77684045 L7.06670235,4.28514317 Z M24.9807219,14.4091647 C26.3816153,14.3058193 27.6418451,14.1785514 28.7384461,14.0311885 L28.7384461,15.9545612 C28.694429,15.9545612 28.6532825,15.9402077 28.6092654,15.9459491 C27.1978462,16.1402002 25.0716269,16.35646 22.0516682,16.4932969 C22.1674524,14.6426488 24.8601532,14.4177768 24.9807219,14.4091647 L24.9807219,14.4091647 Z M10.5545823,16.5650646 C10.521091,13.6015396 7.46094283,12.6092323 5.84379134,12.5011024 C4.42950146,12.3958432 3.16161641,12.2676184 2.0755413,12.1183417 C2.03056727,12.1126003 1.98942081,12.1259969 1.94540367,12.1259969 L1.94540367,11.8886853 C1.94540367,11.3279408 2.40184228,10.8714986 2.96258238,10.8714986 L4.00368346,10.8714986 C4.61896654,10.8714986 5.22372379,10.7767653 5.80073109,10.5901694 C6.15765269,10.4734274 6.63705677,10.2801332 7.21215029,10.0456923 C9.21205953,9.23136882 12.233932,8.00079305 15.3419249,8.00079305 C18.4499178,8.00079305 21.4727471,9.23136882 23.4726564,10.0456923 C24.0477499,10.2801332 24.527154,10.4734274 24.8840756,10.5901694 C25.4610829,10.7767653 26.0648832,10.8714986 26.6801663,10.8714986 L27.7222243,10.8714986 C28.2829644,10.8714986 28.7384461,11.3279408 28.7384461,11.8886853 L28.7384461,12.1259969 C28.694429,12.1259969 28.6532825,12.1116434 28.6092654,12.1183417 C27.5222333,12.2676184 26.2553052,12.3958432 24.8467567,12.5001455 C23.2229069,12.6092323 20.1637156,13.6015396 20.1292674,16.5650646 C18.7034948,16.6081252 17.1140933,16.6339615 15.3419249,16.6339615 C13.5697565,16.6339615 11.9813118,16.6081252 10.5545823,16.5650646 L10.5545823,16.5650646 Z M1.94540367,14.0311885 C3.04200462,14.1785514 4.3031914,14.3058193 5.70982613,14.4091647 C5.73757606,14.4120354 8.51448353,14.6254245 8.63313844,16.4932969 C5.6122229,16.35646 3.4869605,16.1402002 2.0755413,15.9459491 C2.03056727,15.9402077 1.98942081,15.9545612 1.94540367,15.9545612 L1.94540367,14.0311885 Z M30.3718648,7.7204208 L28.8896354,9.20361867 C29.9249951,9.65527634 30.6522348,10.6877734 30.6522348,11.8886853 L30.6522348,20.6242422 C30.6522348,20.8050967 30.6350107,20.9821235 30.6034332,21.1543659 C30.6244849,21.2337887 30.6522348,21.3112978 30.6522348,21.3974189 L30.6522348,25.2345953 C30.6522348,26.8125265 29.3604274,28.0957319 27.7719828,28.0957319 L25.858194,28.0957319 C24.2812321,28.0957319 22.9970799,26.8125265 22.9970799,25.2345953 L22.9970799,24.2681245 C22.9970799,24.1963568 23.022916,24.1332013 23.0382263,24.0662182 C20.993343,24.184874 18.4585299,24.2681245 15.3419249,24.2681245 C12.2262768,24.2681245 9.69050672,24.184874 7.64658034,24.0662182 C7.66093375,24.1332013 7.6867699,24.1963568 7.6867699,24.2681245 L7.6867699,25.2345953 C7.6867699,26.8125265 6.3949625,28.0957319 4.80651784,28.0957319 L2.8927291,28.0957319 C1.31576717,28.0957319 0.0316149223,26.8125265 0.0316149223,25.2345953 L0.0316149223,21.3974189 C0.0316149223,21.3112978 0.0593648591,21.2337887 0.0804165353,21.1543659 C0.0497959154,20.9821235 0.0316149223,20.8050967 0.0316149223,20.6242422 L0.0316149223,11.8886853 C0.0316149223,10.6877734 0.758854645,9.65527634 1.79517125,9.20361867 L0.311984973,7.7204208 C-0.0612038318,7.34627218 -0.0612038318,6.74151021 0.311984973,6.36736159 C0.686130673,5.99321297 1.29184481,5.99321297 1.66503362,6.36736159 L3.39127106,8.09265562 L5.27730987,3.61148427 C5.93661009,1.62304223 7.8905884,0.345578262 10.3507638,0.345578262 L20.3340428,0.345578262 C22.7932614,0.345578262 24.7472397,1.62304223 25.4333329,3.6794243 L27.2514322,8.13571621 L29.0188161,6.36736159 C29.3929618,5.99321297 29.998676,5.99321297 30.3718648,6.36736159 C30.7460105,6.74151021 30.7460105,7.34627218 30.3718648,7.7204208 Z M18.2128951,19.4836152 L18.2023692,19.4836152 C17.5918706,19.4836152 16.0024691,19.4941411 15.3422119,19.4941411 C14.6819548,19.4941411 13.0925533,19.4836152 12.4820547,19.4836152 L12.4715288,19.4836152 C11.9481076,19.4836152 11.5203758,19.9113503 11.5146345,20.4357326 C11.5088931,20.9639424 11.9327973,21.4022034 12.461003,21.4079448 C13.077243,21.4146432 14.6771704,21.4184708 15.3422119,21.4184708 C16.0072535,21.4184708 17.6071809,21.4117724 18.2234209,21.4050741 C18.7516266,21.4002896 19.1755308,20.9639424 19.1697894,20.4357326 C19.1640481,19.9113503 18.7363163,19.4836152 18.2128951,19.4836152 Z M17.2560007,14.699106 C17.2560007,14.1708962 16.827312,13.7422041 16.2991063,13.7422041 L14.3853176,13.7422041 C13.8571119,13.7422041 13.4284232,14.1708962 13.4284232,14.699106 C13.4284232,15.2273158 13.8571119,15.6560078 14.3853176,15.6560078 L16.2991063,15.6560078 C16.827312,15.6560078 17.2560007,15.2273158 17.2560007,14.699106 Z"/>
      <path fill="#FFF" fill-opacity=".7" d="M1.94540367 14.0311885C3.04200462 14.1785514 4.3031914 14.3058193 5.70982613 14.4091647 5.73757606 14.4120354 8.51448353 14.6254245 8.63313844 16.4932969 5.6122229 16.35646 3.4869605 16.1402002 2.0755413 15.9459491 2.03056727 15.9402077 1.98942081 15.9545612 1.94540367 15.9545612L1.94540367 14.0311885zM24.9807219 14.4091647C26.3816153 14.3058193 27.6418451 14.1785514 28.7384461 14.0311885L28.7384461 15.9545612C28.694429 15.9545612 28.6532825 15.9402077 28.6092654 15.9459491 27.1978462 16.1402002 25.0716269 16.35646 22.0516682 16.4932969 22.1674524 14.6426488 24.8601532 14.4177768 24.9807219 14.4091647L24.9807219 14.4091647zM7.06670235 4.28514317C7.67624406 2.45650374 9.56611045 2.25938196 10.3507638 2.25938196L20.3340428 2.25938196C21.1177393 2.25938196 23.0076057 2.45650374 23.639156 4.34351418L25.4371605 8.7557886C25.1166009 8.6495725 24.6993949 8.47924397 24.1941547 8.27351007 22.1865903 7.45535899 18.8250204 6.08698935 15.3419249 6.08698935 11.8597863 6.08698935 8.49821633 7.45535899 6.48969504 8.27351007 5.96723071 8.48594228 5.53375756 8.66392603 5.21032727 8.76918523 5.19980143 8.77301284 5.18927559 8.77396974 5.17970665 8.77684045L7.06670235 4.28514317z"/>
    </g>
  </g>
</svg>
