<svg xmlns="http://www.w3.org/2000/svg" width="48" height="48" viewBox="0 0 48 48">
  <g fill="none" fill-rule="evenodd">
    <path fill="#13C1AC" fill-opacity=".47" d="M35,30.0001094 L35,24.0001094 C35,23.4471094 34.552,23.0001094 34,23.0001094 L32,23.0001094 L32,17.0001094 C32,16.4471094 31.552,16.0001094 31,16.0001094 L22.5,16.0001094 L23.4,14.8001094 C23.731,14.3581094 23.642,13.7311094 23.2,13.4001094 L17.6,9.20010938 C17.388,9.04110938 17.124,8.97210938 16.858,9.01010938 C16.596,9.04810938 16.359,9.18810938 16.2,9.40010938 L10.2,17.4001094 C9.869,17.8421094 9.958,18.4691094 10.4,18.8001094 C13.5981392,20.3416132 15.7508058,21.3475518 16.858,21.8179253 C17.3890349,22.0435269 19.8680454,17.1688801 20.7092014,17.4001094 C21.4948126,17.6160697 20.6609144,22.9437746 20.7092014,23.0001094 C20.9708822,23.3054037 18.7344817,23.3054037 14,23.0001094 C13.448,23.0001094 13,23.4471094 13,24.0001094 L13,30.0001094 L9,30.0001094 C8.448,30.0001094 8,30.4471094 8,31.0001094 L8,38.0001094 C8,38.5531094 8.448,39.0001094 9,39.0001094 L19,39.0001094 L29,39.0001094 L39,39.0001094 C39.552,39.0001094 40,38.5531094 40,38.0001094 L40,31.0001094 C40,30.4471094 39.552,30.0001094 39,30.0001094 L35,30.0001094 Z"/>
    <path fill="#13C1AC" d="M38,37.0001094 L30,37.0001094 L30,32.0001094 L34,32.0001094 L38,32.0001094 L38,37.0001094 Z M20,32.0001094 L24,32.0001094 L28,32.0001094 L28,37.0001094 L20,37.0001094 L20,32.0001094 Z M10,32.0001094 L14,32.0001094 L18,32.0001094 L18,37.0001094 L10,37.0001094 L10,32.0001094 Z M15,25.0001094 L21,25.0001094 L23,25.0001094 L23,30.0001094 L19,30.0001094 L15,30.0001094 L15,25.0001094 Z M17.4,22.8001094 L20,19.3331094 L20,23.0001094 L17.177,23.0001094 C17.258,22.9411094 17.339,22.8821094 17.4,22.8001094 Z M12.4,17.8001094 L17.2,11.4001094 L21.2,14.4001094 L16.4,20.8001094 L12.4,17.8001094 Z M30,23.0001094 L24,23.0001094 L22,23.0001094 L22,18.0001094 L30,18.0001094 L30,23.0001094 Z M33,30.0001094 L29,30.0001094 L25,30.0001094 L25,25.0001094 L31,25.0001094 L33,25.0001094 L33,30.0001094 Z M35,30.0001094 L35,24.0001094 C35,23.4471094 34.552,23.0001094 34,23.0001094 L32,23.0001094 L32,17.0001094 C32,16.4471094 31.552,16.0001094 31,16.0001094 L22.5,16.0001094 L23.4,14.8001094 C23.731,14.3581094 23.642,13.7311094 23.2,13.4001094 L17.6,9.20010938 C17.388,9.04110938 17.124,8.97210938 16.858,9.01010938 C16.596,9.04810938 16.359,9.18810938 16.2,9.40010938 L10.2,17.4001094 C9.869,17.8421094 9.958,18.4691094 10.4,18.8001094 L16,23.0001094 L14,23.0001094 C13.448,23.0001094 13,23.4471094 13,24.0001094 L13,30.0001094 L9,30.0001094 C8.448,30.0001094 8,30.4471094 8,31.0001094 L8,38.0001094 C8,38.5531094 8.448,39.0001094 9,39.0001094 L19,39.0001094 L29,39.0001094 L39,39.0001094 C39.552,39.0001094 40,38.5531094 40,38.0001094 L40,31.0001094 C40,30.4471094 39.552,30.0001094 39,30.0001094 L35,30.0001094 Z"/>
    <polygon fill="#FFF" points="30 23 24 23 22 23 22 18 30 18" opacity=".739"/>
    <polygon fill="#FFF" points="17.994 36.98 11.994 36.98 9.994 36.98 9.994 31.98 17.994 31.98" opacity=".739"/>
    <polygon fill="#FFF" points="38 36.98 32 36.98 30 36.98 30 31.98 38 31.98" opacity=".739"/>
  </g>
</svg>
