<svg xmlns="http://www.w3.org/2000/svg" width="48" height="48" viewBox="0 0 48 48">
  <g fill="none" fill-rule="evenodd" transform="translate(11 8)">
    <g transform="translate(1.574 2.181)">
      <path fill="#13C1AC" fill-opacity=".35" d="M21.8087259,25.2090419 C21.8087259,25.7583035 21.3618528,26.2061336 20.8116342,26.2061336 L1.753977,26.2061336 C1.20375843,26.2061336 0.756885271,25.7583035 0.756885271,25.2090419 L0.756885271,1.36591851 C0.756885271,0.816656849 1.20375843,0.369783686 1.753977,0.369783686 L20.8116342,0.369783686 C21.3618528,0.369783686 21.8087259,0.816656849 21.8087259,1.36591851 L21.8087259,25.2090419 Z M11.2828056,22.3780477 C14.9764467,22.3780477 17.9811185,19.3733759 17.9811185,15.6797348 C17.9811185,11.9860937 14.9764467,8.98142187 11.2828056,8.98142187 C7.58916447,8.98142187 4.58449266,11.9860937 4.58449266,15.6797348 C4.58449266,19.3733759 7.58916447,22.3780477 11.2828056,22.3780477 Z"/>
      <path fill="#FFF" fill-opacity=".5" d="M11.2828056,22.3780477 C7.58916447,22.3780477 4.58449266,19.3733759 4.58449266,15.6797348 C4.58449266,11.9860937 7.58916447,8.98142187 11.2828056,8.98142187 C14.9764467,8.98142187 17.9811185,11.9860937 17.9811185,15.6797348 C17.9811185,19.3733759 14.9764467,22.3780477 11.2828056,22.3780477"/>
    </g>
    <path fill="#FFF" fill-opacity=".5" d="M12.8570575,24.5590686 C9.16341639,24.5590686 6.15874459,21.5543968 6.15874459,17.8607557 C6.15874459,14.1671146 9.16341639,11.1624428 12.8570575,11.1624428 C16.5506987,11.1624428 19.5553705,14.1671146 19.5553705,17.8607557 C19.5553705,21.5543968 16.5506987,24.5590686 12.8570575,24.5590686"/>
    <path fill="#13C1AC" d="M23.3829779,27.3900628 C23.3829779,27.9393244 22.9361047,28.3871545 22.3858861,28.3871545 L3.32822892,28.3871545 C2.77801036,28.3871545 2.33113719,27.9393244 2.33113719,27.3900628 L2.33113719,3.54693942 C2.33113719,2.99767775 2.77801036,2.55080459 3.32822892,2.55080459 L22.3858861,2.55080459 C22.9361047,2.55080459 23.3829779,2.99767775 23.3829779,3.54693942 L23.3829779,27.3900628 Z M22.3858861,0.637000896 C23.9915674,0.637000896 25.2967815,1.94221502 25.2967815,3.54693942 L25.2967815,27.3900628 C25.2967815,28.9813905 24.0116624,30.2751218 22.4251191,30.2961737 C22.4251191,30.2980875 22.426076,30.2990444 22.426076,30.3009582 C22.426076,30.829168 21.997384,31.25786 21.4691742,31.25786 L19.5553705,31.25786 C19.0271606,31.25786 18.5984686,30.829168 18.5984686,30.3009582 L7.11564643,30.3009582 C7.11564643,30.829168 6.68695441,31.25786 6.15874459,31.25786 L4.24494089,31.25786 C3.71673107,31.25786 3.28803904,30.829168 3.28803904,30.3009582 L3.28803904,30.2961737 C1.37423535,30.2751218 0.417333497,28.9813905 0.417333497,27.3900628 L0.417333497,3.54693942 C0.417333497,1.94221502 1.72254762,0.637000896 3.32822892,0.637000896 L22.3858861,0.637000896 Z M19.832872,4.74163137 C19.6606297,4.92344272 19.5553705,5.1722372 19.5553705,5.42103169 C19.5553705,5.66982617 19.6606297,5.91862065 19.832872,6.100432 C20.0146833,6.27267433 20.2634778,6.37793353 20.5122723,6.37793353 C20.7610668,6.37793353 21.0098613,6.27267433 21.1916726,6.100432 C21.363915,5.91862065 21.4691742,5.66982617 21.4691742,5.42103169 C21.4691742,5.1722372 21.363915,4.92344272 21.1916726,4.74163137 C20.8280499,4.38757769 20.1964947,4.38757769 19.832872,4.74163137 Z M17.6415668,6.37793353 C17.8903612,6.37793353 18.1391557,6.27267433 18.3209671,6.100432 C18.4932094,5.91862065 18.5984686,5.66982617 18.5984686,5.42103169 C18.5984686,5.1722372 18.4932094,4.92344272 18.3209671,4.74163137 C17.9669134,4.38757769 17.3162201,4.38757769 16.9621665,4.74163137 C16.7899241,4.92344272 16.6846649,5.1722372 16.6846649,5.42103169 C16.6846649,5.66982617 16.7899241,5.91862065 16.9621665,6.100432 C17.1439778,6.27267433 17.3927723,6.37793353 17.6415668,6.37793353 Z M14.7708612,6.37793353 C15.0196557,6.37793353 15.2684502,6.27267433 15.4502615,6.100432 C15.6225039,5.91862065 15.7277631,5.66982617 15.7277631,5.42103169 C15.7277631,5.1722372 15.6225039,4.92344272 15.4502615,4.74163137 C15.0866388,4.38757769 14.4455146,4.38757769 14.0914609,4.74163137 C13.9192186,4.92344272 13.8139594,5.1722372 13.8139594,5.42103169 C13.8139594,5.66982617 13.9192186,5.91862065 14.0914609,6.100432 C14.2732723,6.27267433 14.5220667,6.37793353 14.7708612,6.37793353 Z M5.20184274,6.37793353 L9.98635198,6.37793353 C10.5145618,6.37793353 10.9432538,5.94924151 10.9432538,5.42103169 C10.9432538,4.89282186 10.5145618,4.46412984 9.98635198,4.46412984 L5.20184274,4.46412984 C4.67363292,4.46412984 4.24494089,4.89282186 4.24494089,5.42103169 C4.24494089,5.94924151 4.67363292,6.37793353 5.20184274,6.37793353 Z M12.8570575,9.24863908 C8.10891055,9.24863908 4.24494089,13.1126087 4.24494089,17.8607557 C4.24494089,22.6089027 8.10891055,26.4728723 12.8570575,26.4728723 C17.6052045,26.4728723 21.4691742,22.6089027 21.4691742,17.8607557 C21.4691742,13.1126087 17.6052045,9.24863908 12.8570575,9.24863908 Z"/>
    <path fill="#13C1AC" d="M12.8570575,24.5590686 C9.16341639,24.5590686 6.15874459,21.5543968 6.15874459,17.8607557 C6.15874459,14.1671146 9.16341639,11.1624428 12.8570575,11.1624428 C16.5506987,11.1624428 19.5553705,14.1671146 19.5553705,17.8607557 C19.5553705,21.5543968 16.5506987,24.5590686 12.8570575,24.5590686"/>
    <path fill="#FFF" fill-opacity=".8" d="M12.8570575,24.5590686 C9.16341639,24.5590686 6.15874459,21.5543968 6.15874459,17.8607557 C6.15874459,14.1671146 9.16341639,11.1624428 12.8570575,11.1624428 C16.5506987,11.1624428 19.5553705,14.1671146 19.5553705,17.8607557 C19.5553705,21.5543968 16.5506987,24.5590686 12.8570575,24.5590686"/>
    <path fill="#13C1AC" d="M12.8570575,13.0762465 C10.2188791,13.0762465 8.07254828,15.2225773 8.07254828,17.8607557 C8.07254828,18.3889655 8.50124031,18.8176576 9.02945013,18.8176576 C9.55765995,18.8176576 9.98635198,18.3889655 9.98635198,17.8607557 C9.98635198,16.2780401 11.2743419,14.9900502 12.8570575,14.9900502 C13.3852673,14.9900502 13.8139594,14.5613581 13.8139594,14.0331483 C13.8139594,13.5049385 13.3852673,13.0762465 12.8570575,13.0762465"/>
  </g>
</svg>
