<svg xmlns="http://www.w3.org/2000/svg" width="48" height="48" viewBox="0 0 48 48">
  <g fill="none" fill-rule="evenodd">
    <path fill="#13C1AC" d="M28.1738565,30.7923025 C25.1698565,31.0013025 22.2528565,29.8443025 20.1978565,27.6743025 L20.7878565,26.9923025 C22.6228565,28.2053025 24.8038565,28.7783025 27.0138565,28.6193025 C32.5138565,28.2233025 36.6658565,23.4263025 36.2698565,17.9263025 C36.1978565,16.9403025 35.9808565,15.9883025 35.6368565,15.0943025 C36.6508565,16.5333025 37.2958565,18.2483025 37.4288565,20.0993025 C37.8248565,25.5993025 33.6738565,30.3963025 28.1738565,30.7923025 Z M12.3008565,36.7983025 C12.1258565,37.0003025 11.8828565,37.1213025 11.6168565,37.1413025 C11.3498565,37.1663025 11.0928565,37.0753025 10.8908565,36.8993025 L10.8898565,36.8993025 C10.6888565,36.7253025 10.5668565,36.4813025 10.5478565,36.2153025 C10.5278565,35.9493025 10.6138565,35.6913025 10.7888565,35.4893025 L14.7158565,30.9523025 L16.2278565,32.2613025 L12.3008565,36.7983025 Z M39.4238565,19.9543025 C38.9958565,14.0323025 34.2068565,9.26230247 28.2818565,8.85730247 C27.7648565,8.82830247 27.2978565,9.19530247 27.2238565,9.71530247 C27.1508565,10.2333025 27.4888565,10.7213025 28.0018565,10.8333025 C31.4418565,11.5823025 34.0218565,14.5593025 34.2748565,18.0703025 C34.5918565,22.4703025 31.2708565,26.3083025 26.8708565,26.6253025 C24.9738565,26.7613025 23.1268565,26.2213025 21.6018565,25.1133025 C21.5448565,24.9983025 21.4648565,24.8923025 21.3618565,24.8023025 C20.9438565,24.4393025 20.3118565,24.4863025 19.9508565,24.9033025 L16.0238565,29.4403025 L15.2678565,28.7863025 C14.8508565,28.4253025 14.2188565,28.4703025 13.8578565,28.8883025 L9.27685652,34.1813025 C8.75185652,34.7863025 8.49485652,35.5603025 8.55285652,36.3593025 C8.61085652,37.1583025 8.97585652,37.8873025 9.58185652,38.4113025 C10.1318565,38.8883025 10.8198565,39.1443025 11.5398565,39.1443025 C11.6128565,39.1443025 11.6868565,39.1413025 11.7608565,39.1363025 C12.5598565,39.0783025 13.2888565,38.7133025 13.8138565,38.1063025 L18.3948565,32.8133025 C18.5678565,32.6133025 18.6548565,32.3523025 18.6358565,32.0873025 C18.6168565,31.8223025 18.4928565,31.5763025 18.2928565,31.4033025 L17.5368565,30.7493025 L18.8788565,29.1983025 C21.1338565,31.5053025 24.2218565,32.8173025 27.4528565,32.8173025 C27.7398565,32.8173025 28.0288565,32.8083025 28.3178565,32.7863025 C34.9168565,32.3113025 39.8988565,26.5553025 39.4238565,19.9543025 Z"/>
    <path fill="#13C1AC" fill-opacity=".6" d="M12.3008565,36.7983025 C12.1258565,37.0003025 11.8828565,37.1213025 11.6168565,37.1413025 C11.3498565,37.1663025 11.0928565,37.0753025 10.8908565,36.8993025 L10.8898565,36.8993025 C10.6888565,36.7253025 10.5668565,36.4813025 10.5478565,36.2153025 C10.5278565,35.9493025 10.6138565,35.6913025 10.7888565,35.4893025 L14.7158565,30.9523025 L16.2278565,32.2613025 L12.3008565,36.7983025 Z"/>
    <path fill="#13C1AC" d="M28.1738565,30.7923025 C25.1698565,31.0013025 22.2528565,29.8443025 20.1978565,27.6743025 L20.7878565,26.9923025 C22.6228565,28.2053025 24.8038565,28.7783025 27.0138565,28.6193025 C32.5138565,28.2233025 36.6658565,23.4263025 36.2698565,17.9263025 C36.1978565,16.9403025 35.9808565,15.9883025 35.6368565,15.0943025 C36.6508565,16.5333025 37.2958565,18.2483025 37.4288565,20.0993025 C37.8248565,25.5993025 33.6738565,30.3963025 28.1738565,30.7923025 Z"/>
    <path fill="#FFF" fill-opacity=".8" d="M28.1738565,30.7923025 C25.1698565,31.0013025 22.2528565,29.8443025 20.1978565,27.6743025 L20.7878565,26.9923025 C22.6228565,28.2053025 24.8038565,28.7783025 27.0138565,28.6193025 C32.5138565,28.2233025 36.6658565,23.4263025 36.2698565,17.9263025 C36.1978565,16.9403025 35.9808565,15.9883025 35.6368565,15.0943025 C36.6508565,16.5333025 37.2958565,18.2483025 37.4288565,20.0993025 C37.8248565,25.5993025 33.6738565,30.3963025 28.1738565,30.7923025 Z"/>
  </g>
</svg>
