<svg xmlns="http://www.w3.org/2000/svg" width="48" height="48" viewBox="0 0 48 48">
  <g fill="none" fill-rule="evenodd">
    <path fill="#13C1AC" fill-opacity=".5" d="M37.4808498,14.8120033 L29.8658249,11.0555133 L29.864868,11.0555133 C29.3280461,10.7902938 28.7041461,10.7733046 28.1529706,11.0073774 C27.583614,11.2499447 27.1530082,11.7303601 26.9711968,12.3259242 C26.4879614,13.9068591 24.980841,15.0102101 23.3053059,15.0102101 C21.6297707,15.0102101 20.1226503,13.9068591 19.6394149,12.3259242 C19.4576035,11.7303601 19.0269977,11.2499447 18.4576411,11.0073774 C17.9074225,10.7723608 17.2825656,10.7902938 16.7457437,11.0555133 L9.13071879,14.8110595 C8.43026663,15.1555617 7.99487629,15.8502292 7.99487629,16.6222917 L7.99487629,24.0739219 C7.99487629,24.6826998 8.26855022,25.2537241 8.74604424,25.6397553 C9.22353827,26.0257866 9.84361066,26.178689 10.4512433,26.0597649 L12.6128846,25.6331484 C12.6549883,25.6274854 12.6942213,25.6340923 12.7286697,25.6624075 C12.7621613,25.6888351 12.7793855,25.7256449 12.7793855,25.7681178 L12.7793855,27.2801522 L12.7793855,37.5246101 C12.7793855,38.6421187 13.700882,39.5500944 14.8328969,39.5500944 L31.7777148,39.5500944 C32.9097297,39.5500944 33.8312262,38.6421187 33.8312262,37.5246101 L33.8312262,27.2801522 L33.8312262,25.7681178 C33.8312262,25.7256449 33.8484504,25.6888351 33.881942,25.6624075 C33.9154336,25.6340923 33.9546665,25.6265416 33.9977271,25.6331484 L36.1603253,26.0597649 C36.7650873,26.178689 37.3870735,26.0257866 37.8645675,25.6397553 C38.3420615,25.2537241 38.6157354,24.6826998 38.6157354,24.0739219 L38.6157354,16.6232355 C38.6157354,15.851173 38.1803451,15.1565055 37.4808498,14.8120033 L37.4808498,14.8120033 Z"/>
    <path fill="#13C1AC" d="M36.7019317,24.0739219 C36.7019317,24.1163948 36.6847075,24.1522608 36.6512159,24.1796322 C36.6167675,24.2070036 36.5775345,24.216442 36.5354308,24.2088913 L34.3728326,23.7822749 C34.1919782,23.7464089 34.0111237,23.7416897 33.8312262,23.7539596 L33.8312262,21.617102 C33.8312262,21.0961014 33.4025342,20.6732603 32.8743243,20.6732603 C32.3461145,20.6732603 31.9174225,21.0961014 31.9174225,21.617102 L31.9174225,25.7681178 L31.9174225,27.2801522 L31.9174225,32.9432025 L14.6931892,32.9432025 L14.6931892,27.2801522 L14.6931892,25.7681178 L14.6931892,21.617102 C14.6931892,21.0961014 14.2644972,20.6732603 13.7362874,20.6732603 C13.2080776,20.6732603 12.7793855,21.0961014 12.7793855,21.617102 L12.7793855,23.7539596 C12.7334542,23.7511281 12.6884799,23.7426335 12.6425486,23.7426335 C12.5076254,23.7426335 12.3717453,23.7558473 12.2368222,23.7822749 L10.0761378,24.2088913 C10.0302065,24.216442 9.99288735,24.2070036 9.96035269,24.1805761 C9.92590422,24.1522608 9.90867999,24.1163948 9.90867999,24.0739219 L9.90867999,16.6222917 C9.90867999,16.5703804 9.93834395,16.5231883 9.98618904,16.4995923 L17.6012139,12.7440461 C17.6251365,12.7317762 17.6567143,12.7223378 17.6988179,12.7402708 C17.7227405,12.7497092 17.7811115,12.7836875 17.8069478,12.8705209 C18.5313225,15.2423951 20.7924816,16.8978935 23.3053059,16.8978935 C25.8181301,16.8978935 28.0792892,15.2423951 28.8036639,12.8705209 C28.8295002,12.7836875 28.8878712,12.7497092 28.9117938,12.7402708 C28.9548544,12.7213939 28.9854752,12.7317762 29.0103547,12.7440461 L36.6253796,16.5005361 C36.6722678,16.5231883 36.7019317,16.5703804 36.7019317,16.6232355 L36.7019317,24.0739219 Z M31.7777148,37.662411 L14.8328969,37.662411 C14.7553878,37.662411 14.6931892,37.6010613 14.6931892,37.5246101 L14.6931892,34.8308859 L31.9174225,34.8308859 L31.9174225,37.5246101 C31.9174225,37.6010613 31.8552239,37.662411 31.7777148,37.662411 L31.7777148,37.662411 Z M37.4808498,14.8120033 L29.8658249,11.0555133 L29.864868,11.0555133 C29.3280461,10.7902938 28.7041461,10.7733046 28.1529706,11.0073774 C27.583614,11.2499447 27.1530082,11.7303601 26.9711968,12.3259242 C26.4879614,13.9068591 24.980841,15.0102101 23.3053059,15.0102101 C21.6297707,15.0102101 20.1226503,13.9068591 19.6394149,12.3259242 C19.4576035,11.7303601 19.0269977,11.2499447 18.4576411,11.0073774 C17.9074225,10.7723608 17.2825656,10.7902938 16.7457437,11.0555133 L9.13071879,14.8110595 C8.43026663,15.1555617 7.99487629,15.8502292 7.99487629,16.6222917 L7.99487629,24.0739219 C7.99487629,24.6826998 8.26855022,25.2537241 8.74604424,25.6397553 C9.22353827,26.0257866 9.84361066,26.178689 10.4512433,26.0597649 L12.6128846,25.6331484 C12.6549883,25.6274854 12.6942213,25.6340923 12.7286697,25.6624075 C12.7621613,25.6888351 12.7793855,25.7256449 12.7793855,25.7681178 L12.7793855,27.2801522 L12.7793855,37.5246101 C12.7793855,38.6421187 13.700882,39.5500944 14.8328969,39.5500944 L31.7777148,39.5500944 C32.9097297,39.5500944 33.8312262,38.6421187 33.8312262,37.5246101 L33.8312262,27.2801522 L33.8312262,25.7681178 C33.8312262,25.7256449 33.8484504,25.6888351 33.881942,25.6624075 C33.9154336,25.6340923 33.9546665,25.6265416 33.9977271,25.6331484 L36.1603253,26.0597649 C36.7650873,26.178689 37.3870735,26.0257866 37.8645675,25.6397553 C38.3420615,25.2537241 38.6157354,24.6826998 38.6157354,24.0739219 L38.6157354,16.6232355 C38.6157354,15.851173 38.1803451,15.1565055 37.4808498,14.8120033 L37.4808498,14.8120033 Z"/>
    <path fill="#FFF" fill-opacity=".7" d="M36.7019317,24.0739219 C36.7019317,24.1163948 36.6847075,24.1522608 36.6512159,24.1796322 C36.6167675,24.2070036 36.5775345,24.216442 36.5354308,24.2088913 L34.3728326,23.7822749 C34.1919782,23.7464089 34.0111237,23.7416897 33.8312262,23.7539596 L33.8312262,21.617102 C33.8312262,21.0961014 33.4025342,20.6732603 32.8743243,20.6732603 C32.3461145,20.6732603 31.9174225,21.0961014 31.9174225,21.617102 L31.9174225,25.7681178 L31.9174225,27.2801522 L31.9174225,32.9432025 L14.6931892,32.9432025 L14.6931892,27.2801522 L14.6931892,25.7681178 L14.6931892,21.617102 C14.6931892,21.0961014 14.2644972,20.6732603 13.7362874,20.6732603 C13.2080776,20.6732603 12.7793855,21.0961014 12.7793855,21.617102 L12.7793855,23.7539596 C12.7334542,23.7511281 12.6884799,23.7426335 12.6425486,23.7426335 C12.5076254,23.7426335 12.3717453,23.7558473 12.2368222,23.7822749 L10.0761378,24.2088913 C10.0302065,24.216442 9.99288735,24.2070036 9.96035269,24.1805761 C9.92590422,24.1522608 9.90867999,24.1163948 9.90867999,24.0739219 L9.90867999,16.6222917 C9.90867999,16.5703804 9.93834395,16.5231883 9.98618904,16.4995923 L17.6012139,12.7440461 C17.6251365,12.7317762 17.6567143,12.7223378 17.6988179,12.7402708 C17.7227405,12.7497092 17.7811115,12.7836875 17.8069478,12.8705209 C18.5313225,15.2423951 20.7924816,16.8978935 23.3053059,16.8978935 C25.8181301,16.8978935 28.0792892,15.2423951 28.8036639,12.8705209 C28.8295002,12.7836875 28.8878712,12.7497092 28.9117938,12.7402708 C28.9548544,12.7213939 28.9854752,12.7317762 29.0103547,12.7440461 L36.6253796,16.5005361 C36.6722678,16.5231883 36.7019317,16.5703804 36.7019317,16.6232355 L36.7019317,24.0739219 Z"/>
  </g>
</svg>
