<svg xmlns="http://www.w3.org/2000/svg" width="48" height="48" viewBox="0 0 48 48">
  <g fill="none" fill-rule="evenodd">
    <path fill="#13C1AC" fill-opacity=".4" d="M24.3420445,10.4995542 C15.0419154,10.4995542 9.03161492,15.5421977 9.03161492,23.3456338 C9.03161492,28.4831173 11.4898958,33.8007967 15.1490884,36.5777123 C15.8304026,37.0955387 16.5356392,37.292806 17.2447035,37.292806 C18.4724086,37.2918576 19.7106395,36.7010043 20.8522235,36.1556742 C22.0100747,35.602757 23.2071589,35.0308717 24.3420445,35.0308717 C25.477887,35.0308717 26.6749712,35.602757 27.8328224,36.1556742 C29.6337117,37.0158731 31.6747834,37.9908285 33.5359574,36.5777123 C37.1951501,33.7998483 39.6524741,28.4821689 39.6524741,23.3456338 C39.6524741,15.5421977 33.6431305,10.4995542 24.3420445,10.4995542"/>
    <path fill="#13C1AC" d="M32.3723648,35.0716529 C31.4901013,35.7431202 30.3877504,35.2698685 28.6634132,34.4466572 C28.099798,34.1773116 27.5007775,33.8956367 26.8759206,33.6604335 C26.8156358,33.6073231 26.7601355,33.5494707 26.6845402,33.5115347 L22.8569328,31.6147345 C22.3823095,31.3795312 21.8081684,31.5711081 21.5727705,32.0386693 C21.3364158,32.507179 21.5277962,33.0771674 22.0005057,33.3114223 L22.3363782,33.4773923 C21.5182271,33.7372539 20.7421797,34.102388 20.0216326,34.4466572 C18.2963386,35.2708169 17.1949446,35.7412234 16.3126811,35.0716529 C13.1022754,32.635213 10.9454186,27.9226128 10.9454186,23.3456338 C10.9454186,15.272852 17.8657328,12.3963545 24.3420445,12.3963545 C30.8183562,12.3963545 37.7386704,15.272852 37.7386704,23.3456338 C37.7386704,27.9226128 35.5818136,32.635213 32.3723648,35.0716529 M24.3420445,10.4995542 C33.6431305,10.4995542 39.6524741,15.5421977 39.6524741,23.3456338 C39.6524741,28.4821689 37.1951501,33.7998483 33.5359574,36.5777123 C31.6747834,37.9908285 29.6337117,37.0158731 27.8328224,36.1556742 C26.6749712,35.602757 25.477887,35.0308717 24.3420445,35.0308717 C23.2071589,35.0308717 22.0100747,35.602757 20.8522235,36.1556742 C19.7106395,36.7010043 18.4724086,37.2918576 17.2447035,37.292806 C16.5356392,37.292806 15.8304026,37.0955387 15.1490884,36.5777123 C11.4898958,33.8007967 9.03161492,28.4831173 9.03161492,23.3456338 C9.03161492,15.5421977 15.0419154,10.4995542 24.3420445,10.4995542 Z M19.557918,22.0306771 L18.6010162,22.0306771 L18.6010162,21.0822769 C18.6010162,20.5587601 18.1723241,20.1338768 17.6441143,20.1338768 C17.1159045,20.1338768 16.6872125,20.5587601 16.6872125,21.0822769 L16.6872125,22.0306771 L15.7303106,22.0306771 C15.2021008,22.0306771 14.7734088,22.4555603 14.7734088,22.9790772 C14.7734088,23.502594 15.2021008,23.9274773 15.7303106,23.9274773 L16.6872125,23.9274773 L16.6872125,24.8758774 C16.6872125,25.3993943 17.1159045,25.8242775 17.6441143,25.8242775 C18.1723241,25.8242775 18.6010162,25.3993943 18.6010162,24.8758774 L18.6010162,23.9274773 L19.557918,23.9274773 C20.0861278,23.9274773 20.5148199,23.502594 20.5148199,22.9790772 C20.5148199,22.4555603 20.0861278,22.0306771 19.557918,22.0306771 Z M29.404438,25.1509135 C29.2321957,25.3311095 29.1269365,25.5776935 29.1269365,25.8242775 C29.1269365,26.0708616 29.2321957,26.3174456 29.404438,26.4976416 C29.5862494,26.6683536 29.8350439,26.7726777 30.0838383,26.7726777 C30.3326328,26.7726777 30.5814273,26.6683536 30.7632387,26.4976416 C30.935481,26.3174456 31.0407402,26.0708616 31.0407402,25.8242775 C31.0407402,25.5776935 30.935481,25.3311095 30.7632387,25.1509135 C30.409185,24.8000054 29.7584917,24.8000054 29.404438,25.1509135 Z M26.5337325,22.3057131 C26.3614902,22.4859091 26.2562309,22.7324931 26.2562309,22.9790772 C26.2562309,23.2351452 26.3614902,23.4722452 26.5337325,23.6524413 C26.7155438,23.8231533 26.9643383,23.9274773 27.2131328,23.9274773 C27.4714963,23.9274773 27.7107218,23.8231533 27.8925331,23.6524413 C28.0647754,23.4722452 28.1700346,23.2351452 28.1700346,22.9790772 C28.1700346,22.7324931 28.0647754,22.4859091 27.8925331,22.3057131 C27.5384794,21.9548051 26.8877862,21.9548051 26.5337325,22.3057131 Z M32.2751436,22.3057131 C32.1029012,22.4859091 31.997642,22.7324931 31.997642,22.9790772 C31.997642,23.2351452 32.1029012,23.4722452 32.2751436,23.6524413 C32.4569549,23.8231533 32.7057494,23.9274773 32.9545439,23.9274773 C33.2033384,23.9274773 33.4521328,23.8231533 33.6339442,23.6524413 C33.8061865,23.4722452 33.9114457,23.2351452 33.9114457,22.9790772 C33.9114457,22.7324931 33.8061865,22.4859091 33.6339442,22.3057131 C33.2798905,21.9548051 32.6291973,21.9548051 32.2751436,22.3057131 Z M29.404438,19.4605127 C29.2321957,19.6407088 29.1269365,19.8872928 29.1269365,20.1338768 C29.1269365,20.3804609 29.2321957,20.6270449 29.404438,20.8072409 C29.5862494,20.9779529 29.8350439,21.0822769 30.0838383,21.0822769 C30.3326328,21.0822769 30.5814273,20.9779529 30.7632387,20.8072409 C30.935481,20.6270449 31.0407402,20.3804609 31.0407402,20.1338768 C31.0407402,19.8872928 30.935481,19.6407088 30.7632387,19.4605127 C30.409185,19.1096047 29.7680607,19.1096047 29.404438,19.4605127 Z"/>
  </g>
</svg>
