<svg xmlns="http://www.w3.org/2000/svg" width="48" height="48" viewBox="0 0 48 48">
  <g fill="none" fill-rule="evenodd">
    <path fill="#13C1AC" fill-opacity=".5" d="M37.2751094,23.2053444 C37.1420835,19.4207704 35.4242311,15.8991066 32.438326,13.5319617 C29.3682032,11.0981368 25.3860394,10.1379428 21.510105,10.8799974 C13.0356855,12.5060402 9.91196946,20.9448878 10.5761419,28.5702377 C10.7656321,30.7449627 12.0451689,34.4742875 14.1888956,35.4983039 C15.9670403,36.3470468 18.9184926,37.4282176 22.8776878,37.4282176 C29.9883527,37.4282176 32.4861771,35.3849477 32.7464867,35.3849477 L32.7484008,35.3849477 C35.7572743,32.5272275 37.4129204,27.1013695 37.2751094,23.2053444"/>
    <path fill="#FFF" fill-opacity=".4" d="M15.0932803,17.0240958 L22.9580776,18.7825462 C24.2108179,19.0626028 25.3391454,19.7589339 25.9439826,20.694361 C26.4339773,21.4516568 26.7564933,22.3280243 26.7564933,23.2291587 L26.7564933,29.0274729 C26.7564933,29.5066173 26.3708139,29.9257496 25.9095298,30.0467264 C23.3877799,30.7116226 18.3184405,31.5765593 12.8222698,29.9724257 C12.6662754,29.4170754 12.5418627,28.866488 12.4987968,28.3711499 C12.1686246,24.5808604 12.8107856,20.220932 15.0932803,17.0240958"/>
    <path fill="#FFF" fill-opacity=".6" d="M15.0932803,17.0240958 L22.9580776,18.7825462 C24.2108179,19.0626028 25.3391454,19.7589339 25.9439826,20.694361 C26.4339773,21.4516568 26.7564933,22.3280243 26.7564933,23.2291587 L26.7564933,29.0274729 C26.7564933,29.5066173 26.3708139,29.9257496 25.9095298,30.0467264 C23.3877799,30.7116226 18.3184405,31.5765593 12.8222698,29.9724257 C12.6662754,29.4170754 12.5418627,28.866488 12.4987968,28.3711499 C12.1686246,24.5808604 12.8107856,20.220932 15.0932803,17.0240958"/>
    <path fill="#13C1AC" d="M31.5090588,33.6569795 C31.4123997,33.7312803 29.1691428,35.3849477 22.8776878,35.3849477 C19.2783324,35.3849477 16.6159005,34.4752401 15.0167186,33.7112762 C14.5420363,33.4845638 14.0750101,32.8977786 13.6701903,32.157629 C15.6607937,32.6091488 17.5738783,32.7901378 19.3175703,32.7901378 C22.2814638,32.7901378 24.8261823,32.3033728 26.3985675,31.8890033 C27.6991588,31.5470295 28.670535,30.3706014 28.670535,29.0274729 L28.670535,23.2291587 C28.670535,21.9612836 28.2427467,20.7277011 27.5527346,19.662724 C26.6655763,18.2910183 25.1735808,17.3184409 23.4097914,16.9240755 L16.5422099,15.3923376 C17.9145777,14.1158892 19.6563557,13.1604581 21.8804721,12.7337052 C22.6145071,12.5927244 23.3475851,12.5231865 24.08162,12.5231865 C26.6713184,12.5231865 29.1968964,13.3871706 31.2477921,15.0132133 C33.7886824,17.027906 35.2500533,19.9103931 35.3629817,23.1300911 C35.4998357,26.990871 33.7714561,31.7099196 31.5090588,33.6569795 M15.0932803,17.0240958 L22.9580776,18.7825462 C24.2108179,19.0626028 25.3391454,19.7589339 25.9439826,20.694361 C26.4339773,21.4516568 26.7564933,22.3280243 26.7564933,23.2291587 L26.7564933,29.0274729 C26.7564933,29.5066173 26.3708139,29.9257496 25.9095298,30.0467264 C23.3877799,30.7116226 18.3184405,31.5765593 12.8222698,29.9724257 C12.6662754,29.4170754 12.5418627,28.866488 12.4987968,28.3711499 C12.1686246,24.5808604 12.8107856,20.220932 15.0932803,17.0240958 M37.2751094,23.2053444 C37.4129204,27.1013695 35.7572743,32.5272275 32.7484008,35.3849477 L32.7464867,35.3849477 C32.4861771,35.3849477 29.9883527,37.4282176 22.8776878,37.4282176 C18.9184926,37.4282176 15.9670403,36.3470468 14.1888956,35.4983039 C12.0451689,34.4742875 10.7656321,30.7449627 10.5761419,28.5702377 C9.91196946,20.9448878 13.0356855,12.5060402 21.510105,10.8799974 C25.3860394,10.1379428 29.3682032,11.0981368 32.438326,13.5319617 C35.4242311,15.8991066 37.1420835,19.4207704 37.2751094,23.2053444 Z M23.8856222,28.7174103 C24.4138977,28.7174103 24.842643,28.2906574 24.842643,27.7648369 L24.842643,22.0493966 C24.842643,21.5235761 24.4138977,21.0968232 23.8856222,21.0968232 C23.3573467,21.0968232 22.9286013,21.5235761 22.9286013,22.0493966 L22.9286013,27.7648369 C22.9286013,28.2906574 23.3573467,28.7174103 23.8856222,28.7174103 Z M30.5847681,23.9545434 C30.0564926,23.9545434 29.6277472,24.3812963 29.6277472,24.9071168 L29.6277472,25.8596901 C29.6277472,26.3855106 30.0564926,26.8122635 30.5847681,26.8122635 C31.1130436,26.8122635 31.5417889,26.3855106 31.5417889,25.8596901 L31.5417889,24.9071168 C31.5417889,24.3812963 31.1130436,23.9545434 30.5847681,23.9545434 Z"/>
  </g>
</svg>
