<svg width="48" height="48" fill="none" xmlns="http://www.w3.org/2000/svg" viewBox="0 0 48 48"><path fill-rule="evenodd" clip-rule="evenodd" d="M23.174 39.7a1.824 1.824 0 0 0 1.656 0c2.084-1.06 12.512-6.861 13.142-16.925.45-7.208-4.54-13.522-11.608-14.685-4.132-.68-8.302.47-11.446 3.155A13.994 13.994 0 0 0 10 21.94c.027 10.515 10.979 16.64 13.174 17.76" fill="#F75883"/><path fill-rule="evenodd" clip-rule="evenodd" d="M16.214 12.869A12.012 12.012 0 0 1 24.031 10c.667 0 1.339.054 2.009.165 6.05.996 10.32 6.404 9.936 12.58-.554 8.861-9.897 14.152-11.975 15.222C21.816 36.838 12.024 31.259 12 22.03a11.991 11.991 0 0 1 4.214-9.162" fill="#FFCBD9"/><path d="M30 22c0 1.757-.784 3.393-2.396 4.854-1.224 1.102-2.588 1.795-3.108 2.033-.168.075-.38.113-.5.113-.116 0-.332-.038-.496-.113a12.97 12.97 0 0 1-3.064-2.033C18.82 25.394 18 23.761 18 22c0-2.204 1.708-3.986 3.824-3.999a3.63 3.63 0 0 1 2.172.718c.64-.472 1.4-.718 2.18-.718C28.28 18 30 19.782 30 22z" fill="#CF4A6E"/></svg>