<svg xmlns="http://www.w3.org/2000/svg" width="48" height="48" viewBox="0 0 48 48">
  <g fill="none" fill-rule="evenodd">
    <path fill="#13C1AC" fill-opacity=".4" d="M37.2573097,26.7215177 C37.2776908,26.6965046 37.307336,26.6826084 37.3258642,26.6538896 C37.7260742,26.065618 37.9650885,25.3763675 38.0160412,24.6621038 C38.0947862,23.5763489 37.7455289,22.5248713 37.033118,21.7022175 C36.7820604,21.4122505 36.4865349,21.1787947 36.1743341,20.9731312 L36.1743341,18.4597754 C36.1743341,15.3840876 33.2941192,12.8827752 29.7524461,12.8827752 L26.9278159,12.8827752 C25.3992361,12.8827752 24.052233,13.6340953 23.204566,14.7754349 C22.356899,13.6340953 21.009896,12.8827752 19.4813162,12.8827752 L16.656686,12.8827752 C13.1150129,12.8827752 10.2347979,15.3840876 10.2347979,18.4597754 L10.2347979,20.9610878 C9.1221771,21.6892477 8.38197391,22.9417567 8.38197391,24.3684312 C8.38197391,25.2198038 8.66175034,26.0359728 9.15089588,26.7224441 C8.67657293,27.2217802 8.38197391,27.8915761 8.38197391,28.6317793 L8.38197391,31.4110153 C8.38197391,32.9433007 9.62892447,34.1902513 11.1612099,34.1902513 L11.1612099,35.1166633 C11.1612099,35.6289691 11.5753161,36.0430753 12.0876219,36.0430753 C12.5999278,36.0430753 13.0140339,35.6289691 13.0140339,35.1166633 L13.0140339,34.1902513 L33.3950981,34.1902513 L33.3950981,35.1166633 C33.3950981,35.6289691 33.8092042,36.0430753 34.3215101,36.0430753 C34.8338159,36.0430753 35.2479221,35.6289691 35.2479221,35.1166633 L35.2479221,34.1902513 C36.7802076,34.1902513 38.0271581,32.9433007 38.0271581,31.4110153 L38.0271581,28.6317793 C38.0271581,27.8906497 37.7316327,27.2208538 37.2573097,26.7215177 Z"/>
    <path fill="#13C1AC" d="M36.1743341,31.4110153 C36.1743341,31.9223947 35.7593015,32.3374273 35.2479221,32.3374273 L11.1612099,32.3374273 C10.6498305,32.3374273 10.2347979,31.9223947 10.2347979,31.4110153 L10.2347979,28.6317793 C10.2347979,28.1203998 10.6498305,27.7053673 11.1612099,27.7053673 L35.2479221,27.7053673 C35.7593015,27.7053673 36.1743341,28.1203998 36.1743341,28.6317793 L36.1743341,31.4110153 Z M12.4563339,22.1468952 C13.681977,22.1468952 14.6778699,23.1437145 14.6778699,24.3684312 C14.6778699,24.9103822 14.4805441,25.4328786 14.1229491,25.8367942 C14.1192435,25.8414263 14.1173906,25.8479112 14.1146114,25.8525432 L11.1612099,25.8525432 C11.0435556,25.8525432 10.9323862,25.8729243 10.8193639,25.8868205 C10.8063941,25.8719979 10.8026885,25.8516168 10.7897187,25.8358678 C10.4321237,25.4319522 10.2347979,24.9094558 10.2347979,24.3684312 C10.2347979,23.1437145 11.2316172,22.1468952 12.4563339,22.1468952 Z M12.0876219,18.4597754 C12.0876219,16.40592 14.1368453,14.7355992 16.656686,14.7355992 L19.4813162,14.7355992 C21.0237921,14.7355992 22.278154,15.989961 22.278154,17.532437 L22.278154,25.8525432 L16.2472118,25.8525432 C16.4306414,25.3837788 16.5306939,24.8816635 16.5306939,24.3684312 C16.5306939,22.1218821 14.702883,20.2940712 12.4563339,20.2940712 C12.3303419,20.2940712 12.2108347,20.3200107 12.0876219,20.3311277 L12.0876219,18.4597754 Z M26.9278159,14.7355992 L29.7524461,14.7355992 C32.2722867,14.7355992 34.3215101,16.40592 34.3215101,18.4597754 L34.3215101,20.3172315 C34.2955706,20.3153787 34.2714838,20.307041 34.2455443,20.3051881 C33.1579366,20.2264431 32.1092382,20.5757005 31.2865844,21.2881113 C30.4630041,22.0005221 29.9673737,22.9908566 29.889555,24.075685 C29.8450873,24.6871169 29.9544039,25.2902112 30.1748899,25.8525432 L24.130978,25.8525432 L24.130978,17.532437 C24.130978,15.989961 25.3853399,14.7355992 26.9278159,14.7355992 Z M35.2479221,25.8525432 L32.2519057,25.8525432 C32.227819,25.8062226 32.2176284,25.7561964 32.1842776,25.7145079 C31.8572542,25.2837263 31.6979113,24.7491865 31.7368206,24.2100148 C31.7794355,23.6171111 32.0508743,23.0770129 32.4983313,22.6888462 C32.9485675,22.2997532 33.5183109,22.1116916 34.1112146,22.1524537 C34.7041182,22.1950686 35.2442164,22.4665074 35.6323831,22.9148908 C36.0205497,23.3632742 36.2113906,23.9367232 36.1687756,24.5277741 C36.1400569,24.9177935 36.0103592,25.2929904 35.7935788,25.6135289 C35.733362,25.7015381 35.7009376,25.7978849 35.674998,25.8960846 C35.5351098,25.8738507 35.3942952,25.8525432 35.2479221,25.8525432 Z M37.2573097,26.7215177 C37.2776908,26.6965046 37.307336,26.6826084 37.3258642,26.6538896 C37.7260742,26.065618 37.9650885,25.3763675 38.0160412,24.6621038 C38.0947862,23.5763489 37.7455289,22.5248713 37.033118,21.7022175 C36.7820604,21.4122505 36.4865349,21.1787947 36.1743341,20.9731312 L36.1743341,18.4597754 C36.1743341,15.3840876 33.2941192,12.8827752 29.7524461,12.8827752 L26.9278159,12.8827752 C25.3992361,12.8827752 24.052233,13.6340953 23.204566,14.7754349 C22.356899,13.6340953 21.009896,12.8827752 19.4813162,12.8827752 L16.656686,12.8827752 C13.1150129,12.8827752 10.2347979,15.3840876 10.2347979,18.4597754 L10.2347979,20.9610878 C9.1221771,21.6892477 8.38197391,22.9417567 8.38197391,24.3684312 C8.38197391,25.2198038 8.66175034,26.0359728 9.15089588,26.7224441 C8.67657293,27.2217802 8.38197391,27.8915761 8.38197391,28.6317793 L8.38197391,31.4110153 C8.38197391,32.9433007 9.62892447,34.1902513 11.1612099,34.1902513 L11.1612099,35.1166633 C11.1612099,35.6289691 11.5753161,36.0430753 12.0876219,36.0430753 C12.5999278,36.0430753 13.0140339,35.6289691 13.0140339,35.1166633 L13.0140339,34.1902513 L33.3950981,34.1902513 L33.3950981,35.1166633 C33.3950981,35.6289691 33.8092042,36.0430753 34.3215101,36.0430753 C34.8338159,36.0430753 35.2479221,35.6289691 35.2479221,35.1166633 L35.2479221,34.1902513 C36.7802076,34.1902513 38.0271581,32.9433007 38.0271581,31.4110153 L38.0271581,28.6317793 C38.0271581,27.8906497 37.7316327,27.2208538 37.2573097,26.7215177 Z"/>
    <path fill="#FFF" fill-opacity=".7" d="M12.4563339 22.1468952C13.681977 22.1468952 14.6778699 23.1437145 14.6778699 24.3684312 14.6778699 24.9103822 14.4805441 25.4328786 14.1229491 25.8367942 14.1192435 25.8414263 14.1173906 25.8479112 14.1146114 25.8525432L11.1612099 25.8525432C11.0435556 25.8525432 10.9323862 25.8729243 10.8193639 25.8868205 10.8063941 25.8719979 10.8026885 25.8516168 10.7897187 25.8358678 10.4321237 25.4319522 10.2347979 24.9094558 10.2347979 24.3684312 10.2347979 23.1437145 11.2316172 22.1468952 12.4563339 22.1468952zM35.2479221 25.8525432L32.2519057 25.8525432C32.227819 25.8062226 32.2176284 25.7561964 32.1842776 25.7145079 31.8572542 25.2837263 31.6979113 24.7491865 31.7368206 24.2100148 31.7794355 23.6171111 32.0508743 23.0770129 32.4983313 22.6888462 32.9485675 22.2997532 33.5183109 22.1116916 34.1112146 22.1524537 34.7041182 22.1950686 35.2442164 22.4665074 35.6323831 22.9148908 36.0205497 23.3632742 36.2113906 23.9367232 36.1687756 24.5277741 36.1400569 24.9177935 36.0103592 25.2929904 35.7935788 25.6135289 35.733362 25.7015381 35.7009376 25.7978849 35.674998 25.8960846 35.5351098 25.8738507 35.3942952 25.8525432 35.2479221 25.8525432z"/>
  </g>
</svg>
