<svg xmlns="http://www.w3.org/2000/svg" width="48" height="48" viewBox="0 0 48 48">
  <g fill="none" fill-rule="evenodd">
    <path fill="#13C1AC" fill-opacity=".35" d="M18,14.0055 L11.98,14.0055 C10.337,14.0055 9,15.3425 9,16.9865 L9,27.0335 C9,27.7635 9.406,28.3955 10,28.7325 L10,36.0605 C10,37.6725 11.312,38.9845 12.924,38.9845 L35.076,38.9845 C36.688,38.9845 38,37.6725 38,36.0605 L38,28.7325 C38.594,28.3955 39,27.7635 39,27.0335 L39,16.9865 C39,15.3425 37.663,14.0055 36.02,14.0055 L18,14.0055 Z"/>
    <path fill="#FFF" fill-opacity=".5" d="M26,25.2505 L26,28.9955 L22,28.9955 L22,25.2505 C22,25.1215 22.105,25.0155 22.235,25.0155 L25.765,25.0155 C25.895,25.0155 26,25.1215 26,25.2505 Z"/>
    <path fill="#13C1AC" d="M36.02,14.0055 C37.663,14.0055 39,15.3425 39,16.9865 L39,27.0335 C39,27.7635 38.594,28.3955 38,28.7325 L38,36.0605 C38,37.6725 36.688,38.9845 35.076,38.9845 L12.924,38.9845 C11.312,38.9845 10,37.6725 10,36.0605 L10,28.7325 C9.406,28.3955 9,27.7635 9,27.0335 L9,16.9865 C9,15.3425 10.337,14.0055 11.98,14.0055 L18,14.0055 L18,11.9955 C18,10.3525 19.336,9.0155 20.979,9.0155 L27,9.0155 C28.643,9.0155 29.979,10.3525 29.979,11.9955 L29.979,14.0055 L36.02,14.0055 Z M36,36.0605 L36,28.9955 L28,28.9955 L28,29.8295 C28,30.4715 27.477,30.9955 26.833,30.9955 L21.167,30.9955 C20.523,30.9955 20,30.4715 20,29.8295 L20,28.9955 L12,28.9955 L12,36.0605 C12,36.5705 12.415,36.9845 12.924,36.9845 L35.076,36.9845 C35.585,36.9845 36,36.5705 36,36.0605 Z M25,31.995 C25.552,31.995 26,32.442 26,32.995 C26,33.548 25.552,33.995 25,33.995 L23,33.995 C22.448,33.995 22,33.548 22,32.995 C22,32.442 22.448,31.995 23,31.995 L25,31.995 Z M26,25.2505 C26,25.1215 25.895,25.0155 25.765,25.0155 L22.235,25.0155 C22.105,25.0155 22,25.1215 22,25.2505 L22,28.9955 L26,28.9955 L26,25.2505 Z M23.29,26.3046 C23.66,25.9346 24.33,25.9346 24.71,26.3046 C24.89,26.4946 25,26.7546 25,27.0146 C25,27.2846 24.9,27.5346 24.71,27.7246 C24.52,27.9146 24.27,28.0146 24,28.0146 C23.73,28.0146 23.48,27.9146 23.29,27.7246 C23.1,27.5346 23,27.2846 23,27.0146 C23,26.7546 23.11,26.4946 23.29,26.3046 Z M11.98,16.0055 C11.44,16.0055 11,16.4455 11,16.9865 L11,26.9955 L20,26.9955 L20,25.2505 C20,24.0185 21.003,23.0155 22.235,23.0155 L25.765,23.0155 C26.997,23.0155 28,24.0185 28,25.2505 L28,26.9955 L37,26.9955 L37,16.9865 C37,16.4455 36.56,16.0055 36.02,16.0055 L11.98,16.0055 Z M20,11.9955 L20,14.0055 L27.979,14.0055 L27.979,11.9955 C27.979,11.4555 27.54,11.0155 27,11.0155 L20.979,11.0155 C20.439,11.0155 20,11.4555 20,11.9955 Z"/>
  </g>
</svg>
