<svg xmlns="http://www.w3.org/2000/svg" width="48" height="48" viewBox="0 0 48 48">
  <g fill="none" fill-rule="evenodd">
    <path fill="#13C1AC" fill-opacity=".5" d="M32.2576294,25.4704678 L31.2639172,24.4758092 C32.5093698,23.2786226 34.1702888,22.4685106 36.0564491,22.4685106 C36.5779114,22.4685106 37.0000025,22.0483123 37.0028417,21.52685 C37.0056809,21.0063341 36.5873754,20.5814038 36.0659131,20.5757255 L26.4164945,20.4810862 C25.7350919,19.3946275 24.7546292,18.6110145 23.6076014,18.2466534 C22.6195676,17.9343438 21.5416264,17.9438077 20.4882915,18.2599029 L20.0529509,16.9548275 L21.338152,16.312227 C21.80567,16.078468 21.9949485,15.5106325 21.7611895,15.0431145 C21.5264841,14.5746502 20.9577022,14.3872645 20.4911307,14.6191307 L20.1352871,14.7979989 L20.3340295,13.6017587 C20.3804028,13.3273048 20.3027986,13.0471726 20.1220376,12.8351807 C19.9431694,12.6222424 19.6791259,12.5001577 19.4008865,12.5001577 C15.260419,12.5001577 11.8922079,15.8683689 11.8922079,20.0088363 L11.8922079,21.522118 C11.8922079,22.0454731 12.3152454,22.4685106 12.8386004,22.4685106 C13.965754,22.4685106 15.0077322,22.7628387 15.9351969,23.248338 L14.7654557,25.0029499 C14.1720676,24.7531022 13.5218959,24.6139825 12.8386004,24.6139825 C10.0902764,24.6139825 7.85489721,26.8493617 7.85489721,29.5976857 C7.85489721,32.3469561 10.0902764,34.5823354 12.8386004,34.5823354 C15.5878708,34.5823354 17.8232501,32.3469561 17.8232501,29.5976857 C17.8232501,28.2131134 17.2535217,26.9591433 16.3374137,26.0553384 L17.4863343,24.3338503 C19.0232758,25.7354577 19.9677756,27.727614 19.9677756,29.5976857 C19.9677756,30.1210408 20.3917595,30.5440783 20.9141682,30.5440783 L27.9808814,30.5440783 C28.5042365,30.5440783 28.927274,30.1210408 28.927274,29.5976857 C28.927274,28.366429 29.3399011,27.0812279 30.0582131,25.9465032 L30.9194303,26.8086669 C30.3790402,27.604583 30.062945,28.5651715 30.062945,29.5976857 C30.062945,32.3469561 32.2992707,34.5823354 35.0475947,34.5823354 C37.7959187,34.5823354 40.0322443,32.3469561 40.0322443,29.5976857 C40.0322443,26.8493617 37.7959187,24.6139825 35.0475947,24.6139825 C34.014134,24.6139825 33.0544919,24.9300776 32.2576294,25.4704678 Z"/>
    <path fill="#13C1AC" d="M35.0475947,32.6895502 C33.3431417,32.6895502 31.9557302,31.3021387 31.9557302,29.5976857 C31.9557302,29.0913657 32.0910643,28.6191158 32.3077882,28.1970247 L34.3784951,30.2667853 C34.5630417,30.4522782 34.8053182,30.5440783 35.0475947,30.5440783 C35.2898712,30.5440783 35.5321477,30.4522782 35.7166942,30.2667853 C36.0867337,29.8976922 36.0867337,29.2986257 35.7166942,28.9285862 L33.6469337,26.8588257 C34.0690248,26.640209 34.5403283,26.5067676 35.0475947,26.5067676 C36.7520477,26.5067676 38.1394592,27.8941791 38.1394592,29.5976857 C38.1394592,31.3021387 36.7520477,32.6895502 35.0475947,32.6895502 M27.0893796,28.6512932 L21.8066163,28.6512932 C21.3362592,24.5638237 17.8734089,21.1009733 13.784993,20.6306162 L13.784993,20.0088363 C13.784993,17.3012072 15.7099555,15.0355434 18.264269,14.5084027 L17.9623698,16.3197981 C17.9595306,16.3368332 17.9633162,16.3529218 17.9614234,16.3699569 C17.9576378,16.3983487 17.9595306,16.4248477 17.9585842,16.4541859 C17.9566914,16.5478787 17.9680481,16.6387324 17.9926543,16.7276933 C17.9964399,16.7428356 17.9926543,16.7589243 17.9983327,16.7750129 L19.0081335,19.8034691 C19.0166511,19.8280753 19.0336861,19.8479496 19.0440965,19.8716094 C19.0516676,19.8905372 19.0497748,19.9094651 19.0582923,19.9274466 C19.0687027,19.9482672 19.0885769,19.9605703 19.0999336,19.9804445 C19.1415749,20.051424 19.1907873,20.1129395 19.2485173,20.1687767 C19.2731235,20.1933829 19.2939441,20.2189355 19.3223359,20.2416489 C19.4027792,20.3041108 19.4907937,20.355216 19.585433,20.3892861 C19.5939505,20.3930717 19.6015217,20.39875 19.6100392,20.4015892 C19.7046785,20.4328202 19.8040497,20.4498552 19.9053137,20.4498552 C19.9166704,20.4498552 19.9280271,20.4451233 19.9393838,20.4451233 C19.9725076,20.4441769 20.0046849,20.4337666 20.038755,20.4280882 C20.0936458,20.4205171 20.149483,20.4195707 20.2043737,20.4015892 C20.2270872,20.3940181 20.241283,20.376983 20.2621037,20.3675191 C20.2838707,20.359948 20.3075305,20.3608943 20.3283512,20.350484 C21.2558159,19.8867517 22.1908517,19.7826485 23.0350339,20.051424 C23.8763769,20.3183067 24.5615651,20.9381938 25.0139407,21.8448379 C25.1729347,22.1628258 25.4966009,22.3644074 25.8514982,22.368193 L30.7396157,22.416459 C28.7701728,23.9079737 27.3761366,26.1632271 27.0893796,28.6512932 M15.9304649,29.5976857 C15.9304649,31.3021387 14.5430534,32.6895502 12.8386004,32.6895502 C11.1341474,32.6895502 9.74768233,31.3021387 9.74768233,29.5976857 C9.74768233,27.8941791 11.1341474,26.5067676 12.8386004,26.5067676 C13.1310357,26.5067676 13.4083288,26.5597656 13.6761579,26.6364234 L12.0512018,29.0733843 C11.7616057,29.5087248 11.8789584,30.0954882 12.314299,30.3850843 C12.4751857,30.4929731 12.6578395,30.5440783 12.837654,30.5440783 C13.1433388,30.5440783 13.4442917,30.3964411 13.625999,30.1229336 L15.2500087,27.6878656 C15.6692606,28.2150062 15.9304649,28.8736954 15.9304649,29.5976857 M35.0475947,24.6139825 C34.014134,24.6139825 33.0544919,24.9300776 32.2576294,25.4704678 L31.2639172,24.4758092 C32.5093698,23.2786226 34.1702888,22.4685106 36.0564491,22.4685106 C36.5779114,22.4685106 37.0000025,22.0483123 37.0028417,21.52685 C37.0056809,21.0063341 36.5873754,20.5814038 36.0659131,20.5757255 L26.4164945,20.4810862 C25.7350919,19.3946275 24.7546292,18.6110145 23.6076014,18.2466534 C22.6195676,17.9343438 21.5416264,17.9438077 20.4882915,18.2599029 L20.0529509,16.9548275 L21.338152,16.312227 C21.80567,16.078468 21.9949485,15.5106325 21.7611895,15.0431145 C21.5264841,14.5746502 20.9577022,14.3872645 20.4911307,14.6191307 L20.1352871,14.7979989 L20.3340295,13.6017587 C20.3804028,13.3273048 20.3027986,13.0471726 20.1220376,12.8351807 C19.9431694,12.6222424 19.6791259,12.5001577 19.4008865,12.5001577 C15.260419,12.5001577 11.8922079,15.8683689 11.8922079,20.0088363 L11.8922079,21.522118 C11.8922079,22.0454731 12.3152454,22.4685106 12.8386004,22.4685106 C13.965754,22.4685106 15.0077322,22.7628387 15.9351969,23.248338 L14.7654557,25.0029499 C14.1720676,24.7531022 13.5218959,24.6139825 12.8386004,24.6139825 C10.0902764,24.6139825 7.85489721,26.8493617 7.85489721,29.5976857 C7.85489721,32.3469561 10.0902764,34.5823354 12.8386004,34.5823354 C15.5878708,34.5823354 17.8232501,32.3469561 17.8232501,29.5976857 C17.8232501,28.2131134 17.2535217,26.9591433 16.3374137,26.0553384 L17.4863343,24.3338503 C19.0232758,25.7354577 19.9677756,27.727614 19.9677756,29.5976857 C19.9677756,30.1210408 20.3917595,30.5440783 20.9141682,30.5440783 L27.9808814,30.5440783 C28.5042365,30.5440783 28.927274,30.1210408 28.927274,29.5976857 C28.927274,28.366429 29.3399011,27.0812279 30.0582131,25.9465032 L30.9194303,26.8086669 C30.3790402,27.604583 30.062945,28.5651715 30.062945,29.5976857 C30.062945,32.3469561 32.2992707,34.5823354 35.0475947,34.5823354 C37.7959187,34.5823354 40.0322443,32.3469561 40.0322443,29.5976857 C40.0322443,26.8493617 37.7959187,24.6139825 35.0475947,24.6139825"/>
    <path fill="#FFF" d="M27.0893796,28.6512932 L21.8066163,28.6512932 C21.3362592,24.5638237 17.8734089,21.1009733 13.784993,20.6306162 L13.784993,20.0088363 C13.784993,17.3012072 15.7099555,15.0355434 18.264269,14.5084027 L17.9623698,16.3197981 C17.9595306,16.3368332 17.9633162,16.3529218 17.9614234,16.3699569 C17.9576378,16.3983487 17.9595306,16.4248477 17.9585842,16.4541859 C17.9566914,16.5478787 17.9680481,16.6387324 17.9926543,16.7276933 C17.9964399,16.7428356 17.9926543,16.7589243 17.9983327,16.7750129 L19.0081335,19.8034691 C19.0166511,19.8280753 19.0336861,19.8479496 19.0440965,19.8716094 C19.0516676,19.8905372 19.0497748,19.9094651 19.0582923,19.9274466 C19.0687027,19.9482672 19.0885769,19.9605703 19.0999336,19.9804445 C19.1415749,20.051424 19.1907873,20.1129395 19.2485173,20.1687767 C19.2731235,20.1933829 19.2939441,20.2189355 19.3223359,20.2416489 C19.4027792,20.3041108 19.4907937,20.355216 19.585433,20.3892861 C19.5939505,20.3930717 19.6015217,20.39875 19.6100392,20.4015892 C19.7046785,20.4328202 19.8040497,20.4498552 19.9053137,20.4498552 C19.9166704,20.4498552 19.9280271,20.4451233 19.9393838,20.4451233 C19.9725076,20.4441769 20.0046849,20.4337666 20.038755,20.4280882 C20.0936458,20.4205171 20.149483,20.4195707 20.2043737,20.4015892 C20.2270872,20.3940181 20.241283,20.376983 20.2621037,20.3675191 C20.2838707,20.359948 20.3075305,20.3608943 20.3283512,20.350484 C21.2558159,19.8867517 22.1908517,19.7826485 23.0350339,20.051424 C23.8763769,20.3183067 24.5615651,20.9381938 25.0139407,21.8448379 C25.1729347,22.1628258 25.4966009,22.3644074 25.8514982,22.368193 L30.7396157,22.416459 C28.7701728,23.9079737 27.3761366,26.1632271 27.0893796,28.6512932" opacity=".47"/>
  </g>
</svg>
