<svg xmlns="http://www.w3.org/2000/svg" width="48" height="48" viewBox="0 0 48 48">
  <g fill="none" fill-rule="evenodd">
    <path fill="#13C1AC" fill-opacity=".4" d="M11.3096106,38.5206477 L14.232119,38.5206477 C15.2802638,38.5206477 16.1333826,37.6752661 16.1333826,36.6366274 L16.1333826,23.8845041 L17.100827,36.7775243 C17.1382951,37.2792316 17.3707892,37.7361945 17.7560376,38.0646367 C18.103818,38.3626146 18.5390239,38.5225517 18.9944049,38.5225517 C19.0414801,38.5225517 19.0904768,38.5206477 19.1375521,38.5168396 L22.0523747,38.3016862 C22.5586738,38.264558 23.0198191,38.0341725 23.352228,37.652418 C23.6827154,37.2716155 23.845077,36.7851403 23.807609,36.2834331 L22.5913382,20.0793353 L24.7990714,36.882245 C24.8644003,37.3810962 25.1218731,37.8256831 25.5244145,38.1322291 C25.8606663,38.3883188 26.2632077,38.5225517 26.6801599,38.5225517 C26.7627818,38.5225517 26.8463643,38.5177916 26.9289862,38.5073196 L29.8265158,38.1331811 C30.3308935,38.0684447 30.7785887,37.813307 31.0889011,37.4144164 C31.3982527,37.0155258 31.5327535,36.5204826 31.4674245,36.0216313 L31.0110828,32.5458567 L32.5972305,37.2354393 C32.8633498,38.0227484 33.6059859,38.5206477 34.4014615,38.5206477 C34.6012911,38.5206477 34.8040029,38.4901835 35.0038326,38.423543 L37.7745472,37.503905 C38.7688918,37.1735589 39.3068946,36.1035039 38.973525,35.1181775 L34.999029,23.3647087 C34.6656593,22.3803343 33.5867715,21.8453068 32.5914662,22.177557 L29.8217123,23.097195 C29.8044193,23.102907 29.7890478,23.1124271 29.7717548,23.1190911 L28.7360994,15.2336236 C28.6006379,14.2035529 27.6399186,13.4743161 26.6052238,13.608549 L23.7076941,13.9817355 C23.0227012,14.070272 22.4760519,14.5139069 22.2176184,15.0993908 L21.9514991,11.5588796 C21.8727201,10.5240489 20.976369,9.7453078 19.9147741,9.82051629 L16.9999515,10.0356697 C16.4821237,10.0737499 16.0286642,10.3165115 15.7116268,10.6754179 C15.3628857,10.243207 14.8325686,9.9604612 14.232119,9.9604612 L11.3096106,9.9604612 C10.2614658,9.9604612 9.40834697,10.8058427 9.40834697,11.8444815 L9.40834697,36.6366274 C9.40834697,37.6752661 10.2614658,38.5206477 11.3096106,38.5206477 L11.3096106,38.5206477 Z"/>
    <path fill="#13C1AC" d="M14.2119438,11.8444815 L14.2119438,36.6166352 L11.3297857,36.6366274 L11.3096106,11.8644736 L14.2119438,11.8444815 Z M20.0358247,11.7007286 L21.8900131,36.4043378 L19.0165014,36.6366274 L17.1430987,11.9339701 L20.0358247,11.7007286 Z M26.8309928,15.4782892 L29.5594359,36.2482088 L26.7041779,36.6366274 L23.9555597,15.8705158 L26.8309928,15.4782892 Z M33.1765443,23.9701847 L37.145276,35.7046133 L34.4187545,36.6309153 L30.4317691,24.9021988 L33.1765443,23.9701847 Z M11.3096106,38.5206477 L14.232119,38.5206477 C15.2802638,38.5206477 16.1333826,37.6752661 16.1333826,36.6366274 L16.1333826,23.8845041 L17.100827,36.7775243 C17.1382951,37.2792316 17.3707892,37.7361945 17.7560376,38.0646367 C18.103818,38.3626146 18.5390239,38.5225517 18.9944049,38.5225517 C19.0414801,38.5225517 19.0904768,38.5206477 19.1375521,38.5168396 L22.0523747,38.3016862 C22.5586738,38.264558 23.0198191,38.0341725 23.352228,37.652418 C23.6827154,37.2716155 23.845077,36.7851403 23.807609,36.2834331 L22.5913382,20.0793353 L24.7990714,36.882245 C24.8644003,37.3810962 25.1218731,37.8256831 25.5244145,38.1322291 C25.8606663,38.3883188 26.2632077,38.5225517 26.6801599,38.5225517 C26.7627818,38.5225517 26.8463643,38.5177916 26.9289862,38.5073196 L29.8265158,38.1331811 C30.3308935,38.0684447 30.7785887,37.813307 31.0889011,37.4144164 C31.3982527,37.0155258 31.5327535,36.5204826 31.4674245,36.0216313 L31.0110828,32.5458567 L32.5972305,37.2354393 C32.8633498,38.0227484 33.6059859,38.5206477 34.4014615,38.5206477 C34.6012911,38.5206477 34.8040029,38.4901835 35.0038326,38.423543 L37.7745472,37.503905 C38.7688918,37.1735589 39.3068946,36.1035039 38.973525,35.1181775 L34.999029,23.3647087 C34.6656593,22.3803343 33.5867715,21.8453068 32.5914662,22.177557 L29.8217123,23.097195 C29.8044193,23.102907 29.7890478,23.1124271 29.7717548,23.1190911 L28.7360994,15.2336236 C28.6006379,14.2035529 27.6399186,13.4743161 26.6052238,13.608549 L23.7076941,13.9817355 C23.0227012,14.070272 22.4760519,14.5139069 22.2176184,15.0993908 L21.9514991,11.5588796 C21.8727201,10.5240489 20.976369,9.7453078 19.9147741,9.82051629 L16.9999515,10.0356697 C16.4821237,10.0737499 16.0286642,10.3165115 15.7116268,10.6754179 C15.3628857,10.243207 14.8325686,9.9604612 14.232119,9.9604612 L11.3096106,9.9604612 C10.2614658,9.9604612 9.40834697,10.8058427 9.40834697,11.8444815 L9.40834697,36.6366274 C9.40834697,37.6752661 10.2614658,38.5206477 11.3096106,38.5206477 L11.3096106,38.5206477 Z"/>
    <polygon fill="#FFF" fill-opacity=".7" points="20.036 11.701 21.89 36.404 19.017 36.637 17.143 11.934"/>
    <polygon fill="#FFF" fill-opacity=".7" points="33.177 23.97 37.145 35.705 34.419 36.631 30.432 24.902"/>
  </g>
</svg>
