<svg xmlns="http://www.w3.org/2000/svg" width="48" height="48" viewBox="0 0 48 48">
  <g fill="none" fill-rule="evenodd">
    <path fill="#13C1AC" d="M12.4573902 19.9904379C10.3323263 19.9904379 8.60937958 21.7133847 8.60937958 23.8384485 8.60937958 25.9635124 10.3323263 27.6864591 12.4573902 27.6864591 14.582454 27.6864591 16.3054008 25.9635124 16.3054008 23.8384485 16.3054008 21.7133847 14.582454 19.9904379 12.4573902 19.9904379M24.001422 19.9904379C21.8763581 19.9904379 20.1534114 21.7133847 20.1534114 23.8384485 20.1534114 25.9635124 21.8763581 27.6864591 24.001422 27.6864591 26.1264858 27.6864591 27.8494326 25.9635124 27.8494326 23.8384485 27.8494326 21.7133847 26.1264858 19.9904379 24.001422 19.9904379M35.5454538 19.9904379C33.4203899 19.9904379 31.6974432 21.7133847 31.6974432 23.8384485 31.6974432 25.9635124 33.4203899 27.6864591 35.5454538 27.6864591 37.6705177 27.6864591 39.3934644 25.9635124 39.3934644 23.8384485 39.3934644 21.7133847 37.6705177 19.9904379 35.5454538 19.9904379"/>
    <path fill="#13C1AC" d="M12.4573902,19.9904379 C10.3323263,19.9904379 8.60937958,21.7133847 8.60937958,23.8384485 C8.60937958,25.9635124 10.3323263,27.6864591 12.4573902,27.6864591 C14.582454,27.6864591 16.3054008,25.9635124 16.3054008,23.8384485 C16.3054008,21.7133847 14.582454,19.9904379 12.4573902,19.9904379 M12.4573902,21.9144432 C13.5184791,21.9144432 14.3813955,22.7773596 14.3813955,23.8384485 C14.3813955,24.8995374 13.5184791,25.7624538 12.4573902,25.7624538 C11.3963013,25.7624538 10.5333849,24.8995374 10.5333849,23.8384485 C10.5333849,22.7773596 11.3963013,21.9144432 12.4573902,21.9144432 Z M24.001422,19.9904379 C26.1264858,19.9904379 27.8494326,21.7133847 27.8494326,23.8384485 C27.8494326,25.9635124 26.1264858,27.6864591 24.001422,27.6864591 C21.8763581,27.6864591 20.1534114,25.9635124 20.1534114,23.8384485 C20.1534114,21.7133847 21.8763581,19.9904379 24.001422,19.9904379 Z M24.001422,21.9144432 C22.9403331,21.9144432 22.0774167,22.7773596 22.0774167,23.8384485 C22.0774167,24.8995374 22.9403331,25.7624538 24.001422,25.7624538 C25.0625109,25.7624538 25.9254273,24.8995374 25.9254273,23.8384485 C25.9254273,22.7773596 25.0625109,21.9144432 24.001422,21.9144432 Z M35.5454538,19.9904379 C37.6705177,19.9904379 39.3934644,21.7133847 39.3934644,23.8384485 C39.3934644,25.9635124 37.6705177,27.6864591 35.5454538,27.6864591 C33.4203899,27.6864591 31.6974432,25.9635124 31.6974432,23.8384485 C31.6974432,21.7133847 33.4203899,19.9904379 35.5454538,19.9904379 Z M35.5454538,21.9144432 C34.4843649,21.9144432 33.6214485,22.7773596 33.6214485,23.8384485 C33.6214485,24.8995374 34.4843649,25.7624538 35.5454538,25.7624538 C36.6065427,25.7624538 37.4694591,24.8995374 37.4694591,23.8384485 C37.4694591,22.7773596 36.6065427,21.9144432 35.5454538,21.9144432 Z"/>
    <path fill="#FFF" fill-opacity=".5" d="M12.4573902 21.9144432C13.5184791 21.9144432 14.3813955 22.7773596 14.3813955 23.8384485 14.3813955 24.8995374 13.5184791 25.7624538 12.4573902 25.7624538 11.3963013 25.7624538 10.5333849 24.8995374 10.5333849 23.8384485 10.5333849 22.7773596 11.3963013 21.9144432 12.4573902 21.9144432M24.001422 21.9144432C25.0625109 21.9144432 25.9254273 22.7773596 25.9254273 23.8384485 25.9254273 24.8995374 25.0625109 25.7624538 24.001422 25.7624538 22.9403331 25.7624538 22.0774167 24.8995374 22.0774167 23.8384485 22.0774167 22.7773596 22.9403331 21.9144432 24.001422 21.9144432M35.5454538 21.9144432C36.6065427 21.9144432 37.4694591 22.7773596 37.4694591 23.8384485 37.4694591 24.8995374 36.6065427 25.7624538 35.5454538 25.7624538 34.4843649 25.7624538 33.6214485 24.8995374 33.6214485 23.8384485 33.6214485 22.7773596 34.4843649 21.9144432 35.5454538 21.9144432"/>
  </g>
</svg>
