<svg xmlns="http://www.w3.org/2000/svg" width="48" height="48" viewBox="0 0 48 48">
  <g fill="none" fill-rule="evenodd">
    <path fill="#13C1AC" fill-opacity=".35" d="M33.7794953,11.388683 L38.1771077,18.8400777 C38.5413505,19.4572794 38.5365829,20.1816541 38.1837823,20.8036403 C37.8452844,21.3997902 37.4476685,21.7787233 36.4941532,21.8648445 L36.4941532,33.1218378 C36.4941532,36.4202785 33.8634046,39.0603707 30.5766375,39.0603707 L17.620272,39.0603707 C14.3335049,39.0603707 11.7027562,36.4202785 11.7027562,33.1218378 L11.7027562,21.8648445 C10.749241,21.7787233 10.3516251,21.4084023 10.0131272,20.8112955 C9.66032654,20.1893093 9.64507029,19.4572794 10.0093131,18.8400777 L14.4174142,11.3877261 C14.8054949,10.7303346 15.5463763,10.3533152 16.3511432,10.3533152 L18.3897588,10.3533152 C18.4555514,9.39641339 19.3022729,8.43951154 20.3444651,8.43951154 L22.1323062,8.43951154 C23.1735449,8.43951154 24.0202665,9.39641339 24.086059,10.3533152 L31.8467198,10.3533152 C32.6505332,10.3533152 33.3914145,10.7303346 33.7794953,11.388683 Z"/>
    <path fill="#13C1AC" d="M30.5766375,37.146567 L28.8660311,37.146567 L28.8660311,32.6012832 C28.8660311,30.8865151 27.4767593,29.4913522 25.76806,29.4913522 L22.429803,29.4913522 C20.7211037,29.4913522 19.3308784,30.8865151 19.3308784,32.6012832 L19.3308784,37.146567 L17.620272,37.146567 C15.4319545,37.146567 13.6097868,35.3179276 13.6097868,33.1218378 L13.6097868,21.8361374 L34.5871227,21.8361374 L34.5871227,33.1218378 C34.5871227,35.3179276 32.764955,37.146567 30.5766375,37.146567 L30.5766375,37.146567 Z M26.9590005,37.146567 L21.2379089,37.146567 L21.2379089,32.6012832 C21.2379089,31.9419778 21.772831,31.4051559 22.429803,31.4051559 L25.76806,31.4051559 C26.425032,31.4051559 26.9590005,31.9419778 26.9590005,32.6012832 L26.9590005,37.146567 Z M16.1690218,12.363766 C16.1795104,12.3465418 16.2443495,12.2671189 16.3511432,12.2671189 L18.3773631,12.2671189 L18.3773631,13.2240208 C18.3773631,13.7522306 18.804538,14.1809226 19.3308784,14.1809226 C19.8572188,14.1809226 20.2843937,13.7522306 20.2843937,13.2240208 L20.3444651,10.3533152 L22.1914242,10.4136001 L22.1914242,13.2240208 C22.1914242,13.7522306 22.618599,14.1809226 23.1449395,14.1809226 C23.6712799,14.1809226 24.0984547,13.7522306 24.0984547,13.2240208 L24.0984547,12.2671189 L31.8467198,12.2671189 C31.95256,12.2671189 32.017399,12.3465418 32.0278877,12.3647229 L36.4369423,19.8084624 C36.4293142,19.821859 36.3749638,19.9223337 36.2538674,19.9223337 L11.9430421,19.9223337 C11.8524581,19.9223337 11.8009683,19.8486523 11.7761769,19.8543937 L16.1690218,12.363766 Z M33.7794953,11.388683 L38.1771077,18.8400777 C38.5413505,19.4572794 38.5365829,20.1816541 38.1837823,20.8036403 C37.8452844,21.3997902 37.4476685,21.7787233 36.4941532,21.8648445 L36.4941532,33.1218378 C36.4941532,36.4202785 33.8634046,39.0603707 30.5766375,39.0603707 L17.620272,39.0603707 C14.3335049,39.0603707 11.7027562,36.4202785 11.7027562,33.1218378 L11.7027562,21.8648445 C10.749241,21.7787233 10.3516251,21.4084023 10.0131272,20.8112955 C9.66032654,20.1893093 9.64507029,19.4572794 10.0093131,18.8400777 L14.4174142,11.3877261 C14.8054949,10.7303346 15.5463763,10.3533152 16.3511432,10.3533152 L18.3897588,10.3533152 C18.4555514,9.39641339 19.3022729,8.43951154 20.3444651,8.43951154 L22.1323062,8.43951154 C23.1735449,8.43951154 24.0202665,9.39641339 24.086059,10.3533152 L31.8467198,10.3533152 C32.6505332,10.3533152 33.3914145,10.7303346 33.7794953,11.388683 Z M18.3774585,24.706843 C17.851118,24.706843 17.4239432,25.135535 17.4239432,25.6637448 L17.4239432,26.6206467 C17.4239432,27.1488565 17.851118,27.5775485 18.3774585,27.5775485 C18.9037989,27.5775485 19.3309737,27.1488565 19.3309737,26.6206467 L19.3309737,25.6637448 C19.3309737,25.135535 18.9037989,24.706843 18.3774585,24.706843 Z M22.1915195,24.706843 C21.6651791,24.706843 21.2380043,25.135535 21.2380043,25.6637448 L21.2380043,26.6206467 C21.2380043,27.1488565 21.6651791,27.5775485 22.1915195,27.5775485 C22.71786,27.5775485 23.1450348,27.1488565 23.1450348,26.6206467 L23.1450348,25.6637448 C23.1450348,25.135535 22.71786,24.706843 22.1915195,24.706843 Z M26.0055806,24.706843 C25.4792402,24.706843 25.0520654,25.135535 25.0520654,25.6637448 L25.0520654,26.6206467 C25.0520654,27.1488565 25.4792402,27.5775485 26.0055806,27.5775485 C26.531921,27.5775485 26.9590959,27.1488565 26.9590959,26.6206467 L26.9590959,25.6637448 C26.9590959,25.135535 26.531921,24.706843 26.0055806,24.706843 Z M29.8196417,24.706843 C29.2933013,24.706843 28.8661264,25.135535 28.8661264,25.6637448 L28.8661264,26.6206467 C28.8661264,27.1488565 29.2933013,27.5775485 29.8196417,27.5775485 C30.3459821,27.5775485 30.773157,27.1488565 30.773157,26.6206467 L30.773157,25.6637448 C30.773157,25.135535 30.3459821,24.706843 29.8196417,24.706843 Z"/>
    <path fill="#FFF" fill-opacity=".5" d="M16.1690218 12.363766C16.1795104 12.3465418 16.2443495 12.2671189 16.3511432 12.2671189L18.3773631 12.2671189 18.3773631 13.2240208C18.3773631 13.7522306 18.804538 14.1809226 19.3308784 14.1809226 19.8572188 14.1809226 20.2843937 13.7522306 20.2843937 13.2240208L20.3444651 10.3533152 22.1914242 10.4136001 22.1914242 13.2240208C22.1914242 13.7522306 22.618599 14.1809226 23.1449395 14.1809226 23.6712799 14.1809226 24.0984547 13.7522306 24.0984547 13.2240208L24.0984547 12.2671189 31.8467198 12.2671189C31.95256 12.2671189 32.017399 12.3465418 32.0278877 12.3647229L36.4369423 19.8084624C36.4293142 19.821859 36.3749638 19.9223337 36.2538674 19.9223337L11.9430421 19.9223337C11.8524581 19.9223337 11.8009683 19.8486523 11.7761769 19.8543937L16.1690218 12.363766zM26.9590005 37.146567L21.2379089 37.146567 21.2379089 32.6012832C21.2379089 31.9419778 21.772831 31.4051559 22.429803 31.4051559L25.76806 31.4051559C26.425032 31.4051559 26.9590005 31.9419778 26.9590005 32.6012832L26.9590005 37.146567z"/>
  </g>
</svg>
