<svg xmlns="http://www.w3.org/2000/svg" width="48" height="48" viewBox="0 0 48 48">
  <g fill="none" fill-rule="evenodd">
    <path fill="#13C1AC" fill-opacity=".35" d="M33.8576956,12.2153492 C33.8576956,10.1044237 32.1410137,8.38774178 30.0300882,8.38774178 L16.6334623,8.38774178 C14.5225368,8.38774178 12.8058549,10.1044237 12.8058549,12.2153492 L12.8058549,35.1809935 C12.8058549,37.291919 14.5225368,39.0086009 16.6334623,39.0086009 L30.0300882,39.0086009 C32.1410137,39.0086009 33.8576956,37.291919 33.8576956,35.1809935 L33.8576956,21.7843676 C34.3859054,21.7843676 34.8145974,21.3556756 34.8145974,20.8274658 L34.8145974,19.870564 C34.8145974,19.3423541 34.3859054,18.9136621 33.8576956,18.9136621 L33.8576956,16.9998584 C34.3859054,16.9998584 34.8145974,16.5711664 34.8145974,16.0429566 L34.8145974,15.0860547 C34.8145974,14.5578449 34.3859054,14.1291529 33.8576956,14.1291529 L33.8576956,12.2153492 Z"/>
    <path fill="#13C1AC" d="M31.951678,35.1546893 C31.951678,36.2105815 31.0929878,37.0692716 30.0370957,37.0692716 L16.6350195,37.0692716 C15.5791274,37.0692716 14.7204372,36.2105815 14.7204372,35.1546893 L14.7204372,12.1797017 C14.7204372,11.1238095 15.5791274,10.2651194 16.6350195,10.2651194 L30.0370957,10.2651194 C31.0929878,10.2651194 31.951678,11.1238095 31.951678,12.1797017 L31.951678,35.1546893 Z M34.8235514,16.0088663 C34.8235514,16.5382483 34.3956423,16.9661574 33.8662603,16.9661574 L33.8662603,18.8807397 C34.3956423,18.8807397 34.8235514,19.3086489 34.8235514,19.8380309 L34.8235514,20.795322 C34.8235514,21.324704 34.3956423,21.7526132 33.8662603,21.7526132 L33.8662603,35.1546893 C33.8662603,37.2664736 32.1488799,38.9838539 30.0370957,38.9838539 L16.6350195,38.9838539 C14.5232352,38.9838539 12.8058549,37.2664736 12.8058549,35.1546893 L12.8058549,12.1797017 C12.8058549,10.0679174 14.5232352,8.35053707 16.6350195,8.35053707 L30.0370957,8.35053707 C32.1488799,8.35053707 33.8662603,10.0679174 33.8662603,12.1797017 L33.8662603,14.094284 C34.3956423,14.094284 34.8235514,14.5221931 34.8235514,15.0515751 L34.8235514,16.0088663 Z M23.3360576,30.3682336 C22.2801655,30.3682336 21.4214753,31.2269237 21.4214753,32.2828159 C21.4214753,33.338708 22.2801655,34.1973982 23.3360576,34.1973982 C24.3919497,34.1973982 25.2506399,33.338708 25.2506399,32.2828159 C25.2506399,31.2269237 24.3919497,30.3682336 23.3360576,30.3682336 Z M25.2506399,12.1797017 L21.4214753,12.1797017 C20.8920933,12.1797017 20.4641841,12.6076108 20.4641841,13.1369928 C20.4641841,13.6663748 20.8920933,14.094284 21.4214753,14.094284 L25.2506399,14.094284 C25.7800219,14.094284 26.207931,13.6663748 26.207931,13.1369928 C26.207931,12.6076108 25.7800219,12.1797017 25.2506399,12.1797017 Z"/>
  </g>
</svg>
