<svg xmlns="http://www.w3.org/2000/svg" width="48" height="48" viewBox="0 0 48 48">
  <g fill="none" fill-rule="evenodd">
    <path fill="#13C1AC" fill-opacity=".35" d="M12.832188,38.7181168 C12.7696965,38.7181168 12.7696965,38.7181168 12.7072049,38.7181168 C11.6448486,38.7181168 10.7074754,38.2181844 9.95757678,37.4682858 C8.5827627,35.9684886 8.70774579,33.5938098 10.207543,32.0940126 L23.0808021,19.2207534 C22.2059204,16.3461422 22.955819,13.2215647 25.0805317,11.096852 C27.0802613,9.09712245 30.0798556,8.28473231 32.8294838,8.97213935 C33.3294162,9.09712245 33.7043655,9.47207174 33.8918401,9.97200414 C34.0168232,10.4719365 33.8918401,11.0343605 33.5168909,11.4093098 L30.0798556,14.846345 L30.579788,17.2210239 L32.8294838,17.6584647 L36.266519,14.2214295 C36.6414683,13.8464802 37.2038923,13.7214971 37.7038247,13.8464802 C38.203757,13.9714633 38.5787063,14.4089041 38.7036894,14.9088365 C39.3910965,17.6584647 38.5787063,20.6580591 36.5789768,22.6577886 C34.4542641,24.7825013 31.3296866,25.5323999 28.4550754,24.6575182 L15.5193247,37.6557605 C14.8319176,38.3431675 13.8320528,38.7181168 12.832188,38.7181168 Z"/>
    <path fill="#13C1AC" fill-rule="nonzero" d="M12.832188,38.7181168 C12.7696965,38.7181168 12.7696965,38.7181168 12.7072049,38.7181168 C11.6448486,38.7181168 10.7074754,38.2181844 9.95757678,37.4682858 C8.5827627,35.9684886 8.70774579,33.5938098 10.207543,32.0940126 L23.0808021,19.2207534 C22.2059204,16.3461422 22.955819,13.2215647 25.0805317,11.096852 C27.0802613,9.09712245 30.0798556,8.28473231 32.8294838,8.97213935 C33.3294162,9.09712245 33.7043655,9.47207174 33.8918401,9.97200414 C34.0168232,10.4719365 33.8918401,11.0343605 33.5168909,11.4093098 L30.0798556,14.846345 L30.579788,17.2210239 L32.8294838,17.6584647 L36.266519,14.2214295 C36.6414683,13.8464802 37.2038923,13.7214971 37.7038247,13.8464802 C38.203757,13.9714633 38.5787063,14.4089041 38.7036894,14.9088365 C39.3910965,17.6584647 38.5787063,20.6580591 36.5789768,22.6577886 C34.4542641,24.7825013 31.3296866,25.5323999 28.4550754,24.6575182 L15.5193247,37.6557605 C14.8319176,38.3431675 13.8320528,38.7181168 12.832188,38.7181168 Z M30.8922458,10.6594112 C29.2674655,10.6594112 27.6426852,11.2843267 26.4553458,12.4716661 C24.7055824,14.2214295 24.1431585,16.8460746 25.0805317,19.1582619 L25.3304979,19.7206858 L11.5823571,33.4688267 C10.8324585,34.2187252 10.7074754,35.4685562 11.3948824,36.2184548 C11.7698317,36.5934041 12.2697641,36.8433703 12.7696965,36.8433703 C13.3321204,36.8433703 13.8320528,36.6558957 14.2070021,36.2809464 L28.0176345,22.470314 L28.5800585,22.7202802 C30.8922458,23.5951619 33.5168909,23.0952295 35.2666542,21.3454661 C36.6414683,19.970652 37.2663838,18.033414 37.0164176,16.1586675 L34.0793148,19.0957703 C33.7043655,19.4707196 33.1419416,19.6581943 32.6420092,19.5332112 L30.0798556,19.0332788 C29.4549401,18.9082957 28.9550078,18.4083633 28.8300247,17.7834478 L28.3300923,15.2212943 C28.2051092,14.7213619 28.3925838,14.1589379 28.7675331,13.7839886 L31.7671275,10.7843943 C31.3921782,10.6594112 31.142212,10.6594112 30.8922458,10.6594112 Z"/>
  </g>
</svg>
