<svg xmlns="http://www.w3.org/2000/svg" width="48" height="48" viewBox="0 0 48 48">
  <g fill="none" fill-rule="evenodd" transform="translate(7.174 8.174)">
    <path fill="#CFD8DC" d="M31.1165078,13.0914457 C31.1165078,6.23237323 25.5351444,0.651721653 18.6751971,0.651721653 C17.0922796,0.651721653 15.8041254,1.93971154 15.8041254,3.5224272 L15.8041254,14.0483475 L9.82368306,14.0483475 C9.69926996,14.0483475 9.60356757,13.9440452 9.55475935,13.8464412 C8.56711068,11.8446026 6.33915905,10.8006227 4.1466173,11.3087375 C2.40579083,11.7115932 1.02193427,13.0971871 0.620941258,14.8387485 C0.0955351374,17.1190456 1.26119025,19.4366618 3.39343949,20.3505031 C3.48052867,20.3878223 3.53603605,20.4481071 3.54464927,20.4863832 C4.16862885,23.3398645 6.39370941,25.5483939 9.13845395,26.2507599 C8.53648592,26.7770559 8.14793422,27.5416205 8.14793422,28.4018752 C8.14793422,29.9855478 9.43608838,31.2725808 11.0190059,31.2725808 C12.6019234,31.2725808 13.8900776,29.9855478 13.8900776,28.4018752 C13.8900776,27.6641039 13.6020134,26.9971433 13.143599,26.4880716 L21.3357235,26.4880716 C20.8773091,26.9971433 20.5892449,27.6641039 20.5892449,28.4018752 C20.5892449,29.9855478 21.8773991,31.2725808 23.4603166,31.2725808 C25.0432341,31.2725808 26.3313883,29.9855478 26.3313883,28.4018752 C26.3313883,27.5406636 25.9418796,26.776099 25.3389545,26.2488461 C28.6531283,25.4134708 31.1165078,22.4174111 31.1165078,18.8481672 L31.1165078,17.8616014 C31.1165078,16.8606821 30.7202999,15.9564098 30.0877071,15.2750957 C30.7116867,14.7478428 31.1165078,13.9698816 31.1165078,13.0914457 L31.1165078,13.0914457 Z"/>
    <g transform="translate(.463 .463)">
      <path fill="#6E2A83" d="M28.739254,18.3849612 C28.739254,21.5427373 26.1696448,24.1110619 23.012423,24.1110619 L10.5404875,24.1110619 C7.8723049,24.1110619 5.52089718,22.2202238 4.95146796,19.6145801 C4.8088714,18.9629299 4.33514457,18.406013 3.6834113,18.1275546 C2.38281582,17.5706377 1.70045778,16.2041819 2.02297483,14.8042345 C2.25744569,13.7870478 3.09866969,12.9449742 4.11502907,12.7095763 C4.36098422,12.6531191 4.59832614,12.6263259 4.82514081,12.6263259 C6.03386199,12.6263259 6.95260493,13.3746231 7.37465247,14.2300934 C7.7603331,15.0128391 8.5211671,15.4989452 9.36047706,15.4989452 L15.3409194,15.4989452 L26.8405186,15.4989452 C27.8875027,15.4989452 28.739254,16.3515448 28.739254,17.3983954 L28.739254,18.3849612 Z M22.9971106,28.8955711 C22.4697904,28.8955711 22.0400867,28.4668791 22.0400867,27.9386692 C22.0400867,27.4114163 22.4697904,26.9817674 22.9971106,26.9817674 C23.5244308,26.9817674 23.9541345,27.4114163 23.9541345,27.9386692 C23.9541345,28.4668791 23.5244308,28.8955711 22.9971106,28.8955711 L22.9971106,28.8955711 Z M10.5557999,28.8955711 C10.0284797,28.8955711 9.59877601,28.4668791 9.59877601,27.9386692 C9.59877601,27.4114163 10.0284797,26.9817674 10.5557999,26.9817674 C11.0831201,26.9817674 11.5128238,27.4114163 11.5128238,27.9386692 C11.5128238,28.4668791 11.0831201,28.8955711 10.5557999,28.8955711 L10.5557999,28.8955711 Z M18.2119911,2.10231935 C19.8025648,2.10231935 21.3070064,2.46785585 22.6602382,3.10228178 L17.2549672,11.3402498 L17.2549672,3.05922119 C17.2549672,2.53196828 17.6846709,2.10231935 18.2119911,2.10231935 L18.2119911,2.10231935 Z M27.5659427,7.81980789 L19.050344,12.0914177 L24.3149325,4.06779574 C25.6748635,5.04096492 26.7936244,6.3251272 27.5659427,7.81980789 L27.5659427,7.81980789 Z M28.739254,12.6282397 C28.739254,13.1564495 28.3095502,13.5851415 27.7822301,13.5851415 L26.8405186,13.5851415 L20.3404122,13.5851415 L28.2904098,9.59773152 C28.579431,10.558461 28.739254,11.5746907 28.739254,12.6282397 L28.739254,12.6282397 Z M30.6533018,12.6282397 C30.6533018,13.5066756 30.2484807,14.2846368 29.6245011,14.8118897 C30.2570939,15.4932038 30.6533018,16.3974761 30.6533018,17.3983954 L30.6533018,18.3849612 C30.6533018,21.9542051 28.1899223,24.9502648 24.8757485,25.7856401 C25.4786736,26.312893 25.8681823,27.0774576 25.8681823,27.9386692 C25.8681823,29.5223418 24.5800281,30.8093748 22.9971106,30.8093748 C21.4141931,30.8093748 20.1260389,29.5223418 20.1260389,27.9386692 C20.1260389,27.2008979 20.4141031,26.5339373 20.8725175,26.0248655 L12.680393,26.0248655 C13.1388074,26.5339373 13.4268716,27.2008979 13.4268716,27.9386692 C13.4268716,29.5223418 12.1387174,30.8093748 10.5557999,30.8093748 C8.97288238,30.8093748 7.68472821,29.5223418 7.68472821,27.9386692 C7.68472821,27.0784145 8.07327992,26.3138499 8.67524795,25.7875539 C5.93050341,25.0851879 3.70542285,22.8766585 3.08144326,20.0231772 C3.07283005,19.9849011 3.01732266,19.9246163 2.93023349,19.8872971 C0.797984242,18.9734558 -0.367670866,16.6558396 0.157735254,14.3755424 C0.558728268,12.6339811 1.94258482,11.2483872 3.6834113,10.8455315 C5.87595305,10.3374167 8.10390468,11.3813966 9.09155334,13.3832352 C9.14036156,13.4808392 9.23606395,13.5851415 9.36047706,13.5851415 L15.3409194,13.5851415 L15.3409194,3.05922119 C15.3409194,1.47650554 16.6290736,0.18851565 18.2119911,0.18851565 C25.0719384,0.18851565 30.6533018,5.76916723 30.6533018,12.6282397 Z M4.13416955,14.8199277 C3.96190525,15.001739 3.85663262,15.2505335 3.85663262,15.499328 C3.85663262,15.7576915 3.96190525,15.9969169 4.13416955,16.1787283 C4.31600409,16.3509706 4.56483031,16.4562298 4.81365652,16.4562298 C5.06248273,16.4562298 5.31130895,16.3509706 5.49314349,16.1787283 C5.66540779,15.9969169 5.77068042,15.7576915 5.77068042,15.499328 C5.77068042,15.2505335 5.66540779,15.001739 5.49314349,14.8199277 C5.13904464,14.465874 4.48826839,14.465874 4.13416955,14.8199277 Z"/>
      <path fill="#FFF" d="M18.2119911 2.10231935C19.8025648 2.10231935 21.3070064 2.46785585 22.6602382 3.10228178L17.2549672 11.3402498 17.2549672 3.05922119C17.2549672 2.53196828 17.6846709 2.10231935 18.2119911 2.10231935L18.2119911 2.10231935zM28.739254 12.6282397C28.739254 13.1564495 28.3095502 13.5851415 27.7822301 13.5851415L26.8405186 13.5851415 20.3404122 13.5851415 28.2904098 9.59773152C28.579431 10.558461 28.739254 11.5746907 28.739254 12.6282397L28.739254 12.6282397z" opacity=".4"/>
      <path fill="#253238" d="M28.739254,18.3849612 C28.739254,21.5427373 26.1696448,24.1110619 23.012423,24.1110619 L10.5404875,24.1110619 C7.8723049,24.1110619 5.52089718,22.2202238 4.95146796,19.6145801 C4.8088714,18.9629299 4.33514457,18.406013 3.6834113,18.1275546 C2.38281582,17.5706377 1.70045778,16.2041819 2.02297483,14.8042345 C2.25744569,13.7870478 3.09866969,12.9449742 4.11502907,12.7095763 C4.36098422,12.6531191 4.59832614,12.6263259 4.82514081,12.6263259 C6.03386199,12.6263259 6.95260493,13.3746231 7.37465247,14.2300934 C7.7603331,15.0128391 8.5211671,15.4989452 9.36047706,15.4989452 L15.3409194,15.4989452 L26.8405186,15.4989452 C27.8875027,15.4989452 28.739254,16.3515448 28.739254,17.3983954 L28.739254,18.3849612 Z M22.9971106,28.8955711 C22.4697904,28.8955711 22.0400867,28.4668791 22.0400867,27.9386692 C22.0400867,27.4114163 22.4697904,26.9817674 22.9971106,26.9817674 C23.5244308,26.9817674 23.9541345,27.4114163 23.9541345,27.9386692 C23.9541345,28.4668791 23.5244308,28.8955711 22.9971106,28.8955711 L22.9971106,28.8955711 Z M10.5557999,28.8955711 C10.0284797,28.8955711 9.59877601,28.4668791 9.59877601,27.9386692 C9.59877601,27.4114163 10.0284797,26.9817674 10.5557999,26.9817674 C11.0831201,26.9817674 11.5128238,27.4114163 11.5128238,27.9386692 C11.5128238,28.4668791 11.0831201,28.8955711 10.5557999,28.8955711 L10.5557999,28.8955711 Z M18.2119911,2.10231935 C19.8025648,2.10231935 21.3070064,2.46785585 22.6602382,3.10228178 L17.2549672,11.3402498 L17.2549672,3.05922119 C17.2549672,2.53196828 17.6846709,2.10231935 18.2119911,2.10231935 L18.2119911,2.10231935 Z M27.5659427,7.81980789 L19.050344,12.0914177 L24.3149325,4.06779574 C25.6748635,5.04096492 26.7936244,6.3251272 27.5659427,7.81980789 L27.5659427,7.81980789 Z M28.739254,12.6282397 C28.739254,13.1564495 28.3095502,13.5851415 27.7822301,13.5851415 L26.8405186,13.5851415 L20.3404122,13.5851415 L28.2904098,9.59773152 C28.579431,10.558461 28.739254,11.5746907 28.739254,12.6282397 L28.739254,12.6282397 Z M30.6533018,12.6282397 C30.6533018,13.5066756 30.2484807,14.2846368 29.6245011,14.8118897 C30.2570939,15.4932038 30.6533018,16.3974761 30.6533018,17.3983954 L30.6533018,18.3849612 C30.6533018,21.9542051 28.1899223,24.9502648 24.8757485,25.7856401 C25.4786736,26.312893 25.8681823,27.0774576 25.8681823,27.9386692 C25.8681823,29.5223418 24.5800281,30.8093748 22.9971106,30.8093748 C21.4141931,30.8093748 20.1260389,29.5223418 20.1260389,27.9386692 C20.1260389,27.2008979 20.4141031,26.5339373 20.8725175,26.0248655 L12.680393,26.0248655 C13.1388074,26.5339373 13.4268716,27.2008979 13.4268716,27.9386692 C13.4268716,29.5223418 12.1387174,30.8093748 10.5557999,30.8093748 C8.97288238,30.8093748 7.68472821,29.5223418 7.68472821,27.9386692 C7.68472821,27.0784145 8.07327992,26.3138499 8.67524795,25.7875539 C5.93050341,25.0851879 3.70542285,22.8766585 3.08144326,20.0231772 C3.07283005,19.9849011 3.01732266,19.9246163 2.93023349,19.8872971 C0.797984242,18.9734558 -0.367670866,16.6558396 0.157735254,14.3755424 C0.558728268,12.6339811 1.94258482,11.2483872 3.6834113,10.8455315 C5.87595305,10.3374167 8.10390468,11.3813966 9.09155334,13.3832352 C9.14036156,13.4808392 9.23606395,13.5851415 9.36047706,13.5851415 L15.3409194,13.5851415 L15.3409194,3.05922119 C15.3409194,1.47650554 16.6290736,0.18851565 18.2119911,0.18851565 C25.0719384,0.18851565 30.6533018,5.76916723 30.6533018,12.6282397 Z M4.13416955,14.8199277 C3.96190525,15.001739 3.85663262,15.2505335 3.85663262,15.499328 C3.85663262,15.7576915 3.96190525,15.9969169 4.13416955,16.1787283 C4.31600409,16.3509706 4.56483031,16.4562298 4.81365652,16.4562298 C5.06248273,16.4562298 5.31130895,16.3509706 5.49314349,16.1787283 C5.66540779,15.9969169 5.77068042,15.7576915 5.77068042,15.499328 C5.77068042,15.2505335 5.66540779,15.001739 5.49314349,14.8199277 C5.13904464,14.465874 4.48826839,14.465874 4.13416955,14.8199277 Z"/>
      <path fill="#FFF" d="M18.2119911 2.10231935C19.8025648 2.10231935 21.3070064 2.46785585 22.6602382 3.10228178L17.2549672 11.3402498 17.2549672 3.05922119C17.2549672 2.53196828 17.6846709 2.10231935 18.2119911 2.10231935L18.2119911 2.10231935zM28.739254 12.6282397C28.739254 13.1564495 28.3095502 13.5851415 27.7822301 13.5851415L26.8405186 13.5851415 20.3404122 13.5851415 28.2904098 9.59773152C28.579431 10.558461 28.739254 11.5746907 28.739254 12.6282397L28.739254 12.6282397z" opacity=".5"/>
    </g>
  </g>
</svg>
