<svg xmlns="http://www.w3.org/2000/svg" width="48" height="48" viewBox="0 0 48 48">
  <g fill="none" fill-rule="evenodd" transform="translate(9.408 9.815)">
    <path fill="#CFD8DC" d="M1.90126364,28.7051514 L4.82377198,28.7051514 C5.87191682,28.7051514 6.72503562,27.8597699 6.72503562,26.8211311 L6.72503562,14.0690079 L7.69248004,26.962028 C7.72994809,27.4637353 7.96244218,27.9206983 8.34769065,28.2491405 C8.69547106,28.5471184 9.13067694,28.7070554 9.58605792,28.7070554 C9.63313317,28.7070554 9.68212986,28.7051514 9.72920511,28.7013434 L12.6440277,28.48619 C13.1503268,28.4490618 13.6114721,28.2186763 13.943881,27.8369218 C14.2743685,27.4561193 14.43673,26.9696441 14.399262,26.4679368 L13.1829913,10.263839 L15.3907244,27.0667487 C15.4560533,27.5656 15.7135261,28.0101869 16.1160675,28.3167329 C16.4523193,28.5728226 16.8548607,28.7070554 17.2718129,28.7070554 C17.3544348,28.7070554 17.4380174,28.7022954 17.5206392,28.6918233 L20.4181689,28.3176849 C20.9225465,28.2529485 21.3702418,27.9978108 21.6805541,27.5989202 C21.9899058,27.2000296 22.1244065,26.7049864 22.0590776,26.2061351 L21.6027359,22.7303604 L23.1888836,27.419943 C23.4550028,28.2072522 24.1976389,28.7051514 24.9931145,28.7051514 C25.1929442,28.7051514 25.395656,28.6746872 25.5954856,28.6080468 L28.3662003,27.6884088 C29.3605448,27.3580626 29.8985477,26.2880076 29.565178,25.3026812 L25.590682,13.5492125 C25.2573124,12.5648381 24.1784245,12.0298106 23.1831192,12.3620607 L20.4133653,13.2816987 C20.3960723,13.2874108 20.3807008,13.2969308 20.3634079,13.3035949 L19.3277524,5.4181274 C19.192291,4.38805667 18.2315716,3.65881991 17.1968768,3.79305279 L14.2993472,4.16623922 C13.6143543,4.2547758 13.0677049,4.6984107 12.8092714,5.28389452 L12.5431522,1.7433834 C12.4643732,0.708552648 11.568022,-0.0701884358 10.5064271,0.00502005522 L7.5916045,0.22017346 C7.07377676,0.258253709 6.62031721,0.501015293 6.30327982,0.859921637 C5.95453869,0.427710815 5.42422159,0.144964969 4.82377198,0.144964969 L1.90126364,0.144964969 C0.853118805,0.144964969 0,0.990346488 0,2.02898527 L0,26.8211311 C0,27.8597699 0.853118805,28.7051514 1.90126364,28.7051514 L1.90126364,28.7051514 Z"/>
    <path fill="#253238" d="M4.80359687,2.02898527 L4.80359687,26.801139 L1.92143875,26.8211311 L1.90126364,2.0489774 L4.80359687,2.02898527 Z M10.6274777,1.88523233 L12.4816661,26.5888416 L9.60815447,26.8211311 L7.73475169,2.11847385 L10.6274777,1.88523233 Z M17.4226459,5.66279299 L20.1510889,26.4327126 L17.2958309,26.8211311 L14.5472128,6.05501955 L17.4226459,5.66279299 Z M23.7681973,14.1546884 L27.7369291,25.889117 L25.0104075,26.8154191 L21.0234221,15.0867025 L23.7681973,14.1546884 Z M1.90126364,28.7051514 L4.82377198,28.7051514 C5.87191682,28.7051514 6.72503562,27.8597699 6.72503562,26.8211311 L6.72503562,14.0690079 L7.69248004,26.962028 C7.72994809,27.4637353 7.96244218,27.9206983 8.34769065,28.2491405 C8.69547106,28.5471184 9.13067694,28.7070554 9.58605792,28.7070554 C9.63313317,28.7070554 9.68212986,28.7051514 9.72920511,28.7013434 L12.6440277,28.48619 C13.1503268,28.4490618 13.6114721,28.2186763 13.943881,27.8369218 C14.2743685,27.4561193 14.43673,26.9696441 14.399262,26.4679368 L13.1829913,10.263839 L15.3907244,27.0667487 C15.4560533,27.5656 15.7135261,28.0101869 16.1160675,28.3167329 C16.4523193,28.5728226 16.8548607,28.7070554 17.2718129,28.7070554 C17.3544348,28.7070554 17.4380174,28.7022954 17.5206392,28.6918233 L20.4181689,28.3176849 C20.9225465,28.2529485 21.3702418,27.9978108 21.6805541,27.5989202 C21.9899058,27.2000296 22.1244065,26.7049864 22.0590776,26.2061351 L21.6027359,22.7303604 L23.1888836,27.419943 C23.4550028,28.2072522 24.1976389,28.7051514 24.9931145,28.7051514 C25.1929442,28.7051514 25.395656,28.6746872 25.5954856,28.6080468 L28.3662003,27.6884088 C29.3605448,27.3580626 29.8985477,26.2880076 29.565178,25.3026812 L25.590682,13.5492125 C25.2573124,12.5648381 24.1784245,12.0298106 23.1831192,12.3620607 L20.4133653,13.2816987 C20.3960723,13.2874108 20.3807008,13.2969308 20.3634079,13.3035949 L19.3277524,5.4181274 C19.192291,4.38805667 18.2315716,3.65881991 17.1968768,3.79305279 L14.2993472,4.16623922 C13.6143543,4.2547758 13.0677049,4.6984107 12.8092714,5.28389452 L12.5431522,1.7433834 C12.4643732,0.708552648 11.568022,-0.0701884358 10.5064271,0.00502005522 L7.5916045,0.22017346 C7.07377676,0.258253709 6.62031721,0.501015293 6.30327982,0.859921637 C5.95453869,0.427710815 5.42422159,0.144964969 4.82377198,0.144964969 L1.90126364,0.144964969 C0.853118805,0.144964969 0,0.990346488 0,2.02898527 L0,26.8211311 C0,27.8597699 0.853118805,28.7051514 1.90126364,28.7051514 L1.90126364,28.7051514 Z"/>
    <polygon fill="#FFF" fill-opacity=".5" points="10.627 1.885 12.482 26.589 9.608 26.821 7.735 2.118"/>
    <polygon fill="#FFF" fill-opacity=".5" points="23.768 14.155 27.737 25.889 25.01 26.815 21.023 15.087"/>
  </g>
</svg>
