<svg xmlns="http://www.w3.org/2000/svg" width="48" height="48" viewBox="0 0 48 48">
  <g fill="none" fill-rule="evenodd">
    <path fill="#CFD8DC" d="M37.0124983,17.9865 C37.0114983,17.5145 36.7884983,17.0815 36.3994983,16.7985 C36.1374983,16.6065 35.9874983,16.3115 35.9874983,15.9885 C35.9874983,15.6655 36.1374983,15.3715 36.4014983,15.1785 C36.7904983,14.8935 37.0134983,14.4595 37.0124983,13.9865 C37.0114983,13.5145 36.7884983,13.0815 36.3994983,12.7985 C36.1374983,12.6065 35.9874983,12.3115 35.9874983,11.9885 C35.9874983,11.4365 36.4364983,10.9885 36.9874983,10.9885 L36.9874983,7.9885 L34.9874983,7.9885 L33.9874983,7.9885 L32.9874983,7.9885 C32.9874983,8.5405 32.5384983,8.9885 31.9874983,8.9885 C31.6654983,8.9885 31.3704983,8.8395 31.1804983,8.5805 C30.6324983,7.8305 29.3414983,7.8325 28.7954983,8.5785 C28.4124983,9.0995 27.5604983,9.0975 27.1804983,8.5805 C26.6324983,7.8305 25.3414983,7.8325 24.7954983,8.5785 C24.4124983,9.0995 23.5604983,9.0975 23.1804983,8.5805 C22.6324983,7.8305 21.3414983,7.8325 20.7954983,8.5785 C20.4124983,9.0995 19.5604983,9.0975 19.1804983,8.5805 C18.6324983,7.8305 17.3414983,7.8325 16.7954983,8.5785 C16.6044983,8.8395 16.3094983,8.9885 15.9874983,8.9885 C15.4364983,8.9885 14.9874983,8.5405 14.9874983,7.9885 L13.9874983,7.9885 L12.9874983,7.9885 L10.9874983,7.9885 L10.9874983,8.9885 L10.9874983,9.9885 L10.9874983,10.9885 C11.5384983,10.9885 11.9874983,11.4365 11.9874983,11.9885 C11.9874983,12.3025 11.8444983,12.5925 11.5934983,12.7845 C11.2184983,13.0715 11.0044983,13.5105 11.0044983,13.9885 C11.0044983,14.4665 11.2184983,14.9055 11.5944983,15.1935 C11.8444983,15.3845 11.9874983,15.6745 11.9874983,15.9885 C11.9874983,16.3025 11.8444983,16.5925 11.5934983,16.7845 C11.2184983,17.0715 11.0044983,17.5105 11.0044983,17.9885 C11.0044983,18.4665 11.2184983,18.9055 11.5944983,19.1935 C11.8444983,19.3845 11.9874983,19.6745 11.9874983,19.9885 C11.9874983,20.3025 11.8444983,20.5925 11.5934983,20.7845 C11.2184983,21.0715 11.0044983,21.5105 11.0044983,21.9885 C11.0044983,22.4665 11.2184983,22.9055 11.5944983,23.1935 C11.8444983,23.3845 11.9874983,23.6745 11.9874983,23.9885 C11.9874983,24.3025 11.8444983,24.5925 11.5934983,24.7845 C11.2184983,25.0715 11.0044983,25.5105 11.0044983,25.9885 C11.0044983,26.4665 11.2184983,26.9055 11.5944983,27.1935 C11.8444983,27.3845 11.9874983,27.6745 11.9874983,27.9885 C11.9874983,28.3025 11.8444983,28.5925 11.5934983,28.7845 C11.2184983,29.0715 11.0044983,29.5105 11.0044983,29.9885 C11.0044983,30.4665 11.2184983,30.9055 11.5944983,31.1935 C11.8444983,31.3845 11.9874983,31.6745 11.9874983,31.9885 C11.9874983,32.3025 11.8444983,32.5925 11.5934983,32.7845 C11.2184983,33.0715 11.0044983,33.5105 11.0044983,33.9885 C11.0044983,34.4665 11.2184983,34.9055 11.5944983,35.1935 C11.8444983,35.3845 11.9874983,35.6745 11.9874983,35.9885 C11.9874983,36.5405 11.5384983,36.9885 10.9874983,36.9885 L10.9874983,37.9885 L10.9874983,38.9885 L10.9874983,39.9885 L12.9874983,39.9885 L13.9874983,39.9885 L14.9874983,39.9885 C14.9874983,39.4365 15.4364983,38.9885 15.9874983,38.9885 C16.3094983,38.9885 16.6044983,39.1375 16.7954983,39.3995 C17.3654983,40.1765 18.6084983,40.1775 19.1794983,39.3985 C19.5614983,38.8775 20.4124983,38.8765 20.7954983,39.3995 C21.3654983,40.1765 22.6084983,40.1775 23.1794983,39.3985 C23.5614983,38.8775 24.4124983,38.8765 24.7954983,39.3995 C25.3654983,40.1765 26.6084983,40.1775 27.1794983,39.3985 C27.5614983,38.8775 28.4124983,38.8765 28.7954983,39.3995 C29.0804983,39.7885 29.5154983,40.0115 29.9874983,40.0115 C30.4594983,40.0115 30.8944983,39.7885 31.1794983,39.3985 C31.3704983,39.1375 31.6654983,38.9885 31.9874983,38.9885 C32.5384983,38.9885 32.9874983,39.4365 32.9874983,39.9885 L33.9874983,39.9885 L34.9874983,39.9885 L36.9874983,39.9885 L36.9874983,36.9885 C36.4364983,36.9885 35.9874983,36.5405 35.9874983,35.9885 C35.9874983,35.6655 36.1374983,35.3715 36.4014983,35.1785 C36.7904983,34.8935 37.0134983,34.4595 37.0124983,33.9865 C37.0114983,33.5145 36.7884983,33.0815 36.3994983,32.7985 C36.1374983,32.6065 35.9874983,32.3115 35.9874983,31.9885 C35.9874983,31.6655 36.1374983,31.3715 36.4014983,31.1785 C36.7904983,30.8935 37.0134983,30.4595 37.0124983,29.9865 C37.0114983,29.5145 36.7884983,29.0815 36.3994983,28.7985 C36.1374983,28.6065 35.9874983,28.3115 35.9874983,27.9885 C35.9874983,27.6655 36.1374983,27.3715 36.4014983,27.1785 C36.7904983,26.8935 37.0134983,26.4595 37.0124983,25.9865 C37.0114983,25.5145 36.7884983,25.0815 36.3994983,24.7985 C36.1374983,24.6065 35.9874983,24.3115 35.9874983,23.9885 C35.9874983,23.6655 36.1374983,23.3715 36.4014983,23.1785 C36.7904983,22.8935 37.0134983,22.4595 37.0124983,21.9865 C37.0114983,21.5145 36.7884983,21.0815 36.3994983,20.7985 C36.1374983,20.6065 35.9874983,20.3115 35.9874983,19.9885 C35.9874983,19.6655 36.1374983,19.3715 36.4014983,19.1785 C36.7904983,18.8935 37.0134983,18.4595 37.0124983,17.9865"/>
    <path fill="#253238" d="M23.9874983,18.9885 C25.0904983,18.9885 25.9874983,19.8855 25.9874983,20.9885 C25.9874983,22.0915 25.0904983,22.9885 23.9874983,22.9885 C22.8844983,22.9885 21.9874983,22.0915 21.9874983,20.9885 C21.9874983,19.8855 22.8844983,18.9885 23.9874983,18.9885 M37.0124983,17.9865 C37.0134983,18.4595 36.7904983,18.8935 36.4014983,19.1785 C36.1374983,19.3715 35.9874983,19.6655 35.9874983,19.9885 C35.9874983,20.3115 36.1374983,20.6065 36.3994983,20.7985 C36.7884983,21.0815 37.0114983,21.5145 37.0124983,21.9865 C37.0134983,22.4595 36.7904983,22.8935 36.4014983,23.1785 C36.1374983,23.3715 35.9874983,23.6655 35.9874983,23.9885 C35.9874983,24.3115 36.1374983,24.6065 36.3994983,24.7985 C36.7884983,25.0815 37.0114983,25.5145 37.0124983,25.9865 C37.0134983,26.4595 36.7904983,26.8935 36.4014983,27.1785 C36.1374983,27.3715 35.9874983,27.6655 35.9874983,27.9885 C35.9874983,28.3115 36.1374983,28.6065 36.3994983,28.7985 C36.7884983,29.0815 37.0114983,29.5145 37.0124983,29.9865 C37.0134983,30.4595 36.7904983,30.8935 36.4014983,31.1785 C36.1374983,31.3715 35.9874983,31.6655 35.9874983,31.9885 C35.9874983,32.3115 36.1374983,32.6065 36.3994983,32.7985 C36.7884983,33.0815 37.0114983,33.5145 37.0124983,33.9865 C37.0134983,34.4595 36.7904983,34.8935 36.4014983,35.1785 C36.1374983,35.3715 35.9874983,35.6655 35.9874983,35.9885 C35.9874983,36.5405 36.4364983,36.9885 36.9874983,36.9885 L36.9874983,39.9885 L34.9874983,39.9885 L33.9874983,39.9885 L32.9874983,39.9885 C32.9874983,39.4365 32.5384983,38.9885 31.9874983,38.9885 C31.6654983,38.9885 31.3704983,39.1375 31.1794983,39.3985 C30.8944983,39.7885 30.4594983,40.0115 29.9874983,40.0115 C29.5154983,40.0115 29.0804983,39.7885 28.7954983,39.3995 C28.4124983,38.8765 27.5614983,38.8775 27.1794983,39.3985 C26.6084983,40.1775 25.3654983,40.1765 24.7954983,39.3995 C24.4124983,38.8765 23.5614983,38.8775 23.1794983,39.3985 C22.6084983,40.1775 21.3654983,40.1765 20.7954983,39.3995 C20.4124983,38.8765 19.5614983,38.8775 19.1794983,39.3985 C18.6084983,40.1775 17.3654983,40.1765 16.7954983,39.3995 C16.6044983,39.1375 16.3094983,38.9885 15.9874983,38.9885 C15.4364983,38.9885 14.9874983,39.4365 14.9874983,39.9885 L13.9874983,39.9885 L12.9874983,39.9885 L10.9874983,39.9885 L10.9874983,38.9885 L10.9874983,37.9885 L10.9874983,36.9885 C11.5384983,36.9885 11.9874983,36.5405 11.9874983,35.9885 C11.9874983,35.6745 11.8444983,35.3845 11.5944983,35.1935 C11.2184983,34.9055 11.0044983,34.4665 11.0044983,33.9885 C11.0044983,33.5105 11.2184983,33.0715 11.5934983,32.7845 C11.8444983,32.5925 11.9874983,32.3025 11.9874983,31.9885 C11.9874983,31.6745 11.8444983,31.3845 11.5944983,31.1935 C11.2184983,30.9055 11.0044983,30.4665 11.0044983,29.9885 C11.0044983,29.5105 11.2184983,29.0715 11.5934983,28.7845 C11.8444983,28.5925 11.9874983,28.3025 11.9874983,27.9885 C11.9874983,27.6745 11.8444983,27.3845 11.5944983,27.1935 C11.2184983,26.9055 11.0044983,26.4665 11.0044983,25.9885 C11.0044983,25.5105 11.2184983,25.0715 11.5934983,24.7845 C11.8444983,24.5925 11.9874983,24.3025 11.9874983,23.9885 C11.9874983,23.6745 11.8444983,23.3845 11.5944983,23.1935 C11.2184983,22.9055 11.0044983,22.4665 11.0044983,21.9885 C11.0044983,21.5105 11.2184983,21.0715 11.5934983,20.7845 C11.8444983,20.5925 11.9874983,20.3025 11.9874983,19.9885 C11.9874983,19.6745 11.8444983,19.3845 11.5944983,19.1935 C11.2184983,18.9055 11.0044983,18.4665 11.0044983,17.9885 C11.0044983,17.5105 11.2184983,17.0715 11.5934983,16.7845 C11.8444983,16.5925 11.9874983,16.3025 11.9874983,15.9885 C11.9874983,15.6745 11.8444983,15.3845 11.5944983,15.1935 C11.2184983,14.9055 11.0044983,14.4665 11.0044983,13.9885 C11.0044983,13.5105 11.2184983,13.0715 11.5934983,12.7845 C11.8444983,12.5925 11.9874983,12.3025 11.9874983,11.9885 C11.9874983,11.4365 11.5384983,10.9885 10.9874983,10.9885 L10.9874983,9.9885 L10.9874983,8.9885 L10.9874983,7.9885 L12.9874983,7.9885 L13.9874983,7.9885 L14.9874983,7.9885 C14.9874983,8.5405 15.4364983,8.9885 15.9874983,8.9885 C16.3094983,8.9885 16.6044983,8.8395 16.7954983,8.5785 C17.3414983,7.8325 18.6324983,7.8305 19.1804983,8.5805 C19.5604983,9.0975 20.4124983,9.0995 20.7954983,8.5785 C21.3414983,7.8325 22.6324983,7.8305 23.1804983,8.5805 C23.5604983,9.0975 24.4124983,9.0995 24.7954983,8.5785 C25.3414983,7.8325 26.6324983,7.8305 27.1804983,8.5805 C27.5604983,9.0975 28.4124983,9.0995 28.7954983,8.5785 C29.3414983,7.8325 30.6324983,7.8305 31.1804983,8.5805 C31.3704983,8.8395 31.6654983,8.9885 31.9874983,8.9885 C32.5384983,8.9885 32.9874983,8.5405 32.9874983,7.9885 L33.9874983,7.9885 L34.9874983,7.9885 L36.9874983,7.9885 L36.9874983,10.9885 C36.4364983,10.9885 35.9874983,11.4365 35.9874983,11.9885 C35.9874983,12.3115 36.1374983,12.6065 36.3994983,12.7985 C36.7884983,13.0815 37.0114983,13.5145 37.0124983,13.9865 C37.0134983,14.4595 36.7904983,14.8935 36.4014983,15.1785 C36.1374983,15.3715 35.9874983,15.6655 35.9874983,15.9885 C35.9874983,16.3115 36.1374983,16.6065 36.3994983,16.7985 C36.7884983,17.0815 37.0114983,17.5145 37.0124983,17.9865 Z M31.9874983,36.9885 C32.8704983,36.9885 33.6574983,37.3795 34.2074983,37.9885 L34.7534983,37.9885 C34.2774983,37.4575 33.9874983,36.7565 33.9874983,35.9885 C33.9874983,35.2465 34.2654983,34.5335 34.7524983,33.9885 C34.2654983,33.4425 33.9874983,32.7305 33.9874983,31.9885 C33.9874983,31.2465 34.2654983,30.5335 34.7524983,29.9885 C34.2654983,29.4425 33.9874983,28.7305 33.9874983,27.9885 C33.9874983,27.2465 34.2654983,26.5335 34.7524983,25.9885 C34.2654983,25.4425 33.9874983,24.7305 33.9874983,23.9885 C33.9874983,23.2465 34.2654983,22.5335 34.7524983,21.9885 C34.2654983,21.4425 33.9874983,20.7305 33.9874983,19.9885 C33.9874983,19.2465 34.2654983,18.5335 34.7524983,17.9885 C34.2654983,17.4425 33.9874983,16.7305 33.9874983,15.9885 C33.9874983,15.2465 34.2654983,14.5335 34.7524983,13.9885 C34.2654983,13.4425 33.9874983,12.7305 33.9874983,11.9885 C33.9874983,11.2205 34.2774983,10.5195 34.7534983,9.9885 L34.2074983,9.9885 C33.6574983,10.5975 32.8704983,10.9885 31.9874983,10.9885 C31.2454983,10.9885 30.5324983,10.7105 29.9874983,10.2235 C28.8944983,11.1975 27.0774983,11.1955 25.9874983,10.2235 C24.8944983,11.1975 23.0784983,11.1955 21.9874983,10.2235 C20.8944983,11.1975 19.0774983,11.1955 17.9874983,10.2235 C17.4414983,10.7105 16.7284983,10.9885 15.9874983,10.9885 C15.1044983,10.9885 14.3174983,10.5975 13.7674983,9.9885 L13.2074983,9.9885 C13.6864983,10.5205 13.9874983,11.2175 13.9874983,11.9885 C13.9874983,12.7395 13.7144983,13.4435 13.2254983,13.9885 C13.7144983,14.5325 13.9874983,15.2375 13.9874983,15.9885 C13.9874983,16.7395 13.7144983,17.4435 13.2254983,17.9885 C13.7144983,18.5325 13.9874983,19.2375 13.9874983,19.9885 C13.9874983,20.7395 13.7144983,21.4435 13.2254983,21.9885 C13.7144983,22.5325 13.9874983,23.2375 13.9874983,23.9885 C13.9874983,24.7395 13.7144983,25.4435 13.2254983,25.9885 C13.7144983,26.5325 13.9874983,27.2375 13.9874983,27.9885 C13.9874983,28.7395 13.7144983,29.4435 13.2254983,29.9885 C13.7144983,30.5325 13.9874983,31.2375 13.9874983,31.9885 C13.9874983,32.7395 13.7144983,33.4435 13.2254983,33.9885 C13.7144983,34.5325 13.9874983,35.2375 13.9874983,35.9885 C13.9874983,36.7595 13.6864983,37.4565 13.2074983,37.9885 L13.7674983,37.9885 C14.3174983,37.3795 15.1044983,36.9885 15.9874983,36.9885 C16.7294983,36.9885 17.4424983,37.2665 17.9874983,37.7535 C19.0774983,36.7805 20.8964983,36.7805 21.9874983,37.7535 C23.0774983,36.7805 24.8964983,36.7805 25.9874983,37.7535 C27.0774983,36.7805 28.8964983,36.7805 29.9874983,37.7535 C30.5324983,37.2665 31.2454983,36.9885 31.9874983,36.9885 Z M30.2814983,12.9885 C31.2224983,12.9885 31.9874983,13.7535 31.9874983,14.6935 L31.9874983,33.2835 C31.9874983,34.2235 31.2224983,34.9885 30.2814983,34.9885 L17.6934983,34.9885 C16.7524983,34.9885 15.9874983,34.2235 15.9874983,33.2835 L15.9874983,14.6935 C15.9874983,13.7535 16.7524983,12.9885 17.6934983,12.9885 L30.2814983,12.9885 Z M29.9874983,32.9885 L29.9874983,31.2385 C29.9874983,30.1945 27.7044983,28.7385 23.9874983,28.7385 C20.2704983,28.7385 17.9874983,30.1945 17.9874983,31.2385 L17.9874983,32.9885 L29.9874983,32.9885 Z M29.9874983,14.9885 L17.9874983,14.9885 L17.9874983,28.2065 C19.4304983,27.2975 21.5454983,26.7385 23.9874983,26.7385 C26.4294983,26.7385 28.5444983,27.2975 29.9874983,28.2065 L29.9874983,14.9885 Z M23.9874983,24.9885 C21.7814983,24.9885 19.9874983,23.1945 19.9874983,20.9885 C19.9874983,18.7825 21.7814983,16.9885 23.9874983,16.9885 C26.1934983,16.9885 27.9874983,18.7825 27.9874983,20.9885 C27.9874983,23.1945 26.1934983,24.9885 23.9874983,24.9885 Z"/>
    <path fill="#FFF" fill-opacity=".5" d="M23.9874983 18.9885C25.0904983 18.9885 25.9874983 19.8855 25.9874983 20.9885 25.9874983 22.0915 25.0904983 22.9885 23.9874983 22.9885 22.8844983 22.9885 21.9874983 22.0915 21.9874983 20.9885 21.9874983 19.8855 22.8844983 18.9885 23.9874983 18.9885M29.9874983 32.9885L17.9874983 32.9885 17.9874983 31.2385C17.9874983 30.1945 20.2704983 28.7385 23.9874983 28.7385 27.7044983 28.7385 29.9874983 30.1945 29.9874983 31.2385L29.9874983 32.9885z"/>
  </g>
</svg>
