<svg xmlns="http://www.w3.org/2000/svg" width="48" height="48" viewBox="0 0 48 48">
  <g fill="none" fill-rule="evenodd">
    <path fill="#CFD8DC" d="M36,23.77 L36,12 C36,10.361 34.667,9.028 33.028,9.028 L10.972,9.028 C9.333,9.028 8,10.361 8,12 L8,29 C8,31.505 9.869,33 13,33 L18.755,33 C18.366,34.821 17.4,36.972 15,36.972 C14.448,36.972 14,37.419 14,37.972 C14,38.524 14.448,38.972 15,38.972 L29,38.972 C29.552,38.972 30,38.524 30,37.972 C30,37.419 29.552,36.972 29,36.972 C27.077,36.972 25.821,35.629 25.254,33 L28.429,33 L28.429,33.543 C28.429,36.536 30.864,38.972 33.857,38.972 L34.571,38.972 C37.564,38.972 40,36.536 40,33.543 L40,29.001 C40,26.503 38.301,24.399 36,23.77 Z"/>
    <path fill="#253238" d="M38,33.543 C38,35.434 36.462,36.972 34.571,36.972 L33.857,36.972 C31.967,36.972 30.429,35.434 30.429,33.543 L30.429,29.001 C30.429,27.11 31.967,25.572 33.857,25.572 L34.571,25.572 C36.462,25.572 38,27.11 38,29.001 L38,33.543 Z M28.525,28 L10,28 L10,12 C10,11.464 10.436,11.028 10.972,11.028 L33.028,11.028 C33.564,11.028 34,11.464 34,12 L34,23.572 L33.857,23.572 C31.206,23.572 28.997,25.483 28.525,28 Z M13,31 C11.292,31 10.556,30.512 10.239,30 L28.429,30 L28.429,31 L13,31 Z M24.833,36.972 L19.17,36.972 C19.947,35.986 20.483,34.636 20.775,33 L23.245,33 C23.245,33.064 23.231,33.125 23.244,33.19 C23.552,34.755 24.091,36.025 24.833,36.972 Z M36,12 L36,23.77 C38.301,24.399 40,26.503 40,29.001 L40,33.543 C40,36.536 37.564,38.972 34.571,38.972 L33.857,38.972 C30.864,38.972 28.429,36.536 28.429,33.543 L28.429,33 L25.254,33 C25.821,35.629 27.077,36.972 29,36.972 C29.552,36.972 30,37.419 30,37.972 C30,38.524 29.552,38.972 29,38.972 L15,38.972 C14.448,38.972 14,38.524 14,37.972 C14,37.419 14.448,36.972 15,36.972 C17.4,36.972 18.366,34.821 18.755,33 L13,33 C9.869,33 8,31.505 8,29 L8,12 C8,10.361 9.333,9.028 10.972,9.028 L33.028,9.028 C34.667,9.028 36,10.361 36,12 Z M22.71,12.2891 C22.43,12.0101 21.99,11.9191 21.62,12.0791 C21.49,12.1291 21.39,12.1991 21.29,12.2891 C21.2,12.3901 21.13,12.4991 21.08,12.6191 C21.03,12.7391 21,12.8691 21,12.9991 C21,13.2691 21.1,13.5191 21.29,13.7091 C21.48,13.8991 21.73,13.9991 22,13.9991 C22.27,13.9991 22.52,13.8991 22.71,13.7091 C22.9,13.5191 23,13.2691 23,12.9991 C23,12.8691 22.98,12.7391 22.92,12.6191 C22.87,12.4991 22.8,12.3901 22.71,12.2891 Z"/>
    <path fill="#FFF" d="M13 31C11.292 31 10.556 30.512 10.239 30L28.429 30 28.429 31 13 31zM38 33.543C38 35.434 36.462 36.972 34.571 36.972L33.857 36.972C31.967 36.972 30.429 35.434 30.429 33.543L30.429 29.001C30.429 27.11 31.967 25.572 33.857 25.572L34.571 25.572C36.462 25.572 38 27.11 38 29.001L38 33.543z" opacity=".5"/>
    <path fill="#253238" d="M34.2856,26.9717 C33.7336,26.9717 33.2856,27.4187 33.2856,27.9717 L33.2856,29.9997 C33.2856,30.5527 33.7336,30.9997 34.2856,30.9997 C34.8376,30.9997 35.2856,30.5527 35.2856,29.9997 L35.2856,27.9717 C35.2856,27.4187 34.8376,26.9717 34.2856,26.9717"/>
  </g>
</svg>
