<svg xmlns="http://www.w3.org/2000/svg" width="48" height="48" viewBox="0 0 48 48">
  <g fill="none" fill-rule="evenodd" transform="translate(11 8)">
    <g transform="translate(.154 .463)">
      <path fill="#CFD8DC" d="M22.3556542,0 L3.29799701,0 C1.69231571,0 0.387101586,1.30521412 0.387101586,2.90993852 L0.387101586,26.7530619 C0.387101586,28.3443896 1.34400343,29.6381209 3.25780713,29.6591728 L3.25780713,29.6639573 C3.25780713,30.1921671 3.68649916,30.6208591 4.21470898,30.6208591 L6.12851267,30.6208591 C6.65672249,30.6208591 7.08541452,30.1921671 7.08541452,29.6639573 L18.5682367,29.6639573 C18.5682367,30.1921671 18.9969287,30.6208591 19.5251385,30.6208591 L21.4389422,30.6208591 C21.9671521,30.6208591 22.3958441,30.1921671 22.3958441,29.6639573 C22.3958441,29.6620435 22.3948872,29.6610866 22.3948872,29.6591728 C23.9814305,29.6381209 25.2665496,28.3443896 25.2665496,26.7530619 L25.2665496,2.90993852 C25.2665496,1.30521412 23.9613355,0 22.3556542,0 L22.3556542,0 Z"/>
      <g fill="#FFF" transform="translate(1.544 1.544)">
        <path fill-opacity=".3" d="M21.8087259,25.2090419 C21.8087259,25.7583035 21.3618528,26.2061336 20.8116342,26.2061336 L1.753977,26.2061336 C1.20375843,26.2061336 0.756885271,25.7583035 0.756885271,25.2090419 L0.756885271,1.36591851 C0.756885271,0.816656849 1.20375843,0.369783686 1.753977,0.369783686 L20.8116342,0.369783686 C21.3618528,0.369783686 21.8087259,0.816656849 21.8087259,1.36591851 L21.8087259,25.2090419 Z M11.2828056,22.3780477 C14.9764467,22.3780477 17.9811185,19.3733759 17.9811185,15.6797348 C17.9811185,11.9860937 14.9764467,8.98142187 11.2828056,8.98142187 C7.58916447,8.98142187 4.58449266,11.9860937 4.58449266,15.6797348 C4.58449266,19.3733759 7.58916447,22.3780477 11.2828056,22.3780477 Z"/>
        <path fill-opacity=".5" d="M11.2828056,22.3780477 C7.58916447,22.3780477 4.58449266,19.3733759 4.58449266,15.6797348 C4.58449266,11.9860937 7.58916447,8.98142187 11.2828056,8.98142187 C14.9764467,8.98142187 17.9811185,11.9860937 17.9811185,15.6797348 C17.9811185,19.3733759 14.9764467,22.3780477 11.2828056,22.3780477"/>
      </g>
    </g>
    <path fill="#FFF" fill-opacity=".5" d="M12.9812276,24.3852738 C9.28758648,24.3852738 6.28291468,21.380602 6.28291468,17.6869608 C6.28291468,13.9933197 9.28758648,10.9886479 12.9812276,10.9886479 C16.6748687,10.9886479 19.6795405,13.9933197 19.6795405,17.6869608 C19.6795405,21.380602 16.6748687,24.3852738 12.9812276,24.3852738"/>
    <path fill="#253238" d="M23.5071479,27.2162679 C23.5071479,27.7655295 23.0602748,28.2133596 22.5100562,28.2133596 L3.45239901,28.2133596 C2.90218045,28.2133596 2.45530728,27.7655295 2.45530728,27.2162679 L2.45530728,3.37314452 C2.45530728,2.82388286 2.90218045,2.3770097 3.45239901,2.3770097 L22.5100562,2.3770097 C23.0602748,2.3770097 23.5071479,2.82388286 23.5071479,3.37314452 L23.5071479,27.2162679 Z M22.5100562,0.463206003 C24.1157375,0.463206003 25.4209516,1.76842012 25.4209516,3.37314452 L25.4209516,27.2162679 C25.4209516,28.8075956 24.1358325,30.1013269 22.5492892,30.1223788 C22.5492892,30.1242926 22.5502461,30.1252495 22.5502461,30.1271633 C22.5502461,30.6553731 22.1215541,31.0840651 21.5933442,31.0840651 L19.6795405,31.0840651 C19.1513307,31.0840651 18.7226387,30.6553731 18.7226387,30.1271633 L7.23981652,30.1271633 C7.23981652,30.6553731 6.8111245,31.0840651 6.28291468,31.0840651 L4.36911098,31.0840651 C3.84090116,31.0840651 3.41220913,30.6553731 3.41220913,30.1271633 L3.41220913,30.1223788 C1.49840543,30.1013269 0.541503587,28.8075956 0.541503587,27.2162679 L0.541503587,3.37314452 C0.541503587,1.76842012 1.84671771,0.463206003 3.45239901,0.463206003 L22.5100562,0.463206003 Z M19.9570421,4.56783648 C19.7847998,4.74964783 19.6795405,4.99844231 19.6795405,5.24723679 C19.6795405,5.49603127 19.7847998,5.74482575 19.9570421,5.9266371 C20.1388534,6.09887944 20.3876479,6.20413864 20.6364424,6.20413864 C20.8852369,6.20413864 21.1340314,6.09887944 21.3158427,5.9266371 C21.488085,5.74482575 21.5933442,5.49603127 21.5933442,5.24723679 C21.5933442,4.99844231 21.488085,4.74964783 21.3158427,4.56783648 C20.95222,4.2137828 20.3206648,4.2137828 19.9570421,4.56783648 Z M17.7657369,6.20413864 C18.0145313,6.20413864 18.2633258,6.09887944 18.4451372,5.9266371 C18.6173795,5.74482575 18.7226387,5.49603127 18.7226387,5.24723679 C18.7226387,4.99844231 18.6173795,4.74964783 18.4451372,4.56783648 C18.0910835,4.2137828 17.4403902,4.2137828 17.0863365,4.56783648 C16.9140942,4.74964783 16.808835,4.99844231 16.808835,5.24723679 C16.808835,5.49603127 16.9140942,5.74482575 17.0863365,5.9266371 C17.2681479,6.09887944 17.5169424,6.20413864 17.7657369,6.20413864 Z M14.8950313,6.20413864 C15.1438258,6.20413864 15.3926203,6.09887944 15.5744316,5.9266371 C15.746674,5.74482575 15.8519332,5.49603127 15.8519332,5.24723679 C15.8519332,4.99844231 15.746674,4.74964783 15.5744316,4.56783648 C15.2108089,4.2137828 14.5696847,4.2137828 14.215631,4.56783648 C14.0433887,4.74964783 13.9381295,4.99844231 13.9381295,5.24723679 C13.9381295,5.49603127 14.0433887,5.74482575 14.215631,5.9266371 C14.3974423,6.09887944 14.6462368,6.20413864 14.8950313,6.20413864 Z M5.32601283,6.20413864 L10.1105221,6.20413864 C10.6387319,6.20413864 11.0674239,5.77544661 11.0674239,5.24723679 C11.0674239,4.71902697 10.6387319,4.29033494 10.1105221,4.29033494 L5.32601283,4.29033494 C4.79780301,4.29033494 4.36911098,4.71902697 4.36911098,5.24723679 C4.36911098,5.77544661 4.79780301,6.20413864 5.32601283,6.20413864 Z M12.9812276,24.3852738 C9.28758648,24.3852738 6.28291468,21.380602 6.28291468,17.6869608 C6.28291468,13.9933197 9.28758648,10.9886479 12.9812276,10.9886479 C16.6748687,10.9886479 19.6795405,13.9933197 19.6795405,17.6869608 C19.6795405,21.380602 16.6748687,24.3852738 12.9812276,24.3852738 Z M4.36911098,17.6869608 C4.36911098,22.4351078 8.23308064,26.2990775 12.9812276,26.2990775 C17.7293746,26.2990775 21.5933442,22.4351078 21.5933442,17.6869608 C21.5933442,12.9388138 17.7293746,9.07484419 12.9812276,9.07484419 C8.23308064,9.07484419 4.36911098,12.9388138 4.36911098,17.6869608 Z M12.9812276,12.9024516 C10.3430492,12.9024516 8.19671837,15.0487824 8.19671837,17.6869608 C8.19671837,18.2151706 8.6254104,18.6438627 9.15362022,18.6438627 C9.68183004,18.6438627 10.1105221,18.2151706 10.1105221,17.6869608 C10.1105221,16.1042452 11.398512,14.8162553 12.9812276,14.8162553 C13.5094374,14.8162553 13.9381295,14.3875632 13.9381295,13.8593534 C13.9381295,13.3311436 13.5094374,12.9024516 12.9812276,12.9024516 Z"/>
  </g>
</svg>
