<svg xmlns="http://www.w3.org/2000/svg" width="48" height="48" viewBox="0 0 48 48">
  <g fill="none" fill-rule="evenodd" transform="translate(9 10)">
    <path fill="#CFD8DC" d="M15.3420445,0.499554221 C6.04191543,0.499554221 0.0316149223,5.54219765 0.0316149223,13.3456338 C0.0316149223,18.4831173 2.48989577,23.8007967 6.14908844,26.5777123 C6.83040255,27.0955387 7.53563922,27.292806 8.24470348,27.292806 C9.47240856,27.2918576 10.7106395,26.7010043 11.8522235,26.1556742 C13.0100747,25.602757 14.2071589,25.0308717 15.3420445,25.0308717 C16.477887,25.0308717 17.6749712,25.602757 18.8328224,26.1556742 C20.6337117,27.0158731 22.6747834,27.9908285 24.5359574,26.5777123 C28.1951501,23.7998483 30.6524741,18.4821689 30.6524741,13.3456338 C30.6524741,5.54219765 24.6431305,0.499554221 15.3420445,0.499554221"/>
    <path fill="#253238" d="M23.3723648,25.0716529 C22.4901013,25.7431202 21.3877504,25.2698685 19.6634132,24.4466572 C19.099798,24.1773116 18.5007775,23.8956367 17.8759206,23.6604335 C17.8156358,23.6073231 17.7601355,23.5494707 17.6845402,23.5115347 L13.8569328,21.6147345 C13.3823095,21.3795312 12.8081684,21.5711081 12.5727705,22.0386693 C12.3364158,22.507179 12.5277962,23.0771674 13.0005057,23.3114223 L13.3363782,23.4773923 C12.5182271,23.7372539 11.7421797,24.102388 11.0216326,24.4466572 C9.29633862,25.2708169 8.19494459,25.7412234 7.31268108,25.0716529 C4.10227538,22.635213 1.94541862,17.9226128 1.94541862,13.3456338 C1.94541862,5.27285202 8.86573278,2.39635446 15.3420445,2.39635446 C21.8183562,2.39635446 28.7386704,5.27285202 28.7386704,13.3456338 C28.7386704,17.9226128 26.5818136,22.635213 23.3723648,25.0716529 M15.3420445,0.499554221 C24.6431305,0.499554221 30.6524741,5.54219765 30.6524741,13.3456338 C30.6524741,18.4821689 28.1951501,23.7998483 24.5359574,26.5777123 C22.6747834,27.9908285 20.6337117,27.0158731 18.8328224,26.1556742 C17.6749712,25.602757 16.477887,25.0308717 15.3420445,25.0308717 C14.2071589,25.0308717 13.0100747,25.602757 11.8522235,26.1556742 C10.7106395,26.7010043 9.47240856,27.2918576 8.24470348,27.292806 C7.53563922,27.292806 6.83040255,27.0955387 6.14908844,26.5777123 C2.48989577,23.8007967 0.0316149223,18.4831173 0.0316149223,13.3456338 C0.0316149223,5.54219765 6.04191543,0.499554221 15.3420445,0.499554221 Z M10.557918,12.0306771 L9.60101616,12.0306771 L9.60101616,11.0822769 C9.60101616,10.5587601 9.17232414,10.1338768 8.64411432,10.1338768 C8.1159045,10.1338768 7.68721247,10.5587601 7.68721247,11.0822769 L7.68721247,12.0306771 L6.73031062,12.0306771 C6.2021008,12.0306771 5.77340877,12.4555603 5.77340877,12.9790772 C5.77340877,13.502594 6.2021008,13.9274773 6.73031062,13.9274773 L7.68721247,13.9274773 L7.68721247,14.8758774 C7.68721247,15.3993943 8.1159045,15.8242775 8.64411432,15.8242775 C9.17232414,15.8242775 9.60101616,15.3993943 9.60101616,14.8758774 L9.60101616,13.9274773 L10.557918,13.9274773 C11.0861278,13.9274773 11.5148199,13.502594 11.5148199,12.9790772 C11.5148199,12.4555603 11.0861278,12.0306771 10.557918,12.0306771 Z M20.404438,15.1509135 C20.2321957,15.3311095 20.1269365,15.5776935 20.1269365,15.8242775 C20.1269365,16.0708616 20.2321957,16.3174456 20.404438,16.4976416 C20.5862494,16.6683536 20.8350439,16.7726777 21.0838383,16.7726777 C21.3326328,16.7726777 21.5814273,16.6683536 21.7632387,16.4976416 C21.935481,16.3174456 22.0407402,16.0708616 22.0407402,15.8242775 C22.0407402,15.5776935 21.935481,15.3311095 21.7632387,15.1509135 C21.409185,14.8000054 20.7584917,14.8000054 20.404438,15.1509135 Z M17.5337325,12.3057131 C17.3614902,12.4859091 17.2562309,12.7324931 17.2562309,12.9790772 C17.2562309,13.2351452 17.3614902,13.4722452 17.5337325,13.6524413 C17.7155438,13.8231533 17.9643383,13.9274773 18.2131328,13.9274773 C18.4714963,13.9274773 18.7107218,13.8231533 18.8925331,13.6524413 C19.0647754,13.4722452 19.1700346,13.2351452 19.1700346,12.9790772 C19.1700346,12.7324931 19.0647754,12.4859091 18.8925331,12.3057131 C18.5384794,11.9548051 17.8877862,11.9548051 17.5337325,12.3057131 Z M23.2751436,12.3057131 C23.1029012,12.4859091 22.997642,12.7324931 22.997642,12.9790772 C22.997642,13.2351452 23.1029012,13.4722452 23.2751436,13.6524413 C23.4569549,13.8231533 23.7057494,13.9274773 23.9545439,13.9274773 C24.2033384,13.9274773 24.4521328,13.8231533 24.6339442,13.6524413 C24.8061865,13.4722452 24.9114457,13.2351452 24.9114457,12.9790772 C24.9114457,12.7324931 24.8061865,12.4859091 24.6339442,12.3057131 C24.2798905,11.9548051 23.6291973,11.9548051 23.2751436,12.3057131 Z M20.404438,9.46051274 C20.2321957,9.64070876 20.1269365,9.88729279 20.1269365,10.1338768 C20.1269365,10.3804609 20.2321957,10.6270449 20.404438,10.8072409 C20.5862494,10.9779529 20.8350439,11.0822769 21.0838383,11.0822769 C21.3326328,11.0822769 21.5814273,10.9779529 21.7632387,10.8072409 C21.935481,10.6270449 22.0407402,10.3804609 22.0407402,10.1338768 C22.0407402,9.88729279 21.935481,9.64070876 21.7632387,9.46051274 C21.409185,9.1096047 20.7680607,9.1096047 20.404438,9.46051274 Z"/>
  </g>
</svg>
