<svg width="48" height="48" fill="none" xmlns="http://www.w3.org/2000/svg" viewBox="0 0 48 48"><path d="M39 20.061c0 4.396-1.96 8.489-5.99 12.143-3.06 2.757-6.47 4.49-7.77 5.085-.42.188-.95.282-1.25.282-.29 0-.83-.094-1.24-.282-1.31-.595-4.6-2.328-7.66-5.085C11.05 28.55 9 24.467 9 20.061c0-5.513 4.27-9.972 9.56-10.003 1.96 0 3.83.616 5.43 1.796a9.153 9.153 0 0 1 5.45-1.796c5.26 0 9.56 4.459 9.56 10.003z" fill="#F75883" stroke="#CF4A6E" stroke-width="2"/><path d="M29.887 21.464h-2.882a.458.458 0 0 1-.457-.457v-2.894c0-.62-.504-1.113-1.113-1.113h-2.87c-.621 0-1.113.504-1.113 1.113v2.882c0 .258-.211.457-.457.457h-2.882c-.62 0-1.113.504-1.113 1.113v2.87c0 .621.504 1.113 1.113 1.113h2.882c.258 0 .457.211.457.457v2.882c0 .621.504 1.113 1.113 1.113h2.87c.621 0 1.113-.504 1.113-1.113v-2.882c0-.258.211-.457.457-.457h2.882c.621 0 1.113-.504 1.113-1.113v-2.87a1.11 1.11 0 0 0-1.113-1.101z" fill="#fff"/></svg>