<svg xmlns="http://www.w3.org/2000/svg" width="48" height="48" viewBox="0 0 48 48">
  <g fill="none" fill-rule="evenodd" transform="translate(7.727 12.645)">
    <path fill="#CFD8DC" d="M29.5307472,14.0765211 C29.5511283,14.051508 29.5807735,14.0376118 29.5993017,14.0088931 C29.9995117,13.4206214 30.238526,12.7313709 30.2894787,12.0171072 C30.3682237,10.9313524 30.0189664,9.87987474 29.3065555,9.05722088 C29.0554979,8.76725392 28.7599724,8.5337981 28.4477716,8.32813463 L28.4477716,5.81477886 C28.4477716,2.739091 25.5675567,0.237778581 22.0258836,0.237778581 L19.2012534,0.237778581 C17.6726736,0.237778581 16.3256705,0.989098718 15.4780035,2.13043831 C14.6303365,0.989098718 13.2833335,0.237778581 11.7547537,0.237778581 L8.93012345,0.237778581 C5.38845035,0.237778581 2.50823542,2.739091 2.50823542,5.81477886 L2.50823542,8.31609128 C1.3956146,9.04425111 0.655411412,10.2967601 0.655411412,11.7234346 C0.655411412,12.5748073 0.935187838,13.3909762 1.42433338,14.0774475 C0.95001043,14.5767836 0.655411412,15.2465795 0.655411412,15.9867827 L0.655411412,18.7660187 C0.655411412,20.2983042 1.90236197,21.5452547 3.43464743,21.5452547 L3.43464743,22.4716667 C3.43464743,22.9839726 3.8487536,23.3980787 4.36105944,23.3980787 C4.87336528,23.3980787 5.28747144,22.9839726 5.28747144,22.4716667 L5.28747144,21.5452547 L25.6685356,21.5452547 L25.6685356,22.4716667 C25.6685356,22.9839726 26.0826417,23.3980787 26.5949476,23.3980787 C27.1072534,23.3980787 27.5213596,22.9839726 27.5213596,22.4716667 L27.5213596,21.5452547 C29.0536451,21.5452547 30.3005956,20.2983042 30.3005956,18.7660187 L30.3005956,15.9867827 C30.3005956,15.2456531 30.0050702,14.5758572 29.5307472,14.0765211 Z"/>
    <path fill="#253238" d="M28.4477716,18.7660187 C28.4477716,19.2773981 28.032739,19.6924307 27.5213596,19.6924307 L3.43464743,19.6924307 C2.923268,19.6924307 2.50823542,19.2773981 2.50823542,18.7660187 L2.50823542,15.9867827 C2.50823542,15.4754033 2.923268,15.0603707 3.43464743,15.0603707 L27.5213596,15.0603707 C28.032739,15.0603707 28.4477716,15.4754033 28.4477716,15.9867827 L28.4477716,18.7660187 Z M4.72977142,9.50189864 C5.9554145,9.50189864 6.95130741,10.498718 6.95130741,11.7234346 C6.95130741,12.2653857 6.75398165,12.787882 6.39638661,13.1917977 C6.39268097,13.1964297 6.39082814,13.2029146 6.38804891,13.2075467 L3.43464743,13.2075467 C3.31699311,13.2075467 3.20582366,13.2279277 3.0928014,13.2418239 C3.07983163,13.2270013 3.07612598,13.2066203 3.06315622,13.1908713 C2.70556118,12.7869556 2.50823542,12.2644592 2.50823542,11.7234346 C2.50823542,10.498718 3.50505474,9.50189864 4.72977142,9.50189864 Z M4.36105944,5.81477886 C4.36105944,3.76092344 6.41028279,2.09060259 8.93012345,2.09060259 L11.7547537,2.09060259 C13.2972296,2.09060259 14.5515915,3.34496445 14.5515915,4.88744044 L14.5515915,13.2075467 L8.52064935,13.2075467 C8.70407892,12.7387822 8.80413142,12.2366669 8.80413142,11.7234346 C8.80413142,9.47688552 6.97632053,7.64907463 4.72977142,7.64907463 C4.60377938,7.64907463 4.48427223,7.67501417 4.36105944,7.68613111 L4.36105944,5.81477886 Z M19.2012534,2.09060259 L22.0258836,2.09060259 C24.5457242,2.09060259 26.5949476,3.76092344 26.5949476,5.81477886 L26.5949476,7.67223493 C26.5690081,7.67038211 26.5449213,7.6620444 26.5189818,7.66019158 C25.4313741,7.58144655 24.3826757,7.93070388 23.5600219,8.64311471 C22.7364416,9.35552555 22.2408112,10.34586 22.1629925,11.4306884 C22.1185248,12.0421204 22.2278414,12.6452146 22.4483274,13.2075467 L16.4044155,13.2075467 L16.4044155,4.88744044 C16.4044155,3.34496445 17.6587774,2.09060259 19.2012534,2.09060259 Z M27.5213596,13.2075467 L24.5253432,13.2075467 C24.5012565,13.1612261 24.4910659,13.1111998 24.4577151,13.0695113 C24.1306917,12.6387297 23.9713488,12.10419 24.0102581,11.5650182 C24.052873,10.9721145 24.3243118,10.4320163 24.7717688,10.0438497 C25.222005,9.65475662 25.7917484,9.46669499 26.3846521,9.50745712 C26.9775557,9.55007207 27.5176539,9.82151079 27.9058206,10.2698942 C28.2939872,10.7182776 28.4848281,11.2917266 28.4422131,11.8827775 C28.4134944,12.272797 28.2837967,12.6479938 28.0670163,12.9685324 C28.0067995,13.0565415 27.9743751,13.1528884 27.9484355,13.251088 C27.8085473,13.2288541 27.6677327,13.2075467 27.5213596,13.2075467 Z M29.5307472,14.0765211 C29.5511283,14.051508 29.5807735,14.0376118 29.5993017,14.0088931 C29.9995117,13.4206214 30.238526,12.7313709 30.2894787,12.0171072 C30.3682237,10.9313524 30.0189664,9.87987474 29.3065555,9.05722088 C29.0554979,8.76725392 28.7599724,8.5337981 28.4477716,8.32813463 L28.4477716,5.81477886 C28.4477716,2.739091 25.5675567,0.237778581 22.0258836,0.237778581 L19.2012534,0.237778581 C17.6726736,0.237778581 16.3256705,0.989098718 15.4780035,2.13043831 C14.6303365,0.989098718 13.2833335,0.237778581 11.7547537,0.237778581 L8.93012345,0.237778581 C5.38845035,0.237778581 2.50823542,2.739091 2.50823542,5.81477886 L2.50823542,8.31609128 C1.3956146,9.04425111 0.655411412,10.2967601 0.655411412,11.7234346 C0.655411412,12.5748073 0.935187838,13.3909762 1.42433338,14.0774475 C0.95001043,14.5767836 0.655411412,15.2465795 0.655411412,15.9867827 L0.655411412,18.7660187 C0.655411412,20.2983042 1.90236197,21.5452547 3.43464743,21.5452547 L3.43464743,22.4716667 C3.43464743,22.9839726 3.8487536,23.3980787 4.36105944,23.3980787 C4.87336528,23.3980787 5.28747144,22.9839726 5.28747144,22.4716667 L5.28747144,21.5452547 L25.6685356,21.5452547 L25.6685356,22.4716667 C25.6685356,22.9839726 26.0826417,23.3980787 26.5949476,23.3980787 C27.1072534,23.3980787 27.5213596,22.9839726 27.5213596,22.4716667 L27.5213596,21.5452547 C29.0536451,21.5452547 30.3005956,20.2983042 30.3005956,18.7660187 L30.3005956,15.9867827 C30.3005956,15.2456531 30.0050702,14.5758572 29.5307472,14.0765211 Z"/>
    <path fill="#FFF" fill-opacity=".6" d="M4.72977142 9.50189864C5.9554145 9.50189864 6.95130741 10.498718 6.95130741 11.7234346 6.95130741 12.2653857 6.75398165 12.787882 6.39638661 13.1917977 6.39268097 13.1964297 6.39082814 13.2029146 6.38804891 13.2075467L3.43464743 13.2075467C3.31699311 13.2075467 3.20582366 13.2279277 3.0928014 13.2418239 3.07983163 13.2270013 3.07612598 13.2066203 3.06315622 13.1908713 2.70556118 12.7869556 2.50823542 12.2644592 2.50823542 11.7234346 2.50823542 10.498718 3.50505474 9.50189864 4.72977142 9.50189864zM27.5213596 13.2075467L24.5253432 13.2075467C24.5012565 13.1612261 24.4910659 13.1111998 24.4577151 13.0695113 24.1306917 12.6387297 23.9713488 12.10419 24.0102581 11.5650182 24.052873 10.9721145 24.3243118 10.4320163 24.7717688 10.0438497 25.222005 9.65475662 25.7917484 9.46669499 26.3846521 9.50745712 26.9775557 9.55007207 27.5176539 9.82151079 27.9058206 10.2698942 28.2939872 10.7182776 28.4848281 11.2917266 28.4422131 11.8827775 28.4134944 12.272797 28.2837967 12.6479938 28.0670163 12.9685324 28.0067995 13.0565415 27.9743751 13.1528884 27.9484355 13.251088 27.8085473 13.2288541 27.6677327 13.2075467 27.5213596 13.2075467z"/>
  </g>
</svg>
