<svg xmlns="http://www.w3.org/2000/svg" width="48" height="48" viewBox="0 0 48 48">
  <g fill="none" fill-rule="evenodd" transform="translate(9.177 8.251)">
    <path fill="#CFD8DC" d="M24.6020874,3.13768715 L28.9996998,10.5890818 C29.3639426,11.2062835 29.359175,11.9306582 29.0063744,12.5526444 C28.6678765,13.1487943 28.2702606,13.5277274 27.3167453,13.6138486 L27.3167453,24.8708419 C27.3167453,28.1692826 24.6859967,30.8093748 21.3992296,30.8093748 L8.4428641,30.8093748 C5.15609697,30.8093748 2.52534834,28.1692826 2.52534834,24.8708419 L2.52534834,13.6138486 C1.57183307,13.5277274 1.17421721,13.1574064 0.835719288,12.5602996 C0.482918638,11.9383134 0.467662394,11.2062835 0.831905227,10.5890818 L5.24000631,3.13673024 C5.62808703,2.47933867 6.36896839,2.10231935 7.17373528,2.10231935 L9.21235092,2.10231935 C9.27814347,1.1454175 10.124865,0.18851565 11.1670572,0.18851565 L12.9548984,0.18851565 C13.996137,0.18851565 14.8428586,1.1454175 14.9086511,2.10231935 L22.6693119,2.10231935 C23.4731253,2.10231935 24.2140066,2.47933867 24.6020874,3.13768715 Z"/>
    <path fill="#253238" d="M21.3992296,28.8955711 L19.6886232,28.8955711 L19.6886232,24.3502873 C19.6886232,22.6355192 18.2993514,21.2403563 16.5906521,21.2403563 L13.2523951,21.2403563 C11.5436958,21.2403563 10.1534705,22.6355192 10.1534705,24.3502873 L10.1534705,28.8955711 L8.4428641,28.8955711 C6.25454656,28.8955711 4.43237888,27.0669317 4.43237888,24.8708419 L4.43237888,13.5851415 L25.4097148,13.5851415 L25.4097148,24.8708419 C25.4097148,27.0669317 23.5875471,28.8955711 21.3992296,28.8955711 L21.3992296,28.8955711 Z M17.7815926,28.8955711 L12.060501,28.8955711 L12.060501,24.3502873 C12.060501,23.6909819 12.5954231,23.15416 13.2523951,23.15416 L16.5906521,23.15416 C17.2476241,23.15416 17.7815926,23.6909819 17.7815926,24.3502873 L17.7815926,28.8955711 Z M6.99161386,4.11277013 C7.00210253,4.0955459 7.06694157,4.01612304 7.17373528,4.01612304 L9.19995522,4.01612304 L9.19995522,4.97302489 C9.19995522,5.50123471 9.62713006,5.92992674 10.1534705,5.92992674 C10.6798109,5.92992674 11.1069858,5.50123471 11.1069858,4.97302489 L11.1670572,2.10231935 L13.0140163,2.16260416 L13.0140163,4.97302489 C13.0140163,5.50123471 13.4411911,5.92992674 13.9675316,5.92992674 C14.493872,5.92992674 14.9210468,5.50123471 14.9210468,4.97302489 L14.9210468,4.01612304 L22.6693119,4.01612304 C22.7751521,4.01612304 22.8399911,4.0955459 22.8504798,4.11372703 L27.2595344,11.5574665 C27.2519063,11.5708631 27.1975559,11.6713378 27.0764595,11.6713378 L2.76563419,11.6713378 C2.67505024,11.6713378 2.62356042,11.5976564 2.59876902,11.6033978 L6.99161386,4.11277013 Z M24.6020874,3.13768715 L28.9996998,10.5890818 C29.3639426,11.2062835 29.359175,11.9306582 29.0063744,12.5526444 C28.6678765,13.1487943 28.2702606,13.5277274 27.3167453,13.6138486 L27.3167453,24.8708419 C27.3167453,28.1692826 24.6859967,30.8093748 21.3992296,30.8093748 L8.4428641,30.8093748 C5.15609697,30.8093748 2.52534834,28.1692826 2.52534834,24.8708419 L2.52534834,13.6138486 C1.57183307,13.5277274 1.17421721,13.1574064 0.835719288,12.5602996 C0.482918638,11.9383134 0.467662394,11.2062835 0.831905227,10.5890818 L5.24000631,3.13673024 C5.62808703,2.47933867 6.36896839,2.10231935 7.17373528,2.10231935 L9.21235092,2.10231935 C9.27814347,1.1454175 10.124865,0.18851565 11.1670572,0.18851565 L12.9548984,0.18851565 C13.996137,0.18851565 14.8428586,1.1454175 14.9086511,2.10231935 L22.6693119,2.10231935 C23.4731253,2.10231935 24.2140066,2.47933867 24.6020874,3.13768715 Z M9.20005057,16.4558471 C8.67371015,16.4558471 8.24653531,16.8845391 8.24653531,17.4127489 L8.24653531,18.3696508 C8.24653531,18.8978606 8.67371015,19.3265526 9.20005057,19.3265526 C9.726391,19.3265526 10.1535658,18.8978606 10.1535658,18.3696508 L10.1535658,17.4127489 C10.1535658,16.8845391 9.726391,16.4558471 9.20005057,16.4558471 Z M13.0141116,16.4558471 C12.4877712,16.4558471 12.0605964,16.8845391 12.0605964,17.4127489 L12.0605964,18.3696508 C12.0605964,18.8978606 12.4877712,19.3265526 13.0141116,19.3265526 C13.5404521,19.3265526 13.9676269,18.8978606 13.9676269,18.3696508 L13.9676269,17.4127489 C13.9676269,16.8845391 13.5404521,16.4558471 13.0141116,16.4558471 Z M16.8281727,16.4558471 C16.3018323,16.4558471 15.8746575,16.8845391 15.8746575,17.4127489 L15.8746575,18.3696508 C15.8746575,18.8978606 16.3018323,19.3265526 16.8281727,19.3265526 C17.3545132,19.3265526 17.781688,18.8978606 17.781688,18.3696508 L17.781688,17.4127489 C17.781688,16.8845391 17.3545132,16.4558471 16.8281727,16.4558471 Z M20.6422338,16.4558471 C20.1158934,16.4558471 19.6887185,16.8845391 19.6887185,17.4127489 L19.6887185,18.3696508 C19.6887185,18.8978606 20.1158934,19.3265526 20.6422338,19.3265526 C21.1685742,19.3265526 21.5957491,18.8978606 21.5957491,18.3696508 L21.5957491,17.4127489 C21.5957491,16.8845391 21.1685742,16.4558471 20.6422338,16.4558471 Z"/>
    <path fill="#FFF" fill-opacity=".5" d="M6.99161386 4.11277013C7.00210253 4.0955459 7.06694157 4.01612304 7.17373528 4.01612304L9.19995522 4.01612304 9.19995522 4.97302489C9.19995522 5.50123471 9.62713006 5.92992674 10.1534705 5.92992674 10.6798109 5.92992674 11.1069858 5.50123471 11.1069858 4.97302489L11.1670572 2.10231935 13.0140163 2.16260416 13.0140163 4.97302489C13.0140163 5.50123471 13.4411911 5.92992674 13.9675316 5.92992674 14.493872 5.92992674 14.9210468 5.50123471 14.9210468 4.97302489L14.9210468 4.01612304 22.6693119 4.01612304C22.7751521 4.01612304 22.8399911 4.0955459 22.8504798 4.11372703L27.2595344 11.5574665C27.2519063 11.5708631 27.1975559 11.6713378 27.0764595 11.6713378L2.76563419 11.6713378C2.67505024 11.6713378 2.62356042 11.5976564 2.59876902 11.6033978L6.99161386 4.11277013zM17.7815926 28.8955711L12.060501 28.8955711 12.060501 24.3502873C12.060501 23.6909819 12.5954231 23.15416 13.2523951 23.15416L16.5906521 23.15416C17.2476241 23.15416 17.7815926 23.6909819 17.7815926 24.3502873L17.7815926 28.8955711z"/>
  </g>
</svg>
