<svg xmlns="http://www.w3.org/2000/svg" width="48" height="48" viewBox="0 0 48 48">
  <g fill="none" fill-rule="evenodd">
    <path fill="#CFD8DC" d="M18,14.0055 L11.98,14.0055 C10.337,14.0055 9,15.3425 9,16.9865 L9,27.0335 C9,27.7635 9.406,28.3955 10,28.7325 L10,36.0605 C10,37.6725 11.312,38.9845 12.924,38.9845 L35.076,38.9845 C36.688,38.9845 38,37.6725 38,36.0605 L38,28.7325 C38.594,28.3955 39,27.7635 39,27.0335 L39,16.9865 C39,15.3425 37.663,14.0055 36.02,14.0055 L18,14.0055 Z"/>
    <path fill="#FFF" fill-opacity=".5" d="M26,25.2505 L26,28.9955 L22,28.9955 L22,25.2505 C22,25.1215 22.105,25.0155 22.235,25.0155 L25.765,25.0155 C25.895,25.0155 26,25.1215 26,25.2505 Z"/>
    <path fill="#253238" d="M36.02,13.9951617 C37.663,13.9951617 39,15.3335447 39,16.9792452 L39,27.0366379 C39,27.767393 38.594,28.4000467 38,28.7373953 L38,36.0729754 C38,37.6866429 36.688,39 35.076,39 L12.924,39 C11.312,39 10,37.6866429 10,36.0729754 L10,28.7373953 C9.406,28.4000467 9,27.767393 9,27.0366379 L9,16.9792452 C9,15.3335447 10.337,13.9951617 11.98,13.9951617 L18,13.9951617 L18,11.9830825 C18,10.338383 19.336,9 20.979,9 L27,9 C28.643,9 29.979,10.338383 29.979,11.9830825 L29.979,13.9951617 L36.02,13.9951617 Z M36,36.0729754 L36,29.0006674 L28,29.0006674 L28,29.83553 C28,30.4781941 27.477,31.0027362 26.833,31.0027362 L21.167,31.0027362 C20.523,31.0027362 20,30.4781941 20,29.83553 L20,29.0006674 L12,29.0006674 L12,36.0729754 C12,36.583503 12.415,36.9979312 12.924,36.9979312 L35.076,36.9979312 C35.585,36.9979312 36,36.583503 36,36.0729754 Z M25,32.00327 C25.552,32.00327 26,32.4507324 26,33.0043044 C26,33.5578765 25.552,34.0053389 25,34.0053389 L23,34.0053389 C22.448,34.0053389 22,33.5578765 22,33.0043044 C22,32.4507324 22.448,32.00327 23,32.00327 L25,32.00327 Z M26,25.2517935 C26,25.1226601 25.895,25.0165504 25.765,25.0165504 L22.235,25.0165504 C22.105,25.0165504 22,25.1226601 22,25.2517935 L22,29.0006674 L26,29.0006674 L26,25.2517935 Z M23.29,26.3069839 C23.66,25.9366012 24.33,25.9366012 24.71,26.3069839 C24.89,26.4971804 25,26.7574494 25,27.0177183 C25,27.2879976 24.9,27.5382562 24.71,27.7284527 C24.52,27.9186493 24.27,28.0187527 24,28.0187527 C23.73,28.0187527 23.48,27.9186493 23.29,27.7284527 C23.1,27.5382562 23,27.2879976 23,27.0177183 C23,26.7574494 23.11,26.4971804 23.29,26.3069839 Z M11.98,15.9972305 C11.44,15.9972305 11,16.4376856 11,16.9792452 L11,26.9985986 L20,26.9985986 L20,25.2517935 C20,24.0185191 21.003,23.0144816 22.235,23.0144816 L25.765,23.0144816 C26.997,23.0144816 28,24.0185191 28,25.2517935 L28,26.9985986 L37,26.9985986 L37,16.9792452 C37,16.4376856 36.56,15.9972305 36.02,15.9972305 L11.98,15.9972305 Z M20,11.9830825 L20,13.9951617 L27.979,13.9951617 L27.979,11.9830825 C27.979,11.4425239 27.54,11.0020688 27,11.0020688 L20.979,11.0020688 C20.439,11.0020688 20,11.4425239 20,11.9830825 Z"/>
  </g>
</svg>
