<svg xmlns="http://www.w3.org/2000/svg" width="48" height="48" viewBox="0 0 48 48">
  <g fill="none" fill-rule="evenodd" transform="translate(10.49 10.49)">
    <path fill="#CFD8DC" d="M26.7852845,12.7155195 C26.6522586,8.93094547 24.9344061,5.40928168 21.9485011,3.04213683 C18.8783783,0.608311845 14.8962145,-0.351882122 11.0202801,0.390172541 C2.54586058,2.0162153 -0.577855446,10.4550629 0.0863170181,18.0804128 C0.275807145,20.2551378 1.55534401,23.9844626 3.69907069,25.008479 C5.47721542,25.8572219 8.42866769,26.9383926 12.3878629,26.9383926 C19.4985278,26.9383926 21.9963522,24.8951227 22.2566618,24.8951227 L22.2585759,24.8951227 C25.2674494,22.0374026 26.9230955,16.6115446 26.7852845,12.7155195"/>
    <path fill="#FFF" fill-opacity=".4" d="M4.60345539,6.53427084 L12.4682527,8.2927213 C13.7209929,8.57277788 14.8493205,9.26910902 15.4541577,10.2045361 C15.9441524,10.9618319 16.2666684,11.8381994 16.2666684,12.7393338 L16.2666684,18.537648 C16.2666684,19.0167924 15.880989,19.4359247 15.4197049,19.5569015 C12.897955,20.2217977 7.82861563,21.0867344 2.33244493,19.4826008 C2.17645054,18.9272505 2.05203783,18.3766631 2.00897189,17.8813249 C1.6787997,14.0910355 2.32096068,9.73110711 4.60345539,6.53427084"/>
    <path fill="#FFF" fill-opacity=".5" d="M4.60345539,6.53427084 L12.4682527,8.2927213 C13.7209929,8.57277788 14.8493205,9.26910902 15.4541577,10.2045361 C15.9441524,10.9618319 16.2666684,11.8381994 16.2666684,12.7393338 L16.2666684,18.537648 C16.2666684,19.0167924 15.880989,19.4359247 15.4197049,19.5569015 C12.897955,20.2217977 7.82861563,21.0867344 2.33244493,19.4826008 C2.17645054,18.9272505 2.05203783,18.3766631 2.00897189,17.8813249 C1.6787997,14.0910355 2.32096068,9.73110711 4.60345539,6.53427084"/>
    <path fill="#253238" d="M21.0192339,23.1671546 C20.9225748,23.2414554 18.6793179,24.8951227 12.3878629,24.8951227 C8.78850753,24.8951227 6.12607555,23.9854152 4.52689372,23.2214513 C4.05221138,22.9947389 3.58518521,22.4079536 3.1803654,21.6678041 C5.17096875,22.1193239 7.08405341,22.3003129 8.82774538,22.3003129 C11.7916389,22.3003129 14.3363573,21.8135479 15.9087426,21.3991784 C17.2093339,21.0572046 18.1807101,19.8807765 18.1807101,18.537648 L18.1807101,12.7393338 C18.1807101,11.4714587 17.7529218,10.2378761 17.0629097,9.17289911 C16.1757514,7.80119344 14.6837559,6.82861602 12.9199665,6.43425064 L6.05238494,4.90251264 C7.42475283,3.62606431 9.16653076,2.67063321 11.3906472,2.24388034 C12.1246822,2.10289948 12.8577601,2.03336162 13.5917951,2.03336162 C16.1814935,2.03336162 18.7070715,2.89734568 20.7579672,4.52338844 C23.2988575,6.53808114 24.7602284,9.42056818 24.8731568,12.6402662 C25.0100108,16.5010461 23.2816312,21.2200946 21.0192339,23.1671546 M4.60345539,6.53427084 L12.4682527,8.2927213 C13.7209929,8.57277788 14.8493205,9.26910902 15.4541577,10.2045361 C15.9441524,10.9618319 16.2666684,11.8381994 16.2666684,12.7393338 L16.2666684,18.537648 C16.2666684,19.0167924 15.880989,19.4359247 15.4197049,19.5569015 C12.897955,20.2217977 7.82861563,21.0867344 2.33244493,19.4826008 C2.17645054,18.9272505 2.05203783,18.3766631 2.00897189,17.8813249 C1.6787997,14.0910355 2.32096068,9.73110711 4.60345539,6.53427084 M26.7852845,12.7155195 C26.9230955,16.6115446 25.2674494,22.0374026 22.2585759,24.8951227 L22.2566618,24.8951227 C21.9963522,24.8951227 19.4985278,26.9383926 12.3878629,26.9383926 C8.42866769,26.9383926 5.47721542,25.8572219 3.69907069,25.008479 C1.55534401,23.9844626 0.275807145,20.2551378 0.0863170181,18.0804128 C-0.577855446,10.4550629 2.54586058,2.0162153 11.0202801,0.390172541 C14.8962145,-0.351882122 18.8783783,0.608311845 21.9485011,3.04213683 C24.9344061,5.40928168 26.6522586,8.93094547 26.7852845,12.7155195 Z M13.3957973,18.2275854 C13.9240728,18.2275854 14.3528181,17.8008325 14.3528181,17.275012 L14.3528181,11.5595717 C14.3528181,11.0337512 13.9240728,10.6069983 13.3957973,10.6069983 C12.8675218,10.6069983 12.4387764,11.0337512 12.4387764,11.5595717 L12.4387764,17.275012 C12.4387764,17.8008325 12.8675218,18.2275854 13.3957973,18.2275854 Z M20.0949432,13.4647185 C19.5666676,13.4647185 19.1379223,13.8914713 19.1379223,14.4172919 L19.1379223,15.3698652 C19.1379223,15.8956857 19.5666676,16.3224386 20.0949432,16.3224386 C20.6232187,16.3224386 21.051964,15.8956857 21.051964,15.3698652 L21.051964,14.4172919 C21.051964,13.8914713 20.6232187,13.4647185 20.0949432,13.4647185 Z"/>
  </g>
</svg>
