<svg xmlns="http://www.w3.org/2000/svg" width="48" height="48" viewBox="0 0 48 48">
  <g fill="none" fill-rule="evenodd" transform="translate(7.5 12.5)">
    <path fill="#CFD8DC" d="M27.5475947,12.1139825 C26.514134,12.1139825 25.5544919,12.4300776 24.7576294,12.9704678 L23.7639172,11.9758092 C25.0093698,10.7786226 26.6702888,9.96851058 28.5564491,9.96851058 C29.0779114,9.96851058 29.5000025,9.54831228 29.5028417,9.02684998 C29.5056809,8.50633407 29.0873754,8.08140381 28.5659131,8.07572546 L18.9164945,7.9810862 C18.2350919,6.89462754 17.2546292,6.1110145 16.1076014,5.74665336 C15.1195676,5.43434382 14.0416264,5.44380774 12.9882915,5.75990286 L12.5529509,4.45482752 L13.838152,3.81222697 C14.30567,3.57846801 14.4949485,3.01063247 14.2611895,2.54311454 C14.0264841,2.07465023 13.4577022,1.8872645 12.9911307,2.11913068 L12.6352871,2.29799887 L12.8340295,1.10175867 C12.8804028,0.82730483 12.8027986,0.547172632 12.6220376,0.335180699 C12.4431694,0.122242372 12.1791259,0.000157732093 11.9008865,0.000157732093 C7.760419,0.000157732093 4.39220788,3.36836886 4.39220788,7.50883631 L4.39220788,9.02211802 C4.39220788,9.5454731 4.81524535,9.96851058 5.33860044,9.96851058 C6.46575398,9.96851058 7.50773219,10.2628387 8.4351969,10.748338 L7.26545569,12.5029499 C6.67206756,12.2531022 6.02189587,12.1139825 5.33860044,12.1139825 C2.59027644,12.1139825 0.35489721,14.3493617 0.35489721,17.0976857 C0.35489721,19.8469561 2.59027644,22.0823354 5.33860044,22.0823354 C8.08787083,22.0823354 10.3232501,19.8469561 10.3232501,17.0976857 C10.3232501,15.7131134 9.75352173,14.4591433 8.83741373,13.5553384 L9.9863343,11.8338503 C11.5232758,13.2354577 12.4677756,15.227614 12.4677756,17.0976857 C12.4677756,17.6210408 12.8917595,18.0440783 13.4141682,18.0440783 L20.4808814,18.0440783 C21.0042365,18.0440783 21.427274,17.6210408 21.427274,17.0976857 C21.427274,15.866429 21.8399011,14.5812279 22.5582131,13.4465032 L23.4194303,14.3086669 C22.8790402,15.104583 22.562945,16.0651715 22.562945,17.0976857 C22.562945,19.8469561 24.7992707,22.0823354 27.5475947,22.0823354 C30.2959187,22.0823354 32.5322443,19.8469561 32.5322443,17.0976857 C32.5322443,14.3493617 30.2959187,12.1139825 27.5475947,12.1139825"/>
    <path fill="#253238" d="M27.5475947,20.1895502 C25.8431417,20.1895502 24.4557302,18.8021387 24.4557302,17.0976857 C24.4557302,16.5913657 24.5910643,16.1191158 24.8077882,15.6970247 L26.8784951,17.7667853 C27.0630417,17.9522782 27.3053182,18.0440783 27.5475947,18.0440783 C27.7898712,18.0440783 28.0321477,17.9522782 28.2166942,17.7667853 C28.5867337,17.3976922 28.5867337,16.7986257 28.2166942,16.4285862 L26.1469337,14.3588257 C26.5690248,14.140209 27.0403283,14.0067676 27.5475947,14.0067676 C29.2520477,14.0067676 30.6394592,15.3941791 30.6394592,17.0976857 C30.6394592,18.8021387 29.2520477,20.1895502 27.5475947,20.1895502 M19.5893796,16.1512932 L14.3066163,16.1512932 C13.8362592,12.0638237 10.3734089,8.60097333 6.284993,8.13061622 L6.284993,7.50883631 C6.284993,4.80120719 8.20995547,2.5355434 10.764269,2.00840275 L10.4623698,3.81979811 C10.4595306,3.83683317 10.4633162,3.85292185 10.4614234,3.86995691 C10.4576378,3.89834869 10.4595306,3.92484768 10.4585842,3.95418585 C10.4566914,4.04787872 10.4680481,4.1387324 10.4926543,4.2276933 C10.4964399,4.24283558 10.4926543,4.25892426 10.4983327,4.27501293 L11.5081335,7.30346913 C11.5166511,7.32807533 11.5336861,7.34794958 11.5440965,7.37160939 C11.5516676,7.39053724 11.5497748,7.40946509 11.5582923,7.42744655 C11.5687027,7.44826719 11.5885769,7.46057029 11.5999336,7.48044453 C11.6415749,7.55142398 11.6907873,7.61293949 11.7485173,7.66877665 C11.7731235,7.69338286 11.7939441,7.71893546 11.8223359,7.74164888 C11.9027792,7.80411079 11.9907937,7.85521599 12.085433,7.88928612 C12.0939505,7.89307169 12.1015217,7.89875005 12.1100392,7.90158922 C12.2046785,7.93282018 12.3040497,7.94985524 12.4053137,7.94985524 C12.4166704,7.94985524 12.4280271,7.94512328 12.4393838,7.94512328 C12.4725076,7.94417689 12.5046849,7.93376657 12.538755,7.92808822 C12.5936458,7.92051708 12.649483,7.91957068 12.7043737,7.90158922 C12.7270872,7.89401808 12.741283,7.87698302 12.7621037,7.86751909 C12.7838707,7.85994795 12.8075305,7.86089434 12.8283512,7.85048403 C13.7558159,7.38675167 14.6908517,7.28264849 15.5350339,7.55142398 C16.3763769,7.81830668 17.0615651,8.43819381 17.5139407,9.34483788 C17.6729347,9.66282578 17.9966009,9.8644074 18.3514982,9.86819297 L23.2396157,9.91645899 C21.2701728,11.4079737 19.8761366,13.6632271 19.5893796,16.1512932 M8.43046493,17.0976857 C8.43046493,18.8021387 7.04305344,20.1895502 5.33860044,20.1895502 C3.63414743,20.1895502 2.24768233,18.8021387 2.24768233,17.0976857 C2.24768233,15.3941791 3.63414743,14.0067676 5.33860044,14.0067676 C5.63103574,14.0067676 5.90832876,14.0597656 6.17615785,14.1364234 L4.55120183,16.5733843 C4.2616057,17.0087248 4.37895838,17.5954882 4.81429896,17.8850843 C4.97518569,17.9929731 5.15783946,18.0440783 5.33765404,18.0440783 C5.64333884,18.0440783 5.94429168,17.8964411 6.12599905,17.6229336 L7.75000868,15.1878656 C8.16926059,15.7150062 8.43046493,16.3736954 8.43046493,17.0976857 M27.5475947,12.1139825 C26.514134,12.1139825 25.5544919,12.4300776 24.7576294,12.9704678 L23.7639172,11.9758092 C25.0093698,10.7786226 26.6702888,9.96851058 28.5564491,9.96851058 C29.0779114,9.96851058 29.5000025,9.54831228 29.5028417,9.02684998 C29.5056809,8.50633407 29.0873754,8.08140381 28.5659131,8.07572546 L18.9164945,7.9810862 C18.2350919,6.89462754 17.2546292,6.1110145 16.1076014,5.74665336 C15.1195676,5.43434382 14.0416264,5.44380774 12.9882915,5.75990286 L12.5529509,4.45482752 L13.838152,3.81222697 C14.30567,3.57846801 14.4949485,3.01063247 14.2611895,2.54311454 C14.0264841,2.07465023 13.4577022,1.8872645 12.9911307,2.11913068 L12.6352871,2.29799887 L12.8340295,1.10175867 C12.8804028,0.82730483 12.8027986,0.547172632 12.6220376,0.335180699 C12.4431694,0.122242372 12.1791259,0.000157732093 11.9008865,0.000157732093 C7.760419,0.000157732093 4.39220788,3.36836886 4.39220788,7.50883631 L4.39220788,9.02211802 C4.39220788,9.5454731 4.81524535,9.96851058 5.33860044,9.96851058 C6.46575398,9.96851058 7.50773219,10.2628387 8.4351969,10.748338 L7.26545569,12.5029499 C6.67206756,12.2531022 6.02189587,12.1139825 5.33860044,12.1139825 C2.59027644,12.1139825 0.35489721,14.3493617 0.35489721,17.0976857 C0.35489721,19.8469561 2.59027644,22.0823354 5.33860044,22.0823354 C8.08787083,22.0823354 10.3232501,19.8469561 10.3232501,17.0976857 C10.3232501,15.7131134 9.75352173,14.4591433 8.83741373,13.5553384 L9.9863343,11.8338503 C11.5232758,13.2354577 12.4677756,15.227614 12.4677756,17.0976857 C12.4677756,17.6210408 12.8917595,18.0440783 13.4141682,18.0440783 L20.4808814,18.0440783 C21.0042365,18.0440783 21.427274,17.6210408 21.427274,17.0976857 C21.427274,15.866429 21.8399011,14.5812279 22.5582131,13.4465032 L23.4194303,14.3086669 C22.8790402,15.104583 22.562945,16.0651715 22.562945,17.0976857 C22.562945,19.8469561 24.7992707,22.0823354 27.5475947,22.0823354 C30.2959187,22.0823354 32.5322443,19.8469561 32.5322443,17.0976857 C32.5322443,14.3493617 30.2959187,12.1139825 27.5475947,12.1139825"/>
  </g>
</svg>
