<svg xmlns="http://www.w3.org/2000/svg" width="48" height="48" viewBox="0 0 48 48">
  <g fill="none" fill-rule="evenodd" transform="translate(8 19.5)">
    <path fill="#CFD8DC" d="M4.45739018.490437905C2.33232633.490437905.609379579 2.21338465.609379579 4.33844851.609379579 6.46351236 2.33232633 8.18645911 4.45739018 8.18645911 6.58245404 8.18645911 8.30540079 6.46351236 8.30540079 4.33844851 8.30540079 2.21338465 6.58245404.490437905 4.45739018.490437905M16.001422.490437905C13.8763581.490437905 12.1534114 2.21338465 12.1534114 4.33844851 12.1534114 6.46351236 13.8763581 8.18645911 16.001422 8.18645911 18.1264858 8.18645911 19.8494326 6.46351236 19.8494326 4.33844851 19.8494326 2.21338465 18.1264858.490437905 16.001422.490437905M27.5454538.490437905C25.4203899.490437905 23.6974432 2.21338465 23.6974432 4.33844851 23.6974432 6.46351236 25.4203899 8.18645911 27.5454538 8.18645911 29.6705177 8.18645911 31.3934644 6.46351236 31.3934644 4.33844851 31.3934644 2.21338465 29.6705177.490437905 27.5454538.490437905"/>
    <path fill="#253238" d="M4.45739018,0.490437905 C2.33232633,0.490437905 0.609379579,2.21338465 0.609379579,4.33844851 C0.609379579,6.46351236 2.33232633,8.18645911 4.45739018,8.18645911 C6.58245404,8.18645911 8.30540079,6.46351236 8.30540079,4.33844851 C8.30540079,2.21338465 6.58245404,0.490437905 4.45739018,0.490437905 M4.45739018,2.41444321 C5.51847911,2.41444321 6.38139548,3.27735958 6.38139548,4.33844851 C6.38139548,5.39953743 5.51847911,6.26245381 4.45739018,6.26245381 C3.39630126,6.26245381 2.53338488,5.39953743 2.53338488,4.33844851 C2.53338488,3.27735958 3.39630126,2.41444321 4.45739018,2.41444321 Z M16.001422,0.490437905 C18.1264858,0.490437905 19.8494326,2.21338465 19.8494326,4.33844851 C19.8494326,6.46351236 18.1264858,8.18645911 16.001422,8.18645911 C13.8763581,8.18645911 12.1534114,6.46351236 12.1534114,4.33844851 C12.1534114,2.21338465 13.8763581,0.490437905 16.001422,0.490437905 Z M16.001422,2.41444321 C14.9403331,2.41444321 14.0774167,3.27735958 14.0774167,4.33844851 C14.0774167,5.39953743 14.9403331,6.26245381 16.001422,6.26245381 C17.0625109,6.26245381 17.9254273,5.39953743 17.9254273,4.33844851 C17.9254273,3.27735958 17.0625109,2.41444321 16.001422,2.41444321 Z M27.5454538,0.490437905 C29.6705177,0.490437905 31.3934644,2.21338465 31.3934644,4.33844851 C31.3934644,6.46351236 29.6705177,8.18645911 27.5454538,8.18645911 C25.4203899,8.18645911 23.6974432,6.46351236 23.6974432,4.33844851 C23.6974432,2.21338465 25.4203899,0.490437905 27.5454538,0.490437905 Z M27.5454538,2.41444321 C26.4843649,2.41444321 25.6214485,3.27735958 25.6214485,4.33844851 C25.6214485,5.39953743 26.4843649,6.26245381 27.5454538,6.26245381 C28.6065427,6.26245381 29.4694591,5.39953743 29.4694591,4.33844851 C29.4694591,3.27735958 28.6065427,2.41444321 27.5454538,2.41444321 Z"/>
  </g>
</svg>
