<svg xmlns="http://www.w3.org/2000/svg" width="48" height="48" viewBox="0 0 48 48">
  <g fill="none" fill-rule="evenodd" transform="translate(9 8.5)">
    <path fill="#CFD8DC" d="M3.83218805,30.2181168 C3.7696965,30.2181168 3.7696965,30.2181168 3.70720495,30.2181168 C2.64484861,30.2181168 1.70747537,29.7181844 0.95757678,28.9682858 C-0.417237304,27.4684886 -0.292254206,25.0938098 1.20754298,23.5940126 L14.0808021,10.7207534 C13.2059204,7.84614216 13.955819,4.7215647 16.0805317,2.59685202 C18.0802613,0.597122446 21.0798556,-0.215267695 23.8294838,0.472139347 C24.3294162,0.597122446 24.7043655,0.972071741 24.8918401,1.47200414 C25.0168232,1.97193653 24.8918401,2.53436047 24.5168909,2.90930977 L21.0798556,6.34634498 L21.579788,8.72102385 L23.8294838,9.15846469 L27.266519,5.72142949 C27.6414683,5.34648019 28.2038923,5.22149709 28.7038247,5.34648019 C29.203757,5.47146329 29.5787063,5.90890413 29.7036894,6.40883653 C30.3910965,9.15846469 29.5787063,12.1580591 27.5789768,14.1577886 C25.4542641,16.2825013 22.3296866,17.0323999 19.4550754,16.1575182 L6.51932466,29.1557605 C5.83191762,29.8431675 4.83205283,30.2181168 3.83218805,30.2181168 Z"/>
    <path fill="#253238" fill-rule="nonzero" d="M3.83218805,30.2181168 C3.7696965,30.2181168 3.7696965,30.2181168 3.70720495,30.2181168 C2.64484861,30.2181168 1.70747537,29.7181844 0.95757678,28.9682858 C-0.417237304,27.4684886 -0.292254206,25.0938098 1.20754298,23.5940126 L14.0808021,10.7207534 C13.2059204,7.84614216 13.955819,4.7215647 16.0805317,2.59685202 C18.0802613,0.597122446 21.0798556,-0.215267695 23.8294838,0.472139347 C24.3294162,0.597122446 24.7043655,0.972071741 24.8918401,1.47200414 C25.0168232,1.97193653 24.8918401,2.53436047 24.5168909,2.90930977 L21.0798556,6.34634498 L21.579788,8.72102385 L23.8294838,9.15846469 L27.266519,5.72142949 C27.6414683,5.34648019 28.2038923,5.22149709 28.7038247,5.34648019 C29.203757,5.47146329 29.5787063,5.90890413 29.7036894,6.40883653 C30.3910965,9.15846469 29.5787063,12.1580591 27.5789768,14.1577886 C25.4542641,16.2825013 22.3296866,17.0323999 19.4550754,16.1575182 L6.51932466,29.1557605 C5.83191762,29.8431675 4.83205283,30.2181168 3.83218805,30.2181168 Z M21.8922458,2.15941118 C20.2674655,2.15941118 18.6426852,2.78432667 17.4553458,3.97166611 C15.7055824,5.72142949 15.1431585,8.34607455 16.0805317,10.6582619 L16.3304979,11.2206858 L2.58235706,24.9688267 C1.83245847,25.7187252 1.70747537,26.9685562 2.39488241,27.7184548 C2.76983171,28.0934041 3.2697641,28.3433703 3.7696965,28.3433703 C4.33212044,28.3433703 4.83205283,28.1558957 5.20700213,27.7809464 L19.0176345,13.970314 L19.5800585,14.2202802 C21.8922458,15.0951619 24.5168909,14.5952295 26.2666542,12.8454661 C27.6414683,11.470652 28.2663838,9.53341399 28.0164176,7.65866751 L25.0793148,10.5957703 C24.7043655,10.9707196 24.1419416,11.1581943 23.6420092,11.0332112 L21.0798556,10.5332788 C20.4549401,10.4082957 19.9550078,9.90836329 19.8300247,9.28344779 L19.3300923,6.72129427 C19.2051092,6.22136188 19.3925838,5.65893794 19.7675331,5.28398864 L22.7671275,2.28439428 C22.3921782,2.15941118 22.142212,2.15941118 21.8922458,2.15941118 Z"/>
  </g>
</svg>
