<svg xmlns="http://www.w3.org/2000/svg" width="48" height="48" viewBox="0 0 48 48">
  <g fill="none" fill-rule="evenodd" transform="translate(12.806 8.069)">
    <path fill="#CFD8DC" d="M21.0518407,4.14639973 C21.0518407,2.03547425 19.3351587,0.318792338 17.2242333,0.318792338 L3.82760739,0.318792338 C1.71668192,0.318792338 0,2.03547425 0,4.14639973 L0,27.1120441 C0,29.2229696 1.71668192,30.9396515 3.82760739,30.9396515 L17.2242333,30.9396515 C19.3351587,30.9396515 21.0518407,29.2229696 21.0518407,27.1120441 L21.0518407,13.7154182 C21.5800505,13.7154182 22.0087425,13.2867262 22.0087425,12.7585164 L22.0087425,11.8016145 C22.0087425,11.2734047 21.5800505,10.8447127 21.0518407,10.8447127 L21.0518407,8.93090897 C21.5800505,8.93090897 22.0087425,8.50221694 22.0087425,7.97400712 L22.0087425,7.01710527 C22.0087425,6.48889545 21.5800505,6.06020343 21.0518407,6.06020343 L21.0518407,4.14639973 Z"/>
    <path fill="#253238" d="M19.145823,27.0857399 C19.145823,28.141632 18.2871329,29.0003222 17.2312407,29.0003222 L3.82916461,29.0003222 C2.77327247,29.0003222 1.9145823,28.141632 1.9145823,27.0857399 L1.9145823,4.11075224 C1.9145823,3.0548601 2.77327247,2.19616994 3.82916461,2.19616994 L17.2312407,2.19616994 C18.2871329,2.19616994 19.145823,3.0548601 19.145823,4.11075224 L19.145823,27.0857399 Z M22.0176965,7.93991685 C22.0176965,8.46929885 21.5897873,8.897208 21.0604053,8.897208 L21.0604053,10.8117903 C21.5897873,10.8117903 22.0176965,11.2396994 22.0176965,11.7690815 L22.0176965,12.7263726 C22.0176965,13.2557546 21.5897873,13.6836638 21.0604053,13.6836638 L21.0604053,27.0857399 C21.0604053,29.1975242 19.343025,30.9149045 17.2312407,30.9149045 L3.82916461,30.9149045 C1.71738033,30.9149045 0,29.1975242 0,27.0857399 L0,4.11075224 C0,1.99896796 1.71738033,0.281587634 3.82916461,0.281587634 L17.2312407,0.281587634 C19.343025,0.281587634 21.0604053,1.99896796 21.0604053,4.11075224 L21.0604053,6.02533454 C21.5897873,6.02533454 22.0176965,6.45324369 22.0176965,6.98262569 L22.0176965,7.93991685 Z M10.5302027,22.2992841 C9.47431053,22.2992841 8.61562036,23.1579743 8.61562036,24.2138664 C8.61562036,25.2697586 9.47431053,26.1284487 10.5302027,26.1284487 C11.5860948,26.1284487 12.444785,25.2697586 12.444785,24.2138664 C12.444785,23.1579743 11.5860948,22.2992841 10.5302027,22.2992841 Z M12.444785,4.11075224 L8.61562036,4.11075224 C8.08623836,4.11075224 7.65832921,4.53866138 7.65832921,5.06804339 C7.65832921,5.5974254 8.08623836,6.02533454 8.61562036,6.02533454 L12.444785,6.02533454 C12.974167,6.02533454 13.4020761,5.5974254 13.4020761,5.06804339 C13.4020761,4.53866138 12.974167,4.11075224 12.444785,4.11075224 Z"/>
  </g>
</svg>
