<svg xmlns="http://www.w3.org/2000/svg" width="48" height="48" viewBox="0 0 48 48">
  <g fill="none" fill-rule="evenodd" transform="translate(7.669 10.418)">
    <path fill="#CFD8DC" d="M29.8120954,4.39442182 L22.1970705,0.637931833 L22.1961136,0.637931833 C21.6592917,0.372712314 21.0353917,0.355723164 20.4842162,0.589795906 C19.9148596,0.832363225 19.4842538,1.31277865 19.3024425,1.90834277 C18.819207,3.48927762 17.3120866,4.59262858 15.6365515,4.59262858 C13.9610163,4.59262858 12.4538959,3.48927762 11.9706605,1.90834277 C11.7888491,1.31277865 11.3582433,0.832363225 10.7888867,0.589795906 C10.2386681,0.354779322 9.61381124,0.372712314 9.0769893,0.637931833 L1.4619644,4.39347798 C0.761512243,4.7379802 0.326121902,5.43264769 0.326121902,6.20471021 L0.326121902,13.6563405 C0.326121902,14.2651184 0.59979583,14.8361426 1.07728985,15.2221739 C1.55478387,15.6082051 2.17485627,15.7611075 2.78248895,15.6421834 L4.94413022,15.215567 C4.9862339,15.2099039 5.02546688,15.2165108 5.05991534,15.2448261 C5.09340691,15.2712536 5.11063114,15.3080635 5.11063114,15.3505363 L5.11063114,16.8625707 L5.11063114,27.1070286 C5.11063114,28.2245372 6.03212762,29.1325129 7.16414251,29.1325129 L24.1089604,29.1325129 C25.2409753,29.1325129 26.1624718,28.2245372 26.1624718,27.1070286 L26.1624718,16.8625707 L26.1624718,15.3505363 C26.1624718,15.3080635 26.179696,15.2712536 26.2131876,15.2448261 C26.2466792,15.2165108 26.2859121,15.2089601 26.3289727,15.215567 L28.4915709,15.6421834 C29.0963329,15.7611075 29.7183191,15.6082051 30.1958131,15.2221739 C30.6733071,14.8361426 30.946981,14.2651184 30.946981,13.6563405 L30.946981,6.20565405 C30.946981,5.43359154 30.5115907,4.73892404 29.8120954,4.39442182 L29.8120954,4.39442182 Z"/>
    <path fill="#253238" d="M29.0331773,13.6563405 C29.0331773,13.6988133 29.0159531,13.7346793 28.9824615,13.7620507 C28.9480131,13.7894222 28.9087801,13.7988606 28.8666764,13.7913098 L26.7040782,13.3646934 C26.5232238,13.3288274 26.3423693,13.3241082 26.1624718,13.3363781 L26.1624718,11.1995205 C26.1624718,10.6785199 25.7337798,10.2556788 25.20557,10.2556788 C24.6773601,10.2556788 24.2486681,10.6785199 24.2486681,11.1995205 L24.2486681,15.3505363 L24.2486681,16.8625707 L24.2486681,22.525621 L7.02443484,22.525621 L7.02443484,16.8625707 L7.02443484,15.3505363 L7.02443484,11.1995205 C7.02443484,10.6785199 6.59574281,10.2556788 6.06753299,10.2556788 C5.53932317,10.2556788 5.11063114,10.6785199 5.11063114,11.1995205 L5.11063114,13.3363781 C5.06469985,13.3335466 5.01972547,13.325052 4.97379418,13.325052 C4.83887102,13.325052 4.70299096,13.3382658 4.56806779,13.3646934 L2.40738342,13.7913098 C2.36145213,13.7988606 2.32413296,13.7894222 2.2915983,13.7629946 C2.25714983,13.7346793 2.2399256,13.6988133 2.2399256,13.6563405 L2.2399256,6.20471021 C2.2399256,6.15279892 2.26958956,6.10560683 2.31743465,6.08201079 L9.93245955,2.32646464 C9.9563821,2.3141947 9.98795986,2.30475628 10.0300635,2.32268928 C10.0539861,2.33212769 10.1123571,2.366106 10.1381935,2.45293943 C10.8625682,4.82481364 13.1237272,6.48031199 15.6365515,6.48031199 C18.1493757,6.48031199 20.4105348,4.82481364 21.1349095,2.45293943 C21.1607458,2.366106 21.2191169,2.33212769 21.2430394,2.32268928 C21.2861,2.30381244 21.3167208,2.3141947 21.3416003,2.32646464 L28.9566252,6.08295463 C29.0035134,6.10560683 29.0331773,6.15279892 29.0331773,6.20565405 L29.0331773,13.6563405 Z M24.1089604,27.2448295 L7.16414251,27.2448295 C7.08663346,27.2448295 7.02443484,27.1834798 7.02443484,27.1070286 L7.02443484,24.4133044 L24.2486681,24.4133044 L24.2486681,27.1070286 C24.2486681,27.1834798 24.1864695,27.2448295 24.1089604,27.2448295 L24.1089604,27.2448295 Z M29.8120954,4.39442182 L22.1970705,0.637931833 L22.1961136,0.637931833 C21.6592917,0.372712314 21.0353917,0.355723164 20.4842162,0.589795906 C19.9148596,0.832363225 19.4842538,1.31277865 19.3024425,1.90834277 C18.819207,3.48927762 17.3120866,4.59262858 15.6365515,4.59262858 C13.9610163,4.59262858 12.4538959,3.48927762 11.9706605,1.90834277 C11.7888491,1.31277865 11.3582433,0.832363225 10.7888867,0.589795906 C10.2386681,0.354779322 9.61381124,0.372712314 9.0769893,0.637931833 L1.4619644,4.39347798 C0.761512243,4.7379802 0.326121902,5.43264769 0.326121902,6.20471021 L0.326121902,13.6563405 C0.326121902,14.2651184 0.59979583,14.8361426 1.07728985,15.2221739 C1.55478387,15.6082051 2.17485627,15.7611075 2.78248895,15.6421834 L4.94413022,15.215567 C4.9862339,15.2099039 5.02546688,15.2165108 5.05991534,15.2448261 C5.09340691,15.2712536 5.11063114,15.3080635 5.11063114,15.3505363 L5.11063114,16.8625707 L5.11063114,27.1070286 C5.11063114,28.2245372 6.03212762,29.1325129 7.16414251,29.1325129 L24.1089604,29.1325129 C25.2409753,29.1325129 26.1624718,28.2245372 26.1624718,27.1070286 L26.1624718,16.8625707 L26.1624718,15.3505363 C26.1624718,15.3080635 26.179696,15.2712536 26.2131876,15.2448261 C26.2466792,15.2165108 26.2859121,15.2089601 26.3289727,15.215567 L28.4915709,15.6421834 C29.0963329,15.7611075 29.7183191,15.6082051 30.1958131,15.2221739 C30.6733071,14.8361426 30.946981,14.2651184 30.946981,13.6563405 L30.946981,6.20565405 C30.946981,5.43359154 30.5115907,4.73892404 29.8120954,4.39442182 L29.8120954,4.39442182 Z"/>
    <path fill="#FFF" fill-opacity=".5" d="M29.0331773,13.6563405 C29.0331773,13.6988133 29.0159531,13.7346793 28.9824615,13.7620507 C28.9480131,13.7894222 28.9087801,13.7988606 28.8666764,13.7913098 L26.7040782,13.3646934 C26.5232238,13.3288274 26.3423693,13.3241082 26.1624718,13.3363781 L26.1624718,11.1995205 C26.1624718,10.6785199 25.7337798,10.2556788 25.20557,10.2556788 C24.6773601,10.2556788 24.2486681,10.6785199 24.2486681,11.1995205 L24.2486681,15.3505363 L24.2486681,16.8625707 L24.2486681,22.525621 L7.02443484,22.525621 L7.02443484,16.8625707 L7.02443484,15.3505363 L7.02443484,11.1995205 C7.02443484,10.6785199 6.59574281,10.2556788 6.06753299,10.2556788 C5.53932317,10.2556788 5.11063114,10.6785199 5.11063114,11.1995205 L5.11063114,13.3363781 C5.06469985,13.3335466 5.01972547,13.325052 4.97379418,13.325052 C4.83887102,13.325052 4.70299096,13.3382658 4.56806779,13.3646934 L2.40738342,13.7913098 C2.36145213,13.7988606 2.32413296,13.7894222 2.2915983,13.7629946 C2.25714983,13.7346793 2.2399256,13.6988133 2.2399256,13.6563405 L2.2399256,6.20471021 C2.2399256,6.15279892 2.26958956,6.10560683 2.31743465,6.08201079 L9.93245955,2.32646464 C9.9563821,2.3141947 9.98795986,2.30475628 10.0300635,2.32268928 C10.0539861,2.33212769 10.1123571,2.366106 10.1381935,2.45293943 C10.8625682,4.82481364 13.1237272,6.48031199 15.6365515,6.48031199 C18.1493757,6.48031199 20.4105348,4.82481364 21.1349095,2.45293943 C21.1607458,2.366106 21.2191169,2.33212769 21.2430394,2.32268928 C21.2861,2.30381244 21.3167208,2.3141947 21.3416003,2.32646464 L28.9566252,6.08295463 C29.0035134,6.10560683 29.0331773,6.15279892 29.0331773,6.20565405 L29.0331773,13.6563405 Z"/>
  </g>
</svg>
