<svg xmlns="http://www.w3.org/2000/svg" width="48" height="48" viewBox="0 0 48 48">
  <g fill="none" fill-rule="evenodd">
    <path fill="#CFD8DC" d="M25.414,11.500625 L28.707,8.207625 C29.098,7.816625 29.098,7.184625 28.707,6.793625 C28.316,6.402625 27.684,6.402625 27.293,6.793625 L23.5,10.586625 L19.707,6.793625 C19.316,6.402625 18.684,6.402625 18.293,6.793625 C17.902,7.184625 17.902,7.816625 18.293,8.207625 L21.586,11.500625 L10.958,11.500625 C9.327,11.500625 8,12.827625 8,14.458625 L8,33.542625 C8,35.173625 9.327,36.500625 10.958,36.500625 L12,36.500625 C12,36.770625 12.1,37.020625 12.29,37.209625 C12.48,37.399625 12.73,37.499625 13,37.499625 C13.27,37.499625 13.52,37.399625 13.71,37.209625 C13.899,37.020625 14,36.770625 14,36.500625 L33,36.500625 C33,36.770625 33.1,37.020625 33.29,37.209625 C33.48,37.399625 33.73,37.499625 34,37.499625 C34.27,37.499625 34.52,37.399625 34.71,37.209625 C34.899,37.020625 35,36.770625 35,36.500625 L37.042,36.500625 C38.673,36.500625 40,35.173625 40,33.542625 L40,14.458625 C40,12.827625 38.673,11.500625 37.042,11.500625 L25.414,11.500625 Z"/>
    <path fill="#253238" d="M38,18.499625 L38,23.499625 L38,28.499625 L38,33.542625 C38,34.070625 37.57,34.500625 37.042,34.500625 L10.958,34.500625 C10.43,34.500625 10,34.070625 10,33.542625 L10,14.458625 C10,13.930625 10.43,13.500625 10.958,13.500625 L37.042,13.500625 C37.57,13.500625 38,13.930625 38,14.458625 L38,18.499625 Z M25.414,11.500625 L37.042,11.500625 C38.673,11.500625 40,12.827625 40,14.458625 L40,33.542625 C40,35.173625 38.673,36.500625 37.042,36.500625 L35,36.500625 C35,36.770625 34.899,37.020625 34.71,37.209625 C34.52,37.399625 34.27,37.499625 34,37.499625 C33.73,37.499625 33.48,37.399625 33.29,37.209625 C33.1,37.020625 33,36.770625 33,36.500625 L14,36.500625 C14,36.770625 13.899,37.020625 13.71,37.209625 C13.52,37.399625 13.27,37.499625 13,37.499625 C12.73,37.499625 12.48,37.399625 12.29,37.209625 C12.1,37.020625 12,36.770625 12,36.500625 L10.958,36.500625 C9.327,36.500625 8,35.173625 8,33.542625 L8,14.458625 C8,12.827625 9.327,11.500625 10.958,11.500625 L21.586,11.500625 L18.293,8.207625 C17.902,7.816625 17.902,7.184625 18.293,6.793625 C18.684,6.402625 19.316,6.402625 19.707,6.793625 L23.5,10.586625 L27.293,6.793625 C27.684,6.402625 28.316,6.402625 28.707,6.793625 C29.098,7.184625 29.098,7.816625 28.707,8.207625 L25.414,11.500625 Z M36.6196,17.579725 C36.4996,17.629725 36.3896,17.699725 36.2896,17.789725 C36.1096,17.979725 35.9996,18.239725 35.9996,18.499725 C35.9996,18.769725 36.0996,19.019725 36.2896,19.209725 C36.4796,19.399725 36.7296,19.499725 36.9996,19.499725 C37.2696,19.499725 37.5196,19.399725 37.7096,19.209725 C37.8996,19.019725 37.9996,18.769725 37.9996,18.499725 C37.9996,18.239725 37.8896,17.979725 37.7096,17.789725 C37.4296,17.510725 36.9896,17.419725 36.6196,17.579725 Z M36.29,22.789625 C36.11,22.979625 36,23.239625 36,23.499625 C36,23.769625 36.1,24.019625 36.29,24.209625 C36.39,24.299625 36.5,24.379625 36.62,24.419625 C36.74,24.479625 36.87,24.499625 37,24.499625 C37.13,24.499625 37.26,24.479625 37.38,24.419625 C37.5,24.379625 37.61,24.299625 37.71,24.209625 C37.9,24.019625 38,23.769625 38,23.499625 C38,23.239625 37.89,22.979625 37.71,22.789625 C37.33,22.419625 36.66,22.419625 36.29,22.789625 Z M36.6196,27.579725 C36.4896,27.629725 36.3896,27.699725 36.2896,27.789725 C36.1096,27.979725 35.9996,28.239725 35.9996,28.499725 C35.9996,28.769725 36.0996,29.019725 36.2896,29.209725 C36.4796,29.399725 36.7296,29.499725 36.9996,29.499725 C37.2696,29.499725 37.5196,29.399725 37.7096,29.209725 C37.8996,29.019725 37.9996,28.769725 37.9996,28.499725 C37.9996,28.239725 37.8896,27.979725 37.7096,27.789725 C37.4296,27.519725 36.9896,27.419725 36.6196,27.579725 Z M32.4795,29.315025 C32.3455,29.966025 31.5595,30.690025 30.8915,30.777025 C25.6535,31.406025 20.3415,31.406025 15.1115,30.777025 C14.4425,30.692025 13.6545,29.967025 13.5225,29.324025 C12.8295,25.792025 12.8295,22.210025 13.5205,18.686025 C13.6545,18.034025 14.4425,17.309025 15.1035,17.225025 C17.7245,16.910025 20.3635,16.752025 23.0025,16.752025 C25.6385,16.752025 28.2735,16.910025 30.8875,17.224025 C31.5575,17.310025 32.3455,18.035025 32.4775,18.677025 C33.1705,22.210025 33.1705,25.792025 32.4795,29.315025 Z M31.1345,15.239025 C25.7375,14.592025 20.2625,14.591025 14.8575,15.240025 C13.3445,15.434025 11.8665,16.799025 11.5595,18.293025 C10.8165,22.080025 10.8165,25.921025 11.5615,29.717025 C11.8665,31.202025 13.3445,32.568025 14.8645,32.762025 C17.5635,33.086025 20.2825,33.249025 23.0005,33.249025 C25.7175,33.249025 28.4365,33.086025 31.1355,32.762025 C31.1375,32.761025 31.1405,32.761025 31.1425,32.761025 C32.6545,32.568025 34.1325,31.203025 34.4405,29.709025 C35.1835,25.921025 35.1835,22.080025 34.4385,18.284025 C34.1335,16.800025 32.6555,15.435025 31.1345,15.239025 Z"/>
    <path fill="#FFF" d="M32.4795,29.315025 C32.3455,29.966025 31.5595,30.690025 30.8915,30.777025 C25.6535,31.406025 20.3415,31.406025 15.1115,30.777025 C14.4425,30.692025 13.6545,29.967025 13.5225,29.324025 C12.8295,25.792025 12.8295,22.210025 13.5205,18.686025 C13.6545,18.034025 14.4425,17.309025 15.1035,17.225025 C17.7245,16.910025 20.3635,16.752025 23.0025,16.752025 C25.6385,16.752025 28.2735,16.910025 30.8875,17.224025 C31.5575,17.310025 32.3455,18.035025 32.4775,18.677025 C33.1705,22.210025 33.1705,25.792025 32.4795,29.315025" opacity=".5"/>
  </g>
</svg>
