<svg width="24" height="24" fill="none" xmlns="http://www.w3.org/2000/svg"><path fill="#fff" d="M0 0h24v24H0z"/><path fill-rule="evenodd" clip-rule="evenodd" d="M3.73 20.19l2.623-4.814c.656 1.908 3.008 3.286 5.897 3.286 2.873 0 5.216-1.363 5.887-3.255l2.628 4.783H3.73zM12.249 4.69l3.235 5.887c-.932-.412-2.035-.653-3.233-.653-1.216 0-2.336.248-3.277.673l3.275-5.906zm.002 6.544c2.604 0 4.804 1.402 4.804 3.059 0 1.656-2.2 3.057-4.804 3.057s-4.805-1.401-4.805-3.057c0-1.658 2.2-3.059 4.805-3.059zm.558-8.299l9.61 17.537a.718.718 0 01-.006.677c-.115.201-.325.35-.553.35H2.64a.636.636 0 01-.551-.323.667.667 0 01-.008-.651l4.805-8.82 4.807-8.772c.114-.206.326-.434.558-.434.232 0 .444.23.557.436zm-.558 10.046c.707 0 1.281.589 1.281 1.312 0 .721-.575 1.31-1.281 1.31s-1.281-.588-1.281-1.31c0-.723.575-1.312 1.281-1.312zm0 3.932c1.413 0 2.563-1.176 2.563-2.62 0-1.446-1.15-2.621-2.563-2.621-1.413 0-2.562 1.175-2.562 2.62s1.15 2.62 2.562 2.62zM18.015 6.43a.63.63 0 01-.452-.192.665.665 0 010-.926l1.922-1.966a.631.631 0 01.905 0 .665.665 0 010 .926L18.468 6.24a.632.632 0 01-.453.192zm.648 3.276c0-.358.283-.655.634-.655h2.563c.35 0 .633.297.633.655a.646.646 0 01-.633.655h-2.563a.644.644 0 01-.634-.655zM6.032 6.239L4.11 4.273a.665.665 0 01.207-1.068.63.63 0 01.699.142l1.921 1.966A.665.665 0 016.73 6.38a.63.63 0 01-.698-.142zm-3.39 4.123a.643.643 0 01-.595-.406.651.651 0 01-.047-.25.651.651 0 01.641-.654h2.563a.645.645 0 01.64.655.652.652 0 01-.64.655H2.64z" fill="#253238"/></svg>