<svg width="24" height="24" fill="none" xmlns="http://www.w3.org/2000/svg"><path fill-rule="evenodd" clip-rule="evenodd" d="M19.423 18.538a6.115 6.115 0 01-8.338 2.297 6.087 6.087 0 01-2.867-3.693l1.274.724a.55.55 0 00.542-.954l-3.378-1.92a2.787 2.787 0 01-1.22-3.43l6.437 3.656a.548.548 0 10.542-.954l-6.542-3.716c-1.219-.692-1.708-2.16-1.219-3.431l10.062 5.715a.55.55 0 00.542-.954L4.876 5.98C3.657 5.29 3.398 4.057 3.737 2.602c.001-.004.003-.004.004-.003L17.125 10.2a6.115 6.115 0 012.298 8.338zm-1.756-9.292L4.284 1.644a1.1 1.1 0 00-1.616.708c-.38 1.63-.152 3.146 1.06 4.163a3.872 3.872 0 00.813 4.373c-.875 1.828-.216 4.043 1.573 5.058l.837.476a7.212 7.212 0 0013.425 2.657 7.212 7.212 0 00-2.709-9.833z" fill="#fff"/><path opacity=".5" fill-rule="evenodd" clip-rule="evenodd" d="M19.423 18.538a6.115 6.115 0 01-8.338 2.297 6.087 6.087 0 01-2.867-3.693l1.274.724a.55.55 0 00.542-.954l-3.378-1.92a2.787 2.787 0 01-1.22-3.43l6.437 3.656a.548.548 0 10.542-.954l-6.542-3.716c-1.219-.692-1.708-2.16-1.219-3.431l10.062 5.715a.55.55 0 00.542-.954L4.876 5.98C3.657 5.29 3.398 4.057 3.737 2.602c.001-.004.003-.004.004-.003L17.125 10.2a6.115 6.115 0 012.298 8.338z" fill="#fff"/></svg>