<svg width="24" height="24" fill="none" xmlns="http://www.w3.org/2000/svg"><path fill-rule="evenodd" clip-rule="evenodd" d="M12.25 21.5c5.384 0 9.75-4.366 9.75-9.75S17.634 2 12.25 2C6.865 2 2.5 6.366 2.5 11.75s4.365 9.75 9.75 9.75zm0-17.94a8.19 8.19 0 110 16.381 8.19 8.19 0 010-16.381z" fill="#F75883"/><path fill-rule="evenodd" clip-rule="evenodd" d="M11.47 3.17v.672a.78.78 0 101.56 0V3.17a.78.78 0 10-1.56 0zm-7.132 9.36H3.67a.78.78 0 110-1.56h.668a.78.78 0 110 1.56zm15.712 0h.668a.78.78 0 100-1.56h-.668a.78.78 0 000 1.56zm-8.58 7.02v.672a.78.78 0 101.56 0v-.672a.78.78 0 10-1.56 0zm5.806-11.223a.78.78 0 01-.183 1.088l-3.9 2.775v3.292a.78.78 0 11-1.56 0v-3.694a.78.78 0 01.328-.636l4.227-3.008a.78.78 0 011.088.183z" fill="#F75883"/></svg>