<svg width="24" height="24" fill="none" xmlns="http://www.w3.org/2000/svg"><path fill-rule="evenodd" clip-rule="evenodd" d="M18.982 3.075a2.308 2.308 0 00-1.751-.553c-2.308.237-4.01.368-4.877.368-.92 0-2.76-.135-5.256-.38a2.313 2.313 0 00-2.532 2.21l-.564 14.245a2.309 2.309 0 003.667 1.958l4.308-3.137a.458.458 0 01.47-.037l.457.317 3.744 2.797a2.308 2.308 0 003.689-1.942l-.561-14.192a2.31 2.31 0 00-.794-1.654zm-1.208 1.39a.466.466 0 01.161.335l.563 14.194a.469.469 0 01-.748.394l-6.207-4.48a.92.92 0 10-1.046 1.515l.115.079-4.028 2.934a.467.467 0 01-.743-.398l.564-14.245a.468.468 0 01.513-.45c2.578.252 4.44.388 5.436.388.95 0 2.691-.133 5.066-.38a.468.468 0 01.354.114z" fill="#385EF9"/></svg>