<svg width="24" height="24" fill="none" xmlns="http://www.w3.org/2000/svg"><path fill-rule="evenodd" clip-rule="evenodd" d="M13.458 3.704c-.677 0-1.372.116-1.962.358-.366.151-.65.354-.968.582a5.513 5.513 0 00-2.233-.47 5.64 5.64 0 00-5.64 5.652c0 .707.144 1.416.39 2.086a2.684 2.684 0 00-.435.395l-.009.012a1.612 1.612 0 00.158 2.276l6.195 5.207c.633.549 1.36.51 2.31-.062.076.055.112.085.141.109.025.02.044.035.077.058.694.596 1.764.56 2.364-.145l.264-.316c.177-.208.28-.45.333-.7.608.154 1.24-.008 1.648-.488l.27-.316c.177-.209.284-.45.336-.7.61.154 1.24-.009 1.65-.489l.27-.317c.177-.207.283-.447.337-.698.608.153 1.24-.01 1.649-.49l.27-.315c.491-.575.486-1.395.07-2.017.592-.888.853-1.841.853-3.09 0-2.731-1.95-4.886-4.668-5.31l-.011-.002-.01-.001c-.367-.06-.726-.167-1.318-.376-.058-.02-.114-.03-.169-.041-.056-.01-.113-.021-.172-.043l-.12-.001V4.05c-.515-.227-1.183-.346-1.87-.346zm-4.36 6.088c-.096 0-.192-.006-.287-.016a1.805 1.805 0 01-.722-.233 6.07 6.07 0 001.65-2.27 4.158 4.158 0 012.255-2.265c.943-.388 2.076-.365 3.23.014l.207.073.017.006c.648.229 1.051.349 1.494.42l.015.003.014.002c2.232.348 3.802 2.085 3.802 4.3 0 .98-.178 1.702-.578 2.37l-3.42-2.753-2.024-1.67-.003-.004c-.787-.649-1.595-.573-2.24-.059-.177.14-.304.285-.38.392-.996 1.164-2.063 1.69-3.03 1.69zm-5.408.034c0 .557.123 1.111.31 1.646.971-.27 2.08-.084 2.846.598l3.953 3.518a2.858 2.858 0 01.77 3.15c.01.009.022.017.036.027l.086.06c.206.145.248.176.318.227l.066.048c.32.271.748.256.968-.002l.257-.316c.202-.238.135-.616-.116-.888l-.165-.12c-.427-.475.117-1.147.604-.733.017.015.078.081.078.081.076.074.637.474.637.474.319.27.754.256.974-.002l.271-.318c.203-.236.162-.614-.09-.885l-.11-.122c-.427-.474.226-1.147.713-.731.01.007.017.016.026.026l.02.022.001-.002.03.033c.076.073.146.15.208.233l.214.242c.318.27.754.255.973-.002l.271-.317c.204-.238.163-.616-.09-.888l-.109-.121c-.428-.473.226-1.146.712-.731.01.009.02.018.027.028a.31.31 0 00.019.02l.002-.001.03.033a1.8 1.8 0 01.208.234l.214.24c.318.271.753.257.974-.001l.27-.318c.22-.257.167-.69-.14-.952l-3.828-3.08-2.03-1.676v-.002c-.379-.31-.656-.283-.951-.048-.094.074-.16.147-.213.22-1.34 1.566-2.846 2.216-4.235 2.062-.548-.059-1.039-.249-1.372-.517-.45-.362-.635-.919-.147-1.293a5.031 5.031 0 001.613-2.1c.22-.538.547-1.017.925-1.446a4.602 4.602 0 00-1.396-.24 4.631 4.631 0 00-4.632 4.63zm6.123 9.347a.578.578 0 01-.384-.145L3.43 13.823a.584.584 0 01-.054-.834l.01-.012c.666-.748 2.017-.822 2.78-.142l3.955 3.517c.759.676.828 1.841.152 2.6l-.02.024a.588.588 0 01-.44.197z" fill="#FD6C67"/><path fill-rule="evenodd" clip-rule="evenodd" d="M17.139 4.31C20.009 4.759 22 7.026 22 9.827c0 1.244-.251 2.203-.816 3.092.409.706.352 1.554-.155 2.146l-.271.318c-.401.469-1.023.686-1.657.593a1.716 1.716 0 01-.328.593l-.271.318c-.409.478-1.021.689-1.656.594a1.74 1.74 0 01-.33.594l-.27.315c-.4.47-1.02.687-1.655.595-.072.224-.18.424-.325.594l-.265.315a1.806 1.806 0 01-1.39.636c-.46 0-.913-.167-1.263-.468-.02-.012-.04-.028-.064-.048l-.007-.006a1.33 1.33 0 01-.006-.005l-.022-.017c-.99.56-1.761.549-2.429-.03l-6.192-5.203a1.813 1.813 0 01-.179-2.568c.115-.131.233-.245.355-.343a6.176 6.176 0 01-.353-2.015c0-3.23 2.621-5.857 5.844-5.857.766 0 1.49.145 2.208.442.283-.202.561-.391.915-.538 1.19-.488 2.848-.498 3.958-.025l.076.001a.21.21 0 01.064.013c.04.014.08.02.118.028l.02.004c.068.013.134.026.205.05.607.216.943.312 1.28.367zm3.308 10.807l.272-.318c.415-.486.437-1.197.054-1.77a.207.207 0 010-.226c.567-.849.819-1.767.819-2.977 0-2.595-1.848-4.697-4.495-5.109-.388-.063-.742-.163-1.376-.388-.043-.015-.083-.023-.123-.03a2.376 2.376 0 01-.185-.042l-.088-.002a.214.214 0 01-.1-.028c-1.005-.431-2.569-.422-3.651.024-.35.145-.63.345-.927.56a.207.207 0 01-.2.02 5.28 5.28 0 00-2.152-.454c-2.997 0-5.436 2.445-5.436 5.449 0 .656.127 1.334.378 2.016a.203.203 0 01-.072.236 2.5 2.5 0 00-.402.364 1.414 1.414 0 00.13 2l6.192 5.204c.558.482 1.177.458 2.074-.08a.196.196 0 01.105-.03c.043 0 .084.013.12.04.069.05.107.08.136.102a.665.665 0 00.078.061c.322.276.727.409 1.127.377.38-.03.724-.202.965-.486l.264-.315c.142-.167.24-.372.288-.611a.207.207 0 01.092-.13.203.203 0 01.159-.025c.556.14 1.097-.018 1.443-.424l.27-.315c.144-.17.243-.376.291-.61a.209.209 0 01.091-.131.208.208 0 01.16-.025c.557.138 1.097-.018 1.443-.424l.271-.316c.144-.168.242-.373.292-.609a.2.2 0 01.092-.131.205.205 0 01.157-.024c.56.138 1.098-.018 1.444-.423z" fill="#FD6C67"/><path fill-rule="evenodd" clip-rule="evenodd" d="M14.24 8.412l2.019 1.666 3.826 3.08a.983.983 0 01.347.662.79.79 0 01-.18.58l-.27.318a.8.8 0 01-.603.27l-.012.001c-.23 0-.461-.088-.647-.247l-.235-.26a1.744 1.744 0 00-.215-.242l-.013-.011v-.002c-.004-.007-.01-.011-.01-.013l.056-.05.076-.104-.161.126c-.16-.136-.326-.074-.419.022-.092.095-.15.262-.007.42l.109.121c.32.345.36.842.094 1.156l-.271.318c-.3.35-.865.36-1.261.024l-.235-.261a1.78 1.78 0 00-.196-.222.649.649 0 01-.023-.025l-.004-.002a.345.345 0 01-.037-.04c-.167-.143-.332-.08-.425.015-.093.095-.15.262-.008.419l.11.123c.32.345.362.842.093 1.156l-.27.316c-.302.352-.866.362-1.262.026-.12-.086-.567-.405-.647-.484a2.425 2.425 0 00-.071-.073c-.168-.146-.292-.055-.336-.01-.098.1-.133.284.018.452l.135.093c.362.388.414.875.15 1.184l-.254.312a.794.794 0 01-.614.273 1 1 0 01-.644-.244l-.053-.037c-.065-.048-.105-.077-.273-.196l-.044-.03-.088-.063c-.076-.053-.14-.177-.107-.263a2.637 2.637 0 00-.715-2.925L6.71 12.222c-.684-.607-1.702-.82-2.657-.553a.206.206 0 01-.247-.13c-.215-.618-.32-1.177-.32-1.713a4.84 4.84 0 014.837-4.834c.45 0 .927.08 1.457.249a.205.205 0 01.135.14.206.206 0 01-.044.19c-.401.455-.693.91-.89 1.39a5.217 5.217 0 01-1.677 2.184c-.136.105-.207.227-.209.365-.002.196.132.423.36.607.309.246.769.419 1.265.472 1.389.162 2.829-.553 4.06-1.99.065-.092.145-.174.24-.25.398-.316.78-.298 1.206.051l.014.012zm5.7 5.724h.001a.387.387 0 00.084-.284.566.566 0 00-.201-.38L16 10.394 13.97 8.717l-.002-.001a.122.122 0 01-.018-.016c-.296-.24-.467-.197-.674-.031a.942.942 0 00-.177.183c-1.33 1.554-2.894 2.318-4.422 2.143-.58-.063-1.103-.26-1.476-.56-.33-.266-.517-.605-.513-.931.002-.185.068-.454.369-.683a4.81 4.81 0 001.548-2.016c.18-.436.428-.85.756-1.26A3.997 3.997 0 008.323 5.4a4.432 4.432 0 00-4.428 4.426c0 .439.077.898.237 1.402 1.033-.229 2.108.032 2.85.69l3.952 3.518a3.035 3.035 0 01.877 3.224c.207.146.249.176.32.228l.064.047c.237.2.541.21.692.03l.254-.312c.129-.151.082-.416-.107-.62l-.136-.095c-.34-.371-.265-.804-.039-1.037.245-.25.613-.256.897-.015.02.018.095.097.095.097.038.035.345.261.605.446.24.203.547.212.702.032l.27-.316c.133-.157.097-.42-.085-.615l-.112-.126c-.294-.325-.213-.738.02-.977a.703.703 0 011.045.022c.102.102.18.188.248.279l.203.228c.2.168.515.18.666.001l.27-.317c.134-.156.098-.42-.083-.616l-.111-.124a.699.699 0 01.018-.976.702.702 0 011.046.02c.103.103.18.189.248.28l.204.226c.094.08.23.125.369.13a.39.39 0 00.296-.127l.27-.317z" fill="#FD6C67"/><path fill-rule="evenodd" clip-rule="evenodd" d="M15.518 4.91c.686.241 1.054.345 1.457.41 2.367.368 4.002 2.22 4.002 4.506 0 1.011-.187 1.774-.607 2.475a.21.21 0 01-.176.099.206.206 0 01-.128-.046L16.647 9.6 14.621 7.93c-.655-.539-1.358-.56-1.985-.06a1.756 1.756 0 00-.341.352c-1.088 1.268-2.327 1.892-3.506 1.757a1.986 1.986 0 01-.805-.26.204.204 0 01-.03-.33A5.84 5.84 0 009.55 7.196a4.383 4.383 0 012.367-2.375c.97-.401 2.136-.4 3.372.008l.23.082zm1.387 4.375l3.23 2.6c.302-.583.434-1.214.434-2.059 0-2.08-1.492-3.766-3.63-4.098-.513-.083-.94-.216-1.559-.434l-.2-.07c-1.16-.383-2.23-.39-3.108-.026A3.966 3.966 0 009.927 7.35a6.193 6.193 0 01-1.474 2.138c.105.036.233.068.38.085 1.042.116 2.155-.455 3.14-1.604.091-.131.241-.285.409-.42.378-.3.786-.45 1.198-.45.44 0 .883.17 1.298.514l2.027 1.672zm-6.785 9.532l.153.136-.172-.114a.383.383 0 01-.538.035L3.564 13.67a.38.38 0 01-.131-.265.395.395 0 01.105-.292c.282-.316.724-.512 1.212-.537a2.27 2.27 0 01.107-.003c.45 0 .874.149 1.174.415l3.954 3.517c.327.291.521.693.547 1.13.025.435-.122.857-.412 1.183zm-5.391-6.65c.589-.038 1.17.156 1.573.515l3.955 3.518c.842.75.918 2.044.17 2.887l-.02.021a.799.799 0 01-1.113.074l-5.998-5.205a.793.793 0 01-.073-1.124c.365-.41.91-.655 1.506-.686z" fill="#FD6C67"/></svg>