<svg width="139" height="120" fill="none" xmlns="http://www.w3.org/2000/svg"><path d="M39.691 89.262a.697.697 0 01-.461-.19c-.194-.18-1.14-1.13-1.14-2.118a2.69 2.69 0 011.694-2.4 2.483 2.483 0 011.518-.115c.159.033.313.082.462.147.11-.2.25-.385.41-.549.38-.424.87-.731 1.417-.886h.051a2.806 2.806 0 011.69.125 2.696 2.696 0 011.352 1.107 4.805 4.805 0 01.521 2.492c0 .62.046 1.478.046 1.487a.693.693 0 01-.655.729.706.706 0 01-.73-.655c0-.037-.045-.924-.045-1.607a3.451 3.451 0 00-.328-1.735 1.288 1.288 0 00-.628-.517l-.064-.023a1.384 1.384 0 00-.836-.055 1.583 1.583 0 00-.757.461l-.037.037c-.198.2-.323.46-.355.739a.692.692 0 01-1.177.415c-.176-.181-.4-.31-.646-.37a1.135 1.135 0 00-.697.065 1.315 1.315 0 00-.798 1.108c.11.425.337.81.655 1.112a.692.692 0 01-.462 1.196z" fill="#FD6C67"/><path d="M33.37 89.124a.692.692 0 01-.692-.642c-.065-.77.14-1.54.581-2.174a2.968 2.968 0 011.187-1.061 2.603 2.603 0 011.324-.323c.208-.001.415.028.614.087a3.854 3.854 0 011.32-1.407 3.618 3.618 0 011.348-.462c.487-.06.982.002 1.44.18h.046A3.493 3.493 0 0142 85.03a.694.694 0 11-1.283.526 2.267 2.267 0 00-.739-.965c-.24-.09-.498-.12-.752-.087-.282.044-.554.14-.803.281a2.464 2.464 0 00-1.02 1.385.673.673 0 01-.43.461.688.688 0 01-.613-.074 1.065 1.065 0 00-.59-.249 1.256 1.256 0 00-.675.139 1.69 1.69 0 00-.678.595l-.028.041c-.255.382-.371.84-.328 1.297a.697.697 0 01-.641.744h-.05zM58.385 88.708a.679.679 0 01-.166 0 .691.691 0 01-.508-.84c.105-.403.07-.829-.097-1.21a1.906 1.906 0 00-.807-.922 2.03 2.03 0 00-1.224-.24 1.67 1.67 0 00-1.093.489.693.693 0 01-1.053-.891c.134-.194.202-.425.194-.66a.735.735 0 00-.212-.526 1.462 1.462 0 00-.646-.416l-.079-.027a1.584 1.584 0 00-.775-.051c-.62.127-1.2.396-1.699.784a.687.687 0 01-1.084-.355 1.846 1.846 0 00-1.883-1.168c-.46.091-.899.263-1.297.508a3.331 3.331 0 00-.988.956.692.692 0 01-1.122-.813c.365-.54.836-1 1.385-1.352a5.254 5.254 0 011.81-.688h.06a3.32 3.32 0 012.958 1.348 5.217 5.217 0 011.629-.596c.483-.082.98-.044 1.445.111.478.14.91.406 1.25.771.338.336.552.777.605 1.25.152-.032.306-.055.462-.068a3.43 3.43 0 012.021.42 3.328 3.328 0 011.565 3.669.692.692 0 01-.651.517z" fill="#FD6C67"/><path d="M60.23 89.4h-.097a.692.692 0 01-.595-.784 2.03 2.03 0 00-.286-1.353 1.846 1.846 0 00-1.034-.844 2.178 2.178 0 00-1.048-.074 2.008 2.008 0 00-.923.49 1.684 1.684 0 00-.49 1.384.693.693 0 11-1.32.415c-.345-1.098.315-2.307.891-2.843a3.378 3.378 0 011.574-.812 3.494 3.494 0 011.717.106 3.23 3.23 0 011.846 1.468c.41.673.573 1.467.462 2.247a.688.688 0 01-.697.6zM52.615 89.492a.703.703 0 01-.554-.277.653.653 0 01-.106-.212.693.693 0 01-.965.115s-2.252-1.749-3.05-2.28a.69.69 0 01.064-1.19l2.677-1.385c.48-.28 1.01-.46 1.56-.53.36-.042.723.02 1.048.18a.75.75 0 01.157.087c.273.2.5.456.664.752a1.417 1.417 0 01.037.988v.074a2.033 2.033 0 01-.24.554c-.085.129-.18.25-.286.364a1.967 1.967 0 01.263 1.02c0 .32-.072.636-.212.923a1.984 1.984 0 01-.619.707.702.702 0 01-.438.11zm-2.968-3.134c.96.707 2.123 1.611 2.193 1.662a.678.678 0 01.235.346.76.76 0 01.125-.12.688.688 0 00.212-.217.748.748 0 00.065-.29c.002-.101-.02-.201-.065-.291a.375.375 0 00-.11-.153.691.691 0 01-.07-1.195c.199-.13.369-.3.498-.498.032-.064.056-.13.074-.199l.028-.092a1.166 1.166 0 00-.152-.153.922.922 0 00-.213-.064h-.06a2.883 2.883 0 00-1.07.378l-1.69.886z" fill="#FD6C67"/><path d="M61.522 112.338H32.168a2.213 2.213 0 01-.678-.129 1.623 1.623 0 01-.642-.397 1.672 1.672 0 01-.396-.637 2.03 2.03 0 01-.13-.683V94.246a.692.692 0 111.385 0v16.246a.826.826 0 00.055.245.37.37 0 00.065.097.34.34 0 00.101.064c.078.028.159.047.24.056h29.354a.433.433 0 00.314-.097.591.591 0 00.148-.365V94.246a.692.692 0 111.384 0v16.246a2.018 2.018 0 01-.461 1.265l-.05.055a1.782 1.782 0 01-1.335.526z" fill="#CFD8DC"/><path d="M52.061 112.339a.692.692 0 01-.692-.692V93.97a.692.692 0 011.385 0v17.677a.693.693 0 01-.693.692zM47.308 94.939h-18.6a1.334 1.334 0 01-.628-.162 1.177 1.177 0 01-.568-.623 1.529 1.529 0 01-.143-.59 1.31 1.31 0 01.203-.697l2.308-3.6c.234-.356.537-.66.89-.896a2.386 2.386 0 011.353-.346h19.938a.697.697 0 01.587 1.066l-2.908 4.57a2.65 2.65 0 01-1.126 1.01 3.63 3.63 0 01-1.306.268zm-18.54-1.385h18.54c.263-.01.522-.066.766-.166.19-.112.349-.271.461-.461l2.248-3.536h-18.66c-.202-.02-.407.02-.586.115a1.713 1.713 0 00-.499.494l-2.27 3.554z" fill="#CFD8DC"/><path d="M64.754 94.938h-8.216a3.76 3.76 0 01-1.352-.276.458.458 0 01-.097-.047 2.83 2.83 0 01-1.043-1.043l-2.626-4.467a.683.683 0 010-.697.697.697 0 01.6-.347h9.508a2.825 2.825 0 012.284 1.279l2.096 3.586c.12.205.184.437.189.674a1.5 1.5 0 01-.166.632 1.224 1.224 0 01-.54.54 1.312 1.312 0 01-.637.166zm-9.005-1.55c.258.1.531.157.808.166h8.132l-2.035-3.48c-.101-.17-.244-.31-.416-.406a.846.846 0 01-.11-.06 1.146 1.146 0 00-.587-.162h-8.307l2.017 3.434c.117.205.281.38.48.508h.018z" fill="#CFD8DC"/><path d="M70.478 51.416c.646-2.446 1.246-5.262 3.184-6.831 1.246-1.015 2.862-1.477 4.477-1.708a24.11 24.11 0 0111.17.877c1.8.6 3.553 1.43 4.8 2.862a11.65 11.65 0 012.076 3.784c1.939 5.585 1.708 11.631 2.492 17.493a50.815 50.815 0 005.585 17.123c1.477 2.769 3.231 5.4 4.616 8.215 1.384 2.816 2.307 5.954 2.03 9.092-.277 3.139-1.384 5.954-4.154 7.431-2.076 1.062-4.061 1.431-7.43 1.431H73.2c-3.6 0-6.185-.785-8.493-2.908-1.984-1.8-2.954-4.615-3.461-7.246-.831-4.246.046-8.63.969-12.877 2.677-12.277 5.123-24.554 8.262-36.738z" fill="#13C1AC"/><path d="M99.324 111.877H73.2c-3.928 0-6.605-.923-8.964-3.092-1.767-1.602-3.004-4.154-3.692-7.625-.826-4.223-.05-8.455.97-13.153.655-3.007 1.3-6.013 1.938-9.019 1.947-9.11 3.96-18.53 6.332-27.743l.152-.582c.61-2.353 1.302-5.021 3.268-6.613 1.168-.951 2.742-1.556 4.814-1.847a24.858 24.858 0 0111.478.923c1.482.494 3.61 1.348 5.11 3.065a12.278 12.278 0 012.21 4.025c1.348 3.881 1.671 8.017 1.985 12.023.143 1.846.29 3.748.54 5.594a49.87 49.87 0 005.506 16.887c.628 1.177 1.32 2.354 1.989 3.49.924 1.532 1.847 3.115 2.64 4.749 1.648 3.355 2.354 6.535 2.096 9.457-.342 3.881-1.846 6.563-4.514 7.98-2.137 1.075-4.237 1.481-7.735 1.481zM71.17 51.591c-2.363 9.185-4.371 18.59-6.314 27.692-.64 3.004-1.286 6.011-1.939 9.023-.992 4.547-1.744 8.631-.969 12.596.61 3.157 1.703 5.464 3.231 6.868 2.105 1.938 4.43 2.727 8.026 2.727h26.123c3.296 0 5.16-.355 7.117-1.357 2.234-1.19 3.476-3.443 3.78-6.872.236-2.668-.429-5.603-1.966-8.728-.775-1.583-1.698-3.147-2.585-4.657-.678-1.149-1.384-2.335-2.017-3.535a51.333 51.333 0 01-5.663-17.354c-.249-1.892-.401-3.817-.544-5.677-.305-3.914-.623-7.961-1.916-11.686a10.99 10.99 0 00-1.952-3.568c-.965-1.103-2.39-1.947-4.486-2.649a23.538 23.538 0 00-10.842-.849c-1.846.263-3.18.77-4.154 1.56-1.61 1.306-2.215 3.637-2.801 5.89l-.13.576z" fill="#13C1AC"/><g opacity=".2" fill="#0B175E"><path opacity=".2" d="M110.954 102.369c.277-3.138-.647-6.23-2.031-9.092-.692-1.477-1.523-2.908-2.354-4.338a73.177 73.177 0 01-41.538 14.676 32.92 32.92 0 01-3.047 0 10.484 10.484 0 002.816 4.708c2.307 2.123 4.892 2.908 8.492 2.908h26.123c3.369 0 5.354-.323 7.431-1.431 2.769-1.477 3.877-4.338 4.108-7.431z"/><path opacity=".2" d="M99.416 111.923H73.293c-3.928 0-6.605-.923-8.963-3.092a11.194 11.194 0 01-3.01-5.026.708.708 0 01.12-.619.701.701 0 01.578-.263c.987.046 1.993.046 2.981 0a72.062 72.062 0 0041.155-14.538.7.7 0 01.555-.125.69.69 0 01.461.332c.821 1.417 1.675 2.885 2.381 4.39 1.662 3.438 2.35 6.53 2.096 9.443-.286 3.817-1.846 6.577-4.473 7.984-2.095 1.117-4.126 1.514-7.758 1.514zm-36.461-7.587a9.824 9.824 0 002.307 3.489c2.09 1.924 4.417 2.714 8.013 2.714h26.123c3.42 0 5.215-.342 7.103-1.348 2.233-1.191 3.493-3.503 3.743-6.872.23-2.659-.411-5.516-1.966-8.733-.577-1.223-1.256-2.437-1.939-3.618a73.43 73.43 0 01-41.261 14.34c-.716.032-1.417.041-2.119.028h-.005z"/></g><path d="M27.46 111.646h83.586" stroke="#CFD8DC" stroke-width="3" stroke-linecap="round" stroke-linejoin="round"/><path d="M85.523 54.877l-3.23.046c-.283.001-.564.048-.832.139 0 .138.047.277.047.461a8.826 8.826 0 01-1.016 4.062c.52.469 1.193.732 1.892.738l3.231-.046a2.682 2.682 0 002.585-2.723 2.511 2.511 0 00-.785-1.846 3.065 3.065 0 00-1.892-.831z" fill="#0B175E"/><path d="M82.393 61.015a3.563 3.563 0 01-2.368-.923.697.697 0 01-.147-.83 8.174 8.174 0 00.923-3.744.776.776 0 000-.157 2.41 2.41 0 01-.028-.304.683.683 0 01.462-.656 3.307 3.307 0 011.047-.175l3.231-.046h.055c.862.063 1.677.42 2.308 1.01a3.19 3.19 0 011.01 2.359 3.374 3.374 0 01-3.23 3.415l-3.263.051zm-1.025-1.652c.312.172.66.264 1.016.267l3.23-.046a1.985 1.985 0 001.902-2.03 1.814 1.814 0 00-.558-1.334 2.359 2.359 0 00-1.445-.651l-3.203.046h-.102a9.564 9.564 0 01-.84 3.748z" fill="#0B175E"/><path fill-rule="evenodd" clip-rule="evenodd" d="M93.97 54.508a1.45 1.45 0 00-.323-.97 1.804 1.804 0 00-.785-.646 1.55 1.55 0 00-1.015-.092c-.347.086-.665.26-.923.508a1.606 1.606 0 00-.462.923c-.061.34-.03.691.092 1.015a1.704 1.704 0 001.616 1.062 1.901 1.901 0 001.8-1.8z" fill="#0B175E"/><path d="M86.216 57.507c-1.107.047-2.261.139-3.184.739a3.858 3.858 0 00-1.477 1.938c.253.079.52.11.784.093l3.231-.047a2.487 2.487 0 001.892-.83 2.717 2.717 0 00.785-1.939v-.046c-.692.046-1.338.046-2.03.092z" fill="#13C1AC"/><path d="M82.328 60.97c-.35.019-.701-.03-1.034-.143a.688.688 0 01-.392-.873 4.564 4.564 0 011.745-2.307c1.07-.693 2.33-.803 3.53-.854.351 0 .688-.032 1.03-.046.341-.014.655 0 .992-.047a.696.696 0 01.739.693v.046a3.404 3.404 0 01-.988 2.428 3.155 3.155 0 01-2.382 1.056l-3.23.047h-.01zm5.114-2.816h-.19c-.327 0-.654 0-.991.046-1.053.042-2.063.125-2.834.628-.3.202-.562.457-.771.752l2.921-.041a1.8 1.8 0 001.385-.605c.217-.22.382-.487.48-.78zM78.184 46.569a.684.684 0 01-.401-.13 1.846 1.846 0 00-.831-.29 1.496 1.496 0 00-.812.161.691.691 0 11-.619-1.237 2.842 2.842 0 011.588-.3 3.18 3.18 0 011.477.54.692.692 0 01-.402 1.256zM91.338 50.493a.697.697 0 01-.157-1.385 4.638 4.638 0 012.114-.046.692.692 0 01-.314 1.348 3.23 3.23 0 00-1.486.046.631.631 0 01-.157.037zM61.431 68.307a.693.693 0 01-.461-1.19l5.377-5.165a7.024 7.024 0 01-.499-.55l-5.118 4.912a.692.692 0 01-.96-.997l5.677-5.446a.694.694 0 01.549-.19.67.67 0 01.466.319c.37.533.81 1.014 1.306 1.43a.688.688 0 01.037 1.03l-5.908 5.677a.693.693 0 01-.466.17z" fill="#0B175E"/><path d="M72.923 64.015a8.538 8.538 0 10-8.538-8.538 8.548 8.548 0 008.538 8.538z" fill="#13C1AC"/><path d="M72.922 64.708a9.23 9.23 0 110-18.462 9.23 9.23 0 010 18.462zm0-17.077a7.847 7.847 0 100 15.693 7.847 7.847 0 000-15.693z" fill="#0B175E"/><path fill-rule="evenodd" clip-rule="evenodd" d="M75.277 55.43a2.16 2.16 0 00-.416-1.291 2.769 2.769 0 00-1.061-.878 2.363 2.363 0 00-3.231 1.708c-.092.465-.044.947.138 1.385.199.422.5.787.877 1.061a2.17 2.17 0 001.339.37c.317.005.632-.058.923-.185.28-.114.531-.288.738-.508.221-.224.394-.49.508-.784.157-.264.222-.573.185-.877z" fill="#0B175E"/><path d="M61.431 70.292a16.41 16.41 0 01-1.707.046 1.31 1.31 0 01-1.108-.462c-.323-.507.046-1.2.462-1.66.83-.924 2.03-1.709 3.277-1.478a4.155 4.155 0 011.661.877c1.43 1.062 2.862 2.17 4.2 3.323L63.97 86.492a16.165 16.165 0 00-1.246-1.846c-.462-.6-.877-1.2-1.339-1.754l-6.646-8.4a15.994 15.994 0 01-2.077-3.923c-.554-1.754-.046-3.462 1.016-4.938A6.85 6.85 0 0155.8 63.6a3.868 3.868 0 011.384-.508 3.93 3.93 0 011.477.093c.378.15.748.319 1.108.507.646.37 1.385.785 1.615 1.523.231.739-.046 1.477-.369 2.17a23.73 23.73 0 01-2.954 4.707 1.487 1.487 0 01-.923.554 1.69 1.69 0 01-1.061-.185 24.913 24.913 0 01-2.308-1.523" fill="#13C1AC"/><path d="M63.969 87.184a.688.688 0 01-.6-.35 15.51 15.51 0 00-1.196-1.764c-.17-.226-.332-.461-.498-.664-.277-.379-.54-.734-.822-1.07l-6.66-8.415a16.616 16.616 0 01-2.183-4.112c-.581-1.846-.198-3.77 1.103-5.58a7.485 7.485 0 012.308-2.22c.494-.3 1.04-.503 1.61-.596h.07a4.662 4.662 0 011.74.116c.416.163.822.348 1.218.554l.056.027c.71.411 1.602.924 1.91 1.907.1.325.138.666.111 1.006.107 0 .217.023.323.041.73.183 1.406.534 1.976 1.025 1.675 1.241 3.023 2.308 4.214 3.332a.702.702 0 01.217.711L64.62 86.686a.697.697 0 01-.582.503l-.07-.005zm-9.956-15.23c.37.74.798 1.448 1.284 2.118l6.632 8.377c.295.355.581.743.858 1.117.162.212.319.43.485.646.166.217.3.397.438.586l3.72-13.634c-1.08-.923-2.307-1.878-3.826-3.004a3.522 3.522 0 00-1.407-.762 1.651 1.651 0 00-.425-.023c-.042.097-.083.194-.13.286a23.793 23.793 0 01-1.047 1.971c.272 0 .558-.028.785-.046a.695.695 0 01.101 1.384c-.59.047-1.181.063-1.772.047a24.1 24.1 0 01-1.108 1.495 2.174 2.174 0 01-1.384.808 2.377 2.377 0 01-1.491-.273 27.749 27.749 0 01-1.727-1.08l.014-.013zm-.244-1.722c.15 0 .295.05.415.138.72.535 1.47 1.03 2.243 1.482.192.098.411.13.623.092a.813.813 0 00.462-.309c.277-.346.55-.702.807-1.07a1.642 1.642 0 01-.276-.287l-.033-.041c-.461-.702-.244-1.634.531-2.497a5.428 5.428 0 012.16-1.528c.074-.263.074-.54 0-.803-.148-.462-.724-.799-1.278-1.117-.333-.166-.688-.346-1.03-.462a3.23 3.23 0 00-1.13-.05c-.39.063-.764.197-1.103.397a6.23 6.23 0 00-1.93 1.846c-1.066 1.486-1.384 2.94-.923 4.347v.037a.683.683 0 01.462-.161v-.014zm5.714-1.435c-.1.123-.182.26-.245.406l.245-.406z" fill="#13C1AC"/><path d="M52.477 76.43a1.79 1.79 0 01-1.228-.526 1.74 1.74 0 01-.461-1.227 1.79 1.79 0 01.526-1.228L54 70.855a.693.693 0 01.96.997l-2.677 2.585a.397.397 0 00-.11.24c-.006.089.02.177.073.25.067.067.155.11.25.12.089.005.177-.022.249-.075L55.846 72a.694.694 0 01.96 1.001l-3.092 2.954a1.732 1.732 0 01-1.237.476z" fill="#0B175E"/><path d="M56.973 73.357c-.4.003-.795-.099-1.145-.295-.824-.476-1.619-1-2.381-1.57a.692.692 0 11.83-1.107c.72.535 1.469 1.03 2.244 1.481.192.098.41.13.623.093a.826.826 0 00.461-.31c.435-.529.832-1.089 1.187-1.675a.694.694 0 011.181.73 15.75 15.75 0 01-1.306 1.846c-.342.434-.838.72-1.385.798a2.9 2.9 0 01-.309.01z" fill="#0B175E"/><path d="M60.069 71.045h-.379a2.002 2.002 0 01-1.629-.739 2.524 2.524 0 01.07-3.106 5.66 5.66 0 011.462-1.514 4.616 4.616 0 012.008-.817.701.701 0 01.212 1.385 3.3 3.3 0 00-1.407.568 4.29 4.29 0 00-1.113 1.154c-.461.66-.461 1.006-.101 1.55.075.053.155.098.24.134.096.01.194.01.29 0h.074c.529.012 1.057-.005 1.583-.05a.694.694 0 01.102 1.384c-.175 0-.886.05-1.412.05z" fill="#0B175E"/><path d="M40.74 43.237c-.467 0-.924-.129-1.32-.373l-3.458-2.119a.419.419 0 01-.074-.05 4.262 4.262 0 01-.706-.707l-.055-.078c-.2-.313-.339-.66-.411-1.025a3.152 3.152 0 01.046-1.057c.074-.407.25-.788.512-1.108a3.004 3.004 0 011.708-.987 2.806 2.806 0 011.957.364l.762.462.461-.748a2.88 2.88 0 011.606-1.195c.667-.2 1.385-.15 2.017.143.37.15.674.426.859.78.204.261.36.556.461.872a.417.417 0 01.028.102c.075.348.09.707.046 1.061a2.966 2.966 0 01-.365 1.025l-2.077 3.461a2.307 2.307 0 01-1.993 1.159l-.005.018zm-4.016-3.65l3.429 2.1c.234.14.51.192.78.147a.857.857 0 00.61-.461l2.085-3.48c.09-.158.15-.33.18-.508a1.786 1.786 0 00-.037-.545 1.2 1.2 0 00-.23-.42.692.692 0 01-.176-.295.875.875 0 00-.198-.13 1.495 1.495 0 00-1.034-.04 1.514 1.514 0 00-.803.636l-.822 1.32a.688.688 0 01-.95.222l-1.339-.831a1.385 1.385 0 00-.988-.18 1.565 1.565 0 00-.895.512c-.108.134-.18.293-.208.462a1.898 1.898 0 00-.046.6c.041.178.113.349.212.503.13.144.273.274.43.388zM64.961 29.432a2.8 2.8 0 01-1.486-.406 2.307 2.307 0 01-.78-.77l-2.663-3.794a2.986 2.986 0 01-.462-1.177 2.4 2.4 0 010-1.302c.11-.381.28-.743.504-1.07a2.695 2.695 0 011.006-.882 3.06 3.06 0 012.174-.24h.046c.742.199 1.387.662 1.814 1.301l.609.886.886-.609a3.115 3.115 0 013.974.231.706.706 0 01.337.268c.24.324.426.686.549 1.07.13.405.168.834.11 1.256a2.81 2.81 0 01-.429 1.209 3.175 3.175 0 01-.89.905l-3.799 2.644c-.282.232-.616.39-.974.462-.174.02-.35.026-.526.018zm-2.51-8.367a1.49 1.49 0 00-.734.175c-.198.095-.369.24-.494.42-.144.21-.254.44-.328.683a1.07 1.07 0 000 .59.298.298 0 010 .093c.042.229.132.445.263.637l2.668 3.817.027.041c.076.131.184.24.314.314.152.097.322.16.499.19.183.032.37.032.554 0a.96.96 0 00.392-.194l3.85-2.691c.204-.131.378-.305.511-.508.12-.193.192-.41.213-.637.024-.23 0-.462-.07-.683a1.873 1.873 0 00-.23-.461.626.626 0 01-.171-.143 1.744 1.744 0 00-2.308-.245l-.041.032-1.477 1.016a.697.697 0 01-.965-.18l-1.015-1.477a1.846 1.846 0 00-1.039-.739 2.274 2.274 0 00-.42-.05zM111.23 48a3.033 3.033 0 01-.72-.11 1.795 1.795 0 01-.83-.462l-2.557-2.28a2.522 2.522 0 01-.587-.84 2.397 2.397 0 01-.198-.974c-.003-.342.061-.68.189-.997.129-.314.323-.597.568-.83a2.333 2.333 0 011.689-.666 2.551 2.551 0 011.652.628l.494.425.425-.49.032-.036a2.52 2.52 0 011.574-.799 2.663 2.663 0 011.68.379l.069.046c.308.218.542.523.674.877.13.258.219.535.263.821.082.377.053.77-.083 1.131-.11.326-.288.625-.521.877l-2.262 2.538c-.182.234-.418.421-.688.545a1.89 1.89 0 01-.863.217zm-2.446-5.77a.943.943 0 00-.711.26 1.12 1.12 0 00-.263.368 1.236 1.236 0 00-.023.845 1.12 1.12 0 00.286.42l2.557 2.28c.058.06.132.101.213.12a.81.81 0 00.632 0 .464.464 0 00.217-.166l.037-.046 2.307-2.585a1.31 1.31 0 00.245-.462.629.629 0 000-.364 1.337 1.337 0 00-.143-.462.764.764 0 01-.083-.221 2.32 2.32 0 00-.18-.166 1.303 1.303 0 00-.771-.157 1.182 1.182 0 00-.724.383l-.864.997a.673.673 0 01-.471.24.688.688 0 01-.502-.166l-1.016-.877a1.153 1.153 0 00-.743-.24z" fill="#CFD8DC"/></svg>