<svg width="111" height="102" fill="none" xmlns="http://www.w3.org/2000/svg"><path d="M37.783 99.966h36.334c3.983 0 4.026-3.263 3.816-5.296-.243-2.26-.94-4.45-2.051-6.441-1.112-1.832-2.433-3.432-3.478-5.301a20.518 20.518 0 01-2.385-7.872L67.443 52.81c-.295-2.566-.658-5.291-2.313-7.292-2.275-2.75-6.254-3.296-9.84-3.489-3.297-.165-6.813-.122-9.613 1.605-4.088 2.524-5.638 7.241-6.549 11.916-.634 3.235-1.183 6.93-1.608 10.198-.734 5.65-1.717 10.984-2.084 13.117-.606 3.502-2.06 8.361-2.309 11.906-.267 4.2-.61 9.195 4.656 9.195z" fill="#13C1AC"/><path fill-rule="evenodd" clip-rule="evenodd" d="M45.173 43.73c3.047-1.845 6.82-1.863 10.15-1.7h.003c3.603.19 7.955.724 10.483 3.721 1.831 2.172 2.205 5.094 2.5 7.607l2.608 22.09.001.016a19.408 19.408 0 002.33 7.546c.51.894 1.09 1.73 1.695 2.584l.203.286c.539.759 1.094 1.54 1.606 2.369a17.28 17.28 0 012.175 6.682l.001.003c.107 1.02.173 2.499-.399 3.743a3.64 3.64 0 01-1.473 1.649c-.707.417-1.604.64-2.711.64h-36.78c-1.45 0-2.595-.339-3.464-.985-.866-.645-1.383-1.54-1.686-2.516-.578-1.867-.424-4.228-.293-6.242l.008-.133v-.004c.13-1.819.573-3.951 1.049-6.031.123-.541.25-1.078.373-1.606.358-1.526.7-2.981.924-4.257m11.465-34.273c-3.855 2.335-5.382 6.74-6.302 11.371v.001c-.639 3.191-1.192 6.845-1.62 10.083-.637 4.801-1.457 9.376-1.914 11.925l-.2 1.128v.001c-.233 1.316-.587 2.827-.948 4.365-.122.52-.245 1.044-.364 1.565-.476 2.081-.895 4.12-1.017 5.822-.138 2.127-.273 4.267.227 5.882.243.784.622 1.39 1.18 1.806.558.414 1.368.696 2.583.696h36.779c.908 0 1.528-.183 1.957-.436.424-.25.71-.6.904-1.02.404-.88.386-2.032.281-3.03a15.906 15.906 0 00-1.984-6.12c-.485-.783-1.011-1.524-1.55-2.283l-.204-.287c-.608-.858-1.225-1.744-1.772-2.705l-.005-.008a20.778 20.778 0 01-2.496-8.076L66.87 53.516c-.304-2.583-.664-5.075-2.183-6.878-2.078-2.463-5.78-3.014-9.438-3.207-3.343-.164-6.687-.099-9.308 1.488m-.768-1.189zm0 0c-4.42 2.677-6.032 7.64-6.957 12.295l6.957-12.295zm-6.957 12.295c-.646 3.232-1.203 6.919-1.634 10.17-.632 4.768-1.445 9.306-1.903 11.86-.08.441-.148.823-.203 1.137" fill="#13C1AC"/><path opacity=".2" d="M33.14 90.97c.034-.461.086-.922.158-1.439 3.206 1.78 7.218 2.864 12.275 3.228 7.867.586 12.427-.802 16.754-2.384a29.737 29.737 0 0010.496-6.409c.954 1.545 2.09 2.942 3.063 4.505a16.342 16.342 0 012.05 6.308c.201 1.992.158 5.187-3.816 5.187H37.773c-5.267.01-4.924-4.883-4.633-8.996z" fill="#04413C"/><path opacity=".2" fill-rule="evenodd" clip-rule="evenodd" d="M73.128 82.972c.22.028.415.155.529.343.469.777.984 1.52 1.518 2.287l.022.031c.522.751 1.06 1.525 1.559 2.345l.014.023a17.907 17.907 0 012.162 6.802v.006c.103 1.041.166 2.55-.406 3.82a3.696 3.696 0 01-1.47 1.683c-.706.426-1.602.654-2.708.654H37.557h-.001c-1.45.002-2.595-.342-3.464-1-.867-.658-1.384-1.57-1.685-2.568-.58-1.924-.412-4.364-.268-6.436l.005-.077c.035-.497.09-.99.164-1.535a.716.716 0 01.398-.547.731.731 0 01.68.021c3.127 1.776 7.076 2.877 12.119 3.25h.002c7.822.595 12.328-.81 16.648-2.425l.006-.002a29.265 29.265 0 0010.367-6.476.73.73 0 01.6-.199zM62.664 90.99c-4.44 1.66-9.166 3.128-17.268 2.511-4.712-.347-8.584-1.32-11.773-2.923-.013.137-.024.272-.034.406-.15 2.17-.29 4.357.206 6.004.242.8.62 1.418 1.178 1.841.556.421 1.366.707 2.581.705H74.348c.906 0 1.524-.186 1.952-.444.423-.256.709-.613.903-1.044.404-.899.388-2.074.288-3.095a16.487 16.487 0 00-1.984-6.247c-.474-.777-.988-1.517-1.515-2.275l-.011-.016a62.449 62.449 0 01-1.092-1.606 30.727 30.727 0 01-10.225 6.183z" fill="#04413C"/><path d="M68.114 66.38s7.432-3.668 11.418-4.846c1.278-.375 2.618-.746 3.929-.475.286.035.56.132.803.285.243.153.448.357.6.599.419.826-.208 1.772-.805 2.484-2.892 3.425-6.44 7.363-9.226 10.394-2.786 3.031-6.609 7.501-7.833 9.145" fill="#13C1AC"/><path fill-rule="evenodd" clip-rule="evenodd" d="M83.645 61.442c-1.08-.224-2.218.077-3.491.453-1.895.563-4.644 1.734-6.947 2.78a153.516 153.516 0 00-4.016 1.896l-.06.03-.02.01a.71.71 0 01-.948-.312.697.697 0 01.315-.94l.306.605-.306-.605.022-.01.062-.032a88.732 88.732 0 011.12-.543c.745-.358 1.78-.846 2.936-1.372 2.301-1.045 5.13-2.255 7.13-2.849h.001c1.216-.36 2.684-.784 4.157-.487a2.605 2.605 0 011.854 1.19.724.724 0 01.032.056c.33.653.22 1.314 0 1.842-.215.521-.57.994-.874 1.359l-.001.001c-2.835 3.377-6.31 7.255-9.034 10.236-2.718 2.974-6.433 7.345-7.607 8.93a.71.71 0 01-.988.15.696.696 0 01-.151-.978c1.218-1.645 4.972-6.059 7.699-9.042 2.72-2.975 6.178-6.836 8.994-10.19.28-.335.523-.677.656-.998.124-.298.123-.5.055-.657a1.173 1.173 0 00-.838-.513.732.732 0 01-.058-.01z" fill="#13C1AC"/><path d="M38.868 65.55s-7.536-3.225-11.537-4.172c-1.28-.303-2.622-.597-3.897-.266a1.908 1.908 0 00-1.332.948c-.362.848.309 1.757.951 2.43 3.045 3.244 6.77 6.962 9.692 9.818 2.921 2.856 6.951 7.104 8.255 8.658" fill="#13C1AC"/><path fill-rule="evenodd" clip-rule="evenodd" d="M27.08 61.389c-1.222-.29-2.693-.63-4.128-.264l4.128.264zm-4.128-.264a2.565 2.565 0 00-1.765 1.274.695.695 0 00-.032.066c-.284.668-.137 1.32.112 1.834.245.506.624.956.955 1.303 2.99 3.196 6.645 6.855 9.508 9.661 2.853 2.799 6.78 6.953 8.035 8.453a.7.7 0 001.072-.895c-1.298-1.551-5.262-5.742-8.128-8.553-2.858-2.802-6.497-6.445-9.468-9.62l-.004-.005c-.299-.313-.56-.64-.712-.952-.14-.287-.152-.49-.095-.65a1.161 1.161 0 01.795-.547.678.678 0 00.054-.012c1.055-.275 2.2-.04 3.477.264 1.907.453 4.69 1.46 7.026 2.37a152.51 152.51 0 014.074 1.655l.062.027.02.008a.697.697 0 10.552-1.282l-.276.641.276-.64-.022-.01-.063-.027a96.676 96.676 0 00-1.137-.477 152.71 152.71 0 00-2.98-1.196c-2.332-.907-5.197-1.949-7.208-2.426" fill="#13C1AC"/><path fill-rule="evenodd" clip-rule="evenodd" d="M48.999 47.516a1.228 1.228 0 00-.3-.84 1.933 1.933 0 00-.872-.576 2.611 2.611 0 00-1.15-.114c-.39.048-.753.181-1.042.384-.29.202-.492.465-.582.753-.09.29-.065.591.074.87.139.277.384.518.705.69.321.174.703.272 1.099.282.263.007.524-.025.77-.094a2.19 2.19 0 00.664-.309c.192-.134.347-.296.456-.475a1.2 1.2 0 00.178-.57zM63 48.516a1.501 1.501 0 10-3.002-.1 1.501 1.501 0 003.001.1zM50.731 47.966c.404 0 .731.282.731.629v.934c0 .578.268 1.133.743 1.541.475.41 1.12.639 1.793.639.672 0 1.318-.23 1.794-.639.476-.408.744-.963.745-1.541v-.934c0-.347.328-.629.732-.629.404 0 .731.282.731.629v.935c-.002.912-.424 1.786-1.174 2.43-.75.644-1.768 1.006-2.828 1.006-1.06 0-2.078-.362-2.827-1.007-.75-.644-1.171-1.518-1.171-2.43v-.934c0-.347.327-.629.731-.629z" fill="#04413C"/><path fill-rule="evenodd" clip-rule="evenodd" d="M26 101.466c0-.276.317-.5.708-.5h53.584c.391 0 .708.224.708.5s-.317.5-.708.5H26.708c-.391 0-.708-.224-.708-.5z" fill="#CFD8DC"/><path d="M55.868 20.966c2.287.005 4.485-.915 6.132-2.565-.352-1.856-.784-3.693-1.216-5.53-.383-1.644-.88-3.458-2.251-4.329-1.035-.655-2.317-.609-3.524-.536-1.049.06-2.203.16-2.96.917-.917.916-.987 2.386-.996 3.71L51 19.454a8.57 8.57 0 004.868 1.512z" fill="#385EF9"/><path fill-rule="evenodd" clip-rule="evenodd" d="M54.887 7.01c1.24-.074 2.815-.154 4.12.663h.001c.88.553 1.45 1.388 1.847 2.266.394.871.64 1.835.842 2.694l.002.007c.454 1.912.913 3.842 1.288 5.793a.73.73 0 01-.2.655 9.848 9.848 0 01-6.954 2.878 9.795 9.795 0 01-5.52-1.696.723.723 0 01-.313-.604l.056-7.117c.005-.692.025-1.486.181-2.24.159-.761.466-1.534 1.083-2.144 1.016-1.002 2.51-1.095 3.567-1.155zm.946 14.239l.001-.717a8.463 8.463 0 005.708-2.213c-.353-1.785-.774-3.558-1.2-5.346v-.002c-.201-.856-.42-1.697-.751-2.428-.328-.725-.744-1.29-1.309-1.645-.878-.55-2.008-.535-3.315-.456h-.002c-1.155.065-2.095.182-2.679.757-.35.346-.562.819-.685 1.41-.124.597-.146 1.26-.15 1.95l-.053 6.719a8.42 8.42 0 004.433 1.254l.002.717z" fill="#385EF9"/><path fill-rule="evenodd" clip-rule="evenodd" d="M58.967 5.552c.117.443-.085.917-.452 1.06L49.91 9.925c-.367.141-.76-.104-.877-.547-.117-.443.086-.917.454-1.059l8.601-3.313c.368-.142.76.102.879.545z" fill="#0B175E"/><path fill-rule="evenodd" clip-rule="evenodd" d="M53.988 5.36a.115.115 0 00-.086 0l-.007.003a.614.614 0 00-.265.197.65.65 0 00-.13.312.689.689 0 01-.411.545.644.644 0 01-.66-.098 1.295 1.295 0 00-.09-.067 5.907 5.907 0 00.193 1.835.697.697 0 01-.462.854.663.663 0 01-.82-.482 7.35 7.35 0 01-.228-2.47c.008-.264.081-.52.214-.744a.705.705 0 01.043-.065c.351-.465.86-.462 1.181-.377l.044.013a1.948 1.948 0 01.93-.753c.331-.13.697-.13 1.028.003.331.131.605.384.769.71.358.698.614 1.449.757 2.226a.692.692 0 01-.528.81.667.667 0 01-.78-.55 6.643 6.643 0 00-.624-1.835l-.005-.008a.122.122 0 00-.063-.059zm-1.87.783h.002-.002z" fill="#0B175E"/><path fill-rule="evenodd" clip-rule="evenodd" d="M56 2.425c-4.755 0-8.61 4.048-8.61 9.041s3.855 9.041 8.61 9.041c4.755 0 8.61-4.048 8.61-9.04 0-4.994-3.855-9.042-8.61-9.042zm-10 9.041c0-5.799 4.477-10.5 10-10.5s10 4.701 10 10.5c0 5.8-4.477 10.5-10 10.5s-10-4.7-10-10.5z" fill="#385EF9"/><path fill-rule="evenodd" clip-rule="evenodd" d="M58.02 11.08a1.003 1.003 0 01.51-.991.988.988 0 011.427.585 1.005 1.005 0 01-.325 1.067.99.99 0 01-.537.219.989.989 0 01-.728-.213A1 1 0 0158 11.08M52.006 12.078a1 1 0 111.986-.225 1 1 0 01-1.986.225zM57.39 10.969c.297-.025.564.132.597.35.03.194.008.39-.065.578a1.396 1.396 0 01-.36.514 1.976 1.976 0 01-.6.372c-.23.094-.484.153-.746.174a2.53 2.53 0 01-1.472-.316c-.415-.245-.681-.602-.74-.993-.034-.218.18-.416.475-.44.296-.025.563.133.596.351.028.18.15.346.342.46.192.113.437.165.681.145.122-.01.239-.037.345-.08a.911.911 0 00.276-.171.643.643 0 00.166-.237.512.512 0 00.03-.266c-.033-.22.18-.417.476-.441z" fill="#0B175E"/><path d="M96.692 42.925c-1.032-.955-2.546-1.05-3.917-.903a5.613 5.613 0 00-3.256 1.285c-1.34 1.19-2.13 3.195-3.519 8.497 1.495 1.769 3.551 2.88 5.77 3.115 2.218.236 4.44-.42 6.23-1.84 0-1.629 0-3.305-.04-4.776-.054-1.891.076-4.093-1.268-5.378z" fill="#FF89C2"/><path fill-rule="evenodd" clip-rule="evenodd" d="M92.76 41.026c1.468-.155 3.312-.085 4.624 1.118l.008.008c.874.827 1.237 1.925 1.4 2.995.124.822.139 1.705.152 2.496l.013.631c.043 1.54.043 3.292.043 4.98v.006a.76.76 0 01-.284.599c-2.02 1.585-4.525 2.318-7.027 2.055-2.502-.264-4.822-1.504-6.508-3.48a.777.777 0 01-.155-.7c.73-2.756 1.312-4.7 1.9-6.116.592-1.431 1.207-2.371 2.021-3.087a6.604 6.604 0 013.812-1.505zm3.7 2.24c-.849-.774-2.172-.906-3.576-.756a5.242 5.242 0 00-3.048 1.176c-.588.52-1.088 1.24-1.623 2.53-.517 1.247-1.049 2.983-1.725 5.515 1.425 1.53 3.313 2.487 5.34 2.7a8.345 8.345 0 005.766-1.555c0-1.57-.003-3.155-.042-4.557-.007-.242-.011-.48-.015-.716-.014-.774-.027-1.513-.134-2.22-.136-.896-.41-1.609-.944-2.117z" fill="#FF89C2"/><path fill-rule="evenodd" clip-rule="evenodd" d="M92.5 36.425a9.041 9.041 0 100 18.082 9.041 9.041 0 000-18.082zM82 45.466c0-5.799 4.701-10.5 10.5-10.5s10.5 4.701 10.5 10.5c0 5.8-4.701 10.5-10.5 10.5s-10.5-4.7-10.5-10.5z" fill="#FF89C2"/><path d="M92 42.643a7.45 7.45 0 011.058-3.015c.132-.24.31-.438.518-.573a.519.519 0 01.662.067 1.248 1.248 0 01.08 1.156c.668-.536 1.432-.863 2.225-.953a.406.406 0 01.223.006c.073.022.141.065.199.125a.64.64 0 01.059.432 1.615 1.615 0 01-.163.511c-.081.156-.186.29-.31.395l.62.157c.284.023.55.184.738.447a1.252 1.252 0 01-.047 1.042c-.399.71-.97 1.244-1.63 1.526-.78-.52-1.72-.52-2.559-.885A3.6 3.6 0 0092 42.643z" fill="#FF89C2"/><path fill-rule="evenodd" clip-rule="evenodd" d="M93.667 40.449a.898.898 0 00-.23.238 5.358 5.358 0 00-.883 1.718c.425.072.84.197 1.237.371.321.114.653.181 1.037.26l.284.058c.395.083.838.187 1.27.379a2.957 2.957 0 001.191-1.014.244.244 0 00.033-.153.483.483 0 00-.26-.098.698.698 0 01-.094-.013l-.682-.143a.705.705 0 01-.543-.557.724.724 0 01.249-.702 4.638 4.638 0 00-1.648.687.683.683 0 01-.854-.077.728.728 0 01-.134-.868.244.244 0 00.027-.086zm4.198.414c.33.103.628.299.86.569.04.045.073.095.1.15a1.703 1.703 0 01-.09 1.666l-.011.016a4.344 4.344 0 01-2.14 1.663.68.68 0 01-.559-.047c-.333-.184-.719-.287-1.193-.387a38.162 38.162 0 00-.239-.049c-.397-.08-.855-.172-1.285-.328a3.933 3.933 0 00-1.617-.36.69.69 0 01-.526-.252.727.727 0 01-.156-.573 6.828 6.828 0 011.29-3.067c.208-.308.485-.56.808-.734a1.344 1.344 0 011.476.126.708.708 0 01.12.12c.085.108.155.225.21.349a5.971 5.971 0 011.69-.424 1.213 1.213 0 011.008.28c.048.041.09.09.127.143a1.208 1.208 0 01.17.954 2.038 2.038 0 01-.043.185z" fill="#FF89C2"/><path fill-rule="evenodd" clip-rule="evenodd" d="M89.996 45.51c.017-.099-.024-.198-.12-.285a.993.993 0 00-.415-.203 1.892 1.892 0 00-.571-.053c-.197.011-.383.05-.534.115-.152.063-.262.148-.317.243a.266.266 0 00.008.29c.06.095.175.178.33.24.154.062.342.099.54.107.13.006.262-.001.387-.02a1.48 1.48 0 00.342-.095.788.788 0 00.243-.152.342.342 0 00.107-.187zM95.996 46.053a1 1 0 10-1.993-.174 1 1 0 001.993.174zM90.652 44.968c.292.023.508.25.481.509l-.069.679c-.01.105.003.21.039.311.035.1.093.194.17.275.076.08.17.147.275.196a.999.999 0 00.692.054.948.948 0 00.31-.15.83.83 0 00.223-.244.733.733 0 00.1-.3l.068-.68c.026-.258.284-.448.576-.425.292.023.507.25.48.509l-.068.679a1.592 1.592 0 01-.216.651c-.12.203-.283.382-.481.529a2.057 2.057 0 01-.674.325 2.214 2.214 0 01-1.501-.117 1.944 1.944 0 01-.598-.426 1.69 1.69 0 01-.369-.596 1.546 1.546 0 01-.082-.674l.069-.68c.026-.258.284-.448.575-.425z" fill="#670A6F"/><path d="M31.64 28.966c2.38.003 4.666-.99 6.36-2.762-.054-.091-.113-.177-.172-.268-1.034-1.637-1.965-3.409-2.258-5.357-.145-1.01-.118-2.068-.479-3.011a4.253 4.253 0 00-1.007-1.466 3.96 3.96 0 00-1.49-.89 5.356 5.356 0 00-3.398.063c-.478.14-.925.378-1.314.703-.773.685-1.093 1.777-1.355 2.806A75.117 75.117 0 0025 25.917a9.056 9.056 0 003.02 2.26 8.598 8.598 0 003.62.79z" fill="#FD6C67"/><path fill-rule="evenodd" clip-rule="evenodd" d="M28.886 14.318a6.314 6.314 0 013.957-.066l.007.002a4.845 4.845 0 011.821 1.077 5.152 5.152 0 011.237 1.796c.225.581.321 1.178.383 1.728.027.242.046.46.065.668.027.302.052.584.096.89.282 1.854 1.182 3.578 2.247 5.25l.04.06c.045.07.102.156.152.238a.773.773 0 01-.102.927c-1.902 1.975-4.468 3.081-7.142 3.078a9.722 9.722 0 01-4.066-.88 10.165 10.165 0 01-3.391-2.518.77.77 0 01-.18-.634 78.086 78.086 0 011.61-7.464c.268-1.04.645-2.402 1.645-3.281a4.523 4.523 0 011.621-.87zm2.76 14.904l.001-.745c2.106.003 4.136-.794 5.72-2.232-1.037-1.658-1.998-3.52-2.313-5.6l-.001-.005a20.965 20.965 0 01-.114-1.052c-.018-.2-.036-.391-.055-.56-.056-.5-.133-.937-.284-1.331a3.665 3.665 0 00-.87-1.254 3.448 3.448 0 00-1.292-.765 4.965 4.965 0 00-3.157.07 3.13 3.13 0 00-1.115.59c-.608.54-.9 1.435-1.18 2.523l-.001.008a76.486 76.486 0 00-1.517 6.947 8.721 8.721 0 002.677 1.905 8.367 8.367 0 003.5.756l.001.745z" fill="#FD6C67"/><path fill-rule="evenodd" clip-rule="evenodd" d="M31.5 10.425a9.041 9.041 0 100 18.082 9.041 9.041 0 000-18.082zM21 19.466c0-5.799 4.701-10.5 10.5-10.5S42 13.667 42 19.466c0 5.8-4.701 10.5-10.5 10.5s-10.5-4.7-10.5-10.5z" fill="#FD6C67"/><path d="M29.896 13.369c.087-.176.204-.368.403-.4a.523.523 0 01.311.062.462.462 0 01.204.226c.07.191.09.395.06.595l-.112 1.708.585-.914c.185-.346.426-.665.714-.946a.742.742 0 01.264-.152.59.59 0 01.368.065c.111.06.196.155.239.267.079.228.09.473.03.706-.126.727-.256 1.749-1.03 2.12a3.736 3.736 0 01-2.122.184c-1.624-.463-.381-2.615.086-3.521z" fill="#FD6C67"/><path fill-rule="evenodd" clip-rule="evenodd" d="M30.098 14.042l-.101 1.568c-.021.32.194.61.519.703a.757.757 0 00.848-.31l.662-1.055a3.769 3.769 0 01.503-.745.788.788 0 01-.023.166.665.665 0 00-.01.05c-.01.05-.018.1-.026.149-.066.394-.129.773-.252 1.114-.133.367-.296.57-.482.669a3.376 3.376 0 01-1.893.167c-.228-.072-.294-.17-.33-.269-.055-.15-.063-.399.019-.757.11-.481.34-.995.566-1.45zm.02-2.067c.287-.032.575.026.821.166a1.234 1.234 0 01.547.631c.041.114.072.23.092.348a5.032 5.032 0 01.11-.111c.162-.147.354-.26.565-.33a.777.777 0 01.13-.032c.314-.048.636.01.91.162a1.297 1.297 0 01.594.692c.128.374.148.774.057 1.158a42.68 42.68 0 00-.02.119c-.063.381-.146.887-.314 1.35-.191.527-.534 1.127-1.216 1.46a4.934 4.934 0 01-2.959.259c-.67-.195-1.114-.603-1.313-1.15-.182-.497-.134-1.036-.028-1.497.187-.811.627-1.667.896-2.189l.093-.18c.055-.113.143-.283.276-.437a1.203 1.203 0 01.76-.42z" fill="#FD6C67"/><path fill-rule="evenodd" clip-rule="evenodd" d="M34.002 19.053a1.876 1.876 0 01.06-.568.952.952 0 01.208-.406c.087-.092.187-.129.285-.107.098.022.191.102.267.23.076.127.13.296.158.486.028.19.027.393-.004.581-.03.189-.087.355-.164.479-.078.123-.172.198-.27.214a.269.269 0 01-.194-.042.548.548 0 01-.17-.188 1.176 1.176 0 01-.122-.304 1.807 1.807 0 01-.054-.375zM28.004 19.51c-.017-.099.024-.198.119-.284a.99.99 0 01.412-.203 1.89 1.89 0 01.568-.054c.196.01.381.049.533.111.152.063.264.147.32.241a.266.266 0 01.002.29c-.057.094-.168.178-.32.24a1.643 1.643 0 01-.532.113 1.962 1.962 0 01-.389-.02 1.497 1.497 0 01-.342-.095.8.8 0 01-.245-.152.348.348 0 01-.11-.188" fill="#A31745"/><path fill-rule="evenodd" clip-rule="evenodd" d="M32.552 18.968a.4.4 0 01.44.356 1.483 1.483 0 01-.789 1.468 1.504 1.504 0 01-.56.166 1.5 1.5 0 01-1.476-.785 1.478 1.478 0 01-.166-.562.4.4 0 01.799-.069.684.684 0 00.76.623l.007-.001a.695.695 0 00.602-.488.688.688 0 00.026-.27.4.4 0 01.357-.438z" fill="#A31745"/><path d="M81.004 32.966A9.364 9.364 0 0086 31.528c-.076-1.31-.158-2.634-.23-3.925-.1-2.426-.401-4.84-.902-7.213a3.442 3.442 0 00-1.091-1.668 3.296 3.296 0 00-1.813-.756c-1.605 0-3.367.692-4.409 4.029-.907 2.914-1.777 5.839-2.555 8.793a9.396 9.396 0 006.004 2.178z" fill="#F49709"/><path fill-rule="evenodd" clip-rule="evenodd" d="M79.333 18.849c.94-.692 1.956-.883 2.87-.883a4.123 4.123 0 012.286.894 4.048 4.048 0 011.352 2.024 41.6 41.6 0 01.927 7.122c.047.822.099 1.657.15 2.494l.08 1.312a.713.713 0 01-.344.653 10.454 10.454 0 01-5.42 1.501h-.001l.001-.715M76 30.86a199.376 199.376 0 012.442-8.048L76 30.86zm9.528.597l-.053-.865c-.052-.841-.104-1.683-.151-2.51l-.001-.01a40.188 40.188 0 00-.889-6.855 2.621 2.621 0 00-.857-1.247 2.669 2.669 0 00-1.407-.574c-.694.005-1.365.152-1.973.6-.623.458-1.26 1.291-1.755 2.816" fill="#F49709"/><path fill-rule="evenodd" clip-rule="evenodd" d="M81.5 14.425a9.041 9.041 0 100 18.082 9.041 9.041 0 000-18.082zM71 23.466c0-5.799 4.701-10.5 10.5-10.5S92 17.667 92 23.466c0 5.8-4.701 10.5-10.5 10.5s-10.5-4.7-10.5-10.5z" fill="#F49709"/><path d="M78 17.38c1.646.819 3.454 1.35 5.326 1.563a13.26 13.26 0 001.577 0c.146-.966.16-1.698-.189-2.27-.348-.573-1.412-.87-2.32-.615-.91.255-1.663.907-2.195 1.998" fill="#F49709"/><path fill-rule="evenodd" clip-rule="evenodd" d="M84.141 15.102c.576.17 1.153.522 1.462 1.081.501.904.442 1.986.286 3.117a.748.748 0 01-.698.637 13.687 13.687 0 01-1.834-.004 16.77 16.77 0 01-5.971-1.926.728.728 0 01-.29-1.004.766.766 0 011.03-.282c.486.266.985.505 1.497.716.622-1.182 1.496-1.987 2.605-2.328a3.353 3.353 0 011.913-.007zm-3.084 2.844a15.3 15.3 0 002.47.522c.31.02.623.027.935.023.066-.768.009-1.251-.188-1.607-.063-.114-.242-.274-.571-.371a1.806 1.806 0 00-1.02.001c-.593.183-1.159.617-1.626 1.432z" fill="#F49709"/><path fill-rule="evenodd" clip-rule="evenodd" d="M78.998 22.053a1.876 1.876 0 00-.06-.568.955.955 0 00-.207-.405c-.088-.092-.187-.13-.285-.108-.098.022-.191.1-.267.228a1.343 1.343 0 00-.159.486 1.97 1.97 0 00.003.58c.03.189.086.356.163.48.077.124.171.2.27.217.132.022.263-.061.364-.232a1.5 1.5 0 00.178-.678zM84.998 22.51a.5.5 0 10-.997-.087.5.5 0 00.997.087zM80.478 21.968c.211.023.367.244.348.493l-.054.688a.98.98 0 00.03.324.892.892 0 00.133.287c.06.085.134.154.217.205.083.051.173.082.266.092l-.033.451.034-.451c.187.02.374-.05.519-.192a.892.892 0 00.252-.563l.042-.684c.015-.25.2-.438.411-.42.212.019.371.236.356.485l-.042.689v.008c-.036.46-.225.885-.526 1.18-.301.297-.69.44-1.08.4m0 0a1.318 1.318 0 01-.555-.191 1.554 1.554 0 01-.45-.427 1.857 1.857 0 01-.278-.597 2.04 2.04 0 01-.062-.677v-.001l.054-.69c.02-.248.206-.432.418-.409" fill="#803700"/><path d="M17.996 49.966A9.991 9.991 0 0113 48.646c.076-1.202 1.089-8.334 1.395-9.456a3.15 3.15 0 011.09-1.53 3.457 3.457 0 011.814-.694c1.61 0 3.367.635 4.408 3.697A141.85 141.85 0 0124 47.985c-1.702 1.287-3.821 1.987-6.004 1.981z" fill="#D2FD61"/><path fill-rule="evenodd" clip-rule="evenodd" d="M17.78 35.969a.692.692 0 01.06-.003c.877 0 1.85.189 2.747.872.893.679 1.635 1.789 2.167 3.483a157.941 157.941 0 012.222 7.684c.072.27-.02.56-.235.735a9.785 9.785 0 01-6.227 2.226 9.76 9.76 0 01-5.183-1.482.71.71 0 01-.33-.645c.04-.662.306-2.87.596-5.027.287-2.145.61-4.354.77-4.99a4.006 4.006 0 011.287-1.972 3.876 3.876 0 012.125-.881zm.092 1.41c-.493.05-.96.247-1.345.566a2.591 2.591 0 00-.823 1.242c-.137.559-.446 2.645-.737 4.816a154.86 154.86 0 00-.55 4.491 8.39 8.39 0 004.095 1.06h.003a8.41 8.41 0 005.004-1.639 154.272 154.272 0 00-2.082-7.163c-.473-1.507-1.081-2.33-1.676-2.782-.581-.442-1.223-.587-1.889-.592z" fill="#D2FD61"/><path fill-rule="evenodd" clip-rule="evenodd" d="M18.5 32.356c-4.993 0-9.041 3.855-9.041 8.61 0 4.755 4.048 8.61 9.041 8.61s9.041-3.855 9.041-8.61c0-4.755-4.048-8.61-9.041-8.61zM8 40.966c0-5.523 4.701-10 10.5-10s10.5 4.477 10.5 10-4.701 10-10.5 10S8 46.49 8 40.966z" fill="#D2FD61"/><path fill-rule="evenodd" clip-rule="evenodd" d="M20.006 39.074a1 1 0 111.988-.215 1 1 0 01-1.988.215zM14.005 40.069a1 1 0 111.99-.206 1 1 0 01-1.99.206zM19.547 38.97c.222-.035.421.203.445.531.041.586-.075 1.173-.324 1.632-.25.46-.611.755-1.007.82l-.045-.594.043.595c-.396.062-.792-.11-1.103-.48-.31-.369-.509-.904-.553-1.49-.025-.328.134-.624.356-.661.222-.037.422.2.447.527.02.272.113.52.256.692.144.17.327.25.51.222.183-.03.35-.167.466-.38.116-.213.17-.485.15-.757-.023-.328.138-.623.36-.658z" fill="#136D09"/><path fill-rule="evenodd" clip-rule="evenodd" d="M27.401 2.098c.417-.238.985-.146 1.268.206l1.174 1.461c.283.352.173.83-.244 1.069-.417.238-.985.146-1.268-.206l-1.174-1.461c-.283-.352-.173-.83.244-1.069zM96.634 10.127c.404.267.486.772.184 1.129l-1.174 1.387c-.302.356-.874.43-1.278.162-.404-.266-.486-.772-.184-1.128l1.174-1.387c.302-.357.874-.43 1.278-.163zM5.048 24.564c.146-.477.578-.718.966-.539l2.5 1.156c.387.18.584.71.438 1.187-.146.477-.578.718-.966.539l-2.5-1.156c-.387-.179-.584-.71-.438-1.187zM0 35.966c0-.552.3-1 .672-1h2.656c.371 0 .672.448.672 1s-.3 1-.672 1H.672c-.371 0-.672-.448-.672-1zM105.947 22.293c.153.265-.035.567-.419.672l-3.5.964c-.385.106-.821-.023-.975-.29-.153-.265.035-.566.419-.672l3.5-.964c.385-.106.821.024.975.29zM111 35.961c.001.55-.328.998-.734.998l-3.53.007c-.406 0-.735-.445-.736-.995-.001-.55.328-.997.734-.998l3.53-.007c.406 0 .735.445.736.995z" fill="#CFD8DC"/></svg>