<svg width="139" height="120" fill="none" xmlns="http://www.w3.org/2000/svg"><path d="M85.107 81.831H33.784a.71.71 0 01-.692-.692V40.847a.71.71 0 01.692-.693.71.71 0 01.692.693v39.6h50.631a.71.71 0 01.692.692.71.71 0 01-.692.692z" fill="#CFD8DC"/><path d="M42.553 72.323a.75.75 0 01-.693-.507.688.688 0 01.508-.831l9.738-2.4a.688.688 0 11.323 1.338l-9.738 2.4h-.139zM55.661 68.493a.658.658 0 01-.554-.277.716.716 0 01.139-.97l10.338-7.476a.716.716 0 01.97.138.716.716 0 01-.139.97l-10.338 7.476a.744.744 0 01-.416.139zM68.816 58.477a.855.855 0 01-.324-.092c-.323-.185-.461-.6-.276-.923l11.123-19.847c.184-.323.6-.461.923-.276.323.184.461.6.277.923L69.415 58.108c-.138.23-.369.369-.6.369z" fill="#E9FFB4"/><path d="M39.831 81.83a.71.71 0 01-.692-.692v-1.892a.71.71 0 01.692-.692.71.71 0 01.692.692v1.892a.71.71 0 01-.692.693zM49.938 81.83a.71.71 0 01-.692-.692v-1.892a.71.71 0 01.692-.692.71.71 0 01.693.692v1.892a.71.71 0 01-.693.693zM59.999 81.83a.71.71 0 01-.692-.692v-1.892a.71.71 0 01.692-.692.71.71 0 01.692.692v1.892a.71.71 0 01-.692.693zM70.061 81.83a.71.71 0 01-.692-.692v-1.892a.71.71 0 01.692-.692.71.71 0 01.693.692v1.892a.71.71 0 01-.693.693zM80.122 81.83a.71.71 0 01-.692-.692v-1.892a.71.71 0 01.692-.692.71.71 0 01.692.692v1.892a.71.71 0 01-.692.693zM35.676 75.738h-1.892a.71.71 0 01-.692-.692.71.71 0 01.692-.693h1.892a.71.71 0 01.693.693.71.71 0 01-.693.692zM35.676 65.677h-1.892a.71.71 0 01-.692-.693.71.71 0 01.692-.692h1.892a.71.71 0 01.693.692.71.71 0 01-.693.693zM35.676 55.615h-1.892a.71.71 0 01-.692-.692.71.71 0 01.692-.693h1.892a.71.71 0 01.693.693.71.71 0 01-.693.692zM35.676 45.508h-1.892a.71.71 0 01-.692-.693.71.71 0 01.692-.692h1.892a.71.71 0 01.693.692.71.71 0 01-.693.693z" fill="#CFD8DC"/><path d="M40.707 74.908c-1.43 0-2.585-1.154-2.63-2.585 0-1.476 1.2-2.676 2.63-2.676s2.63 1.2 2.63 2.63c0 1.431-1.2 2.631-2.63 2.631zm0-3.877c-.692 0-1.246.554-1.246 1.246.046.693.6 1.246 1.246 1.246.692 0 1.246-.553 1.246-1.246 0-.692-.554-1.246-1.246-1.246zM54.139 71.585c-1.431 0-2.585-1.108-2.631-2.585 0-1.477 1.2-2.677 2.63-2.677 1.431 0 2.631 1.2 2.631 2.631 0 1.43-1.2 2.63-2.63 2.63zm0-3.877c-.693 0-1.247.554-1.247 1.246.047.692.554 1.246 1.247 1.246.692 0 1.246-.554 1.246-1.246a1.24 1.24 0 00-1.246-1.246zM67.568 61.892c-1.43 0-2.584-1.153-2.63-2.584 0-1.477 1.2-2.677 2.63-2.677 1.431 0 2.631 1.2 2.631 2.63 0 1.431-1.2 2.631-2.63 2.631zm0-3.877c-.692 0-1.246.554-1.246 1.247.046.692.6 1.246 1.246 1.246.693 0 1.246-.554 1.246-1.246a1.24 1.24 0 00-1.246-1.246zM81 38.954c-1.43 0-2.63-1.2-2.63-2.63 0-1.432 1.2-2.632 2.63-2.632s2.63 1.2 2.63 2.631c0 1.43-1.2 2.63-2.63 2.63zm0-3.877a1.24 1.24 0 00-1.246 1.246A1.24 1.24 0 0081 37.57c.692 0 1.246-.553 1.246-1.246 0-.692-.554-1.246-1.246-1.246z" fill="#E9FFB4"/><path d="M79.753 110.862h36.369c3.969 0 4.016-3.323 3.831-5.354-.231-2.308-.923-4.523-2.077-6.508-1.108-1.846-2.446-3.461-3.462-5.4a20.23 20.23 0 01-2.353-7.984l-2.585-22.57c-.277-2.63-.646-5.353-2.308-7.384-2.261-2.77-6.277-3.37-9.83-3.554-3.324-.185-6.831-.139-9.6 1.615-4.108 2.585-5.631 7.339-6.554 12.093-.647 3.277-1.2 7.015-1.616 10.338-.738 5.723-1.707 11.123-2.077 13.292-.6 3.554-2.076 8.493-2.307 12.093-.37 4.246-.693 9.323 4.569 9.323z" fill="#D2FD61"/><path d="M116.123 111.554h-36.37c-1.707 0-3.046-.508-3.923-1.477-1.892-2.077-1.569-5.816-1.338-8.585.138-2.308.784-5.077 1.384-7.754.37-1.569.693-3.092.924-4.384l.184-.97a264.427 264.427 0 001.892-12.276c.324-2.677.877-6.647 1.616-10.385.877-4.615 2.4-9.739 6.877-12.554 2.907-1.846 6.507-1.892 10.015-1.708 3.508.185 7.846.785 10.339 3.785 1.754 2.123 2.169 4.892 2.446 7.754l2.584 22.569c.231 2.77.97 5.354 2.262 7.754.554 1.108 1.246 2.077 1.938 3.092.508.739 1.016 1.477 1.477 2.262a16.53 16.53 0 012.17 6.784c.138 1.431.138 3.462-1.062 4.847-.785.83-1.938 1.246-3.415 1.246zM95.03 52.708c-2.492 0-4.938.323-6.923 1.569-4.015 2.538-5.4 7.292-6.23 11.63-.739 3.693-1.293 7.616-1.616 10.293-.646 4.984-1.477 9.784-1.892 12.323l-.185.97a87.14 87.14 0 01-.923 4.476c-.6 2.63-1.2 5.354-1.385 7.569-.23 2.493-.507 5.954.97 7.523.646.693 1.615 1.062 2.907 1.062h36.37c1.107 0 1.892-.277 2.4-.831.877-.969.83-2.584.738-3.738-.231-2.262-.877-4.339-1.984-6.231-.462-.739-.97-1.477-1.431-2.17-.693-1.015-1.431-2.076-2.031-3.23-1.385-2.539-2.169-5.354-2.446-8.262l-2.585-22.569c-.277-2.677-.646-5.17-2.169-7.015-2.123-2.585-6.092-3.139-9.323-3.323-.739 0-1.477-.046-2.262-.046z" fill="#D2FD61"/><g opacity=".2" fill="#0B175E"><path opacity=".2" d="M75.138 101.538c.047-.462.093-.969.139-1.477 3.23 1.846 7.246 2.954 12.277 3.369 7.892.6 12.461-.831 16.754-2.446a29.332 29.332 0 0010.523-6.646c.969 1.615 2.077 3.046 3.046 4.661a17.271 17.271 0 012.031 6.508c.184 2.077.184 5.354-3.831 5.354h-36.37c-5.215 0-4.892-5.077-4.569-9.323z"/><path opacity=".2" d="M116.076 111.553H79.707c-1.661 0-3-.507-3.877-1.476-1.892-2.031-1.615-5.677-1.384-8.585.046-.462.092-.969.138-1.477a.6.6 0 01.37-.554c.23-.092.46-.092.646 0 3.138 1.8 7.061 2.862 12 3.277 7.753.6 12.184-.785 16.43-2.4 3.831-1.384 7.385-3.646 10.293-6.508.138-.138.369-.23.553-.184.231.046.416.138.508.323.462.785 1.015 1.57 1.523 2.308.508.738 1.062 1.523 1.523 2.353 1.154 2.17 1.893 4.431 2.123 6.785.139 1.569.139 3.508-1.061 4.846-.739.877-1.893 1.292-3.416 1.292zm-40.246-9.969c-.184 2.677-.461 5.954 1.016 7.569.646.693 1.569 1.016 2.861 1.016h36.369c1.108 0 1.939-.277 2.447-.831.83-.923.83-2.492.692-3.785a16.625 16.625 0 00-1.939-6.23c-.461-.785-.969-1.523-1.477-2.262-.369-.508-.738-1.061-1.107-1.615a29.482 29.482 0 01-10.154 6.184c-4.385 1.662-9.046 3.093-17.03 2.493-4.662-.37-8.493-1.339-11.632-2.954 0 .138-.046.277-.046.415z"/></g><path d="M95.493 65.63c-.508 0-.97-.045-1.385-.184a.688.688 0 11.323-1.338c.6.138 1.339.184 2.031.046.646-.138 1.292-.415 1.754-.83.277-.232.738-.232.969.092.23.276.23.738-.092.969a4.813 4.813 0 01-2.4 1.107c-.416.093-.831.139-1.2.139z" fill="#136D09"/><path fill-rule="evenodd" clip-rule="evenodd" d="M89.86 60.6c0-.277-.092-.554-.23-.785a1.276 1.276 0 00-.6-.507c-.231-.093-.508-.139-.785-.093-.277.046-.508.185-.738.37a1.738 1.738 0 00-.416.692c-.092.277-.046.554.047.785.092.276.276.461.461.646.23.138.462.23.739.277.184 0 .369 0 .553-.093.185-.046.323-.184.462-.277.138-.092.23-.277.323-.461a.887.887 0 00.185-.554zM104.491 61.108c0-.277-.046-.554-.23-.785a1.282 1.282 0 00-.6-.508c-.231-.092-.508-.138-.785-.092-.277.046-.508.185-.738.37a1.731 1.731 0 00-.416.692c-.092.277-.046.554.046.784.093.277.277.462.462.646.231.139.461.231.738.277.185 0 .37 0 .554-.092a.96.96 0 00.462-.277 1.66 1.66 0 00.323-.461c.138-.231.184-.416.184-.554z" fill="#136D09"/><path d="M99.646 65.446a.857.857 0 01-.323-.092 3.028 3.028 0 01-1.247-1.154c-.323-.462-.507-1.015-.553-1.662a.654.654 0 01.646-.738c.369-.046.738.23.738.646.046.416.139.692.37 1.016.184.276.461.507.784.692.323.184.462.6.277.923-.231.23-.462.37-.692.37zM86.677 56.03a.658.658 0 01-.554-.276.716.716 0 01.138-.97 3.166 3.166 0 011.339-.6 4.479 4.479 0 011.57 0 .688.688 0 11-.324 1.339 1.571 1.571 0 00-.923 0c-.277.046-.6.184-.877.415a.869.869 0 01-.37.093zM105.184 56.308a.66.66 0 01-.461-.184c-.185-.185-.416-.277-.785-.37a1.57 1.57 0 00-.923 0 .689.689 0 11-.323-1.338 4.478 4.478 0 011.569 0c.416.092.923.23 1.431.646.277.23.323.692.092.97-.23.184-.415.276-.6.276z" fill="#136D09"/><path d="M121.154 112.477H67.708a.71.71 0 01-.692-.692.71.71 0 01.692-.692h53.446a.71.71 0 01.692.692.71.71 0 01-.692.692z" fill="#CFD8DC"/><path d="M80.26 78.646s-2.584-.646-3.645-1.339c-1.2-.83-2.123-2.03-2.539-3.415-.461-1.57-.692-6.785-1.2-7.754-.6-1.154-1.661-.83-2.03-.323-.693.97-.6 2.4-.647 3.6-1.477.046-2.723.415-3.507 1.8-.739 1.292-.739 2.862-.739 4.338 0 6.277 1.892 8.677 4.062 11.262 1.938 2.262 4.754 4.523 7.2 6.185" fill="#D2FD61"/><path d="M77.216 93.692a.524.524 0 01-.37-.138c-2.954-1.985-5.63-4.293-7.338-6.323-2.077-2.493-4.246-5.031-4.246-11.723 0-1.523 0-3.231.83-4.662.877-1.523 2.216-1.984 3.416-2.123 0-1.108.046-2.4.738-3.37a1.866 1.866 0 011.616-.738c.369.047 1.107.231 1.569 1.154.323.6.508 2.03.738 4.292.139 1.431.324 2.908.508 3.6.37 1.2 1.154 2.262 2.262 3.047.784.507 2.723 1.061 3.415 1.246a.688.688 0 11-.323 1.338c-.277-.046-2.723-.692-3.877-1.43-1.385-.97-2.354-2.308-2.815-3.785-.231-.785-.416-2.262-.554-3.83-.139-1.432-.37-3.416-.6-3.785-.093-.185-.231-.416-.462-.416a.585.585 0 00-.415.185c-.462.646-.462 1.661-.508 2.63v.6c0 .37-.323.647-.692.647-1.523.046-2.354.461-2.908 1.43-.646 1.154-.646 2.585-.646 4.016 0 6.184 1.892 8.446 3.877 10.8 1.662 1.938 4.2 4.108 7.062 6.046.323.23.415.646.184.97 0 .23-.23.322-.461.322z" fill="#D2FD61"/></svg>