<svg width="94" height="102" fill="none" xmlns="http://www.w3.org/2000/svg"><path d="M67.566 81.958a8.69 8.69 0 004.147-.293 3.706 3.706 0 001.866-1.172 1.783 1.783 0 00.114-2.083c-.44-.59-1.914-.777-2.254-.111 1.324-1.408 2.276-3.295 3.128-5.04.767-1.572.088-3.583-1.57-4.84-1.66-1.257-8.237-.528-10.861.355l.767 8.53 4.663 4.654z" fill="#FF89C2"/><path fill-rule="evenodd" clip-rule="evenodd" d="M71.086 67.028c.923.098 1.82.303 2.4.742 1.866 1.41 2.767 3.786 1.8 5.76-.603 1.234-1.28 2.59-2.122 3.814.136.036.27.082.397.137.275.12.564.306.77.58l.027.04a2.492 2.492 0 01-.173 2.927 4.453 4.453 0 01-2.223 1.4 9.543 9.543 0 01-4.529.315.674.674 0 01-.36-.187l-4.751-4.731a.679.679 0 01-.197-.42l-.782-8.672a.677.677 0 01.457-.703c1.412-.475 3.82-.89 6.075-1.03 1.133-.07 2.253-.073 3.21.028zm.176 10.577a1.309 1.309 0 00-.368.441.68.68 0 00.21.862.672.672 0 00.88-.087c.054-.057.107-.115.16-.174l.012-.004c.087-.03.224-.049.395-.035.167.013.334.055.471.115.124.054.19.108.22.14a1.133 1.133 0 01-.085 1.288 3.105 3.105 0 01-1.59.981 8.202 8.202 0 01-3.699.309l-4.422-4.404-.71-7.877c1.312-.365 3.304-.69 5.222-.809 1.089-.067 2.128-.067 2.986.024.893.095 1.466.276 1.731.477 1.515 1.145 2 2.859 1.401 4.08-.813 1.664-1.676 3.361-2.814 4.673zm.824 1.072l-.002.002.002-.002z" fill="#FF89C2"/><path d="M35.661 68.833c-3.896.05-7.77-.573-11.445-1.841.093-.642.182-1.284.271-1.925.09-.642.138-1.44-.378-1.864a1.355 1.355 0 00-1.656.096c-.441.4-.768.905-.948 1.467a20.077 20.077 0 00-.7 2.618l-.19-.03c-1.19-.183-2.672-.245-3.304.75-.2.37-.323.775-.36 1.192-.357 2.313-.504 3.985 1.335 5.49a6.704 6.704 0 002.293 1.088 68.35 68.35 0 0015.27 3.024l-.188-10.065z" fill="#FF89C2"/><path fill-rule="evenodd" clip-rule="evenodd" d="M22.906 62.173a1.917 1.917 0 011.279.392c.425.364.582.864.633 1.295.051.427.007.864-.038 1.2-.062.471-.125.943-.19 1.415a30.989 30.989 0 0010.417 1.658.657.657 0 01.659.654l.182 10.23a.673.673 0 01-.206.498.641.641 0 01-.498.178 64.727 64.727 0 01-14.998-3.1 7.054 7.054 0 01-2.465-1.232c-1.01-.864-1.505-1.812-1.676-2.887-.163-1.022-.023-2.129.147-3.285a3.905 3.905 0 01.445-1.483c.446-.734 1.175-1.034 1.862-1.137.526-.08 1.08-.053 1.58.008.156-.716.348-1.423.574-2.119.21-.678.59-1.29 1.1-1.773l.009-.008c.328-.3.745-.477 1.184-.504zm-2.355 5.153l-.104.657-.185-.031c-.56-.09-1.13-.14-1.614-.066-.467.07-.765.239-.936.506a2.55 2.55 0 00-.271.976c-.176 1.189-.279 2.1-.153 2.893.118.74.443 1.404 1.214 2.067a5.766 5.766 0 002.03.994 63.464 63.464 0 0014.002 2.979l-.157-8.835a32.276 32.276 0 01-10.721-1.912.667.667 0 01-.428-.722c.09-.65.177-1.3.264-1.952.042-.315.065-.61.035-.86-.026-.226-.088-.347-.158-.416a.64.64 0 00-.777.062 2.78 2.78 0 00-.74 1.198l-.003.01a20.466 20.466 0 00-.66 2.577l-.638-.125z" fill="#FF89C2"/><path fill-rule="evenodd" clip-rule="evenodd" d="M20.091 66.73c.035-.35.366-.607.74-.575.672.059 1.327.23 1.933.507a.67.67 0 01.068.035 3.628 3.628 0 011.646 2.097c.218.67.267 1.559.17 2.389-.096.824-.349 1.716-.844 2.324l-.002.002a3.86 3.86 0 01-1.895 1.24 4.105 4.105 0 01-2.312 0c-.358-.105-.557-.462-.444-.797.112-.335.494-.52.852-.415.487.143 1.009.143 1.496 0a2.498 2.498 0 001.225-.801c.274-.338.488-.957.573-1.69.084-.723.03-1.433-.12-1.889a2.344 2.344 0 00-1.043-1.37c-.45-.199-.933-.323-1.429-.366-.373-.033-.648-.342-.613-.692z" fill="#670A6F"/><path fill-rule="evenodd" clip-rule="evenodd" d="M21.502 71.668a9.616 9.616 0 00-3.27 0c-.336.058-.649-.203-.7-.584-.05-.38.18-.735.515-.793a10.696 10.696 0 013.615-.004c.768.067 1.492.434 2.048 1.04a.764.764 0 01.017.985.564.564 0 01-.868.02 1.985 1.985 0 00-1.357-.664zM23.04 70.096a8.978 8.978 0 00-4.744-.302c-.335.07-.672-.106-.753-.392-.081-.286.124-.574.46-.643 1.833-.38 3.76-.258 5.507.35.319.112.472.422.342.695-.13.272-.494.403-.813.292z" fill="#670A6F"/><path d="M31.068 89.628c0-10.399 1.229-17.259 2.853-24.93 1.625-7.67 3.598-12.866 5.105-15.363a8.003 8.003 0 017.54-3.866c3.79.253 9.791 2.85 12.37 5.64 2.579 2.79 2.544 6.537 2.448 10.347a59.872 59.872 0 00.174 7.596c.383 3.661 1.56 6.712 4.3 10.282 1.624 2.122 3.715 4.794 5.226 6.973 2.505 3.565 2.374 6.751 1.995 9.397a5.462 5.462 0 01-5.466 4.702H36.252c-3.424-.021-5.184-4.676-5.184-10.778z" fill="#FF89C2"/><path fill-rule="evenodd" clip-rule="evenodd" d="M46.473 45.984a7.402 7.402 0 00-6.97 3.569v.002c-1.462 2.418-3.43 7.556-5.059 15.238-1.63 7.687-2.857 14.532-2.857 24.92 0 3.017.438 5.617 1.258 7.438.82 1.821 1.947 2.728 3.304 2.738H67.72a4.838 4.838 0 004.844-4.16v-.003c.371-2.584.488-5.587-1.895-8.973l-.002-.003c-1.239-1.784-2.868-3.9-4.321-5.786-.318-.412-.627-.813-.922-1.198m-4.638-18.39c.098-3.877.096-7.356-2.29-9.932-1.212-1.31-3.28-2.619-5.554-3.637-2.27-1.016-4.655-1.702-6.458-1.822h-.012m.105-1.31a8.719 8.719 0 00-8.202 4.202c-1.573 2.602-3.577 7.906-5.218 15.643-1.64 7.732-2.887 14.677-2.887 25.193 0 3.116.448 5.922 1.375 7.978.926 2.056 2.408 3.499 4.496 3.512H67.71a6.145 6.145 0 006.157-5.292c.393-2.733.539-6.133-2.12-9.912-1.259-1.813-2.914-3.961-4.366-5.847l-.912-1.185v-.001c-2.688-3.497-3.822-6.449-4.195-9.996a59.443 59.443 0 01-.172-7.546v-.01c.095-3.778.166-7.832-2.639-10.862-1.383-1.494-3.633-2.892-5.983-3.944-2.351-1.052-4.891-1.798-6.902-1.933z" fill="#FF89C2"/><path opacity=".2" d="M35.246 93.35c1.822.383 3.662.671 5.514.865 5.781.501 11.628-.908 16.863-3.386 4.072-1.924 7.795-4.475 11.422-7.151.721.947 1.42 1.88 2.032 2.741 2.513 3.537 2.381 6.698 2.001 9.322a5.402 5.402 0 01-1.852 3.356 5.509 5.509 0 01-3.632 1.309H36.133c-2.889 0-4.593-3.26-5.065-7.886 1.381.29 2.78.558 4.178.83z" fill="#670A6F"/><path opacity=".2" fill-rule="evenodd" clip-rule="evenodd" d="M68.857 83.012a.64.64 0 01.905.132c.713.964 1.41 1.92 2.02 2.804 2.62 3.792 2.475 7.204 2.09 9.946a6.197 6.197 0 01-2.05 3.819 5.997 5.997 0 01-4.015 1.49H36.721c-1.722 0-3.04-1.017-3.953-2.564-.905-1.532-1.458-3.644-1.696-6.045a.666.666 0 01.212-.557.64.64 0 01.566-.154c1.159.25 2.33.484 3.507.72.204.04.408.08.612.122l.01.002a51.68 51.68 0 005.377.867c5.57.496 11.228-.9 16.321-3.38 3.967-1.927 7.604-4.488 11.18-7.202zm.256 1.449c-3.432 2.585-6.99 5.054-10.877 6.943-5.25 2.556-11.145 4.026-17 3.503h-.01a52.945 52.945 0 01-5.512-.89l-.605-.12c-.88-.177-1.764-.353-2.642-.537.265 1.898.746 3.473 1.411 4.6.759 1.285 1.71 1.925 2.843 1.925h31.097a4.714 4.714 0 003.159-1.172 4.872 4.872 0 001.611-3.003v-.002c.366-2.592.48-5.605-1.866-9.002a96.953 96.953 0 00-1.609-2.245z" fill="#670A6F"/><path fill-rule="evenodd" clip-rule="evenodd" d="M42.973 53.78a1.594 1.594 0 10-3.1-.746 1.594 1.594 0 003.1.746zM54.934 56.967a2.102 2.102 0 00-.04-.921 1.632 1.632 0 00-.416-.738 1.025 1.025 0 00-.652-.306.972.972 0 00-.67.226c-.202.163-.364.4-.464.685-.101.284-.136.602-.102.913.034.31.137.601.294.835.158.233.364.4.593.477a.908.908 0 00.469.03c.156-.03.306-.102.442-.211.135-.109.253-.252.347-.422.094-.17.161-.363.199-.568zM40.628 49.393a.774.774 0 01.783-.766l1.65.031a.775.775 0 01.753.796.774.774 0 01-.782.766l-1.65-.031a.775.775 0 01-.754-.796zM53.407 51.661c.127-.48.567-.751.982-.604l1.614.57c.415.146.649.655.522 1.135s-.566.751-.981.605l-1.614-.57c-.415-.147-.65-.655-.523-1.136zM45.38 53.416c.346.061.579.404.52.767-.067.42.028.852.263 1.2.236.347.594.582.995.654a1.48 1.48 0 001.144-.275 1.62 1.62 0 00.624-1.043.638.638 0 01.732-.545c.346.062.578.405.52.768a2.96 2.96 0 01-1.14 1.904 2.705 2.705 0 01-2.092.503l.106-.656-.106.656a2.792 2.792 0 01-1.817-1.196 3.052 3.052 0 01-.48-2.192.638.638 0 01.731-.545zM66.862 74.651a.677.677 0 01-.5.805l-.344.078c.613 1.851 1.879 4.5 3.841 6.145.281.236.324.662.097.952a.64.64 0 01-.921.1c-2.525-2.116-3.954-5.578-4.485-7.517a.697.697 0 01.069-.532.656.656 0 01.422-.313l1.043-.235a.655.655 0 01.778.517z" fill="#670A6F"/><path fill-rule="evenodd" clip-rule="evenodd" d="M24.807 21.829a.667.667 0 01.914-.177l64.8 42.522c.303.198.384.599.181.895a.667.667 0 01-.913.178L24.988 22.725a.638.638 0 01-.181-.896zM9.368 31.103a.646.646 0 01.675.617l3.498 64.81a.65.65 0 01-.604.69.646.646 0 01-.675-.618l-3.498-64.81a.65.65 0 01.604-.69z" fill="#CFD8DC"/><path fill-rule="evenodd" clip-rule="evenodd" d="M8.161.044c.395.064.66.413.591.78l-.938 5.024c-.069.367-.444.612-.84.549-.394-.064-.659-.413-.59-.78L7.322.593c.069-.367.444-.613.84-.549z" fill="#670A6F"/><path fill-rule="evenodd" clip-rule="evenodd" d="M11.47 4.64a2.23 2.23 0 00-1.715.19l-.003.001-7.26 3.984c-.261.144-.492.34-.68.574a2.314 2.314 0 00-.492 1.69c.031.301.12.593.263.858v.002l6.496 12.18c2.277.27 4.583-.16 6.62-1.235a11.577 11.577 0 004.626-4.962L12.817 5.73a2.268 2.268 0 00-1.347-1.09zm-2.34-.977a3.52 3.52 0 012.705-.299 3.58 3.58 0 012.127 1.725l.003.006 6.668 12.492a.673.673 0 01.019.594 12.904 12.904 0 01-5.339 5.875 12.614 12.614 0 01-7.743 1.335.654.654 0 01-.481-.341L.434 12.572a3.672 3.672 0 01.362-4.019c.296-.37.66-.678 1.073-.906l7.26-3.983z" fill="#670A6F"/><path fill-rule="evenodd" clip-rule="evenodd" d="M16.131.044c.393.06.656.394.587.745l-2.54 13.05c-.068.35-.441.585-.834.524-.392-.06-.655-.394-.587-.745l2.54-13.05c.068-.35.441-.585.834-.524zM19.04 16.455a.661.661 0 01.816-.464l5.814 1.641a1.929 1.929 0 011.166.923 1.966 1.966 0 01.178 1.483v.002l-1.507 5.523c-.139.498-.468.92-.914 1.173a1.92 1.92 0 01-1.466.182L16.1 24.964l-1.952 7.15-.003.012a1.91 1.91 0 01-.91 1.136 1.872 1.872 0 01-1.43.152l-4.85-1.336h-.002a1.873 1.873 0 01-1.135-.897 1.914 1.914 0 01-.174-1.443l1.444-5.271A.661.661 0 017.903 24a.67.67 0 01.462.823l-1.444 5.272v.001a.567.567 0 00.193.594.555.555 0 00.193.098h.001l4.853 1.338c.006 0 .01.002.016.004a.556.556 0 00.697-.378L15 23.963a.662.662 0 01.814-.467l7.664 2.132a.609.609 0 00.754-.427v-.002l1.505-5.517v-.002a.62.62 0 00-.21-.65.606.606 0 00-.212-.11L19.5 17.28a.67.67 0 01-.46-.825zM10.232 7.486a.635.635 0 01-.174.913 25.952 25.952 0 01-3.487 1.926.711.711 0 01-.926-.307.642.642 0 01.324-.876A24.543 24.543 0 009.267 7.32a.718.718 0 01.965.165z" fill="#670A6F"/><path fill-rule="evenodd" clip-rule="evenodd" d="M27.882 101.602c0-.22.293-.399.655-.399h64.808c.362 0 .656.179.656.399 0 .22-.294.398-.656.398H28.538c-.363 0-.656-.178-.656-.398zM30.284 22.031c.071-.324.442-.539.828-.479l2.56.399c.387.06.642.372.57.696-.071.324-.442.539-.828.479l-2.56-.399c-.387-.06-.642-.372-.57-.696zM34.243 18.057c.069.329-.189.642-.575.7l-2.562.386c-.386.058-.755-.16-.824-.489-.068-.328.19-.64.576-.7l2.562-.385c.386-.058.755.16.823.488zM6.296 35.1a.699.699 0 01.827.527c.109.511.025 1.044-.238 1.5a.71.71 0 01-.951.26.67.67 0 01-.269-.925.788.788 0 00.089-.559.68.68 0 01.542-.804zM4.612 33.653a.557.557 0 01.005.79l-1.264 1.272a.565.565 0 01-.796.005.557.557 0 01-.005-.79l1.264-1.272a.565.565 0 01.796-.005z" fill="#CFD8DC"/></svg>