<svg width="140" height="120" fill="none" xmlns="http://www.w3.org/2000/svg"><path d="M85.008 98.63c0-2.215.877-4.338 2.446-5.861a8.322 8.322 0 015.862-2.446c.554 0 1.108.046 1.661.184-.877-2.953-1.8-5.861-2.677-8.815-.646-2.077-1.292-4.2-2.4-6.092-1.107-1.893-2.769-3.508-4.846-4.2a11.617 11.617 0 00-3.092-.416c-5.17-.092-10.523 1.108-12.692 5.262-1.616 3.092-1.523 8.123-1.477 14.03 0 2.862.138 6.278.277 9.047a20.238 20.238 0 008.446 2.584c2.954.231 5.954-.138 8.769-1.153a7.876 7.876 0 01-.277-2.124z" fill="#13C1AC"/><path fill-rule="evenodd" clip-rule="evenodd" d="M81.967 70.292a12.306 12.306 0 013.305.45c2.278.76 4.058 2.514 5.225 4.508 1.12 1.912 1.781 4.041 2.404 6.045l.06.191.002.009c.437 1.473.887 2.936 1.337 4.401v.002c.45 1.465.9 2.932 1.34 4.412a.692.692 0 01-.832.869 6.11 6.11 0 00-1.493-.164 7.63 7.63 0 00-5.372 2.243l-.008.008c-1.43 1.388-2.236 3.33-2.236 5.364 0 .685.086 1.358.25 1.933.1.35-.088.718-.43.842-2.913 1.05-6.012 1.431-9.058 1.193a20.949 20.949 0 01-8.736-2.674.692.692 0 01-.348-.567c-.138-2.77-.277-6.199-.278-9.078a890.31 890.31 0 00-.004-.545c-.022-2.738-.043-5.312.122-7.579.175-2.41.563-4.555 1.438-6.23 1.188-2.274 3.234-3.706 5.601-4.554 2.36-.845 5.08-1.125 7.711-1.079zm-7.244 2.382c-2.144.768-3.86 2.013-4.84 3.892-.742 1.418-1.114 3.334-1.285 5.69-.16 2.208-.14 4.729-.118 7.487l.004.528v.006c0 2.713.125 5.935.257 8.628a19.575 19.575 0 007.828 2.312c2.657.208 5.35-.086 7.898-.915a9.04 9.04 0 01-.152-1.672c0-2.394.947-4.697 2.652-6.354A9.015 9.015 0 0194 89.655c-.337-1.12-.68-2.235-1.023-3.352V86.3c-.45-1.463-.9-2.93-1.339-4.408a62.256 62.256 0 00-.04-.127c-.637-2.048-1.257-4.043-2.295-5.817-1.045-1.785-2.582-3.258-4.45-3.886a10.92 10.92 0 00-2.891-.386h-.012c-2.536-.046-5.076.228-7.226.997z" fill="#13C1AC"/><path opacity=".2" d="M93.315 90.323c.554 0 1.108.046 1.661.184l-.784-2.584c-.739.877-1.523 1.754-2.354 2.538a8.384 8.384 0 011.477-.138z" fill="#04413C"/><path opacity=".2" fill-rule="evenodd" clip-rule="evenodd" d="M94.35 87.152c.282.058.51.266.595.542l.784 2.585a.787.787 0 01-.944.992 6.015 6.015 0 00-1.47-.161c-.412 0-.872.041-1.337.125a.787.787 0 01-.68-1.346c.8-.755 1.562-1.607 2.292-2.473a.787.787 0 01.76-.264zm-.53 2.397l.044.002-.012-.038-.032.036z" fill="#04413C"/><path opacity=".2" d="M85.008 98.63c0-1.291.323-2.538.877-3.691a27.198 27.198 0 01-4.985 2.307 22.292 22.292 0 01-12.877.646c0 .508.047 1.016.093 1.477a20.26 20.26 0 008.446 2.585c2.954.231 5.954-.139 8.77-1.154-.232-.692-.324-1.43-.324-2.17z" fill="#04413C"/><path opacity=".2" fill-rule="evenodd" clip-rule="evenodd" d="M86.417 94.359a.787.787 0 01.177.92c-.51 1.062-.8 2.192-.8 3.352 0 .675.085 1.326.284 1.92a.787.787 0 01-.48.989c-2.926 1.055-6.038 1.437-9.098 1.198a21.032 21.032 0 01-8.775-2.686.786.786 0 01-.392-.605 15.688 15.688 0 01-.097-1.555.787.787 0 01.978-.763 21.505 21.505 0 0012.422-.625l.01-.003a26.411 26.411 0 004.84-2.241.787.787 0 01.931.099zm-5.258 3.63a23.11 23.11 0 01-12.287.9 19.49 19.49 0 007.751 2.28c2.61.204 5.253-.078 7.759-.878a8.218 8.218 0 01-.161-1.66c0-.692.084-1.369.239-2.025-1.061.528-2.161.993-3.3 1.383z" fill="#04413C"/><path fill-rule="evenodd" clip-rule="evenodd" d="M90.85 65.71c-3.615-2.902-8.165-4.507-12.845-4.418h-.007c-4.679.045-9.183 1.783-12.708 4.817-3.571 3.08-5.934 7.274-6.692 11.866A20.075 20.075 0 0061.05 91.36a20.096 20.096 0 0010.44 8.744c4.416 1.605 9.189 1.606 13.608.044a.692.692 0 11.462 1.305c-4.719 1.668-9.822 1.669-14.544-.048l-.002-.001a21.48 21.48 0 01-11.16-9.348 21.46 21.46 0 01-2.623-14.307c.811-4.916 3.34-9.4 7.154-12.688 3.767-3.243 8.584-5.105 13.596-5.153 5.011-.095 9.875 1.624 13.735 4.721l.001.001c3.913 3.15 6.536 7.54 7.537 12.447 1.002 4.915.237 9.972-2.146 14.405a.692.692 0 01-1.22-.656c2.233-4.151 2.945-8.88 2.009-13.472-.938-4.6-3.392-8.702-7.047-11.645z" fill="#13C1AC"/><path fill-rule="evenodd" clip-rule="evenodd" d="M73.1 79.016c0-.277-.047-.508-.185-.739-.139-.23-.323-.415-.6-.507-.231-.093-.508-.139-.739-.093a1.605 1.605 0 00-.692.323 1.315 1.315 0 00-.37.647c-.045.276-.045.507.047.784a1.5 1.5 0 00.461.6c.231.139.462.23.739.23.37 0 .692-.138.923-.368.277-.231.415-.554.415-.877zM86.9 79.338c0-.277-.046-.508-.184-.738-.139-.231-.324-.416-.6-.508-.231-.092-.508-.139-.739-.092a1.606 1.606 0 00-.692.323c-.185.138-.323.415-.37.646-.046.277-.046.508.047.784.092.231.276.462.461.6.23.139.462.231.739.231.369 0 .692-.138.923-.37.277-.184.415-.507.415-.876z" fill="#04413C"/><path d="M74.76 79.061l7.432.185-.046 1.985c-.047.969-.462 1.938-1.154 2.584a3.545 3.545 0 01-2.677 1.016c-.97-.046-1.939-.462-2.585-1.154A3.544 3.544 0 0174.715 81l.046-1.939z" fill="#04413C"/><path fill-rule="evenodd" clip-rule="evenodd" d="M74.218 78.492a.787.787 0 01.562-.217l7.431.184c.434.011.777.371.767.805l-.046 1.985v.019c-.055 1.149-.543 2.314-1.394 3.113a4.332 4.332 0 01-3.26 1.236c-1.15-.055-2.315-.543-3.114-1.393a4.331 4.331 0 01-1.236-3.251l.046-1.93a.787.787 0 01.244-.552zm1.31 1.376l-.027 1.15v.017a2.758 2.758 0 00.804 2.105c.493.528 1.261.867 2.046.904a2.758 2.758 0 002.104-.804c.525-.49.864-1.256.904-2.038l.028-1.189-5.858-.145z" fill="#04413C"/><path d="M82.055 82.016a3.942 3.942 0 00-1.708-.831 4.36 4.36 0 00-1.892 0c-.6.138-1.2.461-1.662.877-.507.415-.877.97-1.108 1.523.324.37.739.692 1.2.923.462.23.97.323 1.477.323.831 0 1.662-.23 2.354-.785a3.46 3.46 0 001.339-2.03z" fill="#13C1AC"/><path fill-rule="evenodd" clip-rule="evenodd" d="M78.278 80.418a5.147 5.147 0 012.234-.003 4.727 4.727 0 012.04.991c.23.189.335.49.27.78a4.248 4.248 0 01-1.631 2.488c-.852.675-1.859.944-2.829.944-.6 0-1.234-.11-1.828-.406a4.756 4.756 0 01-1.44-1.11.787.787 0 01-.135-.82 4.717 4.717 0 011.321-1.818 4.646 4.646 0 011.998-1.046zm1.904 1.536a3.574 3.574 0 00-1.55-.002 3.072 3.072 0 00-1.34.719 2.956 2.956 0 00-.644.752c.18.146.378.275.59.38.328.166.71.24 1.124.24.686 0 1.334-.188 1.863-.611a2.667 2.667 0 00.904-1.109 3.092 3.092 0 00-.947-.369z" fill="#04413C"/><path fill-rule="evenodd" clip-rule="evenodd" d="M84.778 99.09c.002-4.95 4.05-8.997 9-8.997 4.949 0 9 4 9 9 0 4.949-4 9-9 9-4.993 0-9.048-4.044-9-9.004zm9-7.613c-4.187 0-7.616 3.429-7.616 7.616v.007c-.042 4.177 3.379 7.608 7.616 7.608a7.61 7.61 0 007.615-7.615 7.61 7.61 0 00-7.615-7.616z" fill="#CFD8DC"/><path d="M97.977 97.2c-.23-.323-.508-.6-.877-.739-.37-.184-.738-.276-1.108-.23-.784.046-1.569.6-2.123 1.107-.415-.646-.923-1.477-1.661-1.753a2.42 2.42 0 00-1.154-.139c-.37.046-.739.23-1.062.462-.23.23-.461.507-.553.784a2.41 2.41 0 00-.185.97c0 .646.184 1.338.508 1.892.692 1.477 2.03 2.723 3.092 3.923 1.43-.785 3.092-1.569 4.2-2.769a4.469 4.469 0 001.061-1.662 3.51 3.51 0 00.139-.97 3.217 3.217 0 00-.277-.876z" fill="#FD6C67"/><path fill-rule="evenodd" clip-rule="evenodd" d="M90.978 94.758c.52-.058 1 0 1.474.178.529.199.933.577 1.239.942.12.142.231.292.335.44.53-.382 1.193-.729 1.904-.777.524-.06 1.014.073 1.45.286.532.21.898.602 1.161.97.021.03.04.06.056.093.176.351.286.743.34 1.073.007.038.01.076.01.114a4.204 4.204 0 01-.179 1.202 5.153 5.153 0 01-1.214 1.908c-1.03 1.111-2.493 1.893-3.746 2.562-.214.115-.422.226-.62.335a.692.692 0 01-.852-.149c-.2-.225-.433-.478-.677-.741-.34-.368-.7-.758-1.014-1.124-.564-.658-1.112-1.385-1.496-2.195a4.568 4.568 0 01-.587-2.214c0-.383.055-.795.23-1.217.152-.428.476-.79.712-1.026a.699.699 0 01.087-.074c.372-.266.85-.52 1.378-.585l.01-.001zm.158 1.375c-.198.026-.44.13-.694.305-.195.202-.31.367-.346.473a.725.725 0 01-.02.054 1.721 1.721 0 00-.129.696c0 .526.153 1.098.413 1.544l.03.055c.307.656.768 1.281 1.306 1.908.32.373.625.703.936 1.037l.372.403.192-.103c1.267-.68 2.492-1.338 3.35-2.267l.02-.02c.39-.39.697-.851.89-1.384.066-.236.101-.47.106-.7a2.56 2.56 0 00-.18-.577c-.18-.242-.348-.382-.524-.448a.665.665 0 01-.067-.028c-.289-.145-.519-.188-.712-.163a.684.684 0 01-.045.004c-.53.03-1.16.435-1.696.927a.693.693 0 01-1.05-.136l-.05-.079a8.4 8.4 0 00-.608-.866c-.236-.282-.455-.457-.664-.535a1.728 1.728 0 00-.83-.1z" fill="#FD6C67"/><path d="M50.808 48.462c0-2.031.739-4.016 2.077-5.539 1.339-1.523 3.23-2.492 5.262-2.723-.231-1.8-.554-3.6-1.016-5.354-.923-3.507-2.4-7.061-5.307-9.23-3-2.216-7.154-2.493-10.708-1.247-2.03.646-3.785 1.939-5.03 3.6-1.247 1.754-1.755 3.923-2.355 5.954a53.393 53.393 0 01-5.077 11.816 20.801 20.801 0 0010.523 7.384c4.2 1.292 8.723 1.154 12.877-.277a8.194 8.194 0 01-1.246-4.384z" fill="#D2FD61"/><path fill-rule="evenodd" clip-rule="evenodd" d="M40.895 23.712c3.72-1.3 8.12-1.031 11.339 1.346l.002.002c3.104 2.315 4.631 6.065 5.564 9.61.47 1.789.799 3.62 1.032 5.442a.692.692 0 01-.608.776c-1.865.212-3.598 1.102-4.82 2.492a7.724 7.724 0 00-1.905 5.081c0 1.442.38 2.792 1.142 4.02a.693.693 0 01-.362 1.02c-4.286 1.476-8.96 1.62-13.306.283a21.493 21.493 0 01-10.874-7.63.692.692 0 01-.045-.763 52.697 52.697 0 005.012-11.662v-.002l.232-.8c.507-1.775 1.067-3.735 2.222-5.36a.655.655 0 01.01-.014c1.327-1.768 3.195-3.148 5.365-3.84zm10.515 2.459c-2.778-2.05-6.68-2.336-10.066-1.149a.72.72 0 01-.02.007c-1.883.6-3.517 1.8-4.68 3.348-1.003 1.414-1.493 3.117-2.007 4.906-.08.276-.16.555-.243.835a54.044 54.044 0 01-4.91 11.565 20.116 20.116 0 009.896 6.778c3.79 1.166 7.858 1.127 11.659-.015a8.883 8.883 0 01-.924-3.985c0-2.196.798-4.344 2.249-5.995a8.924 8.924 0 015.005-2.847 40.246 40.246 0 00-.908-4.597c-.914-3.47-2.34-6.828-5.051-8.851z" fill="#D2FD61"/><path opacity=".2" d="M50.807 48.877c-6.276-1.339-11.861-4.108-17.169-7.708a7.3 7.3 0 00-2.169-1.062c-.83 1.939-1.8 3.831-2.862 5.631a20.801 20.801 0 0010.523 7.385c4.2 1.292 8.724 1.154 12.877-.277-.692-1.2-1.153-2.539-1.2-3.97z" fill="#136D09"/><path opacity=".2" fill-rule="evenodd" clip-rule="evenodd" d="M30.834 39.835a.692.692 0 01.831-.392c.86.253 1.665.656 2.37 1.158 5.255 3.563 10.755 6.285 16.918 7.599a.692.692 0 01.547.654c.042 1.294.46 2.522 1.108 3.646a.692.692 0 01-.374 1c-4.286 1.477-8.96 1.622-13.306.285a21.493 21.493 0 01-10.873-7.631.692.692 0 01-.043-.768 48.877 48.877 0 002.822-5.551zm1.014 1.136a50.4 50.4 0 01-2.407 4.715 20.118 20.118 0 009.894 6.775c3.796 1.168 7.872 1.127 11.678-.02a9.043 9.043 0 01-.86-3c-6.181-1.4-11.688-4.162-16.902-7.7a6.677 6.677 0 00-1.402-.771z" fill="#136D09"/><path fill-rule="evenodd" clip-rule="evenodd" d="M56.866 17.04a20.154 20.154 0 00-12.895-3.703 19.987 19.987 0 00-12.356 5.264c-3.388 3.121-5.575 7.313-6.245 11.866-.625 4.553.314 9.238 2.676 13.16l.002.003a19.855 19.855 0 0010.348 8.519c4.325 1.56 9.1 1.56 13.428.044a.692.692 0 11.458 1.306c-4.625 1.622-9.727 1.622-14.356-.048a21.24 21.24 0 01-11.067-9.11c-2.528-4.2-3.528-9.205-2.86-14.066v-.007c.715-4.861 3.051-9.345 6.678-12.685a21.371 21.371 0 0113.213-5.628 21.539 21.539 0 0113.781 3.958c4.01 2.865 6.871 7.063 8.158 11.782v.001a21.156 21.156 0 01-1.145 14.312.692.692 0 01-1.261-.57 19.772 19.772 0 001.07-13.38c-1.206-4.42-3.883-8.344-7.627-11.018z" fill="#D2FD61"/><path fill-rule="evenodd" clip-rule="evenodd" d="M38.621 15.43c1.892-.446 3.566.771 4.705 1.774a10.426 10.426 0 011.543 1.787.692.692 0 01.044.074 8.945 8.945 0 011 3.75c.048.284.048.594.048.831v.031a.692.692 0 11-1.385 0c0-.297-.002-.499-.032-.649a.693.693 0 01-.013-.11 7.611 7.611 0 00-.044-.585L40.3 20.966a.709.709 0 01-.024-.008l-.232-.085c-.78-.282-1.724-.623-2.435-1.385a2.808 2.808 0 01-.738-1.683c-.047-.613.121-1.276.616-1.771a2.15 2.15 0 011.134-.604zm5.515 5.332a7.415 7.415 0 00-.43-1.019 9 9 0 00-1.3-1.505c-1.162-1.021-2.339-1.734-3.482-1.457a.764.764 0 00-.458.232c-.151.151-.237.387-.215.687.023.302.156.614.37.843.473.507 1.102.738 1.94 1.045l.181.066 3.394 1.108z" fill="#E9FFB4"/><path fill-rule="evenodd" clip-rule="evenodd" d="M48.197 34.905a.692.692 0 01-.31.93 5.486 5.486 0 01-2.433.58c-.82 0-1.67-.154-2.432-.535a.692.692 0 11.619-1.238c.53.265 1.157.388 1.813.388.626 0 1.259-.157 1.814-.434a.692.692 0 01.928.31zM40.1 33.276c0-.276-.046-.507-.184-.738-.138-.23-.323-.415-.6-.508-.277-.092-.508-.138-.785-.092-.277.046-.507.139-.692.323a1.315 1.315 0 00-.37.646c-.045.323-.045.554.047.831.092.23.23.462.462.6.23.139.461.23.738.23.184 0 .37 0 .508-.091a.959.959 0 00.461-.277c.139-.139.23-.277.323-.416.046-.138.092-.323.092-.508zM53.946 33.461c0-.277-.046-.508-.184-.738-.139-.231-.324-.416-.6-.508a1.481 1.481 0 00-.785-.092c-.277.046-.508.138-.692.323a1.315 1.315 0 00-.37.646c-.046.277-.046.508.047.784.092.231.23.462.461.6.23.139.462.231.739.231.184 0 .369 0 .507-.092a.958.958 0 00.462-.277c.138-.139.23-.277.323-.415.046-.093.092-.277.092-.462z" fill="#136D09"/><path fill-rule="evenodd" clip-rule="evenodd" d="M50.115 48.508c0-4.952 4.049-9 9-9 4.95 0 9 4 9 9 0 4.949-4 9-9 9s-9-4.051-9-9zm9-7.616c-4.187 0-7.615 3.429-7.615 7.616a7.61 7.61 0 007.615 7.615 7.61 7.61 0 007.616-7.615 7.61 7.61 0 00-7.616-7.616z" fill="#CFD8DC"/><path d="M63.315 46.616c-.23-.323-.508-.6-.877-.739-.37-.184-.739-.277-1.108-.23-.784.046-1.523.6-2.123 1.107-.37-.692-.923-1.477-1.661-1.753-.37-.139-.739-.185-1.154-.139-.37.046-.739.185-1.062.462-.23.23-.461.507-.554.784a2.411 2.411 0 00-.184.97c0 .646.184 1.338.508 1.892.692 1.477 2.03 2.723 3.092 3.969 1.384-.785 3.092-1.57 4.2-2.77a4.464 4.464 0 001.061-1.66c.093-.324.139-.647.139-.97 0-.323-.093-.646-.277-.923z" fill="#FD6C67"/><path fill-rule="evenodd" clip-rule="evenodd" d="M56.316 44.174c.52-.058 1 0 1.474.178.692.26 1.22.82 1.604 1.374.52-.372 1.164-.72 1.874-.77.524-.06 1.014.074 1.45.287.532.21.898.602 1.161.97a2.356 2.356 0 01.406 1.325 4.204 4.204 0 01-.179 1.203 5.154 5.154 0 01-1.214 1.908c-.617.666-1.381 1.199-2.139 1.654-.464.28-.965.552-1.433.806-.278.15-.545.296-.786.432a.692.692 0 01-.868-.153c-.253-.297-.523-.595-.805-.906l-.015-.017c-.285-.314-.58-.64-.865-.976-.563-.662-1.11-1.388-1.495-2.198a4.567 4.567 0 01-.586-2.214c0-.383.055-.795.23-1.217.152-.428.475-.79.712-1.026a2.675 2.675 0 011.465-.659l.01-.001zm.158 1.376a1.292 1.292 0 00-.673.283c-.208.211-.33.384-.367.494a1.723 1.723 0 00-.15.75c.001.526.154 1.098.414 1.544l.03.055c.307.656.768 1.282 1.308 1.917.268.316.55.627.836.943l.022.024c.15.165.302.333.452.502l.365-.199c.442-.239.88-.477 1.329-.746.716-.43 1.355-.887 1.844-1.417a3.776 3.776 0 00.91-1.404c.072-.256.106-.508.106-.757a.974.974 0 00-.155-.53c-.19-.264-.365-.414-.55-.483a.702.702 0 01-.066-.03c-.29-.144-.519-.187-.712-.163a.684.684 0 01-.045.005c-.525.03-1.1.423-1.717.945a.692.692 0 01-1.058-.203c-.362-.68-.814-1.252-1.294-1.431a1.727 1.727 0 00-.829-.1z" fill="#FD6C67"/><path fill-rule="evenodd" clip-rule="evenodd" d="M16.1 82.339c0-8.692 7.05-15.692 15.692-15.692 8.647 0 15.646 7.05 15.646 15.692 0 8.644-7.002 15.646-15.646 15.646-8.64 0-15.692-6.952-15.692-15.646zM31.792 68.03c-7.88 0-14.308 6.384-14.308 14.308 0 7.921 6.425 14.261 14.308 14.261 7.88 0 14.261-6.382 14.261-14.261 0-7.882-6.385-14.308-14.261-14.308z" fill="#CFD8DC"/><path fill-rule="evenodd" clip-rule="evenodd" d="M33.51 73.897a9.856 9.856 0 014.178.308c1.895.631 3.31 2.235 4.103 3.969.005.01.01.02.013.03.668 1.67 1.103 3.447 1.202 5.28.325 3.082.371 6.206.185 9.326a.692.692 0 01-.194.441c-1.6 1.648-3.576 2.897-5.681 3.759a15.478 15.478 0 01-6.782.972c-2.312-.193-4.536-.868-6.522-2.03-1.97-1.154-3.71-2.698-5.02-4.589a.692.692 0 01-.044-.714c2.217-4.25 4.486-8.465 6.944-12.545.944-1.566 2.094-2.56 3.415-3.192 1.3-.622 2.728-.874 4.204-1.015zm3.751 1.625a8.475 8.475 0 00-3.603-.248c-1.426.135-2.669.368-3.754.887-1.067.51-2.017 1.316-2.827 2.658-2.363 3.923-4.555 7.98-6.705 12.093 1.154 1.558 2.646 2.853 4.34 3.844 1.797 1.053 3.82 1.67 5.938 1.846 2.06.175 4.169-.13 6.15-.877 1.873-.768 3.61-1.856 5.024-3.257a55.112 55.112 0 00-.2-8.893c-.088-1.663-.48-3.29-1.1-4.84-.683-1.488-1.845-2.736-3.263-3.213z" fill="#CFD8DC"/><path fill-rule="evenodd" clip-rule="evenodd" d="M31.829 84.318a.692.692 0 01.938-.281c.484.26 1.014.379 1.61.379.554 0 1.13-.12 1.61-.379a.692.692 0 01.657 1.22c-.72.386-1.529.543-2.267.543-.788 0-1.55-.158-2.267-.544a.692.692 0 01-.281-.938zM30.361 82.569c0-.23-.046-.462-.184-.692a1.078 1.078 0 00-.554-.462c-.231-.092-.462-.138-.693-.092a1.23 1.23 0 00-.646.323c-.184.184-.323.37-.369.6-.046.23-.046.461.046.692.093.23.231.416.416.554.184.138.415.23.692.23.323 0 .646-.091.877-.322.277-.231.415-.508.415-.831zM41.207 83.03c0-.23-.046-.46-.185-.691-.138-.185-.323-.37-.553-.462-.231-.092-.462-.138-.693-.092-.23.046-.461.138-.646.323-.185.184-.323.369-.37.6-.045.23-.045.461.047.692.092.23.23.415.415.554.185.138.416.23.693.23.323 0 .646-.092.877-.322.276-.185.415-.508.415-.831zM89.809 44.216c0-9.243 7.509-16.755 16.755-16.708 9.243.001 16.752 7.51 16.752 16.754 0 9.244-7.51 16.754-16.754 16.754-9.245 0-16.753-7.511-16.753-16.8zm16.75-15.323c-8.476-.044-15.366 6.843-15.366 15.323 0 8.526 6.892 15.415 15.369 15.415 8.48 0 15.37-6.89 15.37-15.37 0-8.478-6.89-15.368-15.37-15.368h-.003z" fill="#CFD8DC"/><path fill-rule="evenodd" clip-rule="evenodd" d="M110.099 31.154h.017c.067 0 .134.01.199.03.56.168.802.64.89 1.01.086.362.064.75.009 1.057l-.522 3.495c.676.35 1.27.808 1.783 1.282 1.529 1.386 2.362 3.305 3.1 5.003l.112.258a109.948 109.948 0 004.86 9.536.692.692 0 01-.031.739 17.894 17.894 0 01-4.801 4.705c-1.885 1.257-4.008 2.075-6.268 2.46-2.255.384-4.519.337-6.738-.194a16.91 16.91 0 01-6.112-2.839.693.693 0 01-.253-.363 82.833 82.833 0 01-2.514-11.681c-.188-1.317-.302-2.816-.085-4.208.218-1.397.783-2.753 2.007-3.683 1.07-.852 2.476-1.15 3.602-1.376a30.173 30.173 0 015.781-.79 23.062 23.062 0 013.584-3.931c.092-.093.348-.35.721-.443.268-.067.479-.067.659-.067zm-.308 1.407l-.01.007a1.12 1.12 0 00-.099.091 21.684 21.684 0 00-3.614 4.014.691.691 0 01-.552.296c-1.977.045-3.914.315-5.859.767a.789.789 0 01-.02.005c-1.177.235-2.255.49-3.027 1.108l-.015.012c-.847.64-1.296 1.61-1.482 2.796-.186 1.192-.093 2.531.088 3.8a81.48 81.48 0 002.406 11.26 15.522 15.522 0 005.424 2.472c2.026.484 4.101.53 6.184.175 2.079-.354 4.018-1.104 5.732-2.247a16.538 16.538 0 004.179-3.988 111.084 111.084 0 01-4.703-9.275l-.003-.008-.075-.171c-.773-1.775-1.499-3.442-2.802-4.623l-.004-.004c-.564-.52-1.188-.972-1.871-1.254a.69.69 0 01-.421-.742l.6-4.015.003-.022a1.4 1.4 0 00.015-.468.71.71 0 00-.074.014z" fill="#CFD8DC"/><path fill-rule="evenodd" clip-rule="evenodd" d="M105.713 45.618c.27.27.27.709 0 .979a5.501 5.501 0 01-2.117 1.321c-.807.269-1.652.318-2.474.215a.693.693 0 01.172-1.374c.655.082 1.287.038 1.864-.155a4.125 4.125 0 001.576-.986c.27-.27.709-.27.979 0zM98.946 45.462c-.046-.323-.277-.646-.554-.83a1.451 1.451 0 00-.97-.232c-.322.047-.645.277-.83.554a1.45 1.45 0 00-.23.97c.046.323.276.646.553.83.277.185.646.277.97.231.322-.046.646-.277.83-.554.185-.277.277-.646.231-.969zM110.069 43.108c-.046-.277-.185-.508-.323-.693-.139-.184-.415-.323-.646-.37a1.518 1.518 0 00-.785.047 1.502 1.502 0 00-.6.462c-.138.23-.231.461-.231.738 0 .277.047.508.185.739.138.23.323.415.6.507.231.093.508.139.738.093.324-.047.647-.277.831-.554a1.45 1.45 0 00.231-.97z" fill="#CFD8DC"/><path fill-rule="evenodd" clip-rule="evenodd" d="M104.267 44.53a.691.691 0 01.965.16c.372.521.88.878 1.488 1.021a.692.692 0 11-.317 1.348c-.961-.226-1.746-.792-2.297-1.564a.69.69 0 01.161-.966zM99.745 32.058a1.78 1.78 0 01.725-.165c.301 0 .571.102.799.254a.684.684 0 01.204.21c.089.133.239.357.315.66.067.27.073.544.017.815-.023.495-.057.999-.09 1.495v.004c-.035.52-.069 1.032-.092 1.531a.692.692 0 11-1.383-.062c.023-.515.058-1.04.093-1.557v-.004c.035-.52.069-1.033.092-1.532a.631.631 0 01.02-.136.447.447 0 000-.218.373.373 0 00-.026-.069.579.579 0 00-.039.01 1.458 1.458 0 00-.395.413.69.69 0 01-.03.04c-1.065 1.377-1.912 2.891-2.584 4.504a.692.692 0 01-1.278-.532c.71-1.704 1.61-3.32 2.754-4.8.23-.343.478-.587.824-.818a.682.682 0 01.074-.043zm.606 1.244z" fill="#CFD8DC"/></svg>