<svg width="91" height="44" viewBox="0 0 91 44" xmlns="http://www.w3.org/2000/svg" xmlns:xlink="http://www.w3.org/1999/xlink"><defs><path id="path-1" d="M0 0h68v33H0z"/><circle id="path-3" cx="5" cy="16" r="5"/></defs><g id="PROTOOL" fill="none" fill-rule="evenodd"><g id="plans" transform="translate(-1262 -191)"><g id="Group" transform="translate(105 115)"><g id="Group-8-Copy-6" transform="translate(1158 77)"><path d="M7.082 40A38.06 38.06 0 0 1 7 37.5C7 16.79 23.79 0 44.5 0S82 16.79 82 37.5c0 .84-.028 1.674-.082 2.5H7.082z" id="Combined-Shape" stroke="#CFD8DC" stroke-width="2" fill-opacity=".5" fill="#ECEFF1"/><path d="M7.082 40A38.06 38.06 0 0 1 7 37.5C7 16.79 23.79 0 44.5 0S82 16.79 82 37.5c0 .84-.028 1.674-.082 2.5H7.082z" id="Combined-Shape" stroke="#CFD8DC" stroke-width="2" fill-opacity=".5" fill="#ECEFF1"/><g id="Group-2" transform="translate(7)" stroke="#CFD8DC" stroke-linecap="round"><path d="M37.5.5v39.459M6.5 17.5l31 22.459" id="Line-4"/><g id="Group-3" transform="matrix(-1 0 0 1 75 0)"><path d="M6.5 17.5l31 22.459M3.5 22.5l34 17.459M1.5 28.5l36 11.459" id="Line-4"/><path d="M.5 34.5l37 5.459" id="Line-4" opacity=".3"/><path d="M9.5 12.5l28 27.459M14.5 8.5l23 31.459M19.5 4.5l18 35.459M25.5 2.5l12 37.459M31.5.5l6 39.459" id="Line-4"/></g><path d="M3.5 22.5l34 17.459M1.5 28.5l36 11.459M.5 34.5l37 5.459M9.5 12.5l28 27.459M14.5 8.5l23 31.459M19.5 4.5l18 35.459M25.5 2.5l12 37.459M31.5.5l6 39.459" id="Line-4"/></g><path d="M.405 40h88.224" id="Line" stroke="#CFD8DC" stroke-width="2" stroke-linecap="round"/><g id="Mask" transform="translate(10 6)"><mask id="mask-2" fill="#fff"><use xlink:href="#path-1"/></mask><g mask="url(#mask-2)" fill="#FFF"><circle cx="31.5" cy="31.5" r="31.5" transform="translate(3)"/></g></g><g id="puntero" transform="rotate(18 -44.451 153.275)"><rect id="Rectangle" stroke="#CFD8DC" stroke-width="2" fill="#ECEFF1" transform="rotate(56 14.534 9.57)" x="12.534" y="-3.931" width="4" height="27" rx="2"/><g id="Oval-2"><use fill="#FFF" xlink:href="#path-3"/><circle stroke="#CFD8DC" stroke-width="2" cx="5" cy="16" r="4"/></g><circle id="Oval-2" fill="#ECEFF1" cx="5" cy="16" r="1.198"/></g></g></g></g></g></svg>