<svg width="894" height="409" fill="none" xmlns="http://www.w3.org/2000/svg" viewBox="0 0 894 409"><path d="M875 350H653c-5.523 0-10 4.477-10 10v30c0 5.523 4.477 10 10 10h222c5.523 0 10-4.477 10-10v-30c0-5.523-4.477-10-10-10zM875 300H653c-5.523 0-10 4.477-10 10v30c0 5.523 4.477 10 10 10h222c5.523 0 10-4.477 10-10v-30c0-5.523-4.477-10-10-10zM865 112H663c-11.046 0-20 8.954-20 20v148c0 11.046 8.954 20 20 20h202c11.046 0 20-8.954 20-20V132c0-11.046-8.954-20-20-20z" fill="#ECEFF1"/><path d="M852 135H674c-5.523 0-10 4.477-10 10v122c0 5.523 4.477 10 10 10h178c5.523 0 10-4.477 10-10V145c0-5.523-4.477-10-10-10z" fill="#CFD8DC"/><path d="M858 286H680a13 13 0 01-13-13V151a13 13 0 0113-13h178a13 13 0 0113 13v122a13 13 0 01-13 13zM680 144a6.999 6.999 0 00-7 7v122a6.999 6.999 0 007 7h178a7.003 7.003 0 007-7V151a6.999 6.999 0 00-7-7H680zM856 297h-11a2.996 2.996 0 01-2.121-.879 2.996 2.996 0 010-4.242A2.996 2.996 0 01845 291h11c.796 0 1.559.316 2.121.879a2.996 2.996 0 010 4.242A2.996 2.996 0 01856 297zM835 297h-2a2.996 2.996 0 01-2.121-.879 2.996 2.996 0 010-4.242A2.996 2.996 0 01833 291h2c.796 0 1.559.316 2.121.879a2.996 2.996 0 010 4.242A2.996 2.996 0 01835 297z" fill="#607D8B"/><path d="M871 309H669c-6.1 0-11.95-2.423-16.263-6.737A22.996 22.996 0 01646 286V138c0-6.1 2.423-11.95 6.737-16.263A22.996 22.996 0 01669 115h202c6.1 0 11.95 2.423 16.263 6.737A22.996 22.996 0 01894 138v148c0 6.1-2.423 11.95-6.737 16.263A22.996 22.996 0 01871 309zM669 121a17 17 0 00-17 17v148a17 17 0 0017 17h202a17 17 0 0017-17V138a17 17 0 00-17-17H669zM881 409H659a13 13 0 01-13-13v-30a13 13 0 0113-13h222a13 13 0 0113 13v30a13 13 0 01-13 13zm-222-50a7.003 7.003 0 00-7 7v30a6.999 6.999 0 007 7h222a7.003 7.003 0 007-7v-30a6.999 6.999 0 00-7-7H659z" fill="#607D8B"/><path d="M658 399a2 2 0 01-2-2v-1a2 2 0 014 0v1a2 2 0 01-2 2zM666 399a2 2 0 01-2-2v-1a2 2 0 014 0v1a2 2 0 01-2 2zM674 399a2 2 0 01-2-2v-1a2 2 0 014 0v1a2 2 0 01-2 2zM682 399a2 2 0 01-2-2v-1a2 2 0 014 0v1a2 2 0 01-2 2zM690 399a2 2 0 01-2-2v-1a2 2 0 014 0v1a2 2 0 01-2 2zM698 399a2 2 0 01-2-2v-1a2 2 0 014 0v1a2 2 0 01-2 2zM706 399a2 2 0 01-2-2v-1a2 2 0 014 0v1a2 2 0 01-2 2zM714 399a2 2 0 01-2-2v-1a2 2 0 014 0v1a2 2 0 01-2 2zM722 399a2 2 0 01-2-2v-1a2 2 0 014 0v1a2 2 0 01-2 2zM730 399a2 2 0 01-2-2v-1a2 2 0 014 0v1a2 2 0 01-2 2zM738 399a2 2 0 01-2-2v-1a2 2 0 014 0v1a2 2 0 01-2 2zM746 399a2 2 0 01-2-2v-1a2 2 0 014 0v1a2 2 0 01-2 2zM754 399a2 2 0 01-2-2v-1a2 2 0 014 0v1a2 2 0 01-2 2zM762 399a2 2 0 01-2-2v-1a2 2 0 014 0v1a2 2 0 01-2 2zM770 399a2 2 0 01-2-2v-1a2 2 0 014 0v1a2 2 0 01-2 2zM778 399a2 2 0 01-2-2v-1a2 2 0 014 0v1a2 2 0 01-2 2zM786 399a2 2 0 01-2-2v-1a2 2 0 014 0v1a2 2 0 01-2 2zM794 399a2 2 0 01-2-2v-1a2 2 0 014 0v1a2 2 0 01-2 2zM802 399a2 2 0 01-2-2v-1a2 2 0 014 0v1a2 2 0 01-2 2zM810 399a2 2 0 01-2-2v-1a2 2 0 014 0v1a2 2 0 01-2 2zM818 399a2 2 0 01-2-2v-1a2 2 0 014 0v1a2 2 0 01-2 2zM826 399a2 2 0 01-2-2v-1a2 2 0 014 0v1a2 2 0 01-2 2zM834 399a2 2 0 01-2-2v-1a2 2 0 014 0v1a2 2 0 01-2 2zM842 399a2 2 0 01-2-2v-1a2 2 0 014 0v1a2 2 0 01-2 2zM850 399a2 2 0 01-2-2v-1a2 2 0 014 0v1a2 2 0 01-2 2zM858 399a2 2 0 01-2-2v-1a2 2 0 014 0v1a2 2 0 01-2 2zM866 399a2 2 0 01-2-2v-1a2 2 0 014 0v1a2 2 0 01-2 2zM874 399a2 2 0 01-2-2v-1a2 2 0 014 0v1a2 2 0 01-2 2zM882 399a2 2 0 01-2-2v-1a2 2 0 014 0v1a2 2 0 01-2 2zM658 389a2 2 0 01-2-2v-1a2 2 0 014 0v1a2 2 0 01-2 2zM666 389a2 2 0 01-2-2v-1a2 2 0 014 0v1a2 2 0 01-2 2zM674 389a2 2 0 01-2-2v-1a2 2 0 014 0v1a2 2 0 01-2 2zM682 389a2 2 0 01-2-2v-1a2 2 0 014 0v1a2 2 0 01-2 2zM690 389a2 2 0 01-2-2v-1a2 2 0 014 0v1a2 2 0 01-2 2zM698 389a2 2 0 01-2-2v-1a2 2 0 014 0v1a2 2 0 01-2 2zM706 389a2 2 0 01-2-2v-1a2 2 0 014 0v1a2 2 0 01-2 2zM714 389a2 2 0 01-2-2v-1a2 2 0 014 0v1a2 2 0 01-2 2zM722 389a2 2 0 01-2-2v-1a2 2 0 014 0v1a2 2 0 01-2 2zM730 389a2 2 0 01-2-2v-1a2 2 0 014 0v1a2 2 0 01-2 2zM738 389a2 2 0 01-2-2v-1a2 2 0 014 0v1a2 2 0 01-2 2zM746 389a2 2 0 01-2-2v-1a2 2 0 014 0v1a2 2 0 01-2 2zM754 389a2 2 0 01-2-2v-1a2 2 0 014 0v1a2 2 0 01-2 2zM762 389a2 2 0 01-2-2v-1a2 2 0 014 0v1a2 2 0 01-2 2zM770 389a2 2 0 01-2-2v-1a2 2 0 014 0v1a2 2 0 01-2 2zM778 389a2 2 0 01-2-2v-1a2 2 0 014 0v1a2 2 0 01-2 2zM786 389a2 2 0 01-2-2v-1a2 2 0 014 0v1a2 2 0 01-2 2zM794 389a2 2 0 01-2-2v-1a2 2 0 014 0v1a2 2 0 01-2 2zM802 389a2 2 0 01-2-2v-1a2 2 0 014 0v1a2 2 0 01-2 2zM810 389a2 2 0 01-2-2v-1a2 2 0 014 0v1a2 2 0 01-2 2zM818 389a2 2 0 01-2-2v-1a2 2 0 014 0v1a2 2 0 01-2 2zM826 389a2 2 0 01-2-2v-1a2 2 0 014 0v1a2 2 0 01-2 2zM834 389a2 2 0 01-2-2v-1a2 2 0 014 0v1a2 2 0 01-2 2zM842 389a2 2 0 01-2-2v-1a2 2 0 014 0v1a2 2 0 01-2 2zM850 389a2 2 0 01-2-2v-1a2 2 0 014 0v1a2 2 0 01-2 2zM858 389a2 2 0 01-2-2v-1a2 2 0 014 0v1a2 2 0 01-2 2zM866 389a2 2 0 01-2-2v-1a2 2 0 014 0v1a2 2 0 01-2 2zM874 389a2 2 0 01-2-2v-1a2 2 0 014 0v1a2 2 0 01-2 2zM882 389a2 2 0 01-2-2v-1a2 2 0 014 0v1a2 2 0 01-2 2zM658 379a2 2 0 01-2-2v-1a2 2 0 014 0v1a2 2 0 01-2 2zM666 379a2 2 0 01-2-2v-1a2 2 0 014 0v1a2 2 0 01-2 2zM674 379a2 2 0 01-2-2v-1a2 2 0 014 0v1a2 2 0 01-2 2zM682 379a2 2 0 01-2-2v-1a2 2 0 014 0v1a2 2 0 01-2 2zM690 379a2 2 0 01-2-2v-1a2 2 0 014 0v1a2 2 0 01-2 2zM698 379a2 2 0 01-2-2v-1a2 2 0 014 0v1a2 2 0 01-2 2zM706 379a2 2 0 01-2-2v-1a2 2 0 014 0v1a2 2 0 01-2 2zM714 379a2 2 0 01-2-2v-1a2 2 0 014 0v1a2 2 0 01-2 2zM722 379a2 2 0 01-2-2v-1a2 2 0 014 0v1a2 2 0 01-2 2zM730 379a2 2 0 01-2-2v-1a2 2 0 014 0v1a2 2 0 01-2 2zM738 379a2 2 0 01-2-2v-1a2 2 0 014 0v1a2 2 0 01-2 2zM746 379a2 2 0 01-2-2v-1a2 2 0 014 0v1a2 2 0 01-2 2zM754 379a2 2 0 01-2-2v-1a2 2 0 014 0v1a2 2 0 01-2 2zM762 379a2 2 0 01-2-2v-1a2 2 0 014 0v1a2 2 0 01-2 2zM770 379a2 2 0 01-2-2v-1a2 2 0 014 0v1a2 2 0 01-2 2zM778 379a2 2 0 01-2-2v-1a2 2 0 014 0v1a2 2 0 01-2 2zM786 379a2 2 0 01-2-2v-1a2 2 0 014 0v1a2 2 0 01-2 2zM794 379a2 2 0 01-2-2v-1a2 2 0 014 0v1a2 2 0 01-2 2zM802 379a2 2 0 01-2-2v-1a2 2 0 014 0v1a2 2 0 01-2 2zM810 379a2 2 0 01-2-2v-1a2 2 0 014 0v1a2 2 0 01-2 2zM818 379a2 2 0 01-2-2v-1a2 2 0 014 0v1a2 2 0 01-2 2zM826 379a2 2 0 01-2-2v-1a2 2 0 014 0v1a2 2 0 01-2 2zM834 379a2 2 0 01-2-2v-1a2 2 0 014 0v1a2 2 0 01-2 2zM842 379a2 2 0 01-2-2v-1a2 2 0 014 0v1a2 2 0 01-2 2zM850 379a2 2 0 01-2-2v-1a2 2 0 014 0v1a2 2 0 01-2 2zM858 379a2 2 0 01-2-2v-1a2 2 0 014 0v1a2 2 0 01-2 2zM866 379a2 2 0 01-2-2v-1a2 2 0 014 0v1a2 2 0 01-2 2zM874 379a2 2 0 01-2-2v-1a2 2 0 014 0v1a2 2 0 01-2 2zM882 379a2 2 0 01-2-2v-1a2 2 0 014 0v1a2 2 0 01-2 2zM658 369a2 2 0 01-2-2v-1a2 2 0 014 0v1a2 2 0 01-2 2zM666 369a2 2 0 01-2-2v-1a2 2 0 014 0v1a2 2 0 01-2 2zM674 369a2 2 0 01-2-2v-1a2 2 0 014 0v1a2 2 0 01-2 2zM682 369a2 2 0 01-2-2v-1a2 2 0 014 0v1a2 2 0 01-2 2zM690 369a2 2 0 01-2-2v-1a2 2 0 014 0v1a2 2 0 01-2 2zM698 369a2 2 0 01-2-2v-1a2 2 0 014 0v1a2 2 0 01-2 2zM706 369a2 2 0 01-2-2v-1a2 2 0 014 0v1a2 2 0 01-2 2zM714 369a2 2 0 01-2-2v-1a2 2 0 014 0v1a2 2 0 01-2 2zM722 369a2 2 0 01-2-2v-1a2 2 0 014 0v1a2 2 0 01-2 2zM730 369a2 2 0 01-2-2v-1a2 2 0 014 0v1a2 2 0 01-2 2zM738 369a2 2 0 01-2-2v-1a2 2 0 014 0v1a2 2 0 01-2 2zM746 369a2 2 0 01-2-2v-1a2 2 0 014 0v1a2 2 0 01-2 2zM754 369a2 2 0 01-2-2v-1a2 2 0 014 0v1a2 2 0 01-2 2zM762 369a2 2 0 01-2-2v-1a2 2 0 014 0v1a2 2 0 01-2 2zM770 369a2 2 0 01-2-2v-1a2 2 0 014 0v1a2 2 0 01-2 2zM778 369a2 2 0 01-2-2v-1a2 2 0 014 0v1a2 2 0 01-2 2zM786 369a2 2 0 01-2-2v-1a2 2 0 014 0v1a2 2 0 01-2 2zM794 369a2 2 0 01-2-2v-1a2 2 0 014 0v1a2 2 0 01-2 2zM802 369a2 2 0 01-2-2v-1a2 2 0 014 0v1a2 2 0 01-2 2zM810 369a2 2 0 01-2-2v-1a2 2 0 014 0v1a2 2 0 01-2 2zM818 369a2 2 0 01-2-2v-1a2 2 0 014 0v1a2 2 0 01-2 2zM826 369a2 2 0 01-2-2v-1a2 2 0 014 0v1a2 2 0 01-2 2zM834 369a2 2 0 01-2-2v-1a2 2 0 014 0v1a2 2 0 01-2 2zM842 369a2 2 0 01-2-2v-1a2 2 0 014 0v1a2 2 0 01-2 2zM850 369a2 2 0 01-2-2v-1a2 2 0 014 0v1a2 2 0 01-2 2zM858 369a2 2 0 01-2-2v-1a2 2 0 014 0v1a2 2 0 01-2 2zM866 369a2 2 0 01-2-2v-1a2 2 0 014 0v1a2 2 0 01-2 2zM874 369a2 2 0 01-2-2v-1a2 2 0 014 0v1a2 2 0 01-2 2zM882 369a2 2 0 01-2-2v-1a2 2 0 014 0v1a2 2 0 01-2 2zM881 359H659a13 13 0 01-13-13v-30a13 13 0 0113-13h222a13 13 0 0113 13v30a13 13 0 01-13 13zm-222-50a7.003 7.003 0 00-7 7v30a6.999 6.999 0 007 7h222a7.003 7.003 0 007-7v-30a6.999 6.999 0 00-7-7H659z" fill="#607D8B"/><path d="M658 349a2 2 0 01-2-2v-1a2 2 0 014 0v1a2 2 0 01-2 2zM666 349a2 2 0 01-2-2v-1a2 2 0 014 0v1a2 2 0 01-2 2zM674 349a2 2 0 01-2-2v-1a2 2 0 014 0v1a2 2 0 01-2 2zM682 349a2 2 0 01-2-2v-1a2 2 0 014 0v1a2 2 0 01-2 2zM690 349a2 2 0 01-2-2v-1a2 2 0 014 0v1a2 2 0 01-2 2zM698 349a2 2 0 01-2-2v-1a2 2 0 014 0v1a2 2 0 01-2 2zM706 349a2 2 0 01-2-2v-1a2 2 0 014 0v1a2 2 0 01-2 2zM714 349a2 2 0 01-2-2v-1a2 2 0 014 0v1a2 2 0 01-2 2zM722 349a2 2 0 01-2-2v-1a2 2 0 014 0v1a2 2 0 01-2 2zM730 349a2 2 0 01-2-2v-1a2 2 0 014 0v1a2 2 0 01-2 2zM738 349a2 2 0 01-2-2v-1a2 2 0 014 0v1a2 2 0 01-2 2zM746 349a2 2 0 01-2-2v-1a2 2 0 014 0v1a2 2 0 01-2 2zM754 349a2 2 0 01-2-2v-1a2 2 0 014 0v1a2 2 0 01-2 2zM762 349a2 2 0 01-2-2v-1a2 2 0 014 0v1a2 2 0 01-2 2zM770 349a2 2 0 01-2-2v-1a2 2 0 014 0v1a2 2 0 01-2 2zM778 349a2 2 0 01-2-2v-1a2 2 0 014 0v1a2 2 0 01-2 2zM786 349a2 2 0 01-2-2v-1a2 2 0 014 0v1a2 2 0 01-2 2zM794 349a2 2 0 01-2-2v-1a2 2 0 014 0v1a2 2 0 01-2 2zM802 349a2 2 0 01-2-2v-1a2 2 0 014 0v1a2 2 0 01-2 2zM810 349a2 2 0 01-2-2v-1a2 2 0 014 0v1a2 2 0 01-2 2zM818 349a2 2 0 01-2-2v-1a2 2 0 014 0v1a2 2 0 01-2 2zM826 349a2 2 0 01-2-2v-1a2 2 0 014 0v1a2 2 0 01-2 2zM834 349a2 2 0 01-2-2v-1a2 2 0 014 0v1a2 2 0 01-2 2zM842 349a2 2 0 01-2-2v-1a2 2 0 014 0v1a2 2 0 01-2 2zM850 349a2 2 0 01-2-2v-1a2 2 0 014 0v1a2 2 0 01-2 2zM858 349a2 2 0 01-2-2v-1a2 2 0 014 0v1a2 2 0 01-2 2zM866 349a2 2 0 01-2-2v-1a2 2 0 014 0v1a2 2 0 01-2 2zM874 349a2 2 0 01-2-2v-1a2 2 0 014 0v1a2 2 0 01-2 2zM882 349a2 2 0 01-2-2v-1a2 2 0 014 0v1a2 2 0 01-2 2zM658 339a2 2 0 01-2-2v-1a2 2 0 014 0v1a2 2 0 01-2 2zM666 339a2 2 0 01-2-2v-1a2 2 0 014 0v1a2 2 0 01-2 2zM674 339a2 2 0 01-2-2v-1a2 2 0 014 0v1a2 2 0 01-2 2zM682 339a2 2 0 01-2-2v-1a2 2 0 014 0v1a2 2 0 01-2 2zM690 339a2 2 0 01-2-2v-1a2 2 0 014 0v1a2 2 0 01-2 2zM698 339a2 2 0 01-2-2v-1a2 2 0 014 0v1a2 2 0 01-2 2zM706 339a2 2 0 01-2-2v-1a2 2 0 014 0v1a2 2 0 01-2 2zM714 339a2 2 0 01-2-2v-1a2 2 0 014 0v1a2 2 0 01-2 2zM722 339a2 2 0 01-2-2v-1a2 2 0 014 0v1a2 2 0 01-2 2zM730 339a2 2 0 01-2-2v-1a2 2 0 014 0v1a2 2 0 01-2 2zM738 339a2 2 0 01-2-2v-1a2 2 0 014 0v1a2 2 0 01-2 2zM746 339a2 2 0 01-2-2v-1a2 2 0 014 0v1a2 2 0 01-2 2zM754 339a2 2 0 01-2-2v-1a2 2 0 014 0v1a2 2 0 01-2 2zM762 339a2 2 0 01-2-2v-1a2 2 0 014 0v1a2 2 0 01-2 2zM770 339a2 2 0 01-2-2v-1a2 2 0 014 0v1a2 2 0 01-2 2zM778 339a2 2 0 01-2-2v-1a2 2 0 014 0v1a2 2 0 01-2 2zM786 339a2 2 0 01-2-2v-1a2 2 0 014 0v1a2 2 0 01-2 2zM794 339a2 2 0 01-2-2v-1a2 2 0 014 0v1a2 2 0 01-2 2zM802 339a2 2 0 01-2-2v-1a2 2 0 014 0v1a2 2 0 01-2 2zM810 339a2 2 0 01-2-2v-1a2 2 0 014 0v1a2 2 0 01-2 2zM818 339a2 2 0 01-2-2v-1a2 2 0 014 0v1a2 2 0 01-2 2zM826 339a2 2 0 01-2-2v-1a2 2 0 014 0v1a2 2 0 01-2 2zM834 339a2 2 0 01-2-2v-1a2 2 0 014 0v1a2 2 0 01-2 2zM842 339a2 2 0 01-2-2v-1a2 2 0 014 0v1a2 2 0 01-2 2zM850 339a2 2 0 01-2-2v-1a2 2 0 014 0v1a2 2 0 01-2 2zM858 339a2 2 0 01-2-2v-1a2 2 0 014 0v1a2 2 0 01-2 2zM866 339a2 2 0 01-2-2v-1a2 2 0 014 0v1a2 2 0 01-2 2zM874 339a2 2 0 01-2-2v-1a2 2 0 014 0v1a2 2 0 01-2 2zM882 339a2 2 0 01-2-2v-1a2 2 0 014 0v1a2 2 0 01-2 2zM658 329a2 2 0 01-2-2v-1a2 2 0 014 0v1a2 2 0 01-2 2zM666 329a2 2 0 01-2-2v-1a2 2 0 014 0v1a2 2 0 01-2 2zM674 329a2 2 0 01-2-2v-1a2 2 0 014 0v1a2 2 0 01-2 2zM682 329a2 2 0 01-2-2v-1a2 2 0 014 0v1a2 2 0 01-2 2zM690 329a2 2 0 01-2-2v-1a2 2 0 014 0v1a2 2 0 01-2 2zM698 329a2 2 0 01-2-2v-1a2 2 0 014 0v1a2 2 0 01-2 2zM706 329a2 2 0 01-2-2v-1a2 2 0 014 0v1a2 2 0 01-2 2zM714 329a2 2 0 01-2-2v-1a2 2 0 014 0v1a2 2 0 01-2 2zM722 329a2 2 0 01-2-2v-1a2 2 0 014 0v1a2 2 0 01-2 2zM730 329a2 2 0 01-2-2v-1a2 2 0 014 0v1a2 2 0 01-2 2zM738 329a2 2 0 01-2-2v-1a2 2 0 014 0v1a2 2 0 01-2 2zM746 329a2 2 0 01-2-2v-1a2 2 0 014 0v1a2 2 0 01-2 2zM754 329a2 2 0 01-2-2v-1a2 2 0 014 0v1a2 2 0 01-2 2zM762 329a2 2 0 01-2-2v-1a2 2 0 014 0v1a2 2 0 01-2 2zM770 329a2 2 0 01-2-2v-1a2 2 0 014 0v1a2 2 0 01-2 2zM778 329a2 2 0 01-2-2v-1a2 2 0 014 0v1a2 2 0 01-2 2zM786 329a2 2 0 01-2-2v-1a2 2 0 014 0v1a2 2 0 01-2 2zM794 329a2 2 0 01-2-2v-1a2 2 0 014 0v1a2 2 0 01-2 2zM802 329a2 2 0 01-2-2v-1a2 2 0 014 0v1a2 2 0 01-2 2zM810 329a2 2 0 01-2-2v-1a2 2 0 014 0v1a2 2 0 01-2 2zM818 329a2 2 0 01-2-2v-1a2 2 0 014 0v1a2 2 0 01-2 2zM826 329a2 2 0 01-2-2v-1a2 2 0 014 0v1a2 2 0 01-2 2zM834 329a2 2 0 01-2-2v-1a2 2 0 014 0v1a2 2 0 01-2 2zM842 329a2 2 0 01-2-2v-1a2 2 0 014 0v1a2 2 0 01-2 2zM850 329a2 2 0 01-2-2v-1a2 2 0 014 0v1a2 2 0 01-2 2zM858 329a2 2 0 01-2-2v-1a2 2 0 014 0v1a2 2 0 01-2 2zM866 329a2 2 0 01-2-2v-1a2 2 0 014 0v1a2 2 0 01-2 2zM874 329a2 2 0 01-2-2v-1a2 2 0 014 0v1a2 2 0 01-2 2zM882 329a2 2 0 01-2-2v-1a2 2 0 014 0v1a2 2 0 01-2 2zM658 319a2 2 0 01-2-2v-1a2 2 0 014 0v1a2 2 0 01-2 2zM666 319a2 2 0 01-2-2v-1a2 2 0 014 0v1a2 2 0 01-2 2zM674 319a2 2 0 01-2-2v-1a2 2 0 014 0v1a2 2 0 01-2 2zM682 319a2 2 0 01-2-2v-1a2 2 0 014 0v1a2 2 0 01-2 2zM690 319a2 2 0 01-2-2v-1a2 2 0 014 0v1a2 2 0 01-2 2zM698 319a2 2 0 01-2-2v-1a2 2 0 014 0v1a2 2 0 01-2 2zM706 319a2 2 0 01-2-2v-1a2 2 0 014 0v1a2 2 0 01-2 2zM714 319a2 2 0 01-2-2v-1a2 2 0 014 0v1a2 2 0 01-2 2zM722 319a2 2 0 01-2-2v-1a2 2 0 014 0v1a2 2 0 01-2 2zM730 319a2 2 0 01-2-2v-1a2 2 0 014 0v1a2 2 0 01-2 2zM738 319a2 2 0 01-2-2v-1a2 2 0 014 0v1a2 2 0 01-2 2zM746 319a2 2 0 01-2-2v-1a2 2 0 014 0v1a2 2 0 01-2 2zM754 319a2 2 0 01-2-2v-1a2 2 0 014 0v1a2 2 0 01-2 2zM762 319a2 2 0 01-2-2v-1a2 2 0 014 0v1a2 2 0 01-2 2zM770 319a2 2 0 01-2-2v-1a2 2 0 014 0v1a2 2 0 01-2 2zM778 319a2 2 0 01-2-2v-1a2 2 0 014 0v1a2 2 0 01-2 2zM786 319a2 2 0 01-2-2v-1a2 2 0 014 0v1a2 2 0 01-2 2zM794 319a2 2 0 01-2-2v-1a2 2 0 014 0v1a2 2 0 01-2 2zM802 319a2 2 0 01-2-2v-1a2 2 0 014 0v1a2 2 0 01-2 2zM810 319a2 2 0 01-2-2v-1a2 2 0 014 0v1a2 2 0 01-2 2zM818 319a2 2 0 01-2-2v-1a2 2 0 014 0v1a2 2 0 01-2 2zM826 319a2 2 0 01-2-2v-1a2 2 0 014 0v1a2 2 0 01-2 2zM834 319a2 2 0 01-2-2v-1a2 2 0 014 0v1a2 2 0 01-2 2zM842 319a2 2 0 01-2-2v-1a2 2 0 014 0v1a2 2 0 01-2 2zM850 319a2 2 0 01-2-2v-1a2 2 0 014 0v1a2 2 0 01-2 2zM858 319a2 2 0 01-2-2v-1a2 2 0 014 0v1a2 2 0 01-2 2zM866 319a2 2 0 01-2-2v-1a2 2 0 014 0v1a2 2 0 01-2 2zM874 319a2 2 0 01-2-2v-1a2 2 0 014 0v1a2 2 0 01-2 2zM882 319a2 2 0 01-2-2v-1a2 2 0 014 0v1a2 2 0 01-2 2z" fill="#607D8B"/><path d="M221 0H30C13.431 0 0 13.431 0 30v339c0 16.569 13.431 30 30 30h191c16.569 0 30-13.431 30-30V30c0-16.569-13.431-30-30-30z" fill="#CFD8DC"/><path d="M228 409H37a33.003 33.003 0 01-33-33V37A33 33 0 0137 4h191a33.002 33.002 0 0133 33v339a33.004 33.004 0 01-9.665 23.335A33.004 33.004 0 01228 409zM37 10a27 27 0 00-27 27v339a27 27 0 0027 27h191a27.003 27.003 0 0027-27V37a27.002 27.002 0 00-27-27H37z" fill="#607D8B"/><path d="M258 58H7v296h251V58z" fill="#fff"/><path d="M258 357H7a2.999 2.999 0 01-3-3V58a3 3 0 013-3h251a2.998 2.998 0 013 3v296c0 .796-.316 1.559-.879 2.121A2.996 2.996 0 01258 357zm-248-6h245V61H10v290zM165 35h-65a3 3 0 010-6h65a2.998 2.998 0 013 3 2.999 2.999 0 01-3 3zM84 35h-3a3 3 0 010-6h3a3 3 0 010 6zM71.22 35.45a3.926 3.926 0 01-.59 0c-.193-.04-.38-.1-.56-.18a2.87 2.87 0 01-.52-.27 3.233 3.233 0 01-.45-.38 3 3 0 01-.88-2.12c0-.195.02-.389.06-.58a3.197 3.197 0 01.44-1.08c.11-.166.237-.32.38-.46a3.059 3.059 0 012.71-.82c.19.042.378.099.56.17.18.08.354.173.52.28a3 3 0 011.33 2.49 3 3 0 01-.88 2.12c-.14.143-.294.27-.46.38-.16.11-.33.2-.51.27-.18.08-.368.14-.56.18a3.926 3.926 0 01-.59 0zM165 395h-64a6 6 0 01-6-6v-17a6.002 6.002 0 016-6h64c1.591 0 3.117.632 4.243 1.757A6.003 6.003 0 01171 372v17a6.003 6.003 0 01-1.757 4.243A6.003 6.003 0 01165 395zm-64-23v17h64v-17h-64z" fill="#607D8B"/><path d="M821.74 199.05h-94.56v8.02h94.56v-8.02z" fill="#ECEFF1"/><path d="M826.041 191.03v8.03h-103.16v-8.03l51.58-28.87 51.58 28.87z" fill="#ECEFF1"/><path d="M742.73 190.99l31.731-17.76 31.579 17.8-63.31-.04z" fill="#ECEFF1"/><path d="M740.789 191.03l33.67-18.84 33.67 18.84h-67.34zM751.25 207.07H728.9v6.42h22.35v-6.42zM819.161 207.07h-22.35v6.42h22.35v-6.42zM751.25 247.98H728.9v6.42h22.35v-6.42zM819.161 247.9h-22.35v6.42h22.35v-6.42zM821.509 254.4h-94.56v7.22h94.56v-7.22z" fill="#ECEFF1"/><path d="M748.67 213.49h-17.19v34.49h17.19v-34.49zM816.581 213.49h-17.19v34.49h17.19v-34.49z" fill="#ECEFF1"/><path d="M823.23 189.8l-.09 8.44-3.49.26v.55H725.1v3h94.55v4.35l-2.58-.15v.27h-22.2v.5l-45.7-.5h-22.35v2.86h21.85V213h-2.58v34.49h2.58v4.62h-21.85v2.87h22.35v-1.07h45.7v1.07h22.35v-1.05l1.94.43-.2-6.52-.78-.06-1-.85V214h1.94v-6.57H822v-8.46h4l.15-7.78-2.92-1.39zm-6.12 57.65v4.62h-20.3v-4.7h2.58v-33.88h-2.58v-4.08h20.3V213h-2.58v34.49l2.58-.04z" fill="#CFD8DC"/><path d="M725.1 259.48v2.13h95.85l.87-7.22-2.66-.07v5.16H725.1z" fill="#CFD8DC"/><path d="M740.079 245.26a1.301 1.301 0 01-1.3-1.29V218.3a1.305 1.305 0 011.295-1.186 1.297 1.297 0 011.295 1.186V244a1.29 1.29 0 01-1.29 1.26z" fill="#607D8B"/><path d="M740.08 245.26a1.3 1.3 0 01-1.3-1.3V218.3a1.304 1.304 0 011.819-1.304 1.308 1.308 0 01.708.772c.057.171.079.352.063.532V244a1.297 1.297 0 01-1.29 1.26zM744.369 245.26a1.301 1.301 0 01-1.29-1.3V218.3a1.298 1.298 0 011.295-1.414 1.293 1.293 0 01.959.422 1.302 1.302 0 01.336.992V244a1.3 1.3 0 01-1.3 1.26zM735.78 245.26a1.301 1.301 0 01-1.3-1.3V218.3a1.304 1.304 0 011.818-1.304 1.308 1.308 0 01.708.772c.058.171.079.352.064.532V244a1.304 1.304 0 01-1.29 1.26zM808.129 245.26a1.299 1.299 0 01-1.3-1.3V218.3a1.298 1.298 0 011.295-1.414 1.293 1.293 0 01.959.422 1.302 1.302 0 01.336.992V244a1.297 1.297 0 01-1.29 1.26zM812.43 245.26a1.299 1.299 0 01-1.3-1.3V218.3a1.298 1.298 0 011.295-1.414 1.296 1.296 0 011.231.882c.058.171.08.352.064.532V244a1.297 1.297 0 01-1.29 1.26zM803.829 245.26a1.299 1.299 0 01-.916-.382 1.295 1.295 0 01-.374-.918V218.3a1.288 1.288 0 011.29-1.29 1.29 1.29 0 011.29 1.29V244a1.297 1.297 0 01-1.29 1.26zM821.741 208.37h-94.56a1.3 1.3 0 01-1.29-1.3v-8a1.293 1.293 0 011.29-1.29h94.56a1.29 1.29 0 011.29 1.29v8a1.3 1.3 0 01-1.29 1.3zm-93.26-2.59h92v-5.43h-92v5.43z" fill="#607D8B"/><path d="M826 200.35H722.88a1.3 1.3 0 01-1.29-1.3v-8a1.297 1.297 0 01.66-1.13L773.83 161a1.295 1.295 0 011.26 0l51.58 28.87a1.302 1.302 0 01.66 1.13v8a1.297 1.297 0 01-.812 1.256 1.311 1.311 0 01-.518.094zm-101.86-2.59h100.6v-6l-50.28-28.15-50.28 28.15-.04 6z" fill="#607D8B"/><path d="M774.461 176.2l21.709 12.24h-43.529l21.82-12.21v-.03zm0-2.97L742.73 191H806l-31.58-17.8.041.03z" fill="#CFD8DC"/><path d="M808.129 192.33h-67.34a1.303 1.303 0 01-1.245-.974 1.295 1.295 0 01.615-1.456l33.67-18.84a1.29 1.29 0 011.26 0l33.67 18.84a1.298 1.298 0 01-.63 2.43zm-62.38-2.59h57.42l-28.71-16.07-28.71 16.07zM751.249 214.79h-22.35a1.3 1.3 0 01-1.29-1.3v-6.42c0-.169.034-.337.099-.493a1.271 1.271 0 01.698-.699c.156-.064.324-.098.493-.098h22.35a1.3 1.3 0 011.3 1.29v6.42c0 .345-.137.676-.38.92-.244.243-.575.38-.92.38zm-21-2.59h19.75v-3.83h-19.8l.05 3.83zM819.16 214.79h-22.35a1.277 1.277 0 01-.916-.381 1.284 1.284 0 01-.374-.919v-6.42a1.283 1.283 0 01.377-.912 1.29 1.29 0 01.913-.378h22.35a1.302 1.302 0 01.912.378 1.287 1.287 0 01.378.912v6.42a1.3 1.3 0 01-1.29 1.3zm-21.06-2.59h19.76v-3.83H798.1v3.83zM751.249 255.69h-22.35a1.29 1.29 0 01-1.29-1.29V248a1.3 1.3 0 011.29-1.3h22.35a1.301 1.301 0 011.3 1.3v6.42a1.302 1.302 0 01-1.3 1.27zm-21-2.59h19.75v-3.83h-19.8l.05 3.83zM819.16 255.61h-22.35a1.29 1.29 0 01-1.29-1.29v-6.42a1.275 1.275 0 01.794-1.194c.157-.064.326-.097.496-.096h22.35c.169 0 .337.034.493.099a1.271 1.271 0 01.698.698c.065.156.099.324.099.493v6.42a1.29 1.29 0 01-1.29 1.29zM798.1 253h19.76v-3.83H798.1V253z" fill="#607D8B"/><path d="M821.499 262.91h-94.5a1.299 1.299 0 01-1.3-1.3v-7.21a1.301 1.301 0 011.3-1.3h94.5a1.3 1.3 0 011.3 1.3v7.21a1.3 1.3 0 01-1.3 1.3zm-93.26-2.59h92v-4.63h-92v4.63zM748.669 249.27h-17.19a1.29 1.29 0 01-1.29-1.29v-34.49c0-.169.034-.337.099-.493a1.271 1.271 0 01.698-.699c.156-.064.324-.098.493-.098h17.19a1.302 1.302 0 011.3 1.29V248a1.302 1.302 0 01-1.3 1.27zm-15.89-2.59h14.6v-31.89h-14.6v31.89zM816.58 249.27h-17.19a1.3 1.3 0 01-1.3-1.29v-34.49a1.3 1.3 0 011.3-1.29h17.19a1.302 1.302 0 01.912.378 1.29 1.29 0 01.378.912V248a1.288 1.288 0 01-1.29 1.27zm-15.9-2.59h14.61v-31.89h-14.61v31.89zM774.001 180.57a1.29 1.29 0 01-1.29-1.29v-1.67a1.298 1.298 0 011.295-1.186 1.303 1.303 0 011.295 1.186v1.67a1.305 1.305 0 01-.384.913 1.304 1.304 0 01-.916.377z" fill="#607D8B"/><path d="M774.42 187.24h-1.67a1.298 1.298 0 01-1.186-1.295 1.303 1.303 0 011.186-1.295h1.67a.354.354 0 00.345-.227.366.366 0 00.025-.143.37.37 0 00-.37-.37h-.83a3 3 0 010-5.92h1.66a1.29 1.29 0 010 2.58h-1.66a.374.374 0 00-.308.086.37.37 0 00-.098.13.366.366 0 000 .319.379.379 0 00.406.215h.83a3.002 3.002 0 013.211 4.221 3.005 3.005 0 01-3.211 1.699z" fill="#607D8B"/><path d="M774 188.91a1.29 1.29 0 01-1.29-1.29V186a1.291 1.291 0 01.336-.992 1.308 1.308 0 01.959-.422 1.296 1.296 0 011.231.883c.058.17.08.351.064.531v1.67a1.3 1.3 0 01-1.3 1.24z" fill="#607D8B"/><path d="M197.92 143.63H73.28c-11.045 0-20 8.954-20 20v75.73c0 11.046 8.955 20 20 20h124.64c11.046 0 20-8.954 20-20v-75.73c0-11.046-8.954-20-20-20z" fill="#ECEFF1"/><path d="M216.28 188.06v-33.81a12.249 12.249 0 00-7.581-11.329A12.251 12.251 0 00204 142H63.89a12.236 12.236 0 00-11.31 7.563 12.24 12.24 0 00-.93 4.687v7.37s50.56-.31 86.28 13.86 78.35 12.58 78.35 12.58z" fill="#CFD8DC"/><path d="M210.85 264.8H68a13.063 13.063 0 01-13-13v-94a13.06 13.06 0 0113-13h142.9a13.06 13.06 0 0113 13v94a13.058 13.058 0 01-13.05 13zM68 149.06a8.707 8.707 0 00-8.7 8.7v94a8.7 8.7 0 008.7 8.69h142.9a8.702 8.702 0 008.69-8.69v-94a8.696 8.696 0 00-2.545-6.148 8.692 8.692 0 00-6.145-2.552H68z" fill="#607D8B"/><path fill-rule="evenodd" clip-rule="evenodd" d="M73.84 215.27a29.349 29.349 0 0158.131-5.829 29.353 29.353 0 01-12.474 30.152 29.353 29.353 0 01-16.317 4.947 29.31 29.31 0 01-20.734-8.557 29.297 29.297 0 01-8.606-20.713z" fill="#ECEFF1"/><path d="M103.18 245.8a30.533 30.533 0 01-28.149-18.902 30.53 30.53 0 1158.759-11.628 30.602 30.602 0 01-30.61 30.53zm0-58.53a28.003 28.003 0 00-27.372 33.512 27.999 27.999 0 0055.452-5.512 28.056 28.056 0 00-28.08-28z" fill="#607D8B"/><path fill-rule="evenodd" clip-rule="evenodd" d="M127.26 231.77a27 27 0 00-48.15.24s8.42 12.53 24.08 12.53a30.776 30.776 0 0021.42-9.27l2.65-3.5z" fill="#CFD8DC"/><path d="M103.58 245.81h-.45c-16.09 0-24.7-12.55-25.06-13.08l-.42-.61.33-.66a28.305 28.305 0 0125.129-15.557 28.298 28.298 0 0125.281 15.307l.35.71-3.23 4.25a32.122 32.122 0 01-21.93 9.64zm-23-13.92c1.88 2.41 9.74 11.39 22.59 11.39a29.933 29.933 0 0020.47-8.85l2.11-2.79a25.778 25.778 0 00-45.17.25z" fill="#607D8B"/><path fill-rule="evenodd" clip-rule="evenodd" d="M103.27 229.33a6.996 6.996 0 01-4.995-2.025 7 7 0 01-2.075-4.975v-7h14.13v7c0 .924-.183 1.84-.538 2.693a7.017 7.017 0 01-3.825 3.792 7.002 7.002 0 01-2.697.515z" fill="#fff"/><path d="M103.27 230.23a8.21 8.21 0 01-8.16-8.25v-8.26h16.31V222a8.208 8.208 0 01-8.15 8.23zm-5.44-13.79v5.72a5.706 5.706 0 003.465 5.491 5.71 5.71 0 007.945-5.491v-5.72H97.83z" fill="#607D8B"/><path fill-rule="evenodd" clip-rule="evenodd" d="M103.45 221.81a21.635 21.635 0 01-19.958-13.395 21.643 21.643 0 0115.811-29.474 21.637 21.637 0 0125.837 21.239 21.692 21.692 0 01-21.69 21.63z" fill="#fff"/><path fill-rule="evenodd" clip-rule="evenodd" d="M103.45 180a20.226 20.226 0 0119.796 24.201 20.235 20.235 0 01-15.904 15.873 20.236 20.236 0 01-20.756-8.609 20.231 20.231 0 01-3.406-11.235A20.26 20.26 0 01103.45 180zm0-2.82a22.994 22.994 0 00-21.173 14.256 22.997 22.997 0 0016.792 31.303 23.001 23.001 0 0027.481-22.509 23.098 23.098 0 00-23.1-23.05z" fill="#607D8B"/><path d="M103.45 203.46c-1.901 0-3.775-.449-5.47-1.31a1.26 1.26 0 01-.555-1.695 1.26 1.26 0 011.695-.555 9.569 9.569 0 008.66 0 1.27 1.27 0 011.395.163 1.26 1.26 0 01.382 1.351 1.249 1.249 0 01-.627.736 12.132 12.132 0 01-5.48 1.31zM117.07 196.34h-7.61a1.316 1.316 0 01-1.22-.78 1.37 1.37 0 011.24-1.94h7.61a1.317 1.317 0 011.22.78 1.362 1.362 0 01-.091 1.308 1.363 1.363 0 01-1.149.632zM97.29 196.34h-7.61a1.317 1.317 0 01-1.23-.78 1.368 1.368 0 01.586-1.77c.2-.11.425-.169.654-.17h7.61a1.332 1.332 0 011.23.78 1.373 1.373 0 01-.585 1.77c-.2.111-.426.169-.655.17zM179.33 193.08h-31a2.182 2.182 0 01-1.445-3.664 2.176 2.176 0 011.445-.686h31a2.173 2.173 0 011.636.582 2.183 2.183 0 01.511 2.461 2.176 2.176 0 01-2.147 1.307zM186.4 200.14h-38a2.18 2.18 0 010-4.35h38a2.177 2.177 0 012.032 2.175 2.178 2.178 0 01-2.032 2.175zM179.33 214.27h-31a2.177 2.177 0 01-2.032-2.175 2.178 2.178 0 012.032-2.175h31a2.19 2.19 0 011.636.582 2.178 2.178 0 01-1.636 3.768zM186.4 221.33h-38a2.178 2.178 0 01-1.446-3.663 2.184 2.184 0 011.446-.687h38a2.182 2.182 0 011.445 3.664 2.176 2.176 0 01-1.445.686zM195.09 161.56h-31a2.177 2.177 0 01-2.032-2.175 2.178 2.178 0 012.032-2.175h31a2.19 2.19 0 011.636.582 2.186 2.186 0 01.511 2.461 2.186 2.186 0 01-1.268 1.186 2.19 2.19 0 01-.879.121zM202.16 168.62h-38a2.168 2.168 0 01-2.17-2.17 2.168 2.168 0 012.17-2.17h38a2.17 2.17 0 010 4.34zM179.33 234.91h-31a2.17 2.17 0 110-4.34h31a2.176 2.176 0 011.535.636 2.174 2.174 0 010 3.069 2.184 2.184 0 01-1.535.635zM170.64 242h-22.28a2.178 2.178 0 01-1.446-3.663 2.184 2.184 0 011.446-.687h22.28a2.182 2.182 0 011.445 3.664 2.176 2.176 0 01-1.445.686zM148.64 168.08a5.16 5.16 0 100-10.32 5.16 5.16 0 000 10.32z" fill="#607D8B"/><path d="M132 227a21.004 21.004 0 01-19.401-12.964A20.998 20.998 0 11153 206c0 5.57-2.212 10.911-6.151 14.849A20.995 20.995 0 01132 227zm0-36a15.003 15.003 0 00-13.858 9.26A15 15 0 10132 191zM769 227a21.004 21.004 0 01-19.401-12.964A20.998 20.998 0 11790 206c0 5.57-2.212 10.911-6.151 14.849A20.995 20.995 0 01769 227zm0-36a15.003 15.003 0 00-13.858 9.26 14.991 14.991 0 00-.854 8.666 15.01 15.01 0 004.105 7.681 15.01 15.01 0 007.681 4.105A15 15 0 10769 191z" fill="#13C1AC"/><path d="M313.73 297h-.05a3.004 3.004 0 01-2.92-2.59L291.06 153l-14.54 53.8a3.004 3.004 0 01-2.9 2.22H147v-6h124.32l17.78-65.78a3.001 3.001 0 015.87.37l19.09 137L326 206a2.998 2.998 0 013-2.49h68.5v6h-66.05l-14.76 85a3 3 0 01-2.96 2.49zM581.77 297a3.001 3.001 0 01-2.95-2.49l-14.77-85H490v-6h76.58a3.002 3.002 0 012.95 2.49l11.92 68.6 19.08-137a3 3 0 015.87-.37L624.18 203H748.5v6H621.88a3 3 0 01-2.89-2.22L604.45 153l-19.71 141.41a2.998 2.998 0 01-2.92 2.59h-.05z" fill="#13C1AC"/><path d="M443.59 256.19a50.093 50.093 0 01-49.138-59.86 50.094 50.094 0 0139.359-39.358 50.09 50.09 0 0159.859 49.138 50.14 50.14 0 01-50.08 50.08zm0-98.17a48.092 48.092 0 00-47.177 57.466 48.093 48.093 0 0065.568 35.054 48.086 48.086 0 0029.689-44.43A48.146 48.146 0 00443.59 158v.02z" fill="#607D8B"/><path d="M475.433 248.605l-11.822 7.721a3 3 0 00-.871 4.153l27.517 42.13a3 3 0 004.152.871l11.822-7.722a3 3 0 00.871-4.152l-27.517-42.13a3 3 0 00-4.152-.871z" fill="#CFD8DC"/><path d="M496.29 309c-.208 0-.415-.02-.62-.06a3.004 3.004 0 01-1.9-1.3L463 260.49a2.998 2.998 0 01.87-4.15l16.84-11a3.007 3.007 0 014.16.88l30.8 47.15a2.999 2.999 0 01-.87 4.15l-16.84 11a3.047 3.047 0 01-1.67.48zm-26.65-49.28l27.52 42.13 11.84-7.72L481.45 252l-11.81 7.72z" fill="#607D8B"/><path d="M468.276 245.145l-5.073 3.314a2 2 0 00-.581 2.768l1.537 2.353a2 2 0 002.768.581l5.073-3.314a2 2 0 00.581-2.768l-1.536-2.353a2 2 0 00-2.769-.581z" fill="#E3E7FF"/><path d="M469.64 259.14a2.995 2.995 0 01-2.52-1.36l-3.72-5.7a3.002 3.002 0 01.87-4.16l8.42-5.5a3.004 3.004 0 013.34.031c.326.223.605.508.82.839l3.72 5.7c.433.668.588 1.479.43 2.26a2.996 2.996 0 01-1.3 1.89l-8.42 5.51a3.002 3.002 0 01-1.64.49zm.42-7.83l.45.67 3.4-2.22-.45-.68-3.4 2.23z" fill="#607D8B"/><path opacity=".5" d="M437.25 251.39c27.106 0 49.08-21.973 49.08-49.08 0-27.106-21.974-49.08-49.08-49.08-27.106 0-49.08 21.974-49.08 49.08 0 27.107 21.974 49.08 49.08 49.08z" fill="url(#paint0_linear)"/><path d="M443.67 257.54a52.07 52.07 0 11-.135-104.14 52.07 52.07 0 01.135 104.14zm-.15-98.13a46.064 46.064 0 00-44.601 34.815 46.069 46.069 0 1090.587 15.049 46.072 46.072 0 00-7.346-28.994 45.804 45.804 0 00-38.64-20.87z" fill="#607D8B"/><path opacity=".5" d="M413.51 199.46a7.6 7.6 0 100-15.2 7.6 7.6 0 000 15.2zM413.51 225.43c5.948 0 10.77-4.822 10.77-10.77 0-5.948-4.822-10.77-10.77-10.77-5.948 0-10.77 4.822-10.77 10.77 0 5.948 4.822 10.77 10.77 10.77z" fill="#fff"/><path d="M464.74 229.74a2.997 2.997 0 01-2.12-.88l-41.74-41.74a2.997 2.997 0 01.074-4.166 2.997 2.997 0 014.166-.074l41.74 41.74a2.998 2.998 0 01-.454 4.614 2.995 2.995 0 01-1.666.506z" fill="#FD6C67"/><path d="M423 229.74a2.997 2.997 0 01-2.997-3 3 3 0 01.877-2.12l41.74-41.74a2.998 2.998 0 014.167.074 2.998 2.998 0 01.073 4.166l-41.74 41.74a2.995 2.995 0 01-2.12.88z" fill="#FD6C67"/><defs><linearGradient id="paint0_linear" x1="388.17" y1="202.31" x2="486.34" y2="202.31" gradientUnits="userSpaceOnUse"><stop stop-color="#ECEFF1"/><stop offset="1" stop-color="#CFD8DC"/></linearGradient></defs></svg>