<svg width="334" height="297" fill="none" xmlns="http://www.w3.org/2000/svg"><path d="M232 238H10c-5.523 0-10 4.477-10 10v30c0 5.523 4.477 10 10 10h222c5.523 0 10-4.477 10-10v-30c0-5.523-4.477-10-10-10zM232 188H10c-5.523 0-10 4.477-10 10v30c0 5.523 4.477 10 10 10h222c5.523 0 10-4.477 10-10v-30c0-5.523-4.477-10-10-10zM222 0H20C8.954 0 0 8.954 0 20v148c0 11.046 8.954 20 20 20h202c11.046 0 20-8.954 20-20V20c0-11.046-8.954-20-20-20z" fill="#ECEFF1"/><path d="M209 23H31c-5.523 0-10 4.477-10 10v122c0 5.523 4.477 10 10 10h178c5.523 0 10-4.477 10-10V33c0-5.523-4.477-10-10-10z" fill="#CFD8DC"/><path d="M215 174H37a13 13 0 01-13-13V39a13 13 0 0113-13h178a12.999 12.999 0 0113 13v122a13 13 0 01-13 13zM37 32a7 7 0 00-7 7v122a7 7 0 007 7h178a7.003 7.003 0 007-7V39a7.003 7.003 0 00-7-7H37zM213 185h-11a2.996 2.996 0 01-2.121-.879 2.996 2.996 0 010-4.242A2.996 2.996 0 01202 179h11c.796 0 1.559.316 2.121.879a2.996 2.996 0 010 4.242A2.996 2.996 0 01213 185zM192 185h-2a2.996 2.996 0 01-2.121-.879 2.996 2.996 0 010-4.242A2.996 2.996 0 01190 179h2c.796 0 1.559.316 2.121.879a2.996 2.996 0 010 4.242A2.996 2.996 0 01192 185z" fill="#607D8B"/><path d="M228 197H26a22.998 22.998 0 01-23-23V26A23 23 0 0126 3h202a22.998 22.998 0 0123 23v148c0 6.1-2.423 11.95-6.737 16.263A22.996 22.996 0 01228 197zM26 9A17 17 0 009 26v148a17 17 0 0017 17h202a17 17 0 0017-17V26a17 17 0 00-17-17H26zM238 297H16a13 13 0 01-13-13v-30a12.999 12.999 0 0113-13h222a13 13 0 0113 13v30a13 13 0 01-13 13zM16 247a7.003 7.003 0 00-7 7v30a7 7 0 007 7h222a7.003 7.003 0 007-7v-30a7.003 7.003 0 00-7-7H16z" fill="#607D8B"/><path d="M15 287a2 2 0 01-2-2v-1a2 2 0 014 0v1a2 2 0 01-2 2zM23 287a2 2 0 01-2-2v-1a2 2 0 014 0v1a2 2 0 01-2 2zM31 287a2 2 0 01-2-2v-1a2 2 0 014 0v1a2 2 0 01-2 2zM39 287a2 2 0 01-2-2v-1a2 2 0 014 0v1a2 2 0 01-2 2zM47 287a2 2 0 01-2-2v-1a2 2 0 014 0v1a2 2 0 01-2 2zM55 287a2 2 0 01-2-2v-1a2 2 0 014 0v1a2 2 0 01-2 2zM63 287a2 2 0 01-2-2v-1a2 2 0 014 0v1a2 2 0 01-2 2zM71 287a2 2 0 01-2-2v-1a2 2 0 014 0v1a2 2 0 01-2 2zM79 287a2 2 0 01-2-2v-1a2 2 0 014 0v1a2 2 0 01-2 2zM87 287a2 2 0 01-2-2v-1a2 2 0 014 0v1a2 2 0 01-2 2zM95 287a2 2 0 01-2-2v-1a2 2 0 014 0v1a2 2 0 01-2 2zM103 287a2 2 0 01-2-2v-1a2 2 0 014 0v1a2 2 0 01-2 2zM111 287a2 2 0 01-2-2v-1a2 2 0 014 0v1a2 2 0 01-2 2zM119 287a2 2 0 01-2-2v-1a2 2 0 014 0v1a2 2 0 01-2 2zM127 287a2 2 0 01-2-2v-1a2 2 0 014 0v1a2 2 0 01-2 2zM135 287a2 2 0 01-2-2v-1a2 2 0 014 0v1a2 2 0 01-2 2zM143 287a2 2 0 01-2-2v-1a2 2 0 014 0v1a2 2 0 01-2 2zM151 287a2 2 0 01-2-2v-1a2 2 0 014 0v1a2 2 0 01-2 2zM159 287a2 2 0 01-2-2v-1a2 2 0 014 0v1a2 2 0 01-2 2zM167 287a2 2 0 01-2-2v-1a2 2 0 014 0v1a2 2 0 01-2 2zM175 287a2 2 0 01-2-2v-1a2 2 0 014 0v1a2 2 0 01-2 2zM183 287a2 2 0 01-2-2v-1a2 2 0 014 0v1a2 2 0 01-2 2zM191 287a2 2 0 01-2-2v-1a2 2 0 014 0v1a2 2 0 01-2 2zM199 287a2 2 0 01-2-2v-1a2 2 0 014 0v1a2 2 0 01-2 2zM207 287a2 2 0 01-2-2v-1a2 2 0 014 0v1a2 2 0 01-2 2zM215 287a2 2 0 01-2-2v-1a2 2 0 014 0v1a2 2 0 01-2 2zM223 287a2 2 0 01-2-2v-1a2 2 0 014 0v1a2 2 0 01-2 2zM231 287a2 2 0 01-2-2v-1a2 2 0 014 0v1a2 2 0 01-2 2zM239 287a2 2 0 01-2-2v-1a2 2 0 014 0v1a2 2 0 01-2 2zM15 277a2 2 0 01-2-2v-1a2 2 0 014 0v1a2 2 0 01-2 2zM23 277a2 2 0 01-2-2v-1a2 2 0 014 0v1a2 2 0 01-2 2zM31 277a2 2 0 01-2-2v-1a2 2 0 014 0v1a2 2 0 01-2 2zM39 277a2 2 0 01-2-2v-1a2 2 0 014 0v1a2 2 0 01-2 2zM47 277a2 2 0 01-2-2v-1a2 2 0 014 0v1a2 2 0 01-2 2zM55 277a2 2 0 01-2-2v-1a2 2 0 014 0v1a2 2 0 01-2 2zM63 277a2 2 0 01-2-2v-1a2 2 0 014 0v1a2 2 0 01-2 2zM71 277a2 2 0 01-2-2v-1a2 2 0 014 0v1a2 2 0 01-2 2zM79 277a2 2 0 01-2-2v-1a2 2 0 014 0v1a2 2 0 01-2 2zM87 277a2 2 0 01-2-2v-1a2 2 0 014 0v1a2 2 0 01-2 2zM95 277a2 2 0 01-2-2v-1a2 2 0 014 0v1a2 2 0 01-2 2zM103 277a2 2 0 01-2-2v-1a2 2 0 014 0v1a2 2 0 01-2 2zM111 277a2 2 0 01-2-2v-1a2 2 0 014 0v1a2 2 0 01-2 2zM119 277a2 2 0 01-2-2v-1a2 2 0 014 0v1a2 2 0 01-2 2zM127 277a2 2 0 01-2-2v-1a2 2 0 014 0v1a2 2 0 01-2 2zM135 277a2 2 0 01-2-2v-1a2 2 0 014 0v1a2 2 0 01-2 2zM143 277a2 2 0 01-2-2v-1a2 2 0 014 0v1a2 2 0 01-2 2zM151 277a2 2 0 01-2-2v-1a2 2 0 014 0v1a2 2 0 01-2 2zM159 277a2 2 0 01-2-2v-1a2 2 0 014 0v1a2 2 0 01-2 2zM167 277a2 2 0 01-2-2v-1a2 2 0 014 0v1a2 2 0 01-2 2zM175 277a2 2 0 01-2-2v-1a2 2 0 014 0v1a2 2 0 01-2 2zM183 277a2 2 0 01-2-2v-1a2 2 0 014 0v1a2 2 0 01-2 2zM191 277a2 2 0 01-2-2v-1a2 2 0 014 0v1a2 2 0 01-2 2zM199 277a2 2 0 01-2-2v-1a2 2 0 014 0v1a2 2 0 01-2 2zM207 277a2 2 0 01-2-2v-1a2 2 0 014 0v1a2 2 0 01-2 2zM215 277a2 2 0 01-2-2v-1a2 2 0 014 0v1a2 2 0 01-2 2zM223 277a2 2 0 01-2-2v-1a2 2 0 014 0v1a2 2 0 01-2 2zM231 277a2 2 0 01-2-2v-1a2 2 0 014 0v1a2 2 0 01-2 2zM239 277a2 2 0 01-2-2v-1a2 2 0 014 0v1a2 2 0 01-2 2zM15 267a2 2 0 01-2-2v-1a2 2 0 014 0v1a2 2 0 01-2 2zM23 267a2 2 0 01-2-2v-1a2 2 0 014 0v1a2 2 0 01-2 2zM31 267a2 2 0 01-2-2v-1a2 2 0 014 0v1a2 2 0 01-2 2zM39 267a2 2 0 01-2-2v-1a2 2 0 014 0v1a2 2 0 01-2 2zM47 267a2 2 0 01-2-2v-1a2 2 0 014 0v1a2 2 0 01-2 2zM55 267a2 2 0 01-2-2v-1a2 2 0 014 0v1a2 2 0 01-2 2zM63 267a2 2 0 01-2-2v-1a2 2 0 014 0v1a2 2 0 01-2 2zM71 267a2 2 0 01-2-2v-1a2 2 0 014 0v1a2 2 0 01-2 2zM79 267a2 2 0 01-2-2v-1a2 2 0 014 0v1a2 2 0 01-2 2zM87 267a2 2 0 01-2-2v-1a2 2 0 014 0v1a2 2 0 01-2 2zM95 267a2 2 0 01-2-2v-1a2 2 0 014 0v1a2 2 0 01-2 2zM103 267a2 2 0 01-2-2v-1a2 2 0 014 0v1a2 2 0 01-2 2zM111 267a2 2 0 01-2-2v-1a2 2 0 014 0v1a2 2 0 01-2 2zM119 267a2 2 0 01-2-2v-1a2 2 0 014 0v1a2 2 0 01-2 2zM127 267a2 2 0 01-2-2v-1a2 2 0 014 0v1a2 2 0 01-2 2zM135 267a2 2 0 01-2-2v-1a2 2 0 014 0v1a2 2 0 01-2 2zM143 267a2 2 0 01-2-2v-1a2 2 0 014 0v1a2 2 0 01-2 2zM151 267a2 2 0 01-2-2v-1a2 2 0 014 0v1a2 2 0 01-2 2zM159 267a2 2 0 01-2-2v-1a2 2 0 014 0v1a2 2 0 01-2 2zM167 267a2 2 0 01-2-2v-1a2 2 0 014 0v1a2 2 0 01-2 2zM175 267a2 2 0 01-2-2v-1a2 2 0 014 0v1a2 2 0 01-2 2zM183 267a2 2 0 01-2-2v-1a2 2 0 014 0v1a2 2 0 01-2 2zM191 267a2 2 0 01-2-2v-1a2 2 0 014 0v1a2 2 0 01-2 2zM199 267a2 2 0 01-2-2v-1a2 2 0 014 0v1a2 2 0 01-2 2zM207 267a2 2 0 01-2-2v-1a2 2 0 014 0v1a2 2 0 01-2 2zM215 267a2 2 0 01-2-2v-1a2 2 0 014 0v1a2 2 0 01-2 2zM223 267a2 2 0 01-2-2v-1a2 2 0 014 0v1a2 2 0 01-2 2zM231 267a2 2 0 01-2-2v-1a2 2 0 014 0v1a2 2 0 01-2 2zM239 267a2 2 0 01-2-2v-1a2 2 0 014 0v1a2 2 0 01-2 2zM15 257a2 2 0 01-2-2v-1a2 2 0 014 0v1a2 2 0 01-2 2zM23 257a2 2 0 01-2-2v-1a2 2 0 014 0v1a2 2 0 01-2 2zM31 257a2 2 0 01-2-2v-1a2 2 0 014 0v1a2 2 0 01-2 2zM39 257a2 2 0 01-2-2v-1a2 2 0 014 0v1a2 2 0 01-2 2zM47 257a2 2 0 01-2-2v-1a2 2 0 014 0v1a2 2 0 01-2 2zM55 257a2 2 0 01-2-2v-1a2 2 0 014 0v1a2 2 0 01-2 2zM63 257a2 2 0 01-2-2v-1a2 2 0 014 0v1a2 2 0 01-2 2zM71 257a2 2 0 01-2-2v-1a2 2 0 014 0v1a2 2 0 01-2 2zM79 257a2 2 0 01-2-2v-1a2 2 0 014 0v1a2 2 0 01-2 2zM87 257a2 2 0 01-2-2v-1a2 2 0 014 0v1a2 2 0 01-2 2zM95 257a2 2 0 01-2-2v-1a2 2 0 014 0v1a2 2 0 01-2 2zM103 257a2 2 0 01-2-2v-1a2 2 0 014 0v1a2 2 0 01-2 2zM111 257a2 2 0 01-2-2v-1a2 2 0 014 0v1a2 2 0 01-2 2zM119 257a2 2 0 01-2-2v-1a2 2 0 014 0v1a2 2 0 01-2 2zM127 257a2 2 0 01-2-2v-1a2 2 0 014 0v1a2 2 0 01-2 2zM135 257a2 2 0 01-2-2v-1a2 2 0 014 0v1a2 2 0 01-2 2zM143 257a2 2 0 01-2-2v-1a2 2 0 014 0v1a2 2 0 01-2 2zM151 257a2 2 0 01-2-2v-1a2 2 0 014 0v1a2 2 0 01-2 2zM159 257a2 2 0 01-2-2v-1a2 2 0 014 0v1a2 2 0 01-2 2zM167 257a2 2 0 01-2-2v-1a2 2 0 014 0v1a2 2 0 01-2 2zM175 257a2 2 0 01-2-2v-1a2 2 0 014 0v1a2 2 0 01-2 2zM183 257a2 2 0 01-2-2v-1a2 2 0 014 0v1a2 2 0 01-2 2zM191 257a2 2 0 01-2-2v-1a2 2 0 014 0v1a2 2 0 01-2 2zM199 257a2 2 0 01-2-2v-1a2 2 0 014 0v1a2 2 0 01-2 2zM207 257a2 2 0 01-2-2v-1a2 2 0 014 0v1a2 2 0 01-2 2zM215 257a2 2 0 01-2-2v-1a2 2 0 014 0v1a2 2 0 01-2 2zM223 257a2 2 0 01-2-2v-1a2 2 0 014 0v1a2 2 0 01-2 2zM231 257a2 2 0 01-2-2v-1a2 2 0 014 0v1a2 2 0 01-2 2zM239 257a2 2 0 01-2-2v-1a2 2 0 014 0v1a2 2 0 01-2 2zM238 247H16a13 13 0 01-13-13v-30a12.999 12.999 0 0113-13h222a13 13 0 0113 13v30a13 13 0 01-13 13zM16 197a7.003 7.003 0 00-7 7v30a7 7 0 007 7h222a7.003 7.003 0 007-7v-30a7.003 7.003 0 00-7-7H16z" fill="#607D8B"/><path d="M15 237a2 2 0 01-2-2v-1a2 2 0 014 0v1a2 2 0 01-2 2zM23 237a2 2 0 01-2-2v-1a2 2 0 014 0v1a2 2 0 01-2 2zM31 237a2 2 0 01-2-2v-1a2 2 0 014 0v1a2 2 0 01-2 2zM39 237a2 2 0 01-2-2v-1a2 2 0 014 0v1a2 2 0 01-2 2zM47 237a2 2 0 01-2-2v-1a2 2 0 014 0v1a2 2 0 01-2 2zM55 237a2 2 0 01-2-2v-1a2 2 0 014 0v1a2 2 0 01-2 2zM63 237a2 2 0 01-2-2v-1a2 2 0 014 0v1a2 2 0 01-2 2zM71 237a2 2 0 01-2-2v-1a2 2 0 014 0v1a2 2 0 01-2 2zM79 237a2 2 0 01-2-2v-1a2 2 0 014 0v1a2 2 0 01-2 2zM87 237a2 2 0 01-2-2v-1a2 2 0 014 0v1a2 2 0 01-2 2zM95 237a2 2 0 01-2-2v-1a2 2 0 014 0v1a2 2 0 01-2 2zM103 237a2 2 0 01-2-2v-1a2 2 0 014 0v1a2 2 0 01-2 2zM111 237a2 2 0 01-2-2v-1a2 2 0 014 0v1a2 2 0 01-2 2zM119 237a2 2 0 01-2-2v-1a2 2 0 014 0v1a2 2 0 01-2 2zM127 237a2 2 0 01-2-2v-1a2 2 0 014 0v1a2 2 0 01-2 2zM135 237a2 2 0 01-2-2v-1a2 2 0 014 0v1a2 2 0 01-2 2zM143 237a2 2 0 01-2-2v-1a2 2 0 014 0v1a2 2 0 01-2 2zM151 237a2 2 0 01-2-2v-1a2 2 0 014 0v1a2 2 0 01-2 2zM159 237a2 2 0 01-2-2v-1a2 2 0 014 0v1a2 2 0 01-2 2zM167 237a2 2 0 01-2-2v-1a2 2 0 014 0v1a2 2 0 01-2 2zM175 237a2 2 0 01-2-2v-1a2 2 0 014 0v1a2 2 0 01-2 2zM183 237a2 2 0 01-2-2v-1a2 2 0 014 0v1a2 2 0 01-2 2zM191 237a2 2 0 01-2-2v-1a2 2 0 014 0v1a2 2 0 01-2 2zM199 237a2 2 0 01-2-2v-1a2 2 0 014 0v1a2 2 0 01-2 2zM207 237a2 2 0 01-2-2v-1a2 2 0 014 0v1a2 2 0 01-2 2zM215 237a2 2 0 01-2-2v-1a2 2 0 014 0v1a2 2 0 01-2 2zM223 237a2 2 0 01-2-2v-1a2 2 0 014 0v1a2 2 0 01-2 2zM231 237a2 2 0 01-2-2v-1a2 2 0 014 0v1a2 2 0 01-2 2zM239 237a2 2 0 01-2-2v-1a2 2 0 014 0v1a2 2 0 01-2 2zM15 227a2 2 0 01-2-2v-1a2 2 0 014 0v1a2 2 0 01-2 2zM23 227a2 2 0 01-2-2v-1a2 2 0 014 0v1a2 2 0 01-2 2zM31 227a2 2 0 01-2-2v-1a2 2 0 014 0v1a2 2 0 01-2 2zM39 227a2 2 0 01-2-2v-1a2 2 0 014 0v1a2 2 0 01-2 2zM47 227a2 2 0 01-2-2v-1a2 2 0 014 0v1a2 2 0 01-2 2zM55 227a2 2 0 01-2-2v-1a2 2 0 014 0v1a2 2 0 01-2 2zM63 227a2 2 0 01-2-2v-1a2 2 0 014 0v1a2 2 0 01-2 2zM71 227a2 2 0 01-2-2v-1a2 2 0 014 0v1a2 2 0 01-2 2zM79 227a2 2 0 01-2-2v-1a2 2 0 014 0v1a2 2 0 01-2 2zM87 227a2 2 0 01-2-2v-1a2 2 0 014 0v1a2 2 0 01-2 2zM95 227a2 2 0 01-2-2v-1a2 2 0 014 0v1a2 2 0 01-2 2zM103 227a2 2 0 01-2-2v-1a2 2 0 014 0v1a2 2 0 01-2 2zM111 227a2 2 0 01-2-2v-1a2 2 0 014 0v1a2 2 0 01-2 2zM119 227a2 2 0 01-2-2v-1a2 2 0 014 0v1a2 2 0 01-2 2zM127 227a2 2 0 01-2-2v-1a2 2 0 014 0v1a2 2 0 01-2 2zM135 227a2 2 0 01-2-2v-1a2 2 0 014 0v1a2 2 0 01-2 2zM143 227a2 2 0 01-2-2v-1a2 2 0 014 0v1a2 2 0 01-2 2zM151 227a2 2 0 01-2-2v-1a2 2 0 014 0v1a2 2 0 01-2 2zM159 227a2 2 0 01-2-2v-1a2 2 0 014 0v1a2 2 0 01-2 2zM167 227a2 2 0 01-2-2v-1a2 2 0 014 0v1a2 2 0 01-2 2zM175 227a2 2 0 01-2-2v-1a2 2 0 014 0v1a2 2 0 01-2 2zM183 227a2 2 0 01-2-2v-1a2 2 0 014 0v1a2 2 0 01-2 2zM191 227a2 2 0 01-2-2v-1a2 2 0 014 0v1a2 2 0 01-2 2zM199 227a2 2 0 01-2-2v-1a2 2 0 014 0v1a2 2 0 01-2 2zM207 227a2 2 0 01-2-2v-1a2 2 0 014 0v1a2 2 0 01-2 2zM215 227a2 2 0 01-2-2v-1a2 2 0 014 0v1a2 2 0 01-2 2zM223 227a2 2 0 01-2-2v-1a2 2 0 014 0v1a2 2 0 01-2 2zM231 227a2 2 0 01-2-2v-1a2 2 0 014 0v1a2 2 0 01-2 2zM239 227a2 2 0 01-2-2v-1a2 2 0 014 0v1a2 2 0 01-2 2zM15 217a2 2 0 01-2-2v-1a2 2 0 014 0v1a2 2 0 01-2 2zM23 217a2 2 0 01-2-2v-1a2 2 0 014 0v1a2 2 0 01-2 2zM31 217a2 2 0 01-2-2v-1a2 2 0 014 0v1a2 2 0 01-2 2zM39 217a2 2 0 01-2-2v-1a2 2 0 014 0v1a2 2 0 01-2 2zM47 217a2 2 0 01-2-2v-1a2 2 0 014 0v1a2 2 0 01-2 2zM55 217a2 2 0 01-2-2v-1a2 2 0 014 0v1a2 2 0 01-2 2zM63 217a2 2 0 01-2-2v-1a2 2 0 014 0v1a2 2 0 01-2 2zM71 217a2 2 0 01-2-2v-1a2 2 0 014 0v1a2 2 0 01-2 2zM79 217a2 2 0 01-2-2v-1a2 2 0 014 0v1a2 2 0 01-2 2zM87 217a2 2 0 01-2-2v-1a2 2 0 014 0v1a2 2 0 01-2 2zM95 217a2 2 0 01-2-2v-1a2 2 0 014 0v1a2 2 0 01-2 2zM103 217a2 2 0 01-2-2v-1a2 2 0 014 0v1a2 2 0 01-2 2zM111 217a2 2 0 01-2-2v-1a2 2 0 014 0v1a2 2 0 01-2 2zM119 217a2 2 0 01-2-2v-1a2 2 0 014 0v1a2 2 0 01-2 2zM127 217a2 2 0 01-2-2v-1a2 2 0 014 0v1a2 2 0 01-2 2zM135 217a2 2 0 01-2-2v-1a2 2 0 014 0v1a2 2 0 01-2 2zM143 217a2 2 0 01-2-2v-1a2 2 0 014 0v1a2 2 0 01-2 2zM151 217a2 2 0 01-2-2v-1a2 2 0 014 0v1a2 2 0 01-2 2zM159 217a2 2 0 01-2-2v-1a2 2 0 014 0v1a2 2 0 01-2 2zM167 217a2 2 0 01-2-2v-1a2 2 0 014 0v1a2 2 0 01-2 2zM175 217a2 2 0 01-2-2v-1a2 2 0 014 0v1a2 2 0 01-2 2zM183 217a2 2 0 01-2-2v-1a2 2 0 014 0v1a2 2 0 01-2 2zM191 217a2 2 0 01-2-2v-1a2 2 0 014 0v1a2 2 0 01-2 2zM199 217a2 2 0 01-2-2v-1a2 2 0 014 0v1a2 2 0 01-2 2zM207 217a2 2 0 01-2-2v-1a2 2 0 014 0v1a2 2 0 01-2 2zM215 217a2 2 0 01-2-2v-1a2 2 0 014 0v1a2 2 0 01-2 2zM223 217a2 2 0 01-2-2v-1a2 2 0 014 0v1a2 2 0 01-2 2zM231 217a2 2 0 01-2-2v-1a2 2 0 014 0v1a2 2 0 01-2 2zM239 217a2 2 0 01-2-2v-1a2 2 0 014 0v1a2 2 0 01-2 2zM15 207a2 2 0 01-2-2v-1a2 2 0 014 0v1a2 2 0 01-2 2zM23 207a2 2 0 01-2-2v-1a2 2 0 014 0v1a2 2 0 01-2 2zM31 207a2 2 0 01-2-2v-1a2 2 0 014 0v1a2 2 0 01-2 2zM39 207a2 2 0 01-2-2v-1a2 2 0 014 0v1a2 2 0 01-2 2zM47 207a2 2 0 01-2-2v-1a2 2 0 014 0v1a2 2 0 01-2 2zM55 207a2 2 0 01-2-2v-1a2 2 0 014 0v1a2 2 0 01-2 2zM63 207a2 2 0 01-2-2v-1a2 2 0 014 0v1a2 2 0 01-2 2zM71 207a2 2 0 01-2-2v-1a2 2 0 014 0v1a2 2 0 01-2 2zM79 207a2 2 0 01-2-2v-1a2 2 0 014 0v1a2 2 0 01-2 2zM87 207a2 2 0 01-2-2v-1a2 2 0 014 0v1a2 2 0 01-2 2zM95 207a2 2 0 01-2-2v-1a2 2 0 014 0v1a2 2 0 01-2 2zM103 207a2 2 0 01-2-2v-1a2 2 0 014 0v1a2 2 0 01-2 2zM111 207a2 2 0 01-2-2v-1a2 2 0 014 0v1a2 2 0 01-2 2zM119 207a2 2 0 01-2-2v-1a2 2 0 014 0v1a2 2 0 01-2 2zM127 207a2 2 0 01-2-2v-1a2 2 0 014 0v1a2 2 0 01-2 2zM135 207a2 2 0 01-2-2v-1a2 2 0 014 0v1a2 2 0 01-2 2zM143 207a2 2 0 01-2-2v-1a2 2 0 014 0v1a2 2 0 01-2 2zM151 207a2 2 0 01-2-2v-1a2 2 0 014 0v1a2 2 0 01-2 2zM159 207a2 2 0 01-2-2v-1a2 2 0 014 0v1a2 2 0 01-2 2zM167 207a2 2 0 01-2-2v-1a2 2 0 014 0v1a2 2 0 01-2 2zM175 207a2 2 0 01-2-2v-1a2 2 0 014 0v1a2 2 0 01-2 2zM183 207a2 2 0 01-2-2v-1a2 2 0 014 0v1a2 2 0 01-2 2zM191 207a2 2 0 01-2-2v-1a2 2 0 014 0v1a2 2 0 01-2 2zM199 207a2 2 0 01-2-2v-1a2 2 0 014 0v1a2 2 0 01-2 2zM207 207a2 2 0 01-2-2v-1a2 2 0 014 0v1a2 2 0 01-2 2zM215 207a2 2 0 01-2-2v-1a2 2 0 014 0v1a2 2 0 01-2 2zM223 207a2 2 0 01-2-2v-1a2 2 0 014 0v1a2 2 0 01-2 2zM231 207a2 2 0 01-2-2v-1a2 2 0 014 0v1a2 2 0 01-2 2zM239 207a2 2 0 01-2-2v-1a2 2 0 014 0v1a2 2 0 01-2 2zM90 153H44v6h46v-6zM90 143H44v6h46v-6zM90 133H44v6h46v-6zM90 123H44v6h46v-6zM90 113H44v6h46v-6zM90 103H44v6h46v-6zM90 93H44v6h46v-6zM90 83H44v6h46v-6zM90 73H44v6h46v-6zM90 63H44v6h46v-6zM150 153h-46v6h46v-6zM150 143h-46v6h46v-6zM150 133h-46v6h46v-6zM150 123h-46v6h46v-6zM210 153h-46v6h46v-6zM210 143h-46v6h46v-6zM210 133h-46v6h46v-6zM210 123h-46v6h46v-6zM210 113h-46v6h46v-6zM210 103h-46v6h46v-6zM210 93h-46v6h46v-6zM210 83h-46v6h46v-6zM210 73h-46v6h46v-6z" fill="#607D8B"/><path d="M220.5 187a78.496 78.496 0 01-43.612-13.23 78.495 78.495 0 01-33.38-80.585 78.504 78.504 0 0161.677-61.677A78.502 78.502 0 01299 108.5a78.58 78.58 0 01-78.5 78.5zm0-155a76.5 76.5 0 1076.5 76.5A76.588 76.588 0 00220.5 32z" fill="#607D8B"/><path d="M272.229 174.631l-21.567 14.087a3 3 0 00-.871 4.152l45.349 69.433a3 3 0 004.152.871l21.567-14.087a3 3 0 00.872-4.152l-45.349-69.432a3.001 3.001 0 00-4.153-.872z" fill="#CFD8DC"/><path d="M303.71 269.23a3.008 3.008 0 01-2.52-1.36l-48.63-74.46a2.999 2.999 0 01.87-4.15L280 171.89a3.007 3.007 0 012.261-.429 3.004 3.004 0 011.899 1.299l48.63 74.45a3 3 0 01-.87 4.16l-26.59 17.37a3.008 3.008 0 01-1.62.49zm-44.49-76.58l45.36 69.42L326.15 248l-45.36-69.43-21.57 14.08z" fill="#607D8B"/><path d="M260.45 169.477l-9.955 6.502a2 2 0 00-.581 2.768l3.691 5.651a2 2 0 002.768.581l9.955-6.502a2 2 0 00.581-2.768l-3.691-5.651a2 2 0 00-2.768-.581z" fill="#E3E7FF"/><path d="M261.631 190.49a3.073 3.073 0 01-.62-.06 3.001 3.001 0 01-1.9-1.3l-5.88-9a2.998 2.998 0 01.88-4.15l13.3-8.69a2.998 2.998 0 014.15.87l5.88 9a3.002 3.002 0 01-.87 4.16l-13.3 8.68a2.999 2.999 0 01-1.64.49zm-1.73-11.13l2.6 4 8.28-5.41-2.6-4-8.28 5.41zM219.12 150.43c-21.31 0-41.71-13.45-60.65-40a3.006 3.006 0 01-.13-3.27c1-1.68 24.86-41.1 60.24-42.27 21.87-.72 43 13.44 62.75 42.1a2.996 2.996 0 01.05 3.32c-1 1.6-25.48 39.22-61 40.12h-1.26zm-54.58-41.85c17.73 24.26 36.47 36.34 55.69 35.84 28.32-.7 49.93-28.62 55-35.73-18.14-25.72-37.13-38.43-56.41-37.82-28.25.92-49.43 30.37-54.28 37.71z" fill="#607D8B"/><path d="M220.5 132c14.083 0 25.5-11.417 25.5-25.5S234.583 81 220.5 81 195 92.417 195 106.5s11.417 25.5 25.5 25.5z" fill="#607D8B"/><path opacity=".5" d="M210.5 180c42.802 0 77.5-34.698 77.5-77.5S253.302 25 210.5 25 133 59.698 133 102.5s34.698 77.5 77.5 77.5z" fill="url(#paint0_linear)"/><path d="M220.631 188a80.46 80.46 0 11-.17-160.92 80.46 80.46 0 01.17 160.92zm-.25-155a74.47 74.47 0 1062.48 33.73A74.003 74.003 0 00220.381 33z" fill="#607D8B"/><path opacity=".5" d="M173 98c6.627 0 12-5.373 12-12s-5.373-12-12-12-12 5.373-12 12 5.373 12 12 12zM173 139c9.389 0 17-7.611 17-17s-7.611-17-17-17-17 7.611-17 17 7.611 17 17 17z" fill="#fff"/><defs><linearGradient id="paint0_linear" x1="133" y1="102.5" x2="288" y2="102.5" gradientUnits="userSpaceOnUse"><stop stop-color="#ECEFF1"/><stop offset="1" stop-color="#CFD8DC"/></linearGradient></defs></svg>