<svg width="18" height="12" fill="none" xmlns="http://www.w3.org/2000/svg"><mask id="a" style="mask-type:alpha" maskUnits="userSpaceOnUse" x="0" y="0" width="18" height="12"><path fill-rule="evenodd" clip-rule="evenodd" d="M9 11.531h9V0H0v11.531h9Z" fill="#fff"/></mask><g mask="url(#a)"><path fill-rule="evenodd" clip-rule="evenodd" d="M7.795 1.125h8.478c.332 0 .602.27.602.602V6.75h-.562a.562.562 0 1 0 0 1.125h.562v1.086c0 .332-.27.602-.602.602h-.833a1.686 1.686 0 0 0-1.659-1.406c-.835 0-1.524.61-1.66 1.406H5.316a1.686 1.686 0 0 0-1.659-1.406c-.835 0-1.524.61-1.66 1.406h-.27a.602.602 0 0 1-.601-.602V6.414c0-.248.148-.467.378-.559l1.858-.744c.034-.013.062-.033.094-.048H6.75a.563.563 0 0 0 0-1.125H4.733L7.369 1.3a.606.606 0 0 1 .426-.176Zm5.987 9.281a.563.563 0 1 1 .001-1.126.563.563 0 0 1 0 1.127Zm-10.126 0a.563.563 0 1 1 .001-1.126.563.563 0 0 1 0 1.127Zm-.51-6.472a.594.594 0 0 1-.202.132l-1.859.744A1.719 1.719 0 0 0 0 6.413v2.548c0 .952.775 1.727 1.726 1.727h.477c.293.501.831.843 1.453.843.622 0 1.16-.342 1.453-.843h7.22c.292.501.83.843 1.452.843s1.16-.342 1.453-.843h1.04c.952 0 1.726-.775 1.726-1.727V1.727C18 .775 17.226 0 16.273 0H7.795c-.455 0-.9.185-1.222.506L3.146 3.934Z" fill="#253238"/></g></svg>