<svg width="48" height="48" fill="none" xmlns="http://www.w3.org/2000/svg"><path d="M45.5 35.052c.001 1.89-1.585 3.448-3.577 3.448H6.078c-1.99 0-3.577-1.559-3.577-3.448V12.947C2.5 11.059 4.086 9.5 6.077 9.5h35.846c1.99 0 3.577 1.559 3.577 3.447v22.105Z" fill="#fff" stroke="#CFD8DC"/><path d="M12.3 22.3c-.135.88-.818.88-1.479.88h-.376l.264-1.645a.208.208 0 0 1 .206-.173h.173c.449 0 .874 0 1.092.253.13.15.172.374.12.684Zm-.285-2.3H9.524a.344.344 0 0 0-.342.288l-1.008 6.294a.206.206 0 0 0 .206.236h1.19c.17 0 .314-.122.34-.288l.273-1.697a.343.343 0 0 1 .342-.288h.788c1.64 0 2.587-.782 2.835-2.332.112-.68.004-1.212-.317-1.584-.355-.413-.983-.629-1.816-.629ZM17.792 24.557c-.115.672-.657 1.122-1.346 1.122-.346 0-.623-.11-.8-.317-.176-.206-.244-.499-.188-.826a1.33 1.33 0 0 1 1.337-1.131c.339 0 .614.11.795.32.182.212.254.507.202.832Zm1.662-2.287h-1.192a.206.206 0 0 0-.205.174l-.053.328-.083-.119c-.258-.368-.834-.493-1.41-.493-1.318 0-2.443.983-2.663 2.364-.114.688.048 1.346.444 1.806.363.422.883.598 1.502.598 1.062 0 1.652-.674 1.652-.674l-.054.327a.206.206 0 0 0 .204.238h1.075c.17 0 .314-.122.341-.288l.645-4.023a.203.203 0 0 0-.203-.238ZM25.807 22.271h-1.2a.348.348 0 0 0-.286.15l-1.653 2.4-.7-2.306a.346.346 0 0 0-.332-.244h-1.178a.206.206 0 0 0-.197.271l1.32 3.818-1.242 1.727a.204.204 0 0 0 .169.322h1.196c.114 0 .22-.054.285-.146l3.986-5.67a.203.203 0 0 0-.168-.322Z" fill="#253B80"/><path d="M30.068 22.3c-.136.88-.82.88-1.48.88h-.376l.264-1.645a.206.206 0 0 1 .204-.173h.173c.45 0 .875 0 1.093.253.132.15.172.374.122.684ZM29.78 20h-2.49a.344.344 0 0 0-.342.288l-1.008 6.294a.205.205 0 0 0 .204.236h1.279c.119 0 .22-.085.24-.201l.286-1.784a.343.343 0 0 1 .341-.288h.789c1.641 0 2.587-.782 2.835-2.332.112-.68.004-1.212-.318-1.584-.354-.413-.98-.629-1.816-.629ZM35.56 24.557c-.115.672-.657 1.122-1.346 1.122-.345 0-.623-.11-.8-.317-.176-.206-.243-.499-.188-.826a1.33 1.33 0 0 1 1.337-1.131c.339 0 .614.11.795.32.182.212.254.507.202.832Zm1.661-2.287H36.03a.204.204 0 0 0-.204.174l-.053.328-.083-.119c-.258-.368-.834-.493-1.41-.493-1.318 0-2.443.983-2.662 2.364-.113.688.049 1.346.444 1.806.364.422.883.598 1.503.598 1.062 0 1.651-.674 1.651-.674l-.054.327a.207.207 0 0 0 .206.238h1.074c.17 0 .315-.122.342-.288l.645-4.023a.207.207 0 0 0-.207-.238ZM38.63 20.175l-1.022 6.409a.205.205 0 0 0 .204.236h1.028c.17 0 .316-.122.341-.288l1.008-6.293a.205.205 0 0 0-.204-.236h-1.15a.205.205 0 0 0-.205.172Z" fill="#009DE2"/></svg>