<svg width="300" height="260" viewBox="0 0 300 260" fill="none" xmlns="http://www.w3.org/2000/svg"><g clip-path="url(#clip0_960_18269)"><path fill="#fff" d="M0 0h300v260H0z"/><path d="M214.5 115.32c-.29-5.76-.57-11.63.81-17.23s4.71-11 9.9-13.53c5.19-2.53 12.34-1.27 15.39 3.63 2.25 3.61 1.94 8.2 1.4 12.41-.23 1.76-.64 3.77-2.19 4.64-2.24 1.25-5-.91-5.91-3.31-2.05-5.41 1-11.42 4.86-15.76a20.134 20.134 0 017.88-6c3.12-1.14 6.9-.91 9.43 1.25 2.69 2.29 3.42 6.29 2.56 9.71-.6 2.36-2.52 4.87-4.9 4.4-2.38-.47-3.22-3.89-2.48-6.35 1.22-4 4.75-7.09 8.69-8.59 3.94-1.5 8.27-1.65 12.49-1.39" stroke="#A3FBFF" stroke-width="3" stroke-linecap="round" stroke-linejoin="round"/><path d="M154.38 66.22c-1.72-5-2.27-10.61-.51-15.62s6.13-9.26 11.4-9.93c2.34-.3 5.32.64 5.62 3a3.831 3.831 0 01-2.22 3.6 11.24 11.24 0 01-4.36.93 16.119 16.119 0 01-2.27-14.356 16.13 16.13 0 0110.2-10.354" stroke="#85FFD3" stroke-width="3" stroke-linecap="round" stroke-linejoin="round"/><path d="M156.28 7.66l-1.46 7.27" stroke="#F8D137" stroke-width="3" stroke-linecap="round" stroke-linejoin="round"/><path d="M137.53 22.05l2 4.62" stroke="#A3FBFF" stroke-width="3" stroke-linecap="round" stroke-linejoin="round"/><path d="M129.15 46.68a27.462 27.462 0 014.47 22.92c-.89 3.43-2.45 6.68-3.12 10.16-.67 3.48-.25 7.47 2.28 10" stroke="#F8D137" stroke-width="3" stroke-linecap="round" stroke-linejoin="round"/><path d="M206 58.42c.18-6 5.4-10.47 10-14.34 4.6-3.87 9.48-9 8.56-15" stroke="#FFBAB5" stroke-width="3" stroke-linecap="round" stroke-linejoin="round"/><path d="M246.92 29.87l2.22-3.87" stroke="#E9FFB4" stroke-width="3" stroke-linecap="round" stroke-linejoin="round"/><path d="M259.71 46.18l7-4.15" stroke="#85FFD3" stroke-width="3" stroke-linecap="round" stroke-linejoin="round"/><path d="M202.41 81.08a9.003 9.003 0 005.32-3.87" stroke="#F8D137" stroke-width="3" stroke-linecap="round" stroke-linejoin="round"/><path d="M217.61 168.11a29.788 29.788 0 008.95 4.25" stroke="#85FFD3" stroke-width="3" stroke-linecap="round" stroke-linejoin="round"/><path d="M209.88 184.4a18.413 18.413 0 0113 4.07c3.82 3.14 6.18 7.66 9 11.75 2.82 4.09 6.48 8.05 11.34 9" stroke="#FFBAB5" stroke-width="3" stroke-linecap="round" stroke-linejoin="round"/><path d="M229.72 141.54c3.24-.77 6.61.6 9.43 2.36 2.82 1.76 5.42 4 8.54 5.13 3.12 1.13 7.05 1 9.28-1.46" stroke="#F8D137" stroke-width="3" stroke-linecap="round" stroke-linejoin="round"/><path d="M268.39 188.51a9.477 9.477 0 005.16-1.43" stroke="#A3FBFF" stroke-width="3" stroke-linecap="round" stroke-linejoin="round"/><path d="M105.69 53.88l-2.78-6.23" stroke="#E9FFB4" stroke-width="3" stroke-linecap="round" stroke-linejoin="round"/><path d="M182.11 65.3a19.835 19.835 0 013.15-6.88" stroke="#A3FBFF" stroke-width="3" stroke-linecap="round" stroke-linejoin="round"/><path d="M74.05 37c1.13 4.4 2.14 8.94 1.53 13.44-.61 4.5-3.16 9-7.36 10.71-2.1-.23-3.38-2.71-3-4.78A8.22 8.22 0 0169 51.48c3.58-2.4 8.38-3.48 12.18-1.48 3.8 2 5.56 6.23 5.65 10.35.09 4.12-1.35 8.12-2.91 11.94-1 2.39-2.1 4.88-4.22 6.35-2.12 1.47-5.5 1.44-6.86-.75-1.69-2.7.68-6.07 3.07-8.18 3.81-3.36 9-6.37 13.75-4.6 2.91 1.08 5 3.76 6.18 6.61a20.52 20.52 0 01-1.5 18.74 9.27 9.27 0 01-4.73 4.15c-2 .64-4.63-.13-5.47-2.1a5.22 5.22 0 010-3.63 10.29 10.29 0 0118.2-2.73 17.578 17.578 0 012.48 6.48c1.08 5 1.5 10.121 1.25 15.23" stroke="#FFBAB5" stroke-width="3" stroke-linecap="round" stroke-linejoin="round"/><path d="M56 157.77a75.316 75.316 0 01-11.19-7" stroke="#A3FBFF" stroke-width="3" stroke-linecap="round" stroke-linejoin="round"/><path d="M45.17 195.4a5.162 5.162 0 00-3.82 1.37" stroke="#F8D137" stroke-width="3" stroke-linecap="round" stroke-linejoin="round"/><path d="M66.74 128.57a24.563 24.563 0 00-16.21-5c-2.6.16-5.15.72-7.73 1.09a50.327 50.327 0 01-23.08-2.1" stroke="#85FFD3" stroke-width="3" stroke-linecap="round" stroke-linejoin="round"/><path d="M17.24 182.65l6.9-4" stroke="#FFBAB5" stroke-width="3" stroke-linecap="round" stroke-linejoin="round"/><path d="M10.9 99.76a11.372 11.372 0 005.92 2.15" stroke="#E9FFB4" stroke-width="3" stroke-linecap="round" stroke-linejoin="round"/><path d="M26.91 81.46a12.56 12.56 0 003.83 9.47c3.39 3.23 8.25 4.26 12.7 5.72 5.66 1.86 11.42 5 13.78 10.49" stroke="#F8D137" stroke-width="3" stroke-linecap="round" stroke-linejoin="round"/><path d="M32.77 43.71L38 47.1" stroke="#85FFD3" stroke-width="3" stroke-linecap="round" stroke-linejoin="round"/><path d="M50.4 23.35l1.71 6" stroke="#A3FBFF" stroke-width="3" stroke-linecap="round" stroke-linejoin="round"/><path d="M148 172.41c5.66-3.84 11.46-7.58 17.81-10.11 6.35-2.53 13.36-3.82 20.09-2.62 4 .72 8.6 3.41 8.24 7.48-.21 2.24-2 4.07-3.91 5.17a61.917 61.917 0 01-6.25 2.53c-6.08 2.58-10.63 7.84-14.13 13.44-5.91 9.45-9.26 18.41-8.18 29.5" fill="#D2FD61"/><path d="M148 172.41c5.66-3.84 11.46-7.58 17.81-10.11 6.35-2.53 13.36-3.82 20.09-2.62 4 .72 8.6 3.41 8.24 7.48-.21 2.24-2 4.07-3.91 5.17a61.917 61.917 0 01-6.25 2.53c-6.08 2.58-10.63 7.84-14.13 13.44-5.91 9.45-9.26 18.41-8.18 29.5" stroke="#D2FD61" stroke-width="3" stroke-linecap="round" stroke-linejoin="round"/><path d="M141 115.14A24.093 24.093 0 00118.39 100a111.07 111.07 0 00-13.88.85c-3.13.38-7.11 2.8-8.9 4.59a21.202 21.202 0 00-5.79 12.09c-1.59 10.93-3.49 21.81-5.39 32.69-1.37 7.88-2.75 15.8-5.37 23.36-6.67 19.25-21.29 36.22-21.85 56.59a19.09 19.09 0 001.72 9.43c2.44 4.65 5.38 8 13.28 8h68c10.27 0 15.13.25 19.12-5.06 2-2.69 2.37-6.26 2.63-9.62.76-9.62-.75-18.78-1.8-28.41-1.11-10.27-2.37-20.53-4-30.73-3.23-20.06-7.16-39.93-15.16-58.64z" fill="#D2FD61" stroke="#D2FD61" stroke-width="3" stroke-linecap="round" stroke-linejoin="round"/><path opacity=".2" d="M140.24 247.59c10.27 0 15.13.25 19.12-5.06 2-2.69 2.37-6.26 2.63-9.62a85.499 85.499 0 00-.23-14.32 64.883 64.883 0 00-11.76 2.07c-9.66 2.51-24.12 3.89-34.42 2.67-15.56-1.84-26.17-11.43-33.36-18.68a42.196 42.196 0 01-9.84-16c-6.85 13.51-14.8 26.61-15.21 41.53a19.087 19.087 0 001.72 9.43c2.44 4.65 5.38 8 13.28 8l68.07-.02z" fill="#136D09" stroke="#136D09" stroke-width="3" stroke-linecap="round" stroke-linejoin="round"/><path d="M179.65 162.14c-10.93-.46-18.4-5.72-20.17-17.56a29.647 29.647 0 012.72-17.39c1.59-3.23 9.69-16.65 12.86-20.9.71 0 1.25-.11 2-.11h12a95.939 95.939 0 019.74 13.21c6.13 10.28 13.36 26.39 0 37.73-4.63 3.94-11 5-17.07 5-.68.06-1.38.05-2.08.02z" stroke="#136D09" stroke-width="3" stroke-linecap="round" stroke-linejoin="round"/><path d="M190.18 98.77h-16.12a3.7 3.7 0 00-3.7 3.701v.01a3.7 3.7 0 003.7 3.7h16.12a3.7 3.7 0 003.7-3.7v-.01a3.7 3.7 0 00-3.7-3.7zM175.16 98.73a81.458 81.458 0 01-2.34-6.86 3.741 3.741 0 010-3 3.573 3.573 0 012.62-1.31c1.794-.24 3.6-.38 5.41-.42l8.77-.36c1.17 0 2.66.1 3 1.21.134.633.05 1.292-.24 1.87-1.02 2.76-2.1 5.474-3.24 8.14M183.69 127H180a8.06 8.06 0 00-5.706 2.364 8.076 8.076 0 00-2.364 5.706 8.076 8.076 0 008.07 8.07h3.71M181.04 133.28h-12.17M181.04 137.431h-12.17" stroke="#136D09" stroke-width="3" stroke-linecap="round" stroke-linejoin="round"/><path d="M119.838 137.589a8.634 8.634 0 01-8.935-8.315l-.166-4.627 17.198-.618.166 4.597a8.631 8.631 0 01-8.314 8.935l.051.028z" fill="#136D09" stroke="#136D09" stroke-width="3" stroke-linecap="round" stroke-linejoin="round"/><path d="M111.16 131.12a9.452 9.452 0 0112.237-.023A9.453 9.453 0 01126 134.64a8.625 8.625 0 01-6.19 3 8.617 8.617 0 01-8.65-6.52z" fill="#D2FD61" stroke="#136D09" stroke-width="3" stroke-linecap="round" stroke-linejoin="round"/><path d="M106.1 123.65a3 3 0 00-3.11-2.89 3 3 0 00-2.89 3.11M138.54 122.48a3 3 0 00-3.11-2.89 3 3 0 00-2.89 3.11" stroke="#136D09" stroke-width="3" stroke-linecap="round" stroke-linejoin="round"/><path d="M55.31 249.3h123.72" stroke="#CFD8DC" stroke-width="3" stroke-linecap="round" stroke-linejoin="round"/><path d="M171.09 162.17h18.06" stroke="#136D09" stroke-width="3" stroke-linecap="round" stroke-linejoin="round"/></g><defs><clipPath id="clip0_960_18269"><path fill="#fff" d="M0 0h300v260H0z"/></clipPath></defs></svg>