<svg width="48" height="48" viewBox="0 0 48 48" fill="none" xmlns="http://www.w3.org/2000/svg">
<path fill-rule="evenodd" clip-rule="evenodd" d="M37.6531 27.6412L36.0091 24.4332C35.8631 24.1462 35.8631 23.8082 36.0091 23.5212L37.6531 20.3132L34.6251 18.3562C34.3551 18.1812 34.1851 17.8882 34.1691 17.5662L33.9881 13.9662L30.3881 13.7852C30.0671 13.7692 29.7731 13.6002 29.5981 13.3292L27.6411 10.3022L24.4331 11.9452C24.1471 12.0922 23.8071 12.0922 23.5211 11.9452L20.3131 10.3022L18.3561 13.3292C18.1811 13.6002 17.8881 13.7692 17.5671 13.7852L13.9671 13.9662L13.7851 17.5662C13.7691 17.8882 13.6001 18.1812 13.3301 18.3562L10.3021 20.3132L11.9461 23.5212C12.0921 23.8082 12.0921 24.1462 11.9461 24.4332L10.3021 27.6412L13.3301 29.5982C13.6001 29.7732 13.7691 30.0662 13.7851 30.3882L13.9671 33.9882L17.5671 34.1692C17.8881 34.1852 18.1811 34.3542 18.3561 34.6242L20.3131 37.6522L23.5211 36.0092C23.6641 35.9352 23.8211 35.8992 23.9771 35.8992C24.1341 35.8992 24.2901 35.9352 24.4331 36.0092L27.6411 37.6522L29.5981 34.6242C29.7731 34.3542 30.0671 34.1852 30.3881 34.1692L33.9881 33.9882L34.1691 30.3882C34.1851 30.0662 34.3551 29.7732 34.6251 29.5982L37.6531 27.6412ZM39.8451 20.4202L38.0231 23.9772L39.8451 27.5342C40.0791 27.9912 39.9291 28.5512 39.4981 28.8302L36.1411 30.9992L35.9401 34.9922C35.9151 35.5042 35.5051 35.9142 34.9921 35.9402L31.0001 36.1412L28.8301 39.4972C28.6401 39.7912 28.3201 39.9542 27.9901 39.9542C27.8361 39.9542 27.6801 39.9192 27.5341 39.8452L23.9771 38.0222L20.4201 39.8452C19.9641 40.0782 19.4031 39.9292 19.1241 39.4972L16.9551 36.1412L12.9631 35.9402C12.4501 35.9142 12.0401 35.5042 12.0141 34.9922L11.8141 30.9992L8.45705 28.8302C8.02605 28.5512 7.87605 27.9912 8.11005 27.5342L9.93205 23.9772L8.11005 20.4202C7.87605 19.9632 8.02605 19.4032 8.45705 19.1242L11.8141 16.9542L12.0141 12.9622C12.0401 12.4502 12.4501 12.0392 12.9631 12.0142L16.9551 11.8132L19.1241 8.45617C19.4031 8.02517 19.9641 7.87717 20.4201 8.10917L23.9771 9.93217L27.5341 8.10917C27.9911 7.87717 28.5511 8.02517 28.8301 8.45617L31.0001 11.8132L34.9921 12.0142C35.5051 12.0392 35.9151 12.4502 35.9401 12.9622L36.1411 16.9542L39.4981 19.1242C39.9291 19.4032 40.0791 19.9632 39.8451 20.4202ZM25.3371 20.7069C25.4271 20.6069 25.5371 20.5369 25.6571 20.4869C26.0271 20.3369 26.4671 20.4269 26.7471 20.7069C26.9371 20.8969 27.0471 21.1469 27.0471 21.4169C27.0471 21.6769 26.9371 21.9269 26.7471 22.1169C26.5571 22.3069 26.3071 22.4169 26.0471 22.4169C25.7771 22.4169 25.5271 22.3069 25.3371 22.1169C25.1471 21.9369 25.0471 21.6769 25.0471 21.4169C25.0471 21.2769 25.0671 21.1469 25.1171 21.0269C25.1671 20.9069 25.2471 20.7969 25.3371 20.7069ZM16.4037 25.0959L22.3587 31.0509L29.4177 23.9919L28.8217 18.6329L23.4627 18.0369L16.4037 25.0959ZM23.2057 15.9969L29.8377 16.7339C30.3027 16.7849 30.6697 17.1519 30.7207 17.6169L31.4577 24.2489C31.4917 24.5509 31.3857 24.8509 31.1717 25.0659L23.0657 33.1719C22.8787 33.3599 22.6237 33.4649 22.3587 33.4649C22.0937 33.4649 21.8387 33.3599 21.6517 33.1719L14.2827 25.8029C14.0947 25.6149 13.9897 25.3609 13.9897 25.0959C13.9897 24.8309 14.0947 24.5759 14.2827 24.3889L22.3887 16.2829C22.6027 16.0689 22.9067 15.9629 23.2057 15.9969Z" fill="#253238"/>
</svg>
