<svg width="20" height="20" viewBox="0 0 20 20" fill="none" xmlns="http://www.w3.org/2000/svg">
<path fill-rule="evenodd" clip-rule="evenodd" d="M20 10C20 15.5228 15.5228 20 10 20C4.47715 20 0 15.5228 0 10C0 4.47715 4.47715 0 10 0C15.5228 0 20 4.47715 20 10ZM7.92696 14.4382C7.61454 14.7507 7.10801 14.7507 6.79559 14.4382L4.23431 11.877C3.9219 11.5645 3.9219 11.058 4.23431 10.7456C4.54673 10.4332 5.05327 10.4332 5.36569 10.7456L7.34661 12.7265L13.8681 6.23431C14.1806 5.9219 14.6871 5.9219 14.9995 6.23431C15.3119 6.54673 15.3119 7.05327 14.9995 7.36569L7.92696 14.4382Z" fill="#13C1AC"/>
</svg>
