<svg width="18" height="20" fill="none" xmlns="http://www.w3.org/2000/svg"><path fill-rule="evenodd" clip-rule="evenodd" d="M7.665.852c.292-.31.69-.477 1.126-.477.418 0 .814.172 1.102.478.77.81 1.94 1.325 3.355 1.586a11.444 11.444 0 0 0 2.44.178 1.54 1.54 0 0 1 1.526 1.545v5.504c0 2.498-1.397 5.051-3.659 6.701l-3.911 2.635a1.523 1.523 0 0 1-.85.259h-.058c-.304 0-.6-.091-.854-.262l-3.871-2.626C1.767 14.735.375 12.178.375 9.666V4.162c0-.847.681-1.54 1.556-1.544a11.322 11.322 0 0 0 2.395-.18c1.407-.26 2.57-.776 3.339-1.586Zm.917 17.112a.265.265 0 0 0 .14.048l.05-.001h.026a.27.27 0 0 0 .15-.046l3.89-2.62c1.931-1.41 3.127-3.595 3.127-5.679V4.162c0-.163-.13-.295-.25-.296a12.684 12.684 0 0 1-2.695-.198c-1.651-.305-3.053-.923-4.036-1.958a.26.26 0 0 0-.193-.086.278.278 0 0 0-.218.087c-.981 1.033-2.377 1.65-4.02 1.956a12.561 12.561 0 0 1-2.646.2.292.292 0 0 0-.283.295v5.504c0 2.1 1.192 4.288 3.106 5.685l3.852 2.613Zm3.984-10.84a.617.617 0 0 0-.853.002l-4.008 3.913-1.163-1.144a.614.614 0 0 0-.853-.005.578.578 0 0 0-.005.834l1.59 1.565a.613.613 0 0 0 .857.002l4.437-4.332a.579.579 0 0 0-.002-.834Z" fill="#253238"/></svg>