<svg width="48" height="48" fill="none" xmlns="http://www.w3.org/2000/svg"><path d="M46.5 27.183c.001 1.812-1.538 3.317-3.484 3.317H7.984C6.04 30.5 4.5 28.995 4.5 27.183V5.816C4.5 4.005 6.04 2.5 7.984 2.5h35.032c1.945 0 3.484 1.505 3.484 3.315v21.368Z" fill="#fff" stroke="#CFD8DC"/><path d="M37.894 22.42v-.304h-.079l-.092.209-.09-.209h-.08v.304h.056v-.23l.085.199h.059l.085-.199v.23h.056Zm-.502 0v-.252h.101v-.051h-.259v.051h.102v.252h.056Z" fill="#F79410"/><path d="M28.891 23.736H22.04V11.31h6.852v12.427Z" fill="#FF5F00"/><path d="M22.477 17.524a7.916 7.916 0 0 1 2.99-6.214 7.753 7.753 0 0 0-4.84-1.69c-4.324 0-7.83 3.54-7.83 7.904 0 4.365 3.506 7.904 7.83 7.904a7.753 7.753 0 0 0 4.84-1.69 7.917 7.917 0 0 1-2.99-6.214Z" fill="#EB001B"/><path d="M38.132 17.524c0 4.365-3.506 7.904-7.83 7.904a7.756 7.756 0 0 1-4.841-1.69 7.915 7.915 0 0 0 2.992-6.214 7.915 7.915 0 0 0-2.992-6.214 7.755 7.755 0 0 1 4.84-1.69c4.325 0 7.831 3.54 7.831 7.904Z" fill="#F79E1B"/><path d="M42.5 42.184c.001 1.811-1.538 3.316-3.484 3.316H3.984C2.04 45.5.5 43.995.5 42.184V20.815c0-1.81 1.54-3.315 3.484-3.315h35.032c1.945 0 3.484 1.505 3.484 3.315v21.369Z" fill="#fff" stroke="#CFD8DC"/><path d="M18.763 36.045h-2.415l1.51-9.273h2.415l-1.51 9.273ZM14.316 26.773l-2.304 6.378-.271-1.374-.813-4.17s-.098-.834-1.146-.834H5.974l-.044.156s1.164.242 2.526 1.06l2.098 8.056h2.517l3.843-9.273h-2.598ZM33.317 36.045h2.218L33.6 26.772h-1.943c-.897 0-1.114.692-1.114.692l-3.603 8.581h2.518l.503-1.377h3.07l.285 1.377Zm-2.659-3.28 1.27-3.472.715 3.471h-1.985ZM27.128 29.168l.345-1.992s-1.064-.403-2.173-.403c-1.2 0-4.045.524-4.045 3.07 0 2.395 3.34 2.425 3.34 3.683 0 1.257-2.996 1.033-3.985.24l-.36 2.08s1.078.525 2.726.525 4.136-.853 4.136-3.174c0-2.412-3.37-2.636-3.37-3.684 0-1.049 2.352-.914 3.386-.345Z" fill="#0066B2"/><path d="m11.727 31.659-.82-4.071s-.099-.816-1.156-.816H5.908l-.045.153s1.847.37 3.618 1.757c1.693 1.325 2.246 2.977 2.246 2.977Z" fill="#F9A533"/></svg>