<svg width="48" height="48" fill="none" xmlns="http://www.w3.org/2000/svg"><rect x="18.379" y="5" width="28" height="24" rx="6" fill="#253238"/><rect x="20.309" y="7.001" width="24.138" height="20" rx="4" fill="#F5F7F8"/><path d="M25.7 15.293c-.076.494-.46.494-.832.494h-.211l.148-.924a.117.117 0 0 1 .116-.097h.097c.252 0 .492 0 .614.142.074.085.097.21.068.385ZM25.539 14h-1.4a.194.194 0 0 0-.192.162L23.38 17.7a.116.116 0 0 0 .116.133h.669a.194.194 0 0 0 .192-.162l.152-.954a.193.193 0 0 1 .192-.162h.444c.922 0 1.454-.44 1.593-1.311.063-.382.003-.681-.178-.89-.2-.232-.552-.354-1.021-.354ZM28.786 16.562a.744.744 0 0 1-.757.63c-.194 0-.35-.06-.45-.177a.555.555 0 0 1-.105-.465.747.747 0 0 1 .751-.636c.19 0 .345.063.447.18.102.12.143.285.114.468Zm.934-1.285h-.67a.116.116 0 0 0-.115.097l-.03.185-.047-.067c-.145-.207-.468-.277-.792-.277-.741 0-1.374.553-1.497 1.328-.064.387.027.757.25 1.016.203.237.496.336.844.336.597 0 .928-.379.928-.379l-.03.184a.116.116 0 0 0 .115.134h.604a.193.193 0 0 0 .192-.162l.362-2.262a.114.114 0 0 0-.114-.133ZM33.291 15.276h-.674a.196.196 0 0 0-.16.084l-.93 1.35-.393-1.297a.194.194 0 0 0-.187-.137h-.662a.116.116 0 0 0-.11.153l.741 2.146-.698.97a.115.115 0 0 0 .095.182h.672c.064 0 .124-.031.16-.083l2.241-3.187a.114.114 0 0 0-.095-.18Z" fill="#253238"/><path d="M35.69 15.293c-.077.494-.462.494-.833.494h-.211l.148-.924a.116.116 0 0 1 .115-.097h.097c.253 0 .492 0 .615.142.074.085.096.21.068.385ZM35.526 14h-1.4a.193.193 0 0 0-.192.162L33.37 17.7a.115.115 0 0 0 .114.133h.72a.136.136 0 0 0 .134-.113l.16-1.003a.193.193 0 0 1 .193-.162h.443c.923 0 1.454-.44 1.594-1.311.063-.382.002-.681-.179-.89-.2-.232-.551-.354-1.02-.354ZM38.775 16.562a.744.744 0 0 1-.756.63c-.195 0-.35-.06-.45-.177a.557.557 0 0 1-.106-.465.747.747 0 0 1 .752-.636c.19 0 .345.063.447.18.102.12.142.285.113.468Zm.934-1.285h-.67a.115.115 0 0 0-.115.097l-.03.185-.046-.067c-.145-.207-.469-.277-.792-.277-.742 0-1.374.553-1.497 1.328-.064.387.027.757.25 1.016.204.237.496.336.844.336.597 0 .928-.379.928-.379l-.03.184a.116.116 0 0 0 .116.134h.604a.194.194 0 0 0 .192-.162l.362-2.262a.116.116 0 0 0-.116-.133ZM40.502 14.098l-.575 3.603a.116.116 0 0 0 .115.133h.578a.193.193 0 0 0 .192-.162l.566-3.537a.115.115 0 0 0-.114-.133h-.648a.115.115 0 0 0-.114.096Z" fill="#90A4AE"/><path d="m23.074 17.095 2.007 5.108a4.515 4.515 0 0 1 3.284 4.378V38.44A4.517 4.517 0 0 1 23.805 43H5.56C3.007 43 1 40.993 1 38.44V26.58c0-2.007 1.186-3.649 2.919-4.287l.274-.274 8.665-5.838c.182-.182.456-.182.73-.182.182.091.456.274.547.365l1.642 2.736c.091.092.091.183.091.274l5.93-2.828c.273-.09.455-.09.729 0a.822.822 0 0 1 .547.548Z" fill="#F5F7F8"/><path d="m25.081 22.203-2.007-5.108a.822.822 0 0 0-.547-.548 1.007 1.007 0 0 0-.73 0l-5.929 2.828c0-.091 0-.182-.091-.274l-1.642-2.736a2.831 2.831 0 0 0-.547-.365c-.274 0-.547 0-.73.182L4.193 22.02l-.274.274C2.186 22.932 1 24.574 1 26.58V38.44C1 40.993 3.007 43 5.56 43h18.244a4.517 4.517 0 0 0 4.56-4.56V26.581a4.515 4.515 0 0 0-3.283-4.38Zm-2.098-.183h-8.21l6.933-3.284 1.277 3.284Zm-9.943-3.83 1.095 1.915.091.09-3.648 1.734h-3.01l5.473-3.74Zm10.764 22.986H5.561c-1.55 0-2.737-1.277-2.737-2.737V26.581c0-1.55 1.277-2.736 2.737-2.736h18.243c1.55 0 2.737 1.277 2.737 2.736v3.649h-5.473a3.66 3.66 0 0 0-3.65 3.648 3.66 3.66 0 0 0 3.65 3.649h5.473v.912c0 1.46-1.277 2.737-2.737 2.737Zm2.737-5.473h-5.473a1.83 1.83 0 0 1-1.825-1.825 1.83 1.83 0 0 1 1.825-1.824h5.473v3.649Z" fill="#253238"/></svg>