<svg width="48" height="48" fill="none" xmlns="http://www.w3.org/2000/svg"><path fill-rule="evenodd" clip-rule="evenodd" d="M24.759 24h4.827c.534 0 .966-.447.966-1 0-.553-.432-1-.966-1H24.76c-.534 0-.966.447-.966 1 0 .553.432 1 .966 1Zm8.69 0h.965c.534 0 .965-.447.965-1 0-.553-.431-1-.965-1h-.966c-.534 0-.965.447-.965 1 0 .553.431 1 .965 1Zm10.62.043c0 2.182-1.714 3.957-3.82 3.957H23.751c-2.107 0-3.821-1.775-3.821-3.957V17h24.138v7.043ZM23.752 8h16.496c1.787 0 3.278 1.281 3.695 3H20.058c.416-1.719 1.907-3 3.694-3Zm-3.821 7h24.138v-2H19.931v2Zm20.317-9H23.752C20.58 6 18 8.672 18 11.957v12.086C18 27.328 20.58 30 23.752 30h16.496C43.42 30 46 27.328 46 24.043V11.957C46 8.672 43.42 6 40.248 6Z" fill="#253238"/><path d="m26.2 14.2 2.2 5.6c2.1.6 3.6 2.5 3.6 4.8v13c0 2.8-2.2 5-5 5H7c-2.8 0-5-2.2-5-5v-13c0-2.2 1.3-4 3.2-4.7l.3-.3 9.5-6.4c.2-.2.5-.2.8-.2.2.1.5.3.6.4l1.8 3c.1.1.1.2.1.3l6.5-3.1c.3-.1.5-.1.8 0 .3.1.5.3.6.6Z" fill="#F5F7F8"/><path d="m28.4 19.8-2.2-5.6c-.1-.3-.3-.5-.6-.6-.3-.1-.5-.1-.8 0l-6.5 3.1c0-.1 0-.2-.1-.3l-1.8-3c-.1-.1-.4-.3-.6-.4-.3 0-.6 0-.8.2l-9.5 6.4-.3.3c-1.9.7-3.2 2.5-3.2 4.7v13c0 2.8 2.2 5 5 5h20c2.8 0 5-2.2 5-5v-13c0-2.3-1.5-4.2-3.6-4.8Zm-2.3-.2h-9l7.6-3.6 1.4 3.6Zm-10.9-4.2 1.2 2.1.1.1-4 1.9H9.2l6-4.1ZM27 40.6H7c-1.7 0-3-1.4-3-3v-13c0-1.7 1.4-3 3-3h20c1.7 0 3 1.4 3 3v4h-6c-2.2 0-4 1.8-4 4s1.8 4 4 4h6v1c0 1.6-1.4 3-3 3Zm3-6h-6c-1.1 0-2-.9-2-2s.9-2 2-2h6v4Z" fill="#253238"/></svg>