<svg xmlns="http://www.w3.org/2000/svg" width="18" height="19" viewBox="0 0 18 19">
    <path fill="#90A4AE" fill-rule="evenodd" d="M3.42 14.245c0 .476.342.793.855.793h.855v2.773c0 .634.598 1.189 1.282 1.189s1.283-.555 1.283-1.189v-2.773h1.71v2.773c0 .634.599 1.189 1.283 1.189.683 0 1.282-.555 1.282-1.189v-2.773h.855c.513 0 .855-.317.855-.793V6.32H3.42v7.925zM1.282 6.32C.6 6.32 0 6.875 0 7.51v5.547c0 .634.599 1.189 1.282 1.189.684 0 1.283-.555 1.283-1.189V7.51c0-.634-.599-1.189-1.283-1.189zm14.535 0c-.684 0-1.282.555-1.282 1.189v5.547c0 .634.598 1.189 1.282 1.189s1.283-.555 1.283-1.189V7.51c0-.634-.599-1.189-1.283-1.189zm-4.275-4.596l1.112-1.03a.364.364 0 0 0 0-.555.436.436 0 0 0-.599 0l-1.282 1.188C10.174.931 9.405.773 8.55.773c-.855 0-1.625.158-2.308.475L5.044.06c-.17-.079-.513-.079-.683 0-.086.159-.086.476 0 .634l1.111 1.03c-1.197.872-2.052 2.22-2.052 3.805h10.26a4.495 4.495 0 0 0-2.138-3.804zM6.84 3.943h-.855V3.15h.855v.793zm4.275 0h-.855V3.15h.855v.793z"/>
</svg>
