<svg width="24" height="24" viewBox="0 0 48 48" fill="none" xmlns="http://www.w3.org/2000/svg"><path fill-rule="evenodd" clip-rule="evenodd" d="M14 33.49c0 .952.7 1.586 1.75 1.586h1.75v5.546C17.5 41.89 18.724 43 20.124 43c1.4 0 2.626-1.11 2.626-2.378v-5.546h3.5v5.546c0 1.268 1.226 2.378 2.626 2.378 1.398 0 2.624-1.11 2.624-2.378v-5.546h1.75c1.05 0 1.75-.634 1.75-1.586V17.639H14v15.85zM9.624 17.639c-1.396 0-2.624 1.11-2.624 2.38v11.095c0 1.268 1.226 2.378 2.624 2.378 1.4 0 2.626-1.11 2.626-2.378V20.018c0-1.268-1.226-2.378-2.626-2.378v-.002zm29.75 0c-1.4 0-2.624 1.11-2.624 2.378v11.095c0 1.268 1.224 2.378 2.624 2.378 1.4 0 2.626-1.11 2.626-2.379V20.02c0-1.268-1.226-2.378-2.626-2.378v-.002zm-8.75-9.192l2.276-2.06a.73.73 0 00.263-.555.714.714 0 00-.263-.555.904.904 0 00-1.226 0L29.05 7.653c-1.226-.792-2.8-1.108-4.55-1.108s-3.326.316-4.724.95l-2.452-2.377c-.348-.158-1.05-.158-1.398 0-.176.319-.176.953 0 1.269l2.274 2.06c-2.45 1.744-4.2 4.44-4.2 7.61h21a8.832 8.832 0 00-1.18-4.358 9.086 9.086 0 00-3.196-3.25v-.002zM21 12.885h-1.75v-1.586H21v1.586zm8.75 0H28v-1.586h1.75v1.586z" fill="#90A4AE"/></svg>