<svg width="24" height="24" viewBox="0 0 48 48" fill="none" xmlns="http://www.w3.org/2000/svg"><path fill-rule="evenodd" clip-rule="evenodd" d="M29.85 6H28.04c-1.604 0-2.928.164-4.364.69-2.084.786-5.558 2.942-5.558 9.025v1.583c0 .444-.374.802-.835.802h-.134c-1.578 0-2.986 1.104-3.136 2.61-.172 1.723 1.24 3.175 3.007 3.175h.257c.465 0 .841.361.841.806v15.292c0 1.511 1.154 2.862 2.724 3.003 1.802.165 3.32-1.186 3.32-2.878V24.921c0-.572.483-1.034 1.078-1.034h.439c1.578 0 2.988-1.106 3.136-2.611.174-1.725-1.24-3.176-3.005-3.176h-.574c-.593 0-1.074-.46-1.074-1.028v-1.357c0-3.046 1.201-3.441 1.7-3.628.717-.263 1.312-.3 2.178-.3h1.938c1.767 0 3.179-1.452 3.007-3.178C32.836 7.104 31.428 6 29.85 6z" fill="#90A4AE"/></svg>