<svg xmlns="http://www.w3.org/2000/svg" width="10" height="18"><path fill="#90A4AE" fill-rule="evenodd" d="M7.834 0H6.94c-.793 0-1.447.08-2.157.336-1.03.382-2.747 1.431-2.747 4.39v.77c0 .216-.185.39-.413.39h-.066c-.78 0-1.476.537-1.55 1.27C-.078 7.994.62 8.7 1.493 8.7h.127c.23 0 .416.176.416.392v7.439c0 .735.57 1.392 1.346 1.461.891.08 1.641-.577 1.641-1.4V9.204c0-.278.239-.503.533-.503h.217c.78 0 1.477-.538 1.55-1.27.086-.839-.613-1.545-1.485-1.545h-.284c-.293 0-.531-.224-.531-.5v-.66c0-1.482.594-1.674.84-1.765.355-.128.649-.146 1.077-.146h.958c.873 0 1.571-.706 1.486-1.546C9.31.537 8.614 0 7.834 0"/></svg>