<svg width="24" height="24" viewBox="0 0 48 48" fill="none" xmlns="http://www.w3.org/2000/svg"><path fill-rule="evenodd" clip-rule="evenodd" d="M32.72 4H15.231C7.005 4 4 7.005 4 15.256v17.488C4 40.97 7.005 44 15.256 44h17.488C40.97 44 44 40.995 44 32.743V15.257C43.975 7.005 40.97 4 32.72 4z" fill="#90A4AE"/><path d="M11.907 26.093h-2.39V24H8.458v5.222h1.059v-2.119h2.39v2.119h1.058V24h-1.058v2.093zm5.985.887c0 .837-.42 1.306-1.183 1.306-.763 0-1.207-.469-1.207-1.33V24h-1.059v2.98c0 1.478.813 2.316 2.242 2.316 1.428 0 2.266-.863 2.266-2.365v-2.956h-1.06v3.005zm12.241.616L28.95 24h-.862l-1.181 3.596L25.748 24h-1.133l1.823 5.222h.887l1.183-3.449 1.182 3.449h.887L32.398 24H31.29l-1.158 3.596h.001zM39.493 24h-1.035v5.222h1.035V24zm-5.197 2.956h1.946v-.936h-1.946v-1.083h2.808V24h-3.843v5.222h3.941v-.961h-2.906v-1.305zM21.783 24l-2.29 5.222h1.083l.468-1.084h2.39l.468 1.084h1.108L22.72 24h-.937zm-.345 3.177l.789-1.872.812 1.872h-1.6zm8.252-16.502a5.718 5.718 0 01-5.715 5.714 5.718 5.718 0 01-5.714-5.714h-.936a6.654 6.654 0 006.65 6.65 6.654 6.654 0 006.65-6.65h-.935z" fill="#fff"/></svg>