<svg width="48" height="48" fill="none" xmlns="http://www.w3.org/2000/svg"><path fill-rule="evenodd" clip-rule="evenodd" d="M34.463 0H13.478C3.606 0 0 3.606 0 13.507v20.986C0 44.364 3.606 48 13.507 48h20.986C44.364 48 48 44.394 48 34.492V13.508C47.97 3.606 44.364 0 34.463 0z" fill="#90A4AE"/><path d="M9.488 26.512H6.62V24H5.35v6.266h1.27v-2.542h2.868v2.542h1.27V24h-1.27v2.512zM16.67 27.576c0 1.005-.503 1.567-1.419 1.567s-1.448-.562-1.448-1.596V24h-1.271v3.576c0 1.774.975 2.779 2.69 2.779 1.714 0 2.719-1.035 2.719-2.838V23.97H16.67v3.606zM31.36 28.315L29.94 24h-1.034l-1.418 4.315L26.098 24h-1.36l2.188 6.266h1.064l1.419-4.138 1.419 4.138h1.064L34.078 24h-1.33l-1.39 4.315zM42.591 24H41.35v6.266h1.241V24zM36.355 27.547h2.335v-1.123h-2.335v-1.3h3.37V24h-4.612v6.266h4.73v-1.153h-3.488v-1.566zM21.34 24l-2.749 6.266h1.3l.562-1.3h2.867l.562 1.3h1.33L22.463 24H21.34zm-.414 3.813l.946-2.247.975 2.247h-1.92zM30.828 8.01a6.862 6.862 0 01-6.858 6.857 6.862 6.862 0 01-6.857-6.857H15.99a7.985 7.985 0 007.98 7.98 7.985 7.985 0 007.98-7.98h-1.122z" fill="#fff"/></svg>