<?xml version="1.0" encoding="UTF-8"?>
<svg width="18px" height="18px" viewBox="0 0 18 18" version="1.1" xmlns="http://www.w3.org/2000/svg" xmlns:xlink="http://www.w3.org/1999/xlink">
    <!-- Generator: Sketch 47.1 (45422) - http://www.bohemiancoding.com/sketch -->
    <title>ic_ig</title>
    <desc>Created with Sketch.</desc>
    <defs></defs>
    <g id="Footer" stroke="none" stroke-width="1" fill="none" fill-rule="evenodd">
        <g id="Home---Footer-v2" transform="translate(-1292.000000, -533.000000)" fill="#90A4AE">
            <g id="Group-12" transform="translate(1284.000000, 525.000000)">
                <path d="M8,13.4983997 C8,10.4617174 10.452633,8 13.4982822,8 L17.4285714,8 L20.4988436,8 C23.5370484,8 26,10.4650812 26,13.4983997 L26,20.5016003 C26,23.5382826 23.5349188,26 20.5016003,26 L13.4983997,26 C10.4617174,26 8,23.5349188 8,20.5016003 L8,13.4983997 Z M21.7142857,11.6428571 C21.7142857,12.2345313 22.1940401,12.7142857 22.7857143,12.7142857 C23.3773884,12.7142857 23.8571429,12.2345313 23.8571429,11.6428571 C23.8571429,11.051183 23.3773884,10.5714286 22.7857143,10.5714286 C22.1940401,10.5714286 21.7142857,11.051183 21.7142857,11.6428571 Z M11.8571429,17.4285714 C11.8571429,20.268893 14.1596784,22.5714286 17,22.5714286 C19.8403216,22.5714286 22.1428571,20.268893 22.1428571,17.4285714 C22.1428571,14.5882499 19.8403216,12.2857143 17,12.2857143 C14.1596784,12.2857143 11.8571429,14.5882499 11.8571429,17.4285714 Z M20.4285714,17.4285714 C20.4285714,19.3221191 18.8935477,20.8571429 17,20.8571429 C15.1064523,20.8571429 13.5714286,19.3221191 13.5714286,17.4285714 C13.5714286,15.5350237 15.1064523,14 17,14 C18.8935477,14 20.4285714,15.5350237 20.4285714,17.4285714 Z" id="ic_ig"></path>
            </g>
        </g>
    </g>
</svg>