<svg width="24" height="24" viewBox="0 0 48 48" fill="none" xmlns="http://www.w3.org/2000/svg"><path fill-rule="evenodd" clip-rule="evenodd" d="M4 16.218A12.207 12.207 0 0116.218 4h15.555A12.227 12.227 0 0144 16.218v15.564A12.222 12.222 0 0131.782 44H16.218A12.222 12.222 0 014 31.782V16.218zm30.476-4.122a2.38 2.38 0 003.31 2.266 2.384 2.384 0 00.73-3.904 2.382 2.382 0 00-4.04 1.638zM12.57 24.953a11.429 11.429 0 1022.858 0 11.429 11.429 0 00-22.858 0zm19.049 0a7.62 7.62 0 11-15.24 0 7.62 7.62 0 0115.24 0z" fill="#90A4AE"/></svg>