<svg width="23" height="29" fill="none" xmlns="http://www.w3.org/2000/svg"><path d="M23 21.74c-.076.215-.15.447-.235.674-.705 1.908-1.775 3.603-3.073 5.155-.251.303-.543.576-.844.83-.596.505-1.282.81-2.075.837a4.16 4.16 0 01-1.719-.313c-.4-.163-.792-.346-1.197-.493-1.314-.477-2.621-.414-3.914.096-.466.185-.926.389-1.4.549-.551.184-1.122.259-1.704.15-.507-.096-.951-.332-1.363-.637-.512-.378-.941-.84-1.343-1.328C2.23 24.94.954 22.318.338 19.38c-.266-1.263-.393-2.537-.315-3.828.091-1.548.45-3.022 1.278-4.35 1.038-1.67 2.503-2.764 4.43-3.215 1.158-.273 2.285-.161 3.39.264.582.223 1.165.443 1.749.662a2.198 2.198 0 001.611-.004c.596-.227 1.193-.454 1.791-.676.613-.223 1.237-.406 1.888-.458a7.09 7.09 0 012.848.357 6.238 6.238 0 013.18 2.344c.022.03.046.065.062.09-2.03 1.415-3.186 3.284-3.018 5.815.17 2.533 1.533 4.246 3.768 5.358zM11.613 7.46c.599.016 1.175-.099 1.73-.32 2.528-1.003 3.85-3.678 3.81-5.724-.003-.165-.014-.33-.021-.52-.26.038-.497.057-.725.114-1.846.453-3.267 1.483-4.2 3.15-.547.978-.851 2.015-.758 3.149.006.12.05.15.164.151z" fill="#90A4AE"/></svg>