<svg width="24" height="24" viewBox="0 0 48 48" fill="none" xmlns="http://www.w3.org/2000/svg"><path d="M41 33.848c-.112.318-.222.661-.347.997-1.043 2.824-2.624 5.333-4.543 7.63a9.891 9.891 0 01-1.248 1.228c-.88.747-1.895 1.198-3.067 1.238a6.142 6.142 0 01-2.541-.463c-.592-.241-1.171-.512-1.77-.73-1.942-.705-3.875-.612-5.786.143-.689.273-1.369.575-2.07.812-.814.272-1.658.383-2.518.222-.75-.142-1.406-.491-2.015-.943-.757-.559-1.391-1.243-1.986-1.965-2.813-3.433-4.7-7.314-5.61-11.662-.393-1.869-.58-3.754-.465-5.665.134-2.291.665-4.472 1.889-6.438 1.534-2.471 3.7-4.09 6.549-4.758 1.711-.404 3.377-.238 5.011.39.86.331 1.722.657 2.585.98.766.3 1.617.298 2.382-.005.881-.336 1.764-.672 2.648-1 .906-.33 1.828-.602 2.79-.678a10.47 10.47 0 014.21.528 9.223 9.223 0 014.793 3.602c-3 2.094-4.71 4.86-4.461 8.606.251 3.748 2.266 6.284 5.57 7.93zM24.167 12.714a6.388 6.388 0 002.557-.473c3.737-1.485 5.692-5.443 5.632-8.471-.004-.245-.02-.489-.03-.77-.385.056-.735.084-1.072.169-2.73.67-4.83 2.194-6.21 4.662-.808 1.447-1.257 2.982-1.12 4.66.01.177.074.222.243.223z" fill="#90A4AE"/></svg>