<svg width="24" height="24" viewBox="0 0 48 48" fill="none" xmlns="http://www.w3.org/2000/svg"><path fill-rule="evenodd" clip-rule="evenodd" d="M38.735 12.066l-1.518.01h-.292A9.862 9.862 0 0030.863 10c-4.562 0-8.475 3.184-9.514 7.416A15.404 15.404 0 0113.5 12.36a3.28 3.28 0 00-1.305-.942 3.303 3.303 0 00-1.6-.21 3.23 3.23 0 00-1.505.58 3.2 3.2 0 00-1.031 1.234c-3.592 7.551-1.822 13.139.296 16.497.745 1.18 1.66 2.28 2.693 3.248-.239.017-.479.025-.718.026a3.293 3.293 0 00-2.32.942 3.25 3.25 0 00-.974 2.295c0 2.58 3.026 3.924 4.165 4.43 1.579.702 4.182 1.54 7.604 1.54 8.216 0 13.378-3.848 16.26-7.076 3.564-3.99 5.605-9.279 5.605-14.51l-.002-.389.208-.64c.374-1.155.563-1.74.97-3.147.1-.312.153-.64.153-.972 0-1.762-1.452-3.198-3.265-3.198v-.002z" fill="#90A4AE"/></svg>