<svg xmlns="http://www.w3.org/2000/svg" width="18" height="16"><path fill="#90A4AE" fill-rule="evenodd" d="M16.26 1.033l-.754.005h-.145A4.878 4.878 0 0012.35 0c-2.266 0-4.21 1.592-4.726 3.708A7.647 7.647 0 013.726 1.18 1.63 1.63 0 002.283.604a1.598 1.598 0 00-1.26.907C-.761 5.287.118 8.081 1.17 9.76c.37.59.825 1.14 1.338 1.624a5.014 5.014 0 01-.357.013 1.63 1.63 0 00-1.636 1.619c0 1.29 1.503 1.962 2.069 2.215.784.351 2.077.77 3.777.77 4.081 0 6.645-1.924 8.077-3.538 1.77-1.995 2.784-4.64 2.784-7.256l-.001-.194.103-.32c.186-.578.28-.87.482-1.574.05-.156.076-.32.076-.486 0-.881-.721-1.599-1.622-1.599z"/></svg>