<svg width="108" height="138" fill="none" xmlns="http://www.w3.org/2000/svg"><path opacity=".33" d="m65.566 86.27-7.89-6.168-.382-.386a2.93 2.93 0 0 1 .46-1.002c.612-1.08 1.378-2.004 2.297-2.544l.23.077 7.89 6.168 3.6 2.775 3.523 6.09-6.74-1.773-2.988-3.238z" fill="#CFD8DC"/><path d="m71.694 86.27 3.6 4.317-6.128-1.388 2.528-2.93z" fill="#fff"/><path opacity=".33" d="m17.694 42.017-7.89-6.168-.23-.077c-.919.54-1.761 1.465-2.297 2.544-.154.308-.307.617-.46 1.002l.383.386 7.89 6.167" fill="#CFD8DC"/><path d="M11.796 136.535h61.506m4.826 0h5.208" stroke="#ECEFF1" stroke-width="3" stroke-miterlimit="10" stroke-linecap="round" stroke-linejoin="round"/><path opacity=".3" fill-rule="evenodd" clip-rule="evenodd" d="M89.694 22.203a.58.58 0 0 0 .382-.54.58.58 0 0 0-.382-.539l-.92-.308a3.124 3.124 0 0 1-1.838-1.85l-.306-.926a.576.576 0 0 0-.536-.385c-.23 0-.46.154-.537.385l-.306.925a3.124 3.124 0 0 1-1.838 1.85l-.92.31a.58.58 0 0 0-.382.539.58.58 0 0 0 .383.54l.919.308a3.123 3.123 0 0 1 1.838 1.85l.306.925a.576.576 0 0 0 .537.386c.23 0 .46-.154.536-.386l.306-.925a3.123 3.123 0 0 1 1.838-1.85l.92-.309zm-45.269-4.548c-.153.077-.306.23-.306.385 0 .154.153.386.306.386l.69.23c.69.232 1.225.772 1.455 1.466l.23.694c.077.154.23.308.383.308s.383-.154.383-.308l.23-.694a2.301 2.301 0 0 1 1.455-1.465l.69-.231c.153-.077.306-.232.306-.386s-.153-.385-.307-.385l-.689-.232a2.301 2.301 0 0 1-1.455-1.464l-.23-.694c-.077-.155-.23-.309-.383-.309s-.383.155-.383.309l-.23.694a2.301 2.301 0 0 1-1.455 1.464l-.69.232z" fill="#CFD8DC"/><path opacity=".5" fill-rule="evenodd" clip-rule="evenodd" d="M83.336 34.924c.383-.154.613-.462.613-.925s-.23-.771-.613-.925l-1.532-.54a5.319 5.319 0 0 1-3.14-3.16l-.536-1.543c-.153-.385-.46-.616-.92-.616a.995.995 0 0 0-.919.616l-.536 1.542a5.32 5.32 0 0 1-3.14 3.161l-1.532.54c-.383.154-.613.462-.613.925 0 .462.23.77.613.925l1.532.54a5.319 5.319 0 0 1 3.14 3.16l.536 1.542c.154.386.46.617.92.617a.995.995 0 0 0 .919-.617l.536-1.541a5.319 5.319 0 0 1 3.14-3.161l1.532-.54z" fill="#ECEFF1"/><path d="M27.88 128.132v7.17m28.341-6.862v7.17M24.817 87.194c-4.06 6.168-6.587 14.494-6.587 23.668 0 10.794 8.655 19.506 19.379 19.506H46.8c10.724 0 19.379-8.712 19.379-19.506 0-9.174-2.528-17.5-6.587-23.668" stroke="#90A4AE" stroke-width="3" stroke-miterlimit="10" stroke-linecap="round" stroke-linejoin="round"/><path d="M55.455 32.842c-3.983-1.927-8.502-2.93-13.25-2.93-17.158 0-31.099 14.032-31.099 31.301 0 17.27 13.94 31.301 31.098 31.301M66.332 80.95a31.253 31.253 0 0 0 6.97-19.737c0-10.407-4.979-19.582-12.715-25.287M42.204 92.514a30.79 30.79 0 0 0 19.992-7.324m-2.451 2.004s10.723 11.487 10.723 36.004m-51.702-20.353c-1.379 5.088-2.374 11.333-2.374 18.811" stroke="#90A4AE" stroke-width="3" stroke-miterlimit="10" stroke-linecap="round" stroke-linejoin="round"/><path d="m57.523 40.166 8.58-18.348c4.442 1.002 9.19-1.234 11.182-5.551 1.915-4.086.843-8.866-2.298-11.718l-3.14 6.707c-.843 1.773-2.987 2.544-4.75 1.542-1.225-.694-1.608-2.159-1.071-3.392l3.523-7.479C65.183 1.311 60.74 3.7 58.902 8.095c-1.761 4.24-.383 9.097 3.064 11.795l-8.349 17.886m-46.34 1.697 7.889 6.167m2.528-3.855L9.88 35.618m50.171 40.86L72 85.576l3.294 5.01-5.822-1.156-12.715-9.714" stroke="#90A4AE" stroke-width="3" stroke-miterlimit="10" stroke-linecap="round" stroke-linejoin="round"/><path d="M60.204 42.865c-3.293-3.315-7.583-5.705-12.255-6.785m15.166 10.485c-.153-.154-.23-.385-.383-.54" stroke="#90A4AE" stroke-width="2.5" stroke-miterlimit="10" stroke-linecap="round" stroke-linejoin="round"/><path fill-rule="evenodd" clip-rule="evenodd" d="M21.907 63.526a2.23 2.23 0 0 0-2.222-2.236 2.23 2.23 0 0 0-2.221 2.236 2.23 2.23 0 0 0 2.221 2.236 2.23 2.23 0 0 0 2.222-2.236zm25.046 0a2.23 2.23 0 0 0-2.221-2.236 2.23 2.23 0 0 0-2.221 2.236 2.23 2.23 0 0 0 2.22 2.236 2.23 2.23 0 0 0 2.222-2.236z" fill="#90A4AE"/><path d="M29.796 67.304h5.132m18.689 13.877a24.602 24.602 0 0 0 7.583-7.324M9.345 41.785c-2.681 2.159-5.515 2.93-6.894 1.697-1.761-1.542-.536-5.783 2.681-9.406 3.217-3.624 7.2-5.243 8.962-3.7 1.302 1.156.919 3.777-.613 6.552" stroke="#90A4AE" stroke-width="3" stroke-miterlimit="10" stroke-linecap="round" stroke-linejoin="round"/><path d="M6.894 39.087c.076-.308.23-.694.46-1.002.612-1.08 1.378-2.005 2.297-2.544" stroke="#90A4AE" stroke-width="3" stroke-miterlimit="10" stroke-linecap="round" stroke-linejoin="round"/><path opacity=".33" fill-rule="evenodd" clip-rule="evenodd" d="M107.311 65.685c.076 0 .153-.154.153-.231 0-.077-.077-.231-.153-.231l-.46-.155c-.383-.154-.766-.462-.919-.925l-.153-.462c0-.078-.153-.155-.23-.155-.077 0-.23.077-.23.155l-.153.462c-.153.386-.46.771-.919.925l-.46.154c-.076 0-.153.155-.153.232 0 .077.077.231.153.231l.46.154c.383.154.766.463.919.925l.153.463c0 .077.153.154.23.154.077 0 .23-.077.23-.154l.153-.463c.153-.385.46-.77.919-.925l.46-.154z" fill="#FFF100"/><path opacity=".33" d="m53.617 38.008 8.426-17.963c-3.447-2.776-4.826-7.633-3.064-11.796 1.838-4.394 6.28-6.707 10.647-6.167L66.102 9.56c-.613 1.233-.153 2.775 1.072 3.392 1.762 1.002 3.907.231 4.75-1.542l3.14-6.707c3.14 2.93 4.213 7.632 2.298 11.718-2.068 4.318-6.74 6.553-11.183 5.551L57.6 40.321l-3.983-2.313z" fill="#90A4AE"/><path opacity=".3" d="M26.732 105.543v3.315m0 4.317v.694" stroke="#90A4AE" stroke-width="3" stroke-miterlimit="10" stroke-linecap="round" stroke-linejoin="round"/><path opacity=".3" d="M57.294 50.035v.694m-3.371-3.547v5.782m0 4.78v.463" stroke="#56ACFF" stroke-width="3" stroke-miterlimit="10" stroke-linecap="round" stroke-linejoin="round"/><path d="M55.072 106.699s.843 5.628-.153 11.025m-1.379-7.632 3.677-.386m-3.753 4.163 3.753.155" stroke="#ECEFF1" stroke-width="3" stroke-miterlimit="10" stroke-linecap="round" stroke-linejoin="round"/></svg>