<svg width="48" height="48" viewBox="0 0 48 48" fill="none" xmlns="http://www.w3.org/2000/svg"><path fill-rule="evenodd" clip-rule="evenodd" d="M24 44.8c11.469 0 20.8-9.331 20.8-20.8 0-11.469-9.331-20.8-20.8-20.8C12.531 3.2 3.2 12.531 3.2 24c0 11.469 9.331 20.8 20.8 20.8zM24 0c13.234 0 24 10.766 24 24S37.234 48 24 48 0 37.234 0 24 10.766 0 24 0zm3.497 24.292l2.494-2.237-3.334-.345a1.603 1.603 0 01-1.298-.944L24 17.702l-1.358 3.064a1.603 1.603 0 01-1.298.944l-3.334.345 2.494 2.237c.427.383.616.965.495 1.525l-.701 3.278 2.9-1.68a1.6 1.6 0 011.604 0l2.902 1.68-.702-3.278c-.12-.56.069-1.142.496-1.525zm6.413-5.05a1.6 1.6 0 01.902 2.783l-4.488 4.03 1.262 5.9a1.601 1.601 0 01-2.366 1.718L24 30.649l-5.22 3.024a1.6 1.6 0 01-2.366-1.718l1.262-5.9-4.488-4.03a1.603 1.603 0 01-.454-1.685 1.603 1.603 0 011.356-1.097l6-.621 2.447-5.515a1.601 1.601 0 012.926 0l2.447 5.515 6 .62zm.826 16.422c.144.16.256.32.336.528.08.192.128.4.128.608 0 .208-.048.416-.128.608a1.87 1.87 0 01-.336.528 1.59 1.59 0 01-1.744.336 1.848 1.848 0 01-.528-.336 1.87 1.87 0 01-.336-.528c-.08-.192-.128-.4-.128-.608 0-.208.048-.416.128-.608.08-.208.192-.368.336-.528.592-.592 1.664-.592 2.272 0zm5.664-17.6c.288.302.464.72.464 1.136 0 .43-.162.83-.464 1.136a1.59 1.59 0 01-1.136.464 1.59 1.59 0 01-1.136-.464 1.589 1.589 0 01-.464-1.136c0-.416.174-.834.464-1.136.08-.064.16-.144.238-.192.098-.064.194-.112.29-.144a1.09 1.09 0 01.288-.098 1.634 1.634 0 011.456.434zM22.864 9.136a2.437 2.437 0 01-.354-.528c-.08-.192-.11-.4-.11-.608 0-.208.03-.416.128-.608.08-.208.192-.368.336-.528.16-.144.32-.256.528-.336.288-.128.608-.16.91-.096a.975.975 0 01.306.096c.094.032.192.08.272.144.094.048.176.128.256.192.144.16.256.32.336.528.08.192.128.4.128.608 0 .208-.048.416-.128.608a1.87 1.87 0 01-.336.528 1.87 1.87 0 01-.528.336 1.585 1.585 0 01-1.744-.336zm-12.656 9.456c.048.096.08.192.096.288.016.112.032.223.032.32 0 .208-.032.416-.112.608a2.375 2.375 0 01-.352.528 1.59 1.59 0 01-1.136.464 1.59 1.59 0 01-1.136-.464 1.87 1.87 0 01-.336-.528c-.08-.192-.128-.4-.128-.608 0-.416.174-.833.464-1.136.592-.592 1.664-.592 2.272 0 .064.08.144.16.192.239.064.097.11.192.144.29zm5.328 17.072c.144.16.256.32.336.528.08.192.128.4.128.608 0 .208-.048.416-.128.608a1.87 1.87 0 01-.336.528 1.59 1.59 0 01-1.136.464 1.59 1.59 0 01-1.136-.464 1.87 1.87 0 01-.336-.528 1.342 1.342 0 01-.128-.608c0-.208.032-.416.128-.608.08-.208.192-.368.336-.528a1.6 1.6 0 011.438-.434c.114.018.208.05.306.098.094.032.192.08.272.144.094.048.176.128.256.192z" fill="#000"/></svg>