<svg width="42" height="48" viewBox="0 0 42 48" fill="none" xmlns="http://www.w3.org/2000/svg"><path fill-rule="evenodd" clip-rule="evenodd" d="M39 39.535V16.5H3v23.035A5.47 5.47 0 008.464 45h25.071A5.47 5.47 0 0039 39.535zM3 12.963v.537h36v-.537A5.469 5.469 0 0033.535 7.5H33V9a1.5 1.5 0 11-3 0V7.5H12V9a1.5 1.5 0 11-3 0V7.5h-.536A5.469 5.469 0 003 12.963zM33.535 4.5C38.204 4.5 42 8.296 42 12.963v26.572C42 44.203 38.203 48 33.535 48H8.465C3.797 48 0 44.202 0 39.535V12.963C0 8.297 3.796 4.5 8.464 4.5H9v-3C9 .67 9.67 0 10.5 0S12 .67 12 1.5v3h18v-3c0-.83.67-1.5 1.5-1.5S33 .67 33 1.5v3h.535zM9 24c-.83 0-1.5-.671-1.5-1.5 0-.83.67-1.5 1.5-1.5h3c.83 0 1.5.67 1.5 1.5 0 .829-.67 1.5-1.5 1.5H9zm10.5 0c-.83 0-1.5-.671-1.5-1.5 0-.83.67-1.5 1.5-1.5h3c.83 0 1.5.67 1.5 1.5 0 .829-.67 1.5-1.5 1.5h-3zM30 24c-.83 0-1.5-.671-1.5-1.5 0-.83.67-1.5 1.5-1.5h3c.83 0 1.5.67 1.5 1.5 0 .829-.67 1.5-1.5 1.5h-3zM9 31.5c-.83 0-1.5-.671-1.5-1.5 0-.83.67-1.5 1.5-1.5h3c.83 0 1.5.67 1.5 1.5 0 .829-.67 1.5-1.5 1.5H9zm10.5 0c-.83 0-1.5-.671-1.5-1.5 0-.83.67-1.5 1.5-1.5h3c.83 0 1.5.67 1.5 1.5 0 .829-.67 1.5-1.5 1.5h-3zm10.5 0c-.83 0-1.5-.671-1.5-1.5 0-.83.67-1.5 1.5-1.5h3c.83 0 1.5.67 1.5 1.5 0 .829-.67 1.5-1.5 1.5h-3zM9 39c-.83 0-1.5-.671-1.5-1.5 0-.83.67-1.5 1.5-1.5h3c.83 0 1.5.67 1.5 1.5 0 .829-.67 1.5-1.5 1.5H9zm10.5 0c-.83 0-1.5-.671-1.5-1.5 0-.83.67-1.5 1.5-1.5h3c.83 0 1.5.67 1.5 1.5 0 .829-.67 1.5-1.5 1.5h-3zM30 39c-.83 0-1.5-.671-1.5-1.5 0-.83.67-1.5 1.5-1.5h3c.83 0 1.5.67 1.5 1.5 0 .829-.67 1.5-1.5 1.5h-3z" fill="#000"/></svg>