<svg width="48" height="48" viewBox="0 0 48 48" fill="none" xmlns="http://www.w3.org/2000/svg"><path fill-rule="evenodd" clip-rule="evenodd" d="M24 45c11.58 0 21-9.42 21-21S35.58 3 24 3 3 12.42 3 24s9.42 21 21 21zm0-45c13.233 0 24 10.767 24 24S37.233 48 24 48 0 37.233 0 24 10.767 0 24 0zm0 40.5c9.097 0 16.5-7.403 16.5-16.5 0-9.098-7.403-16.5-16.5-16.5-9.098 0-16.5 7.402-16.5 16.5 0 9.097 7.402 16.5 16.5 16.5zm0-36c10.752 0 19.5 8.748 19.5 19.5S34.752 43.5 24 43.5 4.5 34.752 4.5 24 13.248 4.5 24 4.5zM24 15a1.5 1.5 0 100 3 1.5 1.5 0 000-3zm0 6a4.505 4.505 0 01-4.5-4.5c0-2.481 2.019-4.5 4.5-4.5s4.5 2.019 4.5 4.5S26.481 21 24 21zm7.5 4.5a1.5 1.5 0 100-3 1.5 1.5 0 000 3zm0-6c2.481 0 4.5 2.019 4.5 4.5s-2.019 4.5-4.5 4.5A4.505 4.505 0 0127 24c0-2.481 2.019-4.5 4.5-4.5zM24 33a1.5 1.5 0 100-3 1.5 1.5 0 000 3zm0-6c2.481 0 4.5 2.019 4.5 4.5S26.481 36 24 36a4.505 4.505 0 01-4.5-4.5c0-2.481 2.019-4.5 4.5-4.5zm-7.5-1.5a1.5 1.5 0 100-3 1.5 1.5 0 000 3zM21 24c0 2.481-2.019 4.5-4.5 4.5A4.505 4.505 0 0112 24c0-2.481 2.019-4.5 4.5-4.5S21 21.519 21 24z" fill="#000"/></svg>