<svg width="48" height="47" viewBox="0 0 48 47" fill="none" xmlns="http://www.w3.org/2000/svg"><path fill-rule="evenodd" clip-rule="evenodd" d="M35.245 14.47a1.596 1.596 0 110-3.192 1.596 1.596 0 010 3.192zm9.51 4.822a1.889 1.889 0 01-.581 1.349l-7.333 6.95v-9.929c0-.099-.038-.183-.056-.277a4.778 4.778 0 003.249-4.511 4.794 4.794 0 00-4.789-4.789 4.794 4.794 0 00-4.788 4.789c0 2.097 1.364 3.866 3.248 4.51-.016.096-.056.18-.056.278v12.953L20.632 42.953a1.857 1.857 0 01-2.601-.038L3.739 28.625a1.863 1.863 0 01.035-2.674L27.245 3.758c.348-.33.802-.461 1.282-.461h.013l14.415.032a1.842 1.842 0 011.853 1.845l-.053 14.118zm-4.721 22.314a1.596 1.596 0 11-3.193 0v-9.622l3.193-3.026v12.648zm2.94-41.52L28.56.006c-1.282-.069-2.558.482-3.51 1.388L1.578 23.634A5.024 5.024 0 000 27.236a5.008 5.008 0 001.481 3.644l14.292 14.29a5.032 5.032 0 003.575 1.494 5.037 5.037 0 003.48-1.398L33.65 35.009v6.594a4.793 4.793 0 004.788 4.788 4.795 4.795 0 004.788-4.788V25.935l3.142-2.98a5.075 5.075 0 001.58-3.65L48 5.16A5.064 5.064 0 0042.974.084v.002z" fill="#000"/></svg>