<svg width="48" height="45" viewBox="0 0 48 45" fill="none" xmlns="http://www.w3.org/2000/svg"><path d="M14.855 13.992c0-5.145 4.104-9.329 9.144-9.329 5.044 0 9.143 4.184 9.143 9.329 0 5.143-4.099 9.327-9.143 9.327-5.04 0-9.143-4.184-9.143-9.327zM47.834 41.09c-2.54-6.329-8.08-13.005-15.434-16.06a14.058 14.058 0 005.316-11.04C37.712 6.277 31.56 0 23.998 0c-7.565 0-13.715 6.275-13.715 13.992a14.056 14.056 0 005.32 11.04C8.247 28.085 2.707 34.762.168 41.093a2.37 2.37 0 00.31 2.31 2.265 2.265 0 003.924-.548c2.872-7.161 10.225-14.873 19.596-14.873 9.372 0 16.727 7.712 19.597 14.876.479 1.193 1.813 1.764 2.982 1.274a2.35 2.35 0 001.25-3.042" fill="#000"/></svg>