<svg width="28" height="28" viewBox="0 0 28 28" fill="none" xmlns="http://www.w3.org/2000/svg">
<path fill-rule="evenodd" clip-rule="evenodd" d="M14.2578 8.14331L17.3419 11.753C17.3927 11.8123 17.4253 11.8849 17.4361 11.9622C17.4468 12.0396 17.4352 12.1183 17.4025 12.1892C17.3698 12.2601 17.3175 12.3202 17.2518 12.3623C17.1861 12.4044 17.1096 12.4267 17.0316 12.4267H10.8634C10.7854 12.4267 10.7089 12.4044 10.6432 12.3623C10.5775 12.3202 10.5252 12.2601 10.4925 12.1892C10.4599 12.1183 10.4482 12.0396 10.4589 11.9622C10.4697 11.8849 10.5023 11.8123 10.5531 11.753L13.6372 8.14331C13.6755 8.09849 13.7231 8.0625 13.7767 8.03782C13.8302 8.01314 13.8885 8.00037 13.9475 8.00037C14.0065 8.00037 14.0648 8.01314 14.1183 8.03782C14.1719 8.0625 14.2195 8.09849 14.2578 8.14331V8.14331ZM13.6372 19.9552L10.5525 16.345C10.5018 16.2857 10.4691 16.213 10.4584 16.1357C10.4476 16.0584 10.4593 15.9796 10.4919 15.9087C10.5246 15.8378 10.5769 15.7778 10.6426 15.7357C10.7084 15.6936 10.7848 15.6712 10.8628 15.6712H17.031C17.1091 15.6712 17.1855 15.6936 17.2512 15.7357C17.317 15.7778 17.3693 15.8378 17.4019 15.9087C17.4346 15.9796 17.4462 16.0584 17.4355 16.1357C17.4247 16.213 17.3921 16.2857 17.3413 16.345L14.2573 19.9546C14.2189 19.9995 14.1713 20.0355 14.1178 20.0601C14.0642 20.0848 14.0059 20.0976 13.9469 20.0976C13.8879 20.0976 13.8297 20.0848 13.7761 20.0601C13.7225 20.0355 13.6749 19.9995 13.6366 19.9546L13.6372 19.9552Z" fill="#253238" fill-opacity="0.69"/>
</svg>
