<svg width="48" height="31" viewBox="0 0 48 31" fill="none" xmlns="http://www.w3.org/2000/svg"><path fill-rule="evenodd" clip-rule="evenodd" d="M24 0c13.233 0 24 10.767 24 24v3c0 .83-.67 1.5-1.5 1.5h-3c-.83 0-1.5-.67-1.5-1.5s.67-1.5 1.5-1.5H45V24c0-4.449-1.401-8.57-3.768-11.969l-2.874 2.006a1.5 1.5 0 11-1.716-2.46l2.691-1.88A20.92 20.92 0 0025.5 3.077V6c0 .83-.67 1.5-1.5 1.5s-1.5-.67-1.5-1.5V3.076c-5.586.397-10.563 2.983-14.095 6.91l2.277 1.591a1.5 1.5 0 11-1.716 2.46l-2.423-1.692A20.879 20.879 0 003 24v1.5h1.5c.83 0 1.5.67 1.5 1.5s-.67 1.5-1.5 1.5h-3C.67 28.5 0 27.83 0 27v-3C0 10.767 10.767 0 24 0zm1.295 26.256c.31-.593 1.08-3.578 1.914-7.185-2.174 2.623-4.166 5.088-4.506 5.677a1.49 1.49 0 00-.152 1.139c.102.387.35.71.698.91a1.495 1.495 0 002.046-.541zm5.365-14.193c.617.301.95.984.808 1.657-.616 2.906-2.692 12.507-3.573 14.034a4.471 4.471 0 01-2.735 2.094 4.474 4.474 0 01-3.414-.454 4.469 4.469 0 01-2.094-2.735 4.47 4.47 0 01.454-3.414c.852-1.474 7.439-9.26 8.75-10.806a1.496 1.496 0 011.804-.376z" fill="#000"/></svg>