<svg width="45" height="48" viewBox="0 0 45 48" fill="none" xmlns="http://www.w3.org/2000/svg"><path fill-rule="evenodd" clip-rule="evenodd" d="M44.95 21.207C44.95 9.49 35.043 0 22.832 0 10.622 0 .714 9.49.714 21.207c0 .723.038 1.446.114 2.167.506 9.414 9.452 18.956 20.408 23.644.584.215 1.1.31 1.637.31.592 0 1.07-.094 1.622-.318l.214-.092.057-.025.108-.047C35.748 42 44.349 32.59 44.844 23.25a19.43 19.43 0 00.105-2.043zM22.92 43.164l-.067.029h-.003C13.528 39.198 5.504 30.747 5.088 23.055c-.068-.678-.1-1.261-.1-1.85 0-9.424 7.985-17.073 17.844-17.073 9.859 0 17.844 7.649 17.844 17.074 0 .575-.03 1.151-.09 1.729-.41 7.665-8.115 15.973-17.5 20.155l-.165.073zm-.09-15.106c4.067 0 7.356-3.15 7.356-7.027 0-3.876-3.289-7.026-7.355-7.026-4.067 0-7.355 3.15-7.355 7.026 0 3.877 3.288 7.027 7.355 7.027zm-11.628-7.027c0 6.169 5.21 11.16 11.629 11.16 6.418 0 11.629-4.991 11.629-11.16 0-6.167-5.211-11.16-11.629-11.16-6.418 0-11.63 4.993-11.63 11.16z" fill="#253238"/></svg>