<svg width="48" height="48" fill="none" viewBox="0 0 48 48" xmlns="http://www.w3.org/2000/svg"><path fill-rule="evenodd" clip-rule="evenodd" d="M12.94 7.312a18.61 18.61 0 0111.964-4.304c1.021 0 2.05.083 3.076.248 9.26 1.494 15.795 9.607 15.207 18.87-.847 13.293-15.148 21.23-18.328 22.833-3.345-1.692-18.332-10.06-18.37-23.904a17.685 17.685 0 011.68-7.569 18.028 18.028 0 014.77-6.174zm10.653 40.392C20.233 46.021 3.47 36.835 3.429 21.062c-.01-3.049.658-6.064 1.958-8.834 1.3-2.77 3.2-5.23 5.57-7.208C15.767.992 22.15-.733 28.474.287c10.819 1.745 18.456 11.216 17.768 22.028-.965 15.096-16.926 23.798-20.116 25.388a2.847 2.847 0 01-2.534 0v.001zm1.266-34.167c4.22 0 7.653 3.375 7.653 7.522 0 4.15-3.434 7.523-7.653 7.523-4.22 0-7.653-3.375-7.653-7.523 0-4.147 3.433-7.522 7.653-7.522zm0 18.056c5.908 0 10.714-4.726 10.714-10.534 0-5.808-4.806-10.531-10.714-10.531-5.909 0-10.715 4.725-10.715 10.531 0 5.808 4.807 10.534 10.715 10.534z" fill="#253238"/></svg>