<svg width="44" height="48" viewBox="0 0 44 48" fill="none" xmlns="http://www.w3.org/2000/svg"><path fill-rule="evenodd" clip-rule="evenodd" d="M22.065 39.435c.135.15.24.315.315.495a1.492 1.492 0 01-.315 1.635A1.492 1.492 0 0121 42a1.492 1.492 0 01-1.5-1.5c0-.195.045-.39.12-.57.075-.18.18-.345.315-.495.555-.555 1.575-.555 2.13 0zM36 45c1.654 0 3-1.346 3-3v-6H3v6c0 1.654 1.346 3 3 3h30zM6 3C4.346 3 3 4.346 3 6v27h36V6c0-1.654-1.346-3-3-3H6zm37.125 9A1.476 1.476 0 0142 13.424v3.152c.642.168 1.125.728 1.125 1.424v1.5A1.476 1.476 0 0142 20.924V42c0 3.309-2.691 6-6 6H6c-3.309 0-6-2.691-6-6V6c0-3.309 2.691-6 6-6h30c3.309 0 6 2.691 6 6v3.076c.642.168 1.125.728 1.125 1.424V12zM18.75 10.437a1.5 1.5 0 110-3h4.5a1.5 1.5 0 010 3h-4.5z" fill="#000"/></svg>