<svg width="44" height="48" viewBox="0 0 44 48" fill="none" xmlns="http://www.w3.org/2000/svg"><path fill-rule="evenodd" clip-rule="evenodd" d="M26.587 24.07l4.096-3.901-5.58-.878a2.246 2.246 0 01-1.682-1.25l-2.442-5.098-2.559 5.034a2.25 2.25 0 01-1.707 1.217l-5.606.747 4 3.992c.522.518.759 1.265.627 1.996l-1.024 5.564 5.034-2.573a2.254 2.254 0 012.091.024l4.976 2.69-.89-5.582a2.26 2.26 0 01.666-1.982zm6.06-6.63a2.242 2.242 0 011.8 1.553 2.237 2.237 0 01-.594 2.303l-4.909 4.674 1.068 6.69a2.236 2.236 0 01-.922 2.191c-.39.276-.845.417-1.298.417-.368 0-.737-.092-1.076-.276l-5.957-3.22-6.032 3.082a2.251 2.251 0 01-3.24-2.409l1.223-6.665-4.795-4.786a2.24 2.24 0 01-.545-2.313 2.244 2.244 0 011.837-1.514l6.714-.894 3.07-6.041A2.235 2.235 0 0120.997 9h.026a2.235 2.235 0 012.005 1.281l2.925 6.108 6.695 1.052zM39 42V6c0-1.654-1.346-3-3-3H6C4.346 3 3 4.346 3 6v36c0 1.654 1.346 3 3 3h30c1.654 0 3-1.346 3-3zm4.231-29.982A1.479 1.479 0 0142 13.464v3.108a1.478 1.478 0 011.231 1.446v1.5A1.479 1.479 0 0142 20.964V42c0 3.309-2.691 6-6 6H6c-3.309 0-6-2.691-6-6V6c0-3.309 2.691-6 6-6h30c3.309 0 6 2.691 6 6v3.072a1.477 1.477 0 011.231 1.446v1.5z" fill="#000"/></svg>