<svg width="48" height="48" viewBox="0 0 48 48" fill="none" xmlns="http://www.w3.org/2000/svg"><path fill-rule="evenodd" clip-rule="evenodd" d="M24 16a3.203 3.203 0 00-3.2 3.2c0 1.765 1.435 3.2 3.2 3.2 3.53 0 6.4 2.87 6.4 6.4a6.408 6.408 0 01-4.8 6.197V38.4c0 .885-.715 1.6-1.6 1.6-.885 0-1.6-.715-1.6-1.6v-3.2h-3.2c-.885 0-1.6-.715-1.6-1.6 0-.885.715-1.6 1.6-1.6H24c1.765 0 3.2-1.435 3.2-3.2 0-1.765-1.435-3.2-3.2-3.2-3.53 0-6.4-2.87-6.4-6.4a6.408 6.408 0 014.8-6.197V9.6c0-.885.715-1.6 1.6-1.6.885 0 1.6.715 1.6 1.6v3.2h3.2c.885 0 1.6.715 1.6 1.6 0 .885-.715 1.6-1.6 1.6H24zm0 28.8c11.469 0 20.8-9.331 20.8-20.8 0-11.469-9.331-20.8-20.8-20.8C12.531 3.2 3.2 12.531 3.2 24c0 11.469 9.331 20.8 20.8 20.8zM24 0c13.234 0 24 10.766 24 24S37.234 48 24 48 0 37.234 0 24 10.766 0 24 0z" fill="#000"/></svg>