<svg width="48" height="37" viewBox="0 0 48 37" fill="none" xmlns="http://www.w3.org/2000/svg"><path fill-rule="evenodd" clip-rule="evenodd" d="M40.7 7.592a2.362 2.362 0 012.36 2.359 2.362 2.362 0 01-2.36 2.36 2.362 2.362 0 01-2.36-2.36 2.362 2.362 0 012.36-2.36zM23.775 32.774l-2.573-2.573 2.573-8.347 2.574 8.347-2.574 2.573zm0-29.737A6.08 6.08 0 0129.85 9.11a6.08 6.08 0 01-6.074 6.073 6.08 6.08 0 01-6.073-6.073 6.08 6.08 0 016.073-6.073zM4.938 9.95a2.362 2.362 0 012.36-2.36 2.362 2.362 0 012.359 2.36 2.362 2.362 0 01-2.36 2.36 2.362 2.362 0 01-2.36-2.36zm42.688 5.756a10.35 10.35 0 00-2.824-2.29 5.338 5.338 0 001.294-3.466A5.402 5.402 0 0040.7 4.555a5.402 5.402 0 00-5.396 5.396c0 1.327.498 2.526 1.295 3.466-1.909 1.062-3.389 2.744-4.282 4.463a16.754 16.754 0 00-2.965-1.582 9.09 9.09 0 003.533-7.188c0-5.024-4.084-9.11-9.11-9.11-5.024 0-9.11 4.086-9.11 9.11 0 2.923 1.39 5.52 3.535 7.188-.922.375-1.798.838-2.627 1.363-.903-1.643-2.348-3.228-4.175-4.244a5.338 5.338 0 001.295-3.466 5.402 5.402 0 00-5.396-5.396A5.402 5.402 0 001.901 9.95c0 1.327.498 2.526 1.295 3.466a10.347 10.347 0 00-2.824 2.29 1.518 1.518 0 002.29 1.99c1.298-1.494 2.988-2.35 4.635-2.35 2.586 0 4.82 2.054 5.812 4.177-2.346 2.103-4.13 4.708-5.162 7.232a1.519 1.519 0 102.81 1.147c1.686-4.119 5.696-8.511 10.899-9.481L18.03 30.179a1.517 1.517 0 00.377 1.522l4.296 4.293a1.514 1.514 0 002.146 0l4.296-4.293a1.516 1.516 0 00.375-1.522l-3.625-11.757c5.201.97 9.216 5.362 10.898 9.483a1.52 1.52 0 002.812-1.151c-.987-2.411-2.657-4.901-4.852-6.952.918-2.218 3.249-4.455 5.947-4.455 1.649 0 3.337.856 4.635 2.35a1.516 1.516 0 002.505-.317 1.514 1.514 0 00-.212-1.673h-.002z" fill="#253238"/></svg>