<svg width="48" height="48" viewBox="0 0 48 48" fill="none" xmlns="http://www.w3.org/2000/svg"><path fill-rule="evenodd" clip-rule="evenodd" d="M10.5 45V26.121l13.5-13.5 13.5 13.5v18.88h-27zm-3-24.879l4.06-4.06 4.5-4.5L24 3.62l16.5 16.5v4.758l-.438-.438-.003-.003L25.061 9.44a1.496 1.496 0 00-2.122 0l-14.998 15-.003.001-.438.438v-4.758zM12 7.501h1.5v2.378l-1.5 1.5V7.5zM46.5 45a1.5 1.5 0 110 3h-45a1.5 1.5 0 110-3h6V29.12l-.44.44A1.498 1.498 0 014.5 28.5v-9c0-.4.157-.78.44-1.061L9 14.38V6a1.5 1.5 0 011.5-1.5H15A1.5 1.5 0 0116.5 6v.88L22.94.44a1.499 1.499 0 012.12 0l18 18a1.494 1.494 0 01.44 1.06v9a1.498 1.498 0 01-2.56 1.06l-.44-.439v15.88h6zm-21-9v-3h3v3h-3zm-6 0v-3h3v3h-3zm0-6v-3h3v3h-3zm6 0v-3h3v3h-3zm3-6h-9c-1.654 0-3 1.345-3 3v9c0 1.654 1.346 3 3 3h9c1.653 0 3-1.346 3-3v-9c0-1.655-1.347-3-3-3z" fill="#000"/></svg>