<svg width="48" height="49" viewBox="0 0 48 49" fill="none" xmlns="http://www.w3.org/2000/svg"><path fill-rule="evenodd" clip-rule="evenodd" d="M15.225 20.591A12.18 12.18 0 006.61 24.15c-4.753 4.754-4.753 12.487 0 17.24 4.754 4.754 12.487 4.754 17.24 0a12.224 12.224 0 002.01-14.566 1.522 1.522 0 01-.172-1.01l.672-3.786a1.52 1.52 0 011.236-1.233l4.183-.74.735-4.181a1.521 1.521 0 011.238-1.235l4.18-.737.734-4.175a1.52 1.52 0 011.236-1.237l4.101-.726.662-4.428-4.968.74L22.266 21.51a1.523 1.523 0 01-1.74.294 12.175 12.175 0 00-5.301-1.213v.002zm.005 27.41a15.186 15.186 0 01-10.773-4.458c-5.943-5.94-5.943-15.607 0-21.548a15.252 15.252 0 0116.389-3.378l17.052-17.05c.23-.232.53-.382.853-.432l7.5-1.118a1.524 1.524 0 011.732 1.732l-1.086 7.276a1.525 1.525 0 01-1.234 1.54l-4.181.738-.735 4.176a1.518 1.518 0 01-1.234 1.238l-4.183.736-.736 4.182a1.519 1.519 0 01-1.234 1.234l-4.186.74-.393 2.216c2.995 5.842 1.89 13.052-2.777 17.718A15.185 15.185 0 0115.23 48l-.002.002zm-3.048-16.754a3.05 3.05 0 013.047 3.047 3.05 3.05 0 01-3.047 3.048 3.051 3.051 0 01-3.047-3.048 3.051 3.051 0 013.047-3.047zm0 9.142a6.1 6.1 0 006.095-6.095 6.1 6.1 0 00-6.095-6.095 6.102 6.102 0 00-6.095 6.095 6.102 6.102 0 006.095 6.095z" fill="#000"/></svg>