<svg width="48" height="49" viewBox="0 0 48 49" fill="none" xmlns="http://www.w3.org/2000/svg"><path fill-rule="evenodd" clip-rule="evenodd" d="M3 45.002h39.88L3 5.122v3.88a1.5 1.5 0 010 3v1.5h1.5a1.5 1.5 0 110 3H3v1.5a1.5 1.5 0 010 3v1.5h1.5a1.5 1.5 0 110 3H3v1.5a1.5 1.5 0 110 3v1.5h1.5a1.5 1.5 0 010 3H3v1.5a1.5 1.5 0 010 3v1.5h1.5a1.5 1.5 0 110 3H3v1.5zm44.56.44a1.5 1.5 0 01-1.06 2.56h-45a1.5 1.5 0 01-1.5-1.5v-45A1.499 1.499 0 012.56.442l45 45zM12 26.85v9.151h9.15L12 26.852v-.002zm-1.5 12.151a1.5 1.5 0 01-1.5-1.5V23.23a1.499 1.499 0 012.56-1.06l14.273 14.273a1.498 1.498 0 11-1.06 2.56H10.5z" fill="#000"/></svg>