<svg width="30" height="29" viewBox="0 0 30 29" fill="none" xmlns="http://www.w3.org/2000/svg">
<path d="M29.747 0.489993C29.8548 0.662448 29.9072 0.863843 29.897 1.06699V11.962C29.897 12.2272 29.7916 12.4816 29.6041 12.6691C29.4165 12.8566 29.1622 12.962 28.897 12.962C28.6317 12.962 28.3774 12.8566 28.1899 12.6691C28.0023 12.4816 27.897 12.2272 27.897 11.962V3.37299L4.97496 25.55C4.88148 25.6454 4.76983 25.7212 4.64659 25.7728C4.52335 25.8244 4.39102 25.8507 4.25742 25.8503C4.12382 25.8499 3.99166 25.8227 3.86874 25.7704C3.74582 25.718 3.63463 25.6416 3.54174 25.5456C3.44886 25.4495 3.37615 25.3359 3.32793 25.2113C3.2797 25.0867 3.25693 24.9537 3.26096 24.8202C3.26499 24.6866 3.29574 24.5552 3.35138 24.4338C3.40703 24.3123 3.48646 24.2032 3.58496 24.113L26.424 2.01599H18.137C17.8717 2.01599 17.6174 1.91064 17.4299 1.7231C17.2423 1.53556 17.137 1.28121 17.137 1.01599C17.137 0.750777 17.2423 0.496423 17.4299 0.308886C17.6174 0.12135 17.8717 0.015993 18.137 0.015993H28.896C29.0669 0.0140572 29.2354 0.0568792 29.3847 0.140206C29.534 0.223533 29.6589 0.344466 29.747 0.490993V0.489993ZM1.90396 26.617C2.16414 26.6686 2.39317 26.8214 2.54067 27.0419C2.68816 27.2623 2.74205 27.5323 2.69046 27.7925C2.63888 28.0527 2.48605 28.2817 2.2656 28.4292C2.04515 28.5767 1.77514 28.6306 1.51496 28.579L1.45196 28.567C1.19178 28.5154 0.962756 28.3626 0.815258 28.1421C0.667761 27.9217 0.613877 27.6517 0.665462 27.3915C0.717046 27.1313 0.869874 26.9023 1.09032 26.7548C1.31077 26.6073 1.58078 26.5534 1.84096 26.605L1.90396 26.617Z" fill="black"/>
</svg>
