<svg width="48" height="48" viewBox="0 0 48 48" fill="none" xmlns="http://www.w3.org/2000/svg"><path fill-rule="evenodd" clip-rule="evenodd" d="M25.5 41.923v-6.028c5.416-.68 9.717-4.979 10.397-10.395h6.026C41.2 34.228 34.228 41.199 25.5 41.923zM6.077 25.5h6.027c.679 5.416 4.98 9.715 10.396 10.395v6.028C13.771 41.2 6.801 34.228 6.077 25.5zM22.5 6.076v6.028c-5.416.68-9.717 4.978-10.396 10.396H6.077C6.8 13.771 13.77 6.801 22.5 6.076zm6 19.424h4.365a9.009 9.009 0 01-7.365 7.364V28.5a1.5 1.5 0 10-3 0v4.364a9.009 9.009 0 01-7.365-7.364H19.5a1.5 1.5 0 100-3h-4.365a9.009 9.009 0 017.365-7.365V19.5a1.5 1.5 0 103 0v-4.365a9.009 9.009 0 017.365 7.365H28.5a1.5 1.5 0 100 3zm13.423-3h-6.026c-.68-5.418-4.98-9.716-10.397-10.396V6.077C34.228 6.8 41.199 13.77 41.923 22.5zm4.577 0h-1.577C44.185 12.117 35.882 3.814 25.5 3.076V1.5a1.5 1.5 0 10-3 0v1.576C12.118 3.814 3.814 12.117 3.076 22.5H1.5a1.5 1.5 0 100 3h1.576C3.814 35.882 12.12 44.184 22.5 44.923V46.5a1.5 1.5 0 103 0v-1.577c10.382-.739 18.685-9.041 19.423-19.423H46.5a1.5 1.5 0 100-3z" fill="#333"/></svg>