<svg width="48" height="26" viewBox="0 0 48 26" fill="none" xmlns="http://www.w3.org/2000/svg"><path fill-rule="evenodd" clip-rule="evenodd" d="M39.377 14.02c-.012-.005-.02-.017-.031-.023l-4.438-2.135 3.728-1.95 4.511 2.079-3.77 2.03zm-15.376 8.281l-4.454-2.398 4.679-2.45 4.517 2.295L24 22.3v.001zM9.368 9.911l4.163 2.11-4.371 2.288-4.306-2.318 4.514-2.082v.001zm14.633-6.757l3.437 1.585-3.51 1.838-3.595-1.73L24 3.155v-.001zm3.297 5.045l3.578-1.873 4.323 1.996-3.662 1.915L27.298 8.2zm-10.5-1.721l3.815 1.835-3.819 1.998-3.953-2.007L16.8 6.478zm-4.45 9.547l4.466-2.337 4.13 2.097-4.585 2.4-4.011-2.16zm11.858-1.949l-4.128-2.096 3.906-2.046 4.238 2.04-4.016 2.102zm7.753 3.938l-4.47-2.271 4.105-2.145 4.526 2.175-4.161 2.241zm15.172-7.49L24.63.138a1.497 1.497 0 00-1.257 0L.87 10.524a1.503 1.503 0 00-.082 2.685L23.29 25.324a1.51 1.51 0 001.422 0l22.502-12.117a1.503 1.503 0 00-.083-2.683z" fill="#000"/></svg>