<svg width="39" height="48" viewBox="0 0 39 48" fill="none" xmlns="http://www.w3.org/2000/svg"><path fill-rule="evenodd" clip-rule="evenodd" d="M7.5 33.574h3V43.58a1.424 1.424 0 001.987 1.3l5.272-2.25a4.44 4.44 0 013.48 0l5.273 2.25a1.424 1.424 0 001.987-1.3V33.574h3V43.58c0 3.171-3.247 5.304-6.165 4.058l-5.27-2.25a1.437 1.437 0 00-1.127 0l-5.27 2.25c-2.92 1.246-6.167-.885-6.167-4.058V33.574zM36 19.498C36 10.388 28.611 3 19.5 3 10.387 3 3 10.387 3 19.5 3 28.61 10.387 36 19.5 36 28.611 36 36 28.61 36 19.5v-.002zm2.999 0c0 10.771-8.73 19.501-19.5 19.501S0 30.268 0 19.499 8.73 0 19.5 0s19.499 8.73 19.499 19.5v-.002zm-12.83-5.703a1.464 1.464 0 012.03.26 1.41 1.41 0 01-.264 1.996l-12.083 9.153a1.462 1.462 0 01-2.097-.353l-3.021-4.576a1.41 1.41 0 01.426-1.97 1.463 1.463 0 012.002.42l2.166 3.28 10.84-8.21z" fill="#000"/></svg>