<svg fill="none" xmlns="http://www.w3.org/2000/svg" width="118px" height="189px"><path d="M76.557 148.12c3.52 1.96 8.82 3.84 12.78 3.13l24.35-4.3-2-7-35.13 8.17ZM84.734 94l-4.72-15.75c-2.23-7.43-10.77-10.87-17.52-7.07l-54.48 30.95c-6.65 9.68 8.39 8.8 11.41 7.59l65.39-15.45-.08-.27Z" fill="#DCE1E5"/><path d="M29.075 188.72c-2.43 0-4.83-.65-6.98-1.91a13.745 13.745 0 0 1-6.37-8.44l2.9-.75c.73 2.8 2.5 5.15 4.99 6.61s5.41 1.87 8.2 1.15l75.08-19.47c5.77-1.5 9.25-7.42 7.76-13.19L101.505 102c-.71-2.74-2.45-5.04-4.88-6.47a10.539 10.539 0 0 0-8.03-1.12l-69.33 17.64c-6.81 2-13.33.87-15.46-2.72-1.21-2.04-.73-4.39 1.33-6.45l2.12 2.12c-1.05 1.06-1.34 2-.87 2.8 1 1.69 5.53 3.29 12.09 1.36l69.36-17.66c3.51-.91 7.17-.4 10.3 1.44 3.13 1.84 5.36 4.79 6.27 8.3l13.15 50.71c1.91 7.38-2.53 14.93-9.91 16.85l-75.08 19.47c-1.15.3-2.32.45-3.49.45Z" fill="#657D8B"/><path d="M82.555 149.52c-5.64 0-10.8-3.79-12.28-9.5-1.76-6.77 2.32-13.71 9.1-15.47l28.67-7.44 6.37 24.56-28.67 7.44c-1.07.27-2.14.41-3.19.41Zm23.33-28.76-25.77 6.69c-5.17 1.34-8.29 6.64-6.94 11.81 1.34 5.17 6.64 8.29 11.81 6.95l25.77-6.68-4.87-18.77Z" fill="#657D8B"/><path d="M83.725 140.45a3.93 3.93 0 1 0 0-7.86 3.93 3.93 0 0 0 0 7.86Z" fill="#253238"/><path d="m16.235 179.91-15.8-62.84c-1.55-6.02 1.16-12.37 6.58-15.43l54.82-30.88c3.62-2.04 7.9-2.32 11.76-.77 3.85 1.55 6.75 4.73 7.94 8.7l4.73 15.75-2.87.86-4.73-15.75c-.93-3.1-3.19-5.57-6.19-6.78-3-1.21-6.34-.99-9.16.6l-54.82 30.89a10.81 10.81 0 0 0-5.15 12.08l15.8 62.85-2.91.72Z" fill="#657D8B"/><path d="M13.195 122.16c-1.33 0-2.63-.23-3.88-.69a1.36 1.36 0 0 1-.5-.31l-.65-.61a1.5 1.5 0 0 1 2.04-2.2l.42.39c1.43.47 2.97.54 4.46.19.8-.19 1.61.31 1.8 1.12.19.81-.31 1.61-1.12 1.8-.84.21-1.71.31-2.57.31Zm11.94-2.67c-.67 0-1.29-.46-1.46-1.14-.2-.8.29-1.62 1.09-1.82l9.71-2.41a1.5 1.5 0 0 1 .73 2.91l-9.71 2.41c-.12.04-.24.05-.36.05Zm19.41-4.81c-.67 0-1.29-.46-1.46-1.14-.2-.8.29-1.62 1.09-1.82l9.71-2.41c.8-.2 1.62.29 1.82 1.09.2.8-.29 1.62-1.09 1.82l-9.71 2.41c-.12.03-.24.05-.36.05Zm19.41-4.82c-.67 0-1.29-.46-1.46-1.14-.2-.8.29-1.62 1.09-1.82l9.71-2.41a1.5 1.5 0 0 1 .73 2.91l-9.71 2.41c-.12.03-.24.05-.36.05Zm19.41-4.82c-.67 0-1.29-.46-1.46-1.14-.2-.8.29-1.62 1.09-1.82l9.71-2.41a1.5 1.5 0 0 1 .73 2.91l-9.71 2.42c-.12.03-.24.04-.36.04ZM27.195 179.16c-1.33 0-2.63-.23-3.88-.69a1.36 1.36 0 0 1-.5-.31l-.65-.61a1.5 1.5 0 0 1 2.04-2.2l.42.39c1.43.47 2.97.54 4.46.19.8-.19 1.61.31 1.8 1.12.19.81-.31 1.61-1.12 1.8-.84.21-1.71.31-2.57.31Zm11.94-2.67c-.67 0-1.29-.46-1.46-1.14-.2-.8.29-1.62 1.09-1.82l9.71-2.41a1.5 1.5 0 0 1 .73 2.91l-9.71 2.41c-.12.04-.24.05-.36.05Zm19.41-4.81c-.67 0-1.29-.46-1.46-1.14-.2-.8.29-1.62 1.09-1.82l9.71-2.41c.8-.2 1.62.29 1.82 1.09.2.8-.29 1.62-1.09 1.82l-9.71 2.41c-.12.03-.24.05-.36.05Zm19.41-4.82c-.67 0-1.29-.46-1.46-1.14-.2-.8.29-1.62 1.09-1.82l9.71-2.41c.8-.2 1.62.29 1.82 1.09.2.8-.29 1.62-1.09 1.82l-9.71 2.41c-.12.03-.24.05-.36.05Zm19.41-4.82c-.67 0-1.29-.46-1.46-1.14-.2-.8.29-1.62 1.09-1.82l9.71-2.41a1.5 1.5 0 0 1 .73 2.91l-9.71 2.42c-.12.03-.24.04-.36.04Z" fill="#CFD7DB"/><path d="M55.973 61.744c-3.478 0-6.833-1.242-9.877-3.665-5.031-3.975-8.385-10.56-9.255-18.014-1.491-13.044 5.466-24.66 15.467-25.84 4.038-.498 8.075.745 11.616 3.54 5.032 3.976 8.386 10.56 9.194 18.014 1.49 13.045-5.467 24.66-15.468 25.903-.559.062-1.118.062-1.677.062ZM52.681 17.33c-8.262.994-13.977 11.057-12.734 22.425.745 6.522 3.727 12.485 8.075 15.902 2.857 2.298 6.087 3.292 9.318 2.92 8.323-.995 14.038-11.058 12.734-22.425-.746-6.523-3.727-12.486-8.075-15.902-2.858-2.299-6.088-3.355-9.318-2.92Z" fill="#000"/><path d="M55.973 61.744c-3.478 0-6.833-1.242-9.877-3.665-5.031-3.975-8.385-10.56-9.255-18.014-1.491-13.044 5.466-24.66 15.467-25.84 4.038-.498 8.075.745 11.616 3.54 5.032 3.976 8.386 10.56 9.194 18.014 1.49 13.045-5.467 24.66-15.468 25.903-.559.062-1.118.062-1.677.062Z" fill="#fff"/><path d="M55.973 61.744c-3.478 0-6.833-1.242-9.877-3.665-5.031-3.975-8.385-10.56-9.255-18.014-1.491-13.044 5.466-24.66 15.467-25.84 4.038-.498 8.075.745 11.616 3.54 5.032 3.976 8.386 10.56 9.194 18.014 1.49 13.045-5.467 24.66-15.468 25.903-.559.062-1.118.062-1.677.062ZM52.681 17.33c-8.262.994-13.977 11.057-12.734 22.425.745 6.522 3.727 12.485 8.075 15.902 2.857 2.298 6.087 3.292 9.318 2.92 8.323-.995 14.038-11.058 12.734-22.425-.746-6.523-3.727-12.486-8.075-15.902-2.858-2.299-6.088-3.355-9.318-2.92Z" fill="#617D8B"/><path d="M50.571 35.655a2.112 2.112 0 1 0 0-4.224 2.112 2.112 0 0 0 0 4.224ZM60.446 34.413a2.112 2.112 0 1 0 0-4.225 2.112 2.112 0 0 0 0 4.225Z" fill="#000"/><path d="M49.949 62.366c-3.417 0-6.833-1.243-9.877-3.665-5.032-3.976-8.386-10.56-9.256-18.014-1.49-13.045 5.467-24.661 15.468-25.841l6.025-.621.373 3.106c-8.262.993-13.977 11.056-12.734 22.424.745 6.522 3.727 12.486 8.075 15.902 2.733 2.174 5.84 3.168 8.883 2.92l.435-.063.372 3.106c-.186 0-.31.063-.497.063l-5.528.559c-.621.124-1.18.124-1.74.124Zm-6.771-43.42c-6.336 2.981-10.312 11.74-9.194 21.43.746 6.523 3.727 12.486 8.076 15.902 1.615 1.305 3.416 2.174 5.155 2.61-.372-.25-.745-.498-1.118-.808-5.031-3.976-8.386-10.56-9.255-18.014-.932-8.449 1.677-16.337 6.336-21.12Z" fill="#000"/><path d="M49.947 62.365c-3.416 0-6.832-1.242-9.876-3.665-5.032-3.976-8.386-10.56-9.256-18.014a1.412 1.412 0 0 1 .31-1.118c.25-.31.622-.497 1.057-.56l6.025-.62c.87-.063 1.615.497 1.677 1.366.746 6.523 3.727 12.486 8.076 15.902 2.733 2.174 5.839 3.168 8.883 2.92l.434-.062c.87-.063 1.615.497 1.678 1.366.124.87-.497 1.615-1.367 1.74-.186 0-.31.062-.497.062l-5.528.559c-.497.124-1.056.124-1.616.124ZM34.17 41.928c.993 5.901 3.85 11.244 7.826 14.35 1.615 1.304 3.417 2.174 5.156 2.608a12.58 12.58 0 0 1-1.118-.807c-4.597-3.665-7.889-9.628-8.945-16.461l-2.92.31Z" fill="#617D8B"/><path d="M35.907 52.986c-.807 0-1.49-.621-1.552-1.367-.063-.87.559-1.615 1.366-1.677l6.026-.621c.87-.062 1.615.559 1.677 1.366.062.808-.56 1.615-1.367 1.678l-6.025.62h-.125ZM32.432 42.115c-.808 0-1.429-.56-1.553-1.367-1.49-13.045 5.466-24.66 15.467-25.84l6.026-.622c.87-.062 1.615.497 1.677 1.367.124.87-.497 1.615-1.367 1.739-8.261.932-13.976 10.995-12.734 22.362.062.435-.062.808-.31 1.118-.249.31-.622.497-1.056.56l-6.026.62c-.062.063-.124.063-.124.063Zm10.746-23.17c-5.963 2.857-9.877 10.808-9.38 19.877l2.92-.31c-.497-7.89 2.05-15.033 6.46-19.567Z" fill="#617D8B"/><path d="M33.426 30.623c-.808 0-1.491-.62-1.553-1.366-.062-.87.559-1.615 1.366-1.677l6.026-.622c.87-.062 1.615.56 1.677 1.367.062.87-.56 1.615-1.367 1.677l-6.025.621h-.124Z" fill="#617D8B"/><path d="M49.949 62.366c-3.417 0-6.833-1.243-9.877-3.665-5.032-3.976-8.386-10.56-9.256-18.014-1.49-13.045 5.467-24.661 15.468-25.841l6.025-.622c.87-.062 1.615.497 1.677 1.367.125.87-.497 1.615-1.366 1.74-8.2.993-13.915 11.056-12.672 22.424.745 6.522 3.727 12.485 8.075 15.902 2.733 2.174 5.84 3.168 8.883 2.92l.435-.063c.87-.062 1.615.497 1.677 1.367.124.87-.497 1.615-1.367 1.74-.186 0-.31.061-.497.061l-5.528.56c-.56.124-1.118.124-1.677.124Zm-6.771-43.42c-6.336 2.981-10.312 11.74-9.194 21.43.746 6.522 3.727 12.486 8.076 15.902 1.615 1.305 3.416 2.174 5.155 2.609-.372-.248-.745-.497-1.118-.807-5.031-3.976-8.386-10.56-9.255-18.015-.932-8.448 1.677-16.337 6.336-21.12Z" fill="#617D8B"/><path d="M46.592 40.128c-.622.062-1.18.435-1.553.932-.373.559-.435 1.18-.31 1.801 1.863 6.771 7.267 11.43 12.982 10.747 5.715-.684 9.752-6.523 9.939-13.604 0-.621-.249-1.243-.746-1.677a2.272 2.272 0 0 0-1.74-.56l-18.572 2.361Z" fill="#253238"/><path d="M72.372 38.388c-.745 0-1.429-.559-1.553-1.366-.124-.87.497-1.615 1.367-1.74l1.801-.248c3.106-.373 5.28-3.23 4.845-6.336l-.434-3.106c-.125-.87.496-1.615 1.366-1.74.87-.123 1.615.498 1.74 1.367l.434 3.106c.621 4.783-2.733 9.194-7.516 9.815l-1.801.248h-.249ZM27.585 44.04c-1.49 0-3.043-.372-4.348-1.18-2.05-1.18-3.478-3.044-4.037-5.342l-.497-1.74c-.249-.807.248-1.676 1.118-1.925.807-.248 1.677.248 1.925 1.118l.497 1.74a5.548 5.548 0 0 0 2.61 3.416c1.304.745 2.794.932 4.285.559l3.044-.808c.808-.248 1.677.249 1.926 1.119.248.807-.249 1.677-1.118 1.925l-3.044.808c-.808.248-1.553.31-2.36.31ZM41.686 70.503c-1.553 0-2.982-.435-4.286-1.367l-6.088-4.224c-.683-.497-.87-1.429-.372-2.174.497-.683 1.428-.87 2.174-.373L39.2 66.59a4.437 4.437 0 0 0 3.293.746c1.18-.187 2.174-.87 2.857-1.802l4.286-6.212c.497-.683 1.429-.87 2.174-.372.684.497.87 1.428.373 2.174l-4.286 6.212c-1.118 1.677-2.858 2.733-4.845 3.106-.435.062-.87.062-1.367.062ZM73.242 65.533c-1.74 0-3.479-.62-4.907-1.801l-5.715-4.907c-.621-.56-.746-1.553-.187-2.175.56-.62 1.553-.745 2.175-.186l5.714 4.907c1.864 1.615 4.66 1.367 6.212-.434l4.97-5.777c.559-.622 1.552-.746 2.174-.187.62.56.745 1.553.186 2.174l-4.97 5.777a7.366 7.366 0 0 1-5.652 2.61Z" fill="#617D8B"/><path opacity=".6" d="M57.775 53.731c2.422-.31 4.534-1.49 6.15-3.354-2.734-2.92-6.71-4.535-10.996-4.038-2.05.248-3.975.994-5.59 2.112 2.609 3.665 6.46 5.777 10.436 5.28Z" fill="#fff"/><path opacity=".47" d="M37.586 30.686c-.062.248-.124.559-.124.807-.062.249-.062.497-.124.746-.062.248-.062.559-.124.807 0 .249-.063.497-.063.746 0 .248-.062.559-.062.87 0 .248-.062.496-.062.745v2.485c0 .248 0 .496.062.745v.248l-3.54.311v-3.665c0-.248.062-.497.062-.745v-.125c.062-.62.124-1.242.248-1.801 0-.062 0-.124.062-.186.063-.249.063-.435.125-.684 0-.124.062-.186.062-.31.062-.187.062-.373.124-.56 0-.124.062-.248.062-.31.062-.186.062-.31.124-.497l3.417-.373v.125c-.124.124-.187.372-.249.62ZM48.83 59.508c-2.423-.249-4.784-1.242-7.02-2.982-.248-.186-.497-.435-.807-.683-.063-.062-.187-.124-.249-.249-.186-.186-.373-.31-.497-.497-.124-.124-.186-.186-.248-.31-.124-.187-.31-.31-.435-.497-.124-.124-.186-.248-.31-.31-.125-.187-.25-.311-.436-.498-.124-.124-.186-.248-.248-.372-.124-.187-.248-.31-.373-.497-.062-.062-.124-.187-.186-.249l3.23-.31c.124.124.186.31.31.434.125.187.25.373.373.56.125.124.187.31.31.434.125.187.25.373.436.56.124.124.186.248.31.434.125.187.31.373.435.497.124.124.249.249.31.373.187.186.311.373.498.497.124.124.186.248.31.31l.56.56c.124.062.186.186.31.248.31.248.559.497.87.745.807.808 1.677 1.367 2.546 1.802Z" fill="#617D8B"/><path opacity=".39" d="M92.93 17.517a.541.541 0 0 0 .373-.497c0-.248-.124-.435-.372-.497l-.87-.31c-.808-.249-1.429-.932-1.74-1.74l-.248-.807a.54.54 0 0 0-.497-.373c-.248 0-.434.124-.497.373l-.31.87c-.249.807-.932 1.428-1.74 1.739l-.87.31a.541.541 0 0 0-.372.497c0 .249.124.435.373.497l.87.31c.807.25 1.428.932 1.739 1.74l.31.87a.541.541 0 0 0 .497.372c.249 0 .435-.124.497-.372l.31-.87c.25-.808.933-1.429 1.74-1.74l.808-.372Z" fill="#13C1AC"/><path opacity=".28" d="M75.477 14.784c.124-.062.248-.186.248-.31 0-.125-.062-.25-.248-.311l-.56-.187c-.558-.186-.931-.62-1.118-1.118l-.186-.559c-.062-.124-.186-.248-.31-.248-.125 0-.249.062-.311.248l-.186.56c-.187.558-.621.931-1.118 1.117l-.56.187c-.124.062-.248.186-.248.31 0 .125.062.249.249.311l.558.186c.56.187.932.621 1.119 1.118l.186.56c.062.124.186.248.31.248.125 0 .25-.062.311-.248l.186-.56c.187-.559.622-.931 1.119-1.118l.559-.186ZM36.154 8.696a.42.42 0 0 0 .249-.373.42.42 0 0 0-.249-.372l-.621-.187a2.05 2.05 0 0 1-1.242-1.242l-.187-.621a.42.42 0 0 0-.372-.249.42.42 0 0 0-.373.249l-.187.621a2.05 2.05 0 0 1-1.242 1.242l-.621.187a.42.42 0 0 0-.248.372c0 .187.124.311.248.373l.621.186a2.05 2.05 0 0 1 1.242 1.243l.187.621a.42.42 0 0 0 .373.248.42.42 0 0 0 .372-.248l.187-.621a2.05 2.05 0 0 1 1.242-1.243l.621-.186ZM24.787 3.044a.42.42 0 0 0 .248-.373.42.42 0 0 0-.248-.373l-.621-.186A2.05 2.05 0 0 1 22.924.87l-.187-.622A.42.42 0 0 0 22.364 0a.42.42 0 0 0-.372.248l-.187.622a2.051 2.051 0 0 1-1.242 1.242l-.621.186a.42.42 0 0 0-.249.373c0 .186.125.31.249.373l.621.186c.56.186 1.056.683 1.242 1.242l.187.622a.42.42 0 0 0 .372.248.42.42 0 0 0 .373-.248l.187-.622a2.05 2.05 0 0 1 1.242-1.242l.621-.186Z" fill="#13C1AC"/><path opacity=".55" d="M30.564 15.53c.249-.063.373-.311.373-.498 0-.248-.124-.435-.373-.497l-.931-.31a3.076 3.076 0 0 1-1.864-1.864l-.31-.932c-.063-.248-.311-.372-.497-.372-.249 0-.435.124-.497.372l-.373.932a3.076 3.076 0 0 1-1.864 1.864l-.931.31c-.249.062-.373.31-.373.497 0 .249.124.435.373.497l.931.31c.87.311 1.553.995 1.864 1.864l.31.932c.063.248.311.373.497.373.249 0 .435-.124.497-.373l.31-.932c.311-.87.995-1.553 1.864-1.863l.994-.31ZM82.374 7.951c.186-.062.31-.248.31-.497 0-.248-.124-.372-.31-.497l-.808-.31c-.808-.249-1.367-.87-1.677-1.677l-.31-.808c-.063-.186-.25-.31-.498-.31-.186 0-.372.124-.497.31l-.31.808c-.249.807-.87 1.366-1.677 1.677l-.808.31c-.186.063-.31.249-.31.497 0 .249.124.373.31.497l.808.31c.807.25 1.366.87 1.677 1.678l.31.808c.063.186.249.31.497.31.249 0 .373-.124.497-.31l.31-.808c.25-.807.87-1.367 1.678-1.677l.808-.31Z" fill="#13C1AC"/><path d="M89.267 44.538c-.87 0-1.553-.683-1.553-1.553v-2.92c0-.869.683-1.552 1.553-1.552.87 0 1.553.683 1.553 1.553v2.92c0 .869-.684 1.552-1.553 1.552ZM94.857 41.308c-.87 0-1.553-.683-1.553-1.553v-2.05c0-.87.683-1.553 1.553-1.553.87 0 1.553.684 1.553 1.553v2.05c0 .87-.745 1.553-1.553 1.553ZM89.267 52.924c-.87 0-1.553-.684-1.553-1.553v-2.299c0-.87.683-1.553 1.553-1.553.87 0 1.553.684 1.553 1.553v2.299c0 .87-.684 1.553-1.553 1.553ZM94.857 59.322c-.87 0-1.553-.683-1.553-1.552V44.104c0-.87.683-1.553 1.553-1.553.87 0 1.553.683 1.553 1.553V57.77c0 .87-.745 1.552-1.553 1.552ZM12.614 67.46c-.87 0-1.554-.683-1.554-1.553v-2.92c0-.87.684-1.552 1.553-1.552.87 0 1.553.683 1.553 1.552v2.92c0 .87-.683 1.553-1.553 1.553ZM18.204 69.758c-.87 0-1.553-.683-1.553-1.553v-4.1c0-.869.683-1.552 1.553-1.552.87 0 1.553.683 1.553 1.553v4.1c0 .87-.683 1.552-1.553 1.552ZM12.614 58.453c-.87 0-1.554-.683-1.554-1.553v-4.659c0-.87.684-1.553 1.553-1.553.87 0 1.553.684 1.553 1.553v4.66c0 .869-.683 1.552-1.553 1.552ZM18.204 60.813c-.87 0-1.553-.683-1.553-1.553V48.203c0-.87.683-1.553 1.553-1.553.87 0 1.553.684 1.553 1.553V59.26c0 .87-.683 1.553-1.553 1.553Z" fill="#CFD8DC"/></svg>
