<svg width="48" height="48" fill="none" xmlns="http://www.w3.org/2000/svg"><path fill-rule="evenodd" clip-rule="evenodd" d="M24 35c-6.065 0-11-4.935-11-11s4.935-11 11-11 11 4.935 11 11-4.935 11-11 11zm0-20c-4.963 0-9 4.037-9 9s4.037 9 9 9 9-4.037 9-9-4.037-9-9-9zm-.701 14.71a1.008 1.008 0 01-.299-.712c0-.26.11-.521.299-.71a1.005 1.005 0 011.402 0c.19.189.299.45.299.71a1 1 0 01-.299.711.976.976 0 01-.696.291.986.986 0 01-.706-.29zM23 18.745v7.508c0 .413.447.746 1 .746.553 0 1-.333 1-.746v-7.508c0-.413-.447-.746-1-.746-.553 0-1 .333-1 .746z" fill="#fff"/></svg>