<svg width="48" height="48" fill="none" xmlns="http://www.w3.org/2000/svg"><path fill-rule="evenodd" clip-rule="evenodd" d="M24 15c-4.963 0-9 4.037-9 9s4.037 9 9 9 9-4.037 9-9-4.037-9-9-9zm0 20c-6.065 0-11-4.935-11-11s4.935-11 11-11 11 4.935 11 11-4.935 11-11 11zm1-5.26a.994.994 0 01-.494-.131A2.989 2.989 0 0123 27.018V22a1 1 0 112 0v5.018c0 .352.19.679.496.853A.999.999 0 0125 29.74zM24 20c-.13 0-.26-.02-.38-.07-.12-.06-.23-.13-.33-.22A.99.99 0 0123 19c0-.13.02-.26.08-.38.05-.12.12-.23.21-.33.23-.23.58-.34.91-.27.06.01.119.03.18.06.059.02.12.05.18.09.049.03.1.08.15.12.09.1.16.2.21.33.05.12.08.25.08.38 0 .27-.11.52-.29.71A.994.994 0 0124 20z" fill="#fff"/></svg>