<svg width="300" height="260" fill="none" xmlns="http://www.w3.org/2000/svg"><path fill="#fff" d="M0 0h300v260H0z"/><path d="M136.72 151.14S111.67 138 98.49 135a8.81 8.81 0 0 0-5.13-.1c-3.67 1.39-4.09 6.57-2.6 10.2a34.49 34.49 0 0 0 5.63 8.48l38.34 47c.53-7.8-.48-15.59-1.55-23.34-.93-6.76 3.54-26.1 3.54-26.1Z" fill="#D2FD61" stroke="#D2FD61" stroke-width="3" stroke-linecap="round" stroke-linejoin="round"/><path d="m99.89 210.72-48.84-12.53a4.88 4.88 0 0 1-3.62-5.46l6.22-41.36a3.732 3.732 0 0 1 4.62-3.05l59.3 15.21a3.71 3.71 0 0 1 1.388.686 3.705 3.705 0 0 1 1.407 2.682 3.718 3.718 0 0 1-.225 1.532l-14.44 39.24a4.89 4.89 0 0 1-5.81 3.05v0Z" fill="#385EF9" stroke="#385EF9" stroke-width="3" stroke-linecap="round" stroke-linejoin="round"/><path d="m52.31 165.65 62.151 15.94M94.19 156.52l3.65-14.22a6.23 6.23 0 0 0-4.48-7.57v0a6.2 6.2 0 0 0-6.522 2.29 6.206 6.206 0 0 0-1.048 2.19L80 161.7M67.68 169.59l-7.91 30.84M83.38 173.62l-7.91 30.84M99.08 177.65l-7.91 30.83M50.93 181.73l56.99 14.62" stroke="#0B175E" stroke-width="3" stroke-linecap="round" stroke-linejoin="round"/><path d="m59.46 126.66-6.56-2.55M70.97 110.6l-3.81-6.3M94.52 104.06 95 96" stroke="#CFD8DC" stroke-width="3" stroke-linecap="round" stroke-linejoin="round"/><path d="M226.48 239.3h-85.29c-15.94 0-19.45-10.39-21.17-19-1.72-8.61-.82-22 1.79-35.82 4.15-22 10.83-43.38 17.36-64.77 4.45-14.58 10.36-29 22.49-33.79 12.13-4.79 20.64-3.66 29.73-1.79s16.85 5.74 21.36 14.06c4.51 8.32 7.24 26.36 6.82 41.66-.42 15.3 1 33.95 3.58 40.94 2.58 6.99 10 17.31 13.35 23.44 3.35 6.13 6.05 15.28 4.34 22.08-1.71 6.8-4.3 12.99-14.36 12.99Z" fill="#D2FD61" stroke="#D2FD61" stroke-width="3" stroke-linecap="round" stroke-linejoin="round"/><path opacity=".2" d="M154.08 216.84c-5.45-.61-10.83-1.7-16.2-2.8l-18.73-3.82a54.7 54.7 0 0 0 .87 10.13c1.72 8.56 5.23 19 21.17 19h85.29c10.06 0 12.64-6.15 14.36-12.94 1.72-6.79-.94-16-4.34-22.08-1.33-2.42-3.29-5.48-5.33-8.74-9.12 4.77-18.07 9.94-27.58 13.85-15.59 6.36-32.75 9.25-49.51 7.4Z" fill="#136D09" stroke="#136D09" stroke-width="3" stroke-linecap="round" stroke-linejoin="round"/><path fill-rule="evenodd" clip-rule="evenodd" d="M153.65 111.62a4.261 4.261 0 0 0-2.2-4.204 4.27 4.27 0 1 0 2.2 4.204M198.061 116.4a4.27 4.27 0 1 0-8.492-.91 4.27 4.27 0 0 0 8.492.91Z" fill="#136D09"/><path d="m158.957 112.213 23.961 2.582-.692 6.423a12.002 12.002 0 0 1-23.862-2.571l.692-6.423-.099-.011Z" fill="#136D09" stroke="#136D09" stroke-width="3" stroke-linecap="round" stroke-linejoin="round"/><path d="M181.631 123.73a13.191 13.191 0 0 0-5.253-3.159 13.19 13.19 0 0 0-11.768 1.916 13.202 13.202 0 0 0-3.979 4.663 11.998 11.998 0 0 0 16.102 2.9 12 12 0 0 0 4.898-6.32Z" fill="#D2FD61" stroke="#136D09" stroke-width="3" stroke-linecap="round" stroke-linejoin="round"/><path d="M89.96 241.3h149.81" stroke="#CFD8DC" stroke-width="3" stroke-linecap="round" stroke-linejoin="round"/></svg>