<svg width="48" height="48" viewBox="0 0 48 48" xmlns="http://www.w3.org/2000/svg"><g fill="#253238" fill-rule="evenodd"><path d="M24 27c-1.654 0-3-1.346-3-3s1.346-3 3-3 3 1.346 3 3-1.346 3-3 3m0-8c-2.757 0-5 2.243-5 5s2.243 5 5 5 5-2.243 5-5-2.243-5-5-5"/><path d="M24 33c-4.963 0-9-4.037-9-9s4.037-9 9-9 9 4.037 9 9-4.037 9-9 9m12-10h-1.051c-.477-5.268-4.681-9.472-9.949-9.949V12a1 1 0 1 0-2 0v1.051c-5.268.477-9.472 4.681-9.949 9.949H12a1 1 0 1 0 0 2h1.051c.477 5.268 4.681 9.472 9.949 9.949V36a1 1 0 1 0 2 0v-1.051c5.268-.477 9.472-4.681 9.949-9.949H36a1 1 0 1 0 0-2"/><circle opacity=".387" cx="24" cy="24" r="3"/></g></svg>