<svg xmlns="http://www.w3.org/2000/svg" width="48" height="48" viewBox="0 0 48 48">
  <g fill="none" fill-rule="evenodd" transform="translate(7.637 8.637)">
    <path fill="#FFF" d="M18.2119911 2.10231935C19.8025648 2.10231935 21.3070064 2.46785585 22.6602382 3.10228178L17.2549672 11.3402498 17.2549672 3.05922119C17.2549672 2.53196828 17.6846709 2.10231935 18.2119911 2.10231935L18.2119911 2.10231935zM28.739254 12.6282397C28.739254 13.1564495 28.3095502 13.5851415 27.7822301 13.5851415L26.8405186 13.5851415 20.3404122 13.5851415 28.2904098 9.59773152C28.579431 10.558461 28.739254 11.5746907 28.739254 12.6282397L28.739254 12.6282397z" opacity=".4"/>
    <path fill="#000" d="M29.425252,18.7847491 C29.425252,21.9816241 26.8238265,24.5817491 23.6275126,24.5817491 L11.0011523,24.5817491 C8.29993285,24.5817491 5.91941051,22.6674991 5.34293074,20.0295929 C5.19856858,19.3698741 4.71897617,18.8060616 4.05917327,18.5241554 C2.7424741,17.9603429 2.05166725,16.5769679 2.37817764,15.1596866 C2.61555166,14.1299054 3.46719153,13.2774054 4.49613525,13.0390929 C4.74513575,12.9819366 4.9854164,12.9548116 5.21503943,12.9548116 C6.43872674,12.9548116 7.36884536,13.7123741 7.7961186,14.5784366 C8.18657464,15.3708741 8.95682912,15.8629991 9.80653124,15.8629991 L15.8610221,15.8629991 L27.5030068,15.8629991 C28.5629545,15.8629991 29.425252,16.7261554 29.425252,17.7859679 L29.425252,18.7847491 Z M23.6120106,29.4254991 C23.0781613,29.4254991 22.6431371,28.9914991 22.6431371,28.4567491 C22.6431371,27.9229679 23.0781613,27.4879991 23.6120106,27.4879991 C24.1458599,27.4879991 24.5808842,27.9229679 24.5808842,28.4567491 C24.5808842,28.9914991 24.1458599,29.4254991 23.6120106,29.4254991 L23.6120106,29.4254991 Z M11.0166543,29.4254991 C10.482805,29.4254991 10.0477808,28.9914991 10.0477808,28.4567491 C10.0477808,27.9229679 10.482805,27.4879991 11.0166543,27.4879991 C11.5505036,27.4879991 11.9855279,27.9229679 11.9855279,28.4567491 C11.9855279,28.9914991 11.5505036,29.4254991 11.0166543,29.4254991 L11.0166543,29.4254991 Z M18.7676428,2.3004991 C20.3779107,2.3004991 21.9009799,2.6705616 23.2709671,3.31284285 L17.7987692,11.6528116 L17.7987692,3.2692491 C17.7987692,2.73546785 18.2337935,2.3004991 18.7676428,2.3004991 L18.7676428,2.3004991 Z M28.237413,8.08878035 L19.616376,12.4132804 L24.9461495,4.2903116 C26.3229188,5.27553035 27.455532,6.57559285 28.237413,8.08878035 L28.237413,8.08878035 Z M29.425252,12.9567491 C29.425252,13.4914991 28.9902278,13.9254991 28.4563784,13.9254991 L27.5030068,13.9254991 L20.9224176,13.9254991 L28.9708503,9.88871785 C29.2634501,10.8613429 29.425252,11.8901554 29.425252,12.9567491 L29.425252,12.9567491 Z M31.3629991,12.9567491 C31.3629991,13.8460616 30.9531656,14.6336554 30.32146,15.1674366 C30.9618855,15.8571866 31.3629991,16.7726554 31.3629991,17.7859679 L31.3629991,18.7847491 C31.3629991,22.3981866 28.8691186,25.4313429 25.5139094,26.2770616 C26.1242998,26.8108429 26.5186313,27.5848741 26.5186313,28.4567491 C26.5186313,30.0600304 25.2145275,31.3629991 23.6120106,31.3629991 C22.0094937,31.3629991 20.7053899,30.0600304 20.7053899,28.4567491 C20.7053899,27.7098429 20.9970209,27.0346241 21.4611113,26.5192491 L13.1675536,26.5192491 C13.6316441,27.0346241 13.923275,27.7098429 13.923275,28.4567491 C13.923275,30.0600304 12.6191712,31.3629991 11.0166543,31.3629991 C9.41413744,31.3629991 8.11003363,30.0600304 8.11003363,28.4567491 C8.11003363,27.5858429 8.5033963,26.8118116 9.11281777,26.2789991 C6.33408839,25.5679366 4.08145736,23.3320616 3.4497518,20.4432491 C3.44103194,20.4044991 3.38483727,20.3434679 3.29666978,20.3056866 C1.13801948,19.3805304 -0.0420685141,17.0342179 0.489843071,14.7256866 C0.895801093,12.9625616 2.29679226,11.5598116 4.05917327,11.1519679 C6.2788626,10.6375616 8.53440025,11.6944679 9.53427777,13.7210929 C9.58369032,13.8199054 9.68057767,13.9254991 9.80653124,13.9254991 L15.8610221,13.9254991 L15.8610221,3.2692491 C15.8610221,1.6669366 17.1651259,0.362999104 18.7676428,0.362999104 C25.7125285,0.362999104 31.3629991,6.0127491 31.3629991,12.9567491 Z M4.51551272,15.1755741 C4.34111548,15.3596366 4.23453939,15.6115116 4.23453939,15.8633866 C4.23453939,16.1249491 4.34111548,16.3671366 4.51551272,16.5511991 C4.6995987,16.7255741 4.95150582,16.8321366 5.20341295,16.8321366 C5.45532007,16.8321366 5.7072272,16.7255741 5.89131318,16.5511991 C6.06571042,16.3671366 6.17228651,16.1249491 6.17228651,15.8633866 C6.17228651,15.6115116 6.06571042,15.3596366 5.89131318,15.1755741 C5.53282996,14.8171366 4.87399594,14.8171366 4.51551272,15.1755741 Z"/>
  </g>
</svg>
