<svg xmlns="http://www.w3.org/2000/svg" width="48" height="48" viewBox="0 0 48 48">
  <path fill-rule="evenodd" d="M31,36.0032059 C27.14,36.0032059 24,32.8614311 24,29.0014791 C24,25.9957379 25.907,23.4341061 28.572,22.4428617 L30.022,29.2115309 C30.123,29.6806466 30.538,30.0017258 30.999,30.0017258 C31.068,30.0017258 31.139,29.9947241 31.209,29.9797204 C31.75,29.8636918 32.094,29.3315605 31.978,28.7914273 L30.528,22.0227581 C30.685,22.0137559 30.841,21.9997524 31,21.9997524 C34.86,21.9997524 38,25.1415272 38,29.0014791 C38,32.8614311 34.86,36.0032059 31,36.0032059 M18,32.0022192 C18,34.2087633 16.206,36.0032059 14,36.0032059 C11.794,36.0032059 10,34.2087633 10,32.0022192 C10,29.795675 11.794,28.0012325 14,28.0012325 C16.206,28.0012325 18,29.795675 18,32.0022192 M31,19.9992591 C35.962,19.9992591 40,24.0372549 40,29.0014791 C40,33.9657034 35.962,38.0036992 31,38.0036992 C26.038,38.0036992 22,33.9657034 22,29.0014791 C22,25.51762 23.993,22.4948745 26.896,20.9995057 L22,20.9995057 L21.5,20.9995057 C18.247,20.9995057 15.552,23.2200534 15.081,26.1037645 C17.875,26.6138903 20,29.0624942 20,32.0022192 C20,35.3120354 17.309,38.0036992 14,38.0036992 C10.691,38.0036992 8,35.3120354 8,32.0022192 C8,29.0134821 10.198,26.5348708 13.061,26.0817591 C13.404,23.2670649 15.306,20.8974806 17.931,19.7481971 C16.701,18.9169922 15.749,17.7236979 15.296,16.3023473 C15.232,16.102298 15.252,15.9042492 15.308,15.7182033 C13.275,15.4191295 12.543,14.9550151 12.293,14.7049534 C11.902,14.313857 11.902,13.6817011 12.293,13.2906046 C12.661,12.9215136 13.246,12.9015087 13.639,13.2275891 C13.774,13.3106095 15.042,13.997779 20,13.997779 C20.552,13.997779 21,14.4448893 21,14.9980257 C21,15.5511621 20.552,15.9982724 20,15.9982724 C18.967,15.9982724 18.075,15.968265 17.295,15.9192529 C17.993,17.7407021 19.883,18.9990124 22,18.9990124 L27.834,18.9990124 L27.022,15.2080775 C27.014,15.1720686 27.024,15.13706 27.021,15.1010511 C27.017,15.0650422 27,15.0340346 27,14.9980257 C27,14.9660178 27.016,14.9380109 27.019,14.9070032 C27.025,14.8379862 27.038,14.7729702 27.059,14.7079541 C27.077,14.6469391 27.099,14.5909253 27.128,14.5349115 C27.158,14.4778974 27.193,14.4288853 27.233,14.378873 C27.274,14.3288607 27.316,14.2828493 27.366,14.2418392 C27.413,14.2018293 27.463,14.1698214 27.519,14.1388138 C27.579,14.1038052 27.639,14.0777987 27.706,14.0577938 C27.736,14.0477913 27.759,14.0267862 27.791,14.0197844 C27.826,14.0127827 27.86,14.0217849 27.896,14.0187842 C27.932,14.0157834 27.963,13.997779 28,13.997779 L30,13.997779 C30.551,13.997779 31,13.5496685 31,12.9975323 C31,12.4453962 30.551,11.9972857 30,11.9972857 L26,11.9972857 C25.448,11.9972857 25,11.5501754 25,10.997039 C25,10.4439026 25.448,9.99679231 26,9.99679231 L30,9.99679231 C31.654,9.99679231 33,11.3431243 33,12.9975323 C33,14.6519403 31.654,15.9982724 30,15.9982724 L29.237,15.9982724 L30.104,20.0452704 C30.399,20.0162633 30.698,19.9992591 31,19.9992591 Z M13.0796,31.6212252 C13.0296,31.7412548 12.9996,31.8712869 12.9996,32.0013189 C12.9996,32.2713855 13.0996,32.5214472 13.2896,32.7114941 C13.4796,32.901541 13.7296,33.0015656 13.9996,33.0015656 C14.2696,33.0015656 14.5196,32.901541 14.7096,32.7114941 C14.8996,32.5214472 14.9996,32.2623833 14.9996,32.0013189 C14.9996,31.8712869 14.9796,31.7412548 14.9196,31.6212252 C14.8696,31.5011956 14.7996,31.3921687 14.7096,31.2911438 C14.6096,31.2011216 14.5096,31.1311043 14.3796,31.081092 C14.0096,30.9210525 13.5696,31.012075 13.2896,31.2911438 C13.1996,31.3921687 13.1296,31.5011956 13.0796,31.6212252 Z M32.29,9.70572052 C32.2,9.60569586 32.13,9.49566872 32.08,9.37563912 C32.03,9.25660977 32,9.12557745 32,8.99554539 C32,8.73548125 32.11,8.47641736 32.29,8.28537025 C32.39,8.19534804 32.49,8.12533078 32.62,8.07531844 C32.99,7.92628169 33.43,8.01630389 33.71,8.28537025 C33.89,8.47641736 34,8.73548125 34,8.99554539 C34,9.12557745 33.97,9.25660977 33.92,9.37563912 C33.87,9.49566872 33.8,9.60569586 33.71,9.70572052 C33.52,9.89576739 33.27,9.99579206 33,9.99579206 C32.87,9.99579206 32.74,9.97678737 32.62,9.91577233 C32.5,9.87576246 32.39,9.79574273 32.29,9.70572052 Z"/>
</svg>
