<svg xmlns="http://www.w3.org/2000/svg" width="48" height="48" viewBox="0 0 48 48">
  <path fill-rule="evenodd" d="M5.44966657,2.23419406 L5.44966657,27.2591382 L2.53485844,27.2793343 L2.51445479,2.2543902 L5.44966657,2.23419406 Z M11.3395222,2.08897417 L13.2147154,27.0446744 L10.3086517,27.2793343 L8.41402643,2.32459584 L11.3395222,2.08897417 Z M18.2116681,5.9050834 L20.9710198,26.8869521 L18.0834166,27.2793343 L15.3036612,6.30131249 L18.2116681,5.9050834 Z M24.629104,14.4836354 L28.6427948,26.3378094 L25.8853863,27.273564 L21.8532351,15.4251603 L24.629104,14.4836354 Z M2.51445479,29.1825803 L5.47007023,29.1825803 C6.53008878,29.1825803 7.39287199,28.328572 7.39287199,27.2793343 L7.39287199,14.3970805 L8.37127591,27.421669 C8.40916842,27.928496 8.64429628,28.3901222 9.03390896,28.7219159 C9.38562914,29.0229346 9.82576517,29.1845038 10.2863049,29.1845038 C10.3339134,29.1845038 10.3834651,29.1825803 10.4310737,29.1787334 L13.3789163,28.9613845 C13.8909509,28.9238774 14.3573202,28.6911409 14.6934947,28.3054907 C15.0277261,27.9208023 15.1919269,27.4293628 15.1540344,26.9225358 L13.9239854,10.5530814 L16.1567284,27.5274584 C16.2227974,28.0314002 16.4831869,28.4805239 16.8902885,28.7901981 C17.2303494,29.0489011 17.6374509,29.1845038 18.0591265,29.1845038 C18.1426844,29.1845038 18.2272138,29.1796952 18.3107716,29.1691162 L21.2411254,28.7911598 C21.7512168,28.7257628 22.2039837,28.4680216 22.5178113,28.0650604 C22.8306674,27.6620993 22.9666918,27.1620043 22.9006228,26.6580625 L22.4391115,23.1468189 L24.0432276,27.8842569 C24.3123616,28.6796002 25.0634104,29.1825803 25.8678975,29.1825803 C26.0699909,29.1825803 26.274999,29.1518052 26.4770924,29.0844848 L29.2791946,28.1554622 C30.2848034,27.821745 30.8289009,26.7407705 30.4917548,25.7453892 L26.4722344,13.8719808 C26.1350882,12.8775612 25.0439784,12.337074 24.037398,12.6727146 L21.2362674,13.6017372 C21.2187785,13.6075075 21.2032329,13.6171247 21.185744,13.6238568 L20.1383563,5.65792109 C20.0013603,4.61733888 19.0297576,3.88066054 17.9833415,4.01626321 L15.0529877,4.39325787 C14.360235,4.48269793 13.8073931,4.93085995 13.5460319,5.52231841 L13.276898,1.94567773 C13.1972266,0.900286924 12.2907212,0.113599084 11.2171002,0.189575049 L8.26925763,0.406924012 C7.74556377,0.445392855 7.28696729,0.69063173 6.9663384,1.05320058 C6.61364661,0.616579207 6.07732192,0.330948047 5.47007023,0.330948047 L2.51445479,0.330948047 C1.45443623,0.330948047 0.591653028,1.18495636 0.591653028,2.23419406 L0.591653028,27.2793343 C0.591653028,28.328572 1.45443623,29.1825803 2.51445479,29.1825803 L2.51445479,29.1825803 Z" transform="translate(9.408 9.815)"/>
</svg>
