<svg xmlns="http://www.w3.org/2000/svg" width="48" height="48" viewBox="0 0 48 48">
  <path fill-rule="evenodd" d="M28.0838431,26.0689655 L26.1463582,26.0689655 C25.6174249,26.0689655 25.1873032,25.6402759 25.1873032,25.1131034 L25.1873032,24.137931 C25.1873032,24.0211034 25.1592097,23.9129655 25.1214287,23.8096552 C26.4776681,23.7015172 27.5520035,23.5808276 28.3773721,23.4688276 C28.6176202,23.436 28.8443059,23.3655172 29.062273,23.2805517 L29.062273,25.1131034 C29.062273,25.6315862 28.6147139,26.0689655 28.0838431,26.0689655 L28.0838431,26.0689655 Z M2.8858837,21.5551724 C2.34532543,21.4817931 1.93748486,21.0115862 1.93748486,20.4612414 L1.93748486,17.6718621 C4.33802861,17.9924138 8.60921399,18.366069 15.4998789,18.366069 C22.3905438,18.366069 26.6617292,17.9924138 29.062273,17.6718621 L29.062273,20.4612414 C29.062273,21.0115862 28.6544324,21.4817931 28.1148429,21.5551724 C25.9390474,21.8525517 21.983672,22.2068966 15.4998789,22.2068966 C9.01608581,22.2068966 5.06167921,21.8525517 2.8858837,21.5551724 L2.8858837,21.5551724 Z M5.81245459,24.137931 L5.81245459,25.1131034 C5.81245459,25.6315862 5.36489559,26.0689655 4.83402473,26.0689655 L2.89653987,26.0689655 C2.3676065,26.0689655 1.93748486,25.6402759 1.93748486,25.1131034 L1.93748486,23.2805517 C2.15642065,23.3655172 2.38213764,23.436 2.62238576,23.4688276 C3.44775431,23.5808276 4.52305841,23.7015172 5.87929782,23.8096552 C5.84151686,23.9129655 5.81245459,24.0211034 5.81245459,24.137931 L5.81245459,24.137931 Z M7.12219436,3.97503448 C7.73928329,2.12993103 9.65254959,1.93103448 10.4469184,1.93103448 L20.5538082,1.93103448 C21.3472082,1.93103448 23.2604745,2.12993103 23.8998445,4.03393103 L25.7201116,8.48593103 C25.3955828,8.37875862 24.9732111,8.20689655 24.4617151,7.99931034 C22.4292935,7.1737931 19.0261014,5.79310345 15.4998789,5.79310345 C11.9746252,5.79310345 8.57143304,7.1737931 6.53804267,7.99931034 C6.0091093,8.21365517 5.57026898,8.39324138 5.24283404,8.49944828 C5.23217787,8.50331034 5.22152171,8.50427586 5.21183428,8.50717241 L7.12219436,3.97503448 Z M25.2580214,14.1902069 C26.6762603,14.085931 27.9520941,13.9575172 29.062273,13.8088276 L29.062273,15.7495172 C29.0177108,15.7495172 28.9760549,15.7350345 28.9314927,15.7408276 C27.5025976,15.9368276 25.350052,16.1550345 22.2927008,16.2931034 C22.4099187,14.4257931 25.1359599,14.1988966 25.2580214,14.1902069 L25.2580214,14.1902069 Z M10.6532605,16.3655172 C10.6193545,13.3753103 7.52131624,12.374069 5.88414153,12.2649655 C4.45234022,12.1587586 3.16875649,12.0293793 2.06923383,11.8787586 C2.02370294,11.8729655 1.98204702,11.8864828 1.93748486,11.8864828 L1.93748486,11.6470345 C1.93748486,11.0812414 2.399575,10.6206897 2.96725807,10.6206897 L4.02124983,10.6206897 C4.64415122,10.6206897 5.25639643,10.5251034 5.84054812,10.3368276 C6.20188905,10.2190345 6.68722901,10.024 7.26944321,9.78744828 C9.29411489,8.9657931 12.3534035,7.72413793 15.4998789,7.72413793 C18.6463543,7.72413793 21.7066117,8.9657931 23.7312833,9.78744828 C24.3134976,10.024 24.7988375,10.2190345 25.1601784,10.3368276 C25.7443301,10.5251034 26.3556066,10.6206897 26.978508,10.6206897 L28.0334685,10.6206897 C28.6011516,10.6206897 29.062273,11.0812414 29.062273,11.6470345 L29.062273,11.8864828 C29.0177108,11.8864828 28.9760549,11.872 28.9314927,11.8787586 C27.8310013,12.0293793 26.5483863,12.1587586 25.1223975,12.264 C23.4784416,12.374069 20.381372,13.3753103 20.3464973,16.3655172 C18.9030711,16.4089655 17.2939899,16.4350345 15.4998789,16.4350345 C13.7057679,16.4350345 12.0976555,16.4089655 10.6532605,16.3655172 L10.6532605,16.3655172 Z M1.93748486,13.8088276 C3.04766369,13.9575172 4.32446622,14.085931 5.74851759,14.1902069 C5.77661112,14.1931034 8.58790166,14.4084138 8.70802572,16.2931034 C5.64970586,16.1550345 3.49812892,15.9368276 2.06923383,15.7408276 C2.02370294,15.7350345 1.98204702,15.7495172 1.93748486,15.7495172 L1.93748486,13.8088276 Z M30.7159163,7.44124138 L29.2153343,8.9377931 C30.2635136,9.39351724 30.9997578,10.4353103 30.9997578,11.6470345 L30.9997578,20.4612414 C30.9997578,20.6437241 30.9823205,20.8223448 30.950352,20.9961379 C30.9716643,21.0762759 30.9997578,21.1544828 30.9997578,21.2413793 L30.9997578,25.1131034 C30.9997578,26.7052414 29.6919555,28 28.0838431,28 L26.1463582,28 C24.5498707,28 23.2498184,26.7052414 23.2498184,25.1131034 L23.2498184,24.137931 C23.2498184,24.0655172 23.2759744,24.0017931 23.2914743,23.9342069 C21.2212717,24.053931 18.655073,24.137931 15.4998789,24.137931 C12.3456535,24.137931 9.77848611,24.053931 7.70925227,23.9342069 C7.72378341,24.0017931 7.74993945,24.0655172 7.74993945,24.137931 L7.74993945,25.1131034 C7.74993945,26.7052414 6.44213717,28 4.83402473,28 L2.89653987,28 C1.30005234,28 -5.38714906e-13,26.7052414 -5.38714906e-13,25.1131034 L-5.38714906e-13,21.2413793 C-5.38714906e-13,21.1544828 0.0280935305,21.0762759 0.049405864,20.9961379 C0.0184061062,20.8223448 -5.38714906e-13,20.6437241 -5.38714906e-13,20.4612414 L-5.38714906e-13,11.6470345 C-5.38714906e-13,10.4353103 0.736244248,9.39351724 1.7853923,8.9377931 L0.283841532,7.44124138 C-0.0939680159,7.06372414 -0.0939680159,6.45351724 0.283841532,6.076 C0.662619823,5.69848276 1.27583378,5.69848276 1.65364333,6.076 L3.40125468,7.81682759 L5.31064601,3.29531034 C5.97810955,1.28896552 7.95628159,-6.10622664e-16 10.4469184,-6.10622664e-16 L20.5538082,-6.10622664e-16 C23.0434762,-6.10622664e-16 25.0216483,1.28896552 25.7162366,3.36386207 L27.5568472,7.86027586 L29.3461145,6.076 C29.7248928,5.69848276 30.3381067,5.69848276 30.7159163,6.076 C31.0946946,6.45351724 31.0946946,7.06372414 30.7159163,7.44124138 Z M18.4063968,19.3103448 L18.3957407,19.3103448 C17.777683,19.3103448 16.1686018,19.3209655 15.5001695,19.3209655 C14.8317373,19.3209655 13.2226561,19.3103448 12.6045984,19.3103448 L12.5939422,19.3103448 C12.0640401,19.3103448 11.6310123,19.741931 11.6251998,20.2710345 C11.6193873,20.804 12.0485402,21.2462069 12.5832861,21.252 C13.2071562,21.2587586 14.8268935,21.2626207 15.5001695,21.2626207 C16.1734455,21.2626207 17.7931829,21.2558621 18.417053,21.2491034 C18.9517988,21.2442759 19.3809517,20.804 19.3751393,20.2710345 C19.3693268,19.741931 18.9362989,19.3103448 18.4063968,19.3103448 Z M17.4376544,14.4827586 C17.4376544,13.9497931 17.0036578,13.5172414 16.468912,13.5172414 L14.5314271,13.5172414 C13.9966813,13.5172414 13.5626847,13.9497931 13.5626847,14.4827586 C13.5626847,15.0157241 13.9966813,15.4482759 14.5314271,15.4482759 L16.468912,15.4482759 C17.0036578,15.4482759 17.4376544,15.0157241 17.4376544,14.4827586 Z" transform="translate(9 10)"/>
</svg>
