<svg xmlns="http://www.w3.org/2000/svg" width="48" height="48" viewBox="0 0 48 48">
  <path fill-rule="evenodd" d="M23.9875103,18.9920994 C25.0894506,18.9920994 25.9855888,19.8884552 25.9855888,20.990663 C25.9855888,22.0928707 25.0894506,22.9892265 23.9875103,22.9892265 C22.88557,22.9892265 21.9894318,22.0928707 21.9894318,20.990663 C21.9894318,19.8884552 22.88557,18.9920994 23.9875103,18.9920994 M36.9999967,17.9908191 C37.0009957,18.4634794 36.7782099,18.8971677 36.3895837,19.181963 C36.1258373,19.3748243 35.9759814,19.6686132 35.9759814,19.9913812 C35.9759814,20.3141492 36.1258373,20.6089373 36.3875856,20.8007994 C36.7762119,21.0835962 36.9989976,21.5162852 36.9999967,21.9879462 C37.0009957,22.4606064 36.7782099,22.8942947 36.3895837,23.17909 C36.1258373,23.3719514 35.9759814,23.6657402 35.9759814,23.9885083 C35.9759814,24.3112763 36.1258373,24.6060644 36.3875856,24.7979265 C36.7762119,25.0807232 36.9989976,25.5134122 36.9999967,25.9850732 C37.0009957,26.4577335 36.7782099,26.8914218 36.3895837,27.1762171 C36.1258373,27.3690785 35.9759814,27.6628673 35.9759814,27.9856353 C35.9759814,28.3084033 36.1258373,28.6031915 36.3875856,28.7950536 C36.7762119,29.0778503 36.9989976,29.5105393 36.9999967,29.9822003 C37.0009957,30.4548606 36.7782099,30.8885489 36.3895837,31.1733442 C36.1258373,31.3662055 35.9759814,31.6599944 35.9759814,31.9827624 C35.9759814,32.3055304 36.1258373,32.6003185 36.3875856,32.7921806 C36.7762119,33.0749774 36.9989976,33.5076664 36.9999967,33.9793274 C37.0009957,34.4519876 36.7782099,34.8856759 36.3895837,35.1704712 C36.1258373,35.3633326 35.9759814,35.6571214 35.9759814,35.9798895 C35.9759814,36.531493 36.42455,36.9791712 36.9750207,36.9791712 L36.9750207,39.9770165 L34.9769422,39.9770165 L33.9779029,39.9770165 L32.9788636,39.9770165 C32.9788636,39.425413 32.530295,38.9777348 31.9798244,38.9777348 C31.6581337,38.9777348 31.3634172,39.1266277 31.1726007,39.3874403 C30.8878745,39.7771602 30.4532924,40 29.9817459,40 C29.5101993,40 29.0756173,39.7771602 28.7908911,39.3884396 C28.408259,38.8658152 27.5580766,38.8668145 27.1764436,39.3874403 C26.6059922,40.1658808 25.3641864,40.1648815 24.7947341,39.3884396 C24.412102,38.8658152 23.5619196,38.8668145 23.1802866,39.3874403 C22.6098352,40.1658808 21.3680294,40.1648815 20.798577,39.3884396 C20.415945,38.8658152 19.5657626,38.8668145 19.1841296,39.3874403 C18.6136782,40.1658808 17.3718724,40.1648815 16.80242,39.3884396 C16.6116035,39.1266277 16.3168869,38.9777348 15.9951963,38.9777348 C15.4447257,38.9777348 14.996157,39.425413 14.996157,39.9770165 L13.9971178,39.9770165 L12.9980785,39.9770165 L11,39.9770165 L11,38.9777348 L11,37.978453 L11,36.9791712 C11.5504706,36.9791712 11.9990393,36.531493 11.9990393,35.9798895 C11.9990393,35.666115 11.8561766,35.3763233 11.6064168,35.1854605 C11.2307781,34.8976673 11.0169837,34.4589826 11.0169837,33.9813259 C11.0169837,33.5036692 11.2307781,33.0649845 11.6054178,32.7781907 C11.8561766,32.5863286 11.9990393,32.2965369 11.9990393,31.9827624 C11.9990393,31.6689879 11.8561766,31.3791962 11.6064168,31.1883334 C11.2307781,30.9005402 11.0169837,30.4618555 11.0169837,29.9841989 C11.0169837,29.5065422 11.2307781,29.0678575 11.6054178,28.7810636 C11.8561766,28.5892015 11.9990393,28.2994098 11.9990393,27.9856353 C11.9990393,27.6718609 11.8561766,27.3820691 11.6064168,27.1912063 C11.2307781,26.9034132 11.0169837,26.4647285 11.0169837,25.9870718 C11.0169837,25.5094151 11.2307781,25.0707304 11.6054178,24.7839365 C11.8561766,24.5920744 11.9990393,24.3022827 11.9990393,23.9885083 C11.9990393,23.6747338 11.8561766,23.3849421 11.6064168,23.1940793 C11.2307781,22.9062861 11.0169837,22.4676014 11.0169837,21.9899447 C11.0169837,21.512288 11.2307781,21.0736033 11.6054178,20.7868095 C11.8561766,20.5949474 11.9990393,20.3051557 11.9990393,19.9913812 C11.9990393,19.6776067 11.8561766,19.387815 11.6064168,19.1969522 C11.2307781,18.909159 11.0169837,18.4704743 11.0169837,17.9928177 C11.0169837,17.515161 11.2307781,17.0764763 11.6054178,16.7896824 C11.8561766,16.5978203 11.9990393,16.3080286 11.9990393,15.9942541 C11.9990393,15.6804797 11.8561766,15.3906879 11.6064168,15.1998251 C11.2307781,14.912032 11.0169837,14.4733473 11.0169837,13.9956906 C11.0169837,13.5180339 11.2307781,13.0793492 11.6054178,12.7925554 C11.8561766,12.6006933 11.9990393,12.3109015 11.9990393,11.9971271 C11.9990393,11.4455235 11.5504706,10.9978453 11,10.9978453 L11,9.99856353 L11,8.99928177 L11,8 L12.9980785,8 L13.9971178,8 L14.996157,8 C14.996157,8.55160353 15.4447257,8.99928177 15.9951963,8.99928177 C16.3168869,8.99928177 16.6116035,8.85038878 16.80242,8.58957624 C17.3478954,7.84411204 18.6376551,7.84211348 19.1851286,8.59157481 C19.5647635,9.10820348 20.415945,9.11020204 20.798577,8.58957624 C21.3440525,7.84411204 22.6338121,7.84211348 23.1812857,8.59157481 C23.5609206,9.10820348 24.412102,9.11020204 24.7947341,8.58957624 C25.3402095,7.84411204 26.6299692,7.84211348 27.1774427,8.59157481 C27.5570776,9.10820348 28.408259,9.11020204 28.7908911,8.58957624 C29.3363665,7.84411204 30.6261262,7.84211348 31.1735997,8.59157481 C31.3634172,8.85038878 31.6581337,8.99928177 31.9798244,8.99928177 C32.530295,8.99928177 32.9788636,8.55160353 32.9788636,8 L33.9779029,8 L34.9769422,8 L36.9750207,8 L36.9750207,10.9978453 C36.42455,10.9978453 35.9759814,11.4455235 35.9759814,11.9971271 C35.9759814,12.3198951 36.1258373,12.6146832 36.3875856,12.8065453 C36.7762119,13.089342 36.9989976,13.522031 36.9999967,13.993692 C37.0009957,14.4663523 36.7782099,14.9000406 36.3895837,15.1848359 C36.1258373,15.3776973 35.9759814,15.6714861 35.9759814,15.9942541 C35.9759814,16.3170221 36.1258373,16.6118103 36.3875856,16.8036724 C36.7762119,17.0864691 36.9989976,17.5191581 36.9999967,17.9908191 Z M31.9798244,36.9791712 C32.8619761,36.9791712 33.6482199,37.3698904 34.1976915,37.978453 L34.743167,37.978453 C34.2676243,37.4478344 33.9779029,36.7473379 33.9779029,35.9798895 C33.9779029,35.2384224 34.2556358,34.5259345 34.7421679,33.9813259 C34.2556358,33.4357181 33.9779029,32.7242295 33.9779029,31.9827624 C33.9779029,31.2412953 34.2556358,30.5288074 34.7421679,29.9841989 C34.2556358,29.438591 33.9779029,28.7271024 33.9779029,27.9856353 C33.9779029,27.2441683 34.2556358,26.5316804 34.7421679,25.9870718 C34.2556358,25.4414639 33.9779029,24.7299753 33.9779029,23.9885083 C33.9779029,23.2470412 34.2556358,22.5345533 34.7421679,21.9899447 C34.2556358,21.4443369 33.9779029,20.7328483 33.9779029,19.9913812 C33.9779029,19.2499141 34.2556358,18.5374262 34.7421679,17.9928177 C34.2556358,17.4472098 33.9779029,16.7357212 33.9779029,15.9942541 C33.9779029,15.2527871 34.2556358,14.5402992 34.7421679,13.9956906 C34.2556358,13.4500828 33.9779029,12.7385941 33.9779029,11.9971271 C33.9779029,11.2296787 34.2676243,10.5291822 34.743167,9.99856353 L34.1976915,9.99856353 C33.6482199,10.6071261 32.8619761,10.9978453 31.9798244,10.9978453 C31.2385373,10.9978453 30.5262223,10.720045 29.9817459,10.2333947 C28.889796,11.2066952 27.0745416,11.2046966 25.9855888,10.2333947 C24.8936389,11.2066952 23.0793837,11.2046966 21.9894318,10.2333947 C20.8974819,11.2066952 19.0822276,11.2046966 17.9932748,10.2333947 C17.4477994,10.720045 16.7354844,10.9978453 15.9951963,10.9978453 C15.1130446,10.9978453 14.3268007,10.6071261 13.7773291,9.99856353 L13.2178671,9.99856353 C13.696407,10.5301814 13.9971178,11.2266808 13.9971178,11.9971271 C13.9971178,12.7475877 13.7243801,13.451082 13.2358499,13.9956906 C13.7243801,14.5392999 13.9971178,15.2437935 13.9971178,15.9942541 C13.9971178,16.7447147 13.7243801,17.4482091 13.2358499,17.9928177 C13.7243801,18.5364269 13.9971178,19.2409206 13.9971178,19.9913812 C13.9971178,20.7418418 13.7243801,21.4453362 13.2358499,21.9899447 C13.7243801,22.533554 13.9971178,23.2380477 13.9971178,23.9885083 C13.9971178,24.7389689 13.7243801,25.4424632 13.2358499,25.9870718 C13.7243801,26.5306811 13.9971178,27.2351747 13.9971178,27.9856353 C13.9971178,28.7360959 13.7243801,29.4395903 13.2358499,29.9841989 C13.7243801,30.5278081 13.9971178,31.2323018 13.9971178,31.9827624 C13.9971178,32.733223 13.7243801,33.4367174 13.2358499,33.9813259 C13.7243801,34.5249352 13.9971178,35.2294288 13.9971178,35.9798895 C13.9971178,36.7503357 13.696407,37.4468351 13.2178671,37.978453 L13.7773291,37.978453 C14.3268007,37.3698904 15.1130446,36.9791712 15.9951963,36.9791712 C16.7364834,36.9791712 17.4487984,37.2569716 17.9932748,37.7436218 C19.0822276,36.7713206 20.89948,36.7713206 21.9894318,37.7436218 C23.0783846,36.7713206 24.895637,36.7713206 25.9855888,37.7436218 C27.0745416,36.7713206 28.891794,36.7713206 29.9817459,37.7436218 C30.5262223,37.2569716 31.2385373,36.9791712 31.9798244,36.9791712 Z M30.2754634,12.9964088 C31.2155594,12.9964088 31.9798244,13.7608594 31.9798244,14.7001842 L31.9798244,33.2768323 C31.9798244,34.2161571 31.2155594,34.9806077 30.2754634,34.9806077 L17.6995573,34.9806077 C16.7594613,34.9806077 15.9951963,34.2161571 15.9951963,33.2768323 L15.9951963,14.7001842 C15.9951963,13.7608594 16.7594613,12.9964088 17.6995573,12.9964088 L30.2754634,12.9964088 Z M29.9817459,32.9820442 L29.9817459,31.2333011 C29.9817459,30.1900509 27.7009393,28.7350966 23.9875103,28.7350966 C20.2740814,28.7350966 17.9932748,30.1900509 17.9932748,31.2333011 L17.9932748,32.9820442 L29.9817459,32.9820442 Z M29.9817459,14.9949724 L17.9932748,14.9949724 L17.9932748,28.2034787 C19.4348884,27.2951316 21.5478565,26.7365331 23.9875103,26.7365331 C26.4271642,26.7365331 28.5401322,27.2951316 29.9817459,28.2034787 L29.9817459,14.9949724 Z M23.9875103,24.98779 C21.7836297,24.98779 19.9913533,23.1950785 19.9913533,20.990663 C19.9913533,18.7862474 21.7836297,16.9935359 23.9875103,16.9935359 C26.1913909,16.9935359 27.9836674,18.7862474 27.9836674,20.990663 C27.9836674,23.1950785 26.1913909,24.98779 23.9875103,24.98779 Z"/>
</svg>
