<svg xmlns="http://www.w3.org/2000/svg" width="48" height="48" viewBox="0 0 48 48">
  <path fill-rule="evenodd" d="M23,26.0351852 C23,26.5666667 22.5542273,27 22.0053636,27 L2.99463636,27 C2.44577273,27 2,26.5666667 2,26.0351852 L2,2.96388889 C2,2.43240741 2.44577273,2 2.99463636,2 L22.0053636,2 C22.5542273,2 23,2.43240741 23,2.96388889 L23,26.0351852 Z M22.075,-5.55111512e-15 C23.6884615,-5.55111512e-15 25,1.27875 25,2.8509375 L25,26.210625 C25,27.7696875 23.7086538,29.0371875 22.1144231,29.0578125 C22.1144231,29.0596875 22.1153846,29.060625 22.1153846,29.0625 C22.1153846,29.58 21.6846154,30 21.1538462,30 L19.2307692,30 C18.7,30 18.2692308,29.58 18.2692308,29.0625 L6.73076923,29.0625 C6.73076923,29.58 6.3,30 5.76923077,30 L3.84615385,30 C3.31538462,30 2.88461538,29.58 2.88461538,29.0625 L2.88461538,29.0578125 C0.961538462,29.0371875 0,27.7696875 0,26.210625 L0,2.8509375 C0,1.27875 1.31153846,-5.55111512e-15 2.925,-5.55111512e-15 L22.075,-5.55111512e-15 Z M19.2788462,4.26015625 C19.1057692,4.43828125 19,4.68203125 19,4.92578125 C19,5.16953125 19.1057692,5.41328125 19.2788462,5.59140625 C19.4615385,5.76015625 19.7115385,5.86328125 19.9615385,5.86328125 C20.2115385,5.86328125 20.4615385,5.76015625 20.6442308,5.59140625 C20.8173077,5.41328125 20.9230769,5.16953125 20.9230769,4.92578125 C20.9230769,4.68203125 20.8173077,4.43828125 20.6442308,4.26015625 C20.2788462,3.91328125 19.6442308,3.91328125 19.2788462,4.26015625 Z M16.9615385,5.86328125 C17.2115385,5.86328125 17.4615385,5.76015625 17.6442308,5.59140625 C17.8173077,5.41328125 17.9230769,5.16953125 17.9230769,4.92578125 C17.9230769,4.68203125 17.8173077,4.43828125 17.6442308,4.26015625 C17.2884615,3.91328125 16.6346154,3.91328125 16.2788462,4.26015625 C16.1057692,4.43828125 16,4.68203125 16,4.92578125 C16,5.16953125 16.1057692,5.41328125 16.2788462,5.59140625 C16.4615385,5.76015625 16.7115385,5.86328125 16.9615385,5.86328125 Z M13.9615385,5.86328125 C14.2115385,5.86328125 14.4615385,5.76015625 14.6442308,5.59140625 C14.8173077,5.41328125 14.9230769,5.16953125 14.9230769,4.92578125 C14.9230769,4.68203125 14.8173077,4.43828125 14.6442308,4.26015625 C14.2788462,3.91328125 13.6346154,3.91328125 13.2788462,4.26015625 C13.1057692,4.43828125 13,4.68203125 13,4.92578125 C13,5.16953125 13.1057692,5.41328125 13.2788462,5.59140625 C13.4615385,5.76015625 13.7115385,5.86328125 13.9615385,5.86328125 Z M4.96153846,5.875 L9.76923077,5.875 C10.3,5.875 10.7307692,5.455 10.7307692,4.9375 C10.7307692,4.42 10.3,4 9.76923077,4 L4.96153846,4 C4.43076923,4 4,4.42 4,4.9375 C4,5.455 4.43076923,5.875 4.96153846,5.875 Z M12.5,23 C8.91571429,23 6,20.0842857 6,16.5 C6,12.9157143 8.91571429,10 12.5,10 C16.0842857,10 19,12.9157143 19,16.5 C19,20.0842857 16.0842857,23 12.5,23 Z M4,16.5 C4,21.1863333 7.81366667,25 12.5,25 C17.1863333,25 21,21.1863333 21,16.5 C21,11.8136667 17.1863333,8 12.5,8 C7.81366667,8 4,11.8136667 4,16.5 Z M12.5,12.1870312 C9.84903846,12.1870312 7.69230769,14.2898437 7.69230769,16.8745312 C7.69230769,17.3920312 8.12307692,17.8120312 8.65384615,17.8120312 C9.18461538,17.8120312 9.61538462,17.3920312 9.61538462,16.8745312 C9.61538462,15.3239062 10.9096154,14.0620312 12.5,14.0620312 C13.0307692,14.0620312 13.4615385,13.6420312 13.4615385,13.1245312 C13.4615385,12.6070312 13.0307692,12.1870312 12.5,12.1870312 Z" transform="translate(11 8)"/>
</svg>
