<svg xmlns="http://www.w3.org/2000/svg" width="48" height="48" viewBox="0 0 48 48">
  <path fill-rule="evenodd" d="M27.685958,30.727582 C24.6732483,30.9345906 21.7477909,29.788615 19.6868328,27.6392919 L20.2785434,26.9637903 C22.1188637,28.1652322 24.3061872,28.7327724 26.5225947,28.5752875 C32.0385411,28.1830607 36.2025792,23.4317689 35.8054311,17.9841757 C35.7332223,17.0075708 35.5155932,16.0646419 35.1705958,15.1791604 C36.1875357,16.6044489 36.8344058,18.3031075 36.9677914,20.1364703 C37.3649396,25.5840635 33.2019044,30.3353553 27.685958,30.727582 Z M11.7669367,36.6763539 C11.5914293,36.8764291 11.3477247,36.9962762 11.0809535,37.0160856 C10.8131794,37.0408474 10.5554342,36.9507145 10.3528486,36.7763915 L10.3518457,36.7763915 C10.1502629,36.6040494 10.0279092,36.3623744 10.0088541,36.098909 C9.98879612,35.8354436 10.0750455,35.5799019 10.2505528,35.3798267 L14.1889386,30.8860575 L15.7053224,32.1825847 L11.7669367,36.6763539 Z M38.9685756,19.9928519 C38.5393347,14.1272797 33.7364497,9.4027306 27.7942711,9.00158965 C27.2757721,8.97286597 26.8074181,9.33636901 26.7332036,9.85141419 C26.6599919,10.3644784 26.9989719,10.8478285 27.5134593,10.9587613 C30.963433,11.7006245 33.5509133,14.6492581 33.8046469,18.1268036 C34.122566,22.4848782 30.7919372,26.2863078 26.3791801,26.6002873 C24.4766801,26.7349914 22.624325,26.2001368 21.0949035,25.1026944 C21.0377382,24.9887901 20.9575063,24.8838002 20.8542076,24.7946577 C20.4349957,24.4351166 19.8011633,24.4816687 19.4391167,24.8946954 L15.5007309,29.3884646 L14.742539,28.7406962 C14.32433,28.383136 13.6904976,28.4277072 13.3284509,28.8417243 L8.73416904,34.0842899 C8.20764688,34.6835252 7.94990175,35.4501501 8.00806991,36.2415369 C8.06623807,37.0329236 8.43229633,37.7549773 9.04005334,38.2739844 C9.59164798,38.7464393 10.2816427,39 11.0037303,39 C11.0769419,39 11.1511565,38.9970286 11.225371,38.9920762 C12.0266876,38.9346289 12.7578012,38.5731068 13.2843234,37.9718906 L17.8786053,32.7293249 C18.0521069,32.5312306 18.1393591,32.2727176 18.120304,32.0102426 C18.1012489,31.7477677 17.9768894,31.5041117 17.7763095,31.3327601 L17.0181176,30.6849917 L18.3640086,29.1487704 C20.6255466,31.4337882 23.7224998,32.7332868 26.9628675,32.7332868 C27.2506997,32.7332868 27.5405376,32.7243726 27.8303755,32.7025822 C34.4485083,32.2321082 39.4449528,26.5309543 38.9685756,19.9928519 Z"/>
</svg>
