<svg xmlns="http://www.w3.org/2000/svg" width="48" height="48" viewBox="0 0 48 48">
  <path fill-rule="evenodd" d="M28.3984375,18.7550034 C28.3984375,19.2628434 27.9784375,19.6750034 27.4609375,19.6750034 L3.0859375,19.6750034 C2.5684375,19.6750034 2.1484375,19.2628434 2.1484375,18.7550034 L2.1484375,15.9950034 C2.1484375,15.4871634 2.5684375,15.0750034 3.0859375,15.0750034 L27.4609375,15.0750034 C27.9784375,15.0750034 28.3984375,15.4871634 28.3984375,15.9950034 L28.3984375,18.7550034 Z M4.3965625,9.55500343 C5.636875,9.55500343 6.6446875,10.5449234 6.6446875,11.7611634 C6.6446875,12.2993634 6.445,12.8182434 6.083125,13.2193634 C6.079375,13.2239634 6.0775,13.2304034 6.0746875,13.2350034 L3.0859375,13.2350034 C2.966875,13.2350034 2.854375,13.2552434 2.74,13.2690434 C2.726875,13.2543234 2.723125,13.2340834 2.71,13.2184434 C2.348125,12.8173234 2.1484375,12.2984434 2.1484375,11.7611634 C2.1484375,10.5449234 3.1571875,9.55500343 4.3965625,9.55500343 Z M4.0234375,5.89340343 C4.0234375,3.85376343 6.0971875,2.19500343 8.6471875,2.19500343 L11.505625,2.19500343 C13.0665625,2.19500343 14.3359375,3.44068343 14.3359375,4.97248343 L14.3359375,13.2350034 L8.2328125,13.2350034 C8.4184375,12.7694834 8.5196875,12.2708434 8.5196875,11.7611634 C8.5196875,9.53016343 6.67,7.71500343 4.3965625,7.71500343 C4.2690625,7.71500343 4.148125,7.74076343 4.0234375,7.75180343 L4.0234375,5.89340343 Z M19.04125,2.19500343 L21.8996875,2.19500343 C24.4496875,2.19500343 26.5234375,3.85376343 26.5234375,5.89340343 L26.5234375,7.73800343 C26.4971875,7.73616343 26.4728125,7.72788343 26.4465625,7.72604343 C25.3459375,7.64784343 24.2846875,7.99468343 23.4521875,8.70216343 C22.61875,9.40964343 22.1171875,10.3931234 22.0384375,11.4704434 C21.9934375,12.0776434 22.1040625,12.6765634 22.3271875,13.2350034 L16.2109375,13.2350034 L16.2109375,4.97248343 C16.2109375,3.44068343 17.4803125,2.19500343 19.04125,2.19500343 Z M27.4609375,13.2350034 L24.4290625,13.2350034 C24.4046875,13.1890034 24.394375,13.1393234 24.360625,13.0979234 C24.0296875,12.6701234 23.8684375,12.1392834 23.9078125,11.6038434 C23.9509375,11.0150434 24.225625,10.4786834 24.6784375,10.0932034 C25.1340625,9.70680343 25.710625,9.52004343 26.310625,9.56052343 C26.910625,9.60284343 27.4571875,9.87240343 27.85,10.3176834 C28.2428125,10.7629634 28.4359375,11.3324434 28.3928125,11.9194034 C28.36375,12.3067234 28.2325,12.6793234 28.013125,12.9976434 C27.9521875,13.0850434 27.919375,13.1807234 27.893125,13.2782434 C27.7515625,13.2561634 27.6090625,13.2350034 27.4609375,13.2350034 Z M29.494375,14.0979634 C29.515,14.0731234 29.545,14.0593234 29.56375,14.0308034 C29.96875,13.4466034 30.210625,12.7621234 30.2621875,12.0528034 C30.341875,10.9745634 29.9884375,9.93036343 29.2675,9.11340343 C29.0134375,8.82544343 28.714375,8.59360343 28.3984375,8.38936343 L28.3984375,5.89340343 C28.3984375,2.83900343 25.48375,0.355003427 21.8996875,0.355003427 L19.04125,0.355003427 C17.494375,0.355003427 16.13125,1.10112343 15.2734375,2.23456343 C14.415625,1.10112343 13.0525,0.355003427 11.505625,0.355003427 L8.6471875,0.355003427 C5.063125,0.355003427 2.1484375,2.83900343 2.1484375,5.89340343 L2.1484375,8.37740343 C1.0225,9.10052343 0.2734375,10.3443634 0.2734375,11.7611634 C0.2734375,12.6066434 0.5565625,13.4171634 1.0515625,14.0988834 C0.5715625,14.5947634 0.2734375,15.2599234 0.2734375,15.9950034 L0.2734375,18.7550034 C0.2734375,20.2766834 1.5353125,21.5150034 3.0859375,21.5150034 L3.0859375,22.4350034 C3.0859375,22.9437634 3.505,23.3550034 4.0234375,23.3550034 C4.541875,23.3550034 4.9609375,22.9437634 4.9609375,22.4350034 L4.9609375,21.5150034 L25.5859375,21.5150034 L25.5859375,22.4350034 C25.5859375,22.9437634 26.005,23.3550034 26.5234375,23.3550034 C27.041875,23.3550034 27.4609375,22.9437634 27.4609375,22.4350034 L27.4609375,21.5150034 C29.0115625,21.5150034 30.2734375,20.2766834 30.2734375,18.7550034 L30.2734375,15.9950034 C30.2734375,15.2590034 29.974375,14.5938434 29.494375,14.0979634 Z" transform="translate(7.727 12.645)"/>
</svg>
