<svg xmlns="http://www.w3.org/2000/svg" width="48" height="48" viewBox="0 0 48 48">
  <path fill-rule="evenodd" d="M23.62975,24.7617076 C22.7365625,25.4383562 21.6205625,24.9614527 19.874875,24.1318891 C19.3042813,23.8604651 18.6978438,23.5766168 18.06525,23.3395986 C18.0042188,23.2860784 17.9480313,23.2277795 17.8715,23.1895508 L13.9965,21.278114 C13.516,21.0410959 12.93475,21.234151 12.6964375,21.7053202 C12.4571563,22.177445 12.6509063,22.7518318 13.1294688,22.9878942 L13.4695,23.155145 C12.6412188,23.4170118 11.8555625,23.7849634 11.1260938,24.1318891 C9.3794375,24.9624084 8.26440625,25.4364447 7.37121875,24.7617076 C4.1210625,22.306467 1.9375,17.5575024 1.9375,12.9452055 C1.9375,4.81013061 8.9435,1.91143676 15.5,1.91143676 C22.0565,1.91143676 29.0625,4.81013061 29.0625,12.9452055 C29.0625,17.5575024 26.8789375,22.306467 23.62975,24.7617076 M15.5,8.04911693e-15 C24.91625,8.04911693e-15 31,5.08155464 31,12.9452055 C31,18.1213762 28.51225,23.4800892 24.80775,26.2793883 C22.9235313,27.7034087 20.8571875,26.7209302 19.034,25.8540937 C17.8618125,25.2969098 16.6499063,24.7206117 15.5,24.7206117 C14.3510625,24.7206117 13.1391563,25.2969098 11.9669688,25.8540937 C10.81125,26.4036317 9.5576875,26.9990443 8.31478125,27 C7.5969375,27 6.88296875,26.8012106 6.19321875,26.2793883 C2.48871875,23.4810449 1.48853152e-13,18.122332 1.48853152e-13,12.9452055 C1.48853152e-13,5.08155464 6.08471875,8.04911693e-15 15.5,8.04911693e-15 Z M11,12 L10,12 L10,11 C10,10.448 9.552,10 9,10 C8.448,10 8,10.448 8,11 L8,12 L7,12 C6.448,12 6,12.448 6,13 C6,13.552 6.448,14 7,14 L8,14 L8,15 C8,15.552 8.448,16 9,16 C9.552,16 10,15.552 10,15 L10,14 L11,14 C11.552,14 12,13.552 12,13 C12,12.448 11.552,12 11,12 Z M21.29,15.2792453 C21.11,15.4704403 21,15.7320755 21,15.9937107 C21,16.2553459 21.11,16.5169811 21.29,16.7081761 C21.48,16.8893082 21.74,17 22,17 C22.26,17 22.52,16.8893082 22.71,16.7081761 C22.89,16.5169811 23,16.2553459 23,15.9937107 C23,15.7320755 22.89,15.4704403 22.71,15.2792453 C22.34,14.9069182 21.66,14.9069182 21.29,15.2792453 Z M18.29,12.2792453 C18.11,12.4704403 18,12.7320755 18,12.9937107 C18,13.2654088 18.11,13.5169811 18.29,13.7081761 C18.48,13.8893082 18.74,14 19,14 C19.27,14 19.52,13.8893082 19.71,13.7081761 C19.89,13.5169811 20,13.2654088 20,12.9937107 C20,12.7320755 19.89,12.4704403 19.71,12.2792453 C19.34,11.9069182 18.66,11.9069182 18.29,12.2792453 Z M24.29,12.2792453 C24.11,12.4704403 24,12.7320755 24,12.9937107 C24,13.2654088 24.11,13.5169811 24.29,13.7081761 C24.48,13.8893082 24.74,14 25,14 C25.26,14 25.52,13.8893082 25.71,13.7081761 C25.89,13.5169811 26,13.2654088 26,12.9937107 C26,12.7320755 25.89,12.4704403 25.71,12.2792453 C25.34,11.9069182 24.66,11.9069182 24.29,12.2792453 Z M21.29,9.27924528 C21.11,9.47044025 21,9.73207547 21,9.99371069 C21,10.2553459 21.11,10.5169811 21.29,10.7081761 C21.48,10.8893082 21.74,11 22,11 C22.26,11 22.52,10.8893082 22.71,10.7081761 C22.89,10.5169811 23,10.2553459 23,9.99371069 C23,9.73207547 22.89,9.47044025 22.71,9.27924528 C22.34,8.90691824 21.67,8.90691824 21.29,9.27924528 Z" transform="translate(9 10)"/>
</svg>
