<svg width="48" height="48" fill="none" xmlns="http://www.w3.org/2000/svg" viewBox="0 0 48 48"><path fill-rule="evenodd" clip-rule="evenodd" d="M23.174 39.802a1.824 1.824 0 0 0 1.656 0c2.084-1.06 12.512-6.862 13.142-16.925.45-7.209-4.54-13.522-11.608-14.686-4.132-.68-8.302.47-11.446 3.156A13.994 13.994 0 0 0 10 22.042c.027 10.514 10.979 16.639 13.174 17.76zm-6.96-26.832a12.012 12.012 0 0 1 7.817-2.868c.667 0 1.339.054 2.009.164 6.05.996 10.32 6.405 9.936 12.58C35.422 31.709 26.079 37 24 38.069 21.816 36.94 12.024 31.361 12 22.133a11.991 11.991 0 0 1 4.214-9.163zm11.39 13.986C29.216 25.495 30 23.858 30 22.1c0-2.217-1.72-4-3.824-4-.78 0-1.54.247-2.18.719a3.63 3.63 0 0 0-2.172-.718C19.708 18.114 18 19.897 18 22.1c0 1.762.82 3.394 2.436 4.855a12.966 12.966 0 0 0 3.064 2.033c.164.075.38.113.496.113.12 0 .332-.038.5-.113.52-.238 1.884-.931 3.108-2.033z" fill="#253238"/></svg>