<svg xmlns="http://www.w3.org/2000/svg" width="48" height="48" viewBox="0 0 48 48">
  <path fill-rule="evenodd" d="M21.6916024,23.7098366 C21.5941975,23.7847106 19.3336307,25.4511384 12.9936281,25.4511384 C9.36649852,25.4511384 6.68352207,24.5344112 5.07200027,23.7645522 C4.59365508,23.5360904 4.12302514,22.9447773 3.71508156,22.1989165 C5.72104526,22.6539204 7.64889211,22.8363059 9.40603916,22.8363059 C12.3928034,22.8363059 14.9571579,22.3457848 16.5416764,21.9282179 C17.8523036,21.5836053 18.8311753,20.3980993 18.8311753,19.0446067 L18.8311753,13.2015502 C18.8311753,11.9238916 18.400086,10.6807902 17.7047496,9.60759536 C16.8107456,8.22530503 15.3072372,7.24522278 13.5298376,6.84781431 L6.60926284,5.30425676 C7.99222051,4.01795881 9.74743875,3.05515519 11.9887174,2.62510931 C12.7284165,2.48304058 13.4671512,2.41296614 14.2068504,2.41296614 C16.816532,2.41296614 19.3615984,3.28361707 21.4283197,4.92220707 C23.9888166,6.95244601 25.461464,9.85717556 25.5752639,13.1017182 C25.7131739,16.9922895 23.9714573,21.7477522 21.6916024,23.7098366 M5.14915272,6.94860631 L13.0746382,8.72062573 C14.3370451,9.00284334 15.4740794,9.70454767 16.0835837,10.6471929 C16.5773594,11.4103323 16.9023641,12.2934623 16.9023641,13.2015502 L16.9023641,19.0446067 C16.9023641,19.5274484 16.5137086,19.9498149 16.0488651,20.0717252 C13.5076563,20.7417521 8.39919968,21.6133629 2.86061817,19.9968511 C2.70342006,19.4372155 2.57804732,18.8823796 2.53464907,18.3832192 C2.20192913,14.5636822 2.84904531,10.1701107 5.14915272,6.94860631 M27.5021463,13.1775521 C27.6410207,17.1036407 25.972599,22.5713669 22.9405077,25.4511384 L22.9385789,25.4511384 C22.6762606,25.4511384 20.1591619,27.5101751 12.9936281,27.5101751 C9.00388201,27.5101751 6.02965506,26.4206615 4.23778941,25.5653694 C2.0775208,24.5334512 0.788110483,20.7753494 0.597158169,18.5838432 C-0.0721393351,10.8996529 3.07568063,2.39568751 11.6154924,0.757097504 C15.5213352,0.009316828 19.534227,0.976920065 22.6280403,3.42952549 C25.6369858,5.81493625 27.3680939,9.36377471 27.5021463,13.1775521 Z M14.0093401,18.7321515 C14.541692,18.7321515 14.9737457,18.3021056 14.9737457,17.7722276 L14.9737457,12.0126846 C14.9737457,11.4828066 14.541692,11.0527607 14.0093401,11.0527607 C13.4769882,11.0527607 13.0449345,11.4828066 13.0449345,12.0126846 L13.0449345,17.7722276 C13.0449345,18.3021056 13.4769882,18.7321515 14.0093401,18.7321515 Z M20.7601795,13.9325323 C20.2278276,13.9325323 19.7957738,14.3625781 19.7957738,14.8924561 L19.7957738,15.8523799 C19.7957738,16.3822579 20.2278276,16.8123038 20.7601795,16.8123038 C21.2925314,16.8123038 21.7245851,16.3822579 21.7245851,15.8523799 L21.7245851,14.8924561 C21.7245851,14.3625781 21.2925314,13.9325323 20.7601795,13.9325323 Z" transform="translate(10.49 10.49)"/>
</svg>
