<svg xmlns="http://www.w3.org/2000/svg" width="48" height="48" viewBox="0 0 48 48">
  <path fill-rule="evenodd" d="M35.0428235,32.1142588 C33.3477647,32.1142588 31.968,30.7320105 31.968,29.0339005 C31.968,28.5294647 32.1025882,28.0589723 32.3181176,27.638452 L34.3774118,29.70051 C34.5609412,29.8853126 34.8018824,29.9767711 35.0428235,29.9767711 C35.2837647,29.9767711 35.5247059,29.8853126 35.7082353,29.70051 C36.0762353,29.3327905 36.0762353,28.7359534 35.7082353,28.367291 L33.6498824,26.3052329 C34.0696471,26.0874298 34.5383529,25.9544851 35.0428235,25.9544851 C36.7378824,25.9544851 38.1176471,27.3367334 38.1176471,29.0339005 C38.1176471,30.7320105 36.7378824,32.1142588 35.0428235,32.1142588 M27.1284706,28.0910299 L21.8748235,28.0910299 C21.4070588,24.0187717 17.9632941,20.5688081 13.8974118,20.1002014 L13.8974118,19.4807354 C13.8974118,16.7831826 15.8117647,14.5259504 18.352,14.0007714 L18.0517647,15.8054258 C18.0489412,15.8223975 18.0527059,15.8384263 18.0508235,15.8553979 C18.0470588,15.8836841 18.0489412,15.9100844 18.048,15.9393134 C18.0461176,16.0326576 18.0574118,16.1231732 18.0818824,16.211803 C18.0856471,16.226889 18.0818824,16.2429178 18.0875294,16.2589466 L19.0917647,19.2761325 C19.1002353,19.3006472 19.1171765,19.3204474 19.1275294,19.3440192 C19.1350588,19.3628766 19.1331765,19.381734 19.1416471,19.3996486 C19.152,19.4203917 19.1717647,19.432649 19.1830588,19.4524493 C19.2244706,19.5231646 19.2734118,19.5844512 19.3308235,19.6400806 C19.3552941,19.6645952 19.376,19.6900527 19.4042353,19.7126816 C19.4842353,19.7749111 19.5717647,19.8258261 19.6658824,19.8597694 C19.6743529,19.8635409 19.6818824,19.8691981 19.6903529,19.8720267 C19.7844706,19.9031415 19.8832941,19.9201131 19.984,19.9201131 C19.9952941,19.9201131 20.0065882,19.9153988 20.0178824,19.9153988 C20.0508235,19.9144559 20.0828235,19.9040843 20.1167059,19.8984271 C20.1712941,19.8908842 20.2268235,19.8899413 20.2814118,19.8720267 C20.304,19.8644838 20.3181176,19.8475121 20.3388235,19.8380834 C20.3604706,19.8305404 20.384,19.8314833 20.4047059,19.8211117 C21.3270588,19.3591051 22.2569412,19.2553894 23.0964706,19.5231646 C23.9331765,19.7890541 24.6145882,20.4066344 25.0644706,21.3099044 C25.2225882,21.626709 25.5444706,21.8275404 25.8974118,21.8313119 L30.7585882,21.8793983 C28.8,23.3653624 27.4136471,25.612223 27.1284706,28.0910299 M16.0310588,29.0339005 C16.0310588,30.7320105 14.6512941,32.1142588 12.9562353,32.1142588 C11.2611765,32.1142588 9.88235294,30.7320105 9.88235294,29.0339005 C9.88235294,27.3367334 11.2611765,25.9544851 12.9562353,25.9544851 C13.2470588,25.9544851 13.5228235,26.0072858 13.7891765,26.0836583 L12.1731765,28.5115502 C11.8851765,28.9452706 12.0018824,29.5298504 12.4348235,29.8183688 C12.5948235,29.9258561 12.7764706,29.9767711 12.9552941,29.9767711 C13.2592941,29.9767711 13.5585882,29.8296833 13.7392941,29.5571937 L15.3543529,27.1311876 C15.7712941,27.6563665 16.0310588,28.3126045 16.0310588,29.0339005 M35.0428235,24.0687438 C34.0150588,24.0687438 33.0607059,24.3836626 32.2682353,24.9220417 L31.28,23.9310847 C32.5185882,22.7383534 34.1703529,21.9312562 36.0461176,21.9312562 C36.5647059,21.9312562 36.9844706,21.5126216 36.9872941,20.9930999 C36.9901176,20.4745211 36.5741176,20.0511722 36.0555294,20.0455149 L26.4592941,19.9512279 C25.7816471,18.8688124 24.8065882,18.0881155 23.6658824,17.7251104 C22.6832941,17.4139631 21.6112941,17.4233918 20.5637647,17.7383105 L20.1308235,16.438092 L21.4089412,15.7978828 C21.8738824,15.5649938 22.0621176,14.9992714 21.8296471,14.5334933 C21.5962353,14.0667724 21.0305882,13.880084 20.5665882,14.1110873 L20.2127059,14.2892898 L20.4103529,13.0975014 C20.4564706,12.8240689 20.3792941,12.5449792 20.1995294,12.3337762 C20.0216471,12.1216303 19.7590588,12 19.4823529,12 C15.3647059,12 12.0150588,15.3556765 12.0150588,19.4807354 L12.0150588,20.9883855 C12.0150588,21.509793 12.4357647,21.9312562 12.9562353,21.9312562 C14.0771765,21.9312562 15.1134118,22.2244889 16.0357647,22.7081815 L14.8724706,24.4562637 C14.2823529,24.2073458 13.6357647,24.0687438 12.9562353,24.0687438 C10.2230588,24.0687438 8,26.2958042 8,29.0339005 C8,31.7729396 10.2230588,34 12.9562353,34 C15.6903529,34 17.9134118,31.7729396 17.9134118,29.0339005 C17.9134118,27.6544808 17.3468235,26.4051772 16.4357647,25.5047358 L17.5783529,23.7896541 C19.1068235,25.1860455 20.0461176,27.1707882 20.0461176,29.0339005 C20.0461176,29.5553079 20.4677647,29.9767711 20.9872941,29.9767711 L28.0150588,29.9767711 C28.5355294,29.9767711 28.9562353,29.5553079 28.9562353,29.0339005 C28.9562353,27.8072258 29.3665882,26.5268075 30.0809412,25.3963057 L30.9374118,26.2552608 C30.4,27.048215 30.0856471,28.0052286 30.0856471,29.0339005 C30.0856471,31.7729396 32.3096471,34 35.0428235,34 C37.776,34 40,31.7729396 40,29.0339005 C40,26.2958042 37.776,24.0687438 35.0428235,24.0687438"/>
</svg>
