<svg xmlns="http://www.w3.org/2000/svg" width="48" height="48" viewBox="0 0 48 48">
  <path fill-rule="evenodd" d="M4,0.5 C1.791,0.5 0,2.291 0,4.5 C0,6.709 1.791,8.5 4,8.5 C6.209,8.5 8,6.709 8,4.5 C8,2.291 6.209,0.5 4,0.5 M4,2.5 C5.103,2.5 6,3.397 6,4.5 C6,5.603 5.103,6.5 4,6.5 C2.897,6.5 2,5.603 2,4.5 C2,3.397 2.897,2.5 4,2.5 Z M15,0.5 C17.209,0.5 19,2.291 19,4.5 C19,6.709 17.209,8.5 15,8.5 C12.791,8.5 11,6.709 11,4.5 C11,2.291 12.791,0.5 15,0.5 Z M15,2.5 C13.897,2.5 13,3.397 13,4.5 C13,5.603 13.897,6.5 15,6.5 C16.103,6.5 17,5.603 17,4.5 C17,3.397 16.103,2.5 15,2.5 Z M26,0.5 C28.209,0.5 30,2.291 30,4.5 C30,6.709 28.209,8.5 26,8.5 C23.791,8.5 22,6.709 22,4.5 C22,2.291 23.791,0.5 26,0.5 Z M26,2.5 C24.897,2.5 24,3.397 24,4.5 C24,5.603 24.897,6.5 26,6.5 C27.103,6.5 28,5.603 28,4.5 C28,3.397 27.103,2.5 26,2.5 Z" transform="translate(9 19.5)"/>
</svg>
