<svg xmlns="http://www.w3.org/2000/svg" width="48" height="48" viewBox="0 0 48 48">
  <path fill-rule="evenodd" d="M38,33.5608469 C38,35.4553834 36.462,36.9962597 34.571,36.9962597 L33.857,36.9962597 C31.967,36.9962597 30.429,35.4553834 30.429,33.5608469 L30.429,29.0103527 C30.429,27.1158162 31.967,25.5749399 33.857,25.5749399 L34.571,25.5749399 C36.462,25.5749399 38,27.1158162 38,29.0103527 L38,33.5608469 Z M28.525,28.0074806 L10,28.0074806 L10,11.9775581 C10,11.4405557 10.436,11.0037403 10.972,11.0037403 L33.028,11.0037403 C33.564,11.0037403 34,11.4405557 34,11.9775581 L34,23.5711996 L33.857,23.5711996 C31.206,23.5711996 28.997,25.4857734 28.525,28.0074806 Z M13,31.0130911 C11.292,31.0130911 10.556,30.5241785 10.239,30.0112209 L28.429,30.0112209 L28.429,31.0130911 L13,31.0130911 Z M24.833,36.9962597 L19.17,36.9962597 C19.947,36.0084157 20.483,34.655891 20.775,33.0168314 L23.245,33.0168314 C23.245,33.0809511 23.231,33.1420652 23.244,33.2071867 C23.552,34.7751135 24.091,36.0474886 24.833,36.9962597 Z M36,23.7695699 C38.301,24.3997462 40,26.507681 40,29.0103527 L40,33.5608469 C40,36.5594443 37.564,39 34.571,39 L33.857,39 C30.864,39 28.429,36.5594443 28.429,33.5608469 L28.429,33.0168314 L25.254,33.0168314 C25.821,35.6507481 27.077,36.9962597 29,36.9962597 C29.552,36.9962597 30,37.4440956 30,37.9981298 C30,38.5511622 29.552,39 29,39 L15,39 C14.448,39 14,38.5511622 14,37.9981298 C14,37.4440956 14.448,36.9962597 15,36.9962597 C17.4,36.9962597 18.366,34.841237 18.755,33.0168314 L13,33.0168314 C9.869,33.0168314 8,31.5190355 8,29.0093508 L8,11.9775581 C8,10.3354929 9.333,9 10.972,9 L33.028,9 C34.667,9 36,10.3354929 36,11.9775581 L36,23.7695699 Z M34.2856,26.9772575 C33.7336,26.9772575 33.2856,27.4250935 33.2856,27.9791277 L33.2856,30.0109204 C33.2856,30.5649546 33.7336,31.0127905 34.2856,31.0127905 C34.8376,31.0127905 35.2856,30.5649546 35.2856,30.0109204 L35.2856,27.9791277 C35.2856,27.4250935 34.8376,26.9772575 34.2856,26.9772575 Z M22.71,12.2671988 C22.43,11.987677 21.99,11.8965068 21.62,12.056806 C21.49,12.1068995 21.39,12.1770305 21.29,12.2671988 C21.2,12.3683877 21.13,12.4775915 21.08,12.5978159 C21.03,12.7180403 21,12.8482835 21,12.9785266 C21,13.2490315 21.1,13.4994991 21.29,13.6898544 C21.48,13.8802097 21.73,13.9803967 22,13.9803967 C22.27,13.9803967 22.52,13.8802097 22.71,13.6898544 C22.9,13.4994991 23,13.2490315 23,12.9785266 C23,12.8482835 22.98,12.7180403 22.92,12.5978159 C22.87,12.4775915 22.8,12.3683877 22.71,12.2671988 Z"/>
</svg>
