<svg xmlns="http://www.w3.org/2000/svg" width="48" height="48" viewBox="0 0 48 48">
  <path fill-rule="evenodd" d="M19.3245799,27.1810506 C19.3245799,28.2151131 18.4665799,29.0560506 17.4115364,29.0560506 L4.02023203,29.0560506 C2.96518855,29.0560506 2.10718855,28.2151131 2.10718855,27.1810506 L2.10718855,4.68105056 C2.10718855,3.64698806 2.96518855,2.80605056 4.02023203,2.80605056 L17.4115364,2.80605056 C18.4665799,2.80605056 19.3245799,3.64698806 19.3245799,4.68105056 L19.3245799,27.1810506 Z M22.1941451,8.43105056 C22.1941451,8.94948806 21.7665799,9.36855056 21.2376233,9.36855056 L21.2376233,11.2435506 C21.7665799,11.2435506 22.1941451,11.6626131 22.1941451,12.1810506 L22.1941451,13.1185506 C22.1941451,13.6369881 21.7665799,14.0560506 21.2376233,14.0560506 L21.2376233,27.1810506 C21.2376233,29.2491756 19.5216233,30.9310506 17.4115364,30.9310506 L4.02023203,30.9310506 C1.91014508,30.9310506 0.194145076,29.2491756 0.194145076,27.1810506 L0.194145076,4.68105056 C0.194145076,2.61292556 1.91014508,0.931050563 4.02023203,0.931050563 L17.4115364,0.931050563 C19.5216233,0.931050563 21.2376233,2.61292556 21.2376233,4.68105056 L21.2376233,6.55605056 C21.7665799,6.55605056 22.1941451,6.97511306 22.1941451,7.49355056 L22.1941451,8.43105056 Z M11.1941451,22.9310506 C10.0911451,22.9310506 9.19414508,23.8280506 9.19414508,24.9310506 C9.19414508,26.0340506 10.0911451,26.9310506 11.1941451,26.9310506 C12.2971451,26.9310506 13.1941451,26.0340506 13.1941451,24.9310506 C13.1941451,23.8280506 12.2971451,22.9310506 11.1941451,22.9310506 Z M13.0274784,4.93105056 L8.36081174,4.93105056 C7.71564508,4.93105056 7.19414508,5.37805056 7.19414508,5.93105056 C7.19414508,6.48405056 7.71564508,6.93105056 8.36081174,6.93105056 L13.0274784,6.93105056 C13.6726451,6.93105056 14.1941451,6.48405056 14.1941451,5.93105056 C14.1941451,5.37805056 13.6726451,4.93105056 13.0274784,4.93105056 Z" transform="translate(12.806 7.069)"/>
</svg>
