<svg xmlns="http://www.w3.org/2000/svg" width="48" height="48" viewBox="0 0 48 48">
  <path fill-rule="evenodd" d="M21.8695549,29.8115041 L20.1414924,29.8115041 L20.1414924,25.2099416 C20.1414924,23.4739416 18.7380437,22.0615041 17.0119077,22.0615041 L13.6395851,22.0615041 C11.9134491,22.0615041 10.5090372,23.4739416 10.5090372,25.2099416 L10.5090372,29.8115041 L8.78097468,29.8115041 C6.57032619,29.8115041 4.72956399,27.9602229 4.72956399,25.7369416 L4.72956399,14.3115041 L25.9209656,14.3115041 L25.9209656,25.7369416 C25.9209656,27.9602229 24.0802034,29.8115041 21.8695549,29.8115041 L21.8695549,29.8115041 Z M18.2150014,29.8115041 L12.4355282,29.8115041 L12.4355282,25.2099416 C12.4355282,24.5424729 12.975909,23.9990041 13.6395851,23.9990041 L17.0119077,23.9990041 C17.6755839,23.9990041 18.2150014,24.5424729 18.2150014,25.2099416 L18.2150014,29.8115041 Z M7.31491498,4.72184786 C7.32551068,4.70441036 7.39101138,4.62400411 7.49889488,4.62400411 L9.54579163,4.62400411 L9.54579163,5.59275411 C9.54579163,6.12750411 9.97732562,6.56150411 10.5090372,6.56150411 C11.0407487,6.56150411 11.4722827,6.12750411 11.4722827,5.59275411 L11.5329672,2.68650411 L13.3987737,2.74753536 L13.3987737,5.59275411 C13.3987737,6.12750411 13.8303077,6.56150411 14.3620193,6.56150411 C14.8937308,6.56150411 15.3252648,6.12750411 15.3252648,5.59275411 L15.3252648,4.62400411 L23.152598,4.62400411 C23.2595182,4.62400411 23.3250189,4.70441036 23.3356146,4.72281661 L27.7896619,12.2587229 C27.781956,12.2722854 27.727051,12.3740041 27.6047188,12.3740041 L3.0458108,12.3740041 C2.95430248,12.3740041 2.90228722,12.2994104 2.87724283,12.3052229 L7.31491498,4.72184786 Z M25.1050966,3.73469161 L29.547585,11.2783479 C29.9155448,11.9031916 29.9107286,12.6365354 29.5543277,13.2662229 C29.2123756,13.8697541 28.8107022,14.2533791 27.8474567,14.3405666 L27.8474567,25.7369416 C27.8474567,29.0762229 25.1898623,31.7490041 21.8695549,31.7490041 L8.78097468,31.7490041 C5.46066734,31.7490041 2.80307293,29.0762229 2.80307293,25.7369416 L2.80307293,14.3405666 C1.8398274,14.2533791 1.43815402,13.8784729 1.09620185,13.2739729 C0.739801007,12.6442854 0.724389079,11.9031916 1.09234887,11.2783479 L5.54543295,3.73372286 C5.93747388,3.06819161 6.68591565,2.68650411 7.49889488,2.68650411 L9.55831382,2.68650411 C9.62477776,1.71775411 10.4801398,0.749004107 11.5329672,0.749004107 L13.3390525,0.749004107 C14.3909166,0.749004107 15.2462787,1.71775411 15.3127426,2.68650411 L23.152598,2.68650411 C23.9646139,2.68650411 24.7130557,3.06819161 25.1050966,3.73469161 Z M9.54588795,17.2177541 C9.01417642,17.2177541 8.58264242,17.6517541 8.58264242,18.1865041 L8.58264242,19.1552541 C8.58264242,19.6900041 9.01417642,20.1240041 9.54588795,20.1240041 C10.0775995,20.1240041 10.5091335,19.6900041 10.5091335,19.1552541 L10.5091335,18.1865041 C10.5091335,17.6517541 10.0775995,17.2177541 9.54588795,17.2177541 Z M13.3988701,17.2177541 C12.8671585,17.2177541 12.4356245,17.6517541 12.4356245,18.1865041 L12.4356245,19.1552541 C12.4356245,19.6900041 12.8671585,20.1240041 13.3988701,20.1240041 C13.9305816,20.1240041 14.3621156,19.6900041 14.3621156,19.1552541 L14.3621156,18.1865041 C14.3621156,17.6517541 13.9305816,17.2177541 13.3988701,17.2177541 Z M17.2518522,17.2177541 C16.7201406,17.2177541 16.2886066,17.6517541 16.2886066,18.1865041 L16.2886066,19.1552541 C16.2886066,19.6900041 16.7201406,20.1240041 17.2518522,20.1240041 C17.7835637,20.1240041 18.2150977,19.6900041 18.2150977,19.1552541 L18.2150977,18.1865041 C18.2150977,17.6517541 17.7835637,17.2177541 17.2518522,17.2177541 Z M21.1048343,17.2177541 C20.5731228,17.2177541 20.1415888,17.6517541 20.1415888,18.1865041 L20.1415888,19.1552541 C20.1415888,19.6900041 20.5731228,20.1240041 21.1048343,20.1240041 C21.6365458,20.1240041 22.0680798,19.6900041 22.0680798,19.1552541 L22.0680798,18.1865041 C22.0680798,17.6517541 21.6365458,17.2177541 21.1048343,17.2177541 Z" transform="translate(9.177 8.251)"/>
</svg>
