<svg xmlns="http://www.w3.org/2000/svg" width="48" height="48" viewBox="0 0 48 48">
  <path d="M3.83936926,30.5 C3.7767606,30.5 3.7767606,30.5 3.71415195,30.5 C2.64980484,30.5 1.71067504,29.9998371 0.959371201,29.2495928 C-0.418019173,27.7491042 -0.292801866,25.3733305 1.20980581,23.8728419 L14.1071884,10.9936478 C13.2306673,8.11771129 13.9819711,4.99169332 16.1106653,2.8660011 C18.1141422,0.865349591 21.1193576,0.0525849178 23.8741383,0.740308872 C24.3750076,0.865349591 24.7506595,1.24047175 24.9384854,1.74063462 C25.0637028,2.2407975 24.9384854,2.80348074 24.5628335,3.17860289 L21.1193576,6.61722267 L21.6202268,8.99299633 L23.8741383,9.43063884 L27.3176143,5.99201907 C27.6932662,5.61689691 28.2567441,5.4918562 28.7576133,5.61689691 C29.2584825,5.74193763 29.6341344,6.17958015 29.7593518,6.67974303 C30.4480469,9.43063884 29.6341344,12.4316161 27.6306575,14.4322676 C25.5019633,16.5579598 22.3715307,17.3082041 19.4915326,16.4329191 L6.53154135,29.4371539 C5.84284616,30.1248778 4.84110771,30.5 3.83936926,30.5 Z M21.9332701,2.42835858 C20.3054451,2.42835858 18.6776201,3.05356217 17.4880557,4.24144901 C15.7350134,5.99201907 15.1715355,8.61787417 16.1106653,10.9311275 L16.3610999,11.4938107 L2.58719619,25.2482898 C1.83589235,25.9985341 1.71067504,27.2489413 2.39937023,27.9991856 C2.77502215,28.3743078 3.27589138,28.6243892 3.7767606,28.6243892 C4.34023848,28.6243892 4.84110771,28.4368281 5.21675963,28.061706 L19.053272,14.2447065 L19.6167499,14.494788 C21.9332701,15.370073 24.5628335,14.8699101 26.3158758,13.1193401 C27.6932662,11.7438921 28.3193527,9.805761 28.0689181,7.93015022 L25.1263114,10.8686071 C24.7506595,11.2437293 24.1871816,11.4312903 23.6863124,11.3062496 L21.1193576,10.8060868 C20.4932711,10.681046 19.9924018,10.1808832 19.8671845,9.55567956 L19.3663153,6.99234482 C19.241098,6.49218195 19.4289239,5.92949871 19.8045759,5.55437655 L22.8097912,2.5533993 C22.4341393,2.42835858 22.1837047,2.42835858 21.9332701,2.42835858 Z" transform="translate(9 8.5)"/>
</svg>
