<svg xmlns="http://www.w3.org/2000/svg" width="48" height="48" viewBox="0 0 48 48">
  <path fill-rule="evenodd" d="M1.94174864,15.3516642 C3.02163085,15.702232 4.13161769,15.8847991 5.23577783,15.8847991 C7.70532861,15.8847991 10.1321502,15.0244029 12.0753556,13.405576 L14.169084,15.5002428 L7.30231502,22.3669042 C6.92357935,22.7466051 6.92357935,23.3613126 7.30231502,23.7400423 C7.49265397,23.9294072 7.74125995,24.0245751 7.98889481,24.0245751 C8.23750078,24.0245751 8.48610676,23.9294072 8.67547459,23.7400423 L15.5422436,16.8733808 L17.6379143,18.9680476 C15.305291,21.7677344 14.5565597,25.5734827 15.6704311,29.0568251 C15.6131351,29.0577962 15.5568104,29.065565 15.4995144,29.065565 C11.8762765,29.065565 8.47056889,27.6535829 5.90779087,25.0918161 C3.34598396,22.5300493 1.93495082,19.1234239 1.93495082,15.5002428 C1.93495082,15.4497455 1.94077752,15.4011904 1.94174864,15.3516642 L1.94174864,15.3516642 Z M5.27462252,6.60592059 L10.685687,12.0159292 C8.2841144,13.9357976 5.03281436,14.4747592 2.11654971,13.3609053 C2.51179437,10.8583758 3.59361882,8.53355784 5.27462252,6.60592059 L5.27462252,6.60592059 Z M6.64972433,5.23472472 C8.58224735,3.56442948 10.9090439,2.4952463 13.4116127,2.10971885 C14.5080039,5.0152557 13.9690339,8.24999608 12.0588466,10.6427911 L6.64972433,5.23472472 Z M25.0922091,5.90769833 C27.654016,8.47043621 29.0650492,11.8770616 29.0650492,15.5002428 C29.0650492,15.5381157 29.0601936,15.5759887 29.0592225,15.6138617 C25.5865077,14.5194299 21.7991511,15.2720338 19.0110739,17.5949095 L16.9163743,15.5002428 L23.7831433,8.63358133 C24.161879,8.25388049 24.161879,7.639173 23.7831433,7.25947216 C23.4034365,6.88074242 22.7887194,6.88074242 22.4099837,7.25947216 L15.5422436,14.1271047 L13.447544,12.0314668 C15.7801673,9.23178009 16.5288986,5.42408959 15.4121139,1.93880492 C15.4412474,1.93880492 15.4703809,1.93492051 15.4995144,1.93492051 C19.1227523,1.93492051 22.5294311,3.34593155 25.0922091,5.90769833 L25.0922091,5.90769833 Z M25.7651933,24.3489232 L20.3997713,18.9835852 C22.7809504,17.0831389 25.995348,16.5432062 28.8863636,17.6153027 C28.4969457,20.1071501 27.429688,22.4241992 25.7651933,24.3489232 L25.7651933,24.3489232 Z M19.0266117,20.3567233 L24.3939759,25.7249745 C22.4740774,27.3991542 20.1608765,28.4790195 17.66899,28.8781424 C16.5784255,25.9755188 17.1183666,22.7466051 19.0266117,20.3567233 L19.0266117,20.3567233 Z M26.4653687,26.4649542 C32.5115438,20.4188738 32.5115438,10.5806406 26.4653687,4.53456026 C20.4191937,-1.51152009 10.5798352,-1.51152009 4.53463129,4.53456026 C-1.51154376,10.5806406 -1.51154376,20.4188738 4.53463129,26.4649542 C7.55771881,29.4889655 11.5286166,31 15.4995144,31 C19.4713834,31 23.4422812,29.4889655 26.4653687,26.4649542 Z" transform="translate(8 8)"/>
</svg>
