<svg xmlns="http://www.w3.org/2000/svg" width="48" height="48" viewBox="0 0 48 48">
  <path fill-rule="evenodd" d="M29.3937456,13.9483176 C29.3937456,13.9912239 29.3763081,14.0274559 29.3424019,14.0551066 C29.3075269,14.0827574 29.2678081,14.0922921 29.2251831,14.0846643 L27.0358081,13.6536944 C26.8527144,13.6174624 26.6696206,13.6126951 26.4874956,13.6250902 L26.4874956,11.4664268 C26.4874956,10.9401095 26.0534956,10.5129535 25.5187456,10.5129535 C24.9839956,10.5129535 24.5499956,10.9401095 24.5499956,11.4664268 L24.5499956,15.6598021 L24.5499956,17.1872663 L24.5499956,22.9081058 L7.11249561,22.9081058 L7.11249561,17.1872663 L7.11249561,15.6598021 L7.11249561,11.4664268 C7.11249561,10.9401095 6.67849561,10.5129535 6.14374561,10.5129535 C5.60899561,10.5129535 5.17499561,10.9401095 5.17499561,11.4664268 L5.17499561,13.6250902 C5.12849561,13.6222298 5.08296436,13.6136485 5.03646436,13.6136485 C4.89987061,13.6136485 4.76230811,13.6269972 4.62571436,13.6536944 L2.43827686,14.0846643 C2.39177686,14.0922921 2.35399561,14.0827574 2.32105811,14.0560601 C2.28618311,14.0274559 2.26874561,13.9912239 2.26874561,13.9483176 L2.26874561,6.42064634 C2.26874561,6.36820531 2.29877686,6.32053165 2.34721436,6.29669482 L10.0565269,2.50282475 C10.0807456,2.4904296 10.1127144,2.48089487 10.1553394,2.49901086 C10.1795581,2.50854559 10.2386519,2.54287063 10.2648081,2.63059017 C10.9981519,5.02666845 13.2873081,6.69906053 15.8312456,6.69906053 C18.3751831,6.69906053 20.6643394,5.02666845 21.3976831,2.63059017 C21.4238394,2.54287063 21.4829331,2.50854559 21.5071519,2.49901086 C21.5507456,2.4799414 21.5817456,2.4904296 21.6069331,2.50282475 L29.3162456,6.29764829 C29.3637144,6.32053165 29.3937456,6.36820531 29.3937456,6.42159981 L29.3937456,13.9483176 Z M24.4085581,27.675472 L7.25393311,27.675472 C7.17546436,27.675472 7.11249561,27.6134963 7.11249561,27.5362649 L7.11249561,24.8150523 L24.5499956,24.8150523 L24.5499956,27.5362649 C24.5499956,27.6134963 24.4870269,27.675472 24.4085581,27.675472 L24.4085581,27.675472 Z M30.1823081,4.59188464 L22.4729956,0.79706111 L22.4720269,0.79706111 C21.9285581,0.529135127 21.2969331,0.511972609 20.7389331,0.748433975 C20.1625269,0.9934766 19.7265894,1.47879448 19.5425269,2.0804361 C19.0533081,3.6775038 17.5275269,4.79211403 15.8312456,4.79211403 C14.1349644,4.79211403 12.6091831,3.6775038 12.1199644,2.0804361 C11.9359019,1.47879448 11.4999644,0.9934766 10.9235581,0.748433975 C10.3665269,0.511019136 9.73393311,0.529135127 9.19046436,0.79706111 L1.48115186,4.59093117 C0.772026859,4.93894891 0.331245609,5.64070522 0.331245609,6.42064634 L0.331245609,13.9483176 C0.331245609,14.5633079 0.608308109,15.1401592 1.09171436,15.5301298 C1.57512061,15.9201003 2.20287061,16.074563 2.81802686,15.9544254 L5.00643311,15.5234555 C5.04905811,15.5177346 5.08877686,15.5244089 5.12365186,15.5530131 C5.15755811,15.5797104 5.17499561,15.6168958 5.17499561,15.6598021 L5.17499561,17.1872663 L5.17499561,27.5362649 C5.17499561,28.6651773 6.10790186,29.5824185 7.25393311,29.5824185 L24.4085581,29.5824185 C25.5545894,29.5824185 26.4874956,28.6651773 26.4874956,27.5362649 L26.4874956,17.1872663 L26.4874956,15.6598021 C26.4874956,15.6168958 26.5049331,15.5797104 26.5388394,15.5530131 C26.5727456,15.5244089 26.6124644,15.5167811 26.6560581,15.5234555 L28.8454331,15.9544254 C29.4576831,16.074563 30.0873706,15.9201003 30.5707769,15.5301298 C31.0541831,15.1401592 31.3312456,14.5633079 31.3312456,13.9483176 L31.3312456,6.42159981 C31.3312456,5.64165869 30.8904644,4.93990238 30.1823081,4.59188464 L30.1823081,4.59188464 Z" transform="translate(7.669 10.418)"/>
</svg>
