<svg xmlns="http://www.w3.org/2000/svg" width="48" height="48" viewBox="0 0 48 48">
  <path fill-rule="evenodd" d="M38,18.99925 L38,23.99925 L38,28.99925 L38,34.04225 C38,34.57025 37.57,35.00025 37.042,35.00025 L10.958,35.00025 C10.43,35.00025 10,34.57025 10,34.04225 L10,14.95825 C10,14.43025 10.43,14.00025 10.958,14.00025 L37.042,14.00025 C37.57,14.00025 38,14.43025 38,14.95825 L38,18.99925 Z M37.042,12.00025 C38.673,12.00025 40,13.32725 40,14.95825 L40,34.04225 C40,35.67325 38.673,37.00025 37.042,37.00025 L35,37.00025 C35,37.27025 34.899,37.52025 34.71,37.70925 C34.52,37.89925 34.27,37.99925 34,37.99925 C33.73,37.99925 33.48,37.89925 33.29,37.70925 C33.1,37.52025 33,37.27025 33,37.00025 L14,37.00025 C14,37.27025 13.899,37.52025 13.71,37.70925 C13.52,37.89925 13.27,37.99925 13,37.99925 C12.73,37.99925 12.48,37.89925 12.29,37.70925 C12.1,37.52025 12,37.27025 12,37.00025 L10.958,37.00025 C9.327,37.00025 8,35.67325 8,34.04225 L8,14.95825 C8,13.32725 9.327,12.00025 10.958,12.00025 L21.586,12.00025 L18.293,8.70725 C17.902,8.31625 17.902,7.68425 18.293,7.29325 C18.684,6.90225 19.316,6.90225 19.707,7.29325 L23.5,11.08625 L27.293,7.29325 C27.684,6.90225 28.316,6.90225 28.707,7.29325 C29.098,7.68425 29.098,8.31625 28.707,8.70725 L25.414,12.00025 L37.042,12.00025 Z M36.6196,18.07935 C36.4996,18.12935 36.3896,18.19935 36.2896,18.28935 C36.1096,18.47935 35.9996,18.73935 35.9996,18.99935 C35.9996,19.26935 36.0996,19.51935 36.2896,19.70935 C36.4796,19.89935 36.7296,19.99935 36.9996,19.99935 C37.2696,19.99935 37.5196,19.89935 37.7096,19.70935 C37.8996,19.51935 37.9996,19.26935 37.9996,18.99935 C37.9996,18.73935 37.8896,18.47935 37.7096,18.28935 C37.4296,18.01035 36.9896,17.91935 36.6196,18.07935 Z M36.29,23.28925 C36.11,23.47925 36,23.73925 36,23.99925 C36,24.26925 36.1,24.51925 36.29,24.70925 C36.39,24.79925 36.5,24.87925 36.62,24.91925 C36.74,24.97925 36.87,24.99925 37,24.99925 C37.13,24.99925 37.26,24.97925 37.38,24.91925 C37.5,24.87925 37.61,24.79925 37.71,24.70925 C37.9,24.51925 38,24.26925 38,23.99925 C38,23.73925 37.89,23.47925 37.71,23.28925 C37.33,22.91925 36.66,22.91925 36.29,23.28925 Z M36.6196,28.07935 C36.4896,28.12935 36.3896,28.19935 36.2896,28.28935 C36.1096,28.47935 35.9996,28.73935 35.9996,28.99935 C35.9996,29.26935 36.0996,29.51935 36.2896,29.70935 C36.4796,29.89935 36.7296,29.99935 36.9996,29.99935 C37.2696,29.99935 37.5196,29.89935 37.7096,29.70935 C37.8996,29.51935 37.9996,29.26935 37.9996,28.99935 C37.9996,28.73935 37.8896,28.47935 37.7096,28.28935 C37.4296,28.01935 36.9896,27.91935 36.6196,28.07935 Z M32.4795,29.81465 C32.3455,30.46565 31.5595,31.18965 30.8915,31.27665 C25.6535,31.90565 20.3415,31.90565 15.1115,31.27665 C14.4425,31.19165 13.6545,30.46665 13.5225,29.82365 C12.8295,26.29165 12.8295,22.70965 13.5205,19.18565 C13.6545,18.53365 14.4425,17.80865 15.1035,17.72465 C17.7245,17.40965 20.3635,17.25165 23.0025,17.25165 C25.6385,17.25165 28.2735,17.40965 30.8875,17.72365 C31.5575,17.80965 32.3455,18.53465 32.4775,19.17665 C33.1705,22.70965 33.1705,26.29165 32.4795,29.81465 Z M31.1345,15.73865 C25.7375,15.09165 20.2625,15.09065 14.8575,15.73965 C13.3445,15.93365 11.8665,17.29865 11.5595,18.79265 C10.8165,22.57965 10.8165,26.42065 11.5615,30.21665 C11.8665,31.70165 13.3445,33.06765 14.8645,33.26165 C17.5635,33.58565 20.2825,33.74865 23.0005,33.74865 C25.7175,33.74865 28.4365,33.58565 31.1355,33.26165 C31.1375,33.26065 31.1405,33.26065 31.1425,33.26065 C32.6545,33.06765 34.1325,31.70265 34.4405,30.20865 C35.1835,26.42065 35.1835,22.57965 34.4385,18.78365 C34.1335,17.29965 32.6555,15.93465 31.1345,15.73865 Z"/>
</svg>
